<svg xmlns="http://www.w3.org/2000/svg" xmlns:xlink="http://www.w3.org/1999/xlink" version="1.1" x="0" y="0" height="230" width="800" viewBox="0 0 800 230" preserveAspectRatio="none"  >
<g label="Query sequence" class="clusterblast-cluster"  >
<text x="5" y="20" class="clusterblast-acc"  >
Query sequence</text>
<line x1="10" y1="35" x2="778.0" y2="35" style="stroke-width:1; stroke:grey; "  />
<polygon points="42,40 309,40 314,35 309,30 42,30 42,40 " style="fill:#d81515; stroke-width:1; stroke:black; " description="&lt;b&gt;ctg4_577&lt;/b&gt;&lt;br&gt;ctg4 577&lt;br&gt;Location: 680926 - 689050" locus_tag="ctg4_577" class="clusterblast-orf" id="dummy-2_q0_0_all"  />
<polygon points="319,40 325,40 330,35 325,30 319,30 319,40 " style="fill:#3cd815; stroke-width:1; stroke:black; " description="&lt;b&gt;ctg4_578&lt;/b&gt;&lt;br&gt;ctg4 578&lt;br&gt;Location: 689198 - 689537" locus_tag="ctg4_578" class="clusterblast-orf" id="dummy-2_q1_0_all"  />
<polygon points="334,35 339,30 400,30 400,40 339,40 334,35 " style="fill:#1563d8; stroke-width:1; stroke:black; " description="&lt;b&gt;ctg4_579&lt;/b&gt;&lt;br&gt;ctg4 579&lt;br&gt;Location: 689672 - 691619" locus_tag="ctg4_579" class="clusterblast-orf" id="dummy-2_q2_0_all"  />
<polygon points="400,35 405,30 423,30 423,40 405,40 400,35 " style="fill:#b115d8; stroke-width:1; stroke:black; " description="&lt;b&gt;ctg4_580&lt;/b&gt;&lt;br&gt;ctg4 580&lt;br&gt;Location: 691633 - 692326" locus_tag="ctg4_580" class="clusterblast-orf" id="dummy-2_q3_0_all"  />
<polygon points="432,40 451,40 456,35 451,30 432,30 432,40 " style="fill:#d88a15; stroke-width:1; stroke:black; " description="&lt;b&gt;ctg4_581&lt;/b&gt;&lt;br&gt;ctg4 581&lt;br&gt;Location: 692593 - 693304" locus_tag="ctg4_581" class="clusterblast-orf" id="dummy-2_q4_0_all"  />
<polygon points="482,40 503,40 508,35 503,30 482,30 482,40 " style="fill:#15d863; stroke-width:1; stroke:black; " description="&lt;b&gt;ctg4_582&lt;/b&gt;&lt;br&gt;ctg4 582&lt;br&gt;Location: 694088 - 694865" locus_tag="ctg4_582" class="clusterblast-orf" id="dummy-2_q5_0_all"  />
<polygon points="508,40 534,40 539,35 534,30 508,30 508,40 " style="fill:#3c15d8; stroke-width:1; stroke:black; " description="&lt;b&gt;ctg4_583&lt;/b&gt;&lt;br&gt;ctg4 583&lt;br&gt;Location: 694861 - 695791" locus_tag="ctg4_583" class="clusterblast-orf" id="dummy-2_q6_0_all"  />
<polygon points="539,40 649,40 654,35 649,30 539,30 539,40 " style="fill:#d8158a; stroke-width:1; stroke:black; " description="&lt;b&gt;ctg4_584&lt;/b&gt;&lt;br&gt;ctg4 584&lt;br&gt;Location: 695804 - 699215" locus_tag="ctg4_584" class="clusterblast-orf" id="dummy-2_q7_0_all"  />
<polygon points="654,40 665,40 670,35 665,30 654,30 654,40 " style="fill:#b1d815; stroke-width:1; stroke:black; " description="&lt;b&gt;ctg4_585&lt;/b&gt;&lt;br&gt;ctg4 585&lt;br&gt;Location: 699237 - 699705" locus_tag="ctg4_585" class="clusterblast-orf" id="dummy-2_q8_0_all"  />
<polygon points="675,35 680,30 738,30 738,40 680,40 675,35 " style="fill:#15d8d8; stroke-width:1; stroke:black; " description="&lt;b&gt;ctg4_586&lt;/b&gt;&lt;br&gt;ctg4 586&lt;br&gt;Location: 699851 - 701732" locus_tag="ctg4_586" class="clusterblast-orf" id="dummy-2_q9_0_all"  />
</g>
<g label="NZ_JBOO01000049" description="NZ_JBOO01000049_c11: Pseudomonas fluorescens strain PA3G8 PA3G8 contig49, who... (71% of genes show similarity), other" class="clusterblast-cluster"  >
<text x="5" y="70" class="clusterblast-acc"  >
<a xlink:href="https://antismash-db.secondarymetabolites.org/go/NZ_JBOO01000049/11" target="_blank">NZ_JBOO01000049_c11</a>: Pseudomonas fluorescens strain PA3G8 PA3G8 contig49, who... (71% of genes show similarity), other</text>
<line x1="10" y1="85" x2="778.0" y2="85" style="stroke-width:1; stroke:grey; "  />
</g>
<g id="a2_000"  >
<polygon points="0,90 155,90 160,85 155,80 0,80 0,90 " style="fill:#d81515; stroke-width:1; stroke:black; " description="&lt;b&gt;AW34_RS00205&lt;/b&gt;&lt;br&gt;type I secretion protein&lt;br&gt;Location: 1 - 4794&lt;br&gt;&lt;br&gt;&lt;b&gt;BlastP hit with ctg4_577&lt;/b&gt;&lt;br&gt;Percentage identity: 78&lt;br&gt;Percentage coverage: 59&lt;br&gt;BLAST bit score: 2165&lt;br&gt;E-value: 0.0" locus_tag="AW34_RS00205" class="clusterblast-orf" id="dummy-2_h2_7_0"  />
</g>
<g id="a2_001"  >
<polygon points="165,90 171,90 176,85 171,80 165,80 165,90 " style="fill:#3cd815; stroke-width:1; stroke:black; " description="&lt;b&gt;AW34_RS00210&lt;/b&gt;&lt;br&gt;hypothetical protein&lt;br&gt;Location: 4942 - 5280&lt;br&gt;&lt;br&gt;&lt;b&gt;BlastP hit with ctg4_578&lt;/b&gt;&lt;br&gt;Percentage identity: 94&lt;br&gt;Percentage coverage: 100&lt;br&gt;BLAST bit score: 201&lt;br&gt;E-value: 6.1e-50" locus_tag="AW34_RS00210" class="clusterblast-orf" id="dummy-2_h2_7_1"  />
</g>
<g id="a2_002"  >
<polygon points="190,85 195,80 255,80 255,90 195,90 190,85 " style="fill:#1563d8; stroke-width:1; stroke:black; " description="&lt;b&gt;AW34_RS00215&lt;/b&gt;&lt;br&gt;GGDEF domain-containing protein&lt;br&gt;Location: 5704 - 7650&lt;br&gt;&lt;br&gt;&lt;b&gt;BlastP hit with ctg4_579&lt;/b&gt;&lt;br&gt;Percentage identity: 95&lt;br&gt;Percentage coverage: 100&lt;br&gt;BLAST bit score: 1176&lt;br&gt;E-value: 0.0" locus_tag="AW34_RS00215" class="clusterblast-orf" id="dummy-2_h2_7_2"  />
</g>
<g id="a2_003"  >
<polygon points="256,85 261,80 279,80 279,90 261,90 256,85 " style="fill:#b115d8; stroke-width:1; stroke:black; " description="&lt;b&gt;AW34_RS00220&lt;/b&gt;&lt;br&gt;periplasmic protein&lt;br&gt;Location: 7665 - 8357&lt;br&gt;&lt;br&gt;&lt;b&gt;BlastP hit with ctg4_580&lt;/b&gt;&lt;br&gt;Percentage identity: 94&lt;br&gt;Percentage coverage: 100&lt;br&gt;BLAST bit score: 448&lt;br&gt;E-value: 5.9e-124" locus_tag="AW34_RS00220" class="clusterblast-orf" id="dummy-2_h2_7_3"  />
</g>
<g id="a2_004"  >
<polygon points="286,90 304,90 309,85 304,80 286,80 286,90 " style="fill:#d88a15; stroke-width:1; stroke:black; " description="&lt;b&gt;AW34_RS00225&lt;/b&gt;&lt;br&gt;GntR family transcriptional regulator&lt;br&gt;Location: 8556 - 9266&lt;br&gt;&lt;br&gt;&lt;b&gt;BlastP hit with ctg4_581&lt;/b&gt;&lt;br&gt;Percentage identity: 88&lt;br&gt;Percentage coverage: 100&lt;br&gt;BLAST bit score: 401&lt;br&gt;E-value: 5e-110" locus_tag="AW34_RS00225" class="clusterblast-orf" id="dummy-2_h2_7_4"  />
</g>
<g id="a2_005"  >
<polygon points="334,90 355,90 360,85 355,80 334,80 334,90 " style="fill:#15d863; stroke-width:1; stroke:black; " description="&lt;b&gt;AW34_RS00230&lt;/b&gt;&lt;br&gt;DUF3050 domain-containing protein&lt;br&gt;Location: 10020 - 10796&lt;br&gt;&lt;br&gt;&lt;b&gt;BlastP hit with ctg4_582&lt;/b&gt;&lt;br&gt;Percentage identity: 94&lt;br&gt;Percentage coverage: 100&lt;br&gt;BLAST bit score: 496&lt;br&gt;E-value: 2.1e-138" locus_tag="AW34_RS00230" class="clusterblast-orf" id="dummy-2_h2_7_5"  />
</g>
<g id="a2_006"  >
<polygon points="360,90 386,90 391,85 386,80 360,80 360,90 " style="fill:#3c15d8; stroke-width:1; stroke:black; " description="&lt;b&gt;AW34_RS00235&lt;/b&gt;&lt;br&gt;aminobenzoate oxygenase&lt;br&gt;Location: 10793 - 11722&lt;br&gt;&lt;br&gt;&lt;b&gt;BlastP hit with ctg4_583&lt;/b&gt;&lt;br&gt;Percentage identity: 97&lt;br&gt;Percentage coverage: 100&lt;br&gt;BLAST bit score: 594&lt;br&gt;E-value: 5.2e-168" locus_tag="AW34_RS00235" class="clusterblast-orf" id="dummy-2_h2_7_6"  />
</g>
<g id="a2_007"  >
<polygon points="392,90 501,90 506,85 501,80 392,80 392,90 " style="fill:#d8158a; stroke-width:1; stroke:black; " description="&lt;b&gt;AW34_RS00240&lt;/b&gt;&lt;br&gt;peptide transporter&lt;br&gt;Location: 11736 - 15152&lt;br&gt;&lt;br&gt;&lt;b&gt;BlastP hit with ctg4_584&lt;/b&gt;&lt;br&gt;Percentage identity: 89&lt;br&gt;Percentage coverage: 100&lt;br&gt;BLAST bit score: 2005&lt;br&gt;E-value: 0.0" locus_tag="AW34_RS00240" class="clusterblast-orf" id="dummy-2_h2_7_7"  />
</g>
<g id="a2_008"  >
<polygon points="507,90 518,90 523,85 518,80 507,80 507,90 " style="fill:#b1d815; stroke-width:1; stroke:black; " description="&lt;b&gt;AW34_RS00245&lt;/b&gt;&lt;br&gt;SRPBCC family protein&lt;br&gt;Location: 15182 - 15649&lt;br&gt;&lt;br&gt;&lt;b&gt;BlastP hit with ctg4_585&lt;/b&gt;&lt;br&gt;Percentage identity: 92&lt;br&gt;Percentage coverage: 99&lt;br&gt;BLAST bit score: 291&lt;br&gt;E-value: 6.2e-77" locus_tag="AW34_RS00245" class="clusterblast-orf" id="dummy-2_h2_7_8"  />
</g>
<g id="a2_009"  >
<polygon points="527,85 532,80 590,80 590,90 532,90 527,85 " style="fill:#15d8d8; stroke-width:1; stroke:black; " description="&lt;b&gt;AW34_RS00250&lt;/b&gt;&lt;br&gt;methyl-accepting chemotaxis protein&lt;br&gt;Location: 15775 - 17655&lt;br&gt;&lt;br&gt;&lt;b&gt;BlastP hit with ctg4_586&lt;/b&gt;&lt;br&gt;Percentage identity: 94&lt;br&gt;Percentage coverage: 100&lt;br&gt;BLAST bit score: 950&lt;br&gt;E-value: 9.9e-275" locus_tag="AW34_RS00250" class="clusterblast-orf" id="dummy-2_h2_7_9"  />
</g>
<g id="a2_0010"  >
<polygon points="600,90 612,90 617,85 612,80 600,80 600,90 " style="fill:white; stroke-width:1; stroke:black; " description="&lt;b&gt;AW34_RS00255&lt;/b&gt;&lt;br&gt;RNA polymerase sigma factor&lt;br&gt;Location: 17959 - 18459" locus_tag="AW34_RS00255" class="clusterblast-orf" id="dummy-2_h2_7_10"  />
</g>
<g id="a2_0011"  >
<polygon points="617,90 646,90 651,85 646,80 617,80 617,90 " style="fill:white; stroke-width:1; stroke:black; " description="&lt;b&gt;AW34_RS00260&lt;/b&gt;&lt;br&gt;peptide ABC transporter substrate-binding protein&lt;br&gt;Location: 18459 - 19472" locus_tag="AW34_RS00260" class="clusterblast-orf" id="dummy-2_h2_7_11"  />
</g>
<g id="a2_0012"  >
<polygon points="654,90 732,90 737,85 732,80 654,80 654,90 " style="fill:white; stroke-width:1; stroke:black; " description="&lt;b&gt;AW34_RS00265&lt;/b&gt;&lt;br&gt;TonB-dependent siderophore receptor&lt;br&gt;Location: 19561 - 22062" locus_tag="AW34_RS00265" class="clusterblast-orf" id="dummy-2_h2_7_12"  />
</g>
<g id="a2_0013"  >
<polygon points="740,90 775,90 780,85 775,80 740,80 740,90 " style="fill:white; stroke-width:1; stroke:black; " description="&lt;b&gt;AW34_RS00270&lt;/b&gt;&lt;br&gt;PepSY domain-containing protein&lt;br&gt;Location: 22133 - 23329" locus_tag="AW34_RS00270" class="clusterblast-orf" id="dummy-2_h2_7_13"  />
</g>
</svg>
