<svg xmlns="http://www.w3.org/2000/svg" xmlns:xlink="http://www.w3.org/1999/xlink" version="1.1" x="0" y="0" height="230" width="800" viewBox="0 0 800 230" preserveAspectRatio="none"  >
<g label="Query sequence" class="clusterblast-cluster"  >
<text x="5" y="20" class="clusterblast-acc"  >
Query sequence</text>
<line x1="10" y1="35" x2="778.0" y2="35" style="stroke-width:1; stroke:grey; "  />
<polygon points="263,40 297,40 302,35 297,30 263,30 263,40 " style="fill:white; stroke-width:1; stroke:black; " description="&lt;b&gt;ctg1_736&lt;/b&gt;&lt;br&gt;ctg1 736&lt;br&gt;Location: 811806 - 813900" locus_tag="ctg1_736" class="clusterblast-orf" id="dummy-1_q0_0_all"  />
<polygon points="303,35 306,30 306,40 303,35 " style="fill:white; stroke-width:1; stroke:black; " description="&lt;b&gt;ctg1_737&lt;/b&gt;&lt;br&gt;ctg1 737&lt;br&gt;Location: 813962 - 814115" locus_tag="ctg1_737" class="clusterblast-orf" id="dummy-1_q1_0_all"  />
<polygon points="314,40 324,40 329,35 324,30 314,30 314,40 " style="fill:#d81515; stroke-width:1; stroke:black; " description="&lt;b&gt;ctg1_738&lt;/b&gt;&lt;br&gt;ctg1 738&lt;br&gt;Location: 814519 - 815335" locus_tag="ctg1_738" class="clusterblast-orf" id="dummy-1_q2_0_all"  />
<polygon points="330,40 331,40 336,35 331,30 330,30 330,40 " style="fill:white; stroke-width:1; stroke:black; " description="&lt;b&gt;ctg1_739&lt;/b&gt;&lt;br&gt;ctg1 739&lt;br&gt;Location: 815399 - 815732" locus_tag="ctg1_739" class="clusterblast-orf" id="dummy-1_q3_0_all"  />
<polygon points="339,40 343,35 339,30 339,40 " style="fill:#77d815; stroke-width:1; stroke:black; " description="&lt;b&gt;ctg1_740&lt;/b&gt;&lt;br&gt;ctg1 740&lt;br&gt;Location: 815885 - 816071" locus_tag="ctg1_740" class="clusterblast-orf" id="dummy-1_q4_0_all"  />
<polygon points="343,35 347,30 347,40 343,35 " style="fill:#15d8d8; stroke-width:1; stroke:black; " description="&lt;b&gt;ctg1_741&lt;/b&gt;&lt;br&gt;ctg1 741&lt;br&gt;Location: 816076 - 816304" locus_tag="ctg1_741" class="clusterblast-orf" id="dummy-1_q5_0_all"  />
<polygon points="351,35 356,30 373,30 373,40 356,40 351,35 " style="fill:#7715d8; stroke-width:1; stroke:black; " description="&lt;b&gt;ctg1_742&lt;/b&gt;&lt;br&gt;ctg1 742&lt;br&gt;Location: 816493 - 817684" locus_tag="ctg1_742" class="clusterblast-orf" id="dummy-1_q6_0_all"  />
<polygon points="376,35 381,30 408,30 408,40 381,40 376,35 " style="fill:#d8a715; stroke-width:1; stroke:black; " description="&lt;b&gt;ctg1_743&lt;/b&gt;&lt;br&gt;ctg1 743&lt;br&gt;Location: 817849 - 819598" locus_tag="ctg1_743" class="clusterblast-orf" id="dummy-1_q7_0_all"  />
<polygon points="408,35 413,30 441,30 441,40 413,40 408,35 " style="fill:#15d846; stroke-width:1; stroke:black; " description="&lt;b&gt;ctg1_744&lt;/b&gt;&lt;br&gt;ctg1 744&lt;br&gt;Location: 819601 - 821374" locus_tag="ctg1_744" class="clusterblast-orf" id="dummy-1_q8_0_all"  />
<polygon points="446,35 451,30 483,30 483,40 451,40 446,35 " style="fill:#1546d8; stroke-width:1; stroke:black; " description="&lt;b&gt;ctg1_745&lt;/b&gt;&lt;br&gt;ctg1 745&lt;br&gt;Location: 821636 - 823616" locus_tag="ctg1_745" class="clusterblast-orf" id="dummy-1_q9_0_all"  />
<polygon points="488,40 511,40 516,35 511,30 488,30 488,40 " style="fill:#d815a7; stroke-width:1; stroke:black; " description="&lt;b&gt;ctg1_746&lt;/b&gt;&lt;br&gt;ctg1 746&lt;br&gt;Location: 823868 - 825383" locus_tag="ctg1_746" class="clusterblast-orf" id="dummy-1_q10_0_all"  />
</g>
<g label="NZ_MPNS01000004" description="NZ_MPNS01000004_c6: Mycolicibacterium diernhoferi strain Bard NODE 4 length 4... (7% of genes show similarity), other" class="clusterblast-cluster"  >
<text x="5" y="70" class="clusterblast-acc"  >
<a xlink:href="https://antismash-db.secondarymetabolites.org/go/NZ_MPNS01000004/6" target="_blank">NZ_MPNS01000004_c6</a>: Mycolicibacterium diernhoferi strain Bard NODE 4 length 4... (7% of genes show similarity), other</text>
<line x1="10" y1="85" x2="778.0" y2="85" style="stroke-width:1; stroke:grey; "  />
</g>
<g id="a1_000"  >
<polygon points="0,90 24,90 29,85 24,80 0,80 0,90 " style="fill:white; stroke-width:1; stroke:black; " description="&lt;b&gt;BRW64_RS10220&lt;/b&gt;&lt;br&gt;acyl-CoA synthetase&lt;br&gt;Location: 338217 - 336646" locus_tag="BRW64_RS10220" class="clusterblast-orf" id="dummy-1_h1_4_0"  />
</g>
<g id="a1_001"  >
<polygon points="29,85 34,80 34,80 34,90 34,90 29,85 " style="fill:white; stroke-width:1; stroke:black; " description="&lt;b&gt;BRW64_RS10215&lt;/b&gt;&lt;br&gt;hypothetical protein&lt;br&gt;Location: 336649 - 336380" locus_tag="BRW64_RS10215" class="clusterblast-orf" id="dummy-1_h1_4_1"  />
</g>
<g id="a1_002"  >
<polygon points="37,90 53,90 58,85 53,80 37,80 37,90 " style="fill:white; stroke-width:1; stroke:black; " description="&lt;b&gt;BRW64_RS10210&lt;/b&gt;&lt;br&gt;hypothetical protein&lt;br&gt;Location: 336183 - 335098" locus_tag="BRW64_RS10210" class="clusterblast-orf" id="dummy-1_h1_4_2"  />
</g>
<g id="a1_003"  >
<polygon points="58,90 76,90 81,85 76,80 58,80 58,90 " style="fill:white; stroke-width:1; stroke:black; " description="&lt;b&gt;BRW64_RS10205&lt;/b&gt;&lt;br&gt;CoA transferase&lt;br&gt;Location: 335049 - 333841" locus_tag="BRW64_RS10205" class="clusterblast-orf" id="dummy-1_h1_4_3"  />
</g>
<g id="a1_004"  >
<polygon points="81,85 86,80 96,80 96,90 86,90 81,85 " style="fill:white; stroke-width:1; stroke:black; " description="&lt;b&gt;BRW64_RS10200&lt;/b&gt;&lt;br&gt;FadR family transcriptional regulator&lt;br&gt;Location: 333817 - 333026" locus_tag="BRW64_RS10200" class="clusterblast-orf" id="dummy-1_h1_4_4"  />
</g>
<g id="a1_005"  >
<polygon points="98,90 121,90 126,85 121,80 98,80 98,90 " style="fill:white; stroke-width:1; stroke:black; " description="&lt;b&gt;BRW64_RS10195&lt;/b&gt;&lt;br&gt;aldehyde dehydrogenase&lt;br&gt;Location: 332916 - 331435" locus_tag="BRW64_RS10195" class="clusterblast-orf" id="dummy-1_h1_4_5"  />
</g>
<g id="a1_006"  >
<polygon points="126,90 130,90 135,85 130,80 126,80 126,90 " style="fill:white; stroke-width:1; stroke:black; " description="&lt;b&gt;BRW64_RS10190&lt;/b&gt;&lt;br&gt;DUF2599 domain-containing protein&lt;br&gt;Location: 331395 - 330961" locus_tag="BRW64_RS10190" class="clusterblast-orf" id="dummy-1_h1_4_6"  />
</g>
<g id="a1_007"  >
<polygon points="134,85 139,80 145,80 145,90 139,90 134,85 " style="fill:white; stroke-width:1; stroke:black; " description="&lt;b&gt;BRW64_RS10185&lt;/b&gt;&lt;br&gt;hypothetical protein&lt;br&gt;Location: 330971 - 330393" locus_tag="BRW64_RS10185" class="clusterblast-orf" id="dummy-1_h1_4_7"  />
</g>
<g id="a1_008"  >
<polygon points="148,85 153,80 159,80 159,90 153,90 148,85 " style="fill:white; stroke-width:1; stroke:black; " description="&lt;b&gt;BRW64_RS10180&lt;/b&gt;&lt;br&gt;hypothetical protein&lt;br&gt;Location: 330222 - 329638" locus_tag="BRW64_RS10180" class="clusterblast-orf" id="dummy-1_h1_4_8"  />
</g>
<g id="a1_009"  >
<polygon points="160,85 165,80 181,80 181,90 165,90 160,85 " style="fill:white; stroke-width:1; stroke:black; " description="&lt;b&gt;BRW64_RS10175&lt;/b&gt;&lt;br&gt;MCE family protein&lt;br&gt;Location: 329615 - 328437" locus_tag="BRW64_RS10175" class="clusterblast-orf" id="dummy-1_h1_4_9"  />
</g>
<g id="a1_0010"  >
<polygon points="183,85 188,80 206,80 206,90 188,90 183,85 " style="fill:white; stroke-width:1; stroke:black; " description="&lt;b&gt;BRW64_RS10170&lt;/b&gt;&lt;br&gt;MCE family protein&lt;br&gt;Location: 328365 - 327142" locus_tag="BRW64_RS10170" class="clusterblast-orf" id="dummy-1_h1_4_10"  />
</g>
<g id="a1_0011"  >
<polygon points="206,85 211,80 226,80 226,90 211,90 206,85 " style="fill:white; stroke-width:1; stroke:black; " description="&lt;b&gt;BRW64_RS10165&lt;/b&gt;&lt;br&gt;MCE family protein&lt;br&gt;Location: 327145 - 326039" locus_tag="BRW64_RS10165" class="clusterblast-orf" id="dummy-1_h1_4_11"  />
</g>
<g id="a1_0012"  >
<polygon points="226,85 231,80 245,80 245,90 231,90 226,85 " style="fill:white; stroke-width:1; stroke:black; " description="&lt;b&gt;BRW64_RS10160&lt;/b&gt;&lt;br&gt;MCE family protein&lt;br&gt;Location: 326042 - 325008" locus_tag="BRW64_RS10160" class="clusterblast-orf" id="dummy-1_h1_4_12"  />
</g>
<g id="a1_0013"  >
<polygon points="245,85 250,80 265,80 265,90 250,90 245,85 " style="fill:white; stroke-width:1; stroke:black; " description="&lt;b&gt;BRW64_RS10155&lt;/b&gt;&lt;br&gt;MCE family protein&lt;br&gt;Location: 325000 - 323963" locus_tag="BRW64_RS10155" class="clusterblast-orf" id="dummy-1_h1_4_13"  />
</g>
<g id="a1_0014"  >
<polygon points="265,85 270,80 290,80 290,90 270,90 265,85 " style="fill:white; stroke-width:1; stroke:black; " description="&lt;b&gt;BRW64_RS10150&lt;/b&gt;&lt;br&gt;MCE family protein&lt;br&gt;Location: 323966 - 322608" locus_tag="BRW64_RS10150" class="clusterblast-orf" id="dummy-1_h1_4_14"  />
</g>
<g id="a1_0015"  >
<polygon points="290,85 295,80 306,80 306,90 295,90 290,85 " style="fill:white; stroke-width:1; stroke:black; " description="&lt;b&gt;BRW64_RS10145&lt;/b&gt;&lt;br&gt;ABC transporter permease&lt;br&gt;Location: 322603 - 321749" locus_tag="BRW64_RS10145" class="clusterblast-orf" id="dummy-1_h1_4_15"  />
</g>
<g id="a1_0016"  >
<polygon points="306,85 311,80 322,80 322,90 311,90 306,85 " style="fill:white; stroke-width:1; stroke:black; " description="&lt;b&gt;BRW64_RS10140&lt;/b&gt;&lt;br&gt;ABC transporter permease&lt;br&gt;Location: 321749 - 320901" locus_tag="BRW64_RS10140" class="clusterblast-orf" id="dummy-1_h1_4_16"  />
</g>
<g id="a1_0017"  >
<polygon points="322,85 327,80 344,80 344,90 327,90 322,85 " style="fill:white; stroke-width:1; stroke:black; " description="&lt;b&gt;BRW64_RS10135&lt;/b&gt;&lt;br&gt;acyl-CoA dehydrogenase&lt;br&gt;Location: 320863 - 319688" locus_tag="BRW64_RS10135" class="clusterblast-orf" id="dummy-1_h1_4_17"  />
</g>
<g id="a1_0018"  >
<polygon points="347,90 363,90 368,85 363,80 347,80 347,90 " style="fill:white; stroke-width:1; stroke:black; " description="&lt;b&gt;BRW64_RS10130&lt;/b&gt;&lt;br&gt;acyl-CoA dehydrogenase&lt;br&gt;Location: 319567 - 318437" locus_tag="BRW64_RS10130" class="clusterblast-orf" id="dummy-1_h1_4_18"  />
</g>
<g id="a1_0019"  >
<polygon points="370,90 411,90 416,85 411,80 370,80 370,90 " style="fill:white; stroke-width:1; stroke:black; " description="&lt;b&gt;BRW64_RS10125&lt;/b&gt;&lt;br&gt;AMP-dependent synthetase&lt;br&gt;Location: 318292 - 315836" locus_tag="BRW64_RS10125" class="clusterblast-orf" id="dummy-1_h1_4_19"  />
</g>
<g id="a1_0020"  >
<polygon points="416,85 421,80 431,80 431,90 421,90 416,85 " style="fill:white; stroke-width:1; stroke:black; " description="&lt;b&gt;BRW64_RS10120&lt;/b&gt;&lt;br&gt;acyl-CoA thioesterase II&lt;br&gt;Location: 315833 - 315036" locus_tag="BRW64_RS10120" class="clusterblast-orf" id="dummy-1_h1_4_20"  />
</g>
<g id="a1_0021"  >
<polygon points="432,85 437,80 454,80 454,90 437,90 432,85 " style="fill:white; stroke-width:1; stroke:black; " description="&lt;b&gt;BRW64_RS10115&lt;/b&gt;&lt;br&gt;mesaconyl-CoA isomerase&lt;br&gt;Location: 314974 - 313775" locus_tag="BRW64_RS10115" class="clusterblast-orf" id="dummy-1_h1_4_21"  />
</g>
<g id="a1_0022"  >
<polygon points="455,85 460,80 467,80 467,90 460,90 455,85 " style="fill:white; stroke-width:1; stroke:black; " description="&lt;b&gt;BRW64_RS10110&lt;/b&gt;&lt;br&gt;hypothetical protein&lt;br&gt;Location: 313762 - 313085" locus_tag="BRW64_RS10110" class="clusterblast-orf" id="dummy-1_h1_4_22"  />
</g>
<g id="a1_0023"  >
<polygon points="468,90 475,90 480,85 475,80 468,80 468,90 " style="fill:white; stroke-width:1; stroke:black; " description="&lt;b&gt;BRW64_RS10105&lt;/b&gt;&lt;br&gt;dienelactone hydrolase family protein&lt;br&gt;Location: 313063 - 312368" locus_tag="BRW64_RS10105" class="clusterblast-orf" id="dummy-1_h1_4_23"  />
</g>
<g id="a1_0024"  >
<polygon points="480,85 485,80 485,80 485,90 485,90 480,85 " style="fill:white; stroke-width:1; stroke:black; " description="&lt;b&gt;BRW64_RS10100&lt;/b&gt;&lt;br&gt;hypothetical protein&lt;br&gt;Location: 312371 - 312110" locus_tag="BRW64_RS10100" class="clusterblast-orf" id="dummy-1_h1_4_24"  />
</g>
<g id="a1_0025"  >
<polygon points="486,85 491,80 492,80 492,90 491,90 486,85 " style="fill:white; stroke-width:1; stroke:black; " description="&lt;b&gt;BRW64_RS10095&lt;/b&gt;&lt;br&gt;DUF2469 domain-containing protein&lt;br&gt;Location: 312064 - 311759" locus_tag="BRW64_RS10095" class="clusterblast-orf" id="dummy-1_h1_4_25"  />
</g>
<g id="a1_0026"  >
<polygon points="492,85 497,80 505,80 505,90 497,90 492,85 " style="fill:white; stroke-width:1; stroke:black; " description="&lt;b&gt;BRW64_RS10090&lt;/b&gt;&lt;br&gt;ribonuclease HII&lt;br&gt;Location: 311762 - 311034" locus_tag="BRW64_RS10090" class="clusterblast-orf" id="dummy-1_h1_4_26"  />
</g>
<g id="a1_0027"  >
<polygon points="506,85 511,80 521,80 521,90 511,90 506,85 " style="fill:white; stroke-width:1; stroke:black; " description="&lt;b&gt;BRW64_RS10085&lt;/b&gt;&lt;br&gt;signal peptidase I&lt;br&gt;Location: 311022 - 310195" locus_tag="BRW64_RS10085" class="clusterblast-orf" id="dummy-1_h1_4_27"  />
</g>
<g id="a1_0028"  >
<polygon points="522,85 527,80 529,80 529,90 527,90 522,85 " style="fill:white; stroke-width:1; stroke:black; " description="&lt;b&gt;BRW64_RS10080&lt;/b&gt;&lt;br&gt;50S ribosomal protein L19&lt;br&gt;Location: 310112 - 309771" locus_tag="BRW64_RS10080" class="clusterblast-orf" id="dummy-1_h1_4_28"  />
</g>
<g id="a1_0029"  >
<polygon points="535,90 547,90 552,85 547,80 535,80 535,90 " style="fill:white; stroke-width:1; stroke:black; " description="&lt;b&gt;BRW64_RS10075&lt;/b&gt;&lt;br&gt;hypothetical protein&lt;br&gt;Location: 309441 - 308500" locus_tag="BRW64_RS10075" class="clusterblast-orf" id="dummy-1_h1_4_29"  />
</g>
<g id="a1_0030"  >
<polygon points="552,85 557,80 565,80 565,90 557,90 552,85 " style="fill:white; stroke-width:1; stroke:black; " description="&lt;b&gt;BRW64_RS10070&lt;/b&gt;&lt;br&gt;tRNA (guanosine(37)-N1)-methyltransferase TrmD&lt;br&gt;Location: 308503 - 307814" locus_tag="BRW64_RS10070" class="clusterblast-orf" id="dummy-1_h1_4_30"  />
</g>
<g id="a1_0031"  >
<polygon points="565,85 570,80 575,80 575,90 570,90 565,85 " style="fill:white; stroke-width:1; stroke:black; " description="&lt;b&gt;BRW64_RS10065&lt;/b&gt;&lt;br&gt;ribosome maturation factor RimM&lt;br&gt;Location: 307806 - 307279" locus_tag="BRW64_RS10065" class="clusterblast-orf" id="dummy-1_h1_4_31"  />
</g>
<g id="a1_0032"  >
<polygon points="575,85 580,80 580,80 580,90 580,90 575,85 " style="fill:white; stroke-width:1; stroke:black; " description="&lt;b&gt;BRW64_RS10060&lt;/b&gt;&lt;br&gt;RNA-binding protein&lt;br&gt;Location: 307267 - 307025" locus_tag="BRW64_RS10060" class="clusterblast-orf" id="dummy-1_h1_4_32"  />
</g>
<g id="a1_0033"  >
<polygon points="580,85 585,80 589,80 589,90 585,90 580,85 " style="fill:white; stroke-width:1; stroke:black; " description="&lt;b&gt;BRW64_RS10055&lt;/b&gt;&lt;br&gt;30S ribosomal protein S16&lt;br&gt;Location: 307028 - 306552" locus_tag="BRW64_RS10055" class="clusterblast-orf" id="dummy-1_h1_4_33"  />
</g>
<g id="a1_0034"  >
<polygon points="592,85 597,80 600,80 600,90 597,90 592,85 " style="fill:white; stroke-width:1; stroke:black; " description="&lt;b&gt;BRW64_RS10050&lt;/b&gt;&lt;br&gt;nuclear transport factor 2 family protein&lt;br&gt;Location: 306357 - 305935" locus_tag="BRW64_RS10050" class="clusterblast-orf" id="dummy-1_h1_4_34"  />
</g>
<g id="a1_0035"  >
<polygon points="601,85 606,80 624,80 624,90 606,90 601,85 " style="fill:#7715d8; stroke-width:1; stroke:black; " description="&lt;b&gt;BRW64_RS10045&lt;/b&gt;&lt;br&gt;osmoprotectant NAGGN system M42 family peptidase&lt;br&gt;Location: 305918 - 304677&lt;br&gt;&lt;br&gt;&lt;b&gt;BlastP hit with ctg1_742&lt;/b&gt;&lt;br&gt;Percentage identity: 48&lt;br&gt;Percentage coverage: 91&lt;br&gt;BLAST bit score: 337&lt;br&gt;E-value: 1.5e-90" locus_tag="BRW64_RS10045" class="clusterblast-orf" id="dummy-1_h1_4_35"  />
</g>
<g id="a1_0036"  >
<polygon points="625,85 630,80 658,80 658,90 630,90 625,85 " style="fill:#d8a715; stroke-width:1; stroke:black; " description="&lt;b&gt;BRW64_RS10040&lt;/b&gt;&lt;br&gt;N-acetylglutaminylglutamine synthetase&lt;br&gt;Location: 304585 - 302840&lt;br&gt;&lt;br&gt;&lt;b&gt;BlastP hit with ctg1_743&lt;/b&gt;&lt;br&gt;Percentage identity: 50&lt;br&gt;Percentage coverage: 98&lt;br&gt;BLAST bit score: 526&lt;br&gt;E-value: 4.3e-147" locus_tag="BRW64_RS10040" class="clusterblast-orf" id="dummy-1_h1_4_36"  />
</g>
<g id="a1_0037"  >
<polygon points="658,85 663,80 691,80 691,90 663,90 658,85 " style="fill:#15d846; stroke-width:1; stroke:black; " description="&lt;b&gt;BRW64_RS10035&lt;/b&gt;&lt;br&gt;N-acetylglutaminylglutamine amidotransferase&lt;br&gt;Location: 302843 - 301041&lt;br&gt;&lt;br&gt;&lt;b&gt;BlastP hit with ctg1_744&lt;/b&gt;&lt;br&gt;Percentage identity: 58&lt;br&gt;Percentage coverage: 100&lt;br&gt;BLAST bit score: 690&lt;br&gt;E-value: 2.3e-196" locus_tag="BRW64_RS10035" class="clusterblast-orf" id="dummy-1_h1_4_37"  />
</g>
<g id="a1_0038"  >
<polygon points="693,90 705,90 710,85 705,80 693,80 693,90 " style="fill:white; stroke-width:1; stroke:black; " description="&lt;b&gt;BRW64_RS10030&lt;/b&gt;&lt;br&gt;D-alanyl-D-alanine carboxypeptidase&lt;br&gt;Location: 300928 - 300053" locus_tag="BRW64_RS10030" class="clusterblast-orf" id="dummy-1_h1_4_38"  />
</g>
<g id="a1_0039"  >
<polygon points="711,90 721,90 726,85 721,80 711,80 711,90 " style="fill:white; stroke-width:1; stroke:black; " description="&lt;b&gt;BRW64_RS10025&lt;/b&gt;&lt;br&gt;D-alanyl-D-alanine carboxypeptidase&lt;br&gt;Location: 299974 - 299159" locus_tag="BRW64_RS10025" class="clusterblast-orf" id="dummy-1_h1_4_39"  />
</g>
<g id="a1_0040"  >
<polygon points="728,90 753,90 758,85 753,80 728,80 728,90 " style="fill:white; stroke-width:1; stroke:black; " description="&lt;b&gt;BRW64_RS10020&lt;/b&gt;&lt;br&gt;sulfite reductase flavoprotein subunit alpha&lt;br&gt;Location: 299069 - 297465" locus_tag="BRW64_RS10020" class="clusterblast-orf" id="dummy-1_h1_4_40"  />
</g>
<g id="a1_0041"  >
<polygon points="759,85 764,80 780,80 780,90 764,90 759,85 " style="fill:white; stroke-width:1; stroke:black; " description="&lt;b&gt;BRW64_RS10015&lt;/b&gt;&lt;br&gt;hypothetical protein&lt;br&gt;Location: 297396 - 296299" locus_tag="BRW64_RS10015" class="clusterblast-orf" id="dummy-1_h1_4_41"  />
</g>
</svg>
