<svg xmlns="http://www.w3.org/2000/svg" xmlns:xlink="http://www.w3.org/1999/xlink" version="1.1" x="0" y="0" height="230" width="800" viewBox="0 0 800 230" preserveAspectRatio="none"  >
<g label="Query sequence" class="clusterblast-cluster"  >
<text x="5" y="20" class="clusterblast-acc"  >
Query sequence</text>
<line x1="10" y1="35" x2="778.0" y2="35" style="stroke-width:1; stroke:grey; "  />
<polygon points="6,35 11,30 19,30 19,40 11,40 6,35 " style="fill:#d81515; stroke-width:1; stroke:black; " description="&lt;b&gt;ctg1_947&lt;/b&gt;&lt;br&gt;ctg1 947&lt;br&gt;Location: 1045973 - 1046867" locus_tag="ctg1_947" class="clusterblast-orf" id="dummy-2_q0_0_all"  />
<polygon points="19,40 22,35 19,30 19,40 " style="fill:white; stroke-width:1; stroke:black; " description="&lt;b&gt;ctg1_948&lt;/b&gt;&lt;br&gt;ctg1 948&lt;br&gt;Location: 1046885 - 1047053" locus_tag="ctg1_948" class="clusterblast-orf" id="dummy-2_q1_0_all"  />
<polygon points="27,35 32,30 34,30 34,40 32,40 27,35 " style="fill:#67d815; stroke-width:1; stroke:black; " description="&lt;b&gt;ctg1_949&lt;/b&gt;&lt;br&gt;ctg1 949&lt;br&gt;Location: 1047381 - 1047852" locus_tag="ctg1_949" class="clusterblast-orf" id="dummy-2_q2_0_all"  />
<polygon points="40,40 49,40 54,35 49,30 40,30 40,40 " style="fill:#15b9d8; stroke-width:1; stroke:black; " description="&lt;b&gt;ctg1_950&lt;/b&gt;&lt;br&gt;ctg1 950&lt;br&gt;Location: 1048295 - 1049231" locus_tag="ctg1_950" class="clusterblast-orf" id="dummy-2_q3_0_all"  />
<polygon points="57,40 64,40 69,35 64,30 57,30 57,40 " style="fill:#8615d8; stroke-width:1; stroke:black; " description="&lt;b&gt;ctg1_951&lt;/b&gt;&lt;br&gt;ctg1 951&lt;br&gt;Location: 1049408 - 1050215" locus_tag="ctg1_951" class="clusterblast-orf" id="dummy-2_q4_0_all"  />
<polygon points="70,35 74,30 74,40 70,35 " style="fill:#d83415; stroke-width:1; stroke:black; " description="&lt;b&gt;ctg1_952&lt;/b&gt;&lt;br&gt;ctg1 952&lt;br&gt;Location: 1050289 - 1050574" locus_tag="ctg1_952" class="clusterblast-orf" id="dummy-2_q5_0_all"  />
<polygon points="75,35 80,30 83,30 83,40 80,40 75,35 " style="fill:#49d815; stroke-width:1; stroke:black; " description="&lt;b&gt;ctg1_953&lt;/b&gt;&lt;br&gt;ctg1 953&lt;br&gt;Location: 1050644 - 1051187" locus_tag="ctg1_953" class="clusterblast-orf" id="dummy-2_q6_0_all"  />
<polygon points="84,35 89,30 113,30 113,40 89,40 84,35 " style="fill:#159bd8; stroke-width:1; stroke:black; " description="&lt;b&gt;ctg1_954&lt;/b&gt;&lt;br&gt;ctg1 954&lt;br&gt;Location: 1051258 - 1053220" locus_tag="ctg1_954" class="clusterblast-orf" id="dummy-2_q7_0_all"  />
<polygon points="115,35 120,30 127,30 127,40 120,40 115,35 " style="fill:#a515d8; stroke-width:1; stroke:black; " description="&lt;b&gt;ctg1_955&lt;/b&gt;&lt;br&gt;ctg1 955&lt;br&gt;Location: 1053329 - 1054127" locus_tag="ctg1_955" class="clusterblast-orf" id="dummy-2_q8_0_all"  />
<polygon points="127,35 132,30 144,30 144,40 132,40 127,35 " style="fill:#d85315; stroke-width:1; stroke:black; " description="&lt;b&gt;ctg1_956&lt;/b&gt;&lt;br&gt;ctg1 956&lt;br&gt;Location: 1054123 - 1055281" locus_tag="ctg1_956" class="clusterblast-orf" id="dummy-2_q9_0_all"  />
<polygon points="144,35 149,30 168,30 168,40 149,40 144,35 " style="fill:#2ad815; stroke-width:1; stroke:black; " description="&lt;b&gt;ctg1_957&lt;/b&gt;&lt;br&gt;ctg1 957&lt;br&gt;Location: 1055304 - 1056921" locus_tag="ctg1_957" class="clusterblast-orf" id="dummy-2_q10_0_all"  />
<polygon points="168,35 173,30 181,30 181,40 173,40 168,35 " style="fill:#157cd8; stroke-width:1; stroke:black; " description="&lt;b&gt;ctg1_958&lt;/b&gt;&lt;br&gt;ctg1 958&lt;br&gt;Location: 1056924 - 1057809" locus_tag="ctg1_958" class="clusterblast-orf" id="dummy-2_q11_0_all"  />
<polygon points="182,35 187,30 208,30 208,40 187,40 182,35 " style="fill:#c415d8; stroke-width:1; stroke:black; " description="&lt;b&gt;ctg1_959&lt;/b&gt;&lt;br&gt;ctg1 959&lt;br&gt;Location: 1057821 - 1059624" locus_tag="ctg1_959" class="clusterblast-orf" id="dummy-2_q12_0_all"  />
<polygon points="211,40 215,40 220,35 215,30 211,30 211,40 " style="fill:#d87215; stroke-width:1; stroke:black; " description="&lt;b&gt;ctg1_960&lt;/b&gt;&lt;br&gt;ctg1 960&lt;br&gt;Location: 1059802 - 1060429" locus_tag="ctg1_960" class="clusterblast-orf" id="dummy-2_q13_0_all"  />
<polygon points="222,40 229,40 234,35 229,30 222,30 222,40 " style="fill:#15d81f; stroke-width:1; stroke:black; " description="&lt;b&gt;ctg1_961&lt;/b&gt;&lt;br&gt;ctg1 961&lt;br&gt;Location: 1060521 - 1061316" locus_tag="ctg1_961" class="clusterblast-orf" id="dummy-2_q14_0_all"  />
<polygon points="236,40 243,40 248,35 243,30 236,30 236,40 " style="fill:#155dd8; stroke-width:1; stroke:black; " description="&lt;b&gt;ctg1_962&lt;/b&gt;&lt;br&gt;ctg1 962&lt;br&gt;Location: 1061450 - 1062287" locus_tag="ctg1_962" class="clusterblast-orf" id="dummy-2_q15_0_all"  />
<polygon points="248,40 250,35 248,30 248,40 " style="fill:#15d81f; stroke-width:1; stroke:black; " description="&lt;b&gt;ctg1_963&lt;/b&gt;&lt;br&gt;ctg1 963&lt;br&gt;Location: 1062293 - 1062425" locus_tag="ctg1_963" class="clusterblast-orf" id="dummy-2_q16_0_all"  />
<polygon points="252,40 259,40 264,35 259,30 252,30 252,40 " style="fill:#155dd8; stroke-width:1; stroke:black; " description="&lt;b&gt;ctg1_964&lt;/b&gt;&lt;br&gt;ctg1 964&lt;br&gt;Location: 1062559 - 1063393" locus_tag="ctg1_964" class="clusterblast-orf" id="dummy-2_q17_0_all"  />
<polygon points="267,40 277,40 282,35 277,30 267,30 267,40 " style="fill:#d815ce; stroke-width:1; stroke:black; " description="&lt;b&gt;ctg1_965&lt;/b&gt;&lt;br&gt;ctg1 965&lt;br&gt;Location: 1063545 - 1064559" locus_tag="ctg1_965" class="clusterblast-orf" id="dummy-2_q18_0_all"  />
<polygon points="284,35 289,30 292,30 292,40 289,40 284,35 " style="fill:#d89015; stroke-width:1; stroke:black; " description="&lt;b&gt;ctg1_966&lt;/b&gt;&lt;br&gt;ctg1 966&lt;br&gt;Location: 1064693 - 1065242" locus_tag="ctg1_966" class="clusterblast-orf" id="dummy-2_q19_0_all"  />
<polygon points="297,40 485,40 490,35 485,30 297,30 297,40 " style="fill:#15d83e; stroke-width:1; stroke:black; " description="&lt;b&gt;ctg1_967&lt;/b&gt;&lt;br&gt;ctg1 967&lt;br&gt;Location: 1065614 - 1078598" locus_tag="ctg1_967" class="clusterblast-orf" id="dummy-2_q20_0_all"  />
<polygon points="492,40 500,40 505,35 500,30 492,30 492,40 " style="fill:#153ed8; stroke-width:1; stroke:black; " description="&lt;b&gt;ctg1_968&lt;/b&gt;&lt;br&gt;ctg1 968&lt;br&gt;Location: 1078770 - 1079583" locus_tag="ctg1_968" class="clusterblast-orf" id="dummy-2_q21_0_all"  />
<polygon points="506,35 511,30 517,30 517,40 511,40 506,35 " style="fill:#d815af; stroke-width:1; stroke:black; " description="&lt;b&gt;ctg1_969&lt;/b&gt;&lt;br&gt;ctg1 969&lt;br&gt;Location: 1079675 - 1080446" locus_tag="ctg1_969" class="clusterblast-orf" id="dummy-2_q22_0_all"  />
<polygon points="517,35 522,30 530,30 530,40 522,40 517,35 " style="fill:#d8af15; stroke-width:1; stroke:black; " description="&lt;b&gt;ctg1_970&lt;/b&gt;&lt;br&gt;ctg1 970&lt;br&gt;Location: 1080421 - 1081288" locus_tag="ctg1_970" class="clusterblast-orf" id="dummy-2_q23_0_all"  />
<polygon points="530,35 535,30 556,30 556,40 535,40 530,35 " style="fill:#15d85d; stroke-width:1; stroke:black; " description="&lt;b&gt;ctg1_971&lt;/b&gt;&lt;br&gt;ctg1 971&lt;br&gt;Location: 1081287 - 1083027" locus_tag="ctg1_971" class="clusterblast-orf" id="dummy-2_q24_0_all"  />
<polygon points="558,40 563,40 568,35 563,30 558,30 558,40 " style="fill:#151fd8; stroke-width:1; stroke:black; " description="&lt;b&gt;ctg1_972&lt;/b&gt;&lt;br&gt;ctg1 972&lt;br&gt;Location: 1083180 - 1083861" locus_tag="ctg1_972" class="clusterblast-orf" id="dummy-2_q25_0_all"  />
<polygon points="568,40 583,40 588,35 583,30 568,30 568,40 " style="fill:#d81590; stroke-width:1; stroke:black; " description="&lt;b&gt;ctg1_973&lt;/b&gt;&lt;br&gt;ctg1 973&lt;br&gt;Location: 1083857 - 1085183" locus_tag="ctg1_973" class="clusterblast-orf" id="dummy-2_q26_0_all"  />
<polygon points="591,40 593,40 598,35 593,30 591,30 591,40 " style="fill:#d8ce15; stroke-width:1; stroke:black; " description="&lt;b&gt;ctg1_974&lt;/b&gt;&lt;br&gt;ctg1 974&lt;br&gt;Location: 1085400 - 1085886" locus_tag="ctg1_974" class="clusterblast-orf" id="dummy-2_q27_0_all"  />
<polygon points="600,40 616,40 621,35 616,30 600,30 600,40 " style="fill:#15d87c; stroke-width:1; stroke:black; " description="&lt;b&gt;ctg1_975&lt;/b&gt;&lt;br&gt;ctg1 975&lt;br&gt;Location: 1086029 - 1087442" locus_tag="ctg1_975" class="clusterblast-orf" id="dummy-2_q28_0_all"  />
<polygon points="622,40 626,35 622,30 622,40 " style="fill:#2a15d8; stroke-width:1; stroke:black; " description="&lt;b&gt;ctg1_976&lt;/b&gt;&lt;br&gt;ctg1 976&lt;br&gt;Location: 1087524 - 1087752" locus_tag="ctg1_976" class="clusterblast-orf" id="dummy-2_q29_0_all"  />
<polygon points="628,35 633,30 643,30 643,40 633,40 628,35 " style="fill:#d81572; stroke-width:1; stroke:black; " description="&lt;b&gt;ctg1_977&lt;/b&gt;&lt;br&gt;ctg1 977&lt;br&gt;Location: 1087926 - 1088898" locus_tag="ctg1_977" class="clusterblast-orf" id="dummy-2_q30_0_all"  />
<polygon points="643,35 648,30 656,30 656,40 648,40 643,35 " style="fill:#c4d815; stroke-width:1; stroke:black; " description="&lt;b&gt;ctg1_978&lt;/b&gt;&lt;br&gt;ctg1 978&lt;br&gt;Location: 1088898 - 1089798" locus_tag="ctg1_978" class="clusterblast-orf" id="dummy-2_q31_0_all"  />
<polygon points="656,35 661,30 669,30 669,40 661,40 656,35 " style="fill:#15d89b; stroke-width:1; stroke:black; " description="&lt;b&gt;ctg1_979&lt;/b&gt;&lt;br&gt;ctg1 979&lt;br&gt;Location: 1089797 - 1090661" locus_tag="ctg1_979" class="clusterblast-orf" id="dummy-2_q32_0_all"  />
<polygon points="669,35 674,30 683,30 683,40 674,40 669,35 " style="fill:#4915d8; stroke-width:1; stroke:black; " description="&lt;b&gt;ctg1_980&lt;/b&gt;&lt;br&gt;ctg1 980&lt;br&gt;Location: 1090657 - 1091584" locus_tag="ctg1_980" class="clusterblast-orf" id="dummy-2_q33_0_all"  />
<polygon points="683,35 688,30 692,30 692,40 688,40 683,35 " style="fill:#d81553; stroke-width:1; stroke:black; " description="&lt;b&gt;ctg1_981&lt;/b&gt;&lt;br&gt;ctg1 981&lt;br&gt;Location: 1091619 - 1092192" locus_tag="ctg1_981" class="clusterblast-orf" id="dummy-2_q34_0_all"  />
<polygon points="692,35 697,30 697,30 697,40 697,40 692,35 " style="fill:#a5d815; stroke-width:1; stroke:black; " description="&lt;b&gt;ctg1_982&lt;/b&gt;&lt;br&gt;ctg1 982&lt;br&gt;Location: 1092194 - 1092524" locus_tag="ctg1_982" class="clusterblast-orf" id="dummy-2_q35_0_all"  />
<polygon points="696,35 701,30 705,30 705,40 701,40 696,35 " style="fill:#15d8b9; stroke-width:1; stroke:black; " description="&lt;b&gt;ctg1_983&lt;/b&gt;&lt;br&gt;ctg1 983&lt;br&gt;Location: 1092520 - 1093063" locus_tag="ctg1_983" class="clusterblast-orf" id="dummy-2_q36_0_all"  />
<polygon points="704,35 709,30 722,30 722,40 709,40 704,35 " style="fill:#6715d8; stroke-width:1; stroke:black; " description="&lt;b&gt;ctg1_984&lt;/b&gt;&lt;br&gt;ctg1 984&lt;br&gt;Location: 1093059 - 1094262" locus_tag="ctg1_984" class="clusterblast-orf" id="dummy-2_q37_0_all"  />
<polygon points="729,40 745,40 750,35 745,30 729,30 729,40 " style="fill:#d81534; stroke-width:1; stroke:black; " description="&lt;b&gt;ctg1_985&lt;/b&gt;&lt;br&gt;ctg1 985&lt;br&gt;Location: 1094682 - 1096104" locus_tag="ctg1_985" class="clusterblast-orf" id="dummy-2_q38_0_all"  />
<polygon points="750,40 754,40 759,35 754,30 750,30 750,40 " style="fill:#86d815; stroke-width:1; stroke:black; " description="&lt;b&gt;ctg1_986&lt;/b&gt;&lt;br&gt;ctg1 986&lt;br&gt;Location: 1096100 - 1096712" locus_tag="ctg1_986" class="clusterblast-orf" id="dummy-2_q39_0_all"  />
<polygon points="761,35 766,30 773,30 773,40 766,40 761,35 " style="fill:#15d8d8; stroke-width:1; stroke:black; " description="&lt;b&gt;ctg1_987&lt;/b&gt;&lt;br&gt;ctg1 987&lt;br&gt;Location: 1096837 - 1097704" locus_tag="ctg1_987" class="clusterblast-orf" id="dummy-2_q40_0_all"  />
</g>
<g label="NZ_JFYN01000014" description="NZ_JFYN01000014_c5: Pseudomonas sp. RIT288 contigs21, whole genome shotgun se... (90% of genes show similarity), nrps" class="clusterblast-cluster"  >
<text x="5" y="70" class="clusterblast-acc"  >
<a xlink:href="https://antismash-db.secondarymetabolites.org/go/NZ_JFYN01000014/5" target="_blank">NZ_JFYN01000014_c5</a>: Pseudomonas sp. RIT288 contigs21, whole genome shotgun se... (90% of genes show similarity), nrps</text>
<line x1="10" y1="85" x2="778.0" y2="85" style="stroke-width:1; stroke:grey; "  />
</g>
<g id="a2_000"  >
<polygon points="0,85 2,80 2,90 0,85 " style="fill:white; stroke-width:1; stroke:black; " description="&lt;b&gt;BW33_RS15395&lt;/b&gt;&lt;br&gt;hypothetical protein&lt;br&gt;Location: 59276 - 59470" locus_tag="BW33_RS15395" class="clusterblast-orf" id="dummy-2_h2_6_0"  />
</g>
<g id="a2_001"  >
<polygon points="9,90 17,90 22,85 17,80 9,80 9,90 " style="fill:white; stroke-width:1; stroke:black; " description="&lt;b&gt;BW33_RS15400&lt;/b&gt;&lt;br&gt;lipid kinase YegS&lt;br&gt;Location: 59903 - 60820" locus_tag="BW33_RS15400" class="clusterblast-orf" id="dummy-2_h2_6_1"  />
</g>
<g id="a2_002"  >
<polygon points="22,85 27,80 32,80 32,90 27,90 22,85 " style="fill:white; stroke-width:1; stroke:black; " description="&lt;b&gt;BW33_RS15405&lt;/b&gt;&lt;br&gt;DNA-binding response regulator&lt;br&gt;Location: 60804 - 61463" locus_tag="BW33_RS15405" class="clusterblast-orf" id="dummy-2_h2_6_2"  />
</g>
<g id="a2_003"  >
<polygon points="32,85 37,80 45,80 45,90 37,90 32,85 " style="fill:#d81515; stroke-width:1; stroke:black; " description="&lt;b&gt;BW33_RS15410&lt;/b&gt;&lt;br&gt;sensor histidine kinase&lt;br&gt;Location: 61460 - 62353&lt;br&gt;&lt;br&gt;&lt;b&gt;BlastP hit with ctg1_947&lt;/b&gt;&lt;br&gt;Percentage identity: 86&lt;br&gt;Percentage coverage: 100&lt;br&gt;BLAST bit score: 495&lt;br&gt;E-value: 3.2e-138" locus_tag="BW33_RS15410" class="clusterblast-orf" id="dummy-2_h2_6_3"  />
</g>
<g id="a2_004"  >
<polygon points="52,85 57,80 59,80 59,90 57,90 52,85 " style="fill:#67d815; stroke-width:1; stroke:black; " description="&lt;b&gt;BW33_RS15415&lt;/b&gt;&lt;br&gt;hypothetical protein&lt;br&gt;Location: 62846 - 63316&lt;br&gt;&lt;br&gt;&lt;b&gt;BlastP hit with ctg1_949&lt;/b&gt;&lt;br&gt;Percentage identity: 71&lt;br&gt;Percentage coverage: 100&lt;br&gt;BLAST bit score: 217&lt;br&gt;E-value: 1.5e-54" locus_tag="BW33_RS15415" class="clusterblast-orf" id="dummy-2_h2_6_4"  />
</g>
<g id="a2_005"  >
<polygon points="66,90 75,90 80,85 75,80 66,80 66,90 " style="fill:#15b9d8; stroke-width:1; stroke:black; " description="&lt;b&gt;BW33_RS15420&lt;/b&gt;&lt;br&gt;chemotaxis protein CheV&lt;br&gt;Location: 63771 - 64706&lt;br&gt;&lt;br&gt;&lt;b&gt;BlastP hit with ctg1_950&lt;/b&gt;&lt;br&gt;Percentage identity: 98&lt;br&gt;Percentage coverage: 100&lt;br&gt;BLAST bit score: 601&lt;br&gt;E-value: 7.3e-170" locus_tag="BW33_RS15420" class="clusterblast-orf" id="dummy-2_h2_6_5"  />
</g>
<g id="a2_006"  >
<polygon points="83,90 90,90 95,85 90,80 83,80 83,90 " style="fill:#8615d8; stroke-width:1; stroke:black; " description="&lt;b&gt;BW33_RS15425&lt;/b&gt;&lt;br&gt;MOSC domain-containing protein&lt;br&gt;Location: 64899 - 65705&lt;br&gt;&lt;br&gt;&lt;b&gt;BlastP hit with ctg1_951&lt;/b&gt;&lt;br&gt;Percentage identity: 85&lt;br&gt;Percentage coverage: 100&lt;br&gt;BLAST bit score: 470&lt;br&gt;E-value: 1.7e-130" locus_tag="BW33_RS15425" class="clusterblast-orf" id="dummy-2_h2_6_6"  />
</g>
<g id="a2_007"  >
<polygon points="96,85 100,80 100,90 96,85 " style="fill:#d83415; stroke-width:1; stroke:black; " description="&lt;b&gt;BW33_RS15430&lt;/b&gt;&lt;br&gt;DUF1255 domain-containing protein&lt;br&gt;Location: 65778 - 66062&lt;br&gt;&lt;br&gt;&lt;b&gt;BlastP hit with ctg1_952&lt;/b&gt;&lt;br&gt;Percentage identity: 98&lt;br&gt;Percentage coverage: 100&lt;br&gt;BLAST bit score: 193&lt;br&gt;E-value: 1.1e-47" locus_tag="BW33_RS15430" class="clusterblast-orf" id="dummy-2_h2_6_7"  />
</g>
<g id="a2_008"  >
<polygon points="102,85 107,80 110,80 110,90 107,90 102,85 " style="fill:#49d815; stroke-width:1; stroke:black; " description="&lt;b&gt;BW33_RS15435&lt;/b&gt;&lt;br&gt;exonuclease&lt;br&gt;Location: 66177 - 66719&lt;br&gt;&lt;br&gt;&lt;b&gt;BlastP hit with ctg1_953&lt;/b&gt;&lt;br&gt;Percentage identity: 92&lt;br&gt;Percentage coverage: 100&lt;br&gt;BLAST bit score: 351&lt;br&gt;E-value: 7.7e-95" locus_tag="BW33_RS15435" class="clusterblast-orf" id="dummy-2_h2_6_8"  />
</g>
<g id="a2_009"  >
<polygon points="111,85 116,80 140,80 140,90 116,90 111,85 " style="fill:#159bd8; stroke-width:1; stroke:black; " description="&lt;b&gt;BW33_RS15440&lt;/b&gt;&lt;br&gt;acetyl/propionyl/methylcrotonyl-CoA carboxylase subunit alpha&lt;br&gt;Location: 66790 - 68751&lt;br&gt;&lt;br&gt;&lt;b&gt;BlastP hit with ctg1_954&lt;/b&gt;&lt;br&gt;Percentage identity: 76&lt;br&gt;Percentage coverage: 100&lt;br&gt;BLAST bit score: 994&lt;br&gt;E-value: 6.3e-288" locus_tag="BW33_RS15440" class="clusterblast-orf" id="dummy-2_h2_6_9"  />
</g>
<g id="a2_0010"  >
<polygon points="142,85 147,80 154,80 154,90 147,90 142,85 " style="fill:#a515d8; stroke-width:1; stroke:black; " description="&lt;b&gt;BW33_RS15445&lt;/b&gt;&lt;br&gt;enoyl-CoA hydratase&lt;br&gt;Location: 68870 - 69667&lt;br&gt;&lt;br&gt;&lt;b&gt;BlastP hit with ctg1_955&lt;/b&gt;&lt;br&gt;Percentage identity: 80&lt;br&gt;Percentage coverage: 100&lt;br&gt;BLAST bit score: 413&lt;br&gt;E-value: 1.4e-113" locus_tag="BW33_RS15445" class="clusterblast-orf" id="dummy-2_h2_6_10"  />
</g>
<g id="a2_0011"  >
<polygon points="154,85 159,80 171,80 171,90 159,90 154,85 " style="fill:#d85315; stroke-width:1; stroke:black; " description="&lt;b&gt;BW33_RS15450&lt;/b&gt;&lt;br&gt;acyl-CoA dehydrogenase&lt;br&gt;Location: 69664 - 70821&lt;br&gt;&lt;br&gt;&lt;b&gt;BlastP hit with ctg1_956&lt;/b&gt;&lt;br&gt;Percentage identity: 97&lt;br&gt;Percentage coverage: 100&lt;br&gt;BLAST bit score: 772&lt;br&gt;E-value: 2.3e-221" locus_tag="BW33_RS15450" class="clusterblast-orf" id="dummy-2_h2_6_11"  />
</g>
<g id="a2_0012"  >
<polygon points="171,85 176,80 195,80 195,90 176,90 171,85 " style="fill:#2ad815; stroke-width:1; stroke:black; " description="&lt;b&gt;BW33_RS15455&lt;/b&gt;&lt;br&gt;acyl-CoA carboxylase subunit beta&lt;br&gt;Location: 70852 - 72468&lt;br&gt;&lt;br&gt;&lt;b&gt;BlastP hit with ctg1_957&lt;/b&gt;&lt;br&gt;Percentage identity: 91&lt;br&gt;Percentage coverage: 100&lt;br&gt;BLAST bit score: 978&lt;br&gt;E-value: 2.9e-283" locus_tag="BW33_RS15455" class="clusterblast-orf" id="dummy-2_h2_6_12"  />
</g>
<g id="a2_0013"  >
<polygon points="195,85 200,80 208,80 208,90 200,90 195,85 " style="fill:#157cd8; stroke-width:1; stroke:black; " description="&lt;b&gt;BW33_RS15460&lt;/b&gt;&lt;br&gt;2,4-dienoyl-CoA reductase&lt;br&gt;Location: 72472 - 73341&lt;br&gt;&lt;br&gt;&lt;b&gt;BlastP hit with ctg1_958&lt;/b&gt;&lt;br&gt;Percentage identity: 86&lt;br&gt;Percentage coverage: 100&lt;br&gt;BLAST bit score: 511&lt;br&gt;E-value: 7.2e-143" locus_tag="BW33_RS15460" class="clusterblast-orf" id="dummy-2_h2_6_13"  />
</g>
<g id="a2_0014"  >
<polygon points="208,85 213,80 235,80 235,90 213,90 208,85 " style="fill:#c415d8; stroke-width:1; stroke:black; " description="&lt;b&gt;BW33_RS15465&lt;/b&gt;&lt;br&gt;DUF1446 domain-containing protein&lt;br&gt;Location: 73354 - 75144&lt;br&gt;&lt;br&gt;&lt;b&gt;BlastP hit with ctg1_959&lt;/b&gt;&lt;br&gt;Percentage identity: 88&lt;br&gt;Percentage coverage: 99&lt;br&gt;BLAST bit score: 1079&lt;br&gt;E-value: 0.0" locus_tag="BW33_RS15465" class="clusterblast-orf" id="dummy-2_h2_6_14"  />
</g>
<g id="a2_0015"  >
<polygon points="238,90 242,90 247,85 242,80 238,80 238,90 " style="fill:#d87215; stroke-width:1; stroke:black; " description="&lt;b&gt;BW33_RS15470&lt;/b&gt;&lt;br&gt;TetR/AcrR family transcriptional regulator&lt;br&gt;Location: 75328 - 75951&lt;br&gt;&lt;br&gt;&lt;b&gt;BlastP hit with ctg1_960&lt;/b&gt;&lt;br&gt;Percentage identity: 94&lt;br&gt;Percentage coverage: 100&lt;br&gt;BLAST bit score: 383&lt;br&gt;E-value: 1.2e-104" locus_tag="BW33_RS15470" class="clusterblast-orf" id="dummy-2_h2_6_15"  />
</g>
<g id="a2_0016"  >
<polygon points="248,90 255,90 260,85 255,80 248,80 248,90 " style="fill:#15d81f; stroke-width:1; stroke:black; " description="&lt;b&gt;BW33_RS15475&lt;/b&gt;&lt;br&gt;amino acid ABC transporter substrate-binding protein&lt;br&gt;Location: 76044 - 76841&lt;br&gt;&lt;br&gt;&lt;b&gt;BlastP hit with ctg1_961&lt;/b&gt;&lt;br&gt;Percentage identity: 82&lt;br&gt;Percentage coverage: 99&lt;br&gt;BLAST bit score: 445&lt;br&gt;E-value: 5.7e-123&lt;br&gt;&lt;br&gt;&lt;b&gt;BlastP hit with ctg1_963&lt;/b&gt;&lt;br&gt;Percentage identity: 80&lt;br&gt;Percentage coverage: 93&lt;br&gt;BLAST bit score: 70&lt;br&gt;E-value: 4.8e-11" locus_tag="BW33_RS15475" class="clusterblast-orf" id="dummy-2_h2_6_16"  />
</g>
<g id="a2_0017"  >
<polygon points="261,90 271,90 276,85 271,80 261,80 261,90 " style="fill:#d815ce; stroke-width:1; stroke:black; " description="&lt;b&gt;BW33_RS15480&lt;/b&gt;&lt;br&gt;N-acetyltransferase&lt;br&gt;Location: 76921 - 77934&lt;br&gt;&lt;br&gt;&lt;b&gt;BlastP hit with ctg1_965&lt;/b&gt;&lt;br&gt;Percentage identity: 86&lt;br&gt;Percentage coverage: 100&lt;br&gt;BLAST bit score: 620&lt;br&gt;E-value: 9.7e-176" locus_tag="BW33_RS15480" class="clusterblast-orf" id="dummy-2_h2_6_17"  />
</g>
<g id="a2_0018"  >
<polygon points="278,85 283,80 287,80 287,90 283,90 278,85 " style="fill:#d89015; stroke-width:1; stroke:black; " description="&lt;b&gt;BW33_RS15485&lt;/b&gt;&lt;br&gt;RNA polymerase factor sigma-70&lt;br&gt;Location: 78068 - 78622&lt;br&gt;&lt;br&gt;&lt;b&gt;BlastP hit with ctg1_966&lt;/b&gt;&lt;br&gt;Percentage identity: 97&lt;br&gt;Percentage coverage: 97&lt;br&gt;BLAST bit score: 341&lt;br&gt;E-value: 4.7e-92" locus_tag="BW33_RS15485" class="clusterblast-orf" id="dummy-2_h2_6_18"  />
</g>
<g id="a2_0019"  >
<polygon points="292,90 480,90 485,85 480,80 292,80 292,90 " style="fill:#15d83e; stroke-width:1; stroke:black; " description="&lt;b&gt;BW33_RS15490&lt;/b&gt;&lt;br&gt;non-ribosomal peptide synthetase&lt;br&gt;Location: 78990 - 91988&lt;br&gt;&lt;br&gt;&lt;b&gt;BlastP hit with ctg1_967&lt;/b&gt;&lt;br&gt;Percentage identity: 90&lt;br&gt;Percentage coverage: 100&lt;br&gt;BLAST bit score: 7867&lt;br&gt;E-value: 0.0" locus_tag="BW33_RS15490" class="clusterblast-orf" id="dummy-2_h2_6_19"  />
</g>
<g id="a2_0020"  >
<polygon points="488,90 495,90 500,85 495,80 488,80 488,90 " style="fill:#153ed8; stroke-width:1; stroke:black; " description="&lt;b&gt;BW33_RS15495&lt;/b&gt;&lt;br&gt;2-succinyl-6-hydroxy-2, 4-cyclohexadiene-1-carboxylate synthase&lt;br&gt;Location: 92180 - 92992&lt;br&gt;&lt;br&gt;&lt;b&gt;BlastP hit with ctg1_968&lt;/b&gt;&lt;br&gt;Percentage identity: 87&lt;br&gt;Percentage coverage: 100&lt;br&gt;BLAST bit score: 487&lt;br&gt;E-value: 1e-135" locus_tag="BW33_RS15495" class="clusterblast-orf" id="dummy-2_h2_6_20"  />
</g>
<g id="a2_0021"  >
<polygon points="501,85 506,80 512,80 512,90 506,90 501,85 " style="fill:#d815af; stroke-width:1; stroke:black; " description="&lt;b&gt;BW33_RS15500&lt;/b&gt;&lt;br&gt;thiol:disulfide interchange protein DsbG&lt;br&gt;Location: 93076 - 93846&lt;br&gt;&lt;br&gt;&lt;b&gt;BlastP hit with ctg1_969&lt;/b&gt;&lt;br&gt;Percentage identity: 90&lt;br&gt;Percentage coverage: 100&lt;br&gt;BLAST bit score: 474&lt;br&gt;E-value: 6.5e-132" locus_tag="BW33_RS15500" class="clusterblast-orf" id="dummy-2_h2_6_21"  />
</g>
<g id="a2_0022"  >
<polygon points="512,85 517,80 525,80 525,90 517,90 512,85 " style="fill:#d8af15; stroke-width:1; stroke:black; " description="&lt;b&gt;BW33_RS15505&lt;/b&gt;&lt;br&gt;peroxiredoxin&lt;br&gt;Location: 93822 - 94691&lt;br&gt;&lt;br&gt;&lt;b&gt;BlastP hit with ctg1_970&lt;/b&gt;&lt;br&gt;Percentage identity: 91&lt;br&gt;Percentage coverage: 100&lt;br&gt;BLAST bit score: 534&lt;br&gt;E-value: 1e-149" locus_tag="BW33_RS15505" class="clusterblast-orf" id="dummy-2_h2_6_22"  />
</g>
<g id="a2_0023"  >
<polygon points="525,85 530,80 551,80 551,90 530,90 525,85 " style="fill:#15d85d; stroke-width:1; stroke:black; " description="&lt;b&gt;BW33_RS15510&lt;/b&gt;&lt;br&gt;protein-disulfide reductase DsbD&lt;br&gt;Location: 94692 - 96425&lt;br&gt;&lt;br&gt;&lt;b&gt;BlastP hit with ctg1_971&lt;/b&gt;&lt;br&gt;Percentage identity: 83&lt;br&gt;Percentage coverage: 100&lt;br&gt;BLAST bit score: 950&lt;br&gt;E-value: 1.2e-274" locus_tag="BW33_RS15510" class="clusterblast-orf" id="dummy-2_h2_6_23"  />
</g>
<g id="a2_0024"  >
<polygon points="553,90 558,90 563,85 558,80 553,80 553,90 " style="fill:#151fd8; stroke-width:1; stroke:black; " description="&lt;b&gt;BW33_RS15515&lt;/b&gt;&lt;br&gt;DNA-binding response regulator&lt;br&gt;Location: 96579 - 97259&lt;br&gt;&lt;br&gt;&lt;b&gt;BlastP hit with ctg1_972&lt;/b&gt;&lt;br&gt;Percentage identity: 95&lt;br&gt;Percentage coverage: 100&lt;br&gt;BLAST bit score: 412&lt;br&gt;E-value: 2.7e-113" locus_tag="BW33_RS15515" class="clusterblast-orf" id="dummy-2_h2_6_24"  />
</g>
<g id="a2_0025"  >
<polygon points="563,90 578,90 583,85 578,80 563,80 563,90 " style="fill:#d81590; stroke-width:1; stroke:black; " description="&lt;b&gt;BW33_RS15520&lt;/b&gt;&lt;br&gt;two-component sensor histidine kinase&lt;br&gt;Location: 97259 - 98581&lt;br&gt;&lt;br&gt;&lt;b&gt;BlastP hit with ctg1_973&lt;/b&gt;&lt;br&gt;Percentage identity: 92&lt;br&gt;Percentage coverage: 100&lt;br&gt;BLAST bit score: 790&lt;br&gt;E-value: 7.1e-227" locus_tag="BW33_RS15520" class="clusterblast-orf" id="dummy-2_h2_6_25"  />
</g>
<g id="a2_0026"  >
<polygon points="584,90 587,90 592,85 587,80 584,80 584,90 " style="fill:#d8ce15; stroke-width:1; stroke:black; " description="&lt;b&gt;BW33_RS15525&lt;/b&gt;&lt;br&gt;N-acetyltransferase&lt;br&gt;Location: 98696 - 99181&lt;br&gt;&lt;br&gt;&lt;b&gt;BlastP hit with ctg1_974&lt;/b&gt;&lt;br&gt;Percentage identity: 59&lt;br&gt;Percentage coverage: 99&lt;br&gt;BLAST bit score: 196&lt;br&gt;E-value: 2.8e-48" locus_tag="BW33_RS15525" class="clusterblast-orf" id="dummy-2_h2_6_26"  />
</g>
<g id="a2_0027"  >
<polygon points="594,90 610,90 615,85 610,80 594,80 594,90 " style="fill:#15d87c; stroke-width:1; stroke:black; " description="&lt;b&gt;BW33_RS15530&lt;/b&gt;&lt;br&gt;diaminobutyrate--2-oxoglutarate transaminase&lt;br&gt;Location: 99325 - 100737&lt;br&gt;&lt;br&gt;&lt;b&gt;BlastP hit with ctg1_975&lt;/b&gt;&lt;br&gt;Percentage identity: 93&lt;br&gt;Percentage coverage: 100&lt;br&gt;BLAST bit score: 863&lt;br&gt;E-value: 1.2e-248" locus_tag="BW33_RS15530" class="clusterblast-orf" id="dummy-2_h2_6_27"  />
</g>
<g id="a2_0028"  >
<polygon points="616,90 619,85 616,80 616,90 " style="fill:#2a15d8; stroke-width:1; stroke:black; " description="&lt;b&gt;BW33_RS15535&lt;/b&gt;&lt;br&gt;MbtH family protein&lt;br&gt;Location: 100821 - 101045&lt;br&gt;&lt;br&gt;&lt;b&gt;BlastP hit with ctg1_976&lt;/b&gt;&lt;br&gt;Percentage identity: 96&lt;br&gt;Percentage coverage: 96&lt;br&gt;BLAST bit score: 148&lt;br&gt;E-value: 3.1e-34" locus_tag="BW33_RS15535" class="clusterblast-orf" id="dummy-2_h2_6_28"  />
</g>
<g id="a2_0029"  >
<polygon points="621,85 626,80 635,80 635,90 626,90 621,85 " style="fill:#d81572; stroke-width:1; stroke:black; " description="&lt;b&gt;BW33_RS15540&lt;/b&gt;&lt;br&gt;metal ABC transporter substrate-binding protein&lt;br&gt;Location: 101187 - 102101&lt;br&gt;&lt;br&gt;&lt;b&gt;BlastP hit with ctg1_977&lt;/b&gt;&lt;br&gt;Percentage identity: 75&lt;br&gt;Percentage coverage: 100&lt;br&gt;BLAST bit score: 463&lt;br&gt;E-value: 1.9e-128" locus_tag="BW33_RS15540" class="clusterblast-orf" id="dummy-2_h2_6_29"  />
</g>
<g id="a2_0030"  >
<polygon points="635,85 640,80 648,80 648,90 640,90 635,85 " style="fill:#c4d815; stroke-width:1; stroke:black; " description="&lt;b&gt;BW33_RS15545&lt;/b&gt;&lt;br&gt;metal ABC transporter permease&lt;br&gt;Location: 102102 - 103001&lt;br&gt;&lt;br&gt;&lt;b&gt;BlastP hit with ctg1_978&lt;/b&gt;&lt;br&gt;Percentage identity: 99&lt;br&gt;Percentage coverage: 100&lt;br&gt;BLAST bit score: 482&lt;br&gt;E-value: 2.8e-134" locus_tag="BW33_RS15545" class="clusterblast-orf" id="dummy-2_h2_6_30"  />
</g>
<g id="a2_0031"  >
<polygon points="648,85 653,80 661,80 661,90 653,90 648,85 " style="fill:#15d89b; stroke-width:1; stroke:black; " description="&lt;b&gt;BW33_RS15550&lt;/b&gt;&lt;br&gt;metal ABC transporter ATP-binding protein&lt;br&gt;Location: 103001 - 103846&lt;br&gt;&lt;br&gt;&lt;b&gt;BlastP hit with ctg1_979&lt;/b&gt;&lt;br&gt;Percentage identity: 86&lt;br&gt;Percentage coverage: 100&lt;br&gt;BLAST bit score: 472&lt;br&gt;E-value: 2.8e-131" locus_tag="BW33_RS15550" class="clusterblast-orf" id="dummy-2_h2_6_31"  />
</g>
<g id="a2_0032"  >
<polygon points="661,85 666,80 675,80 675,90 666,90 661,85 " style="fill:#4915d8; stroke-width:1; stroke:black; " description="&lt;b&gt;BW33_RS15555&lt;/b&gt;&lt;br&gt;ABC transporter substrate-binding protein&lt;br&gt;Location: 103843 - 104772&lt;br&gt;&lt;br&gt;&lt;b&gt;BlastP hit with ctg1_980&lt;/b&gt;&lt;br&gt;Percentage identity: 94&lt;br&gt;Percentage coverage: 99&lt;br&gt;BLAST bit score: 563&lt;br&gt;E-value: 1.7e-158" locus_tag="BW33_RS15555" class="clusterblast-orf" id="dummy-2_h2_6_32"  />
</g>
<g id="a2_0033"  >
<polygon points="675,85 680,80 684,80 684,90 680,90 675,85 " style="fill:#d81553; stroke-width:1; stroke:black; " description="&lt;b&gt;BW33_RS15560&lt;/b&gt;&lt;br&gt;hypothetical protein&lt;br&gt;Location: 104808 - 105383&lt;br&gt;&lt;br&gt;&lt;b&gt;BlastP hit with ctg1_981&lt;/b&gt;&lt;br&gt;Percentage identity: 79&lt;br&gt;Percentage coverage: 101&lt;br&gt;BLAST bit score: 295&lt;br&gt;E-value: 5.3e-78" locus_tag="BW33_RS15560" class="clusterblast-orf" id="dummy-2_h2_6_33"  />
</g>
<g id="a2_0034"  >
<polygon points="684,85 689,80 689,80 689,90 689,90 684,85 " style="fill:#a5d815; stroke-width:1; stroke:black; " description="&lt;b&gt;BW33_RS15565&lt;/b&gt;&lt;br&gt;hypothetical protein&lt;br&gt;Location: 105380 - 105721&lt;br&gt;&lt;br&gt;&lt;b&gt;BlastP hit with ctg1_982&lt;/b&gt;&lt;br&gt;Percentage identity: 93&lt;br&gt;Percentage coverage: 94&lt;br&gt;BLAST bit score: 195&lt;br&gt;E-value: 2.5e-48" locus_tag="BW33_RS15565" class="clusterblast-orf" id="dummy-2_h2_6_34"  />
</g>
<g id="a2_0035"  >
<polygon points="689,85 694,80 697,80 697,90 694,90 689,85 " style="fill:#15d8b9; stroke-width:1; stroke:black; " description="&lt;b&gt;BW33_RS15570&lt;/b&gt;&lt;br&gt;hypothetical protein&lt;br&gt;Location: 105718 - 106260&lt;br&gt;&lt;br&gt;&lt;b&gt;BlastP hit with ctg1_983&lt;/b&gt;&lt;br&gt;Percentage identity: 83&lt;br&gt;Percentage coverage: 95&lt;br&gt;BLAST bit score: 305&lt;br&gt;E-value: 4.8e-81" locus_tag="BW33_RS15570" class="clusterblast-orf" id="dummy-2_h2_6_35"  />
</g>
<g id="a2_0036"  >
<polygon points="697,85 702,80 714,80 714,90 702,90 697,85 " style="fill:#6715d8; stroke-width:1; stroke:black; " description="&lt;b&gt;BW33_RS15575&lt;/b&gt;&lt;br&gt;PepSY domain-containing protein&lt;br&gt;Location: 106257 - 107447&lt;br&gt;&lt;br&gt;&lt;b&gt;BlastP hit with ctg1_984&lt;/b&gt;&lt;br&gt;Percentage identity: 86&lt;br&gt;Percentage coverage: 100&lt;br&gt;BLAST bit score: 702&lt;br&gt;E-value: 3e-200" locus_tag="BW33_RS15575" class="clusterblast-orf" id="dummy-2_h2_6_36"  />
</g>
<g id="a2_0037"  >
<polygon points="720,90 736,90 741,85 736,80 720,80 720,90 " style="fill:#d81534; stroke-width:1; stroke:black; " description="&lt;b&gt;BW33_RS15580&lt;/b&gt;&lt;br&gt;3-isopropylmalate dehydratase large subunit&lt;br&gt;Location: 107855 - 109273&lt;br&gt;&lt;br&gt;&lt;b&gt;BlastP hit with ctg1_985&lt;/b&gt;&lt;br&gt;Percentage identity: 90&lt;br&gt;Percentage coverage: 100&lt;br&gt;BLAST bit score: 840&lt;br&gt;E-value: 8.4e-242" locus_tag="BW33_RS15580" class="clusterblast-orf" id="dummy-2_h2_6_37"  />
</g>
<g id="a2_0038"  >
<polygon points="741,90 745,90 750,85 745,80 741,80 741,90 " style="fill:#86d815; stroke-width:1; stroke:black; " description="&lt;b&gt;BW33_RS15585&lt;/b&gt;&lt;br&gt;3-isopropylmalate dehydratase small subunit&lt;br&gt;Location: 109270 - 109884&lt;br&gt;&lt;br&gt;&lt;b&gt;BlastP hit with ctg1_986&lt;/b&gt;&lt;br&gt;Percentage identity: 84&lt;br&gt;Percentage coverage: 100&lt;br&gt;BLAST bit score: 354&lt;br&gt;E-value: 6e-96" locus_tag="BW33_RS15585" class="clusterblast-orf" id="dummy-2_h2_6_38"  />
</g>
<g id="a2_0039"  >
<polygon points="752,85 757,80 766,80 766,90 757,90 752,85 " style="fill:#15d8d8; stroke-width:1; stroke:black; " description="&lt;b&gt;BW33_RS15590&lt;/b&gt;&lt;br&gt;LysR family transcriptional regulator&lt;br&gt;Location: 109999 - 110949&lt;br&gt;&lt;br&gt;&lt;b&gt;BlastP hit with ctg1_987&lt;/b&gt;&lt;br&gt;Percentage identity: 88&lt;br&gt;Percentage coverage: 100&lt;br&gt;BLAST bit score: 529&lt;br&gt;E-value: 2.5e-148" locus_tag="BW33_RS15590" class="clusterblast-orf" id="dummy-2_h2_6_39"  />
</g>
<g id="a2_0040"  >
<polygon points="767,85 772,80 780,80 780,90 772,90 767,85 " style="fill:white; stroke-width:1; stroke:black; " description="&lt;b&gt;BW33_RS15595&lt;/b&gt;&lt;br&gt;alpha/beta hydrolase&lt;br&gt;Location: 110974 - 111849" locus_tag="BW33_RS15595" class="clusterblast-orf" id="dummy-2_h2_6_40"  />
</g>
</svg>
