<svg xmlns="http://www.w3.org/2000/svg" xmlns:xlink="http://www.w3.org/1999/xlink" version="1.1" x="0" y="0" height="230" width="800" viewBox="0 0 800 230" preserveAspectRatio="none"  >
<g label="Query sequence" class="clusterblast-cluster"  >
<text x="5" y="20" class="clusterblast-acc"  >
Query sequence</text>
<line x1="10" y1="35" x2="778.0" y2="35" style="stroke-width:1; stroke:grey; "  />
<polygon points="284,40 288,35 284,30 284,40 " style="fill:white; stroke-width:1; stroke:black; " description="&lt;b&gt;ctg3_16&lt;/b&gt;&lt;br&gt;ctg3 16&lt;br&gt;Location: 14210 - 14657" locus_tag="ctg3_16" class="clusterblast-orf" id="dummy-1_q0_0_all"  />
<polygon points="288,35 293,30 299,30 299,40 293,40 288,35 " style="fill:white; stroke-width:1; stroke:black; " description="&lt;b&gt;ctg3_17&lt;/b&gt;&lt;br&gt;ctg3 17&lt;br&gt;Location: 14694 - 15846" locus_tag="ctg3_17" class="clusterblast-orf" id="dummy-1_q1_0_all"  />
<polygon points="304,35 307,30 307,40 304,35 " style="fill:white; stroke-width:1; stroke:black; " description="&lt;b&gt;ctg3_18&lt;/b&gt;&lt;br&gt;ctg3 18&lt;br&gt;Location: 16328 - 16670" locus_tag="ctg3_18" class="clusterblast-orf" id="dummy-1_q2_0_all"  />
<polygon points="308,40 309,40 314,35 309,30 308,30 308,40 " style="fill:white; stroke-width:1; stroke:black; " description="&lt;b&gt;ctg3_19&lt;/b&gt;&lt;br&gt;ctg3 19&lt;br&gt;Location: 16800 - 17451" locus_tag="ctg3_19" class="clusterblast-orf" id="dummy-1_q3_0_all"  />
<polygon points="314,35 319,30 333,30 333,40 319,40 314,35 " style="fill:#d81515; stroke-width:1; stroke:black; " description="&lt;b&gt;ctg3_20&lt;/b&gt;&lt;br&gt;ctg3 20&lt;br&gt;Location: 17490 - 19440" locus_tag="ctg3_20" class="clusterblast-orf" id="dummy-1_q4_0_all"  />
<polygon points="333,35 338,30 340,30 340,40 338,40 333,35 " style="fill:#77d815; stroke-width:1; stroke:black; " description="&lt;b&gt;ctg3_21&lt;/b&gt;&lt;br&gt;ctg3 21&lt;br&gt;Location: 19439 - 20252" locus_tag="ctg3_21" class="clusterblast-orf" id="dummy-1_q5_0_all"  />
<polygon points="341,35 346,30 356,30 356,40 346,40 341,35 " style="fill:#15d8d8; stroke-width:1; stroke:black; " description="&lt;b&gt;ctg3_22&lt;/b&gt;&lt;br&gt;ctg3 22&lt;br&gt;Location: 20357 - 21965" locus_tag="ctg3_22" class="clusterblast-orf" id="dummy-1_q6_0_all"  />
<polygon points="356,35 361,30 367,30 367,40 361,40 356,35 " style="fill:#7715d8; stroke-width:1; stroke:black; " description="&lt;b&gt;ctg3_23&lt;/b&gt;&lt;br&gt;ctg3 23&lt;br&gt;Location: 21977 - 23141" locus_tag="ctg3_23" class="clusterblast-orf" id="dummy-1_q7_0_all"  />
<polygon points="370,40 381,40 386,35 381,30 370,30 370,40 " style="fill:#d8a715; stroke-width:1; stroke:black; " description="&lt;b&gt;ctg3_24&lt;/b&gt;&lt;br&gt;ctg3 24&lt;br&gt;Location: 23480 - 25178" locus_tag="ctg3_24" class="clusterblast-orf" id="dummy-1_q8_0_all"  />
<polygon points="387,35 392,30 394,30 394,40 392,40 387,35 " style="fill:white; stroke-width:1; stroke:black; " description="&lt;b&gt;ctg3_25&lt;/b&gt;&lt;br&gt;ctg3 25&lt;br&gt;Location: 25316 - 26069" locus_tag="ctg3_25" class="clusterblast-orf" id="dummy-1_q9_0_all"  />
<polygon points="395,35 400,30 404,30 404,40 400,40 395,35 " style="fill:#15d846; stroke-width:1; stroke:black; " description="&lt;b&gt;ctg3_26&lt;/b&gt;&lt;br&gt;ctg3 26&lt;br&gt;Location: 26190 - 27093" locus_tag="ctg3_26" class="clusterblast-orf" id="dummy-1_q10_0_all"  />
<polygon points="410,35 415,30 418,30 418,40 415,40 410,35 " style="fill:#1546d8; stroke-width:1; stroke:black; " description="&lt;b&gt;ctg3_27&lt;/b&gt;&lt;br&gt;ctg3 27&lt;br&gt;Location: 27727 - 28627" locus_tag="ctg3_27" class="clusterblast-orf" id="dummy-1_q11_0_all"  />
<polygon points="419,35 423,30 423,40 419,35 " style="fill:#d815a7; stroke-width:1; stroke:black; " description="&lt;b&gt;ctg3_28&lt;/b&gt;&lt;br&gt;ctg3 28&lt;br&gt;Location: 28763 - 29165" locus_tag="ctg3_28" class="clusterblast-orf" id="dummy-1_q12_0_all"  />
<polygon points="425,35 430,30 434,30 434,40 430,40 425,35 " style="fill:white; stroke-width:1; stroke:black; " description="&lt;b&gt;ctg3_29&lt;/b&gt;&lt;br&gt;ctg3 29&lt;br&gt;Location: 29378 - 30308" locus_tag="ctg3_29" class="clusterblast-orf" id="dummy-1_q13_0_all"  />
<polygon points="435,40 442,40 447,35 442,30 435,30 435,40 " style="fill:#7715d8; stroke-width:1; stroke:black; " description="&lt;b&gt;ctg3_30&lt;/b&gt;&lt;br&gt;ctg3 30&lt;br&gt;Location: 30462 - 31692" locus_tag="ctg3_30" class="clusterblast-orf" id="dummy-1_q14_0_all"  />
<polygon points="448,35 453,30 460,30 460,40 453,40 448,35 " style="fill:white; stroke-width:1; stroke:black; " description="&lt;b&gt;ctg3_31&lt;/b&gt;&lt;br&gt;ctg3 31&lt;br&gt;Location: 31846 - 33187" locus_tag="ctg3_31" class="clusterblast-orf" id="dummy-1_q15_0_all"  />
<polygon points="462,35 467,30 470,30 470,40 467,40 462,35 " style="fill:white; stroke-width:1; stroke:black; " description="&lt;b&gt;ctg3_32&lt;/b&gt;&lt;br&gt;ctg3 32&lt;br&gt;Location: 33379 - 34192" locus_tag="ctg3_32" class="clusterblast-orf" id="dummy-1_q16_0_all"  />
<polygon points="473,40 474,40 479,35 474,30 473,30 473,40 " style="fill:white; stroke-width:1; stroke:black; " description="&lt;b&gt;ctg3_33&lt;/b&gt;&lt;br&gt;ctg3 33&lt;br&gt;Location: 34490 - 35141" locus_tag="ctg3_33" class="clusterblast-orf" id="dummy-1_q17_0_all"  />
<polygon points="480,40 490,40 495,35 490,30 480,30 480,40 " style="fill:white; stroke-width:1; stroke:black; " description="&lt;b&gt;ctg3_34&lt;/b&gt;&lt;br&gt;ctg3 34&lt;br&gt;Location: 35242 - 36934" locus_tag="ctg3_34" class="clusterblast-orf" id="dummy-1_q18_0_all"  />
</g>
<g label="NZ_FNDG01000012" description="NZ_FNDG01000012_c5: Pseudomonas flavescens strain LMG 18387, whole genome sho... (13% of genes show similarity), nrps" class="clusterblast-cluster"  >
<text x="5" y="70" class="clusterblast-acc"  >
<a xlink:href="https://antismash-db.secondarymetabolites.org/go/NZ_FNDG01000012/5" target="_blank">NZ_FNDG01000012_c5</a>: Pseudomonas flavescens strain LMG 18387, whole genome sho... (13% of genes show similarity), nrps</text>
<line x1="10" y1="85" x2="778.0" y2="85" style="stroke-width:1; stroke:grey; "  />
</g>
<g id="a1_000"  >
<polygon points="0,85 5,80 6,80 6,90 5,90 0,85 " style="fill:white; stroke-width:1; stroke:black; " description="&lt;b&gt;BLR94_RS16045&lt;/b&gt;&lt;br&gt;RNA polymerase subunit sigma&lt;br&gt;Location: 35364 - 36032" locus_tag="BLR94_RS16045" class="clusterblast-orf" id="dummy-1_h1_7_0"  />
</g>
<g id="a1_001"  >
<polygon points="6,90 10,90 15,85 10,80 6,80 6,90 " style="fill:white; stroke-width:1; stroke:black; " description="&lt;b&gt;BLR94_RS16050&lt;/b&gt;&lt;br&gt;FecR family protein&lt;br&gt;Location: 36087 - 37049" locus_tag="BLR94_RS16050" class="clusterblast-orf" id="dummy-1_h1_7_1"  />
</g>
<g id="a1_002"  >
<polygon points="17,85 22,80 32,80 32,90 22,90 17,85 " style="fill:white; stroke-width:1; stroke:black; " description="&lt;b&gt;BLR94_RS16055&lt;/b&gt;&lt;br&gt;PvdJ/PvdD/PvdP-like protein&lt;br&gt;Location: 37241 - 38857" locus_tag="BLR94_RS16055" class="clusterblast-orf" id="dummy-1_h1_7_2"  />
</g>
<g id="a1_003"  >
<polygon points="33,90 33,90 38,85 33,80 33,80 33,90 " style="fill:white; stroke-width:1; stroke:black; " description="&lt;b&gt;BLR94_RS16060&lt;/b&gt;&lt;br&gt;azurin&lt;br&gt;Location: 39001 - 39465" locus_tag="BLR94_RS16060" class="clusterblast-orf" id="dummy-1_h1_7_3"  />
</g>
<g id="a1_004"  >
<polygon points="41,90 52,90 57,85 52,80 41,80 41,90 " style="fill:white; stroke-width:1; stroke:black; " description="&lt;b&gt;BLR94_RS16065&lt;/b&gt;&lt;br&gt;gamma-glutamyltransferase&lt;br&gt;Location: 39818 - 41521" locus_tag="BLR94_RS16065" class="clusterblast-orf" id="dummy-1_h1_7_4"  />
</g>
<g id="a1_005"  >
<polygon points="57,90 63,90 68,85 63,80 57,80 57,90 " style="fill:white; stroke-width:1; stroke:black; " description="&lt;b&gt;BLR94_RS16070&lt;/b&gt;&lt;br&gt;hypothetical protein&lt;br&gt;Location: 41539 - 42732" locus_tag="BLR94_RS16070" class="clusterblast-orf" id="dummy-1_h1_7_5"  />
</g>
<g id="a1_006"  >
<polygon points="71,90 78,90 83,85 78,80 71,80 71,90 " style="fill:white; stroke-width:1; stroke:black; " description="&lt;b&gt;BLR94_RS16075&lt;/b&gt;&lt;br&gt;membrane dipeptidase&lt;br&gt;Location: 43068 - 44288" locus_tag="BLR94_RS16075" class="clusterblast-orf" id="dummy-1_h1_7_6"  />
</g>
<g id="a1_007"  >
<polygon points="83,90 86,90 91,85 86,80 83,80 83,90 " style="fill:white; stroke-width:1; stroke:black; " description="&lt;b&gt;BLR94_RS16080&lt;/b&gt;&lt;br&gt;formylglycine-generating enzyme family protein&lt;br&gt;Location: 44368 - 45231" locus_tag="BLR94_RS16080" class="clusterblast-orf" id="dummy-1_h1_7_7"  />
</g>
<g id="a1_008"  >
<polygon points="97,90 102,90 107,85 102,80 97,80 97,90 " style="fill:white; stroke-width:1; stroke:black; " description="&lt;b&gt;BLR94_RS16085&lt;/b&gt;&lt;br&gt;N-acetyltransferase&lt;br&gt;Location: 45828 - 46904" locus_tag="BLR94_RS16085" class="clusterblast-orf" id="dummy-1_h1_7_8"  />
</g>
<g id="a1_009"  >
<polygon points="107,90 114,90 119,85 114,80 107,80 107,90 " style="fill:white; stroke-width:1; stroke:black; " description="&lt;b&gt;BLR94_RS16090&lt;/b&gt;&lt;br&gt;ornithine monooxygenase&lt;br&gt;Location: 46901 - 48226" locus_tag="BLR94_RS16090" class="clusterblast-orf" id="dummy-1_h1_7_9"  />
</g>
<g id="a1_0010"  >
<polygon points="119,90 130,90 135,85 130,80 119,80 119,90 " style="fill:white; stroke-width:1; stroke:black; " description="&lt;b&gt;BLR94_RS16095&lt;/b&gt;&lt;br&gt;cyclic peptide export ABC transporter&lt;br&gt;Location: 48245 - 49918" locus_tag="BLR94_RS16095" class="clusterblast-orf" id="dummy-1_h1_7_10"  />
</g>
<g id="a1_0011"  >
<polygon points="136,90 154,90 159,85 154,80 136,80 136,90 " style="fill:white; stroke-width:1; stroke:black; " description="&lt;b&gt;BLR94_RS16100&lt;/b&gt;&lt;br&gt;TonB-dependent siderophore receptor&lt;br&gt;Location: 50069 - 52516" locus_tag="BLR94_RS16100" class="clusterblast-orf" id="dummy-1_h1_7_11"  />
</g>
<g id="a1_0012"  >
<polygon points="160,85 165,80 169,80 169,90 165,90 160,85 " style="fill:white; stroke-width:1; stroke:black; " description="&lt;b&gt;BLR94_RS16105&lt;/b&gt;&lt;br&gt;alpha/beta hydrolase&lt;br&gt;Location: 52661 - 53626" locus_tag="BLR94_RS16105" class="clusterblast-orf" id="dummy-1_h1_7_12"  />
</g>
<g id="a1_0013"  >
<polygon points="170,85 175,80 279,80 279,90 175,90 170,85 " style="fill:white; stroke-width:1; stroke:black; " description="&lt;b&gt;BLR94_RS16110&lt;/b&gt;&lt;br&gt;D-alanine--poly(phosphoribitol) ligase subunit DltA&lt;br&gt;Location: 53697 - 65441" locus_tag="BLR94_RS16110" class="clusterblast-orf" id="dummy-1_h1_7_13"  />
</g>
<g id="a1_0014"  >
<polygon points="279,85 284,80 382,80 382,90 284,90 279,85 " style="fill:white; stroke-width:1; stroke:black; " description="&lt;b&gt;BLR94_RS16115&lt;/b&gt;&lt;br&gt;non-ribosomal peptide synthase/polyketide synthase&lt;br&gt;Location: 65441 - 76486" locus_tag="BLR94_RS16115" class="clusterblast-orf" id="dummy-1_h1_7_14"  />
</g>
<g id="a1_0015"  >
<polygon points="384,90 392,90 397,85 392,80 384,80 384,90 " style="fill:white; stroke-width:1; stroke:black; " description="&lt;b&gt;BLR94_RS16120&lt;/b&gt;&lt;br&gt;hypothetical protein&lt;br&gt;Location: 76691 - 78115" locus_tag="BLR94_RS16120" class="clusterblast-orf" id="dummy-1_h1_7_15"  />
</g>
<g id="a1_0016"  >
<polygon points="397,90 404,90 409,85 404,80 397,80 397,90 " style="fill:white; stroke-width:1; stroke:black; " description="&lt;b&gt;BLR94_RS16125&lt;/b&gt;&lt;br&gt;FAD-binding oxidoreductase&lt;br&gt;Location: 78112 - 79425" locus_tag="BLR94_RS16125" class="clusterblast-orf" id="dummy-1_h1_7_16"  />
</g>
<g id="a1_0017"  >
<polygon points="409,90 411,90 416,85 411,80 409,80 409,90 " style="fill:white; stroke-width:1; stroke:black; " description="&lt;b&gt;BLR94_RS16130&lt;/b&gt;&lt;br&gt;short-chain dehydrogenase&lt;br&gt;Location: 79422 - 80162" locus_tag="BLR94_RS16130" class="clusterblast-orf" id="dummy-1_h1_7_17"  />
</g>
<g id="a1_0018"  >
<polygon points="416,90 420,90 425,85 420,80 416,80 416,90 " style="fill:white; stroke-width:1; stroke:black; " description="&lt;b&gt;BLR94_RS16135&lt;/b&gt;&lt;br&gt;lysylphosphatidylglycerol synthetase family protein&lt;br&gt;Location: 80176 - 81150" locus_tag="BLR94_RS16135" class="clusterblast-orf" id="dummy-1_h1_7_18"  />
</g>
<g id="a1_0019"  >
<polygon points="427,90 432,90 437,85 432,80 427,80 427,90 " style="fill:white; stroke-width:1; stroke:black; " description="&lt;b&gt;BLR94_RS16140&lt;/b&gt;&lt;br&gt;HNH endonuclease&lt;br&gt;Location: 81289 - 82380" locus_tag="BLR94_RS16140" class="clusterblast-orf" id="dummy-1_h1_7_19"  />
</g>
<g id="a1_0020"  >
<polygon points="439,90 443,90 448,85 443,80 439,80 439,90 " style="fill:white; stroke-width:1; stroke:black; " description="&lt;b&gt;BLR94_RS16145&lt;/b&gt;&lt;br&gt;siderophore-interacting protein&lt;br&gt;Location: 82640 - 83605" locus_tag="BLR94_RS16145" class="clusterblast-orf" id="dummy-1_h1_7_20"  />
</g>
<g id="a1_0021"  >
<polygon points="450,85 455,80 457,80 457,90 455,90 450,85 " style="fill:white; stroke-width:1; stroke:black; " description="&lt;b&gt;BLR94_RS16150&lt;/b&gt;&lt;br&gt;thioesterase&lt;br&gt;Location: 83788 - 84552" locus_tag="BLR94_RS16150" class="clusterblast-orf" id="dummy-1_h1_7_21"  />
</g>
<g id="a1_0022"  >
<polygon points="457,85 460,80 460,90 457,85 " style="fill:white; stroke-width:1; stroke:black; " description="&lt;b&gt;BLR94_RS16155&lt;/b&gt;&lt;br&gt;MbtH family protein&lt;br&gt;Location: 84563 - 84808" locus_tag="BLR94_RS16155" class="clusterblast-orf" id="dummy-1_h1_7_22"  />
</g>
<g id="a1_0023"  >
<polygon points="461,85 466,80 475,80 475,90 466,90 461,85 " style="fill:white; stroke-width:1; stroke:black; " description="&lt;b&gt;BLR94_RS16160&lt;/b&gt;&lt;br&gt;aspartate aminotransferase family protein&lt;br&gt;Location: 85019 - 86422" locus_tag="BLR94_RS16160" class="clusterblast-orf" id="dummy-1_h1_7_23"  />
</g>
<g id="a1_0024"  >
<polygon points="479,85 484,80 599,80 599,90 484,90 479,85 " style="fill:white; stroke-width:1; stroke:black; " description="&lt;b&gt;BLR94_RS16165&lt;/b&gt;&lt;br&gt;non-ribosomal peptide synthase/polyketide synthase&lt;br&gt;Location: 86873 - 99772" locus_tag="BLR94_RS16165" class="clusterblast-orf" id="dummy-1_h1_7_24"  />
</g>
<g id="a1_0025"  >
<polygon points="602,90 602,90 607,85 602,80 602,80 602,90 " style="fill:white; stroke-width:1; stroke:black; " description="&lt;b&gt;BLR94_RS16170&lt;/b&gt;&lt;br&gt;RNA polymerase factor sigma-70&lt;br&gt;Location: 100127 - 100669" locus_tag="BLR94_RS16170" class="clusterblast-orf" id="dummy-1_h1_7_25"  />
</g>
<g id="a1_0026"  >
<polygon points="609,90 613,85 609,80 609,90 " style="fill:white; stroke-width:1; stroke:black; " description="&lt;b&gt;BLR94_RS16175&lt;/b&gt;&lt;br&gt;hypothetical protein&lt;br&gt;Location: 100919 - 101296" locus_tag="BLR94_RS16175" class="clusterblast-orf" id="dummy-1_h1_7_26"  />
</g>
<g id="a1_0027"  >
<polygon points="613,90 615,85 613,80 613,90 " style="fill:white; stroke-width:1; stroke:black; " description="&lt;b&gt;BLR94_RS16180&lt;/b&gt;&lt;br&gt;transcriptional regulator&lt;br&gt;Location: 101293 - 101490" locus_tag="BLR94_RS16180" class="clusterblast-orf" id="dummy-1_h1_7_27"  />
</g>
<g id="a1_0028"  >
<polygon points="615,90 620,90 625,85 620,80 615,80 615,90 " style="fill:white; stroke-width:1; stroke:black; " description="&lt;b&gt;BLR94_RS16185&lt;/b&gt;&lt;br&gt;cell division protein ZapE&lt;br&gt;Location: 101487 - 102608" locus_tag="BLR94_RS16185" class="clusterblast-orf" id="dummy-1_h1_7_28"  />
</g>
<g id="a1_0029"  >
<polygon points="628,85 633,80 639,80 639,90 633,90 628,85 " style="fill:white; stroke-width:1; stroke:black; " description="&lt;b&gt;BLR94_RS16190&lt;/b&gt;&lt;br&gt;Patatin&lt;br&gt;Location: 102873 - 104075" locus_tag="BLR94_RS16190" class="clusterblast-orf" id="dummy-1_h1_7_29"  />
</g>
<g id="a1_0030"  >
<polygon points="639,85 644,80 648,80 648,90 644,90 639,85 " style="fill:white; stroke-width:1; stroke:black; " description="&lt;b&gt;BLR94_RS16195&lt;/b&gt;&lt;br&gt;lipid A biosynthesis lauroyl acyltransferase&lt;br&gt;Location: 104097 - 105017" locus_tag="BLR94_RS16195" class="clusterblast-orf" id="dummy-1_h1_7_30"  />
</g>
<g id="a1_0031"  >
<polygon points="650,90 656,90 661,85 656,80 650,80 650,90 " style="fill:white; stroke-width:1; stroke:black; " description="&lt;b&gt;BLR94_RS16200&lt;/b&gt;&lt;br&gt;acetyl-CoA C-acyltransferase&lt;br&gt;Location: 105264 - 106445" locus_tag="BLR94_RS16200" class="clusterblast-orf" id="dummy-1_h1_7_31"  />
</g>
<g id="a1_0032"  >
<polygon points="662,90 664,85 662,80 662,90 " style="fill:white; stroke-width:1; stroke:black; " description="&lt;b&gt;BLR94_RS16205&lt;/b&gt;&lt;br&gt;hypothetical protein&lt;br&gt;Location: 106532 - 106825" locus_tag="BLR94_RS16205" class="clusterblast-orf" id="dummy-1_h1_7_32"  />
</g>
<g id="a1_0033"  >
<polygon points="665,90 665,90 670,85 665,80 665,80 665,90 " style="fill:white; stroke-width:1; stroke:black; " description="&lt;b&gt;BLR94_RS16210&lt;/b&gt;&lt;br&gt;oxidoreductase&lt;br&gt;Location: 106870 - 107381" locus_tag="BLR94_RS16210" class="clusterblast-orf" id="dummy-1_h1_7_33"  />
</g>
<g id="a1_0034"  >
<polygon points="670,85 674,80 674,90 670,85 " style="fill:white; stroke-width:1; stroke:black; " description="&lt;b&gt;BLR94_RS16215&lt;/b&gt;&lt;br&gt;DUF1232 domain-containing protein&lt;br&gt;Location: 107428 - 107859" locus_tag="BLR94_RS16215" class="clusterblast-orf" id="dummy-1_h1_7_34"  />
</g>
<g id="a1_0035"  >
<polygon points="678,85 683,80 685,80 685,90 683,90 678,85 " style="fill:white; stroke-width:1; stroke:black; " description="&lt;b&gt;BLR94_RS16220&lt;/b&gt;&lt;br&gt;FKBP-type peptidyl-prolyl cis-trans isomerase&lt;br&gt;Location: 108311 - 109045" locus_tag="BLR94_RS16220" class="clusterblast-orf" id="dummy-1_h1_7_35"  />
</g>
<g id="a1_0036"  >
<polygon points="687,85 692,80 696,80 696,90 692,90 687,85 " style="fill:#1546d8; stroke-width:1; stroke:black; " description="&lt;b&gt;BLR94_RS16225&lt;/b&gt;&lt;br&gt;hydroxymethylglutaryl-CoA lyase&lt;br&gt;Location: 109305 - 110207&lt;br&gt;&lt;br&gt;&lt;b&gt;BlastP hit with ctg3_27&lt;/b&gt;&lt;br&gt;Percentage identity: 72&lt;br&gt;Percentage coverage: 100&lt;br&gt;BLAST bit score: 439&lt;br&gt;E-value: 3.6e-121" locus_tag="BLR94_RS16225" class="clusterblast-orf" id="dummy-1_h1_7_36"  />
</g>
<g id="a1_0037"  >
<polygon points="696,85 701,80 714,80 714,90 701,90 696,85 " style="fill:#d81515; stroke-width:1; stroke:black; " description="&lt;b&gt;BLR94_RS16230&lt;/b&gt;&lt;br&gt;acetyl/propionyl/methylcrotonyl-CoA carboxylase subunit alpha&lt;br&gt;Location: 110204 - 112111&lt;br&gt;&lt;br&gt;&lt;b&gt;BlastP hit with ctg3_20&lt;/b&gt;&lt;br&gt;Percentage identity: 74&lt;br&gt;Percentage coverage: 94&lt;br&gt;BLAST bit score: 867&lt;br&gt;E-value: 1.1e-249" locus_tag="BLR94_RS16230" class="clusterblast-orf" id="dummy-1_h1_7_37"  />
</g>
<g id="a1_0038"  >
<polygon points="714,85 719,80 721,80 721,90 719,90 714,85 " style="fill:#77d815; stroke-width:1; stroke:black; " description="&lt;b&gt;BLR94_RS16235&lt;/b&gt;&lt;br&gt;gamma-carboxygeranoyl-CoA hydratase&lt;br&gt;Location: 112108 - 112905&lt;br&gt;&lt;br&gt;&lt;b&gt;BlastP hit with ctg3_21&lt;/b&gt;&lt;br&gt;Percentage identity: 71&lt;br&gt;Percentage coverage: 98&lt;br&gt;BLAST bit score: 360&lt;br&gt;E-value: 1.9e-97" locus_tag="BLR94_RS16235" class="clusterblast-orf" id="dummy-1_h1_7_38"  />
</g>
<g id="a1_0039"  >
<polygon points="721,85 726,80 736,80 736,90 726,90 721,85 " style="fill:#15d8d8; stroke-width:1; stroke:black; " description="&lt;b&gt;BLR94_RS16240&lt;/b&gt;&lt;br&gt;methylcrotonoyl-CoA carboxylase&lt;br&gt;Location: 112925 - 114532&lt;br&gt;&lt;br&gt;&lt;b&gt;BlastP hit with ctg3_22&lt;/b&gt;&lt;br&gt;Percentage identity: 85&lt;br&gt;Percentage coverage: 100&lt;br&gt;BLAST bit score: 929&lt;br&gt;E-value: 2e-268" locus_tag="BLR94_RS16240" class="clusterblast-orf" id="dummy-1_h1_7_39"  />
</g>
<g id="a1_0040"  >
<polygon points="736,85 741,80 747,80 747,90 741,90 736,85 " style="fill:#7715d8; stroke-width:1; stroke:black; " description="&lt;b&gt;BLR94_RS16245&lt;/b&gt;&lt;br&gt;isovaleryl-CoA dehydrogenase&lt;br&gt;Location: 114567 - 115751&lt;br&gt;&lt;br&gt;&lt;b&gt;BlastP hit with ctg3_23&lt;/b&gt;&lt;br&gt;Percentage identity: 74&lt;br&gt;Percentage coverage: 100&lt;br&gt;BLAST bit score: 576&lt;br&gt;E-value: 3.2e-162" locus_tag="BLR94_RS16245" class="clusterblast-orf" id="dummy-1_h1_7_40"  />
</g>
<g id="a1_0041"  >
<polygon points="748,85 751,80 751,90 748,85 " style="fill:#d815a7; stroke-width:1; stroke:black; " description="&lt;b&gt;BLR94_RS16250&lt;/b&gt;&lt;br&gt;MerR family DNA-binding transcriptional regulator&lt;br&gt;Location: 115800 - 116186&lt;br&gt;&lt;br&gt;&lt;b&gt;BlastP hit with ctg3_28&lt;/b&gt;&lt;br&gt;Percentage identity: 71&lt;br&gt;Percentage coverage: 92&lt;br&gt;BLAST bit score: 174&lt;br&gt;E-value: 9.5e-42" locus_tag="BLR94_RS16250" class="clusterblast-orf" id="dummy-1_h1_7_41"  />
</g>
<g id="a1_0042"  >
<polygon points="754,85 758,80 758,90 754,85 " style="fill:white; stroke-width:1; stroke:black; " description="&lt;b&gt;BLR94_RS16255&lt;/b&gt;&lt;br&gt;phosphotransferase system, HPr-related protein&lt;br&gt;Location: 116494 - 116931" locus_tag="BLR94_RS16255" class="clusterblast-orf" id="dummy-1_h1_7_42"  />
</g>
<g id="a1_0043"  >
<polygon points="759,85 762,80 762,90 759,85 " style="fill:white; stroke-width:1; stroke:black; " description="&lt;b&gt;BLR94_RS16260&lt;/b&gt;&lt;br&gt;thioredoxin&lt;br&gt;Location: 117026 - 117352" locus_tag="BLR94_RS16260" class="clusterblast-orf" id="dummy-1_h1_7_43"  />
</g>
<g id="a1_0044"  >
<polygon points="765,85 769,80 769,90 765,85 " style="fill:white; stroke-width:1; stroke:black; " description="&lt;b&gt;BLR94_RS16265&lt;/b&gt;&lt;br&gt;DUF2892 domain-containing protein&lt;br&gt;Location: 117613 - 118038" locus_tag="BLR94_RS16265" class="clusterblast-orf" id="dummy-1_h1_7_44"  />
</g>
<g id="a1_0045"  >
<polygon points="769,85 774,80 780,80 780,90 774,90 769,85 " style="fill:white; stroke-width:1; stroke:black; " description="&lt;b&gt;BLR94_RS16270&lt;/b&gt;&lt;br&gt;DUF1624 domain-containing protein&lt;br&gt;Location: 118038 - 119201" locus_tag="BLR94_RS16270" class="clusterblast-orf" id="dummy-1_h1_7_45"  />
</g>
</svg>
