<svg xmlns="http://www.w3.org/2000/svg" xmlns:xlink="http://www.w3.org/1999/xlink" version="1.1" x="0" y="0" height="230" width="800" viewBox="0 0 800 230" preserveAspectRatio="none"  >
<g label="Query sequence" class="clusterblast-cluster"  >
<text x="5" y="20" class="clusterblast-acc"  >
Query sequence</text>
<line x1="10" y1="35" x2="778.0" y2="35" style="stroke-width:1; stroke:grey; "  />
<polygon points="0,40 22,40 27,35 22,30 0,30 0,40 " style="fill:#d81515; stroke-width:1; stroke:black; " description="&lt;b&gt;ctg4_256&lt;/b&gt;&lt;br&gt;ctg4 256&lt;br&gt;Location: 315122 - 316586" locus_tag="ctg4_256" class="clusterblast-orf" id="dummy-1_q0_0_all"  />
<polygon points="27,35 31,30 31,40 27,35 " style="fill:#6fd815; stroke-width:1; stroke:black; " description="&lt;b&gt;ctg4_257&lt;/b&gt;&lt;br&gt;ctg4 257&lt;br&gt;Location: 316588 - 316825" locus_tag="ctg4_257" class="clusterblast-orf" id="dummy-1_q1_0_all"  />
<polygon points="35,40 38,40 43,35 38,30 35,30 35,40 " style="fill:#15c9d8; stroke-width:1; stroke:black; " description="&lt;b&gt;ctg4_258&lt;/b&gt;&lt;br&gt;ctg4 258&lt;br&gt;Location: 317041 - 317476" locus_tag="ctg4_258" class="clusterblast-orf" id="dummy-1_q2_0_all"  />
<polygon points="46,35 51,30 60,30 60,40 51,40 46,35 " style="fill:#8d15d8; stroke-width:1; stroke:black; " description="&lt;b&gt;ctg4_259&lt;/b&gt;&lt;br&gt;ctg4 259&lt;br&gt;Location: 317609 - 318380" locus_tag="ctg4_259" class="clusterblast-orf" id="dummy-1_q3_0_all"  />
<polygon points="67,40 75,40 80,35 75,30 67,30 67,40 " style="fill:#d83315; stroke-width:1; stroke:black; " description="&lt;b&gt;ctg4_260&lt;/b&gt;&lt;br&gt;ctg4 260&lt;br&gt;Location: 318743 - 319463" locus_tag="ctg4_260" class="clusterblast-orf" id="dummy-1_q4_0_all"  />
<polygon points="80,40 90,40 95,35 90,30 80,30 80,40 " style="fill:#51d815; stroke-width:1; stroke:black; " description="&lt;b&gt;ctg4_261&lt;/b&gt;&lt;br&gt;ctg4 261&lt;br&gt;Location: 319438 - 320248" locus_tag="ctg4_261" class="clusterblast-orf" id="dummy-1_q5_0_all"  />
<polygon points="95,40 99,35 95,30 95,40 " style="fill:#15abd8; stroke-width:1; stroke:black; " description="&lt;b&gt;ctg4_262&lt;/b&gt;&lt;br&gt;ctg4 262&lt;br&gt;Location: 320228 - 320489" locus_tag="ctg4_262" class="clusterblast-orf" id="dummy-1_q6_0_all"  />
<polygon points="100,40 104,35 100,30 100,40 " style="fill:#ab15d8; stroke-width:1; stroke:black; " description="&lt;b&gt;ctg4_263&lt;/b&gt;&lt;br&gt;ctg4 263&lt;br&gt;Location: 320498 - 320753" locus_tag="ctg4_263" class="clusterblast-orf" id="dummy-1_q7_0_all"  />
<polygon points="104,40 109,40 114,35 109,30 104,30 104,40 " style="fill:#d85115; stroke-width:1; stroke:black; " description="&lt;b&gt;ctg4_264&lt;/b&gt;&lt;br&gt;ctg4 264&lt;br&gt;Location: 320749 - 321295" locus_tag="ctg4_264" class="clusterblast-orf" id="dummy-1_q8_0_all"  />
<polygon points="114,40 141,40 146,35 141,30 114,30 114,40 " style="fill:#33d815; stroke-width:1; stroke:black; " description="&lt;b&gt;ctg4_265&lt;/b&gt;&lt;br&gt;ctg4 265&lt;br&gt;Location: 321291 - 322971" locus_tag="ctg4_265" class="clusterblast-orf" id="dummy-1_q9_0_all"  />
<polygon points="147,40 157,40 162,35 157,30 147,30 147,40 " style="fill:#158dd8; stroke-width:1; stroke:black; " description="&lt;b&gt;ctg4_266&lt;/b&gt;&lt;br&gt;ctg4 266&lt;br&gt;Location: 323060 - 323870" locus_tag="ctg4_266" class="clusterblast-orf" id="dummy-1_q10_0_all"  />
<polygon points="162,40 175,40 180,35 175,30 162,30 162,40 " style="fill:#c915d8; stroke-width:1; stroke:black; " description="&lt;b&gt;ctg4_267&lt;/b&gt;&lt;br&gt;ctg4 267&lt;br&gt;Location: 323866 - 324814" locus_tag="ctg4_267" class="clusterblast-orf" id="dummy-1_q11_0_all"  />
<polygon points="179,40 203,40 208,35 203,30 179,30 179,40 " style="fill:#d86f15; stroke-width:1; stroke:black; " description="&lt;b&gt;ctg4_268&lt;/b&gt;&lt;br&gt;ctg4 268&lt;br&gt;Location: 324794 - 326339" locus_tag="ctg4_268" class="clusterblast-orf" id="dummy-1_q12_0_all"  />
<polygon points="208,40 211,40 216,35 211,30 208,30 208,40 " style="fill:#15d815; stroke-width:1; stroke:black; " description="&lt;b&gt;ctg4_269&lt;/b&gt;&lt;br&gt;ctg4 269&lt;br&gt;Location: 326331 - 326757" locus_tag="ctg4_269" class="clusterblast-orf" id="dummy-1_q13_0_all"  />
<polygon points="216,40 224,40 229,35 224,30 216,30 216,40 " style="fill:#156fd8; stroke-width:1; stroke:black; " description="&lt;b&gt;ctg4_270&lt;/b&gt;&lt;br&gt;ctg4 270&lt;br&gt;Location: 326753 - 327488" locus_tag="ctg4_270" class="clusterblast-orf" id="dummy-1_q14_0_all"  />
<polygon points="229,40 268,40 273,35 268,30 229,30 229,40 " style="fill:#d815c9; stroke-width:1; stroke:black; " description="&lt;b&gt;ctg4_271&lt;/b&gt;&lt;br&gt;ctg4 271&lt;br&gt;Location: 327471 - 329814" locus_tag="ctg4_271" class="clusterblast-orf" id="dummy-1_q15_0_all"  />
<polygon points="273,40 289,40 294,35 289,30 273,30 273,40 " style="fill:#d88d15; stroke-width:1; stroke:black; " description="&lt;b&gt;ctg4_272&lt;/b&gt;&lt;br&gt;ctg4 272&lt;br&gt;Location: 329810 - 330971" locus_tag="ctg4_272" class="clusterblast-orf" id="dummy-1_q16_0_all"  />
<polygon points="294,40 312,40 317,35 312,30 294,30 294,40 " style="fill:#15d833; stroke-width:1; stroke:black; " description="&lt;b&gt;ctg4_273&lt;/b&gt;&lt;br&gt;ctg4 273&lt;br&gt;Location: 330957 - 332205" locus_tag="ctg4_273" class="clusterblast-orf" id="dummy-1_q17_0_all"  />
<polygon points="317,40 325,40 330,35 325,30 317,30 317,40 " style="fill:#1551d8; stroke-width:1; stroke:black; " description="&lt;b&gt;ctg4_274&lt;/b&gt;&lt;br&gt;ctg4 274&lt;br&gt;Location: 332201 - 332927" locus_tag="ctg4_274" class="clusterblast-orf" id="dummy-1_q18_0_all"  />
<polygon points="330,40 337,40 342,35 337,30 330,30 330,40 " style="fill:#d815ab; stroke-width:1; stroke:black; " description="&lt;b&gt;ctg4_275&lt;/b&gt;&lt;br&gt;ctg4 275&lt;br&gt;Location: 332926 - 333547" locus_tag="ctg4_275" class="clusterblast-orf" id="dummy-1_q19_0_all"  />
<polygon points="342,40 359,40 364,35 359,30 342,30 342,40 " style="fill:#d8ab15; stroke-width:1; stroke:black; " description="&lt;b&gt;ctg4_276&lt;/b&gt;&lt;br&gt;ctg4 276&lt;br&gt;Location: 333543 - 334740" locus_tag="ctg4_276" class="clusterblast-orf" id="dummy-1_q20_0_all"  />
<polygon points="364,40 368,40 373,35 368,30 364,30 364,40 " style="fill:#15d851; stroke-width:1; stroke:black; " description="&lt;b&gt;ctg4_277&lt;/b&gt;&lt;br&gt;ctg4 277&lt;br&gt;Location: 334736 - 335195" locus_tag="ctg4_277" class="clusterblast-orf" id="dummy-1_q21_0_all"  />
<polygon points="373,40 381,40 386,35 381,30 373,30 373,40 " style="fill:#1533d8; stroke-width:1; stroke:black; " description="&lt;b&gt;ctg4_278&lt;/b&gt;&lt;br&gt;ctg4 278&lt;br&gt;Location: 335194 - 335923" locus_tag="ctg4_278" class="clusterblast-orf" id="dummy-1_q22_0_all"  />
<polygon points="386,40 404,40 409,35 404,30 386,30 386,40 " style="fill:#d8ab15; stroke-width:1; stroke:black; " description="&lt;b&gt;ctg4_279&lt;/b&gt;&lt;br&gt;ctg4 279&lt;br&gt;Location: 335922 - 337149" locus_tag="ctg4_279" class="clusterblast-orf" id="dummy-1_q23_0_all"  />
<polygon points="409,40 413,40 418,35 413,30 409,30 409,40 " style="fill:#d8158d; stroke-width:1; stroke:black; " description="&lt;b&gt;ctg4_280&lt;/b&gt;&lt;br&gt;ctg4 280&lt;br&gt;Location: 337178 - 337625" locus_tag="ctg4_280" class="clusterblast-orf" id="dummy-1_q24_0_all"  />
<polygon points="423,35 428,30 440,30 440,40 428,40 423,35 " style="fill:#d8c915; stroke-width:1; stroke:black; " description="&lt;b&gt;ctg4_281&lt;/b&gt;&lt;br&gt;ctg4 281&lt;br&gt;Location: 337929 - 338808" locus_tag="ctg4_281" class="clusterblast-orf" id="dummy-1_q25_0_all"  />
<polygon points="440,35 445,30 451,30 451,40 445,40 440,35 " style="fill:#15d86f; stroke-width:1; stroke:black; " description="&lt;b&gt;ctg4_282&lt;/b&gt;&lt;br&gt;ctg4 282&lt;br&gt;Location: 338800 - 339397" locus_tag="ctg4_282" class="clusterblast-orf" id="dummy-1_q26_0_all"  />
<polygon points="459,40 461,40 466,35 461,30 459,30 459,40 " style="fill:#1515d8; stroke-width:1; stroke:black; " description="&lt;b&gt;ctg4_283&lt;/b&gt;&lt;br&gt;ctg4 283&lt;br&gt;Location: 339852 - 340236" locus_tag="ctg4_283" class="clusterblast-orf" id="dummy-1_q27_0_all"  />
<polygon points="467,40 467,40 472,35 467,30 467,30 467,40 " style="fill:#d8156f; stroke-width:1; stroke:black; " description="&lt;b&gt;ctg4_284&lt;/b&gt;&lt;br&gt;ctg4 284&lt;br&gt;Location: 340273 - 340528" locus_tag="ctg4_284" class="clusterblast-orf" id="dummy-1_q28_0_all"  />
<polygon points="475,35 479,30 479,40 475,35 " style="fill:#c9d815; stroke-width:1; stroke:black; " description="&lt;b&gt;ctg4_285&lt;/b&gt;&lt;br&gt;ctg4 285&lt;br&gt;Location: 340717 - 340909" locus_tag="ctg4_285" class="clusterblast-orf" id="dummy-1_q29_0_all"  />
<polygon points="482,35 487,30 498,30 498,40 487,40 482,35 " style="fill:#15d88d; stroke-width:1; stroke:black; " description="&lt;b&gt;ctg4_286&lt;/b&gt;&lt;br&gt;ctg4 286&lt;br&gt;Location: 341059 - 341962" locus_tag="ctg4_286" class="clusterblast-orf" id="dummy-1_q30_0_all"  />
<polygon points="500,40 519,40 524,35 519,30 500,30 500,40 " style="fill:#3315d8; stroke-width:1; stroke:black; " description="&lt;b&gt;ctg4_287&lt;/b&gt;&lt;br&gt;ctg4 287&lt;br&gt;Location: 342035 - 343355" locus_tag="ctg4_287" class="clusterblast-orf" id="dummy-1_q31_0_all"  />
<polygon points="528,35 533,30 547,30 547,40 533,40 528,35 " style="fill:#d81551; stroke-width:1; stroke:black; " description="&lt;b&gt;ctg4_288&lt;/b&gt;&lt;br&gt;ctg4 288&lt;br&gt;Location: 343531 - 344599" locus_tag="ctg4_288" class="clusterblast-orf" id="dummy-1_q32_0_all"  />
<polygon points="552,35 557,30 578,30 578,40 557,40 552,35 " style="fill:#abd815; stroke-width:1; stroke:black; " description="&lt;b&gt;ctg4_289&lt;/b&gt;&lt;br&gt;ctg4 289&lt;br&gt;Location: 344851 - 346270" locus_tag="ctg4_289" class="clusterblast-orf" id="dummy-1_q33_0_all"  />
<polygon points="579,35 584,30 662,30 662,40 584,40 579,35 " style="fill:#15d8ab; stroke-width:1; stroke:black; " description="&lt;b&gt;ctg4_290&lt;/b&gt;&lt;br&gt;ctg4 290&lt;br&gt;Location: 346303 - 350749" locus_tag="ctg4_290" class="clusterblast-orf" id="dummy-1_q34_0_all"  />
<polygon points="668,35 673,30 698,30 698,40 673,40 668,35 " style="fill:#5115d8; stroke-width:1; stroke:black; " description="&lt;b&gt;ctg4_291&lt;/b&gt;&lt;br&gt;ctg4 291&lt;br&gt;Location: 351099 - 352689" locus_tag="ctg4_291" class="clusterblast-orf" id="dummy-1_q35_0_all"  />
<polygon points="698,35 703,30 718,30 718,40 703,40 698,35 " style="fill:#d81533; stroke-width:1; stroke:black; " description="&lt;b&gt;ctg4_292&lt;/b&gt;&lt;br&gt;ctg4 292&lt;br&gt;Location: 352699 - 353800" locus_tag="ctg4_292" class="clusterblast-orf" id="dummy-1_q36_0_all"  />
<polygon points="721,35 726,30 730,30 730,40 726,40 721,35 " style="fill:#8dd815; stroke-width:1; stroke:black; " description="&lt;b&gt;ctg4_293&lt;/b&gt;&lt;br&gt;ctg4 293&lt;br&gt;Location: 353951 - 354443" locus_tag="ctg4_293" class="clusterblast-orf" id="dummy-1_q37_0_all"  />
<polygon points="731,35 736,30 770,30 770,40 736,40 731,35 " style="fill:#15d8c9; stroke-width:1; stroke:black; " description="&lt;b&gt;ctg4_294&lt;/b&gt;&lt;br&gt;ctg4 294&lt;br&gt;Location: 354474 - 356562" locus_tag="ctg4_294" class="clusterblast-orf" id="dummy-1_q38_0_all"  />
<polygon points="770,35 775,30 780,30 780,40 775,40 770,35 " style="fill:#6f15d8; stroke-width:1; stroke:black; " description="&lt;b&gt;ctg4_295&lt;/b&gt;&lt;br&gt;ctg4 295&lt;br&gt;Location: 356575 - 357103" locus_tag="ctg4_295" class="clusterblast-orf" id="dummy-1_q39_0_all"  />
</g>
<g label="NZ_FOYE01000004" description="NZ_FOYE01000004_c6: Pseudomonas sp. NFIX49, whole genome shotgun sequence (83% of genes show similarity), arylpolyene" class="clusterblast-cluster"  >
<text x="5" y="70" class="clusterblast-acc"  >
<a xlink:href="https://antismash-db.secondarymetabolites.org/go/NZ_FOYE01000004/6" target="_blank">NZ_FOYE01000004_c6</a>: Pseudomonas sp. NFIX49, whole genome shotgun sequence (83% of genes show similarity), arylpolyene</text>
<line x1="10" y1="85" x2="778.0" y2="85" style="stroke-width:1; stroke:grey; "  />
</g>
<g id="a1_000"  >
<polygon points="1,90 23,90 28,85 23,80 1,80 1,90 " style="fill:#d81515; stroke-width:1; stroke:black; " description="&lt;b&gt;BMZ46_RS13590&lt;/b&gt;&lt;br&gt;YdiU family protein&lt;br&gt;Location: 354460 - 352997&lt;br&gt;&lt;br&gt;&lt;b&gt;BlastP hit with ctg4_256&lt;/b&gt;&lt;br&gt;Percentage identity: 92&lt;br&gt;Percentage coverage: 100&lt;br&gt;BLAST bit score: 929&lt;br&gt;E-value: 1.4e-268" locus_tag="BMZ46_RS13590" class="clusterblast-orf" id="dummy-1_h1_10_0"  />
</g>
<g id="a1_001"  >
<polygon points="30,85 35,80 38,80 38,90 35,90 30,85 " style="fill:white; stroke-width:1; stroke:black; " description="&lt;b&gt;BMZ46_RS13585&lt;/b&gt;&lt;br&gt;transcriptional regulator&lt;br&gt;Location: 352864 - 352463" locus_tag="BMZ46_RS13585" class="clusterblast-orf" id="dummy-1_h1_10_1"  />
</g>
<g id="a1_002"  >
<polygon points="38,85 43,80 43,80 43,90 43,90 38,85 " style="fill:white; stroke-width:1; stroke:black; " description="&lt;b&gt;BMZ46_RS13580&lt;/b&gt;&lt;br&gt;type II toxin-antitoxin system HigB family toxin&lt;br&gt;Location: 352466 - 352170" locus_tag="BMZ46_RS13580" class="clusterblast-orf" id="dummy-1_h1_10_2"  />
</g>
<g id="a1_003"  >
<polygon points="47,90 50,90 55,85 50,80 47,80 47,90 " style="fill:#15c9d8; stroke-width:1; stroke:black; " description="&lt;b&gt;BMZ46_RS13575&lt;/b&gt;&lt;br&gt;thioredoxin TrxC&lt;br&gt;Location: 351974 - 351540&lt;br&gt;&lt;br&gt;&lt;b&gt;BlastP hit with ctg4_258&lt;/b&gt;&lt;br&gt;Percentage identity: 92&lt;br&gt;Percentage coverage: 100&lt;br&gt;BLAST bit score: 286&lt;br&gt;E-value: 1.4e-75" locus_tag="BMZ46_RS13575" class="clusterblast-orf" id="dummy-1_h1_10_3"  />
</g>
<g id="a1_004"  >
<polygon points="55,85 60,80 69,80 69,90 60,90 55,85 " style="fill:#8d15d8; stroke-width:1; stroke:black; " description="&lt;b&gt;BMZ46_RS13570&lt;/b&gt;&lt;br&gt;ParA family protein&lt;br&gt;Location: 351532 - 350762&lt;br&gt;&lt;br&gt;&lt;b&gt;BlastP hit with ctg4_259&lt;/b&gt;&lt;br&gt;Percentage identity: 97&lt;br&gt;Percentage coverage: 100&lt;br&gt;BLAST bit score: 493&lt;br&gt;E-value: 1e-137" locus_tag="BMZ46_RS13570" class="clusterblast-orf" id="dummy-1_h1_10_4"  />
</g>
<g id="a1_005"  >
<polygon points="76,90 85,90 90,85 85,80 76,80 76,90 " style="fill:#d83315; stroke-width:1; stroke:black; " description="&lt;b&gt;BMZ46_RS13565&lt;/b&gt;&lt;br&gt;3-oxoacyl-ACP synthase&lt;br&gt;Location: 350392 - 349667&lt;br&gt;&lt;br&gt;&lt;b&gt;BlastP hit with ctg4_260&lt;/b&gt;&lt;br&gt;Percentage identity: 88&lt;br&gt;Percentage coverage: 100&lt;br&gt;BLAST bit score: 444&lt;br&gt;E-value: 6.8e-123" locus_tag="BMZ46_RS13565" class="clusterblast-orf" id="dummy-1_h1_10_5"  />
</g>
<g id="a1_006"  >
<polygon points="89,90 99,90 104,85 99,80 89,80 89,90 " style="fill:#51d815; stroke-width:1; stroke:black; " description="&lt;b&gt;BMZ46_RS13560&lt;/b&gt;&lt;br&gt;1-acyl-sn-glycerol-3-phosphate acyltransferase&lt;br&gt;Location: 349691 - 348882&lt;br&gt;&lt;br&gt;&lt;b&gt;BlastP hit with ctg4_261&lt;/b&gt;&lt;br&gt;Percentage identity: 89&lt;br&gt;Percentage coverage: 100&lt;br&gt;BLAST bit score: 493&lt;br&gt;E-value: 1.9e-137" locus_tag="BMZ46_RS13560" class="clusterblast-orf" id="dummy-1_h1_10_6"  />
</g>
<g id="a1_007"  >
<polygon points="104,90 104,90 109,85 104,80 104,80 104,90 " style="fill:#15abd8; stroke-width:1; stroke:black; " description="&lt;b&gt;BMZ46_RS13555&lt;/b&gt;&lt;br&gt;acyl carrier protein&lt;br&gt;Location: 348901 - 348641&lt;br&gt;&lt;br&gt;&lt;b&gt;BlastP hit with ctg4_262&lt;/b&gt;&lt;br&gt;Percentage identity: 93&lt;br&gt;Percentage coverage: 100&lt;br&gt;BLAST bit score: 156&lt;br&gt;E-value: 1.7e-36" locus_tag="BMZ46_RS13555" class="clusterblast-orf" id="dummy-1_h1_10_7"  />
</g>
<g id="a1_008"  >
<polygon points="109,90 109,90 114,85 109,80 109,80 109,90 " style="fill:#ab15d8; stroke-width:1; stroke:black; " description="&lt;b&gt;BMZ46_RS13550&lt;/b&gt;&lt;br&gt;acyl carrier protein&lt;br&gt;Location: 348631 - 348377&lt;br&gt;&lt;br&gt;&lt;b&gt;BlastP hit with ctg4_263&lt;/b&gt;&lt;br&gt;Percentage identity: 99&lt;br&gt;Percentage coverage: 100&lt;br&gt;BLAST bit score: 158&lt;br&gt;E-value: 2.6e-37" locus_tag="BMZ46_RS13550" class="clusterblast-orf" id="dummy-1_h1_10_8"  />
</g>
<g id="a1_009"  >
<polygon points="113,90 119,90 124,85 119,80 113,80 113,90 " style="fill:#d85115; stroke-width:1; stroke:black; " description="&lt;b&gt;BMZ46_RS13545&lt;/b&gt;&lt;br&gt;membrane protein&lt;br&gt;Location: 348380 - 347835&lt;br&gt;&lt;br&gt;&lt;b&gt;BlastP hit with ctg4_264&lt;/b&gt;&lt;br&gt;Percentage identity: 92&lt;br&gt;Percentage coverage: 100&lt;br&gt;BLAST bit score: 338&lt;br&gt;E-value: 4e-91" locus_tag="BMZ46_RS13545" class="clusterblast-orf" id="dummy-1_h1_10_9"  />
</g>
<g id="a1_0010"  >
<polygon points="124,90 150,90 155,85 150,80 124,80 124,90 " style="fill:#33d815; stroke-width:1; stroke:black; " description="&lt;b&gt;BMZ46_RS13540&lt;/b&gt;&lt;br&gt;AMP-binding protein&lt;br&gt;Location: 347838 - 346159&lt;br&gt;&lt;br&gt;&lt;b&gt;BlastP hit with ctg4_265&lt;/b&gt;&lt;br&gt;Percentage identity: 84&lt;br&gt;Percentage coverage: 99&lt;br&gt;BLAST bit score: 945&lt;br&gt;E-value: 2.2e-273" locus_tag="BMZ46_RS13540" class="clusterblast-orf" id="dummy-1_h1_10_10"  />
</g>
<g id="a1_0011"  >
<polygon points="155,90 163,90 168,85 163,80 155,80 155,90 " style="fill:#158dd8; stroke-width:1; stroke:black; " description="&lt;b&gt;BMZ46_RS13535&lt;/b&gt;&lt;br&gt;glycosyltransferase family 2 protein&lt;br&gt;Location: 346166 - 345432&lt;br&gt;&lt;br&gt;&lt;b&gt;BlastP hit with ctg4_266&lt;/b&gt;&lt;br&gt;Percentage identity: 86&lt;br&gt;Percentage coverage: 90&lt;br&gt;BLAST bit score: 438&lt;br&gt;E-value: 7.1e-121" locus_tag="BMZ46_RS13535" class="clusterblast-orf" id="dummy-1_h1_10_11"  />
</g>
<g id="a1_0012"  >
<polygon points="168,90 181,90 186,85 181,80 168,80 168,90 " style="fill:#c915d8; stroke-width:1; stroke:black; " description="&lt;b&gt;BMZ46_RS13530&lt;/b&gt;&lt;br&gt;glycosyl transferase&lt;br&gt;Location: 345435 - 344488&lt;br&gt;&lt;br&gt;&lt;b&gt;BlastP hit with ctg4_267&lt;/b&gt;&lt;br&gt;Percentage identity: 89&lt;br&gt;Percentage coverage: 100&lt;br&gt;BLAST bit score: 594&lt;br&gt;E-value: 5.3e-168" locus_tag="BMZ46_RS13530" class="clusterblast-orf" id="dummy-1_h1_10_12"  />
</g>
<g id="a1_0013"  >
<polygon points="185,90 209,90 214,85 209,80 185,80 185,90 " style="fill:#d86f15; stroke-width:1; stroke:black; " description="&lt;b&gt;BMZ46_RS13525&lt;/b&gt;&lt;br&gt;aromatic amino acid lyase&lt;br&gt;Location: 344507 - 342963&lt;br&gt;&lt;br&gt;&lt;b&gt;BlastP hit with ctg4_268&lt;/b&gt;&lt;br&gt;Percentage identity: 96&lt;br&gt;Percentage coverage: 100&lt;br&gt;BLAST bit score: 982&lt;br&gt;E-value: 1.5e-284" locus_tag="BMZ46_RS13525" class="clusterblast-orf" id="dummy-1_h1_10_13"  />
</g>
<g id="a1_0014"  >
<polygon points="214,90 217,90 222,85 217,80 214,80 214,90 " style="fill:#15d815; stroke-width:1; stroke:black; " description="&lt;b&gt;BMZ46_RS13520&lt;/b&gt;&lt;br&gt;acyl-CoA thioesterase&lt;br&gt;Location: 342970 - 342545&lt;br&gt;&lt;br&gt;&lt;b&gt;BlastP hit with ctg4_269&lt;/b&gt;&lt;br&gt;Percentage identity: 91&lt;br&gt;Percentage coverage: 99&lt;br&gt;BLAST bit score: 262&lt;br&gt;E-value: 2.8e-68" locus_tag="BMZ46_RS13520" class="clusterblast-orf" id="dummy-1_h1_10_14"  />
</g>
<g id="a1_0015"  >
<polygon points="222,90 228,90 233,85 228,80 222,80 222,90 " style="fill:#156fd8; stroke-width:1; stroke:black; " description="&lt;b&gt;BMZ46_RS13515&lt;/b&gt;&lt;br&gt;outer membrane lipoprotein carrier protein LolA&lt;br&gt;Location: 342548 - 341946&lt;br&gt;&lt;br&gt;&lt;b&gt;BlastP hit with ctg4_270&lt;/b&gt;&lt;br&gt;Percentage identity: 86&lt;br&gt;Percentage coverage: 80&lt;br&gt;BLAST bit score: 336&lt;br&gt;E-value: 2.6e-90" locus_tag="BMZ46_RS13515" class="clusterblast-orf" id="dummy-1_h1_10_15"  />
</g>
<g id="a1_0016"  >
<polygon points="233,90 271,90 276,85 271,80 233,80 233,90 " style="fill:#d815c9; stroke-width:1; stroke:black; " description="&lt;b&gt;BMZ46_RS13510&lt;/b&gt;&lt;br&gt;hypothetical protein&lt;br&gt;Location: 341962 - 339623&lt;br&gt;&lt;br&gt;&lt;b&gt;BlastP hit with ctg4_271&lt;/b&gt;&lt;br&gt;Percentage identity: 90&lt;br&gt;Percentage coverage: 100&lt;br&gt;BLAST bit score: 1323&lt;br&gt;E-value: 0.0" locus_tag="BMZ46_RS13510" class="clusterblast-orf" id="dummy-1_h1_10_16"  />
</g>
<g id="a1_0017"  >
<polygon points="276,90 293,90 298,85 293,80 276,80 276,90 " style="fill:#d88d15; stroke-width:1; stroke:black; " description="&lt;b&gt;BMZ46_RS13505&lt;/b&gt;&lt;br&gt;sodium:proton antiporter&lt;br&gt;Location: 339626 - 338466&lt;br&gt;&lt;br&gt;&lt;b&gt;BlastP hit with ctg4_272&lt;/b&gt;&lt;br&gt;Percentage identity: 83&lt;br&gt;Percentage coverage: 100&lt;br&gt;BLAST bit score: 615&lt;br&gt;E-value: 4.7e-174" locus_tag="BMZ46_RS13505" class="clusterblast-orf" id="dummy-1_h1_10_17"  />
</g>
<g id="a1_0018"  >
<polygon points="297,90 316,90 321,85 316,80 297,80 297,90 " style="fill:#15d833; stroke-width:1; stroke:black; " description="&lt;b&gt;BMZ46_RS13500&lt;/b&gt;&lt;br&gt;FAD-dependent oxidoreductase&lt;br&gt;Location: 338479 - 337232&lt;br&gt;&lt;br&gt;&lt;b&gt;BlastP hit with ctg4_273&lt;/b&gt;&lt;br&gt;Percentage identity: 88&lt;br&gt;Percentage coverage: 100&lt;br&gt;BLAST bit score: 757&lt;br&gt;E-value: 6.3e-217" locus_tag="BMZ46_RS13500" class="clusterblast-orf" id="dummy-1_h1_10_18"  />
</g>
<g id="a1_0019"  >
<polygon points="321,90 329,90 334,85 329,80 321,80 321,90 " style="fill:#1551d8; stroke-width:1; stroke:black; " description="&lt;b&gt;BMZ46_RS13495&lt;/b&gt;&lt;br&gt;class I SAM-dependent methyltransferase&lt;br&gt;Location: 337235 - 336510&lt;br&gt;&lt;br&gt;&lt;b&gt;BlastP hit with ctg4_274&lt;/b&gt;&lt;br&gt;Percentage identity: 91&lt;br&gt;Percentage coverage: 100&lt;br&gt;BLAST bit score: 461&lt;br&gt;E-value: 7e-128" locus_tag="BMZ46_RS13495" class="clusterblast-orf" id="dummy-1_h1_10_19"  />
</g>
<g id="a1_0020"  >
<polygon points="334,90 338,90 343,85 338,80 334,80 334,90 " style="fill:#d815ab; stroke-width:1; stroke:black; " description="&lt;b&gt;BMZ46_RS13490&lt;/b&gt;&lt;br&gt;hypothetical protein&lt;br&gt;Location: 336510 - 336028&lt;br&gt;&lt;br&gt;&lt;b&gt;BlastP hit with ctg4_275&lt;/b&gt;&lt;br&gt;Percentage identity: 73&lt;br&gt;Percentage coverage: 76&lt;br&gt;BLAST bit score: 242&lt;br&gt;E-value: 3.4e-62" locus_tag="BMZ46_RS13490" class="clusterblast-orf" id="dummy-1_h1_10_20"  />
</g>
<g id="a1_0021"  >
<polygon points="343,90 360,90 365,85 360,80 343,80 343,90 " style="fill:#d8ab15; stroke-width:1; stroke:black; " description="&lt;b&gt;BMZ46_RS13485&lt;/b&gt;&lt;br&gt;beta-ketoacyl-[acyl-carrier-protein] synthase II&lt;br&gt;Location: 336031 - 334835&lt;br&gt;&lt;br&gt;&lt;b&gt;BlastP hit with ctg4_276&lt;/b&gt;&lt;br&gt;Percentage identity: 85&lt;br&gt;Percentage coverage: 100&lt;br&gt;BLAST bit score: 678&lt;br&gt;E-value: 4.6e-193&lt;br&gt;&lt;br&gt;&lt;b&gt;BlastP hit with ctg4_279&lt;/b&gt;&lt;br&gt;Percentage identity: 33&lt;br&gt;Percentage coverage: 100&lt;br&gt;BLAST bit score: 149&lt;br&gt;E-value: 1e-33" locus_tag="BMZ46_RS13485" class="clusterblast-orf" id="dummy-1_h1_10_21"  />
</g>
<g id="a1_0022"  >
<polygon points="365,90 369,90 374,85 369,80 365,80 365,90 " style="fill:#15d851; stroke-width:1; stroke:black; " description="&lt;b&gt;BMZ46_RS13480&lt;/b&gt;&lt;br&gt;3-hydroxylacyl-ACP dehydratase&lt;br&gt;Location: 334838 - 334374&lt;br&gt;&lt;br&gt;&lt;b&gt;BlastP hit with ctg4_277&lt;/b&gt;&lt;br&gt;Percentage identity: 83&lt;br&gt;Percentage coverage: 97&lt;br&gt;BLAST bit score: 265&lt;br&gt;E-value: 4.7e-69" locus_tag="BMZ46_RS13480" class="clusterblast-orf" id="dummy-1_h1_10_22"  />
</g>
<g id="a1_0023"  >
<polygon points="374,90 382,90 387,85 382,80 374,80 374,90 " style="fill:#1533d8; stroke-width:1; stroke:black; " description="&lt;b&gt;BMZ46_RS13475&lt;/b&gt;&lt;br&gt;3-oxoacyl-ACP reductase FabG&lt;br&gt;Location: 334381 - 333653&lt;br&gt;&lt;br&gt;&lt;b&gt;BlastP hit with ctg4_278&lt;/b&gt;&lt;br&gt;Percentage identity: 92&lt;br&gt;Percentage coverage: 100&lt;br&gt;BLAST bit score: 445&lt;br&gt;E-value: 5.2e-123" locus_tag="BMZ46_RS13475" class="clusterblast-orf" id="dummy-1_h1_10_23"  />
</g>
<g id="a1_0024"  >
<polygon points="387,90 405,90 410,85 405,80 387,80 387,90 " style="fill:#d8ab15; stroke-width:1; stroke:black; " description="&lt;b&gt;BMZ46_RS13470&lt;/b&gt;&lt;br&gt;beta-ketoacyl-ACP synthase II&lt;br&gt;Location: 333653 - 332418&lt;br&gt;&lt;br&gt;&lt;b&gt;BlastP hit with ctg4_276&lt;/b&gt;&lt;br&gt;Percentage identity: 32&lt;br&gt;Percentage coverage: 102&lt;br&gt;BLAST bit score: 136&lt;br&gt;E-value: 6.6e-30&lt;br&gt;&lt;br&gt;&lt;b&gt;BlastP hit with ctg4_279&lt;/b&gt;&lt;br&gt;Percentage identity: 95&lt;br&gt;Percentage coverage: 100&lt;br&gt;BLAST bit score: 787&lt;br&gt;E-value: 7.3e-226" locus_tag="BMZ46_RS13470" class="clusterblast-orf" id="dummy-1_h1_10_24"  />
</g>
<g id="a1_0025"  >
<polygon points="410,90 414,90 419,85 414,80 410,80 410,90 " style="fill:#d8158d; stroke-width:1; stroke:black; " description="&lt;b&gt;BMZ46_RS13465&lt;/b&gt;&lt;br&gt;excinuclease&lt;br&gt;Location: 332397 - 331957&lt;br&gt;&lt;br&gt;&lt;b&gt;BlastP hit with ctg4_280&lt;/b&gt;&lt;br&gt;Percentage identity: 87&lt;br&gt;Percentage coverage: 100&lt;br&gt;BLAST bit score: 245&lt;br&gt;E-value: 2.9e-63" locus_tag="BMZ46_RS13465" class="clusterblast-orf" id="dummy-1_h1_10_25"  />
</g>
<g id="a1_0026"  >
<polygon points="420,85 425,80 425,80 425,90 425,90 420,85 " style="fill:#c9d815; stroke-width:1; stroke:black; " description="&lt;b&gt;BMZ46_RS13460&lt;/b&gt;&lt;br&gt;putative addiction module antidote protein&lt;br&gt;Location: 331908 - 331621&lt;br&gt;&lt;br&gt;&lt;b&gt;BlastP hit with ctg4_285&lt;/b&gt;&lt;br&gt;Percentage identity: 63&lt;br&gt;Percentage coverage: 90&lt;br&gt;BLAST bit score: 74&lt;br&gt;E-value: 6.3e-12" locus_tag="BMZ46_RS13460" class="clusterblast-orf" id="dummy-1_h1_10_26"  />
</g>
<g id="a1_0027"  >
<polygon points="425,85 430,80 430,80 430,90 430,90 425,85 " style="fill:white; stroke-width:1; stroke:black; " description="&lt;b&gt;BMZ46_RS13455&lt;/b&gt;&lt;br&gt;type II toxin-antitoxin system RelE/ParE family toxin&lt;br&gt;Location: 331624 - 331319" locus_tag="BMZ46_RS13455" class="clusterblast-orf" id="dummy-1_h1_10_27"  />
</g>
<g id="a1_0028"  >
<polygon points="433,90 436,90 441,85 436,80 433,80 433,90 " style="fill:#d8158d; stroke-width:1; stroke:black; " description="&lt;b&gt;BMZ46_RS13450&lt;/b&gt;&lt;br&gt;excinuclease&lt;br&gt;Location: 331200 - 330763&lt;br&gt;&lt;br&gt;&lt;b&gt;BlastP hit with ctg4_280&lt;/b&gt;&lt;br&gt;Percentage identity: 52&lt;br&gt;Percentage coverage: 99&lt;br&gt;BLAST bit score: 139&lt;br&gt;E-value: 3.8e-31" locus_tag="BMZ46_RS13450" class="clusterblast-orf" id="dummy-1_h1_10_28"  />
</g>
<g id="a1_0029"  >
<polygon points="441,85 446,80 457,80 457,90 446,90 441,85 " style="fill:#15d88d; stroke-width:1; stroke:black; " description="&lt;b&gt;BMZ46_RS13445&lt;/b&gt;&lt;br&gt;LysR family transcriptional regulator&lt;br&gt;Location: 330762 - 329866&lt;br&gt;&lt;br&gt;&lt;b&gt;BlastP hit with ctg4_286&lt;/b&gt;&lt;br&gt;Percentage identity: 97&lt;br&gt;Percentage coverage: 99&lt;br&gt;BLAST bit score: 549&lt;br&gt;E-value: 2.4e-154" locus_tag="BMZ46_RS13445" class="clusterblast-orf" id="dummy-1_h1_10_29"  />
</g>
<g id="a1_0030"  >
<polygon points="460,90 478,90 483,85 478,80 460,80 460,90 " style="fill:#3315d8; stroke-width:1; stroke:black; " description="&lt;b&gt;BMZ46_RS13440&lt;/b&gt;&lt;br&gt;MFS transporter&lt;br&gt;Location: 329747 - 328473&lt;br&gt;&lt;br&gt;&lt;b&gt;BlastP hit with ctg4_287&lt;/b&gt;&lt;br&gt;Percentage identity: 93&lt;br&gt;Percentage coverage: 97&lt;br&gt;BLAST bit score: 751&lt;br&gt;E-value: 4.8e-215" locus_tag="BMZ46_RS13440" class="clusterblast-orf" id="dummy-1_h1_10_30"  />
</g>
<g id="a1_0031"  >
<polygon points="485,85 490,80 504,80 504,90 490,90 485,85 " style="fill:#d81551; stroke-width:1; stroke:black; " description="&lt;b&gt;BMZ46_RS13435&lt;/b&gt;&lt;br&gt;uroporphyrinogen decarboxylase&lt;br&gt;Location: 328402 - 327335&lt;br&gt;&lt;br&gt;&lt;b&gt;BlastP hit with ctg4_288&lt;/b&gt;&lt;br&gt;Percentage identity: 97&lt;br&gt;Percentage coverage: 100&lt;br&gt;BLAST bit score: 709&lt;br&gt;E-value: 2.2e-202" locus_tag="BMZ46_RS13435" class="clusterblast-orf" id="dummy-1_h1_10_31"  />
</g>
<g id="a1_0032"  >
<polygon points="509,85 514,80 535,80 535,90 514,90 509,85 " style="fill:#abd815; stroke-width:1; stroke:black; " description="&lt;b&gt;BMZ46_RS13430&lt;/b&gt;&lt;br&gt;glutamate synthase subunit beta&lt;br&gt;Location: 327088 - 325670&lt;br&gt;&lt;br&gt;&lt;b&gt;BlastP hit with ctg4_289&lt;/b&gt;&lt;br&gt;Percentage identity: 99&lt;br&gt;Percentage coverage: 100&lt;br&gt;BLAST bit score: 959&lt;br&gt;E-value: 1.6e-277" locus_tag="BMZ46_RS13430" class="clusterblast-orf" id="dummy-1_h1_10_32"  />
</g>
<g id="a1_0033"  >
<polygon points="536,85 541,80 619,80 619,90 541,90 536,85 " style="fill:#15d8ab; stroke-width:1; stroke:black; " description="&lt;b&gt;BMZ46_RS13425&lt;/b&gt;&lt;br&gt;glutamate synthase large subunit&lt;br&gt;Location: 325636 - 321191&lt;br&gt;&lt;br&gt;&lt;b&gt;BlastP hit with ctg4_290&lt;/b&gt;&lt;br&gt;Percentage identity: 97&lt;br&gt;Percentage coverage: 100&lt;br&gt;BLAST bit score: 2787&lt;br&gt;E-value: 0.0" locus_tag="BMZ46_RS13425" class="clusterblast-orf" id="dummy-1_h1_10_33"  />
</g>
<g id="a1_0034"  >
<polygon points="617,90 618,90 623,85 618,80 617,80 617,90 " style="fill:white; stroke-width:1; stroke:black; " description="&lt;b&gt;BMZ46_RS13420&lt;/b&gt;&lt;br&gt;hypothetical protein&lt;br&gt;Location: 321277 - 320939" locus_tag="BMZ46_RS13420" class="clusterblast-orf" id="dummy-1_h1_10_34"  />
</g>
<g id="a1_0035"  >
<polygon points="625,85 630,80 655,80 655,90 630,90 625,85 " style="fill:#5115d8; stroke-width:1; stroke:black; " description="&lt;b&gt;BMZ46_RS13415&lt;/b&gt;&lt;br&gt;cell division protein&lt;br&gt;Location: 320841 - 319240&lt;br&gt;&lt;br&gt;&lt;b&gt;BlastP hit with ctg4_291&lt;/b&gt;&lt;br&gt;Percentage identity: 89&lt;br&gt;Percentage coverage: 101&lt;br&gt;BLAST bit score: 785&lt;br&gt;E-value: 4.7e-225" locus_tag="BMZ46_RS13415" class="clusterblast-orf" id="dummy-1_h1_10_35"  />
</g>
<g id="a1_0036"  >
<polygon points="655,85 660,80 676,80 676,90 660,90 655,85 " style="fill:#d81533; stroke-width:1; stroke:black; " description="&lt;b&gt;BMZ46_RS13410&lt;/b&gt;&lt;br&gt;3-dehydroquinate synthase&lt;br&gt;Location: 319229 - 318129&lt;br&gt;&lt;br&gt;&lt;b&gt;BlastP hit with ctg4_292&lt;/b&gt;&lt;br&gt;Percentage identity: 95&lt;br&gt;Percentage coverage: 100&lt;br&gt;BLAST bit score: 701&lt;br&gt;E-value: 4.7e-200" locus_tag="BMZ46_RS13410" class="clusterblast-orf" id="dummy-1_h1_10_36"  />
</g>
<g id="a1_0037"  >
<polygon points="678,85 683,80 688,80 688,90 683,90 678,85 " style="fill:#8dd815; stroke-width:1; stroke:black; " description="&lt;b&gt;BMZ46_RS13405&lt;/b&gt;&lt;br&gt;shikimate kinase&lt;br&gt;Location: 317976 - 317458&lt;br&gt;&lt;br&gt;&lt;b&gt;BlastP hit with ctg4_293&lt;/b&gt;&lt;br&gt;Percentage identity: 94&lt;br&gt;Percentage coverage: 100&lt;br&gt;BLAST bit score: 303&lt;br&gt;E-value: 1.3e-80" locus_tag="BMZ46_RS13405" class="clusterblast-orf" id="dummy-1_h1_10_37"  />
</g>
<g id="a1_0038"  >
<polygon points="688,85 693,80 727,80 727,90 693,90 688,85 " style="fill:#15d8c9; stroke-width:1; stroke:black; " description="&lt;b&gt;BMZ46_RS13400&lt;/b&gt;&lt;br&gt;type IV pilus secretin PilQ&lt;br&gt;Location: 317453 - 315375&lt;br&gt;&lt;br&gt;&lt;b&gt;BlastP hit with ctg4_294&lt;/b&gt;&lt;br&gt;Percentage identity: 91&lt;br&gt;Percentage coverage: 100&lt;br&gt;BLAST bit score: 1168&lt;br&gt;E-value: 0.0" locus_tag="BMZ46_RS13400" class="clusterblast-orf" id="dummy-1_h1_10_38"  />
</g>
<g id="a1_0039"  >
<polygon points="727,85 732,80 737,80 737,90 732,90 727,85 " style="fill:#6f15d8; stroke-width:1; stroke:black; " description="&lt;b&gt;BMZ46_RS13395&lt;/b&gt;&lt;br&gt;pilus assembly protein PilP&lt;br&gt;Location: 315360 - 314836&lt;br&gt;&lt;br&gt;&lt;b&gt;BlastP hit with ctg4_295&lt;/b&gt;&lt;br&gt;Percentage identity: 87&lt;br&gt;Percentage coverage: 100&lt;br&gt;BLAST bit score: 316&lt;br&gt;E-value: 2.7e-84" locus_tag="BMZ46_RS13395" class="clusterblast-orf" id="dummy-1_h1_10_39"  />
</g>
<g id="a1_0040"  >
<polygon points="737,85 742,80 748,80 748,90 742,90 737,85 " style="fill:white; stroke-width:1; stroke:black; " description="&lt;b&gt;BMZ46_RS13390&lt;/b&gt;&lt;br&gt;pilus assembly protein PilP&lt;br&gt;Location: 314839 - 314216" locus_tag="BMZ46_RS13390" class="clusterblast-orf" id="dummy-1_h1_10_40"  />
</g>
<g id="a1_0041"  >
<polygon points="748,85 753,80 759,80 759,90 753,90 748,85 " style="fill:white; stroke-width:1; stroke:black; " description="&lt;b&gt;BMZ46_RS13385&lt;/b&gt;&lt;br&gt;pilus assembly protein PilN&lt;br&gt;Location: 314219 - 313653" locus_tag="BMZ46_RS13385" class="clusterblast-orf" id="dummy-1_h1_10_41"  />
</g>
<g id="a1_0042"  >
<polygon points="759,85 764,80 778,80 778,90 764,90 759,85 " style="fill:white; stroke-width:1; stroke:black; " description="&lt;b&gt;BMZ46_RS13380&lt;/b&gt;&lt;br&gt;pilus assembly protein PilM&lt;br&gt;Location: 313653 - 312589" locus_tag="BMZ46_RS13380" class="clusterblast-orf" id="dummy-1_h1_10_42"  />
</g>
</svg>
