<svg xmlns="http://www.w3.org/2000/svg" xmlns:xlink="http://www.w3.org/1999/xlink" version="1.1" x="0" y="0" height="230" width="800" viewBox="0 0 800 230" preserveAspectRatio="none"  >
<g label="Query sequence" class="clusterblast-cluster"  >
<text x="5" y="20" class="clusterblast-acc"  >
Query sequence</text>
<line x1="10" y1="35" x2="778.0" y2="35" style="stroke-width:1; stroke:grey; "  />
<polygon points="0,40 22,40 27,35 22,30 0,30 0,40 " style="fill:#d81515; stroke-width:1; stroke:black; " description="&lt;b&gt;ctg4_256&lt;/b&gt;&lt;br&gt;ctg4 256&lt;br&gt;Location: 315122 - 316586" locus_tag="ctg4_256" class="clusterblast-orf" id="dummy-1_q0_0_all"  />
<polygon points="27,35 31,30 31,40 27,35 " style="fill:#6fd815; stroke-width:1; stroke:black; " description="&lt;b&gt;ctg4_257&lt;/b&gt;&lt;br&gt;ctg4 257&lt;br&gt;Location: 316588 - 316825" locus_tag="ctg4_257" class="clusterblast-orf" id="dummy-1_q1_0_all"  />
<polygon points="35,40 38,40 43,35 38,30 35,30 35,40 " style="fill:#15c9d8; stroke-width:1; stroke:black; " description="&lt;b&gt;ctg4_258&lt;/b&gt;&lt;br&gt;ctg4 258&lt;br&gt;Location: 317041 - 317476" locus_tag="ctg4_258" class="clusterblast-orf" id="dummy-1_q2_0_all"  />
<polygon points="46,35 51,30 60,30 60,40 51,40 46,35 " style="fill:#8d15d8; stroke-width:1; stroke:black; " description="&lt;b&gt;ctg4_259&lt;/b&gt;&lt;br&gt;ctg4 259&lt;br&gt;Location: 317609 - 318380" locus_tag="ctg4_259" class="clusterblast-orf" id="dummy-1_q3_0_all"  />
<polygon points="67,40 75,40 80,35 75,30 67,30 67,40 " style="fill:#d83315; stroke-width:1; stroke:black; " description="&lt;b&gt;ctg4_260&lt;/b&gt;&lt;br&gt;ctg4 260&lt;br&gt;Location: 318743 - 319463" locus_tag="ctg4_260" class="clusterblast-orf" id="dummy-1_q4_0_all"  />
<polygon points="80,40 90,40 95,35 90,30 80,30 80,40 " style="fill:#51d815; stroke-width:1; stroke:black; " description="&lt;b&gt;ctg4_261&lt;/b&gt;&lt;br&gt;ctg4 261&lt;br&gt;Location: 319438 - 320248" locus_tag="ctg4_261" class="clusterblast-orf" id="dummy-1_q5_0_all"  />
<polygon points="95,40 99,35 95,30 95,40 " style="fill:#15abd8; stroke-width:1; stroke:black; " description="&lt;b&gt;ctg4_262&lt;/b&gt;&lt;br&gt;ctg4 262&lt;br&gt;Location: 320228 - 320489" locus_tag="ctg4_262" class="clusterblast-orf" id="dummy-1_q6_0_all"  />
<polygon points="100,40 104,35 100,30 100,40 " style="fill:#ab15d8; stroke-width:1; stroke:black; " description="&lt;b&gt;ctg4_263&lt;/b&gt;&lt;br&gt;ctg4 263&lt;br&gt;Location: 320498 - 320753" locus_tag="ctg4_263" class="clusterblast-orf" id="dummy-1_q7_0_all"  />
<polygon points="104,40 109,40 114,35 109,30 104,30 104,40 " style="fill:#d85115; stroke-width:1; stroke:black; " description="&lt;b&gt;ctg4_264&lt;/b&gt;&lt;br&gt;ctg4 264&lt;br&gt;Location: 320749 - 321295" locus_tag="ctg4_264" class="clusterblast-orf" id="dummy-1_q8_0_all"  />
<polygon points="114,40 141,40 146,35 141,30 114,30 114,40 " style="fill:#33d815; stroke-width:1; stroke:black; " description="&lt;b&gt;ctg4_265&lt;/b&gt;&lt;br&gt;ctg4 265&lt;br&gt;Location: 321291 - 322971" locus_tag="ctg4_265" class="clusterblast-orf" id="dummy-1_q9_0_all"  />
<polygon points="147,40 157,40 162,35 157,30 147,30 147,40 " style="fill:#158dd8; stroke-width:1; stroke:black; " description="&lt;b&gt;ctg4_266&lt;/b&gt;&lt;br&gt;ctg4 266&lt;br&gt;Location: 323060 - 323870" locus_tag="ctg4_266" class="clusterblast-orf" id="dummy-1_q10_0_all"  />
<polygon points="162,40 175,40 180,35 175,30 162,30 162,40 " style="fill:#c915d8; stroke-width:1; stroke:black; " description="&lt;b&gt;ctg4_267&lt;/b&gt;&lt;br&gt;ctg4 267&lt;br&gt;Location: 323866 - 324814" locus_tag="ctg4_267" class="clusterblast-orf" id="dummy-1_q11_0_all"  />
<polygon points="179,40 203,40 208,35 203,30 179,30 179,40 " style="fill:#d86f15; stroke-width:1; stroke:black; " description="&lt;b&gt;ctg4_268&lt;/b&gt;&lt;br&gt;ctg4 268&lt;br&gt;Location: 324794 - 326339" locus_tag="ctg4_268" class="clusterblast-orf" id="dummy-1_q12_0_all"  />
<polygon points="208,40 211,40 216,35 211,30 208,30 208,40 " style="fill:#15d815; stroke-width:1; stroke:black; " description="&lt;b&gt;ctg4_269&lt;/b&gt;&lt;br&gt;ctg4 269&lt;br&gt;Location: 326331 - 326757" locus_tag="ctg4_269" class="clusterblast-orf" id="dummy-1_q13_0_all"  />
<polygon points="216,40 224,40 229,35 224,30 216,30 216,40 " style="fill:#156fd8; stroke-width:1; stroke:black; " description="&lt;b&gt;ctg4_270&lt;/b&gt;&lt;br&gt;ctg4 270&lt;br&gt;Location: 326753 - 327488" locus_tag="ctg4_270" class="clusterblast-orf" id="dummy-1_q14_0_all"  />
<polygon points="229,40 268,40 273,35 268,30 229,30 229,40 " style="fill:#d815c9; stroke-width:1; stroke:black; " description="&lt;b&gt;ctg4_271&lt;/b&gt;&lt;br&gt;ctg4 271&lt;br&gt;Location: 327471 - 329814" locus_tag="ctg4_271" class="clusterblast-orf" id="dummy-1_q15_0_all"  />
<polygon points="273,40 289,40 294,35 289,30 273,30 273,40 " style="fill:#d88d15; stroke-width:1; stroke:black; " description="&lt;b&gt;ctg4_272&lt;/b&gt;&lt;br&gt;ctg4 272&lt;br&gt;Location: 329810 - 330971" locus_tag="ctg4_272" class="clusterblast-orf" id="dummy-1_q16_0_all"  />
<polygon points="294,40 312,40 317,35 312,30 294,30 294,40 " style="fill:#15d833; stroke-width:1; stroke:black; " description="&lt;b&gt;ctg4_273&lt;/b&gt;&lt;br&gt;ctg4 273&lt;br&gt;Location: 330957 - 332205" locus_tag="ctg4_273" class="clusterblast-orf" id="dummy-1_q17_0_all"  />
<polygon points="317,40 325,40 330,35 325,30 317,30 317,40 " style="fill:#1551d8; stroke-width:1; stroke:black; " description="&lt;b&gt;ctg4_274&lt;/b&gt;&lt;br&gt;ctg4 274&lt;br&gt;Location: 332201 - 332927" locus_tag="ctg4_274" class="clusterblast-orf" id="dummy-1_q18_0_all"  />
<polygon points="330,40 337,40 342,35 337,30 330,30 330,40 " style="fill:#d815ab; stroke-width:1; stroke:black; " description="&lt;b&gt;ctg4_275&lt;/b&gt;&lt;br&gt;ctg4 275&lt;br&gt;Location: 332926 - 333547" locus_tag="ctg4_275" class="clusterblast-orf" id="dummy-1_q19_0_all"  />
<polygon points="342,40 359,40 364,35 359,30 342,30 342,40 " style="fill:#d8ab15; stroke-width:1; stroke:black; " description="&lt;b&gt;ctg4_276&lt;/b&gt;&lt;br&gt;ctg4 276&lt;br&gt;Location: 333543 - 334740" locus_tag="ctg4_276" class="clusterblast-orf" id="dummy-1_q20_0_all"  />
<polygon points="364,40 368,40 373,35 368,30 364,30 364,40 " style="fill:#15d851; stroke-width:1; stroke:black; " description="&lt;b&gt;ctg4_277&lt;/b&gt;&lt;br&gt;ctg4 277&lt;br&gt;Location: 334736 - 335195" locus_tag="ctg4_277" class="clusterblast-orf" id="dummy-1_q21_0_all"  />
<polygon points="373,40 381,40 386,35 381,30 373,30 373,40 " style="fill:#1533d8; stroke-width:1; stroke:black; " description="&lt;b&gt;ctg4_278&lt;/b&gt;&lt;br&gt;ctg4 278&lt;br&gt;Location: 335194 - 335923" locus_tag="ctg4_278" class="clusterblast-orf" id="dummy-1_q22_0_all"  />
<polygon points="386,40 404,40 409,35 404,30 386,30 386,40 " style="fill:#d8ab15; stroke-width:1; stroke:black; " description="&lt;b&gt;ctg4_279&lt;/b&gt;&lt;br&gt;ctg4 279&lt;br&gt;Location: 335922 - 337149" locus_tag="ctg4_279" class="clusterblast-orf" id="dummy-1_q23_0_all"  />
<polygon points="409,40 413,40 418,35 413,30 409,30 409,40 " style="fill:#d8158d; stroke-width:1; stroke:black; " description="&lt;b&gt;ctg4_280&lt;/b&gt;&lt;br&gt;ctg4 280&lt;br&gt;Location: 337178 - 337625" locus_tag="ctg4_280" class="clusterblast-orf" id="dummy-1_q24_0_all"  />
<polygon points="423,35 428,30 440,30 440,40 428,40 423,35 " style="fill:#d8c915; stroke-width:1; stroke:black; " description="&lt;b&gt;ctg4_281&lt;/b&gt;&lt;br&gt;ctg4 281&lt;br&gt;Location: 337929 - 338808" locus_tag="ctg4_281" class="clusterblast-orf" id="dummy-1_q25_0_all"  />
<polygon points="440,35 445,30 451,30 451,40 445,40 440,35 " style="fill:#15d86f; stroke-width:1; stroke:black; " description="&lt;b&gt;ctg4_282&lt;/b&gt;&lt;br&gt;ctg4 282&lt;br&gt;Location: 338800 - 339397" locus_tag="ctg4_282" class="clusterblast-orf" id="dummy-1_q26_0_all"  />
<polygon points="459,40 461,40 466,35 461,30 459,30 459,40 " style="fill:#1515d8; stroke-width:1; stroke:black; " description="&lt;b&gt;ctg4_283&lt;/b&gt;&lt;br&gt;ctg4 283&lt;br&gt;Location: 339852 - 340236" locus_tag="ctg4_283" class="clusterblast-orf" id="dummy-1_q27_0_all"  />
<polygon points="467,40 467,40 472,35 467,30 467,30 467,40 " style="fill:#d8156f; stroke-width:1; stroke:black; " description="&lt;b&gt;ctg4_284&lt;/b&gt;&lt;br&gt;ctg4 284&lt;br&gt;Location: 340273 - 340528" locus_tag="ctg4_284" class="clusterblast-orf" id="dummy-1_q28_0_all"  />
<polygon points="475,35 479,30 479,40 475,35 " style="fill:#c9d815; stroke-width:1; stroke:black; " description="&lt;b&gt;ctg4_285&lt;/b&gt;&lt;br&gt;ctg4 285&lt;br&gt;Location: 340717 - 340909" locus_tag="ctg4_285" class="clusterblast-orf" id="dummy-1_q29_0_all"  />
<polygon points="482,35 487,30 498,30 498,40 487,40 482,35 " style="fill:#15d88d; stroke-width:1; stroke:black; " description="&lt;b&gt;ctg4_286&lt;/b&gt;&lt;br&gt;ctg4 286&lt;br&gt;Location: 341059 - 341962" locus_tag="ctg4_286" class="clusterblast-orf" id="dummy-1_q30_0_all"  />
<polygon points="500,40 519,40 524,35 519,30 500,30 500,40 " style="fill:#3315d8; stroke-width:1; stroke:black; " description="&lt;b&gt;ctg4_287&lt;/b&gt;&lt;br&gt;ctg4 287&lt;br&gt;Location: 342035 - 343355" locus_tag="ctg4_287" class="clusterblast-orf" id="dummy-1_q31_0_all"  />
<polygon points="528,35 533,30 547,30 547,40 533,40 528,35 " style="fill:#d81551; stroke-width:1; stroke:black; " description="&lt;b&gt;ctg4_288&lt;/b&gt;&lt;br&gt;ctg4 288&lt;br&gt;Location: 343531 - 344599" locus_tag="ctg4_288" class="clusterblast-orf" id="dummy-1_q32_0_all"  />
<polygon points="552,35 557,30 578,30 578,40 557,40 552,35 " style="fill:#abd815; stroke-width:1; stroke:black; " description="&lt;b&gt;ctg4_289&lt;/b&gt;&lt;br&gt;ctg4 289&lt;br&gt;Location: 344851 - 346270" locus_tag="ctg4_289" class="clusterblast-orf" id="dummy-1_q33_0_all"  />
<polygon points="579,35 584,30 662,30 662,40 584,40 579,35 " style="fill:#15d8ab; stroke-width:1; stroke:black; " description="&lt;b&gt;ctg4_290&lt;/b&gt;&lt;br&gt;ctg4 290&lt;br&gt;Location: 346303 - 350749" locus_tag="ctg4_290" class="clusterblast-orf" id="dummy-1_q34_0_all"  />
<polygon points="668,35 673,30 698,30 698,40 673,40 668,35 " style="fill:#5115d8; stroke-width:1; stroke:black; " description="&lt;b&gt;ctg4_291&lt;/b&gt;&lt;br&gt;ctg4 291&lt;br&gt;Location: 351099 - 352689" locus_tag="ctg4_291" class="clusterblast-orf" id="dummy-1_q35_0_all"  />
<polygon points="698,35 703,30 718,30 718,40 703,40 698,35 " style="fill:#d81533; stroke-width:1; stroke:black; " description="&lt;b&gt;ctg4_292&lt;/b&gt;&lt;br&gt;ctg4 292&lt;br&gt;Location: 352699 - 353800" locus_tag="ctg4_292" class="clusterblast-orf" id="dummy-1_q36_0_all"  />
<polygon points="721,35 726,30 730,30 730,40 726,40 721,35 " style="fill:#8dd815; stroke-width:1; stroke:black; " description="&lt;b&gt;ctg4_293&lt;/b&gt;&lt;br&gt;ctg4 293&lt;br&gt;Location: 353951 - 354443" locus_tag="ctg4_293" class="clusterblast-orf" id="dummy-1_q37_0_all"  />
<polygon points="731,35 736,30 770,30 770,40 736,40 731,35 " style="fill:#15d8c9; stroke-width:1; stroke:black; " description="&lt;b&gt;ctg4_294&lt;/b&gt;&lt;br&gt;ctg4 294&lt;br&gt;Location: 354474 - 356562" locus_tag="ctg4_294" class="clusterblast-orf" id="dummy-1_q38_0_all"  />
<polygon points="770,35 775,30 780,30 780,40 775,40 770,35 " style="fill:#6f15d8; stroke-width:1; stroke:black; " description="&lt;b&gt;ctg4_295&lt;/b&gt;&lt;br&gt;ctg4 295&lt;br&gt;Location: 356575 - 357103" locus_tag="ctg4_295" class="clusterblast-orf" id="dummy-1_q39_0_all"  />
</g>
<g label="NZ_LT629762" description="NZ_LT629762_c1: Pseudomonas prosekii strain LMG 26867 genome assembly, chromo... (92% of genes show similarity), arylpolyene" class="clusterblast-cluster"  >
<text x="5" y="70" class="clusterblast-acc"  >
<a xlink:href="https://antismash-db.secondarymetabolites.org/go/NZ_LT629762/1" target="_blank">NZ_LT629762_c1</a>: Pseudomonas prosekii strain LMG 26867 genome assembly, chromo... (92% of genes show similarity), arylpolyene</text>
<line x1="10" y1="85" x2="778.0" y2="85" style="stroke-width:1; stroke:grey; "  />
</g>
<g id="a1_000"  >
<polygon points="12,90 35,90 40,85 35,80 12,80 12,90 " style="fill:#d81515; stroke-width:1; stroke:black; " description="&lt;b&gt;BLU01_RS10320&lt;/b&gt;&lt;br&gt;YdiU family protein&lt;br&gt;Location: 2273607 - 2275070&lt;br&gt;&lt;br&gt;&lt;b&gt;BlastP hit with ctg4_256&lt;/b&gt;&lt;br&gt;Percentage identity: 96&lt;br&gt;Percentage coverage: 100&lt;br&gt;BLAST bit score: 961&lt;br&gt;E-value: 3.4e-278" locus_tag="BLU01_RS10320" class="clusterblast-orf" id="dummy-1_h1_3_0"  />
</g>
<g id="a1_001"  >
<polygon points="40,85 45,80 47,80 47,90 45,90 40,85 " style="fill:white; stroke-width:1; stroke:black; " description="&lt;b&gt;BLU01_RS10325&lt;/b&gt;&lt;br&gt;transcriptional regulator&lt;br&gt;Location: 2275075 - 2275476" locus_tag="BLU01_RS10325" class="clusterblast-orf" id="dummy-1_h1_3_1"  />
</g>
<g id="a1_002"  >
<polygon points="47,85 52,80 53,80 53,90 52,90 47,85 " style="fill:white; stroke-width:1; stroke:black; " description="&lt;b&gt;BLU01_RS10330&lt;/b&gt;&lt;br&gt;type II toxin-antitoxin system HigB family toxin&lt;br&gt;Location: 2275473 - 2275769" locus_tag="BLU01_RS10330" class="clusterblast-orf" id="dummy-1_h1_3_2"  />
</g>
<g id="a1_003"  >
<polygon points="56,90 59,90 64,85 59,80 56,80 56,90 " style="fill:#15c9d8; stroke-width:1; stroke:black; " description="&lt;b&gt;BLU01_RS10335&lt;/b&gt;&lt;br&gt;thioredoxin TrxC&lt;br&gt;Location: 2275964 - 2276398&lt;br&gt;&lt;br&gt;&lt;b&gt;BlastP hit with ctg4_258&lt;/b&gt;&lt;br&gt;Percentage identity: 92&lt;br&gt;Percentage coverage: 100&lt;br&gt;BLAST bit score: 285&lt;br&gt;E-value: 2.4e-75" locus_tag="BLU01_RS10335" class="clusterblast-orf" id="dummy-1_h1_3_3"  />
</g>
<g id="a1_004"  >
<polygon points="67,85 72,80 81,80 81,90 72,90 67,85 " style="fill:#8d15d8; stroke-width:1; stroke:black; " description="&lt;b&gt;BLU01_RS10340&lt;/b&gt;&lt;br&gt;ParA family protein&lt;br&gt;Location: 2276529 - 2277299&lt;br&gt;&lt;br&gt;&lt;b&gt;BlastP hit with ctg4_259&lt;/b&gt;&lt;br&gt;Percentage identity: 98&lt;br&gt;Percentage coverage: 100&lt;br&gt;BLAST bit score: 495&lt;br&gt;E-value: 2.7e-138" locus_tag="BLU01_RS10340" class="clusterblast-orf" id="dummy-1_h1_3_4"  />
</g>
<g id="a1_005"  >
<polygon points="88,90 96,90 101,85 96,80 88,80 88,90 " style="fill:#d83315; stroke-width:1; stroke:black; " description="&lt;b&gt;BLU01_RS10345&lt;/b&gt;&lt;br&gt;3-oxoacyl-ACP synthase&lt;br&gt;Location: 2277657 - 2278382&lt;br&gt;&lt;br&gt;&lt;b&gt;BlastP hit with ctg4_260&lt;/b&gt;&lt;br&gt;Percentage identity: 93&lt;br&gt;Percentage coverage: 100&lt;br&gt;BLAST bit score: 468&lt;br&gt;E-value: 5.7e-130" locus_tag="BLU01_RS10345" class="clusterblast-orf" id="dummy-1_h1_3_5"  />
</g>
<g id="a1_006"  >
<polygon points="101,90 111,90 116,85 111,80 101,80 101,90 " style="fill:#51d815; stroke-width:1; stroke:black; " description="&lt;b&gt;BLU01_RS10350&lt;/b&gt;&lt;br&gt;1-acyl-sn-glycerol-3-phosphate acyltransferase&lt;br&gt;Location: 2278358 - 2279170&lt;br&gt;&lt;br&gt;&lt;b&gt;BlastP hit with ctg4_261&lt;/b&gt;&lt;br&gt;Percentage identity: 95&lt;br&gt;Percentage coverage: 100&lt;br&gt;BLAST bit score: 522&lt;br&gt;E-value: 3.8e-146" locus_tag="BLU01_RS10350" class="clusterblast-orf" id="dummy-1_h1_3_6"  />
</g>
<g id="a1_007"  >
<polygon points="115,90 115,90 120,85 115,80 115,80 115,90 " style="fill:#15abd8; stroke-width:1; stroke:black; " description="&lt;b&gt;BLU01_RS10355&lt;/b&gt;&lt;br&gt;acyl carrier protein&lt;br&gt;Location: 2279148 - 2279423&lt;br&gt;&lt;br&gt;&lt;b&gt;BlastP hit with ctg4_262&lt;/b&gt;&lt;br&gt;Percentage identity: 90&lt;br&gt;Percentage coverage: 106&lt;br&gt;BLAST bit score: 153&lt;br&gt;E-value: 8.6e-36" locus_tag="BLU01_RS10355" class="clusterblast-orf" id="dummy-1_h1_3_7"  />
</g>
<g id="a1_008"  >
<polygon points="121,90 125,85 121,80 121,90 " style="fill:#ab15d8; stroke-width:1; stroke:black; " description="&lt;b&gt;BLU01_RS10360&lt;/b&gt;&lt;br&gt;acyl carrier protein&lt;br&gt;Location: 2279433 - 2279687&lt;br&gt;&lt;br&gt;&lt;b&gt;BlastP hit with ctg4_263&lt;/b&gt;&lt;br&gt;Percentage identity: 95&lt;br&gt;Percentage coverage: 100&lt;br&gt;BLAST bit score: 155&lt;br&gt;E-value: 2.9e-36" locus_tag="BLU01_RS10360" class="clusterblast-orf" id="dummy-1_h1_3_8"  />
</g>
<g id="a1_009"  >
<polygon points="125,90 130,90 135,85 130,80 125,80 125,90 " style="fill:#d85115; stroke-width:1; stroke:black; " description="&lt;b&gt;BLU01_RS10365&lt;/b&gt;&lt;br&gt;hypothetical protein&lt;br&gt;Location: 2279684 - 2280229&lt;br&gt;&lt;br&gt;&lt;b&gt;BlastP hit with ctg4_264&lt;/b&gt;&lt;br&gt;Percentage identity: 96&lt;br&gt;Percentage coverage: 100&lt;br&gt;BLAST bit score: 350&lt;br&gt;E-value: 1e-94" locus_tag="BLU01_RS10365" class="clusterblast-orf" id="dummy-1_h1_3_9"  />
</g>
<g id="a1_0010"  >
<polygon points="135,90 162,90 167,85 162,80 135,80 135,90 " style="fill:#33d815; stroke-width:1; stroke:black; " description="&lt;b&gt;BLU01_RS10370&lt;/b&gt;&lt;br&gt;AMP-binding protein&lt;br&gt;Location: 2280226 - 2281905&lt;br&gt;&lt;br&gt;&lt;b&gt;BlastP hit with ctg4_265&lt;/b&gt;&lt;br&gt;Percentage identity: 92&lt;br&gt;Percentage coverage: 100&lt;br&gt;BLAST bit score: 1035&lt;br&gt;E-value: 1.6e-300" locus_tag="BLU01_RS10370" class="clusterblast-orf" id="dummy-1_h1_3_10"  />
</g>
<g id="a1_0011"  >
<polygon points="170,90 178,90 183,85 178,80 170,80 170,90 " style="fill:#158dd8; stroke-width:1; stroke:black; " description="&lt;b&gt;BLU01_RS10375&lt;/b&gt;&lt;br&gt;glycosyltransferase family 2 protein&lt;br&gt;Location: 2282070 - 2282804&lt;br&gt;&lt;br&gt;&lt;b&gt;BlastP hit with ctg4_266&lt;/b&gt;&lt;br&gt;Percentage identity: 91&lt;br&gt;Percentage coverage: 91&lt;br&gt;BLAST bit score: 460&lt;br&gt;E-value: 1.8e-127" locus_tag="BLU01_RS10375" class="clusterblast-orf" id="dummy-1_h1_3_11"  />
</g>
<g id="a1_0012"  >
<polygon points="183,90 196,90 201,85 196,80 183,80 183,90 " style="fill:#c915d8; stroke-width:1; stroke:black; " description="&lt;b&gt;BLU01_RS10380&lt;/b&gt;&lt;br&gt;glycosyl transferase&lt;br&gt;Location: 2282801 - 2283748&lt;br&gt;&lt;br&gt;&lt;b&gt;BlastP hit with ctg4_267&lt;/b&gt;&lt;br&gt;Percentage identity: 91&lt;br&gt;Percentage coverage: 100&lt;br&gt;BLAST bit score: 618&lt;br&gt;E-value: 5.9e-175" locus_tag="BLU01_RS10380" class="clusterblast-orf" id="dummy-1_h1_3_12"  />
</g>
<g id="a1_0013"  >
<polygon points="200,90 224,90 229,85 224,80 200,80 200,90 " style="fill:#d86f15; stroke-width:1; stroke:black; " description="&lt;b&gt;BLU01_RS10385&lt;/b&gt;&lt;br&gt;aromatic amino acid lyase&lt;br&gt;Location: 2283729 - 2285273&lt;br&gt;&lt;br&gt;&lt;b&gt;BlastP hit with ctg4_268&lt;/b&gt;&lt;br&gt;Percentage identity: 97&lt;br&gt;Percentage coverage: 100&lt;br&gt;BLAST bit score: 992&lt;br&gt;E-value: 1.4e-287" locus_tag="BLU01_RS10385" class="clusterblast-orf" id="dummy-1_h1_3_13"  />
</g>
<g id="a1_0014"  >
<polygon points="229,90 232,90 237,85 232,80 229,80 229,90 " style="fill:#15d815; stroke-width:1; stroke:black; " description="&lt;b&gt;BLU01_RS10390&lt;/b&gt;&lt;br&gt;acyl-CoA thioesterase&lt;br&gt;Location: 2285266 - 2285691&lt;br&gt;&lt;br&gt;&lt;b&gt;BlastP hit with ctg4_269&lt;/b&gt;&lt;br&gt;Percentage identity: 94&lt;br&gt;Percentage coverage: 100&lt;br&gt;BLAST bit score: 274&lt;br&gt;E-value: 7.1e-72" locus_tag="BLU01_RS10390" class="clusterblast-orf" id="dummy-1_h1_3_14"  />
</g>
<g id="a1_0015"  >
<polygon points="240,90 246,90 251,85 246,80 240,80 240,90 " style="fill:#156fd8; stroke-width:1; stroke:black; " description="&lt;b&gt;BLU01_RS10395&lt;/b&gt;&lt;br&gt;outer membrane lipoprotein carrier protein LolA&lt;br&gt;Location: 2285862 - 2286428&lt;br&gt;&lt;br&gt;&lt;b&gt;BlastP hit with ctg4_270&lt;/b&gt;&lt;br&gt;Percentage identity: 95&lt;br&gt;Percentage coverage: 77&lt;br&gt;BLAST bit score: 358&lt;br&gt;E-value: 8.5e-97" locus_tag="BLU01_RS10395" class="clusterblast-orf" id="dummy-1_h1_3_15"  />
</g>
<g id="a1_0016"  >
<polygon points="250,90 289,90 294,85 289,80 250,80 250,90 " style="fill:#d815c9; stroke-width:1; stroke:black; " description="&lt;b&gt;BLU01_RS10400&lt;/b&gt;&lt;br&gt;hypothetical protein&lt;br&gt;Location: 2286412 - 2288766&lt;br&gt;&lt;br&gt;&lt;b&gt;BlastP hit with ctg4_271&lt;/b&gt;&lt;br&gt;Percentage identity: 93&lt;br&gt;Percentage coverage: 100&lt;br&gt;BLAST bit score: 1379&lt;br&gt;E-value: 0.0" locus_tag="BLU01_RS10400" class="clusterblast-orf" id="dummy-1_h1_3_16"  />
</g>
<g id="a1_0017"  >
<polygon points="294,90 311,90 316,85 311,80 294,80 294,90 " style="fill:#d88d15; stroke-width:1; stroke:black; " description="&lt;b&gt;BLU01_RS10405&lt;/b&gt;&lt;br&gt;sodium:proton antiporter&lt;br&gt;Location: 2288766 - 2289923&lt;br&gt;&lt;br&gt;&lt;b&gt;BlastP hit with ctg4_272&lt;/b&gt;&lt;br&gt;Percentage identity: 93&lt;br&gt;Percentage coverage: 99&lt;br&gt;BLAST bit score: 681&lt;br&gt;E-value: 4.1e-194" locus_tag="BLU01_RS10405" class="clusterblast-orf" id="dummy-1_h1_3_17"  />
</g>
<g id="a1_0018"  >
<polygon points="315,90 333,90 338,85 333,80 315,80 315,90 " style="fill:#15d833; stroke-width:1; stroke:black; " description="&lt;b&gt;BLU01_RS10410&lt;/b&gt;&lt;br&gt;NAD(P)/FAD-dependent oxidoreductase&lt;br&gt;Location: 2289910 - 2291157&lt;br&gt;&lt;br&gt;&lt;b&gt;BlastP hit with ctg4_273&lt;/b&gt;&lt;br&gt;Percentage identity: 95&lt;br&gt;Percentage coverage: 100&lt;br&gt;BLAST bit score: 818&lt;br&gt;E-value: 3.9e-235" locus_tag="BLU01_RS10410" class="clusterblast-orf" id="dummy-1_h1_3_18"  />
</g>
<g id="a1_0019"  >
<polygon points="338,90 347,90 352,85 347,80 338,80 338,90 " style="fill:#1551d8; stroke-width:1; stroke:black; " description="&lt;b&gt;BLU01_RS10415&lt;/b&gt;&lt;br&gt;class I SAM-dependent methyltransferase&lt;br&gt;Location: 2291154 - 2291879&lt;br&gt;&lt;br&gt;&lt;b&gt;BlastP hit with ctg4_274&lt;/b&gt;&lt;br&gt;Percentage identity: 95&lt;br&gt;Percentage coverage: 100&lt;br&gt;BLAST bit score: 482&lt;br&gt;E-value: 3.9e-134" locus_tag="BLU01_RS10415" class="clusterblast-orf" id="dummy-1_h1_3_19"  />
</g>
<g id="a1_0020"  >
<polygon points="352,90 358,90 363,85 358,80 352,80 352,90 " style="fill:#d815ab; stroke-width:1; stroke:black; " description="&lt;b&gt;BLU01_RS10420&lt;/b&gt;&lt;br&gt;hypothetical protein&lt;br&gt;Location: 2291879 - 2292496&lt;br&gt;&lt;br&gt;&lt;b&gt;BlastP hit with ctg4_275&lt;/b&gt;&lt;br&gt;Percentage identity: 77&lt;br&gt;Percentage coverage: 97&lt;br&gt;BLAST bit score: 310&lt;br&gt;E-value: 1.3e-82" locus_tag="BLU01_RS10420" class="clusterblast-orf" id="dummy-1_h1_3_20"  />
</g>
<g id="a1_0021"  >
<polygon points="363,90 381,90 386,85 381,80 363,80 363,90 " style="fill:#d8ab15; stroke-width:1; stroke:black; " description="&lt;b&gt;BLU01_RS10425&lt;/b&gt;&lt;br&gt;beta-ketoacyl-[acyl-carrier-protein] synthase II&lt;br&gt;Location: 2292493 - 2293689&lt;br&gt;&lt;br&gt;&lt;b&gt;BlastP hit with ctg4_276&lt;/b&gt;&lt;br&gt;Percentage identity: 92&lt;br&gt;Percentage coverage: 100&lt;br&gt;BLAST bit score: 729&lt;br&gt;E-value: 2.3e-208&lt;br&gt;&lt;br&gt;&lt;b&gt;BlastP hit with ctg4_279&lt;/b&gt;&lt;br&gt;Percentage identity: 32&lt;br&gt;Percentage coverage: 99&lt;br&gt;BLAST bit score: 145&lt;br&gt;E-value: 1.1e-32" locus_tag="BLU01_RS10425" class="clusterblast-orf" id="dummy-1_h1_3_21"  />
</g>
<g id="a1_0022"  >
<polygon points="385,90 389,90 394,85 389,80 385,80 385,90 " style="fill:#15d851; stroke-width:1; stroke:black; " description="&lt;b&gt;BLU01_RS10430&lt;/b&gt;&lt;br&gt;3-hydroxylacyl-ACP dehydratase&lt;br&gt;Location: 2293686 - 2294144&lt;br&gt;&lt;br&gt;&lt;b&gt;BlastP hit with ctg4_277&lt;/b&gt;&lt;br&gt;Percentage identity: 97&lt;br&gt;Percentage coverage: 100&lt;br&gt;BLAST bit score: 311&lt;br&gt;E-value: 5.7e-83" locus_tag="BLU01_RS10430" class="clusterblast-orf" id="dummy-1_h1_3_22"  />
</g>
<g id="a1_0023"  >
<polygon points="394,90 402,90 407,85 402,80 394,80 394,90 " style="fill:#1533d8; stroke-width:1; stroke:black; " description="&lt;b&gt;BLU01_RS10435&lt;/b&gt;&lt;br&gt;3-oxoacyl-ACP reductase FabG&lt;br&gt;Location: 2294144 - 2294872&lt;br&gt;&lt;br&gt;&lt;b&gt;BlastP hit with ctg4_278&lt;/b&gt;&lt;br&gt;Percentage identity: 97&lt;br&gt;Percentage coverage: 100&lt;br&gt;BLAST bit score: 456&lt;br&gt;E-value: 2.3e-126" locus_tag="BLU01_RS10435" class="clusterblast-orf" id="dummy-1_h1_3_23"  />
</g>
<g id="a1_0024"  >
<polygon points="407,90 425,90 430,85 425,80 407,80 407,90 " style="fill:#d8ab15; stroke-width:1; stroke:black; " description="&lt;b&gt;BLU01_RS10440&lt;/b&gt;&lt;br&gt;beta-ketoacyl-ACP synthase II&lt;br&gt;Location: 2294872 - 2296098&lt;br&gt;&lt;br&gt;&lt;b&gt;BlastP hit with ctg4_276&lt;/b&gt;&lt;br&gt;Percentage identity: 33&lt;br&gt;Percentage coverage: 102&lt;br&gt;BLAST bit score: 143&lt;br&gt;E-value: 5.4e-32&lt;br&gt;&lt;br&gt;&lt;b&gt;BlastP hit with ctg4_279&lt;/b&gt;&lt;br&gt;Percentage identity: 99&lt;br&gt;Percentage coverage: 100&lt;br&gt;BLAST bit score: 817&lt;br&gt;E-value: 8.6e-235" locus_tag="BLU01_RS10440" class="clusterblast-orf" id="dummy-1_h1_3_24"  />
</g>
<g id="a1_0025"  >
<polygon points="431,90 434,90 439,85 434,80 431,80 431,90 " style="fill:#d8158d; stroke-width:1; stroke:black; " description="&lt;b&gt;BLU01_RS10445&lt;/b&gt;&lt;br&gt;excinuclease&lt;br&gt;Location: 2296127 - 2296573&lt;br&gt;&lt;br&gt;&lt;b&gt;BlastP hit with ctg4_280&lt;/b&gt;&lt;br&gt;Percentage identity: 92&lt;br&gt;Percentage coverage: 100&lt;br&gt;BLAST bit score: 265&lt;br&gt;E-value: 4.5e-69" locus_tag="BLU01_RS10445" class="clusterblast-orf" id="dummy-1_h1_3_25"  />
</g>
<g id="a1_0026"  >
<polygon points="442,85 447,80 459,80 459,90 447,90 442,85 " style="fill:#d8c915; stroke-width:1; stroke:black; " description="&lt;b&gt;BLU01_RS10450&lt;/b&gt;&lt;br&gt;hypothetical protein&lt;br&gt;Location: 2296732 - 2297625&lt;br&gt;&lt;br&gt;&lt;b&gt;BlastP hit with ctg4_281&lt;/b&gt;&lt;br&gt;Percentage identity: 75&lt;br&gt;Percentage coverage: 98&lt;br&gt;BLAST bit score: 414&lt;br&gt;E-value: 1.2e-113" locus_tag="BLU01_RS10450" class="clusterblast-orf" id="dummy-1_h1_3_26"  />
</g>
<g id="a1_0027"  >
<polygon points="459,85 464,80 470,80 470,90 464,90 459,85 " style="fill:#15d86f; stroke-width:1; stroke:black; " description="&lt;b&gt;BLU01_RS10455&lt;/b&gt;&lt;br&gt;XRE family transcriptional regulator&lt;br&gt;Location: 2297618 - 2298214&lt;br&gt;&lt;br&gt;&lt;b&gt;BlastP hit with ctg4_282&lt;/b&gt;&lt;br&gt;Percentage identity: 81&lt;br&gt;Percentage coverage: 100&lt;br&gt;BLAST bit score: 317&lt;br&gt;E-value: 7.9e-85" locus_tag="BLU01_RS10455" class="clusterblast-orf" id="dummy-1_h1_3_27"  />
</g>
<g id="a1_0028"  >
<polygon points="477,90 479,90 484,85 479,80 477,80 477,90 " style="fill:#1515d8; stroke-width:1; stroke:black; " description="&lt;b&gt;BLU01_RS10460&lt;/b&gt;&lt;br&gt;hypothetical protein&lt;br&gt;Location: 2298636 - 2299013&lt;br&gt;&lt;br&gt;&lt;b&gt;BlastP hit with ctg4_283&lt;/b&gt;&lt;br&gt;Percentage identity: 54&lt;br&gt;Percentage coverage: 100&lt;br&gt;BLAST bit score: 113&lt;br&gt;E-value: 1.9e-23" locus_tag="BLU01_RS10460" class="clusterblast-orf" id="dummy-1_h1_3_28"  />
</g>
<g id="a1_0029"  >
<polygon points="485,90 485,90 490,85 485,80 485,80 485,90 " style="fill:#d8156f; stroke-width:1; stroke:black; " description="&lt;b&gt;BLU01_RS10465&lt;/b&gt;&lt;br&gt;hypothetical protein&lt;br&gt;Location: 2299049 - 2299303&lt;br&gt;&lt;br&gt;&lt;b&gt;BlastP hit with ctg4_284&lt;/b&gt;&lt;br&gt;Percentage identity: 83&lt;br&gt;Percentage coverage: 100&lt;br&gt;BLAST bit score: 146&lt;br&gt;E-value: 1e-33" locus_tag="BLU01_RS10465" class="clusterblast-orf" id="dummy-1_h1_3_29"  />
</g>
<g id="a1_0030"  >
<polygon points="507,90 510,90 515,85 510,80 507,80 507,90 " style="fill:#d8158d; stroke-width:1; stroke:black; " description="&lt;b&gt;BLU01_RS10470&lt;/b&gt;&lt;br&gt;excinuclease&lt;br&gt;Location: 2300224 - 2300670&lt;br&gt;&lt;br&gt;&lt;b&gt;BlastP hit with ctg4_280&lt;/b&gt;&lt;br&gt;Percentage identity: 48&lt;br&gt;Percentage coverage: 95&lt;br&gt;BLAST bit score: 127&lt;br&gt;E-value: 1.5e-27" locus_tag="BLU01_RS10470" class="clusterblast-orf" id="dummy-1_h1_3_30"  />
</g>
<g id="a1_0031"  >
<polygon points="517,85 522,80 534,80 534,90 522,90 517,85 " style="fill:#15d88d; stroke-width:1; stroke:black; " description="&lt;b&gt;BLU01_RS10475&lt;/b&gt;&lt;br&gt;LysR family transcriptional regulator&lt;br&gt;Location: 2300779 - 2301681&lt;br&gt;&lt;br&gt;&lt;b&gt;BlastP hit with ctg4_286&lt;/b&gt;&lt;br&gt;Percentage identity: 99&lt;br&gt;Percentage coverage: 99&lt;br&gt;BLAST bit score: 557&lt;br&gt;E-value: 9e-157" locus_tag="BLU01_RS10475" class="clusterblast-orf" id="dummy-1_h1_3_31"  />
</g>
<g id="a1_0032"  >
<polygon points="536,90 555,90 560,85 555,80 536,80 536,90 " style="fill:#3315d8; stroke-width:1; stroke:black; " description="&lt;b&gt;BLU01_RS10480&lt;/b&gt;&lt;br&gt;MFS transporter&lt;br&gt;Location: 2301800 - 2303074&lt;br&gt;&lt;br&gt;&lt;b&gt;BlastP hit with ctg4_287&lt;/b&gt;&lt;br&gt;Percentage identity: 97&lt;br&gt;Percentage coverage: 97&lt;br&gt;BLAST bit score: 776&lt;br&gt;E-value: 1.4e-222" locus_tag="BLU01_RS10480" class="clusterblast-orf" id="dummy-1_h1_3_32"  />
</g>
<g id="a1_0033"  >
<polygon points="563,85 568,80 582,80 582,90 568,90 563,85 " style="fill:#d81551; stroke-width:1; stroke:black; " description="&lt;b&gt;BLU01_RS10485&lt;/b&gt;&lt;br&gt;uroporphyrinogen decarboxylase&lt;br&gt;Location: 2303217 - 2304284&lt;br&gt;&lt;br&gt;&lt;b&gt;BlastP hit with ctg4_288&lt;/b&gt;&lt;br&gt;Percentage identity: 98&lt;br&gt;Percentage coverage: 100&lt;br&gt;BLAST bit score: 715&lt;br&gt;E-value: 2.3e-204" locus_tag="BLU01_RS10485" class="clusterblast-orf" id="dummy-1_h1_3_33"  />
</g>
<g id="a1_0034"  >
<polygon points="587,85 592,80 613,80 613,90 592,90 587,85 " style="fill:#abd815; stroke-width:1; stroke:black; " description="&lt;b&gt;BLU01_RS10490&lt;/b&gt;&lt;br&gt;glutamate synthase small subunit&lt;br&gt;Location: 2304537 - 2305955&lt;br&gt;&lt;br&gt;&lt;b&gt;BlastP hit with ctg4_289&lt;/b&gt;&lt;br&gt;Percentage identity: 99&lt;br&gt;Percentage coverage: 100&lt;br&gt;BLAST bit score: 965&lt;br&gt;E-value: 1.7e-279" locus_tag="BLU01_RS10490" class="clusterblast-orf" id="dummy-1_h1_3_34"  />
</g>
<g id="a1_0035"  >
<polygon points="614,85 619,80 697,80 697,90 619,90 614,85 " style="fill:#15d8ab; stroke-width:1; stroke:black; " description="&lt;b&gt;BLU01_RS10495&lt;/b&gt;&lt;br&gt;glutamate synthase large subunit&lt;br&gt;Location: 2305989 - 2310434&lt;br&gt;&lt;br&gt;&lt;b&gt;BlastP hit with ctg4_290&lt;/b&gt;&lt;br&gt;Percentage identity: 99&lt;br&gt;Percentage coverage: 100&lt;br&gt;BLAST bit score: 2822&lt;br&gt;E-value: 0.0" locus_tag="BLU01_RS10495" class="clusterblast-orf" id="dummy-1_h1_3_35"  />
</g>
<g id="a1_0036"  >
<polygon points="695,90 696,90 701,85 696,80 695,80 695,90 " style="fill:white; stroke-width:1; stroke:black; " description="&lt;b&gt;BLU01_RS10500&lt;/b&gt;&lt;br&gt;hypothetical protein&lt;br&gt;Location: 2310348 - 2310687" locus_tag="BLU01_RS10500" class="clusterblast-orf" id="dummy-1_h1_3_36"  />
</g>
<g id="a1_0037"  >
<polygon points="703,85 708,80 733,80 733,90 708,90 703,85 " style="fill:#5115d8; stroke-width:1; stroke:black; " description="&lt;b&gt;BLU01_RS10505&lt;/b&gt;&lt;br&gt;cell division protein&lt;br&gt;Location: 2310785 - 2312386&lt;br&gt;&lt;br&gt;&lt;b&gt;BlastP hit with ctg4_291&lt;/b&gt;&lt;br&gt;Percentage identity: 92&lt;br&gt;Percentage coverage: 101&lt;br&gt;BLAST bit score: 813&lt;br&gt;E-value: 1.6e-233" locus_tag="BLU01_RS10505" class="clusterblast-orf" id="dummy-1_h1_3_37"  />
</g>
<g id="a1_0038"  >
<polygon points="733,85 738,80 754,80 754,90 738,90 733,85 " style="fill:#d81533; stroke-width:1; stroke:black; " description="&lt;b&gt;BLU01_RS10510&lt;/b&gt;&lt;br&gt;3-dehydroquinate synthase&lt;br&gt;Location: 2312397 - 2313497&lt;br&gt;&lt;br&gt;&lt;b&gt;BlastP hit with ctg4_292&lt;/b&gt;&lt;br&gt;Percentage identity: 97&lt;br&gt;Percentage coverage: 100&lt;br&gt;BLAST bit score: 714&lt;br&gt;E-value: 5.4e-204" locus_tag="BLU01_RS10510" class="clusterblast-orf" id="dummy-1_h1_3_38"  />
</g>
<g id="a1_0039"  >
<polygon points="757,85 762,80 767,80 767,90 762,90 757,85 " style="fill:#8dd815; stroke-width:1; stroke:black; " description="&lt;b&gt;BLU01_RS10515&lt;/b&gt;&lt;br&gt;shikimate kinase AroK&lt;br&gt;Location: 2313681 - 2314199&lt;br&gt;&lt;br&gt;&lt;b&gt;BlastP hit with ctg4_293&lt;/b&gt;&lt;br&gt;Percentage identity: 98&lt;br&gt;Percentage coverage: 100&lt;br&gt;BLAST bit score: 318&lt;br&gt;E-value: 5e-85" locus_tag="BLU01_RS10515" class="clusterblast-orf" id="dummy-1_h1_3_39"  />
</g>
</svg>
