<svg xmlns="http://www.w3.org/2000/svg" xmlns:xlink="http://www.w3.org/1999/xlink" version="1.1" x="0" y="0" height="230" width="800" viewBox="0 0 800 230" preserveAspectRatio="none"  >
<g label="Query sequence" class="clusterblast-cluster"  >
<text x="5" y="20" class="clusterblast-acc"  >
Query sequence</text>
<line x1="10" y1="35" x2="778.0" y2="35" style="stroke-width:1; stroke:grey; "  />
<polygon points="169,35 172,30 172,40 169,35 " style="fill:#d81515; stroke-width:1; stroke:black; " description="&lt;b&gt;ctg6_147&lt;/b&gt;&lt;br&gt;ctg6 147&lt;br&gt;Location: 179074 - 179695" locus_tag="ctg6_147" class="clusterblast-orf" id="dummy-1_q0_0_all"  />
<polygon points="174,35 179,30 190,30 190,40 179,40 174,35 " style="fill:#6dd815; stroke-width:1; stroke:black; " description="&lt;b&gt;ctg6_148&lt;/b&gt;&lt;br&gt;ctg6 148&lt;br&gt;Location: 180036 - 182742" locus_tag="ctg6_148" class="clusterblast-orf" id="dummy-1_q1_0_all"  />
<polygon points="193,35 198,30 201,30 201,40 198,40 193,35 " style="fill:#15c5d8; stroke-width:1; stroke:black; " description="&lt;b&gt;ctg6_149&lt;/b&gt;&lt;br&gt;ctg6 149&lt;br&gt;Location: 183246 - 184584" locus_tag="ctg6_149" class="clusterblast-orf" id="dummy-1_q2_0_all"  />
<polygon points="202,35 205,30 205,40 202,35 " style="fill:#9315d8; stroke-width:1; stroke:black; " description="&lt;b&gt;ctg6_150&lt;/b&gt;&lt;br&gt;ctg6 150&lt;br&gt;Location: 184716 - 185199" locus_tag="ctg6_150" class="clusterblast-orf" id="dummy-1_q3_0_all"  />
<polygon points="206,40 208,40 213,35 208,30 206,30 206,40 " style="fill:#d83b15; stroke-width:1; stroke:black; " description="&lt;b&gt;ctg6_151&lt;/b&gt;&lt;br&gt;ctg6 151&lt;br&gt;Location: 185519 - 186692" locus_tag="ctg6_151" class="clusterblast-orf" id="dummy-1_q4_0_all"  />
<polygon points="213,40 220,40 225,35 220,30 213,30 213,40 " style="fill:#48d815; stroke-width:1; stroke:black; " description="&lt;b&gt;ctg6_152&lt;/b&gt;&lt;br&gt;ctg6 152&lt;br&gt;Location: 186692 - 188666" locus_tag="ctg6_152" class="clusterblast-orf" id="dummy-1_q5_0_all"  />
<polygon points="225,40 228,40 233,35 228,30 225,30 225,40 " style="fill:#15a0d8; stroke-width:1; stroke:black; " description="&lt;b&gt;ctg6_153&lt;/b&gt;&lt;br&gt;ctg6 153&lt;br&gt;Location: 188673 - 190068" locus_tag="ctg6_153" class="clusterblast-orf" id="dummy-1_q6_0_all"  />
<polygon points="235,35 240,30 245,30 245,40 240,40 235,35 " style="fill:#b915d8; stroke-width:1; stroke:black; " description="&lt;b&gt;ctg6_154&lt;/b&gt;&lt;br&gt;ctg6 154&lt;br&gt;Location: 190471 - 192100" locus_tag="ctg6_154" class="clusterblast-orf" id="dummy-1_q7_0_all"  />
<polygon points="246,40 249,40 254,35 249,30 246,30 246,40 " style="fill:#d86115; stroke-width:1; stroke:black; " description="&lt;b&gt;ctg6_155&lt;/b&gt;&lt;br&gt;ctg6 155&lt;br&gt;Location: 192332 - 193703" locus_tag="ctg6_155" class="clusterblast-orf" id="dummy-1_q8_0_all"  />
<polygon points="254,40 257,40 262,35 257,30 254,30 254,40 " style="fill:#22d815; stroke-width:1; stroke:black; " description="&lt;b&gt;ctg6_156&lt;/b&gt;&lt;br&gt;ctg6 156&lt;br&gt;Location: 193699 - 194983" locus_tag="ctg6_156" class="clusterblast-orf" id="dummy-1_q9_0_all"  />
<polygon points="263,40 263,40 268,35 263,30 263,30 263,40 " style="fill:#157ad8; stroke-width:1; stroke:black; " description="&lt;b&gt;ctg6_157&lt;/b&gt;&lt;br&gt;ctg6 157&lt;br&gt;Location: 195221 - 196109" locus_tag="ctg6_157" class="clusterblast-orf" id="dummy-1_q10_0_all"  />
<polygon points="269,40 274,40 279,35 274,30 269,30 269,40 " style="fill:#d815d2; stroke-width:1; stroke:black; " description="&lt;b&gt;ctg6_158&lt;/b&gt;&lt;br&gt;ctg6 158&lt;br&gt;Location: 196239 - 197898" locus_tag="ctg6_158" class="clusterblast-orf" id="dummy-1_q11_0_all"  />
<polygon points="279,40 299,40 304,35 299,30 279,30 279,40 " style="fill:#d88615; stroke-width:1; stroke:black; " description="&lt;b&gt;ctg6_159&lt;/b&gt;&lt;br&gt;ctg6 159&lt;br&gt;Location: 197962 - 202165" locus_tag="ctg6_159" class="clusterblast-orf" id="dummy-1_q12_0_all"  />
<polygon points="306,35 308,30 308,40 306,35 " style="fill:#15d82e; stroke-width:1; stroke:black; " description="&lt;b&gt;ctg6_160&lt;/b&gt;&lt;br&gt;ctg6 160&lt;br&gt;Location: 202628 - 202997" locus_tag="ctg6_160" class="clusterblast-orf" id="dummy-1_q13_0_all"  />
<polygon points="313,35 318,30 327,30 327,40 318,40 313,35 " style="fill:#1554d8; stroke-width:1; stroke:black; " description="&lt;b&gt;ctg6_161&lt;/b&gt;&lt;br&gt;ctg6 161&lt;br&gt;Location: 203761 - 206242" locus_tag="ctg6_161" class="clusterblast-orf" id="dummy-1_q14_0_all"  />
<polygon points="331,35 336,30 350,30 350,40 336,40 331,35 " style="fill:#d88615; stroke-width:1; stroke:black; " description="&lt;b&gt;ctg6_162&lt;/b&gt;&lt;br&gt;ctg6 162&lt;br&gt;Location: 206833 - 210055" locus_tag="ctg6_162" class="clusterblast-orf" id="dummy-1_q15_0_all"  />
<polygon points="350,35 355,30 429,30 429,40 355,40 350,35 " style="fill:#d88615; stroke-width:1; stroke:black; " description="&lt;b&gt;ctg6_163&lt;/b&gt;&lt;br&gt;ctg6 163&lt;br&gt;Location: 210051 - 223575" locus_tag="ctg6_163" class="clusterblast-orf" id="dummy-1_q16_0_all"  />
<polygon points="429,35 434,30 501,30 501,40 434,40 429,35 " style="fill:#d88615; stroke-width:1; stroke:black; " description="&lt;b&gt;ctg6_164&lt;/b&gt;&lt;br&gt;ctg6 164&lt;br&gt;Location: 223592 - 235946" locus_tag="ctg6_164" class="clusterblast-orf" id="dummy-1_q17_0_all"  />
<polygon points="502,35 507,30 507,30 507,40 507,40 502,35 " style="fill:#d815ac; stroke-width:1; stroke:black; " description="&lt;b&gt;ctg6_165&lt;/b&gt;&lt;br&gt;ctg6 165&lt;br&gt;Location: 236194 - 236929" locus_tag="ctg6_165" class="clusterblast-orf" id="dummy-1_q18_0_all"  />
<polygon points="507,40 509,40 514,35 509,30 507,30 507,40 " style="fill:#d8ac15; stroke-width:1; stroke:black; " description="&lt;b&gt;ctg6_166&lt;/b&gt;&lt;br&gt;ctg6 166&lt;br&gt;Location: 237061 - 238195" locus_tag="ctg6_166" class="clusterblast-orf" id="dummy-1_q19_0_all"  />
<polygon points="515,35 520,30 521,30 521,40 520,40 515,35 " style="fill:#15d854; stroke-width:1; stroke:black; " description="&lt;b&gt;ctg6_167&lt;/b&gt;&lt;br&gt;ctg6 167&lt;br&gt;Location: 238308 - 239481" locus_tag="ctg6_167" class="clusterblast-orf" id="dummy-1_q20_0_all"  />
<polygon points="523,40 527,35 523,30 523,40 " style="fill:#152ed8; stroke-width:1; stroke:black; " description="&lt;b&gt;ctg6_168&lt;/b&gt;&lt;br&gt;ctg6 168&lt;br&gt;Location: 239709 - 240510" locus_tag="ctg6_168" class="clusterblast-orf" id="dummy-1_q21_0_all"  />
<polygon points="527,40 533,40 538,35 533,30 527,30 527,40 " style="fill:#d81586; stroke-width:1; stroke:black; " description="&lt;b&gt;ctg6_169&lt;/b&gt;&lt;br&gt;ctg6 169&lt;br&gt;Location: 240502 - 242329" locus_tag="ctg6_169" class="clusterblast-orf" id="dummy-1_q22_0_all"  />
<polygon points="541,40 544,35 541,30 541,40 " style="fill:#d8d215; stroke-width:1; stroke:black; " description="&lt;b&gt;ctg6_170&lt;/b&gt;&lt;br&gt;ctg6 170&lt;br&gt;Location: 242874 - 243264" locus_tag="ctg6_170" class="clusterblast-orf" id="dummy-1_q23_0_all"  />
<polygon points="544,40 547,40 552,35 547,30 544,30 544,40 " style="fill:white; stroke-width:1; stroke:black; " description="&lt;b&gt;ctg6_171&lt;/b&gt;&lt;br&gt;ctg6 171&lt;br&gt;Location: 243399 - 244644" locus_tag="ctg6_171" class="clusterblast-orf" id="dummy-1_q24_0_all"  />
<polygon points="552,40 553,40 558,35 553,30 552,30 552,40 " style="fill:#15d87a; stroke-width:1; stroke:black; " description="&lt;b&gt;ctg6_172&lt;/b&gt;&lt;br&gt;ctg6 172&lt;br&gt;Location: 244758 - 245664" locus_tag="ctg6_172" class="clusterblast-orf" id="dummy-1_q25_0_all"  />
<polygon points="557,35 562,30 563,30 563,40 562,40 557,35 " style="fill:#2215d8; stroke-width:1; stroke:black; " description="&lt;b&gt;ctg6_173&lt;/b&gt;&lt;br&gt;ctg6 173&lt;br&gt;Location: 245617 - 246616" locus_tag="ctg6_173" class="clusterblast-orf" id="dummy-1_q26_0_all"  />
<polygon points="564,40 568,35 564,30 564,40 " style="fill:#2215d8; stroke-width:1; stroke:black; " description="&lt;b&gt;ctg6_174&lt;/b&gt;&lt;br&gt;ctg6 174&lt;br&gt;Location: 246708 - 247395" locus_tag="ctg6_174" class="clusterblast-orf" id="dummy-1_q27_0_all"  />
<polygon points="568,35 572,30 572,40 568,35 " style="fill:white; stroke-width:1; stroke:black; " description="&lt;b&gt;ctg6_175&lt;/b&gt;&lt;br&gt;ctg6 175&lt;br&gt;Location: 247489 - 248107" locus_tag="ctg6_175" class="clusterblast-orf" id="dummy-1_q28_0_all"  />
<polygon points="574,35 579,30 579,30 579,40 579,40 574,35 " style="fill:#d81561; stroke-width:1; stroke:black; " description="&lt;b&gt;ctg6_176&lt;/b&gt;&lt;br&gt;ctg6 176&lt;br&gt;Location: 248451 - 249252" locus_tag="ctg6_176" class="clusterblast-orf" id="dummy-1_q29_0_all"  />
<polygon points="579,35 581,30 581,40 579,35 " style="fill:#b9d815; stroke-width:1; stroke:black; " description="&lt;b&gt;ctg6_177&lt;/b&gt;&lt;br&gt;ctg6 177&lt;br&gt;Location: 249252 - 249741" locus_tag="ctg6_177" class="clusterblast-orf" id="dummy-1_q30_0_all"  />
<polygon points="583,40 583,40 588,35 583,30 583,30 583,40 " style="fill:#15d8a0; stroke-width:1; stroke:black; " description="&lt;b&gt;ctg6_178&lt;/b&gt;&lt;br&gt;ctg6 178&lt;br&gt;Location: 249938 - 250883" locus_tag="ctg6_178" class="clusterblast-orf" id="dummy-1_q31_0_all"  />
<polygon points="588,40 590,35 588,30 588,40 " style="fill:#4815d8; stroke-width:1; stroke:black; " description="&lt;b&gt;ctg6_179&lt;/b&gt;&lt;br&gt;ctg6 179&lt;br&gt;Location: 250875 - 251274" locus_tag="ctg6_179" class="clusterblast-orf" id="dummy-1_q32_0_all"  />
<polygon points="591,40 593,35 591,30 591,40 " style="fill:#d8153b; stroke-width:1; stroke:black; " description="&lt;b&gt;ctg6_180&lt;/b&gt;&lt;br&gt;ctg6 180&lt;br&gt;Location: 251446 - 251749" locus_tag="ctg6_180" class="clusterblast-orf" id="dummy-1_q33_0_all"  />
<polygon points="594,40 598,35 594,30 594,40 " style="fill:white; stroke-width:1; stroke:black; " description="&lt;b&gt;ctg6_181&lt;/b&gt;&lt;br&gt;ctg6 181&lt;br&gt;Location: 251877 - 252582" locus_tag="ctg6_181" class="clusterblast-orf" id="dummy-1_q34_0_all"  />
<polygon points="599,40 601,35 599,30 599,40 " style="fill:#93d815; stroke-width:1; stroke:black; " description="&lt;b&gt;ctg6_182&lt;/b&gt;&lt;br&gt;ctg6 182&lt;br&gt;Location: 252704 - 253106" locus_tag="ctg6_182" class="clusterblast-orf" id="dummy-1_q35_0_all"  />
<polygon points="602,35 607,30 608,30 608,40 607,40 602,35 " style="fill:#15d8c5; stroke-width:1; stroke:black; " description="&lt;b&gt;ctg6_183&lt;/b&gt;&lt;br&gt;ctg6 183&lt;br&gt;Location: 253229 - 254348" locus_tag="ctg6_183" class="clusterblast-orf" id="dummy-1_q36_0_all"  />
<polygon points="608,35 610,30 610,40 608,35 " style="fill:#6d15d8; stroke-width:1; stroke:black; " description="&lt;b&gt;ctg6_184&lt;/b&gt;&lt;br&gt;ctg6 184&lt;br&gt;Location: 254372 - 254696" locus_tag="ctg6_184" class="clusterblast-orf" id="dummy-1_q37_0_all"  />
</g>
<g label="NZ_LT629762" description="NZ_LT629762_c7: Pseudomonas prosekii strain LMG 26867 genome assembly, chromo... (50% of genes show similarity), nrps" class="clusterblast-cluster"  >
<text x="5" y="70" class="clusterblast-acc"  >
<a xlink:href="https://antismash-db.secondarymetabolites.org/go/NZ_LT629762/7" target="_blank">NZ_LT629762_c7</a>: Pseudomonas prosekii strain LMG 26867 genome assembly, chromo... (50% of genes show similarity), nrps</text>
<line x1="10" y1="85" x2="778.0" y2="85" style="stroke-width:1; stroke:grey; "  />
</g>
<g id="a1_000"  >
<polygon points="0,90 4,90 9,85 4,80 0,80 0,90 " style="fill:white; stroke-width:1; stroke:black; " description="&lt;b&gt;BLU01_RS23055&lt;/b&gt;&lt;br&gt;MFS transporter&lt;br&gt;Location: 5129134 - 5127458" locus_tag="BLU01_RS23055" class="clusterblast-orf" id="dummy-1_h1_6_0"  />
</g>
<g id="a1_001"  >
<polygon points="10,85 15,80 18,80 18,90 15,90 10,85 " style="fill:white; stroke-width:1; stroke:black; " description="&lt;b&gt;BLU01_RS23050&lt;/b&gt;&lt;br&gt;sensor histidine kinase&lt;br&gt;Location: 5127276 - 5125963" locus_tag="BLU01_RS23050" class="clusterblast-orf" id="dummy-1_h1_6_1"  />
</g>
<g id="a1_002"  >
<polygon points="18,85 22,80 22,90 18,85 " style="fill:white; stroke-width:1; stroke:black; " description="&lt;b&gt;BLU01_RS23045&lt;/b&gt;&lt;br&gt;DNA-binding response regulator&lt;br&gt;Location: 5125966 - 5125298" locus_tag="BLU01_RS23045" class="clusterblast-orf" id="dummy-1_h1_6_2"  />
</g>
<g id="a1_003"  >
<polygon points="22,85 24,80 24,90 22,85 " style="fill:white; stroke-width:1; stroke:black; " description="&lt;b&gt;BLU01_RS23040&lt;/b&gt;&lt;br&gt;peptidase&lt;br&gt;Location: 5125294 - 5124989" locus_tag="BLU01_RS23040" class="clusterblast-orf" id="dummy-1_h1_6_3"  />
</g>
<g id="a1_004"  >
<polygon points="24,85 25,80 25,90 24,85 " style="fill:white; stroke-width:1; stroke:black; " description="&lt;b&gt;BLU01_RS23035&lt;/b&gt;&lt;br&gt;peptidase&lt;br&gt;Location: 5124989 - 5124681" locus_tag="BLU01_RS23035" class="clusterblast-orf" id="dummy-1_h1_6_4"  />
</g>
<g id="a1_005"  >
<polygon points="27,90 28,90 33,85 28,80 27,80 27,90 " style="fill:white; stroke-width:1; stroke:black; " description="&lt;b&gt;BLU01_RS23030&lt;/b&gt;&lt;br&gt;hypothetical protein&lt;br&gt;Location: 5124469 - 5123390" locus_tag="BLU01_RS23030" class="clusterblast-orf" id="dummy-1_h1_6_5"  />
</g>
<g id="a1_006"  >
<polygon points="33,90 36,85 33,80 33,90 " style="fill:white; stroke-width:1; stroke:black; " description="&lt;b&gt;BLU01_RS23025&lt;/b&gt;&lt;br&gt;6-carboxytetrahydropterin synthase QueD&lt;br&gt;Location: 5123315 - 5122959" locus_tag="BLU01_RS23025" class="clusterblast-orf" id="dummy-1_h1_6_6"  />
</g>
<g id="a1_007"  >
<polygon points="36,90 39,85 36,80 36,90 " style="fill:white; stroke-width:1; stroke:black; " description="&lt;b&gt;BLU01_RS23020&lt;/b&gt;&lt;br&gt;N-acetyltransferase&lt;br&gt;Location: 5122847 - 5122398" locus_tag="BLU01_RS23020" class="clusterblast-orf" id="dummy-1_h1_6_7"  />
</g>
<g id="a1_008"  >
<polygon points="40,90 40,90 45,85 40,80 40,80 40,90 " style="fill:white; stroke-width:1; stroke:black; " description="&lt;b&gt;BLU01_RS23015&lt;/b&gt;&lt;br&gt;alpha/beta hydrolase&lt;br&gt;Location: 5122136 - 5121306" locus_tag="BLU01_RS23015" class="clusterblast-orf" id="dummy-1_h1_6_8"  />
</g>
<g id="a1_009"  >
<polygon points="46,90 49,90 54,85 49,80 46,80 46,90 " style="fill:white; stroke-width:1; stroke:black; " description="&lt;b&gt;BLU01_RS23010&lt;/b&gt;&lt;br&gt;cytosine permease&lt;br&gt;Location: 5121123 - 5119852" locus_tag="BLU01_RS23010" class="clusterblast-orf" id="dummy-1_h1_6_9"  />
</g>
<g id="a1_0010"  >
<polygon points="54,90 56,90 61,85 56,80 54,80 54,90 " style="fill:white; stroke-width:1; stroke:black; " description="&lt;b&gt;BLU01_RS23005&lt;/b&gt;&lt;br&gt;cytosine deaminase&lt;br&gt;Location: 5119838 - 5118594" locus_tag="BLU01_RS23005" class="clusterblast-orf" id="dummy-1_h1_6_10"  />
</g>
<g id="a1_0011"  >
<polygon points="62,85 67,80 68,80 68,90 67,90 62,85 " style="fill:white; stroke-width:1; stroke:black; " description="&lt;b&gt;BLU01_RS23000&lt;/b&gt;&lt;br&gt;diaminopimelate epimerase&lt;br&gt;Location: 5118476 - 5117484" locus_tag="BLU01_RS23000" class="clusterblast-orf" id="dummy-1_h1_6_11"  />
</g>
<g id="a1_0012"  >
<polygon points="69,90 70,90 75,85 70,80 69,80 69,90 " style="fill:white; stroke-width:1; stroke:black; " description="&lt;b&gt;BLU01_RS22995&lt;/b&gt;&lt;br&gt;MFS transporter&lt;br&gt;Location: 5117274 - 5116123" locus_tag="BLU01_RS22995" class="clusterblast-orf" id="dummy-1_h1_6_12"  />
</g>
<g id="a1_0013"  >
<polygon points="78,90 82,85 78,80 78,90 " style="fill:white; stroke-width:1; stroke:black; " description="&lt;b&gt;BLU01_RS22990&lt;/b&gt;&lt;br&gt;LuxR family transcriptional regulator&lt;br&gt;Location: 5115654 - 5114950" locus_tag="BLU01_RS22990" class="clusterblast-orf" id="dummy-1_h1_6_13"  />
</g>
<g id="a1_0014"  >
<polygon points="82,85 87,80 94,80 94,90 87,90 82,85 " style="fill:#48d815; stroke-width:1; stroke:black; " description="&lt;b&gt;BLU01_RS22985&lt;/b&gt;&lt;br&gt;MacB family efflux pump subunit&lt;br&gt;Location: 5114934 - 5112976&lt;br&gt;&lt;br&gt;&lt;b&gt;BlastP hit with ctg6_152&lt;/b&gt;&lt;br&gt;Percentage identity: 47&lt;br&gt;Percentage coverage: 101&lt;br&gt;BLAST bit score: 509&lt;br&gt;E-value: 4.7e-142" locus_tag="BLU01_RS22985" class="clusterblast-orf" id="dummy-1_h1_6_14"  />
</g>
<g id="a1_0015"  >
<polygon points="94,85 99,80 101,80 101,90 99,90 94,85 " style="fill:#d83b15; stroke-width:1; stroke:black; " description="&lt;b&gt;BLU01_RS22980&lt;/b&gt;&lt;br&gt;macrolide transporter subunit MacA&lt;br&gt;Location: 5112973 - 5111825&lt;br&gt;&lt;br&gt;&lt;b&gt;BlastP hit with ctg6_151&lt;/b&gt;&lt;br&gt;Percentage identity: 35&lt;br&gt;Percentage coverage: 97&lt;br&gt;BLAST bit score: 191&lt;br&gt;E-value: 1.3e-46" locus_tag="BLU01_RS22980" class="clusterblast-orf" id="dummy-1_h1_6_15"  />
</g>
<g id="a1_0016"  >
<polygon points="101,85 106,80 150,80 150,90 106,90 101,85 " style="fill:#d88615; stroke-width:1; stroke:black; " description="&lt;b&gt;BLU01_RS22975&lt;/b&gt;&lt;br&gt;non-ribosomal peptide synthetase&lt;br&gt;Location: 5111743 - 5103395&lt;br&gt;&lt;br&gt;&lt;b&gt;BlastP hit with ctg6_159&lt;/b&gt;&lt;br&gt;Percentage identity: 38&lt;br&gt;Percentage coverage: 86&lt;br&gt;BLAST bit score: 742&lt;br&gt;E-value: 7e-212" locus_tag="BLU01_RS22975" class="clusterblast-orf" id="dummy-1_h1_6_16"  />
</g>
<g id="a1_0017"  >
<polygon points="150,85 155,80 226,80 226,90 155,90 150,85 " style="fill:white; stroke-width:1; stroke:black; " description="&lt;b&gt;BLU01_RS22970&lt;/b&gt;&lt;br&gt;D-alanine--poly(phosphoribitol) ligase subunit DltA&lt;br&gt;Location: 5103398 - 5090382" locus_tag="BLU01_RS22970" class="clusterblast-orf" id="dummy-1_h1_6_17"  />
</g>
<g id="a1_0018"  >
<polygon points="229,85 234,80 266,80 266,90 234,90 229,85 " style="fill:white; stroke-width:1; stroke:black; " description="&lt;b&gt;BLU01_RS22965&lt;/b&gt;&lt;br&gt;D-alanine--poly(phosphoribitol) ligase subunit DltA&lt;br&gt;Location: 5089859 - 5083446" locus_tag="BLU01_RS22965" class="clusterblast-orf" id="dummy-1_h1_6_18"  />
</g>
<g id="a1_0019"  >
<polygon points="269,90 269,90 274,85 269,80 269,80 269,90 " style="fill:white; stroke-width:1; stroke:black; " description="&lt;b&gt;BLU01_RS22960&lt;/b&gt;&lt;br&gt;LuxR family transcriptional regulator&lt;br&gt;Location: 5082932 - 5082129" locus_tag="BLU01_RS22960" class="clusterblast-orf" id="dummy-1_h1_6_19"  />
</g>
<g id="a1_0020"  >
<polygon points="274,90 277,90 282,85 277,80 274,80 274,90 " style="fill:white; stroke-width:1; stroke:black; " description="&lt;b&gt;BLU01_RS22955&lt;/b&gt;&lt;br&gt;multidrug transporter&lt;br&gt;Location: 5082099 - 5080687" locus_tag="BLU01_RS22955" class="clusterblast-orf" id="dummy-1_h1_6_20"  />
</g>
<g id="a1_0021"  >
<polygon points="286,90 287,90 292,85 287,80 286,80 286,90 " style="fill:white; stroke-width:1; stroke:black; " description="&lt;b&gt;BLU01_RS22950&lt;/b&gt;&lt;br&gt;HlyD family secretion protein&lt;br&gt;Location: 5080072 - 5078951" locus_tag="BLU01_RS22950" class="clusterblast-orf" id="dummy-1_h1_6_21"  />
</g>
<g id="a1_0022"  >
<polygon points="292,90 297,90 302,85 297,80 292,80 292,90 " style="fill:white; stroke-width:1; stroke:black; " description="&lt;b&gt;BLU01_RS22945&lt;/b&gt;&lt;br&gt;MFS transporter&lt;br&gt;Location: 5078954 - 5077365" locus_tag="BLU01_RS22945" class="clusterblast-orf" id="dummy-1_h1_6_22"  />
</g>
<g id="a1_0023"  >
<polygon points="302,85 304,80 304,90 302,85 " style="fill:white; stroke-width:1; stroke:black; " description="&lt;b&gt;BLU01_RS22940&lt;/b&gt;&lt;br&gt;carboxymuconolactone decarboxylase family protein&lt;br&gt;Location: 5077364 - 5076924" locus_tag="BLU01_RS22940" class="clusterblast-orf" id="dummy-1_h1_6_23"  />
</g>
<g id="a1_0024"  >
<polygon points="305,85 310,80 314,80 314,90 310,90 305,85 " style="fill:white; stroke-width:1; stroke:black; " description="&lt;b&gt;BLU01_RS22935&lt;/b&gt;&lt;br&gt;mechanosensitive ion channel protein MscS&lt;br&gt;Location: 5076791 - 5075349" locus_tag="BLU01_RS22935" class="clusterblast-orf" id="dummy-1_h1_6_24"  />
</g>
<g id="a1_0025"  >
<polygon points="315,85 320,80 320,80 320,90 320,90 315,85 " style="fill:white; stroke-width:1; stroke:black; " description="&lt;b&gt;BLU01_RS22930&lt;/b&gt;&lt;br&gt;pirin family protein&lt;br&gt;Location: 5075146 - 5074280" locus_tag="BLU01_RS22930" class="clusterblast-orf" id="dummy-1_h1_6_25"  />
</g>
<g id="a1_0026"  >
<polygon points="321,90 321,90 326,85 321,80 321,80 321,90 " style="fill:white; stroke-width:1; stroke:black; " description="&lt;b&gt;BLU01_RS22925&lt;/b&gt;&lt;br&gt;2,5-didehydrogluconate reductase DkgB&lt;br&gt;Location: 5074007 - 5073204" locus_tag="BLU01_RS22925" class="clusterblast-orf" id="dummy-1_h1_6_26"  />
</g>
<g id="a1_0027"  >
<polygon points="326,85 331,80 345,80 345,90 331,90 326,85 " style="fill:white; stroke-width:1; stroke:black; " description="&lt;b&gt;BLU01_RS22920&lt;/b&gt;&lt;br&gt;hybrid sensor histidine kinase/response regulator&lt;br&gt;Location: 5073194 - 5069949" locus_tag="BLU01_RS22920" class="clusterblast-orf" id="dummy-1_h1_6_27"  />
</g>
<g id="a1_0028"  >
<polygon points="345,85 349,80 349,90 345,85 " style="fill:#d81515; stroke-width:1; stroke:black; " description="&lt;b&gt;BLU01_RS22915&lt;/b&gt;&lt;br&gt;DNA-binding response regulator&lt;br&gt;Location: 5069948 - 5069328&lt;br&gt;&lt;br&gt;&lt;b&gt;BlastP hit with ctg6_147&lt;/b&gt;&lt;br&gt;Percentage identity: 79&lt;br&gt;Percentage coverage: 100&lt;br&gt;BLAST bit score: 320&lt;br&gt;E-value: 1.7e-85" locus_tag="BLU01_RS22915" class="clusterblast-orf" id="dummy-1_h1_6_28"  />
</g>
<g id="a1_0029"  >
<polygon points="349,85 352,80 352,90 349,85 " style="fill:white; stroke-width:1; stroke:black; " description="&lt;b&gt;BLU01_RS22910&lt;/b&gt;&lt;br&gt;chemotaxis protein CheY&lt;br&gt;Location: 5069218 - 5068760" locus_tag="BLU01_RS22910" class="clusterblast-orf" id="dummy-1_h1_6_29"  />
</g>
<g id="a1_0030"  >
<polygon points="353,85 358,80 369,80 369,90 358,90 353,85 " style="fill:#6dd815; stroke-width:1; stroke:black; " description="&lt;b&gt;BLU01_RS22905&lt;/b&gt;&lt;br&gt;magnesium-translocating P-type ATPase&lt;br&gt;Location: 5068596 - 5065891&lt;br&gt;&lt;br&gt;&lt;b&gt;BlastP hit with ctg6_148&lt;/b&gt;&lt;br&gt;Percentage identity: 90&lt;br&gt;Percentage coverage: 100&lt;br&gt;BLAST bit score: 1534&lt;br&gt;E-value: 0.0" locus_tag="BLU01_RS22905" class="clusterblast-orf" id="dummy-1_h1_6_30"  />
</g>
<g id="a1_0031"  >
<polygon points="371,85 376,80 379,80 379,90 376,90 371,85 " style="fill:#15c5d8; stroke-width:1; stroke:black; " description="&lt;b&gt;BLU01_RS22900&lt;/b&gt;&lt;br&gt;ornithine monooxygenase&lt;br&gt;Location: 5065457 - 5064120&lt;br&gt;&lt;br&gt;&lt;b&gt;BlastP hit with ctg6_149&lt;/b&gt;&lt;br&gt;Percentage identity: 97&lt;br&gt;Percentage coverage: 100&lt;br&gt;BLAST bit score: 861&lt;br&gt;E-value: 3.3e-248" locus_tag="BLU01_RS22900" class="clusterblast-orf" id="dummy-1_h1_6_31"  />
</g>
<g id="a1_0032"  >
<polygon points="380,85 383,80 383,90 380,85 " style="fill:#9315d8; stroke-width:1; stroke:black; " description="&lt;b&gt;BLU01_RS22895&lt;/b&gt;&lt;br&gt;RNA polymerase subunit sigma&lt;br&gt;Location: 5063988 - 5063449&lt;br&gt;&lt;br&gt;&lt;b&gt;BlastP hit with ctg6_150&lt;/b&gt;&lt;br&gt;Percentage identity: 95&lt;br&gt;Percentage coverage: 100&lt;br&gt;BLAST bit score: 312&lt;br&gt;E-value: 2.1e-83" locus_tag="BLU01_RS22895" class="clusterblast-orf" id="dummy-1_h1_6_32"  />
</g>
<g id="a1_0033"  >
<polygon points="384,90 386,90 391,85 386,80 384,80 384,90 " style="fill:#d83b15; stroke-width:1; stroke:black; " description="&lt;b&gt;BLU01_RS22890&lt;/b&gt;&lt;br&gt;efflux RND transporter periplasmic adaptor subunit&lt;br&gt;Location: 5063194 - 5062010&lt;br&gt;&lt;br&gt;&lt;b&gt;BlastP hit with ctg6_151&lt;/b&gt;&lt;br&gt;Percentage identity: 93&lt;br&gt;Percentage coverage: 101&lt;br&gt;BLAST bit score: 621&lt;br&gt;E-value: 5e-176" locus_tag="BLU01_RS22890" class="clusterblast-orf" id="dummy-1_h1_6_33"  />
</g>
<g id="a1_0034"  >
<polygon points="391,90 398,90 403,85 398,80 391,80 391,90 " style="fill:#48d815; stroke-width:1; stroke:black; " description="&lt;b&gt;BLU01_RS22885&lt;/b&gt;&lt;br&gt;MacB family efflux pump subunit&lt;br&gt;Location: 5062009 - 5060036&lt;br&gt;&lt;br&gt;&lt;b&gt;BlastP hit with ctg6_152&lt;/b&gt;&lt;br&gt;Percentage identity: 96&lt;br&gt;Percentage coverage: 100&lt;br&gt;BLAST bit score: 1203&lt;br&gt;E-value: 0.0" locus_tag="BLU01_RS22885" class="clusterblast-orf" id="dummy-1_h1_6_34"  />
</g>
<g id="a1_0035"  >
<polygon points="403,90 406,90 411,85 406,80 403,80 403,90 " style="fill:#15a0d8; stroke-width:1; stroke:black; " description="&lt;b&gt;BLU01_RS22880&lt;/b&gt;&lt;br&gt;RND transporter&lt;br&gt;Location: 5060028 - 5058634&lt;br&gt;&lt;br&gt;&lt;b&gt;BlastP hit with ctg6_153&lt;/b&gt;&lt;br&gt;Percentage identity: 84&lt;br&gt;Percentage coverage: 100&lt;br&gt;BLAST bit score: 733&lt;br&gt;E-value: 1.4e-209" locus_tag="BLU01_RS22880" class="clusterblast-orf" id="dummy-1_h1_6_35"  />
</g>
<g id="a1_0036"  >
<polygon points="414,85 419,80 424,80 424,90 419,90 414,85 " style="fill:#b915d8; stroke-width:1; stroke:black; " description="&lt;b&gt;BLU01_RS22875&lt;/b&gt;&lt;br&gt;PvdJ/PvdD/PvdP-like protein&lt;br&gt;Location: 5058123 - 5056495&lt;br&gt;&lt;br&gt;&lt;b&gt;BlastP hit with ctg6_154&lt;/b&gt;&lt;br&gt;Percentage identity: 92&lt;br&gt;Percentage coverage: 100&lt;br&gt;BLAST bit score: 1088&lt;br&gt;E-value: 0.0" locus_tag="BLU01_RS22875" class="clusterblast-orf" id="dummy-1_h1_6_36"  />
</g>
<g id="a1_0037"  >
<polygon points="425,90 428,90 433,85 428,80 425,80 425,90 " style="fill:#d86115; stroke-width:1; stroke:black; " description="&lt;b&gt;BLU01_RS22870&lt;/b&gt;&lt;br&gt;membrane dipeptidase&lt;br&gt;Location: 5056286 - 5054916&lt;br&gt;&lt;br&gt;&lt;b&gt;BlastP hit with ctg6_155&lt;/b&gt;&lt;br&gt;Percentage identity: 95&lt;br&gt;Percentage coverage: 100&lt;br&gt;BLAST bit score: 892&lt;br&gt;E-value: 1.8e-257" locus_tag="BLU01_RS22870" class="clusterblast-orf" id="dummy-1_h1_6_37"  />
</g>
<g id="a1_0038"  >
<polygon points="433,90 435,90 440,85 435,80 433,80 433,90 " style="fill:#22d815; stroke-width:1; stroke:black; " description="&lt;b&gt;BLU01_RS22865&lt;/b&gt;&lt;br&gt;aminotransferase class V-fold PLP-dependent enzyme&lt;br&gt;Location: 5054919 - 5053612&lt;br&gt;&lt;br&gt;&lt;b&gt;BlastP hit with ctg6_156&lt;/b&gt;&lt;br&gt;Percentage identity: 89&lt;br&gt;Percentage coverage: 102&lt;br&gt;BLAST bit score: 781&lt;br&gt;E-value: 5.4e-224" locus_tag="BLU01_RS22865" class="clusterblast-orf" id="dummy-1_h1_6_38"  />
</g>
<g id="a1_0039"  >
<polygon points="442,90 442,90 447,85 442,80 442,80 442,90 " style="fill:#157ad8; stroke-width:1; stroke:black; " description="&lt;b&gt;BLU01_RS22860&lt;/b&gt;&lt;br&gt;formylglycine-generating enzyme family protein&lt;br&gt;Location: 5053332 - 5052448&lt;br&gt;&lt;br&gt;&lt;b&gt;BlastP hit with ctg6_157&lt;/b&gt;&lt;br&gt;Percentage identity: 83&lt;br&gt;Percentage coverage: 100&lt;br&gt;BLAST bit score: 510&lt;br&gt;E-value: 9.5e-143" locus_tag="BLU01_RS22860" class="clusterblast-orf" id="dummy-1_h1_6_39"  />
</g>
<g id="a1_0040"  >
<polygon points="448,90 453,90 458,85 453,80 448,80 448,90 " style="fill:#d815d2; stroke-width:1; stroke:black; " description="&lt;b&gt;BLU01_RS22855&lt;/b&gt;&lt;br&gt;cyclic peptide export ABC transporter&lt;br&gt;Location: 5052316 - 5050658&lt;br&gt;&lt;br&gt;&lt;b&gt;BlastP hit with ctg6_158&lt;/b&gt;&lt;br&gt;Percentage identity: 93&lt;br&gt;Percentage coverage: 99&lt;br&gt;BLAST bit score: 987&lt;br&gt;E-value: 6.5e-286" locus_tag="BLU01_RS22855" class="clusterblast-orf" id="dummy-1_h1_6_40"  />
</g>
<g id="a1_0041"  >
<polygon points="458,90 477,90 482,85 477,80 458,80 458,90 " style="fill:#d88615; stroke-width:1; stroke:black; " description="&lt;b&gt;BLU01_RS22850&lt;/b&gt;&lt;br&gt;non-ribosomal peptide synthetase&lt;br&gt;Location: 5050623 - 5046460&lt;br&gt;&lt;br&gt;&lt;b&gt;BlastP hit with ctg6_159&lt;/b&gt;&lt;br&gt;Percentage identity: 54&lt;br&gt;Percentage coverage: 99&lt;br&gt;BLAST bit score: 1414&lt;br&gt;E-value: 0.0" locus_tag="BLU01_RS22850" class="clusterblast-orf" id="dummy-1_h1_6_41"  />
</g>
<g id="a1_0042"  >
<polygon points="486,85 491,80 500,80 500,90 491,90 486,85 " style="fill:#1554d8; stroke-width:1; stroke:black; " description="&lt;b&gt;BLU01_RS22845&lt;/b&gt;&lt;br&gt;TonB-dependent siderophore receptor&lt;br&gt;Location: 5045845 - 5043374&lt;br&gt;&lt;br&gt;&lt;b&gt;BlastP hit with ctg6_161&lt;/b&gt;&lt;br&gt;Percentage identity: 88&lt;br&gt;Percentage coverage: 100&lt;br&gt;BLAST bit score: 1496&lt;br&gt;E-value: 0.0" locus_tag="BLU01_RS22845" class="clusterblast-orf" id="dummy-1_h1_6_42"  />
</g>
<g id="a1_0043"  >
<polygon points="502,85 507,80 521,80 521,90 507,90 502,85 " style="fill:#d88615; stroke-width:1; stroke:black; " description="&lt;b&gt;BLU01_RS22840&lt;/b&gt;&lt;br&gt;non-ribosomal peptide synthetase&lt;br&gt;Location: 5043037 - 5039789&lt;br&gt;&lt;br&gt;&lt;b&gt;BlastP hit with ctg6_162&lt;/b&gt;&lt;br&gt;Percentage identity: 79&lt;br&gt;Percentage coverage: 101&lt;br&gt;BLAST bit score: 1664&lt;br&gt;E-value: 0.0" locus_tag="BLU01_RS22840" class="clusterblast-orf" id="dummy-1_h1_6_43"  />
</g>
<g id="a1_0044"  >
<polygon points="521,85 526,80 600,80 600,90 526,90 521,85 " style="fill:#d88615; stroke-width:1; stroke:black; " description="&lt;b&gt;BLU01_RS22835&lt;/b&gt;&lt;br&gt;non-ribosomal peptide synthase/polyketide synthase&lt;br&gt;Location: 5039792 - 5026215&lt;br&gt;&lt;br&gt;&lt;b&gt;BlastP hit with ctg6_159&lt;/b&gt;&lt;br&gt;Percentage identity: 54&lt;br&gt;Percentage coverage: 76&lt;br&gt;BLAST bit score: 1060&lt;br&gt;E-value: 2e-307&lt;br&gt;&lt;br&gt;&lt;b&gt;BlastP hit with ctg6_163&lt;/b&gt;&lt;br&gt;Percentage identity: 69&lt;br&gt;Percentage coverage: 101&lt;br&gt;BLAST bit score: 6143&lt;br&gt;E-value: 0.0&lt;br&gt;&lt;br&gt;&lt;b&gt;BlastP hit with ctg6_164&lt;/b&gt;&lt;br&gt;Percentage identity: 44&lt;br&gt;Percentage coverage: 101&lt;br&gt;BLAST bit score: 3007&lt;br&gt;E-value: 0.0" locus_tag="BLU01_RS22835" class="clusterblast-orf" id="dummy-1_h1_6_44"  />
</g>
<g id="a1_0045"  >
<polygon points="600,85 605,80 673,80 673,90 605,90 600,85 " style="fill:#d88615; stroke-width:1; stroke:black; " description="&lt;b&gt;BLU01_RS22830&lt;/b&gt;&lt;br&gt;non-ribosomal peptide synthase/polyketide synthase&lt;br&gt;Location: 5026215 - 5013862&lt;br&gt;&lt;br&gt;&lt;b&gt;BlastP hit with ctg6_159&lt;/b&gt;&lt;br&gt;Percentage identity: 46&lt;br&gt;Percentage coverage: 76&lt;br&gt;BLAST bit score: 860&lt;br&gt;E-value: 3e-247&lt;br&gt;&lt;br&gt;&lt;b&gt;BlastP hit with ctg6_163&lt;/b&gt;&lt;br&gt;Percentage identity: 45&lt;br&gt;Percentage coverage: 92&lt;br&gt;BLAST bit score: 3011&lt;br&gt;E-value: 0.0&lt;br&gt;&lt;br&gt;&lt;b&gt;BlastP hit with ctg6_164&lt;/b&gt;&lt;br&gt;Percentage identity: 90&lt;br&gt;Percentage coverage: 100&lt;br&gt;BLAST bit score: 7368&lt;br&gt;E-value: 0.0" locus_tag="BLU01_RS22830" class="clusterblast-orf" id="dummy-1_h1_6_45"  />
</g>
<g id="a1_0046"  >
<polygon points="674,85 678,80 678,90 674,85 " style="fill:#d815ac; stroke-width:1; stroke:black; " description="&lt;b&gt;BLU01_RS22825&lt;/b&gt;&lt;br&gt;thioesterase&lt;br&gt;Location: 5013615 - 5012881&lt;br&gt;&lt;br&gt;&lt;b&gt;BlastP hit with ctg6_165&lt;/b&gt;&lt;br&gt;Percentage identity: 97&lt;br&gt;Percentage coverage: 100&lt;br&gt;BLAST bit score: 483&lt;br&gt;E-value: 1e-134" locus_tag="BLU01_RS22825" class="clusterblast-orf" id="dummy-1_h1_6_46"  />
</g>
<g id="a1_0047"  >
<polygon points="679,90 681,90 686,85 681,80 679,80 679,90 " style="fill:#d8ac15; stroke-width:1; stroke:black; " description="&lt;b&gt;BLU01_RS22820&lt;/b&gt;&lt;br&gt;cupin&lt;br&gt;Location: 5012748 - 5011615&lt;br&gt;&lt;br&gt;&lt;b&gt;BlastP hit with ctg6_166&lt;/b&gt;&lt;br&gt;Percentage identity: 93&lt;br&gt;Percentage coverage: 100&lt;br&gt;BLAST bit score: 732&lt;br&gt;E-value: 2.6e-209" locus_tag="BLU01_RS22820" class="clusterblast-orf" id="dummy-1_h1_6_47"  />
</g>
<g id="a1_0048"  >
<polygon points="686,85 691,80 693,80 693,90 691,90 686,85 " style="fill:#15d854; stroke-width:1; stroke:black; " description="&lt;b&gt;BLU01_RS22815&lt;/b&gt;&lt;br&gt;MFS transporter&lt;br&gt;Location: 5011563 - 5010391&lt;br&gt;&lt;br&gt;&lt;b&gt;BlastP hit with ctg6_167&lt;/b&gt;&lt;br&gt;Percentage identity: 94&lt;br&gt;Percentage coverage: 100&lt;br&gt;BLAST bit score: 687&lt;br&gt;E-value: 9.8e-196" locus_tag="BLU01_RS22815" class="clusterblast-orf" id="dummy-1_h1_6_48"  />
</g>
<g id="a1_0049"  >
<polygon points="694,90 698,85 694,80 694,90 " style="fill:#152ed8; stroke-width:1; stroke:black; " description="&lt;b&gt;BLU01_RS22810&lt;/b&gt;&lt;br&gt;3-oxoacyl-ACP reductase&lt;br&gt;Location: 5010215 - 5009415&lt;br&gt;&lt;br&gt;&lt;b&gt;BlastP hit with ctg6_168&lt;/b&gt;&lt;br&gt;Percentage identity: 93&lt;br&gt;Percentage coverage: 100&lt;br&gt;BLAST bit score: 429&lt;br&gt;E-value: 2.5e-118" locus_tag="BLU01_RS22810" class="clusterblast-orf" id="dummy-1_h1_6_49"  />
</g>
<g id="a1_0050"  >
<polygon points="698,90 704,90 709,85 704,80 698,80 698,90 " style="fill:#d81586; stroke-width:1; stroke:black; " description="&lt;b&gt;BLU01_RS22805&lt;/b&gt;&lt;br&gt;glycoside hydrolase family 15 protein&lt;br&gt;Location: 5009422 - 5007596&lt;br&gt;&lt;br&gt;&lt;b&gt;BlastP hit with ctg6_169&lt;/b&gt;&lt;br&gt;Percentage identity: 90&lt;br&gt;Percentage coverage: 100&lt;br&gt;BLAST bit score: 1151&lt;br&gt;E-value: 0.0" locus_tag="BLU01_RS22805" class="clusterblast-orf" id="dummy-1_h1_6_50"  />
</g>
<g id="a1_0051"  >
<polygon points="711,90 712,85 711,80 711,90 " style="fill:#d8d215; stroke-width:1; stroke:black; " description="&lt;b&gt;BLU01_RS22800&lt;/b&gt;&lt;br&gt;hypothetical protein&lt;br&gt;Location: 5007321 - 5007118&lt;br&gt;&lt;br&gt;&lt;b&gt;BlastP hit with ctg6_170&lt;/b&gt;&lt;br&gt;Percentage identity: 94&lt;br&gt;Percentage coverage: 50&lt;br&gt;BLAST bit score: 125&lt;br&gt;E-value: 4.9e-27" locus_tag="BLU01_RS22800" class="clusterblast-orf" id="dummy-1_h1_6_51"  />
</g>
<g id="a1_0052"  >
<polygon points="712,90 713,90 718,85 713,80 712,80 712,90 " style="fill:#15d87a; stroke-width:1; stroke:black; " description="&lt;b&gt;BLU01_RS22795&lt;/b&gt;&lt;br&gt;alpha/beta hydrolase&lt;br&gt;Location: 5007038 - 5006100&lt;br&gt;&lt;br&gt;&lt;b&gt;BlastP hit with ctg6_172&lt;/b&gt;&lt;br&gt;Percentage identity: 86&lt;br&gt;Percentage coverage: 97&lt;br&gt;BLAST bit score: 543&lt;br&gt;E-value: 1.8e-152" locus_tag="BLU01_RS22795" class="clusterblast-orf" id="dummy-1_h1_6_52"  />
</g>
<g id="a1_0053"  >
<polygon points="718,85 723,80 723,80 723,90 723,90 718,85 " style="fill:#2215d8; stroke-width:1; stroke:black; " description="&lt;b&gt;BLU01_RS22790&lt;/b&gt;&lt;br&gt;GlxA family transcriptional regulator&lt;br&gt;Location: 5006131 - 5005148&lt;br&gt;&lt;br&gt;&lt;b&gt;BlastP hit with ctg6_173&lt;/b&gt;&lt;br&gt;Percentage identity: 88&lt;br&gt;Percentage coverage: 98&lt;br&gt;BLAST bit score: 567&lt;br&gt;E-value: 7.4e-160&lt;br&gt;&lt;br&gt;&lt;b&gt;BlastP hit with ctg6_174&lt;/b&gt;&lt;br&gt;Percentage identity: 35&lt;br&gt;Percentage coverage: 84&lt;br&gt;BLAST bit score: 92&lt;br&gt;E-value: 6.2e-17" locus_tag="BLU01_RS22790" class="clusterblast-orf" id="dummy-1_h1_6_53"  />
</g>
<g id="a1_0054"  >
<polygon points="724,90 728,85 724,80 724,90 " style="fill:#2215d8; stroke-width:1; stroke:black; " description="&lt;b&gt;BLU01_RS22785&lt;/b&gt;&lt;br&gt;DJ-1/PfpI family protein&lt;br&gt;Location: 5005056 - 5004373&lt;br&gt;&lt;br&gt;&lt;b&gt;BlastP hit with ctg6_173&lt;/b&gt;&lt;br&gt;Percentage identity: 32&lt;br&gt;Percentage coverage: 54&lt;br&gt;BLAST bit score: 70&lt;br&gt;E-value: 4.8e-10&lt;br&gt;&lt;br&gt;&lt;b&gt;BlastP hit with ctg6_174&lt;/b&gt;&lt;br&gt;Percentage identity: 90&lt;br&gt;Percentage coverage: 100&lt;br&gt;BLAST bit score: 410&lt;br&gt;E-value: 1.8e-112" locus_tag="BLU01_RS22785" class="clusterblast-orf" id="dummy-1_h1_6_54"  />
</g>
<g id="a1_0055"  >
<polygon points="732,85 735,80 735,90 732,85 " style="fill:#b9d815; stroke-width:1; stroke:black; " description="&lt;b&gt;BLU01_RS22780&lt;/b&gt;&lt;br&gt;vanillate O-demethylase oxidoreductase VanB&lt;br&gt;Location: 5003666 - 5003178&lt;br&gt;&lt;br&gt;&lt;b&gt;BlastP hit with ctg6_177&lt;/b&gt;&lt;br&gt;Percentage identity: 90&lt;br&gt;Percentage coverage: 100&lt;br&gt;BLAST bit score: 306&lt;br&gt;E-value: 1.9e-81" locus_tag="BLU01_RS22780" class="clusterblast-orf" id="dummy-1_h1_6_55"  />
</g>
<g id="a1_0056"  >
<polygon points="737,90 739,85 737,80 737,90 " style="fill:#93d815; stroke-width:1; stroke:black; " description="&lt;b&gt;BLU01_RS22775&lt;/b&gt;&lt;br&gt;DUF1311 domain-containing protein&lt;br&gt;Location: 5002840 - 5002439&lt;br&gt;&lt;br&gt;&lt;b&gt;BlastP hit with ctg6_182&lt;/b&gt;&lt;br&gt;Percentage identity: 85&lt;br&gt;Percentage coverage: 97&lt;br&gt;BLAST bit score: 228&lt;br&gt;E-value: 3.2e-58" locus_tag="BLU01_RS22775" class="clusterblast-orf" id="dummy-1_h1_6_56"  />
</g>
<g id="a1_0057"  >
<polygon points="740,85 745,80 746,80 746,90 745,90 740,85 " style="fill:white; stroke-width:1; stroke:black; " description="&lt;b&gt;BLU01_RS22770&lt;/b&gt;&lt;br&gt;histone deacetylase family protein&lt;br&gt;Location: 5002293 - 5001268" locus_tag="BLU01_RS22770" class="clusterblast-orf" id="dummy-1_h1_6_57"  />
</g>
<g id="a1_0058"  >
<polygon points="747,85 752,80 754,80 754,90 752,90 747,85 " style="fill:white; stroke-width:1; stroke:black; " description="&lt;b&gt;BLU01_RS22765&lt;/b&gt;&lt;br&gt;Zn-dependent hydrolase&lt;br&gt;Location: 5001135 - 4999906" locus_tag="BLU01_RS22765" class="clusterblast-orf" id="dummy-1_h1_6_58"  />
</g>
<g id="a1_0059"  >
<polygon points="754,85 759,80 762,80 762,90 759,90 754,85 " style="fill:white; stroke-width:1; stroke:black; " description="&lt;b&gt;BLU01_RS22760&lt;/b&gt;&lt;br&gt;MFS transporter&lt;br&gt;Location: 4999883 - 4998573" locus_tag="BLU01_RS22760" class="clusterblast-orf" id="dummy-1_h1_6_59"  />
</g>
<g id="a1_0060"  >
<polygon points="763,90 763,90 768,85 763,80 763,80 763,90 " style="fill:white; stroke-width:1; stroke:black; " description="&lt;b&gt;BLU01_RS22755&lt;/b&gt;&lt;br&gt;LysR family transcriptional regulator&lt;br&gt;Location: 4998409 - 4997474" locus_tag="BLU01_RS22755" class="clusterblast-orf" id="dummy-1_h1_6_60"  />
</g>
<g id="a1_0061"  >
<polygon points="768,85 773,80 780,80 780,90 773,90 768,85 " style="fill:white; stroke-width:1; stroke:black; " description="&lt;b&gt;BLU01_RS22750&lt;/b&gt;&lt;br&gt;penicillin-binding protein 2&lt;br&gt;Location: 4997428 - 4995536" locus_tag="BLU01_RS22750" class="clusterblast-orf" id="dummy-1_h1_6_61"  />
</g>
</svg>
