<svg xmlns="http://www.w3.org/2000/svg" xmlns:xlink="http://www.w3.org/1999/xlink" version="1.1" x="0" y="0" height="230" width="800" viewBox="0 0 800 230" preserveAspectRatio="none"  >
<g label="Query sequence" class="clusterblast-cluster"  >
<text x="5" y="20" class="clusterblast-acc"  >
Query sequence</text>
<line x1="10" y1="35" x2="778.0" y2="35" style="stroke-width:1; stroke:grey; "  />
<polygon points="0,40 22,40 27,35 22,30 0,30 0,40 " style="fill:#d81515; stroke-width:1; stroke:black; " description="&lt;b&gt;ctg4_256&lt;/b&gt;&lt;br&gt;ctg4 256&lt;br&gt;Location: 315122 - 316586" locus_tag="ctg4_256" class="clusterblast-orf" id="dummy-1_q0_0_all"  />
<polygon points="27,35 31,30 31,40 27,35 " style="fill:#6fd815; stroke-width:1; stroke:black; " description="&lt;b&gt;ctg4_257&lt;/b&gt;&lt;br&gt;ctg4 257&lt;br&gt;Location: 316588 - 316825" locus_tag="ctg4_257" class="clusterblast-orf" id="dummy-1_q1_0_all"  />
<polygon points="35,40 38,40 43,35 38,30 35,30 35,40 " style="fill:#15c9d8; stroke-width:1; stroke:black; " description="&lt;b&gt;ctg4_258&lt;/b&gt;&lt;br&gt;ctg4 258&lt;br&gt;Location: 317041 - 317476" locus_tag="ctg4_258" class="clusterblast-orf" id="dummy-1_q2_0_all"  />
<polygon points="46,35 51,30 60,30 60,40 51,40 46,35 " style="fill:#8d15d8; stroke-width:1; stroke:black; " description="&lt;b&gt;ctg4_259&lt;/b&gt;&lt;br&gt;ctg4 259&lt;br&gt;Location: 317609 - 318380" locus_tag="ctg4_259" class="clusterblast-orf" id="dummy-1_q3_0_all"  />
<polygon points="67,40 75,40 80,35 75,30 67,30 67,40 " style="fill:#d83315; stroke-width:1; stroke:black; " description="&lt;b&gt;ctg4_260&lt;/b&gt;&lt;br&gt;ctg4 260&lt;br&gt;Location: 318743 - 319463" locus_tag="ctg4_260" class="clusterblast-orf" id="dummy-1_q4_0_all"  />
<polygon points="80,40 90,40 95,35 90,30 80,30 80,40 " style="fill:#51d815; stroke-width:1; stroke:black; " description="&lt;b&gt;ctg4_261&lt;/b&gt;&lt;br&gt;ctg4 261&lt;br&gt;Location: 319438 - 320248" locus_tag="ctg4_261" class="clusterblast-orf" id="dummy-1_q5_0_all"  />
<polygon points="95,40 99,35 95,30 95,40 " style="fill:#15abd8; stroke-width:1; stroke:black; " description="&lt;b&gt;ctg4_262&lt;/b&gt;&lt;br&gt;ctg4 262&lt;br&gt;Location: 320228 - 320489" locus_tag="ctg4_262" class="clusterblast-orf" id="dummy-1_q6_0_all"  />
<polygon points="100,40 104,35 100,30 100,40 " style="fill:#ab15d8; stroke-width:1; stroke:black; " description="&lt;b&gt;ctg4_263&lt;/b&gt;&lt;br&gt;ctg4 263&lt;br&gt;Location: 320498 - 320753" locus_tag="ctg4_263" class="clusterblast-orf" id="dummy-1_q7_0_all"  />
<polygon points="104,40 109,40 114,35 109,30 104,30 104,40 " style="fill:#d85115; stroke-width:1; stroke:black; " description="&lt;b&gt;ctg4_264&lt;/b&gt;&lt;br&gt;ctg4 264&lt;br&gt;Location: 320749 - 321295" locus_tag="ctg4_264" class="clusterblast-orf" id="dummy-1_q8_0_all"  />
<polygon points="114,40 141,40 146,35 141,30 114,30 114,40 " style="fill:#33d815; stroke-width:1; stroke:black; " description="&lt;b&gt;ctg4_265&lt;/b&gt;&lt;br&gt;ctg4 265&lt;br&gt;Location: 321291 - 322971" locus_tag="ctg4_265" class="clusterblast-orf" id="dummy-1_q9_0_all"  />
<polygon points="147,40 157,40 162,35 157,30 147,30 147,40 " style="fill:#158dd8; stroke-width:1; stroke:black; " description="&lt;b&gt;ctg4_266&lt;/b&gt;&lt;br&gt;ctg4 266&lt;br&gt;Location: 323060 - 323870" locus_tag="ctg4_266" class="clusterblast-orf" id="dummy-1_q10_0_all"  />
<polygon points="162,40 175,40 180,35 175,30 162,30 162,40 " style="fill:#c915d8; stroke-width:1; stroke:black; " description="&lt;b&gt;ctg4_267&lt;/b&gt;&lt;br&gt;ctg4 267&lt;br&gt;Location: 323866 - 324814" locus_tag="ctg4_267" class="clusterblast-orf" id="dummy-1_q11_0_all"  />
<polygon points="179,40 203,40 208,35 203,30 179,30 179,40 " style="fill:#d86f15; stroke-width:1; stroke:black; " description="&lt;b&gt;ctg4_268&lt;/b&gt;&lt;br&gt;ctg4 268&lt;br&gt;Location: 324794 - 326339" locus_tag="ctg4_268" class="clusterblast-orf" id="dummy-1_q12_0_all"  />
<polygon points="208,40 211,40 216,35 211,30 208,30 208,40 " style="fill:#15d815; stroke-width:1; stroke:black; " description="&lt;b&gt;ctg4_269&lt;/b&gt;&lt;br&gt;ctg4 269&lt;br&gt;Location: 326331 - 326757" locus_tag="ctg4_269" class="clusterblast-orf" id="dummy-1_q13_0_all"  />
<polygon points="216,40 224,40 229,35 224,30 216,30 216,40 " style="fill:#156fd8; stroke-width:1; stroke:black; " description="&lt;b&gt;ctg4_270&lt;/b&gt;&lt;br&gt;ctg4 270&lt;br&gt;Location: 326753 - 327488" locus_tag="ctg4_270" class="clusterblast-orf" id="dummy-1_q14_0_all"  />
<polygon points="229,40 268,40 273,35 268,30 229,30 229,40 " style="fill:#d815c9; stroke-width:1; stroke:black; " description="&lt;b&gt;ctg4_271&lt;/b&gt;&lt;br&gt;ctg4 271&lt;br&gt;Location: 327471 - 329814" locus_tag="ctg4_271" class="clusterblast-orf" id="dummy-1_q15_0_all"  />
<polygon points="273,40 289,40 294,35 289,30 273,30 273,40 " style="fill:#d88d15; stroke-width:1; stroke:black; " description="&lt;b&gt;ctg4_272&lt;/b&gt;&lt;br&gt;ctg4 272&lt;br&gt;Location: 329810 - 330971" locus_tag="ctg4_272" class="clusterblast-orf" id="dummy-1_q16_0_all"  />
<polygon points="294,40 312,40 317,35 312,30 294,30 294,40 " style="fill:#15d833; stroke-width:1; stroke:black; " description="&lt;b&gt;ctg4_273&lt;/b&gt;&lt;br&gt;ctg4 273&lt;br&gt;Location: 330957 - 332205" locus_tag="ctg4_273" class="clusterblast-orf" id="dummy-1_q17_0_all"  />
<polygon points="317,40 325,40 330,35 325,30 317,30 317,40 " style="fill:#1551d8; stroke-width:1; stroke:black; " description="&lt;b&gt;ctg4_274&lt;/b&gt;&lt;br&gt;ctg4 274&lt;br&gt;Location: 332201 - 332927" locus_tag="ctg4_274" class="clusterblast-orf" id="dummy-1_q18_0_all"  />
<polygon points="330,40 337,40 342,35 337,30 330,30 330,40 " style="fill:#d815ab; stroke-width:1; stroke:black; " description="&lt;b&gt;ctg4_275&lt;/b&gt;&lt;br&gt;ctg4 275&lt;br&gt;Location: 332926 - 333547" locus_tag="ctg4_275" class="clusterblast-orf" id="dummy-1_q19_0_all"  />
<polygon points="342,40 359,40 364,35 359,30 342,30 342,40 " style="fill:#d8ab15; stroke-width:1; stroke:black; " description="&lt;b&gt;ctg4_276&lt;/b&gt;&lt;br&gt;ctg4 276&lt;br&gt;Location: 333543 - 334740" locus_tag="ctg4_276" class="clusterblast-orf" id="dummy-1_q20_0_all"  />
<polygon points="364,40 368,40 373,35 368,30 364,30 364,40 " style="fill:#15d851; stroke-width:1; stroke:black; " description="&lt;b&gt;ctg4_277&lt;/b&gt;&lt;br&gt;ctg4 277&lt;br&gt;Location: 334736 - 335195" locus_tag="ctg4_277" class="clusterblast-orf" id="dummy-1_q21_0_all"  />
<polygon points="373,40 381,40 386,35 381,30 373,30 373,40 " style="fill:#1533d8; stroke-width:1; stroke:black; " description="&lt;b&gt;ctg4_278&lt;/b&gt;&lt;br&gt;ctg4 278&lt;br&gt;Location: 335194 - 335923" locus_tag="ctg4_278" class="clusterblast-orf" id="dummy-1_q22_0_all"  />
<polygon points="386,40 404,40 409,35 404,30 386,30 386,40 " style="fill:#d8ab15; stroke-width:1; stroke:black; " description="&lt;b&gt;ctg4_279&lt;/b&gt;&lt;br&gt;ctg4 279&lt;br&gt;Location: 335922 - 337149" locus_tag="ctg4_279" class="clusterblast-orf" id="dummy-1_q23_0_all"  />
<polygon points="409,40 413,40 418,35 413,30 409,30 409,40 " style="fill:#d8158d; stroke-width:1; stroke:black; " description="&lt;b&gt;ctg4_280&lt;/b&gt;&lt;br&gt;ctg4 280&lt;br&gt;Location: 337178 - 337625" locus_tag="ctg4_280" class="clusterblast-orf" id="dummy-1_q24_0_all"  />
<polygon points="423,35 428,30 440,30 440,40 428,40 423,35 " style="fill:#d8c915; stroke-width:1; stroke:black; " description="&lt;b&gt;ctg4_281&lt;/b&gt;&lt;br&gt;ctg4 281&lt;br&gt;Location: 337929 - 338808" locus_tag="ctg4_281" class="clusterblast-orf" id="dummy-1_q25_0_all"  />
<polygon points="440,35 445,30 451,30 451,40 445,40 440,35 " style="fill:#15d86f; stroke-width:1; stroke:black; " description="&lt;b&gt;ctg4_282&lt;/b&gt;&lt;br&gt;ctg4 282&lt;br&gt;Location: 338800 - 339397" locus_tag="ctg4_282" class="clusterblast-orf" id="dummy-1_q26_0_all"  />
<polygon points="459,40 461,40 466,35 461,30 459,30 459,40 " style="fill:#1515d8; stroke-width:1; stroke:black; " description="&lt;b&gt;ctg4_283&lt;/b&gt;&lt;br&gt;ctg4 283&lt;br&gt;Location: 339852 - 340236" locus_tag="ctg4_283" class="clusterblast-orf" id="dummy-1_q27_0_all"  />
<polygon points="467,40 467,40 472,35 467,30 467,30 467,40 " style="fill:#d8156f; stroke-width:1; stroke:black; " description="&lt;b&gt;ctg4_284&lt;/b&gt;&lt;br&gt;ctg4 284&lt;br&gt;Location: 340273 - 340528" locus_tag="ctg4_284" class="clusterblast-orf" id="dummy-1_q28_0_all"  />
<polygon points="475,35 479,30 479,40 475,35 " style="fill:#c9d815; stroke-width:1; stroke:black; " description="&lt;b&gt;ctg4_285&lt;/b&gt;&lt;br&gt;ctg4 285&lt;br&gt;Location: 340717 - 340909" locus_tag="ctg4_285" class="clusterblast-orf" id="dummy-1_q29_0_all"  />
<polygon points="482,35 487,30 498,30 498,40 487,40 482,35 " style="fill:#15d88d; stroke-width:1; stroke:black; " description="&lt;b&gt;ctg4_286&lt;/b&gt;&lt;br&gt;ctg4 286&lt;br&gt;Location: 341059 - 341962" locus_tag="ctg4_286" class="clusterblast-orf" id="dummy-1_q30_0_all"  />
<polygon points="500,40 519,40 524,35 519,30 500,30 500,40 " style="fill:#3315d8; stroke-width:1; stroke:black; " description="&lt;b&gt;ctg4_287&lt;/b&gt;&lt;br&gt;ctg4 287&lt;br&gt;Location: 342035 - 343355" locus_tag="ctg4_287" class="clusterblast-orf" id="dummy-1_q31_0_all"  />
<polygon points="528,35 533,30 547,30 547,40 533,40 528,35 " style="fill:#d81551; stroke-width:1; stroke:black; " description="&lt;b&gt;ctg4_288&lt;/b&gt;&lt;br&gt;ctg4 288&lt;br&gt;Location: 343531 - 344599" locus_tag="ctg4_288" class="clusterblast-orf" id="dummy-1_q32_0_all"  />
<polygon points="552,35 557,30 578,30 578,40 557,40 552,35 " style="fill:#abd815; stroke-width:1; stroke:black; " description="&lt;b&gt;ctg4_289&lt;/b&gt;&lt;br&gt;ctg4 289&lt;br&gt;Location: 344851 - 346270" locus_tag="ctg4_289" class="clusterblast-orf" id="dummy-1_q33_0_all"  />
<polygon points="579,35 584,30 662,30 662,40 584,40 579,35 " style="fill:#15d8ab; stroke-width:1; stroke:black; " description="&lt;b&gt;ctg4_290&lt;/b&gt;&lt;br&gt;ctg4 290&lt;br&gt;Location: 346303 - 350749" locus_tag="ctg4_290" class="clusterblast-orf" id="dummy-1_q34_0_all"  />
<polygon points="668,35 673,30 698,30 698,40 673,40 668,35 " style="fill:#5115d8; stroke-width:1; stroke:black; " description="&lt;b&gt;ctg4_291&lt;/b&gt;&lt;br&gt;ctg4 291&lt;br&gt;Location: 351099 - 352689" locus_tag="ctg4_291" class="clusterblast-orf" id="dummy-1_q35_0_all"  />
<polygon points="698,35 703,30 718,30 718,40 703,40 698,35 " style="fill:#d81533; stroke-width:1; stroke:black; " description="&lt;b&gt;ctg4_292&lt;/b&gt;&lt;br&gt;ctg4 292&lt;br&gt;Location: 352699 - 353800" locus_tag="ctg4_292" class="clusterblast-orf" id="dummy-1_q36_0_all"  />
<polygon points="721,35 726,30 730,30 730,40 726,40 721,35 " style="fill:#8dd815; stroke-width:1; stroke:black; " description="&lt;b&gt;ctg4_293&lt;/b&gt;&lt;br&gt;ctg4 293&lt;br&gt;Location: 353951 - 354443" locus_tag="ctg4_293" class="clusterblast-orf" id="dummy-1_q37_0_all"  />
<polygon points="731,35 736,30 770,30 770,40 736,40 731,35 " style="fill:#15d8c9; stroke-width:1; stroke:black; " description="&lt;b&gt;ctg4_294&lt;/b&gt;&lt;br&gt;ctg4 294&lt;br&gt;Location: 354474 - 356562" locus_tag="ctg4_294" class="clusterblast-orf" id="dummy-1_q38_0_all"  />
<polygon points="770,35 775,30 780,30 780,40 775,40 770,35 " style="fill:#6f15d8; stroke-width:1; stroke:black; " description="&lt;b&gt;ctg4_295&lt;/b&gt;&lt;br&gt;ctg4 295&lt;br&gt;Location: 356575 - 357103" locus_tag="ctg4_295" class="clusterblast-orf" id="dummy-1_q39_0_all"  />
</g>
<g label="NZ_AKJN02000002" description="NZ_AKJN02000002_c6: Pseudomonas sp. GM41(2012) ctg11, whole genome shotgun se... (85% of genes show similarity), arylpolyene" class="clusterblast-cluster"  >
<text x="5" y="70" class="clusterblast-acc"  >
<a xlink:href="https://antismash-db.secondarymetabolites.org/go/NZ_AKJN02000002/6" target="_blank">NZ_AKJN02000002_c6</a>: Pseudomonas sp. GM41(2012) ctg11, whole genome shotgun se... (85% of genes show similarity), arylpolyene</text>
<line x1="10" y1="85" x2="778.0" y2="85" style="stroke-width:1; stroke:grey; "  />
</g>
<g id="a1_000"  >
<polygon points="3,90 25,90 30,85 25,80 3,80 3,90 " style="fill:#d81515; stroke-width:1; stroke:black; " description="&lt;b&gt;PMI27_RS28275&lt;/b&gt;&lt;br&gt;YdiU family protein&lt;br&gt;Location: 141021 - 142484&lt;br&gt;&lt;br&gt;&lt;b&gt;BlastP hit with ctg4_256&lt;/b&gt;&lt;br&gt;Percentage identity: 94&lt;br&gt;Percentage coverage: 100&lt;br&gt;BLAST bit score: 941&lt;br&gt;E-value: 4.7e-272" locus_tag="PMI27_RS28275" class="clusterblast-orf" id="dummy-1_h1_8_0"  />
</g>
<g id="a1_001"  >
<polygon points="30,85 35,80 35,80 35,90 35,90 30,85 " style="fill:#6fd815; stroke-width:1; stroke:black; " description="&lt;b&gt;PMI27_RS28270&lt;/b&gt;&lt;br&gt;hypothetical protein&lt;br&gt;Location: 142502 - 142723&lt;br&gt;&lt;br&gt;&lt;b&gt;BlastP hit with ctg4_257&lt;/b&gt;&lt;br&gt;Percentage identity: 62&lt;br&gt;Percentage coverage: 91&lt;br&gt;BLAST bit score: 91&lt;br&gt;E-value: 4.7e-17" locus_tag="PMI27_RS28270" class="clusterblast-orf" id="dummy-1_h1_8_1"  />
</g>
<g id="a1_002"  >
<polygon points="38,90 41,90 46,85 41,80 38,80 38,90 " style="fill:#15c9d8; stroke-width:1; stroke:black; " description="&lt;b&gt;PMI27_RS28265&lt;/b&gt;&lt;br&gt;thioredoxin TrxC&lt;br&gt;Location: 142927 - 143361&lt;br&gt;&lt;br&gt;&lt;b&gt;BlastP hit with ctg4_258&lt;/b&gt;&lt;br&gt;Percentage identity: 94&lt;br&gt;Percentage coverage: 100&lt;br&gt;BLAST bit score: 289&lt;br&gt;E-value: 2.9e-76" locus_tag="PMI27_RS28265" class="clusterblast-orf" id="dummy-1_h1_8_2"  />
</g>
<g id="a1_003"  >
<polygon points="49,85 54,80 63,80 63,90 54,90 49,85 " style="fill:#8d15d8; stroke-width:1; stroke:black; " description="&lt;b&gt;PMI27_RS28260&lt;/b&gt;&lt;br&gt;ParA family protein&lt;br&gt;Location: 143493 - 144263&lt;br&gt;&lt;br&gt;&lt;b&gt;BlastP hit with ctg4_259&lt;/b&gt;&lt;br&gt;Percentage identity: 98&lt;br&gt;Percentage coverage: 100&lt;br&gt;BLAST bit score: 494&lt;br&gt;E-value: 6.1e-138" locus_tag="PMI27_RS28260" class="clusterblast-orf" id="dummy-1_h1_8_3"  />
</g>
<g id="a1_004"  >
<polygon points="70,90 78,90 83,85 78,80 70,80 70,90 " style="fill:#d83315; stroke-width:1; stroke:black; " description="&lt;b&gt;PMI27_RS28255&lt;/b&gt;&lt;br&gt;3-oxoacyl-ACP synthase&lt;br&gt;Location: 144618 - 145343&lt;br&gt;&lt;br&gt;&lt;b&gt;BlastP hit with ctg4_260&lt;/b&gt;&lt;br&gt;Percentage identity: 94&lt;br&gt;Percentage coverage: 100&lt;br&gt;BLAST bit score: 466&lt;br&gt;E-value: 2.2e-129" locus_tag="PMI27_RS28255" class="clusterblast-orf" id="dummy-1_h1_8_4"  />
</g>
<g id="a1_005"  >
<polygon points="83,90 93,90 98,85 93,80 83,80 83,90 " style="fill:#51d815; stroke-width:1; stroke:black; " description="&lt;b&gt;PMI27_RS28250&lt;/b&gt;&lt;br&gt;1-acyl-sn-glycerol-3-phosphate acyltransferase&lt;br&gt;Location: 145319 - 146128&lt;br&gt;&lt;br&gt;&lt;b&gt;BlastP hit with ctg4_261&lt;/b&gt;&lt;br&gt;Percentage identity: 90&lt;br&gt;Percentage coverage: 100&lt;br&gt;BLAST bit score: 503&lt;br&gt;E-value: 1.4e-140" locus_tag="PMI27_RS28250" class="clusterblast-orf" id="dummy-1_h1_8_5"  />
</g>
<g id="a1_006"  >
<polygon points="97,90 97,90 102,85 97,80 97,80 97,90 " style="fill:#15abd8; stroke-width:1; stroke:black; " description="&lt;b&gt;PMI27_RS28245&lt;/b&gt;&lt;br&gt;acyl carrier protein&lt;br&gt;Location: 146109 - 146369&lt;br&gt;&lt;br&gt;&lt;b&gt;BlastP hit with ctg4_262&lt;/b&gt;&lt;br&gt;Percentage identity: 97&lt;br&gt;Percentage coverage: 100&lt;br&gt;BLAST bit score: 161&lt;br&gt;E-value: 5.4e-38" locus_tag="PMI27_RS28245" class="clusterblast-orf" id="dummy-1_h1_8_6"  />
</g>
<g id="a1_007"  >
<polygon points="102,90 102,90 107,85 102,80 102,80 102,90 " style="fill:#ab15d8; stroke-width:1; stroke:black; " description="&lt;b&gt;PMI27_RS28240&lt;/b&gt;&lt;br&gt;acyl carrier protein&lt;br&gt;Location: 146379 - 146633&lt;br&gt;&lt;br&gt;&lt;b&gt;BlastP hit with ctg4_263&lt;/b&gt;&lt;br&gt;Percentage identity: 100&lt;br&gt;Percentage coverage: 100&lt;br&gt;BLAST bit score: 161&lt;br&gt;E-value: 5.3e-38" locus_tag="PMI27_RS28240" class="clusterblast-orf" id="dummy-1_h1_8_7"  />
</g>
<g id="a1_008"  >
<polygon points="107,90 112,90 117,85 112,80 107,80 107,90 " style="fill:#d85115; stroke-width:1; stroke:black; " description="&lt;b&gt;PMI27_RS28235&lt;/b&gt;&lt;br&gt;membrane protein&lt;br&gt;Location: 146630 - 147175&lt;br&gt;&lt;br&gt;&lt;b&gt;BlastP hit with ctg4_264&lt;/b&gt;&lt;br&gt;Percentage identity: 88&lt;br&gt;Percentage coverage: 100&lt;br&gt;BLAST bit score: 328&lt;br&gt;E-value: 5.4e-88" locus_tag="PMI27_RS28235" class="clusterblast-orf" id="dummy-1_h1_8_8"  />
</g>
<g id="a1_009"  >
<polygon points="117,90 143,90 148,85 143,80 117,80 117,90 " style="fill:#33d815; stroke-width:1; stroke:black; " description="&lt;b&gt;PMI27_RS28230&lt;/b&gt;&lt;br&gt;AMP-binding protein&lt;br&gt;Location: 147172 - 148854&lt;br&gt;&lt;br&gt;&lt;b&gt;BlastP hit with ctg4_265&lt;/b&gt;&lt;br&gt;Percentage identity: 91&lt;br&gt;Percentage coverage: 100&lt;br&gt;BLAST bit score: 1015&lt;br&gt;E-value: 2.9e-294" locus_tag="PMI27_RS28230" class="clusterblast-orf" id="dummy-1_h1_8_9"  />
</g>
<g id="a1_0010"  >
<polygon points="151,90 160,90 165,85 160,80 151,80 151,90 " style="fill:#158dd8; stroke-width:1; stroke:black; " description="&lt;b&gt;PMI27_RS28225&lt;/b&gt;&lt;br&gt;glycosyltransferase family 2 protein&lt;br&gt;Location: 148986 - 149720&lt;br&gt;&lt;br&gt;&lt;b&gt;BlastP hit with ctg4_266&lt;/b&gt;&lt;br&gt;Percentage identity: 90&lt;br&gt;Percentage coverage: 90&lt;br&gt;BLAST bit score: 456&lt;br&gt;E-value: 2.5e-126" locus_tag="PMI27_RS28225" class="clusterblast-orf" id="dummy-1_h1_8_10"  />
</g>
<g id="a1_0011"  >
<polygon points="164,90 177,90 182,85 177,80 164,80 164,90 " style="fill:#c915d8; stroke-width:1; stroke:black; " description="&lt;b&gt;PMI27_RS28220&lt;/b&gt;&lt;br&gt;glycosyl transferase&lt;br&gt;Location: 149717 - 150664&lt;br&gt;&lt;br&gt;&lt;b&gt;BlastP hit with ctg4_267&lt;/b&gt;&lt;br&gt;Percentage identity: 95&lt;br&gt;Percentage coverage: 100&lt;br&gt;BLAST bit score: 631&lt;br&gt;E-value: 6.7e-179" locus_tag="PMI27_RS28220" class="clusterblast-orf" id="dummy-1_h1_8_11"  />
</g>
<g id="a1_0012"  >
<polygon points="182,90 205,90 210,85 205,80 182,80 182,90 " style="fill:#d86f15; stroke-width:1; stroke:black; " description="&lt;b&gt;PMI27_RS28215&lt;/b&gt;&lt;br&gt;aromatic amino acid lyase&lt;br&gt;Location: 150645 - 152189&lt;br&gt;&lt;br&gt;&lt;b&gt;BlastP hit with ctg4_268&lt;/b&gt;&lt;br&gt;Percentage identity: 97&lt;br&gt;Percentage coverage: 100&lt;br&gt;BLAST bit score: 1000&lt;br&gt;E-value: 5.3e-290" locus_tag="PMI27_RS28215" class="clusterblast-orf" id="dummy-1_h1_8_12"  />
</g>
<g id="a1_0013"  >
<polygon points="210,90 213,90 218,85 213,80 210,80 210,90 " style="fill:#15d815; stroke-width:1; stroke:black; " description="&lt;b&gt;PMI27_RS28210&lt;/b&gt;&lt;br&gt;acyl-CoA thioesterase&lt;br&gt;Location: 152182 - 152607&lt;br&gt;&lt;br&gt;&lt;b&gt;BlastP hit with ctg4_269&lt;/b&gt;&lt;br&gt;Percentage identity: 94&lt;br&gt;Percentage coverage: 99&lt;br&gt;BLAST bit score: 272&lt;br&gt;E-value: 2.1e-71" locus_tag="PMI27_RS28210" class="clusterblast-orf" id="dummy-1_h1_8_13"  />
</g>
<g id="a1_0014"  >
<polygon points="218,90 224,90 229,85 224,80 218,80 218,90 " style="fill:#156fd8; stroke-width:1; stroke:black; " description="&lt;b&gt;PMI27_RS28205&lt;/b&gt;&lt;br&gt;outer membrane lipoprotein carrier protein LolA&lt;br&gt;Location: 152604 - 153206&lt;br&gt;&lt;br&gt;&lt;b&gt;BlastP hit with ctg4_270&lt;/b&gt;&lt;br&gt;Percentage identity: 89&lt;br&gt;Percentage coverage: 79&lt;br&gt;BLAST bit score: 342&lt;br&gt;E-value: 3.7e-92" locus_tag="PMI27_RS28205" class="clusterblast-orf" id="dummy-1_h1_8_14"  />
</g>
<g id="a1_0015"  >
<polygon points="229,90 267,90 272,85 267,80 229,80 229,90 " style="fill:#d815c9; stroke-width:1; stroke:black; " description="&lt;b&gt;PMI27_RS28200&lt;/b&gt;&lt;br&gt;membrane protein&lt;br&gt;Location: 153190 - 155529&lt;br&gt;&lt;br&gt;&lt;b&gt;BlastP hit with ctg4_271&lt;/b&gt;&lt;br&gt;Percentage identity: 93&lt;br&gt;Percentage coverage: 100&lt;br&gt;BLAST bit score: 1367&lt;br&gt;E-value: 0.0" locus_tag="PMI27_RS28200" class="clusterblast-orf" id="dummy-1_h1_8_15"  />
</g>
<g id="a1_0016"  >
<polygon points="272,90 289,90 294,85 289,80 272,80 272,90 " style="fill:#d88d15; stroke-width:1; stroke:black; " description="&lt;b&gt;PMI27_RS28195&lt;/b&gt;&lt;br&gt;hypothetical protein&lt;br&gt;Location: 155526 - 156686&lt;br&gt;&lt;br&gt;&lt;b&gt;BlastP hit with ctg4_272&lt;/b&gt;&lt;br&gt;Percentage identity: 88&lt;br&gt;Percentage coverage: 100&lt;br&gt;BLAST bit score: 645&lt;br&gt;E-value: 3.2e-183" locus_tag="PMI27_RS28195" class="clusterblast-orf" id="dummy-1_h1_8_16"  />
</g>
<g id="a1_0017"  >
<polygon points="294,90 312,90 317,85 312,80 294,80 294,90 " style="fill:#15d833; stroke-width:1; stroke:black; " description="&lt;b&gt;PMI27_RS28190&lt;/b&gt;&lt;br&gt;NAD(P)/FAD-dependent oxidoreductase&lt;br&gt;Location: 156673 - 157920&lt;br&gt;&lt;br&gt;&lt;b&gt;BlastP hit with ctg4_273&lt;/b&gt;&lt;br&gt;Percentage identity: 90&lt;br&gt;Percentage coverage: 100&lt;br&gt;BLAST bit score: 787&lt;br&gt;E-value: 7.4e-226" locus_tag="PMI27_RS28190" class="clusterblast-orf" id="dummy-1_h1_8_17"  />
</g>
<g id="a1_0018"  >
<polygon points="317,90 325,90 330,85 325,80 317,80 317,90 " style="fill:#1551d8; stroke-width:1; stroke:black; " description="&lt;b&gt;PMI27_RS28185&lt;/b&gt;&lt;br&gt;class I SAM-dependent methyltransferase&lt;br&gt;Location: 157917 - 158642&lt;br&gt;&lt;br&gt;&lt;b&gt;BlastP hit with ctg4_274&lt;/b&gt;&lt;br&gt;Percentage identity: 90&lt;br&gt;Percentage coverage: 100&lt;br&gt;BLAST bit score: 462&lt;br&gt;E-value: 4.1e-128" locus_tag="PMI27_RS28185" class="clusterblast-orf" id="dummy-1_h1_8_18"  />
</g>
<g id="a1_0019"  >
<polygon points="330,90 337,90 342,85 337,80 330,80 330,90 " style="fill:#d815ab; stroke-width:1; stroke:black; " description="&lt;b&gt;PMI27_RS0228990&lt;/b&gt;&lt;br&gt;hypothetical protein&lt;br&gt;Location: 158642 - 159247&lt;br&gt;&lt;br&gt;&lt;b&gt;BlastP hit with ctg4_275&lt;/b&gt;&lt;br&gt;Percentage identity: 77&lt;br&gt;Percentage coverage: 94&lt;br&gt;BLAST bit score: 309&lt;br&gt;E-value: 3.8e-82" locus_tag="PMI27_RS0228990" class="clusterblast-orf" id="dummy-1_h1_8_19"  />
</g>
<g id="a1_0020"  >
<polygon points="341,90 359,90 364,85 359,80 341,80 341,90 " style="fill:#d8ab15; stroke-width:1; stroke:black; " description="&lt;b&gt;PMI27_RS28180&lt;/b&gt;&lt;br&gt;beta-ketoacyl-[acyl-carrier-protein] synthase II&lt;br&gt;Location: 159244 - 160440&lt;br&gt;&lt;br&gt;&lt;b&gt;BlastP hit with ctg4_276&lt;/b&gt;&lt;br&gt;Percentage identity: 88&lt;br&gt;Percentage coverage: 100&lt;br&gt;BLAST bit score: 700&lt;br&gt;E-value: 1.5e-199&lt;br&gt;&lt;br&gt;&lt;b&gt;BlastP hit with ctg4_279&lt;/b&gt;&lt;br&gt;Percentage identity: 31&lt;br&gt;Percentage coverage: 100&lt;br&gt;BLAST bit score: 138&lt;br&gt;E-value: 1.4e-30" locus_tag="PMI27_RS28180" class="clusterblast-orf" id="dummy-1_h1_8_20"  />
</g>
<g id="a1_0021"  >
<polygon points="364,90 367,90 372,85 367,80 364,80 364,90 " style="fill:#15d851; stroke-width:1; stroke:black; " description="&lt;b&gt;PMI27_RS28175&lt;/b&gt;&lt;br&gt;3-hydroxylacyl-ACP dehydratase&lt;br&gt;Location: 160437 - 160898&lt;br&gt;&lt;br&gt;&lt;b&gt;BlastP hit with ctg4_277&lt;/b&gt;&lt;br&gt;Percentage identity: 91&lt;br&gt;Percentage coverage: 100&lt;br&gt;BLAST bit score: 299&lt;br&gt;E-value: 1.7e-79" locus_tag="PMI27_RS28175" class="clusterblast-orf" id="dummy-1_h1_8_21"  />
</g>
<g id="a1_0022"  >
<polygon points="372,90 381,90 386,85 381,80 372,80 372,90 " style="fill:#1533d8; stroke-width:1; stroke:black; " description="&lt;b&gt;PMI27_RS28170&lt;/b&gt;&lt;br&gt;3-oxoacyl-ACP reductase FabG&lt;br&gt;Location: 160895 - 161623&lt;br&gt;&lt;br&gt;&lt;b&gt;BlastP hit with ctg4_278&lt;/b&gt;&lt;br&gt;Percentage identity: 96&lt;br&gt;Percentage coverage: 100&lt;br&gt;BLAST bit score: 457&lt;br&gt;E-value: 1e-126" locus_tag="PMI27_RS28170" class="clusterblast-orf" id="dummy-1_h1_8_22"  />
</g>
<g id="a1_0023"  >
<polygon points="386,90 403,90 408,85 403,80 386,80 386,90 " style="fill:#d8ab15; stroke-width:1; stroke:black; " description="&lt;b&gt;PMI27_RS28165&lt;/b&gt;&lt;br&gt;beta-ketoacyl-ACP synthase II&lt;br&gt;Location: 161623 - 162849&lt;br&gt;&lt;br&gt;&lt;b&gt;BlastP hit with ctg4_276&lt;/b&gt;&lt;br&gt;Percentage identity: 33&lt;br&gt;Percentage coverage: 102&lt;br&gt;BLAST bit score: 139&lt;br&gt;E-value: 1e-30&lt;br&gt;&lt;br&gt;&lt;b&gt;BlastP hit with ctg4_279&lt;/b&gt;&lt;br&gt;Percentage identity: 97&lt;br&gt;Percentage coverage: 100&lt;br&gt;BLAST bit score: 804&lt;br&gt;E-value: 7.5e-231" locus_tag="PMI27_RS28165" class="clusterblast-orf" id="dummy-1_h1_8_23"  />
</g>
<g id="a1_0024"  >
<polygon points="412,85 417,80 419,80 419,90 417,90 412,85 " style="fill:white; stroke-width:1; stroke:black; " description="&lt;b&gt;PMI27_RS30080&lt;/b&gt;&lt;br&gt;hypothetical protein&lt;br&gt;Location: 163058 - 163441" locus_tag="PMI27_RS30080" class="clusterblast-orf" id="dummy-1_h1_8_24"  />
</g>
<g id="a1_0025"  >
<polygon points="421,85 426,80 438,80 438,90 426,90 421,85 " style="fill:#15d88d; stroke-width:1; stroke:black; " description="&lt;b&gt;PMI27_RS28160&lt;/b&gt;&lt;br&gt;LysR family transcriptional regulator&lt;br&gt;Location: 163539 - 164435&lt;br&gt;&lt;br&gt;&lt;b&gt;BlastP hit with ctg4_286&lt;/b&gt;&lt;br&gt;Percentage identity: 99&lt;br&gt;Percentage coverage: 99&lt;br&gt;BLAST bit score: 552&lt;br&gt;E-value: 2.9e-155" locus_tag="PMI27_RS28160" class="clusterblast-orf" id="dummy-1_h1_8_25"  />
</g>
<g id="a1_0026"  >
<polygon points="440,90 459,90 464,85 459,80 440,80 440,90 " style="fill:#3315d8; stroke-width:1; stroke:black; " description="&lt;b&gt;PMI27_RS28155&lt;/b&gt;&lt;br&gt;MFS transporter&lt;br&gt;Location: 164554 - 165831&lt;br&gt;&lt;br&gt;&lt;b&gt;BlastP hit with ctg4_287&lt;/b&gt;&lt;br&gt;Percentage identity: 95&lt;br&gt;Percentage coverage: 96&lt;br&gt;BLAST bit score: 757&lt;br&gt;E-value: 6.6e-217" locus_tag="PMI27_RS28155" class="clusterblast-orf" id="dummy-1_h1_8_26"  />
</g>
<g id="a1_0027"  >
<polygon points="465,90 484,90 489,85 484,80 465,80 465,90 " style="fill:white; stroke-width:1; stroke:black; " description="&lt;b&gt;PMI27_RS28150&lt;/b&gt;&lt;br&gt;ATP-binding protein&lt;br&gt;Location: 165910 - 167181" locus_tag="PMI27_RS28150" class="clusterblast-orf" id="dummy-1_h1_8_27"  />
</g>
<g id="a1_0028"  >
<polygon points="489,90 496,90 501,85 496,80 489,80 489,90 " style="fill:white; stroke-width:1; stroke:black; " description="&lt;b&gt;PMI27_RS28145&lt;/b&gt;&lt;br&gt;TIGR02646 family protein&lt;br&gt;Location: 167178 - 167822" locus_tag="PMI27_RS28145" class="clusterblast-orf" id="dummy-1_h1_8_28"  />
</g>
<g id="a1_0029"  >
<polygon points="502,85 507,80 522,80 522,90 507,90 502,85 " style="fill:#d81551; stroke-width:1; stroke:black; " description="&lt;b&gt;PMI27_RS28140&lt;/b&gt;&lt;br&gt;uroporphyrinogen decarboxylase&lt;br&gt;Location: 167879 - 168946&lt;br&gt;&lt;br&gt;&lt;b&gt;BlastP hit with ctg4_288&lt;/b&gt;&lt;br&gt;Percentage identity: 97&lt;br&gt;Percentage coverage: 100&lt;br&gt;BLAST bit score: 712&lt;br&gt;E-value: 2e-203" locus_tag="PMI27_RS28140" class="clusterblast-orf" id="dummy-1_h1_8_29"  />
</g>
<g id="a1_0030"  >
<polygon points="526,85 531,80 553,80 553,90 531,90 526,85 " style="fill:#abd815; stroke-width:1; stroke:black; " description="&lt;b&gt;PMI27_RS28135&lt;/b&gt;&lt;br&gt;glutamate synthase subunit beta&lt;br&gt;Location: 169191 - 170609&lt;br&gt;&lt;br&gt;&lt;b&gt;BlastP hit with ctg4_289&lt;/b&gt;&lt;br&gt;Percentage identity: 99&lt;br&gt;Percentage coverage: 100&lt;br&gt;BLAST bit score: 962&lt;br&gt;E-value: 1.5e-278" locus_tag="PMI27_RS28135" class="clusterblast-orf" id="dummy-1_h1_8_30"  />
</g>
<g id="a1_0031"  >
<polygon points="553,85 558,80 636,80 636,90 558,90 553,85 " style="fill:#15d8ab; stroke-width:1; stroke:black; " description="&lt;b&gt;PMI27_RS28130&lt;/b&gt;&lt;br&gt;glutamate synthase large subunit&lt;br&gt;Location: 170643 - 175088&lt;br&gt;&lt;br&gt;&lt;b&gt;BlastP hit with ctg4_290&lt;/b&gt;&lt;br&gt;Percentage identity: 99&lt;br&gt;Percentage coverage: 100&lt;br&gt;BLAST bit score: 2825&lt;br&gt;E-value: 0.0" locus_tag="PMI27_RS28130" class="clusterblast-orf" id="dummy-1_h1_8_31"  />
</g>
<g id="a1_0032"  >
<polygon points="634,90 636,90 641,85 636,80 634,80 634,90 " style="fill:white; stroke-width:1; stroke:black; " description="&lt;b&gt;PMI27_RS30085&lt;/b&gt;&lt;br&gt;hypothetical protein&lt;br&gt;Location: 175002 - 175341" locus_tag="PMI27_RS30085" class="clusterblast-orf" id="dummy-1_h1_8_32"  />
</g>
<g id="a1_0033"  >
<polygon points="642,85 647,80 672,80 672,90 647,90 642,85 " style="fill:#5115d8; stroke-width:1; stroke:black; " description="&lt;b&gt;PMI27_RS28125&lt;/b&gt;&lt;br&gt;cell division protein&lt;br&gt;Location: 175439 - 177037&lt;br&gt;&lt;br&gt;&lt;b&gt;BlastP hit with ctg4_291&lt;/b&gt;&lt;br&gt;Percentage identity: 94&lt;br&gt;Percentage coverage: 101&lt;br&gt;BLAST bit score: 829&lt;br&gt;E-value: 2.2e-238" locus_tag="PMI27_RS28125" class="clusterblast-orf" id="dummy-1_h1_8_33"  />
</g>
<g id="a1_0034"  >
<polygon points="672,85 677,80 693,80 693,90 677,90 672,85 " style="fill:#d81533; stroke-width:1; stroke:black; " description="&lt;b&gt;PMI27_RS28120&lt;/b&gt;&lt;br&gt;3-dehydroquinate synthase&lt;br&gt;Location: 177048 - 178148&lt;br&gt;&lt;br&gt;&lt;b&gt;BlastP hit with ctg4_292&lt;/b&gt;&lt;br&gt;Percentage identity: 97&lt;br&gt;Percentage coverage: 100&lt;br&gt;BLAST bit score: 712&lt;br&gt;E-value: 2.7e-203" locus_tag="PMI27_RS28120" class="clusterblast-orf" id="dummy-1_h1_8_34"  />
</g>
<g id="a1_0035"  >
<polygon points="696,85 701,80 705,80 705,90 701,90 696,85 " style="fill:#8dd815; stroke-width:1; stroke:black; " description="&lt;b&gt;PMI27_RS28115&lt;/b&gt;&lt;br&gt;shikimate kinase AroK&lt;br&gt;Location: 178300 - 178818&lt;br&gt;&lt;br&gt;&lt;b&gt;BlastP hit with ctg4_293&lt;/b&gt;&lt;br&gt;Percentage identity: 99&lt;br&gt;Percentage coverage: 100&lt;br&gt;BLAST bit score: 321&lt;br&gt;E-value: 4.5e-86" locus_tag="PMI27_RS28115" class="clusterblast-orf" id="dummy-1_h1_8_35"  />
</g>
<g id="a1_0036"  >
<polygon points="705,85 710,80 744,80 744,90 710,90 705,85 " style="fill:#15d8c9; stroke-width:1; stroke:black; " description="&lt;b&gt;PMI27_RS28110&lt;/b&gt;&lt;br&gt;type IV pilus secretin PilQ&lt;br&gt;Location: 178823 - 180910&lt;br&gt;&lt;br&gt;&lt;b&gt;BlastP hit with ctg4_294&lt;/b&gt;&lt;br&gt;Percentage identity: 92&lt;br&gt;Percentage coverage: 100&lt;br&gt;BLAST bit score: 1215&lt;br&gt;E-value: 0.0" locus_tag="PMI27_RS28110" class="clusterblast-orf" id="dummy-1_h1_8_36"  />
</g>
<g id="a1_0037"  >
<polygon points="744,85 749,80 754,80 754,90 749,90 744,85 " style="fill:#6f15d8; stroke-width:1; stroke:black; " description="&lt;b&gt;PMI27_RS28105&lt;/b&gt;&lt;br&gt;pilus assembly protein PilP&lt;br&gt;Location: 180924 - 181451&lt;br&gt;&lt;br&gt;&lt;b&gt;BlastP hit with ctg4_295&lt;/b&gt;&lt;br&gt;Percentage identity: 91&lt;br&gt;Percentage coverage: 100&lt;br&gt;BLAST bit score: 334&lt;br&gt;E-value: 9.4e-90" locus_tag="PMI27_RS28105" class="clusterblast-orf" id="dummy-1_h1_8_37"  />
</g>
<g id="a1_0038"  >
<polygon points="754,85 759,80 766,80 766,90 759,90 754,85 " style="fill:white; stroke-width:1; stroke:black; " description="&lt;b&gt;PMI27_RS28100&lt;/b&gt;&lt;br&gt;pilus biosynthesis protein PilO&lt;br&gt;Location: 181448 - 182071" locus_tag="PMI27_RS28100" class="clusterblast-orf" id="dummy-1_h1_8_38"  />
</g>
<g id="a1_0039"  >
<polygon points="766,85 771,80 776,80 776,90 771,90 766,85 " style="fill:white; stroke-width:1; stroke:black; " description="&lt;b&gt;PMI27_RS28095&lt;/b&gt;&lt;br&gt;pilus assembly protein PilN&lt;br&gt;Location: 182068 - 182634" locus_tag="PMI27_RS28095" class="clusterblast-orf" id="dummy-1_h1_8_39"  />
</g>
</svg>
