<svg xmlns="http://www.w3.org/2000/svg" xmlns:xlink="http://www.w3.org/1999/xlink" version="1.1" x="0" y="0" height="230" width="800" viewBox="0 0 800 230" preserveAspectRatio="none"  >
<g label="Query sequence" class="clusterblast-cluster"  >
<text x="5" y="20" class="clusterblast-acc"  >
Query sequence</text>
<line x1="10" y1="35" x2="778.0" y2="35" style="stroke-width:1; stroke:grey; "  />
<polygon points="0,35 5,30 6,30 6,40 5,40 0,35 " style="fill:#d81515; stroke-width:1; stroke:black; " description="&lt;b&gt;ctg6_147&lt;/b&gt;&lt;br&gt;ctg6 147&lt;br&gt;Location: 179074 - 179695" locus_tag="ctg6_147" class="clusterblast-orf" id="dummy-1_q0_0_all"  />
<polygon points="10,35 15,30 37,30 37,40 15,40 10,35 " style="fill:#6dd815; stroke-width:1; stroke:black; " description="&lt;b&gt;ctg6_148&lt;/b&gt;&lt;br&gt;ctg6 148&lt;br&gt;Location: 180036 - 182742" locus_tag="ctg6_148" class="clusterblast-orf" id="dummy-1_q1_0_all"  />
<polygon points="43,35 48,30 56,30 56,40 48,40 43,35 " style="fill:#15c5d8; stroke-width:1; stroke:black; " description="&lt;b&gt;ctg6_149&lt;/b&gt;&lt;br&gt;ctg6 149&lt;br&gt;Location: 183246 - 184584" locus_tag="ctg6_149" class="clusterblast-orf" id="dummy-1_q2_0_all"  />
<polygon points="58,35 63,30 63,30 63,40 63,40 58,35 " style="fill:#9315d8; stroke-width:1; stroke:black; " description="&lt;b&gt;ctg6_150&lt;/b&gt;&lt;br&gt;ctg6 150&lt;br&gt;Location: 184716 - 185199" locus_tag="ctg6_150" class="clusterblast-orf" id="dummy-1_q3_0_all"  />
<polygon points="66,40 73,40 78,35 73,30 66,30 66,40 " style="fill:#d83b15; stroke-width:1; stroke:black; " description="&lt;b&gt;ctg6_151&lt;/b&gt;&lt;br&gt;ctg6 151&lt;br&gt;Location: 185519 - 186692" locus_tag="ctg6_151" class="clusterblast-orf" id="dummy-1_q4_0_all"  />
<polygon points="78,40 94,40 99,35 94,30 78,30 78,40 " style="fill:#48d815; stroke-width:1; stroke:black; " description="&lt;b&gt;ctg6_152&lt;/b&gt;&lt;br&gt;ctg6 152&lt;br&gt;Location: 186692 - 188666" locus_tag="ctg6_152" class="clusterblast-orf" id="dummy-1_q5_0_all"  />
<polygon points="99,40 108,40 113,35 108,30 99,30 99,40 " style="fill:#15a0d8; stroke-width:1; stroke:black; " description="&lt;b&gt;ctg6_153&lt;/b&gt;&lt;br&gt;ctg6 153&lt;br&gt;Location: 188673 - 190068" locus_tag="ctg6_153" class="clusterblast-orf" id="dummy-1_q6_0_all"  />
<polygon points="117,35 122,30 134,30 134,40 122,40 117,35 " style="fill:#b915d8; stroke-width:1; stroke:black; " description="&lt;b&gt;ctg6_154&lt;/b&gt;&lt;br&gt;ctg6 154&lt;br&gt;Location: 190471 - 192100" locus_tag="ctg6_154" class="clusterblast-orf" id="dummy-1_q7_0_all"  />
<polygon points="136,40 145,40 150,35 145,30 136,30 136,40 " style="fill:#d86115; stroke-width:1; stroke:black; " description="&lt;b&gt;ctg6_155&lt;/b&gt;&lt;br&gt;ctg6 155&lt;br&gt;Location: 192332 - 193703" locus_tag="ctg6_155" class="clusterblast-orf" id="dummy-1_q8_0_all"  />
<polygon points="150,40 159,40 164,35 159,30 150,30 150,40 " style="fill:#22d815; stroke-width:1; stroke:black; " description="&lt;b&gt;ctg6_156&lt;/b&gt;&lt;br&gt;ctg6 156&lt;br&gt;Location: 193699 - 194983" locus_tag="ctg6_156" class="clusterblast-orf" id="dummy-1_q9_0_all"  />
<polygon points="166,40 170,40 175,35 170,30 166,30 166,40 " style="fill:#157ad8; stroke-width:1; stroke:black; " description="&lt;b&gt;ctg6_157&lt;/b&gt;&lt;br&gt;ctg6 157&lt;br&gt;Location: 195221 - 196109" locus_tag="ctg6_157" class="clusterblast-orf" id="dummy-1_q10_0_all"  />
<polygon points="177,40 189,40 194,35 189,30 177,30 177,40 " style="fill:#d815d2; stroke-width:1; stroke:black; " description="&lt;b&gt;ctg6_158&lt;/b&gt;&lt;br&gt;ctg6 158&lt;br&gt;Location: 196239 - 197898" locus_tag="ctg6_158" class="clusterblast-orf" id="dummy-1_q11_0_all"  />
<polygon points="194,40 233,40 238,35 233,30 194,30 194,40 " style="fill:#d88615; stroke-width:1; stroke:black; " description="&lt;b&gt;ctg6_159&lt;/b&gt;&lt;br&gt;ctg6 159&lt;br&gt;Location: 197962 - 202165" locus_tag="ctg6_159" class="clusterblast-orf" id="dummy-1_q12_0_all"  />
<polygon points="243,35 246,30 246,40 243,35 " style="fill:#15d82e; stroke-width:1; stroke:black; " description="&lt;b&gt;ctg6_160&lt;/b&gt;&lt;br&gt;ctg6 160&lt;br&gt;Location: 202628 - 202997" locus_tag="ctg6_160" class="clusterblast-orf" id="dummy-1_q13_0_all"  />
<polygon points="254,35 259,30 280,30 280,40 259,40 254,35 " style="fill:#1554d8; stroke-width:1; stroke:black; " description="&lt;b&gt;ctg6_161&lt;/b&gt;&lt;br&gt;ctg6 161&lt;br&gt;Location: 203761 - 206242" locus_tag="ctg6_161" class="clusterblast-orf" id="dummy-1_q14_0_all"  />
<polygon points="286,35 291,30 319,30 319,40 291,40 286,35 " style="fill:#d88615; stroke-width:1; stroke:black; " description="&lt;b&gt;ctg6_162&lt;/b&gt;&lt;br&gt;ctg6 162&lt;br&gt;Location: 206833 - 210055" locus_tag="ctg6_162" class="clusterblast-orf" id="dummy-1_q15_0_all"  />
<polygon points="319,35 324,30 459,30 459,40 324,40 319,35 " style="fill:#d88615; stroke-width:1; stroke:black; " description="&lt;b&gt;ctg6_163&lt;/b&gt;&lt;br&gt;ctg6 163&lt;br&gt;Location: 210051 - 223575" locus_tag="ctg6_163" class="clusterblast-orf" id="dummy-1_q16_0_all"  />
<polygon points="459,35 464,30 586,30 586,40 464,40 459,35 " style="fill:#d88615; stroke-width:1; stroke:black; " description="&lt;b&gt;ctg6_164&lt;/b&gt;&lt;br&gt;ctg6 164&lt;br&gt;Location: 223592 - 235946" locus_tag="ctg6_164" class="clusterblast-orf" id="dummy-1_q17_0_all"  />
<polygon points="589,35 594,30 596,30 596,40 594,40 589,35 " style="fill:#d815ac; stroke-width:1; stroke:black; " description="&lt;b&gt;ctg6_165&lt;/b&gt;&lt;br&gt;ctg6 165&lt;br&gt;Location: 236194 - 236929" locus_tag="ctg6_165" class="clusterblast-orf" id="dummy-1_q18_0_all"  />
<polygon points="598,40 604,40 609,35 604,30 598,30 598,40 " style="fill:#d8ac15; stroke-width:1; stroke:black; " description="&lt;b&gt;ctg6_166&lt;/b&gt;&lt;br&gt;ctg6 166&lt;br&gt;Location: 237061 - 238195" locus_tag="ctg6_166" class="clusterblast-orf" id="dummy-1_q19_0_all"  />
<polygon points="611,35 616,30 623,30 623,40 616,40 611,35 " style="fill:#15d854; stroke-width:1; stroke:black; " description="&lt;b&gt;ctg6_167&lt;/b&gt;&lt;br&gt;ctg6 167&lt;br&gt;Location: 238308 - 239481" locus_tag="ctg6_167" class="clusterblast-orf" id="dummy-1_q20_0_all"  />
<polygon points="625,40 628,40 633,35 628,30 625,30 625,40 " style="fill:#152ed8; stroke-width:1; stroke:black; " description="&lt;b&gt;ctg6_168&lt;/b&gt;&lt;br&gt;ctg6 168&lt;br&gt;Location: 239709 - 240510" locus_tag="ctg6_168" class="clusterblast-orf" id="dummy-1_q21_0_all"  />
<polygon points="633,40 647,40 652,35 647,30 633,30 633,40 " style="fill:#d81586; stroke-width:1; stroke:black; " description="&lt;b&gt;ctg6_169&lt;/b&gt;&lt;br&gt;ctg6 169&lt;br&gt;Location: 240502 - 242329" locus_tag="ctg6_169" class="clusterblast-orf" id="dummy-1_q22_0_all"  />
<polygon points="658,40 662,35 658,30 658,40 " style="fill:#d8d215; stroke-width:1; stroke:black; " description="&lt;b&gt;ctg6_170&lt;/b&gt;&lt;br&gt;ctg6 170&lt;br&gt;Location: 242874 - 243264" locus_tag="ctg6_170" class="clusterblast-orf" id="dummy-1_q23_0_all"  />
<polygon points="663,40 671,40 676,35 671,30 663,30 663,40 " style="fill:white; stroke-width:1; stroke:black; " description="&lt;b&gt;ctg6_171&lt;/b&gt;&lt;br&gt;ctg6 171&lt;br&gt;Location: 243399 - 244644" locus_tag="ctg6_171" class="clusterblast-orf" id="dummy-1_q24_0_all"  />
<polygon points="677,40 681,40 686,35 681,30 677,30 677,40 " style="fill:#15d87a; stroke-width:1; stroke:black; " description="&lt;b&gt;ctg6_172&lt;/b&gt;&lt;br&gt;ctg6 172&lt;br&gt;Location: 244758 - 245664" locus_tag="ctg6_172" class="clusterblast-orf" id="dummy-1_q25_0_all"  />
<polygon points="686,35 691,30 696,30 696,40 691,40 686,35 " style="fill:#2215d8; stroke-width:1; stroke:black; " description="&lt;b&gt;ctg6_173&lt;/b&gt;&lt;br&gt;ctg6 173&lt;br&gt;Location: 245617 - 246616" locus_tag="ctg6_173" class="clusterblast-orf" id="dummy-1_q26_0_all"  />
<polygon points="697,40 699,40 704,35 699,30 697,30 697,40 " style="fill:#2215d8; stroke-width:1; stroke:black; " description="&lt;b&gt;ctg6_174&lt;/b&gt;&lt;br&gt;ctg6 174&lt;br&gt;Location: 246708 - 247395" locus_tag="ctg6_174" class="clusterblast-orf" id="dummy-1_q27_0_all"  />
<polygon points="705,35 710,30 712,30 712,40 710,40 705,35 " style="fill:white; stroke-width:1; stroke:black; " description="&lt;b&gt;ctg6_175&lt;/b&gt;&lt;br&gt;ctg6 175&lt;br&gt;Location: 247489 - 248107" locus_tag="ctg6_175" class="clusterblast-orf" id="dummy-1_q28_0_all"  />
<polygon points="715,35 720,30 723,30 723,40 720,40 715,35 " style="fill:#d81561; stroke-width:1; stroke:black; " description="&lt;b&gt;ctg6_176&lt;/b&gt;&lt;br&gt;ctg6 176&lt;br&gt;Location: 248451 - 249252" locus_tag="ctg6_176" class="clusterblast-orf" id="dummy-1_q29_0_all"  />
<polygon points="723,35 728,30 728,30 728,40 728,40 723,35 " style="fill:#b9d815; stroke-width:1; stroke:black; " description="&lt;b&gt;ctg6_177&lt;/b&gt;&lt;br&gt;ctg6 177&lt;br&gt;Location: 249252 - 249741" locus_tag="ctg6_177" class="clusterblast-orf" id="dummy-1_q30_0_all"  />
<polygon points="731,40 735,40 740,35 735,30 731,30 731,40 " style="fill:#15d8a0; stroke-width:1; stroke:black; " description="&lt;b&gt;ctg6_178&lt;/b&gt;&lt;br&gt;ctg6 178&lt;br&gt;Location: 249938 - 250883" locus_tag="ctg6_178" class="clusterblast-orf" id="dummy-1_q31_0_all"  />
<polygon points="740,40 744,35 740,30 740,40 " style="fill:#4815d8; stroke-width:1; stroke:black; " description="&lt;b&gt;ctg6_179&lt;/b&gt;&lt;br&gt;ctg6 179&lt;br&gt;Location: 250875 - 251274" locus_tag="ctg6_179" class="clusterblast-orf" id="dummy-1_q32_0_all"  />
<polygon points="746,40 749,35 746,30 746,40 " style="fill:#d8153b; stroke-width:1; stroke:black; " description="&lt;b&gt;ctg6_180&lt;/b&gt;&lt;br&gt;ctg6 180&lt;br&gt;Location: 251446 - 251749" locus_tag="ctg6_180" class="clusterblast-orf" id="dummy-1_q33_0_all"  />
<polygon points="751,40 753,40 758,35 753,30 751,30 751,40 " style="fill:white; stroke-width:1; stroke:black; " description="&lt;b&gt;ctg6_181&lt;/b&gt;&lt;br&gt;ctg6 181&lt;br&gt;Location: 251877 - 252582" locus_tag="ctg6_181" class="clusterblast-orf" id="dummy-1_q34_0_all"  />
<polygon points="759,40 763,35 759,30 759,40 " style="fill:#93d815; stroke-width:1; stroke:black; " description="&lt;b&gt;ctg6_182&lt;/b&gt;&lt;br&gt;ctg6 182&lt;br&gt;Location: 252704 - 253106" locus_tag="ctg6_182" class="clusterblast-orf" id="dummy-1_q35_0_all"  />
<polygon points="764,35 769,30 776,30 776,40 769,40 764,35 " style="fill:#15d8c5; stroke-width:1; stroke:black; " description="&lt;b&gt;ctg6_183&lt;/b&gt;&lt;br&gt;ctg6 183&lt;br&gt;Location: 253229 - 254348" locus_tag="ctg6_183" class="clusterblast-orf" id="dummy-1_q36_0_all"  />
<polygon points="776,35 780,30 780,40 776,35 " style="fill:#6d15d8; stroke-width:1; stroke:black; " description="&lt;b&gt;ctg6_184&lt;/b&gt;&lt;br&gt;ctg6 184&lt;br&gt;Location: 254372 - 254696" locus_tag="ctg6_184" class="clusterblast-orf" id="dummy-1_q37_0_all"  />
</g>
<g label="NZ_LIRD01000005" description="NZ_LIRD01000005_c8: Pseudomonas sp. In5 P.sp In5 contig 5, whole genome shotg... (97% of genes show similarity), nrps" class="clusterblast-cluster"  >
<text x="5" y="70" class="clusterblast-acc"  >
<a xlink:href="https://antismash-db.secondarymetabolites.org/go/NZ_LIRD01000005/8" target="_blank">NZ_LIRD01000005_c8</a>: Pseudomonas sp. In5 P.sp In5 contig 5, whole genome shotg... (97% of genes show similarity), nrps</text>
<line x1="10" y1="85" x2="778.0" y2="85" style="stroke-width:1; stroke:grey; "  />
</g>
<g id="a1_000"  >
<polygon points="0,85 5,80 6,80 6,90 5,90 0,85 " style="fill:#d81515; stroke-width:1; stroke:black; " description="&lt;b&gt;AL066_RS31580&lt;/b&gt;&lt;br&gt;DNA-binding response regulator&lt;br&gt;Location: 179075 - 179695&lt;br&gt;&lt;br&gt;&lt;b&gt;BlastP hit with ctg6_147&lt;/b&gt;&lt;br&gt;Percentage identity: 100&lt;br&gt;Percentage coverage: 100&lt;br&gt;BLAST bit score: 397&lt;br&gt;E-value: 8.2e-109" locus_tag="AL066_RS31580" class="clusterblast-orf" id="dummy-1_h1_1_0"  />
</g>
<g id="a1_001"  >
<polygon points="9,85 14,80 37,80 37,90 14,90 9,85 " style="fill:#6dd815; stroke-width:1; stroke:black; " description="&lt;b&gt;AL066_RS31585&lt;/b&gt;&lt;br&gt;magnesium-translocating P-type ATPase&lt;br&gt;Location: 180037 - 182742&lt;br&gt;&lt;br&gt;&lt;b&gt;BlastP hit with ctg6_148&lt;/b&gt;&lt;br&gt;Percentage identity: 100&lt;br&gt;Percentage coverage: 100&lt;br&gt;BLAST bit score: 1698&lt;br&gt;E-value: 0.0" locus_tag="AL066_RS31585" class="clusterblast-orf" id="dummy-1_h1_1_1"  />
</g>
<g id="a1_002"  >
<polygon points="43,85 48,80 56,80 56,90 48,90 43,85 " style="fill:#15c5d8; stroke-width:1; stroke:black; " description="&lt;b&gt;AL066_RS31590&lt;/b&gt;&lt;br&gt;ornithine monooxygenase&lt;br&gt;Location: 183247 - 184584&lt;br&gt;&lt;br&gt;&lt;b&gt;BlastP hit with ctg6_149&lt;/b&gt;&lt;br&gt;Percentage identity: 100&lt;br&gt;Percentage coverage: 100&lt;br&gt;BLAST bit score: 890&lt;br&gt;E-value: 6.6e-257" locus_tag="AL066_RS31590" class="clusterblast-orf" id="dummy-1_h1_1_2"  />
</g>
<g id="a1_003"  >
<polygon points="58,85 63,80 63,80 63,90 63,90 58,85 " style="fill:#9315d8; stroke-width:1; stroke:black; " description="&lt;b&gt;AL066_RS31595&lt;/b&gt;&lt;br&gt;RNA polymerase subunit sigma&lt;br&gt;Location: 184717 - 185199&lt;br&gt;&lt;br&gt;&lt;b&gt;BlastP hit with ctg6_150&lt;/b&gt;&lt;br&gt;Percentage identity: 100&lt;br&gt;Percentage coverage: 100&lt;br&gt;BLAST bit score: 325&lt;br&gt;E-value: 4e-87" locus_tag="AL066_RS31595" class="clusterblast-orf" id="dummy-1_h1_1_3"  />
</g>
<g id="a1_004"  >
<polygon points="66,90 73,90 78,85 73,80 66,80 66,90 " style="fill:#d83b15; stroke-width:1; stroke:black; " description="&lt;b&gt;AL066_RS31600&lt;/b&gt;&lt;br&gt;efflux RND transporter periplasmic adaptor subunit&lt;br&gt;Location: 185520 - 186692&lt;br&gt;&lt;br&gt;&lt;b&gt;BlastP hit with ctg6_151&lt;/b&gt;&lt;br&gt;Percentage identity: 100&lt;br&gt;Percentage coverage: 100&lt;br&gt;BLAST bit score: 672&lt;br&gt;E-value: 3.3e-191" locus_tag="AL066_RS31600" class="clusterblast-orf" id="dummy-1_h1_1_4"  />
</g>
<g id="a1_005"  >
<polygon points="78,90 93,90 98,85 93,80 78,80 78,90 " style="fill:#48d815; stroke-width:1; stroke:black; " description="&lt;b&gt;AL066_RS31605&lt;/b&gt;&lt;br&gt;MacB family efflux pump subunit&lt;br&gt;Location: 186693 - 188666&lt;br&gt;&lt;br&gt;&lt;b&gt;BlastP hit with ctg6_152&lt;/b&gt;&lt;br&gt;Percentage identity: 100&lt;br&gt;Percentage coverage: 100&lt;br&gt;BLAST bit score: 1246&lt;br&gt;E-value: 0.0" locus_tag="AL066_RS31605" class="clusterblast-orf" id="dummy-1_h1_1_5"  />
</g>
<g id="a1_006"  >
<polygon points="99,90 108,90 113,85 108,80 99,80 99,90 " style="fill:#15a0d8; stroke-width:1; stroke:black; " description="&lt;b&gt;AL066_RS31610&lt;/b&gt;&lt;br&gt;RND transporter&lt;br&gt;Location: 188674 - 190068&lt;br&gt;&lt;br&gt;&lt;b&gt;BlastP hit with ctg6_153&lt;/b&gt;&lt;br&gt;Percentage identity: 100&lt;br&gt;Percentage coverage: 100&lt;br&gt;BLAST bit score: 869&lt;br&gt;E-value: 1.7e-250" locus_tag="AL066_RS31610" class="clusterblast-orf" id="dummy-1_h1_1_6"  />
</g>
<g id="a1_007"  >
<polygon points="117,85 122,80 134,80 134,90 122,90 117,85 " style="fill:#b915d8; stroke-width:1; stroke:black; " description="&lt;b&gt;AL066_RS31615&lt;/b&gt;&lt;br&gt;hypothetical protein&lt;br&gt;Location: 190472 - 192100&lt;br&gt;&lt;br&gt;&lt;b&gt;BlastP hit with ctg6_154&lt;/b&gt;&lt;br&gt;Percentage identity: 100&lt;br&gt;Percentage coverage: 100&lt;br&gt;BLAST bit score: 1161&lt;br&gt;E-value: 0.0" locus_tag="AL066_RS31615" class="clusterblast-orf" id="dummy-1_h1_1_7"  />
</g>
<g id="a1_008"  >
<polygon points="136,90 145,90 150,85 145,80 136,80 136,90 " style="fill:#d86115; stroke-width:1; stroke:black; " description="&lt;b&gt;AL066_RS31620&lt;/b&gt;&lt;br&gt;membrane dipeptidase&lt;br&gt;Location: 192333 - 193703&lt;br&gt;&lt;br&gt;&lt;b&gt;BlastP hit with ctg6_155&lt;/b&gt;&lt;br&gt;Percentage identity: 100&lt;br&gt;Percentage coverage: 100&lt;br&gt;BLAST bit score: 929&lt;br&gt;E-value: 1.7e-268" locus_tag="AL066_RS31620" class="clusterblast-orf" id="dummy-1_h1_1_8"  />
</g>
<g id="a1_009"  >
<polygon points="150,90 159,90 164,85 159,80 150,80 150,90 " style="fill:#22d815; stroke-width:1; stroke:black; " description="&lt;b&gt;AL066_RS31625&lt;/b&gt;&lt;br&gt;aminotransferase class V-fold PLP-dependent enzyme&lt;br&gt;Location: 193700 - 194983&lt;br&gt;&lt;br&gt;&lt;b&gt;BlastP hit with ctg6_156&lt;/b&gt;&lt;br&gt;Percentage identity: 100&lt;br&gt;Percentage coverage: 100&lt;br&gt;BLAST bit score: 858&lt;br&gt;E-value: 2.7e-247" locus_tag="AL066_RS31625" class="clusterblast-orf" id="dummy-1_h1_1_9"  />
</g>
<g id="a1_0010"  >
<polygon points="166,90 170,90 175,85 170,80 166,80 166,90 " style="fill:#157ad8; stroke-width:1; stroke:black; " description="&lt;b&gt;AL066_RS31630&lt;/b&gt;&lt;br&gt;formylglycine-generating enzyme family protein&lt;br&gt;Location: 195222 - 196109&lt;br&gt;&lt;br&gt;&lt;b&gt;BlastP hit with ctg6_157&lt;/b&gt;&lt;br&gt;Percentage identity: 100&lt;br&gt;Percentage coverage: 100&lt;br&gt;BLAST bit score: 624&lt;br&gt;E-value: 4.5e-177" locus_tag="AL066_RS31630" class="clusterblast-orf" id="dummy-1_h1_1_10"  />
</g>
<g id="a1_0011"  >
<polygon points="177,90 189,90 194,85 189,80 177,80 177,90 " style="fill:#d815d2; stroke-width:1; stroke:black; " description="&lt;b&gt;AL066_RS31635&lt;/b&gt;&lt;br&gt;cyclic peptide export ABC transporter&lt;br&gt;Location: 196240 - 197898&lt;br&gt;&lt;br&gt;&lt;b&gt;BlastP hit with ctg6_158&lt;/b&gt;&lt;br&gt;Percentage identity: 100&lt;br&gt;Percentage coverage: 100&lt;br&gt;BLAST bit score: 1052&lt;br&gt;E-value: 1.6e-305" locus_tag="AL066_RS31635" class="clusterblast-orf" id="dummy-1_h1_1_11"  />
</g>
<g id="a1_0012"  >
<polygon points="195,90 233,90 238,85 233,80 195,80 195,90 " style="fill:#d88615; stroke-width:1; stroke:black; " description="&lt;b&gt;AL066_RS31640&lt;/b&gt;&lt;br&gt;non-ribosomal peptide synthetase&lt;br&gt;Location: 198035 - 202165&lt;br&gt;&lt;br&gt;&lt;b&gt;BlastP hit with ctg6_159&lt;/b&gt;&lt;br&gt;Percentage identity: 100&lt;br&gt;Percentage coverage: 98&lt;br&gt;BLAST bit score: 2726&lt;br&gt;E-value: 0.0&lt;br&gt;&lt;br&gt;&lt;b&gt;BlastP hit with ctg6_162&lt;/b&gt;&lt;br&gt;Percentage identity: 31&lt;br&gt;Percentage coverage: 98&lt;br&gt;BLAST bit score: 369&lt;br&gt;E-value: 1.2e-99" locus_tag="AL066_RS31640" class="clusterblast-orf" id="dummy-1_h1_1_12"  />
</g>
<g id="a1_0013"  >
<polygon points="242,85 246,80 246,90 242,85 " style="fill:#15d82e; stroke-width:1; stroke:black; " description="&lt;b&gt;AL066_RS31645&lt;/b&gt;&lt;br&gt;hypothetical protein&lt;br&gt;Location: 202629 - 202997&lt;br&gt;&lt;br&gt;&lt;b&gt;BlastP hit with ctg6_160&lt;/b&gt;&lt;br&gt;Percentage identity: 100&lt;br&gt;Percentage coverage: 100&lt;br&gt;BLAST bit score: 245&lt;br&gt;E-value: 4e-63" locus_tag="AL066_RS31645" class="clusterblast-orf" id="dummy-1_h1_1_13"  />
</g>
<g id="a1_0014"  >
<polygon points="250,85 254,80 254,90 250,85 " style="fill:white; stroke-width:1; stroke:black; " description="&lt;b&gt;AL066_RS32800&lt;/b&gt;&lt;br&gt;hypothetical protein&lt;br&gt;Location: 203370 - 203720" locus_tag="AL066_RS32800" class="clusterblast-orf" id="dummy-1_h1_1_14"  />
</g>
<g id="a1_0015"  >
<polygon points="254,85 259,80 280,80 280,90 259,90 254,85 " style="fill:#1554d8; stroke-width:1; stroke:black; " description="&lt;b&gt;AL066_RS31650&lt;/b&gt;&lt;br&gt;TonB-dependent siderophore receptor&lt;br&gt;Location: 203762 - 206242&lt;br&gt;&lt;br&gt;&lt;b&gt;BlastP hit with ctg6_161&lt;/b&gt;&lt;br&gt;Percentage identity: 100&lt;br&gt;Percentage coverage: 100&lt;br&gt;BLAST bit score: 1669&lt;br&gt;E-value: 0.0" locus_tag="AL066_RS31650" class="clusterblast-orf" id="dummy-1_h1_1_15"  />
</g>
<g id="a1_0016"  >
<polygon points="286,85 291,80 319,80 319,90 291,90 286,85 " style="fill:#d88615; stroke-width:1; stroke:black; " description="&lt;b&gt;AL066_RS31655&lt;/b&gt;&lt;br&gt;non-ribosomal peptide synthetase&lt;br&gt;Location: 206834 - 210055&lt;br&gt;&lt;br&gt;&lt;b&gt;BlastP hit with ctg6_162&lt;/b&gt;&lt;br&gt;Percentage identity: 100&lt;br&gt;Percentage coverage: 100&lt;br&gt;BLAST bit score: 2083&lt;br&gt;E-value: 0.0" locus_tag="AL066_RS31655" class="clusterblast-orf" id="dummy-1_h1_1_16"  />
</g>
<g id="a1_0017"  >
<polygon points="319,85 324,80 459,80 459,90 324,90 319,85 " style="fill:#d88615; stroke-width:1; stroke:black; " description="&lt;b&gt;AL066_RS31660&lt;/b&gt;&lt;br&gt;non-ribosomal peptide synthetase&lt;br&gt;Location: 210052 - 223593&lt;br&gt;&lt;br&gt;&lt;b&gt;BlastP hit with ctg6_159&lt;/b&gt;&lt;br&gt;Percentage identity: 65&lt;br&gt;Percentage coverage: 75&lt;br&gt;BLAST bit score: 1316&lt;br&gt;E-value: 0.0&lt;br&gt;&lt;br&gt;&lt;b&gt;BlastP hit with ctg6_162&lt;/b&gt;&lt;br&gt;Percentage identity: 31&lt;br&gt;Percentage coverage: 90&lt;br&gt;BLAST bit score: 368&lt;br&gt;E-value: 2.8e-99&lt;br&gt;&lt;br&gt;&lt;b&gt;BlastP hit with ctg6_163&lt;/b&gt;&lt;br&gt;Percentage identity: 100&lt;br&gt;Percentage coverage: 100&lt;br&gt;BLAST bit score: 8896&lt;br&gt;E-value: 0.0&lt;br&gt;&lt;br&gt;&lt;b&gt;BlastP hit with ctg6_164&lt;/b&gt;&lt;br&gt;Percentage identity: 45&lt;br&gt;Percentage coverage: 102&lt;br&gt;BLAST bit score: 3022&lt;br&gt;E-value: 0.0" locus_tag="AL066_RS31660" class="clusterblast-orf" id="dummy-1_h1_1_17"  />
</g>
<g id="a1_0018"  >
<polygon points="459,85 464,80 586,80 586,90 464,90 459,85 " style="fill:#d88615; stroke-width:1; stroke:black; " description="&lt;b&gt;AL066_RS31665&lt;/b&gt;&lt;br&gt;non-ribosomal peptide synthetase&lt;br&gt;Location: 223593 - 235946&lt;br&gt;&lt;br&gt;&lt;b&gt;BlastP hit with ctg6_159&lt;/b&gt;&lt;br&gt;Percentage identity: 47&lt;br&gt;Percentage coverage: 76&lt;br&gt;BLAST bit score: 868&lt;br&gt;E-value: 1.1e-249&lt;br&gt;&lt;br&gt;&lt;b&gt;BlastP hit with ctg6_163&lt;/b&gt;&lt;br&gt;Percentage identity: 45&lt;br&gt;Percentage coverage: 93&lt;br&gt;BLAST bit score: 3037&lt;br&gt;E-value: 0.0&lt;br&gt;&lt;br&gt;&lt;b&gt;BlastP hit with ctg6_164&lt;/b&gt;&lt;br&gt;Percentage identity: 100&lt;br&gt;Percentage coverage: 100&lt;br&gt;BLAST bit score: 8149&lt;br&gt;E-value: 0.0" locus_tag="AL066_RS31665" class="clusterblast-orf" id="dummy-1_h1_1_18"  />
</g>
<g id="a1_0019"  >
<polygon points="589,85 594,80 596,80 596,90 594,90 589,85 " style="fill:#d815ac; stroke-width:1; stroke:black; " description="&lt;b&gt;AL066_RS31670&lt;/b&gt;&lt;br&gt;thioesterase&lt;br&gt;Location: 236195 - 236929&lt;br&gt;&lt;br&gt;&lt;b&gt;BlastP hit with ctg6_165&lt;/b&gt;&lt;br&gt;Percentage identity: 100&lt;br&gt;Percentage coverage: 100&lt;br&gt;BLAST bit score: 491&lt;br&gt;E-value: 6.4e-137" locus_tag="AL066_RS31670" class="clusterblast-orf" id="dummy-1_h1_1_19"  />
</g>
<g id="a1_0020"  >
<polygon points="598,90 604,90 609,85 604,80 598,80 598,90 " style="fill:#d8ac15; stroke-width:1; stroke:black; " description="&lt;b&gt;AL066_RS31675&lt;/b&gt;&lt;br&gt;cupin&lt;br&gt;Location: 237062 - 238195&lt;br&gt;&lt;br&gt;&lt;b&gt;BlastP hit with ctg6_166&lt;/b&gt;&lt;br&gt;Percentage identity: 100&lt;br&gt;Percentage coverage: 100&lt;br&gt;BLAST bit score: 779&lt;br&gt;E-value: 1.8e-223" locus_tag="AL066_RS31675" class="clusterblast-orf" id="dummy-1_h1_1_20"  />
</g>
<g id="a1_0021"  >
<polygon points="610,85 615,80 623,80 623,90 615,90 610,85 " style="fill:#15d854; stroke-width:1; stroke:black; " description="&lt;b&gt;AL066_RS31680&lt;/b&gt;&lt;br&gt;MFS transporter&lt;br&gt;Location: 238309 - 239481&lt;br&gt;&lt;br&gt;&lt;b&gt;BlastP hit with ctg6_167&lt;/b&gt;&lt;br&gt;Percentage identity: 100&lt;br&gt;Percentage coverage: 100&lt;br&gt;BLAST bit score: 723&lt;br&gt;E-value: 1.6e-206" locus_tag="AL066_RS31680" class="clusterblast-orf" id="dummy-1_h1_1_21"  />
</g>
<g id="a1_0022"  >
<polygon points="625,90 628,90 633,85 628,80 625,80 625,90 " style="fill:#152ed8; stroke-width:1; stroke:black; " description="&lt;b&gt;AL066_RS31685&lt;/b&gt;&lt;br&gt;3-oxoacyl-ACP reductase&lt;br&gt;Location: 239710 - 240510&lt;br&gt;&lt;br&gt;&lt;b&gt;BlastP hit with ctg6_168&lt;/b&gt;&lt;br&gt;Percentage identity: 100&lt;br&gt;Percentage coverage: 100&lt;br&gt;BLAST bit score: 458&lt;br&gt;E-value: 6.6e-127" locus_tag="AL066_RS31685" class="clusterblast-orf" id="dummy-1_h1_1_22"  />
</g>
<g id="a1_0023"  >
<polygon points="633,90 647,90 652,85 647,80 633,80 633,90 " style="fill:#d81586; stroke-width:1; stroke:black; " description="&lt;b&gt;AL066_RS31690&lt;/b&gt;&lt;br&gt;glycoside hydrolase family 15 protein&lt;br&gt;Location: 240503 - 242329&lt;br&gt;&lt;br&gt;&lt;b&gt;BlastP hit with ctg6_169&lt;/b&gt;&lt;br&gt;Percentage identity: 100&lt;br&gt;Percentage coverage: 100&lt;br&gt;BLAST bit score: 1260&lt;br&gt;E-value: 0.0" locus_tag="AL066_RS31690" class="clusterblast-orf" id="dummy-1_h1_1_23"  />
</g>
<g id="a1_0024"  >
<polygon points="658,90 662,85 658,80 658,90 " style="fill:#d8d215; stroke-width:1; stroke:black; " description="&lt;b&gt;AL066_RS31695&lt;/b&gt;&lt;br&gt;hypothetical protein&lt;br&gt;Location: 242875 - 243264&lt;br&gt;&lt;br&gt;&lt;b&gt;BlastP hit with ctg6_170&lt;/b&gt;&lt;br&gt;Percentage identity: 100&lt;br&gt;Percentage coverage: 100&lt;br&gt;BLAST bit score: 270&lt;br&gt;E-value: 9.4e-71" locus_tag="AL066_RS31695" class="clusterblast-orf" id="dummy-1_h1_1_24"  />
</g>
<g id="a1_0025"  >
<polygon points="677,90 681,90 686,85 681,80 677,80 677,90 " style="fill:#15d87a; stroke-width:1; stroke:black; " description="&lt;b&gt;AL066_RS31700&lt;/b&gt;&lt;br&gt;alpha/beta hydrolase&lt;br&gt;Location: 244759 - 245664&lt;br&gt;&lt;br&gt;&lt;b&gt;BlastP hit with ctg6_172&lt;/b&gt;&lt;br&gt;Percentage identity: 100&lt;br&gt;Percentage coverage: 100&lt;br&gt;BLAST bit score: 638&lt;br&gt;E-value: 5.3e-181" locus_tag="AL066_RS31700" class="clusterblast-orf" id="dummy-1_h1_1_25"  />
</g>
<g id="a1_0026"  >
<polygon points="686,85 691,80 696,80 696,90 691,90 686,85 " style="fill:#2215d8; stroke-width:1; stroke:black; " description="&lt;b&gt;AL066_RS31705&lt;/b&gt;&lt;br&gt;GlxA family transcriptional regulator&lt;br&gt;Location: 245618 - 246616&lt;br&gt;&lt;br&gt;&lt;b&gt;BlastP hit with ctg6_173&lt;/b&gt;&lt;br&gt;Percentage identity: 100&lt;br&gt;Percentage coverage: 100&lt;br&gt;BLAST bit score: 631&lt;br&gt;E-value: 4.2e-179" locus_tag="AL066_RS31705" class="clusterblast-orf" id="dummy-1_h1_1_26"  />
</g>
<g id="a1_0027"  >
<polygon points="697,90 699,90 704,85 699,80 697,80 697,90 " style="fill:#2215d8; stroke-width:1; stroke:black; " description="&lt;b&gt;AL066_RS31710&lt;/b&gt;&lt;br&gt;DJ-1/PfpI family protein&lt;br&gt;Location: 246709 - 247395&lt;br&gt;&lt;br&gt;&lt;b&gt;BlastP hit with ctg6_174&lt;/b&gt;&lt;br&gt;Percentage identity: 100&lt;br&gt;Percentage coverage: 100&lt;br&gt;BLAST bit score: 447&lt;br&gt;E-value: 1e-123" locus_tag="AL066_RS31710" class="clusterblast-orf" id="dummy-1_h1_1_27"  />
</g>
<g id="a1_0028"  >
<polygon points="715,85 720,80 723,80 723,90 720,90 715,85 " style="fill:#d81561; stroke-width:1; stroke:black; " description="&lt;b&gt;AL066_RS31715&lt;/b&gt;&lt;br&gt;3'-kinase&lt;br&gt;Location: 248452 - 249252&lt;br&gt;&lt;br&gt;&lt;b&gt;BlastP hit with ctg6_176&lt;/b&gt;&lt;br&gt;Percentage identity: 100&lt;br&gt;Percentage coverage: 100&lt;br&gt;BLAST bit score: 537&lt;br&gt;E-value: 6.5e-151" locus_tag="AL066_RS31715" class="clusterblast-orf" id="dummy-1_h1_1_28"  />
</g>
<g id="a1_0029"  >
<polygon points="723,85 728,80 728,80 728,90 728,90 723,85 " style="fill:#b9d815; stroke-width:1; stroke:black; " description="&lt;b&gt;AL066_RS31720&lt;/b&gt;&lt;br&gt;vanillate O-demethylase oxidoreductase VanB&lt;br&gt;Location: 249253 - 249741&lt;br&gt;&lt;br&gt;&lt;b&gt;BlastP hit with ctg6_177&lt;/b&gt;&lt;br&gt;Percentage identity: 100&lt;br&gt;Percentage coverage: 100&lt;br&gt;BLAST bit score: 338&lt;br&gt;E-value: 3.5e-91" locus_tag="AL066_RS31720" class="clusterblast-orf" id="dummy-1_h1_1_29"  />
</g>
<g id="a1_0030"  >
<polygon points="730,90 735,90 740,85 735,80 730,80 730,90 " style="fill:#15d8a0; stroke-width:1; stroke:black; " description="&lt;b&gt;AL066_RS31725&lt;/b&gt;&lt;br&gt;ADP-ribosylglycohydrolase family protein&lt;br&gt;Location: 249939 - 250883&lt;br&gt;&lt;br&gt;&lt;b&gt;BlastP hit with ctg6_178&lt;/b&gt;&lt;br&gt;Percentage identity: 100&lt;br&gt;Percentage coverage: 100&lt;br&gt;BLAST bit score: 652&lt;br&gt;E-value: 2.8e-185" locus_tag="AL066_RS31725" class="clusterblast-orf" id="dummy-1_h1_1_30"  />
</g>
<g id="a1_0031"  >
<polygon points="740,90 744,85 740,80 740,90 " style="fill:#4815d8; stroke-width:1; stroke:black; " description="&lt;b&gt;AL066_RS31730&lt;/b&gt;&lt;br&gt;GFA family protein&lt;br&gt;Location: 250876 - 251274&lt;br&gt;&lt;br&gt;&lt;b&gt;BlastP hit with ctg6_179&lt;/b&gt;&lt;br&gt;Percentage identity: 100&lt;br&gt;Percentage coverage: 100&lt;br&gt;BLAST bit score: 284&lt;br&gt;E-value: 4.9e-75" locus_tag="AL066_RS31730" class="clusterblast-orf" id="dummy-1_h1_1_31"  />
</g>
<g id="a1_0032"  >
<polygon points="746,90 753,90 758,85 753,80 746,80 746,90 " style="fill:#d8153b; stroke-width:1; stroke:black; " description="&lt;b&gt;AL066_RS31740&lt;/b&gt;&lt;br&gt;transposase&lt;br&gt;Location: 251447 - 252582&lt;br&gt;&lt;br&gt;&lt;b&gt;BlastP hit with ctg6_180&lt;/b&gt;&lt;br&gt;Percentage identity: 100&lt;br&gt;Percentage coverage: 100&lt;br&gt;BLAST bit score: 193&lt;br&gt;E-value: 8.7e-48" locus_tag="AL066_RS31740" class="clusterblast-orf" id="dummy-1_h1_1_32"  />
</g>
<g id="a1_0033"  >
<polygon points="759,90 763,85 759,80 759,90 " style="fill:#93d815; stroke-width:1; stroke:black; " description="&lt;b&gt;AL066_RS31745&lt;/b&gt;&lt;br&gt;DUF1311 domain-containing protein&lt;br&gt;Location: 252705 - 253106&lt;br&gt;&lt;br&gt;&lt;b&gt;BlastP hit with ctg6_182&lt;/b&gt;&lt;br&gt;Percentage identity: 100&lt;br&gt;Percentage coverage: 100&lt;br&gt;BLAST bit score: 274&lt;br&gt;E-value: 8.8e-72" locus_tag="AL066_RS31745" class="clusterblast-orf" id="dummy-1_h1_1_33"  />
</g>
<g id="a1_0034"  >
<polygon points="764,85 769,80 776,80 776,90 769,90 764,85 " style="fill:#15d8c5; stroke-width:1; stroke:black; " description="&lt;b&gt;AL066_RS31750&lt;/b&gt;&lt;br&gt;quinohemoprotein amine dehydrogenase subunit beta&lt;br&gt;Location: 253230 - 254348&lt;br&gt;&lt;br&gt;&lt;b&gt;BlastP hit with ctg6_183&lt;/b&gt;&lt;br&gt;Percentage identity: 100&lt;br&gt;Percentage coverage: 100&lt;br&gt;BLAST bit score: 764&lt;br&gt;E-value: 7.8e-219" locus_tag="AL066_RS31750" class="clusterblast-orf" id="dummy-1_h1_1_34"  />
</g>
<g id="a1_0035"  >
<polygon points="776,85 779,80 779,90 776,85 " style="fill:#6d15d8; stroke-width:1; stroke:black; " description="&lt;b&gt;AL066_RS31755&lt;/b&gt;&lt;br&gt;quinohemoprotein amine dehydrogenase&lt;br&gt;Location: 254373 - 254696&lt;br&gt;&lt;br&gt;&lt;b&gt;BlastP hit with ctg6_184&lt;/b&gt;&lt;br&gt;Percentage identity: 100&lt;br&gt;Percentage coverage: 100&lt;br&gt;BLAST bit score: 230&lt;br&gt;E-value: 6.9e-59" locus_tag="AL066_RS31755" class="clusterblast-orf" id="dummy-1_h1_1_35"  />
</g>
</svg>
