<svg xmlns="http://www.w3.org/2000/svg" xmlns:xlink="http://www.w3.org/1999/xlink" version="1.1" x="0" y="0" height="230" width="800" viewBox="0 0 800 230" preserveAspectRatio="none"  >
<g label="Query sequence" class="clusterblast-cluster"  >
<text x="5" y="20" class="clusterblast-acc"  >
Query sequence</text>
<line x1="10" y1="35" x2="778.0" y2="35" style="stroke-width:1; stroke:grey; "  />
<polygon points="36,35 41,30 42,30 42,40 41,40 36,35 " style="fill:#d81515; stroke-width:1; stroke:black; " description="&lt;b&gt;ctg6_147&lt;/b&gt;&lt;br&gt;ctg6 147&lt;br&gt;Location: 179074 - 179695" locus_tag="ctg6_147" class="clusterblast-orf" id="dummy-1_q0_0_all"  />
<polygon points="45,35 50,30 70,30 70,40 50,40 45,35 " style="fill:#6dd815; stroke-width:1; stroke:black; " description="&lt;b&gt;ctg6_148&lt;/b&gt;&lt;br&gt;ctg6 148&lt;br&gt;Location: 180036 - 182742" locus_tag="ctg6_148" class="clusterblast-orf" id="dummy-1_q1_0_all"  />
<polygon points="75,35 80,30 88,30 88,40 80,40 75,35 " style="fill:#15c5d8; stroke-width:1; stroke:black; " description="&lt;b&gt;ctg6_149&lt;/b&gt;&lt;br&gt;ctg6 149&lt;br&gt;Location: 183246 - 184584" locus_tag="ctg6_149" class="clusterblast-orf" id="dummy-1_q2_0_all"  />
<polygon points="89,35 93,30 93,40 89,35 " style="fill:#9315d8; stroke-width:1; stroke:black; " description="&lt;b&gt;ctg6_150&lt;/b&gt;&lt;br&gt;ctg6 150&lt;br&gt;Location: 184716 - 185199" locus_tag="ctg6_150" class="clusterblast-orf" id="dummy-1_q3_0_all"  />
<polygon points="96,40 102,40 107,35 102,30 96,30 96,40 " style="fill:#d83b15; stroke-width:1; stroke:black; " description="&lt;b&gt;ctg6_151&lt;/b&gt;&lt;br&gt;ctg6 151&lt;br&gt;Location: 185519 - 186692" locus_tag="ctg6_151" class="clusterblast-orf" id="dummy-1_q4_0_all"  />
<polygon points="107,40 121,40 126,35 121,30 107,30 107,40 " style="fill:#48d815; stroke-width:1; stroke:black; " description="&lt;b&gt;ctg6_152&lt;/b&gt;&lt;br&gt;ctg6 152&lt;br&gt;Location: 186692 - 188666" locus_tag="ctg6_152" class="clusterblast-orf" id="dummy-1_q5_0_all"  />
<polygon points="126,40 134,40 139,35 134,30 126,30 126,40 " style="fill:#15a0d8; stroke-width:1; stroke:black; " description="&lt;b&gt;ctg6_153&lt;/b&gt;&lt;br&gt;ctg6 153&lt;br&gt;Location: 188673 - 190068" locus_tag="ctg6_153" class="clusterblast-orf" id="dummy-1_q6_0_all"  />
<polygon points="143,35 148,30 158,30 158,40 148,40 143,35 " style="fill:#b915d8; stroke-width:1; stroke:black; " description="&lt;b&gt;ctg6_154&lt;/b&gt;&lt;br&gt;ctg6 154&lt;br&gt;Location: 190471 - 192100" locus_tag="ctg6_154" class="clusterblast-orf" id="dummy-1_q7_0_all"  />
<polygon points="160,40 168,40 173,35 168,30 160,30 160,40 " style="fill:#d86115; stroke-width:1; stroke:black; " description="&lt;b&gt;ctg6_155&lt;/b&gt;&lt;br&gt;ctg6 155&lt;br&gt;Location: 192332 - 193703" locus_tag="ctg6_155" class="clusterblast-orf" id="dummy-1_q8_0_all"  />
<polygon points="173,40 180,40 185,35 180,30 173,30 173,40 " style="fill:#22d815; stroke-width:1; stroke:black; " description="&lt;b&gt;ctg6_156&lt;/b&gt;&lt;br&gt;ctg6 156&lt;br&gt;Location: 193699 - 194983" locus_tag="ctg6_156" class="clusterblast-orf" id="dummy-1_q9_0_all"  />
<polygon points="187,40 190,40 195,35 190,30 187,30 187,40 " style="fill:#157ad8; stroke-width:1; stroke:black; " description="&lt;b&gt;ctg6_157&lt;/b&gt;&lt;br&gt;ctg6 157&lt;br&gt;Location: 195221 - 196109" locus_tag="ctg6_157" class="clusterblast-orf" id="dummy-1_q10_0_all"  />
<polygon points="197,40 207,40 212,35 207,30 197,30 197,40 " style="fill:#d815d2; stroke-width:1; stroke:black; " description="&lt;b&gt;ctg6_158&lt;/b&gt;&lt;br&gt;ctg6 158&lt;br&gt;Location: 196239 - 197898" locus_tag="ctg6_158" class="clusterblast-orf" id="dummy-1_q11_0_all"  />
<polygon points="213,40 247,40 252,35 247,30 213,30 213,40 " style="fill:#d88615; stroke-width:1; stroke:black; " description="&lt;b&gt;ctg6_159&lt;/b&gt;&lt;br&gt;ctg6 159&lt;br&gt;Location: 197962 - 202165" locus_tag="ctg6_159" class="clusterblast-orf" id="dummy-1_q12_0_all"  />
<polygon points="256,35 260,30 260,40 256,35 " style="fill:#15d82e; stroke-width:1; stroke:black; " description="&lt;b&gt;ctg6_160&lt;/b&gt;&lt;br&gt;ctg6 160&lt;br&gt;Location: 202628 - 202997" locus_tag="ctg6_160" class="clusterblast-orf" id="dummy-1_q13_0_all"  />
<polygon points="267,35 272,30 290,30 290,40 272,40 267,35 " style="fill:#1554d8; stroke-width:1; stroke:black; " description="&lt;b&gt;ctg6_161&lt;/b&gt;&lt;br&gt;ctg6 161&lt;br&gt;Location: 203761 - 206242" locus_tag="ctg6_161" class="clusterblast-orf" id="dummy-1_q14_0_all"  />
<polygon points="296,35 301,30 326,30 326,40 301,40 296,35 " style="fill:#d88615; stroke-width:1; stroke:black; " description="&lt;b&gt;ctg6_162&lt;/b&gt;&lt;br&gt;ctg6 162&lt;br&gt;Location: 206833 - 210055" locus_tag="ctg6_162" class="clusterblast-orf" id="dummy-1_q15_0_all"  />
<polygon points="326,35 331,30 452,30 452,40 331,40 326,35 " style="fill:#d88615; stroke-width:1; stroke:black; " description="&lt;b&gt;ctg6_163&lt;/b&gt;&lt;br&gt;ctg6 163&lt;br&gt;Location: 210051 - 223575" locus_tag="ctg6_163" class="clusterblast-orf" id="dummy-1_q16_0_all"  />
<polygon points="452,35 457,30 568,30 568,40 457,40 452,35 " style="fill:#d88615; stroke-width:1; stroke:black; " description="&lt;b&gt;ctg6_164&lt;/b&gt;&lt;br&gt;ctg6 164&lt;br&gt;Location: 223592 - 235946" locus_tag="ctg6_164" class="clusterblast-orf" id="dummy-1_q17_0_all"  />
<polygon points="570,35 575,30 577,30 577,40 575,40 570,35 " style="fill:#d815ac; stroke-width:1; stroke:black; " description="&lt;b&gt;ctg6_165&lt;/b&gt;&lt;br&gt;ctg6 165&lt;br&gt;Location: 236194 - 236929" locus_tag="ctg6_165" class="clusterblast-orf" id="dummy-1_q18_0_all"  />
<polygon points="578,40 584,40 589,35 584,30 578,30 578,40 " style="fill:#d8ac15; stroke-width:1; stroke:black; " description="&lt;b&gt;ctg6_166&lt;/b&gt;&lt;br&gt;ctg6 166&lt;br&gt;Location: 237061 - 238195" locus_tag="ctg6_166" class="clusterblast-orf" id="dummy-1_q19_0_all"  />
<polygon points="590,35 595,30 601,30 601,40 595,40 590,35 " style="fill:#15d854; stroke-width:1; stroke:black; " description="&lt;b&gt;ctg6_167&lt;/b&gt;&lt;br&gt;ctg6 167&lt;br&gt;Location: 238308 - 239481" locus_tag="ctg6_167" class="clusterblast-orf" id="dummy-1_q20_0_all"  />
<polygon points="603,40 605,40 610,35 605,30 603,30 603,40 " style="fill:#152ed8; stroke-width:1; stroke:black; " description="&lt;b&gt;ctg6_168&lt;/b&gt;&lt;br&gt;ctg6 168&lt;br&gt;Location: 239709 - 240510" locus_tag="ctg6_168" class="clusterblast-orf" id="dummy-1_q21_0_all"  />
<polygon points="610,40 622,40 627,35 622,30 610,30 610,40 " style="fill:#d81586; stroke-width:1; stroke:black; " description="&lt;b&gt;ctg6_169&lt;/b&gt;&lt;br&gt;ctg6 169&lt;br&gt;Location: 240502 - 242329" locus_tag="ctg6_169" class="clusterblast-orf" id="dummy-1_q22_0_all"  />
<polygon points="632,40 636,35 632,30 632,40 " style="fill:#d8d215; stroke-width:1; stroke:black; " description="&lt;b&gt;ctg6_170&lt;/b&gt;&lt;br&gt;ctg6 170&lt;br&gt;Location: 242874 - 243264" locus_tag="ctg6_170" class="clusterblast-orf" id="dummy-1_q23_0_all"  />
<polygon points="637,40 644,40 649,35 644,30 637,30 637,40 " style="fill:white; stroke-width:1; stroke:black; " description="&lt;b&gt;ctg6_171&lt;/b&gt;&lt;br&gt;ctg6 171&lt;br&gt;Location: 243399 - 244644" locus_tag="ctg6_171" class="clusterblast-orf" id="dummy-1_q24_0_all"  />
<polygon points="650,40 654,40 659,35 654,30 650,30 650,40 " style="fill:#15d87a; stroke-width:1; stroke:black; " description="&lt;b&gt;ctg6_172&lt;/b&gt;&lt;br&gt;ctg6 172&lt;br&gt;Location: 244758 - 245664" locus_tag="ctg6_172" class="clusterblast-orf" id="dummy-1_q25_0_all"  />
<polygon points="658,35 663,30 667,30 667,40 663,40 658,35 " style="fill:#2215d8; stroke-width:1; stroke:black; " description="&lt;b&gt;ctg6_173&lt;/b&gt;&lt;br&gt;ctg6 173&lt;br&gt;Location: 245617 - 246616" locus_tag="ctg6_173" class="clusterblast-orf" id="dummy-1_q26_0_all"  />
<polygon points="668,40 670,40 675,35 670,30 668,30 668,40 " style="fill:#2215d8; stroke-width:1; stroke:black; " description="&lt;b&gt;ctg6_174&lt;/b&gt;&lt;br&gt;ctg6 174&lt;br&gt;Location: 246708 - 247395" locus_tag="ctg6_174" class="clusterblast-orf" id="dummy-1_q27_0_all"  />
<polygon points="676,35 681,30 681,30 681,40 681,40 676,35 " style="fill:white; stroke-width:1; stroke:black; " description="&lt;b&gt;ctg6_175&lt;/b&gt;&lt;br&gt;ctg6 175&lt;br&gt;Location: 247489 - 248107" locus_tag="ctg6_175" class="clusterblast-orf" id="dummy-1_q28_0_all"  />
<polygon points="685,35 690,30 692,30 692,40 690,40 685,35 " style="fill:#d81561; stroke-width:1; stroke:black; " description="&lt;b&gt;ctg6_176&lt;/b&gt;&lt;br&gt;ctg6 176&lt;br&gt;Location: 248451 - 249252" locus_tag="ctg6_176" class="clusterblast-orf" id="dummy-1_q29_0_all"  />
<polygon points="692,35 697,30 697,30 697,40 697,40 692,35 " style="fill:#b9d815; stroke-width:1; stroke:black; " description="&lt;b&gt;ctg6_177&lt;/b&gt;&lt;br&gt;ctg6 177&lt;br&gt;Location: 249252 - 249741" locus_tag="ctg6_177" class="clusterblast-orf" id="dummy-1_q30_0_all"  />
<polygon points="699,40 702,40 707,35 702,30 699,30 699,40 " style="fill:#15d8a0; stroke-width:1; stroke:black; " description="&lt;b&gt;ctg6_178&lt;/b&gt;&lt;br&gt;ctg6 178&lt;br&gt;Location: 249938 - 250883" locus_tag="ctg6_178" class="clusterblast-orf" id="dummy-1_q31_0_all"  />
<polygon points="707,40 711,35 707,30 707,40 " style="fill:#4815d8; stroke-width:1; stroke:black; " description="&lt;b&gt;ctg6_179&lt;/b&gt;&lt;br&gt;ctg6 179&lt;br&gt;Location: 250875 - 251274" locus_tag="ctg6_179" class="clusterblast-orf" id="dummy-1_q32_0_all"  />
<polygon points="713,40 715,35 713,30 713,40 " style="fill:#d8153b; stroke-width:1; stroke:black; " description="&lt;b&gt;ctg6_180&lt;/b&gt;&lt;br&gt;ctg6 180&lt;br&gt;Location: 251446 - 251749" locus_tag="ctg6_180" class="clusterblast-orf" id="dummy-1_q33_0_all"  />
<polygon points="717,40 718,40 723,35 718,30 717,30 717,40 " style="fill:white; stroke-width:1; stroke:black; " description="&lt;b&gt;ctg6_181&lt;/b&gt;&lt;br&gt;ctg6 181&lt;br&gt;Location: 251877 - 252582" locus_tag="ctg6_181" class="clusterblast-orf" id="dummy-1_q34_0_all"  />
<polygon points="724,40 728,35 724,30 724,40 " style="fill:#93d815; stroke-width:1; stroke:black; " description="&lt;b&gt;ctg6_182&lt;/b&gt;&lt;br&gt;ctg6 182&lt;br&gt;Location: 252704 - 253106" locus_tag="ctg6_182" class="clusterblast-orf" id="dummy-1_q35_0_all"  />
<polygon points="729,35 734,30 740,30 740,40 734,40 729,35 " style="fill:#15d8c5; stroke-width:1; stroke:black; " description="&lt;b&gt;ctg6_183&lt;/b&gt;&lt;br&gt;ctg6 183&lt;br&gt;Location: 253229 - 254348" locus_tag="ctg6_183" class="clusterblast-orf" id="dummy-1_q36_0_all"  />
<polygon points="740,35 743,30 743,40 740,35 " style="fill:#6d15d8; stroke-width:1; stroke:black; " description="&lt;b&gt;ctg6_184&lt;/b&gt;&lt;br&gt;ctg6 184&lt;br&gt;Location: 254372 - 254696" locus_tag="ctg6_184" class="clusterblast-orf" id="dummy-1_q37_0_all"  />
</g>
<g label="NC_007492" description="NC_007492_c4: Pseudomonas fluorescens Pf0-1, complete genome (75% of genes show similarity), terpene-nrps" class="clusterblast-cluster"  >
<text x="5" y="70" class="clusterblast-acc"  >
<a xlink:href="https://antismash-db.secondarymetabolites.org/go/NC_007492/4" target="_blank">NC_007492_c4</a>: Pseudomonas fluorescens Pf0-1, complete genome (75% of genes show similarity), terpene-nrps</text>
<line x1="10" y1="85" x2="778.0" y2="85" style="stroke-width:1; stroke:grey; "  />
</g>
<g id="a1_000"  >
<polygon points="0,85 5,80 5,80 5,90 5,90 0,85 " style="fill:#d81515; stroke-width:1; stroke:black; " description="&lt;b&gt;PFL01_RS09385&lt;/b&gt;&lt;br&gt;DNA-binding response regulator&lt;br&gt;Location: 2124421 - 2123792&lt;br&gt;&lt;br&gt;&lt;b&gt;BlastP hit with ctg6_147&lt;/b&gt;&lt;br&gt;Percentage identity: 53&lt;br&gt;Percentage coverage: 101&lt;br&gt;BLAST bit score: 197&lt;br&gt;E-value: 1.6e-48" locus_tag="PFL01_RS09385" class="clusterblast-orf" id="dummy-1_h1_9_0"  />
</g>
<g id="a1_001"  >
<polygon points="6,85 10,80 10,90 6,85 " style="fill:white; stroke-width:1; stroke:black; " description="&lt;b&gt;PFL01_RS09380&lt;/b&gt;&lt;br&gt;hypothetical protein&lt;br&gt;Location: 2123684 - 2123250" locus_tag="PFL01_RS09380" class="clusterblast-orf" id="dummy-1_h1_9_1"  />
</g>
<g id="a1_002"  >
<polygon points="11,85 16,80 18,80 18,90 16,90 11,85 " style="fill:white; stroke-width:1; stroke:black; " description="&lt;b&gt;PFL01_RS09375&lt;/b&gt;&lt;br&gt;MgtC/SapB family protein&lt;br&gt;Location: 2123140 - 2122424" locus_tag="PFL01_RS09375" class="clusterblast-orf" id="dummy-1_h1_9_2"  />
</g>
<g id="a1_003"  >
<polygon points="19,85 24,80 44,80 44,90 24,90 19,85 " style="fill:#6dd815; stroke-width:1; stroke:black; " description="&lt;b&gt;PFL01_RS09370&lt;/b&gt;&lt;br&gt;magnesium-translocating P-type ATPase&lt;br&gt;Location: 2122369 - 2119670&lt;br&gt;&lt;br&gt;&lt;b&gt;BlastP hit with ctg6_148&lt;/b&gt;&lt;br&gt;Percentage identity: 89&lt;br&gt;Percentage coverage: 100&lt;br&gt;BLAST bit score: 1525&lt;br&gt;E-value: 0.0" locus_tag="PFL01_RS09370" class="clusterblast-orf" id="dummy-1_h1_9_3"  />
</g>
<g id="a1_004"  >
<polygon points="49,85 54,80 61,80 61,90 54,90 49,85 " style="fill:#15c5d8; stroke-width:1; stroke:black; " description="&lt;b&gt;PFL01_RS09365&lt;/b&gt;&lt;br&gt;L-ornithine 5-monooxygenase&lt;br&gt;Location: 2119175 - 2117838&lt;br&gt;&lt;br&gt;&lt;b&gt;BlastP hit with ctg6_149&lt;/b&gt;&lt;br&gt;Percentage identity: 93&lt;br&gt;Percentage coverage: 100&lt;br&gt;BLAST bit score: 839&lt;br&gt;E-value: 1.3e-241" locus_tag="PFL01_RS09365" class="clusterblast-orf" id="dummy-1_h1_9_4"  />
</g>
<g id="a1_005"  >
<polygon points="62,85 67,80 67,80 67,90 67,90 62,85 " style="fill:#9315d8; stroke-width:1; stroke:black; " description="&lt;b&gt;PFL01_RS09360&lt;/b&gt;&lt;br&gt;RNA polymerase sigma factor&lt;br&gt;Location: 2117724 - 2117242&lt;br&gt;&lt;br&gt;&lt;b&gt;BlastP hit with ctg6_150&lt;/b&gt;&lt;br&gt;Percentage identity: 92&lt;br&gt;Percentage coverage: 100&lt;br&gt;BLAST bit score: 303&lt;br&gt;E-value: 1.6e-80" locus_tag="PFL01_RS09360" class="clusterblast-orf" id="dummy-1_h1_9_5"  />
</g>
<g id="a1_006"  >
<polygon points="70,90 76,90 81,85 76,80 70,80 70,90 " style="fill:#d83b15; stroke-width:1; stroke:black; " description="&lt;b&gt;PFL01_RS09355&lt;/b&gt;&lt;br&gt;efflux RND transporter periplasmic adaptor subunit&lt;br&gt;Location: 2116923 - 2115751&lt;br&gt;&lt;br&gt;&lt;b&gt;BlastP hit with ctg6_151&lt;/b&gt;&lt;br&gt;Percentage identity: 87&lt;br&gt;Percentage coverage: 100&lt;br&gt;BLAST bit score: 594&lt;br&gt;E-value: 6.6e-168" locus_tag="PFL01_RS09355" class="clusterblast-orf" id="dummy-1_h1_9_6"  />
</g>
<g id="a1_007"  >
<polygon points="81,90 94,90 99,85 94,80 81,80 81,90 " style="fill:#48d815; stroke-width:1; stroke:black; " description="&lt;b&gt;PFL01_RS09350&lt;/b&gt;&lt;br&gt;macrolide ABC transporter permease/ATP-binding protein MacB&lt;br&gt;Location: 2115750 - 2113777&lt;br&gt;&lt;br&gt;&lt;b&gt;BlastP hit with ctg6_152&lt;/b&gt;&lt;br&gt;Percentage identity: 91&lt;br&gt;Percentage coverage: 100&lt;br&gt;BLAST bit score: 1155&lt;br&gt;E-value: 0.0" locus_tag="PFL01_RS09350" class="clusterblast-orf" id="dummy-1_h1_9_7"  />
</g>
<g id="a1_008"  >
<polygon points="99,90 107,90 112,85 107,80 99,80 99,90 " style="fill:#15a0d8; stroke-width:1; stroke:black; " description="&lt;b&gt;PFL01_RS09345&lt;/b&gt;&lt;br&gt;RND transporter&lt;br&gt;Location: 2113769 - 2112375&lt;br&gt;&lt;br&gt;&lt;b&gt;BlastP hit with ctg6_153&lt;/b&gt;&lt;br&gt;Percentage identity: 79&lt;br&gt;Percentage coverage: 100&lt;br&gt;BLAST bit score: 702&lt;br&gt;E-value: 2.7e-200" locus_tag="PFL01_RS09345" class="clusterblast-orf" id="dummy-1_h1_9_8"  />
</g>
<g id="a1_009"  >
<polygon points="112,85 117,80 127,80 127,90 117,90 112,85 " style="fill:#b915d8; stroke-width:1; stroke:black; " description="&lt;b&gt;PFL01_RS09340&lt;/b&gt;&lt;br&gt;hypothetical protein&lt;br&gt;Location: 2112341 - 2110731&lt;br&gt;&lt;br&gt;&lt;b&gt;BlastP hit with ctg6_154&lt;/b&gt;&lt;br&gt;Percentage identity: 81&lt;br&gt;Percentage coverage: 99&lt;br&gt;BLAST bit score: 945&lt;br&gt;E-value: 2.8e-273" locus_tag="PFL01_RS09340" class="clusterblast-orf" id="dummy-1_h1_9_9"  />
</g>
<g id="a1_0010"  >
<polygon points="129,90 137,90 142,85 137,80 129,80 129,90 " style="fill:#d86115; stroke-width:1; stroke:black; " description="&lt;b&gt;PFL01_RS09335&lt;/b&gt;&lt;br&gt;membrane dipeptidase&lt;br&gt;Location: 2110546 - 2109176&lt;br&gt;&lt;br&gt;&lt;b&gt;BlastP hit with ctg6_155&lt;/b&gt;&lt;br&gt;Percentage identity: 89&lt;br&gt;Percentage coverage: 100&lt;br&gt;BLAST bit score: 846&lt;br&gt;E-value: 1.9e-243" locus_tag="PFL01_RS09335" class="clusterblast-orf" id="dummy-1_h1_9_10"  />
</g>
<g id="a1_0011"  >
<polygon points="142,90 149,90 154,85 149,80 142,80 142,90 " style="fill:#22d815; stroke-width:1; stroke:black; " description="&lt;b&gt;PFL01_RS09330&lt;/b&gt;&lt;br&gt;aminotransferase class V-fold PLP-dependent enzyme&lt;br&gt;Location: 2109179 - 2107884&lt;br&gt;&lt;br&gt;&lt;b&gt;BlastP hit with ctg6_156&lt;/b&gt;&lt;br&gt;Percentage identity: 82&lt;br&gt;Percentage coverage: 101&lt;br&gt;BLAST bit score: 726&lt;br&gt;E-value: 2.1e-207" locus_tag="PFL01_RS09330" class="clusterblast-orf" id="dummy-1_h1_9_11"  />
</g>
<g id="a1_0012"  >
<polygon points="154,90 158,90 163,85 158,80 154,80 154,90 " style="fill:#157ad8; stroke-width:1; stroke:black; " description="&lt;b&gt;PFL01_RS09325&lt;/b&gt;&lt;br&gt;formylglycine-generating enzyme family protein&lt;br&gt;Location: 2107844 - 2106936&lt;br&gt;&lt;br&gt;&lt;b&gt;BlastP hit with ctg6_157&lt;/b&gt;&lt;br&gt;Percentage identity: 79&lt;br&gt;Percentage coverage: 102&lt;br&gt;BLAST bit score: 500&lt;br&gt;E-value: 9.8e-140" locus_tag="PFL01_RS09325" class="clusterblast-orf" id="dummy-1_h1_9_12"  />
</g>
<g id="a1_0013"  >
<polygon points="164,90 174,90 179,85 174,80 164,80 164,90 " style="fill:#d815d2; stroke-width:1; stroke:black; " description="&lt;b&gt;PFL01_RS09320&lt;/b&gt;&lt;br&gt;cyclic peptide export ABC transporter&lt;br&gt;Location: 2106848 - 2105190&lt;br&gt;&lt;br&gt;&lt;b&gt;BlastP hit with ctg6_158&lt;/b&gt;&lt;br&gt;Percentage identity: 88&lt;br&gt;Percentage coverage: 99&lt;br&gt;BLAST bit score: 939&lt;br&gt;E-value: 1.5e-271" locus_tag="PFL01_RS09320" class="clusterblast-orf" id="dummy-1_h1_9_13"  />
</g>
<g id="a1_0014"  >
<polygon points="180,90 213,90 218,85 213,80 180,80 180,90 " style="fill:#d88615; stroke-width:1; stroke:black; " description="&lt;b&gt;PFL01_RS09315&lt;/b&gt;&lt;br&gt;non-ribosomal peptide synthetase&lt;br&gt;Location: 2105153 - 2101002&lt;br&gt;&lt;br&gt;&lt;b&gt;BlastP hit with ctg6_159&lt;/b&gt;&lt;br&gt;Percentage identity: 54&lt;br&gt;Percentage coverage: 99&lt;br&gt;BLAST bit score: 1399&lt;br&gt;E-value: 0.0" locus_tag="PFL01_RS09315" class="clusterblast-orf" id="dummy-1_h1_9_14"  />
</g>
<g id="a1_0015"  >
<polygon points="220,85 225,80 243,80 243,90 225,90 220,85 " style="fill:#1554d8; stroke-width:1; stroke:black; " description="&lt;b&gt;PFL01_RS09310&lt;/b&gt;&lt;br&gt;TonB-dependent siderophore receptor&lt;br&gt;Location: 2100848 - 2098368&lt;br&gt;&lt;br&gt;&lt;b&gt;BlastP hit with ctg6_161&lt;/b&gt;&lt;br&gt;Percentage identity: 56&lt;br&gt;Percentage coverage: 101&lt;br&gt;BLAST bit score: 935&lt;br&gt;E-value: 4.4e-270" locus_tag="PFL01_RS09310" class="clusterblast-orf" id="dummy-1_h1_9_15"  />
</g>
<g id="a1_0016"  >
<polygon points="246,85 251,80 276,80 276,90 251,90 246,85 " style="fill:#d88615; stroke-width:1; stroke:black; " description="&lt;b&gt;PFL01_RS09305&lt;/b&gt;&lt;br&gt;non-ribosomal peptide synthetase&lt;br&gt;Location: 2098021 - 2094809&lt;br&gt;&lt;br&gt;&lt;b&gt;BlastP hit with ctg6_162&lt;/b&gt;&lt;br&gt;Percentage identity: 63&lt;br&gt;Percentage coverage: 100&lt;br&gt;BLAST bit score: 1273&lt;br&gt;E-value: 0.0" locus_tag="PFL01_RS09305" class="clusterblast-orf" id="dummy-1_h1_9_16"  />
</g>
<g id="a1_0017"  >
<polygon points="276,85 281,80 402,80 402,90 281,90 276,85 " style="fill:#d88615; stroke-width:1; stroke:black; " description="&lt;b&gt;PFL01_RS09300&lt;/b&gt;&lt;br&gt;non-ribosomal peptide synthetase&lt;br&gt;Location: 2094812 - 2081307&lt;br&gt;&lt;br&gt;&lt;b&gt;BlastP hit with ctg6_159&lt;/b&gt;&lt;br&gt;Percentage identity: 47&lt;br&gt;Percentage coverage: 77&lt;br&gt;BLAST bit score: 894&lt;br&gt;E-value: 1.4e-257&lt;br&gt;&lt;br&gt;&lt;b&gt;BlastP hit with ctg6_163&lt;/b&gt;&lt;br&gt;Percentage identity: 65&lt;br&gt;Percentage coverage: 101&lt;br&gt;BLAST bit score: 5736&lt;br&gt;E-value: 0.0&lt;br&gt;&lt;br&gt;&lt;b&gt;BlastP hit with ctg6_164&lt;/b&gt;&lt;br&gt;Percentage identity: 46&lt;br&gt;Percentage coverage: 101&lt;br&gt;BLAST bit score: 3235&lt;br&gt;E-value: 0.0" locus_tag="PFL01_RS09300" class="clusterblast-orf" id="dummy-1_h1_9_17"  />
</g>
<g id="a1_0018"  >
<polygon points="402,85 407,80 560,80 560,90 407,90 402,85 " style="fill:#d88615; stroke-width:1; stroke:black; " description="&lt;b&gt;PFL01_RS09295&lt;/b&gt;&lt;br&gt;non-ribosomal peptide synthase/polyketide synthase&lt;br&gt;Location: 2081307 - 2064409&lt;br&gt;&lt;br&gt;&lt;b&gt;BlastP hit with ctg6_159&lt;/b&gt;&lt;br&gt;Percentage identity: 43&lt;br&gt;Percentage coverage: 76&lt;br&gt;BLAST bit score: 817&lt;br&gt;E-value: 2.2e-234&lt;br&gt;&lt;br&gt;&lt;b&gt;BlastP hit with ctg6_163&lt;/b&gt;&lt;br&gt;Percentage identity: 44&lt;br&gt;Percentage coverage: 99&lt;br&gt;BLAST bit score: 3286&lt;br&gt;E-value: 0.0&lt;br&gt;&lt;br&gt;&lt;b&gt;BlastP hit with ctg6_164&lt;/b&gt;&lt;br&gt;Percentage identity: 71&lt;br&gt;Percentage coverage: 100&lt;br&gt;BLAST bit score: 5719&lt;br&gt;E-value: 0.0" locus_tag="PFL01_RS09295" class="clusterblast-orf" id="dummy-1_h1_9_18"  />
</g>
<g id="a1_0019"  >
<polygon points="563,85 568,80 570,80 570,90 568,90 563,85 " style="fill:#d815ac; stroke-width:1; stroke:black; " description="&lt;b&gt;PFL01_RS09290&lt;/b&gt;&lt;br&gt;thioesterase&lt;br&gt;Location: 2064148 - 2063411&lt;br&gt;&lt;br&gt;&lt;b&gt;BlastP hit with ctg6_165&lt;/b&gt;&lt;br&gt;Percentage identity: 94&lt;br&gt;Percentage coverage: 98&lt;br&gt;BLAST bit score: 463&lt;br&gt;E-value: 1.9e-128" locus_tag="PFL01_RS09290" class="clusterblast-orf" id="dummy-1_h1_9_19"  />
</g>
<g id="a1_0020"  >
<polygon points="571,90 577,90 582,85 577,80 571,80 571,90 " style="fill:#d8ac15; stroke-width:1; stroke:black; " description="&lt;b&gt;PFL01_RS09285&lt;/b&gt;&lt;br&gt;cupin&lt;br&gt;Location: 2063281 - 2062151&lt;br&gt;&lt;br&gt;&lt;b&gt;BlastP hit with ctg6_166&lt;/b&gt;&lt;br&gt;Percentage identity: 90&lt;br&gt;Percentage coverage: 100&lt;br&gt;BLAST bit score: 706&lt;br&gt;E-value: 2e-201" locus_tag="PFL01_RS09285" class="clusterblast-orf" id="dummy-1_h1_9_20"  />
</g>
<g id="a1_0021"  >
<polygon points="582,85 587,80 593,80 593,90 587,90 582,85 " style="fill:#15d854; stroke-width:1; stroke:black; " description="&lt;b&gt;PFL01_RS09280&lt;/b&gt;&lt;br&gt;MFS transporter&lt;br&gt;Location: 2062144 - 2060972&lt;br&gt;&lt;br&gt;&lt;b&gt;BlastP hit with ctg6_167&lt;/b&gt;&lt;br&gt;Percentage identity: 88&lt;br&gt;Percentage coverage: 100&lt;br&gt;BLAST bit score: 645&lt;br&gt;E-value: 4.3e-183" locus_tag="PFL01_RS09280" class="clusterblast-orf" id="dummy-1_h1_9_21"  />
</g>
<g id="a1_0022"  >
<polygon points="595,90 600,90 605,85 600,80 595,80 595,90 " style="fill:white; stroke-width:1; stroke:black; " description="&lt;b&gt;PFL01_RS09275&lt;/b&gt;&lt;br&gt;Terpene synthase, metal-binding&lt;br&gt;Location: 2060676 - 2059669" locus_tag="PFL01_RS09275" class="clusterblast-orf" id="dummy-1_h1_9_22"  />
</g>
<g id="a1_0023"  >
<polygon points="606,90 608,90 613,85 608,80 606,80 606,90 " style="fill:#152ed8; stroke-width:1; stroke:black; " description="&lt;b&gt;PFL01_RS09270&lt;/b&gt;&lt;br&gt;3-oxoacyl-ACP reductase&lt;br&gt;Location: 2059553 - 2058753&lt;br&gt;&lt;br&gt;&lt;b&gt;BlastP hit with ctg6_168&lt;/b&gt;&lt;br&gt;Percentage identity: 81&lt;br&gt;Percentage coverage: 100&lt;br&gt;BLAST bit score: 408&lt;br&gt;E-value: 6e-112" locus_tag="PFL01_RS09270" class="clusterblast-orf" id="dummy-1_h1_9_23"  />
</g>
<g id="a1_0024"  >
<polygon points="613,90 625,90 630,85 625,80 613,80 613,90 " style="fill:#d81586; stroke-width:1; stroke:black; " description="&lt;b&gt;PFL01_RS09265&lt;/b&gt;&lt;br&gt;glycoside hydrolase family 15 protein&lt;br&gt;Location: 2058760 - 2056931&lt;br&gt;&lt;br&gt;&lt;b&gt;BlastP hit with ctg6_169&lt;/b&gt;&lt;br&gt;Percentage identity: 89&lt;br&gt;Percentage coverage: 100&lt;br&gt;BLAST bit score: 1138&lt;br&gt;E-value: 0.0" locus_tag="PFL01_RS09265" class="clusterblast-orf" id="dummy-1_h1_9_24"  />
</g>
<g id="a1_0025"  >
<polygon points="633,90 637,85 633,80 633,90 " style="fill:#d8d215; stroke-width:1; stroke:black; " description="&lt;b&gt;PFL01_RS09260&lt;/b&gt;&lt;br&gt;hypothetical protein&lt;br&gt;Location: 2056622 - 2056233&lt;br&gt;&lt;br&gt;&lt;b&gt;BlastP hit with ctg6_170&lt;/b&gt;&lt;br&gt;Percentage identity: 87&lt;br&gt;Percentage coverage: 99&lt;br&gt;BLAST bit score: 237&lt;br&gt;E-value: 6.8e-61" locus_tag="PFL01_RS09260" class="clusterblast-orf" id="dummy-1_h1_9_25"  />
</g>
<g id="a1_0026"  >
<polygon points="637,90 640,90 645,85 640,80 637,80 637,90 " style="fill:#15d87a; stroke-width:1; stroke:black; " description="&lt;b&gt;PFL01_RS09255&lt;/b&gt;&lt;br&gt;alpha/beta hydrolase&lt;br&gt;Location: 2056222 - 2055323&lt;br&gt;&lt;br&gt;&lt;b&gt;BlastP hit with ctg6_172&lt;/b&gt;&lt;br&gt;Percentage identity: 85&lt;br&gt;Percentage coverage: 98&lt;br&gt;BLAST bit score: 535&lt;br&gt;E-value: 4.8e-150" locus_tag="PFL01_RS09255" class="clusterblast-orf" id="dummy-1_h1_9_26"  />
</g>
<g id="a1_0027"  >
<polygon points="645,85 650,80 654,80 654,90 650,90 645,85 " style="fill:#2215d8; stroke-width:1; stroke:black; " description="&lt;b&gt;PFL01_RS09250&lt;/b&gt;&lt;br&gt;GlxA family transcriptional regulator&lt;br&gt;Location: 2055354 - 2054371&lt;br&gt;&lt;br&gt;&lt;b&gt;BlastP hit with ctg6_173&lt;/b&gt;&lt;br&gt;Percentage identity: 85&lt;br&gt;Percentage coverage: 98&lt;br&gt;BLAST bit score: 558&lt;br&gt;E-value: 5.8e-157&lt;br&gt;&lt;br&gt;&lt;b&gt;BlastP hit with ctg6_174&lt;/b&gt;&lt;br&gt;Percentage identity: 35&lt;br&gt;Percentage coverage: 83&lt;br&gt;BLAST bit score: 88&lt;br&gt;E-value: 1.2e-15" locus_tag="PFL01_RS09250" class="clusterblast-orf" id="dummy-1_h1_9_27"  />
</g>
<g id="a1_0028"  >
<polygon points="655,90 656,90 661,85 656,80 655,80 655,90 " style="fill:#2215d8; stroke-width:1; stroke:black; " description="&lt;b&gt;PFL01_RS09245&lt;/b&gt;&lt;br&gt;DJ-1/PfpI family protein&lt;br&gt;Location: 2054281 - 2053595&lt;br&gt;&lt;br&gt;&lt;b&gt;BlastP hit with ctg6_173&lt;/b&gt;&lt;br&gt;Percentage identity: 33&lt;br&gt;Percentage coverage: 58&lt;br&gt;BLAST bit score: 78&lt;br&gt;E-value: 1.8e-12&lt;br&gt;&lt;br&gt;&lt;b&gt;BlastP hit with ctg6_174&lt;/b&gt;&lt;br&gt;Percentage identity: 86&lt;br&gt;Percentage coverage: 100&lt;br&gt;BLAST bit score: 390&lt;br&gt;E-value: 1.1e-106" locus_tag="PFL01_RS09245" class="clusterblast-orf" id="dummy-1_h1_9_28"  />
</g>
<g id="a1_0029"  >
<polygon points="663,90 665,90 670,85 665,80 663,80 663,90 " style="fill:white; stroke-width:1; stroke:black; " description="&lt;b&gt;PFL01_RS09240&lt;/b&gt;&lt;br&gt;CPBP family intramembrane metalloprotease&lt;br&gt;Location: 2053461 - 2052670" locus_tag="PFL01_RS09240" class="clusterblast-orf" id="dummy-1_h1_9_29"  />
</g>
<g id="a1_0030"  >
<polygon points="671,90 681,90 686,85 681,80 671,80 671,90 " style="fill:white; stroke-width:1; stroke:black; " description="&lt;b&gt;PFL01_RS09235&lt;/b&gt;&lt;br&gt;PAS domain S-box protein&lt;br&gt;Location: 2052567 - 2051002" locus_tag="PFL01_RS09235" class="clusterblast-orf" id="dummy-1_h1_9_30"  />
</g>
<g id="a1_0031"  >
<polygon points="691,85 694,80 694,90 691,85 " style="fill:white; stroke-width:1; stroke:black; " description="&lt;b&gt;PFL01_RS09230&lt;/b&gt;&lt;br&gt;hypothetical protein&lt;br&gt;Location: 2050476 - 2050117" locus_tag="PFL01_RS09230" class="clusterblast-orf" id="dummy-1_h1_9_31"  />
</g>
<g id="a1_0032"  >
<polygon points="695,85 698,80 698,90 695,85 " style="fill:#15d82e; stroke-width:1; stroke:black; " description="&lt;b&gt;PFL01_RS09225&lt;/b&gt;&lt;br&gt;hypothetical protein&lt;br&gt;Location: 2050029 - 2049664&lt;br&gt;&lt;br&gt;&lt;b&gt;BlastP hit with ctg6_160&lt;/b&gt;&lt;br&gt;Percentage identity: 45&lt;br&gt;Percentage coverage: 98&lt;br&gt;BLAST bit score: 106&lt;br&gt;E-value: 1.7e-21" locus_tag="PFL01_RS09225" class="clusterblast-orf" id="dummy-1_h1_9_32"  />
</g>
<g id="a1_0033"  >
<polygon points="703,85 708,80 730,80 730,90 708,90 703,85 " style="fill:white; stroke-width:1; stroke:black; " description="&lt;b&gt;PFL01_RS09220&lt;/b&gt;&lt;br&gt;hypothetical protein&lt;br&gt;Location: 2049126 - 2046259" locus_tag="PFL01_RS09220" class="clusterblast-orf" id="dummy-1_h1_9_33"  />
</g>
<g id="a1_0034"  >
<polygon points="733,90 765,90 770,85 765,80 733,80 733,90 " style="fill:white; stroke-width:1; stroke:black; " description="&lt;b&gt;PFL01_RS09215&lt;/b&gt;&lt;br&gt;DUF4365 domain-containing protein&lt;br&gt;Location: 2045983 - 2042018" locus_tag="PFL01_RS09215" class="clusterblast-orf" id="dummy-1_h1_9_34"  />
</g>
<g id="a1_0035"  >
<polygon points="773,85 778,80 780,80 780,90 778,90 773,85 " style="fill:white; stroke-width:1; stroke:black; " description="&lt;b&gt;PFL01_RS09210&lt;/b&gt;&lt;br&gt;alpha/beta hydrolase&lt;br&gt;Location: 2041642 - 2040968" locus_tag="PFL01_RS09210" class="clusterblast-orf" id="dummy-1_h1_9_35"  />
</g>
</svg>
