<svg xmlns="http://www.w3.org/2000/svg" xmlns:xlink="http://www.w3.org/1999/xlink" version="1.1" x="0" y="0" height="230" width="800" viewBox="0 0 800 230" preserveAspectRatio="none"  >
<g label="Query sequence" class="clusterblast-cluster"  >
<text x="5" y="20" class="clusterblast-acc"  >
Query sequence</text>
<line x1="10" y1="35" x2="778.0" y2="35" style="stroke-width:1; stroke:grey; "  />
<polygon points="0,35 5,30 14,30 14,40 5,40 0,35 " style="fill:#d81515; stroke-width:1; stroke:black; " description="&lt;b&gt;ctg1_947&lt;/b&gt;&lt;br&gt;ctg1 947&lt;br&gt;Location: 1045973 - 1046867" locus_tag="ctg1_947" class="clusterblast-orf" id="dummy-2_q0_0_all"  />
<polygon points="14,40 16,35 14,30 14,40 " style="fill:white; stroke-width:1; stroke:black; " description="&lt;b&gt;ctg1_948&lt;/b&gt;&lt;br&gt;ctg1 948&lt;br&gt;Location: 1046885 - 1047053" locus_tag="ctg1_948" class="clusterblast-orf" id="dummy-2_q1_0_all"  />
<polygon points="21,35 26,30 28,30 28,40 26,40 21,35 " style="fill:#67d815; stroke-width:1; stroke:black; " description="&lt;b&gt;ctg1_949&lt;/b&gt;&lt;br&gt;ctg1 949&lt;br&gt;Location: 1047381 - 1047852" locus_tag="ctg1_949" class="clusterblast-orf" id="dummy-2_q2_0_all"  />
<polygon points="35,40 44,40 49,35 44,30 35,30 35,40 " style="fill:#15b9d8; stroke-width:1; stroke:black; " description="&lt;b&gt;ctg1_950&lt;/b&gt;&lt;br&gt;ctg1 950&lt;br&gt;Location: 1048295 - 1049231" locus_tag="ctg1_950" class="clusterblast-orf" id="dummy-2_q3_0_all"  />
<polygon points="52,40 59,40 64,35 59,30 52,30 52,40 " style="fill:#8615d8; stroke-width:1; stroke:black; " description="&lt;b&gt;ctg1_951&lt;/b&gt;&lt;br&gt;ctg1 951&lt;br&gt;Location: 1049408 - 1050215" locus_tag="ctg1_951" class="clusterblast-orf" id="dummy-2_q4_0_all"  />
<polygon points="65,35 69,30 69,40 65,35 " style="fill:#d83415; stroke-width:1; stroke:black; " description="&lt;b&gt;ctg1_952&lt;/b&gt;&lt;br&gt;ctg1 952&lt;br&gt;Location: 1050289 - 1050574" locus_tag="ctg1_952" class="clusterblast-orf" id="dummy-2_q5_0_all"  />
<polygon points="71,35 76,30 79,30 79,40 76,40 71,35 " style="fill:#49d815; stroke-width:1; stroke:black; " description="&lt;b&gt;ctg1_953&lt;/b&gt;&lt;br&gt;ctg1 953&lt;br&gt;Location: 1050644 - 1051187" locus_tag="ctg1_953" class="clusterblast-orf" id="dummy-2_q6_0_all"  />
<polygon points="80,35 85,30 109,30 109,40 85,40 80,35 " style="fill:#159bd8; stroke-width:1; stroke:black; " description="&lt;b&gt;ctg1_954&lt;/b&gt;&lt;br&gt;ctg1 954&lt;br&gt;Location: 1051258 - 1053220" locus_tag="ctg1_954" class="clusterblast-orf" id="dummy-2_q7_0_all"  />
<polygon points="111,35 116,30 123,30 123,40 116,40 111,35 " style="fill:#a515d8; stroke-width:1; stroke:black; " description="&lt;b&gt;ctg1_955&lt;/b&gt;&lt;br&gt;ctg1 955&lt;br&gt;Location: 1053329 - 1054127" locus_tag="ctg1_955" class="clusterblast-orf" id="dummy-2_q8_0_all"  />
<polygon points="123,35 128,30 140,30 140,40 128,40 123,35 " style="fill:#d85315; stroke-width:1; stroke:black; " description="&lt;b&gt;ctg1_956&lt;/b&gt;&lt;br&gt;ctg1 956&lt;br&gt;Location: 1054123 - 1055281" locus_tag="ctg1_956" class="clusterblast-orf" id="dummy-2_q9_0_all"  />
<polygon points="141,35 146,30 165,30 165,40 146,40 141,35 " style="fill:#2ad815; stroke-width:1; stroke:black; " description="&lt;b&gt;ctg1_957&lt;/b&gt;&lt;br&gt;ctg1 957&lt;br&gt;Location: 1055304 - 1056921" locus_tag="ctg1_957" class="clusterblast-orf" id="dummy-2_q10_0_all"  />
<polygon points="165,35 170,30 178,30 178,40 170,40 165,35 " style="fill:#157cd8; stroke-width:1; stroke:black; " description="&lt;b&gt;ctg1_958&lt;/b&gt;&lt;br&gt;ctg1 958&lt;br&gt;Location: 1056924 - 1057809" locus_tag="ctg1_958" class="clusterblast-orf" id="dummy-2_q11_0_all"  />
<polygon points="179,35 184,30 206,30 206,40 184,40 179,35 " style="fill:#c415d8; stroke-width:1; stroke:black; " description="&lt;b&gt;ctg1_959&lt;/b&gt;&lt;br&gt;ctg1 959&lt;br&gt;Location: 1057821 - 1059624" locus_tag="ctg1_959" class="clusterblast-orf" id="dummy-2_q12_0_all"  />
<polygon points="208,40 213,40 218,35 213,30 208,30 208,40 " style="fill:#d87215; stroke-width:1; stroke:black; " description="&lt;b&gt;ctg1_960&lt;/b&gt;&lt;br&gt;ctg1 960&lt;br&gt;Location: 1059802 - 1060429" locus_tag="ctg1_960" class="clusterblast-orf" id="dummy-2_q13_0_all"  />
<polygon points="219,40 226,40 231,35 226,30 219,30 219,40 " style="fill:#15d81f; stroke-width:1; stroke:black; " description="&lt;b&gt;ctg1_961&lt;/b&gt;&lt;br&gt;ctg1 961&lt;br&gt;Location: 1060521 - 1061316" locus_tag="ctg1_961" class="clusterblast-orf" id="dummy-2_q14_0_all"  />
<polygon points="233,40 241,40 246,35 241,30 233,30 233,40 " style="fill:#155dd8; stroke-width:1; stroke:black; " description="&lt;b&gt;ctg1_962&lt;/b&gt;&lt;br&gt;ctg1 962&lt;br&gt;Location: 1061450 - 1062287" locus_tag="ctg1_962" class="clusterblast-orf" id="dummy-2_q15_0_all"  />
<polygon points="246,40 248,35 246,30 246,40 " style="fill:#15d81f; stroke-width:1; stroke:black; " description="&lt;b&gt;ctg1_963&lt;/b&gt;&lt;br&gt;ctg1 963&lt;br&gt;Location: 1062293 - 1062425" locus_tag="ctg1_963" class="clusterblast-orf" id="dummy-2_q16_0_all"  />
<polygon points="250,40 257,40 262,35 257,30 250,30 250,40 " style="fill:#155dd8; stroke-width:1; stroke:black; " description="&lt;b&gt;ctg1_964&lt;/b&gt;&lt;br&gt;ctg1 964&lt;br&gt;Location: 1062559 - 1063393" locus_tag="ctg1_964" class="clusterblast-orf" id="dummy-2_q17_0_all"  />
<polygon points="265,40 275,40 280,35 275,30 265,30 265,40 " style="fill:#d815ce; stroke-width:1; stroke:black; " description="&lt;b&gt;ctg1_965&lt;/b&gt;&lt;br&gt;ctg1 965&lt;br&gt;Location: 1063545 - 1064559" locus_tag="ctg1_965" class="clusterblast-orf" id="dummy-2_q18_0_all"  />
<polygon points="282,35 287,30 290,30 290,40 287,40 282,35 " style="fill:#d89015; stroke-width:1; stroke:black; " description="&lt;b&gt;ctg1_966&lt;/b&gt;&lt;br&gt;ctg1 966&lt;br&gt;Location: 1064693 - 1065242" locus_tag="ctg1_966" class="clusterblast-orf" id="dummy-2_q19_0_all"  />
<polygon points="296,40 486,40 491,35 486,30 296,30 296,40 " style="fill:#15d83e; stroke-width:1; stroke:black; " description="&lt;b&gt;ctg1_967&lt;/b&gt;&lt;br&gt;ctg1 967&lt;br&gt;Location: 1065614 - 1078598" locus_tag="ctg1_967" class="clusterblast-orf" id="dummy-2_q20_0_all"  />
<polygon points="494,40 501,40 506,35 501,30 494,30 494,40 " style="fill:#153ed8; stroke-width:1; stroke:black; " description="&lt;b&gt;ctg1_968&lt;/b&gt;&lt;br&gt;ctg1 968&lt;br&gt;Location: 1078770 - 1079583" locus_tag="ctg1_968" class="clusterblast-orf" id="dummy-2_q21_0_all"  />
<polygon points="508,35 513,30 519,30 519,40 513,40 508,35 " style="fill:#d815af; stroke-width:1; stroke:black; " description="&lt;b&gt;ctg1_969&lt;/b&gt;&lt;br&gt;ctg1 969&lt;br&gt;Location: 1079675 - 1080446" locus_tag="ctg1_969" class="clusterblast-orf" id="dummy-2_q22_0_all"  />
<polygon points="519,35 524,30 532,30 532,40 524,40 519,35 " style="fill:#d8af15; stroke-width:1; stroke:black; " description="&lt;b&gt;ctg1_970&lt;/b&gt;&lt;br&gt;ctg1 970&lt;br&gt;Location: 1080421 - 1081288" locus_tag="ctg1_970" class="clusterblast-orf" id="dummy-2_q23_0_all"  />
<polygon points="532,35 537,30 558,30 558,40 537,40 532,35 " style="fill:#15d85d; stroke-width:1; stroke:black; " description="&lt;b&gt;ctg1_971&lt;/b&gt;&lt;br&gt;ctg1 971&lt;br&gt;Location: 1081287 - 1083027" locus_tag="ctg1_971" class="clusterblast-orf" id="dummy-2_q24_0_all"  />
<polygon points="560,40 566,40 571,35 566,30 560,30 560,40 " style="fill:#151fd8; stroke-width:1; stroke:black; " description="&lt;b&gt;ctg1_972&lt;/b&gt;&lt;br&gt;ctg1 972&lt;br&gt;Location: 1083180 - 1083861" locus_tag="ctg1_972" class="clusterblast-orf" id="dummy-2_q25_0_all"  />
<polygon points="571,40 586,40 591,35 586,30 571,30 571,40 " style="fill:#d81590; stroke-width:1; stroke:black; " description="&lt;b&gt;ctg1_973&lt;/b&gt;&lt;br&gt;ctg1 973&lt;br&gt;Location: 1083857 - 1085183" locus_tag="ctg1_973" class="clusterblast-orf" id="dummy-2_q26_0_all"  />
<polygon points="594,40 596,40 601,35 596,30 594,30 594,40 " style="fill:#d8ce15; stroke-width:1; stroke:black; " description="&lt;b&gt;ctg1_974&lt;/b&gt;&lt;br&gt;ctg1 974&lt;br&gt;Location: 1085400 - 1085886" locus_tag="ctg1_974" class="clusterblast-orf" id="dummy-2_q27_0_all"  />
<polygon points="603,40 620,40 625,35 620,30 603,30 603,40 " style="fill:#15d87c; stroke-width:1; stroke:black; " description="&lt;b&gt;ctg1_975&lt;/b&gt;&lt;br&gt;ctg1 975&lt;br&gt;Location: 1086029 - 1087442" locus_tag="ctg1_975" class="clusterblast-orf" id="dummy-2_q28_0_all"  />
<polygon points="626,40 629,35 626,30 626,40 " style="fill:#2a15d8; stroke-width:1; stroke:black; " description="&lt;b&gt;ctg1_976&lt;/b&gt;&lt;br&gt;ctg1 976&lt;br&gt;Location: 1087524 - 1087752" locus_tag="ctg1_976" class="clusterblast-orf" id="dummy-2_q29_0_all"  />
<polygon points="632,35 637,30 647,30 647,40 637,40 632,35 " style="fill:#d81572; stroke-width:1; stroke:black; " description="&lt;b&gt;ctg1_977&lt;/b&gt;&lt;br&gt;ctg1 977&lt;br&gt;Location: 1087926 - 1088898" locus_tag="ctg1_977" class="clusterblast-orf" id="dummy-2_q30_0_all"  />
<polygon points="647,35 652,30 660,30 660,40 652,40 647,35 " style="fill:#c4d815; stroke-width:1; stroke:black; " description="&lt;b&gt;ctg1_978&lt;/b&gt;&lt;br&gt;ctg1 978&lt;br&gt;Location: 1088898 - 1089798" locus_tag="ctg1_978" class="clusterblast-orf" id="dummy-2_q31_0_all"  />
<polygon points="660,35 665,30 673,30 673,40 665,40 660,35 " style="fill:#15d89b; stroke-width:1; stroke:black; " description="&lt;b&gt;ctg1_979&lt;/b&gt;&lt;br&gt;ctg1 979&lt;br&gt;Location: 1089797 - 1090661" locus_tag="ctg1_979" class="clusterblast-orf" id="dummy-2_q32_0_all"  />
<polygon points="673,35 678,30 687,30 687,40 678,40 673,35 " style="fill:#4915d8; stroke-width:1; stroke:black; " description="&lt;b&gt;ctg1_980&lt;/b&gt;&lt;br&gt;ctg1 980&lt;br&gt;Location: 1090657 - 1091584" locus_tag="ctg1_980" class="clusterblast-orf" id="dummy-2_q33_0_all"  />
<polygon points="687,35 692,30 696,30 696,40 692,40 687,35 " style="fill:#d81553; stroke-width:1; stroke:black; " description="&lt;b&gt;ctg1_981&lt;/b&gt;&lt;br&gt;ctg1 981&lt;br&gt;Location: 1091619 - 1092192" locus_tag="ctg1_981" class="clusterblast-orf" id="dummy-2_q34_0_all"  />
<polygon points="696,35 701,30 701,30 701,40 701,40 696,35 " style="fill:#a5d815; stroke-width:1; stroke:black; " description="&lt;b&gt;ctg1_982&lt;/b&gt;&lt;br&gt;ctg1 982&lt;br&gt;Location: 1092194 - 1092524" locus_tag="ctg1_982" class="clusterblast-orf" id="dummy-2_q35_0_all"  />
<polygon points="701,35 706,30 709,30 709,40 706,40 701,35 " style="fill:#15d8b9; stroke-width:1; stroke:black; " description="&lt;b&gt;ctg1_983&lt;/b&gt;&lt;br&gt;ctg1 983&lt;br&gt;Location: 1092520 - 1093063" locus_tag="ctg1_983" class="clusterblast-orf" id="dummy-2_q36_0_all"  />
<polygon points="709,35 714,30 727,30 727,40 714,40 709,35 " style="fill:#6715d8; stroke-width:1; stroke:black; " description="&lt;b&gt;ctg1_984&lt;/b&gt;&lt;br&gt;ctg1 984&lt;br&gt;Location: 1093059 - 1094262" locus_tag="ctg1_984" class="clusterblast-orf" id="dummy-2_q37_0_all"  />
<polygon points="734,40 750,40 755,35 750,30 734,30 734,40 " style="fill:#d81534; stroke-width:1; stroke:black; " description="&lt;b&gt;ctg1_985&lt;/b&gt;&lt;br&gt;ctg1 985&lt;br&gt;Location: 1094682 - 1096104" locus_tag="ctg1_985" class="clusterblast-orf" id="dummy-2_q38_0_all"  />
<polygon points="755,40 759,40 764,35 759,30 755,30 755,40 " style="fill:#86d815; stroke-width:1; stroke:black; " description="&lt;b&gt;ctg1_986&lt;/b&gt;&lt;br&gt;ctg1 986&lt;br&gt;Location: 1096100 - 1096712" locus_tag="ctg1_986" class="clusterblast-orf" id="dummy-2_q39_0_all"  />
<polygon points="766,35 771,30 779,30 779,40 771,40 766,35 " style="fill:#15d8d8; stroke-width:1; stroke:black; " description="&lt;b&gt;ctg1_987&lt;/b&gt;&lt;br&gt;ctg1 987&lt;br&gt;Location: 1096837 - 1097704" locus_tag="ctg1_987" class="clusterblast-orf" id="dummy-2_q40_0_all"  />
</g>
<g label="NZ_AKJD01000252" description="NZ_AKJD01000252_c6: Pseudomonas sp. GM80 PMI37 contig331.331, whole genome sh... (92% of genes show similarity), nrps" class="clusterblast-cluster"  >
<text x="5" y="70" class="clusterblast-acc"  >
<a xlink:href="https://antismash-db.secondarymetabolites.org/go/NZ_AKJD01000252/6" target="_blank">NZ_AKJD01000252_c6</a>: Pseudomonas sp. GM80 PMI37 contig331.331, whole genome sh... (92% of genes show similarity), nrps</text>
<line x1="10" y1="85" x2="778.0" y2="85" style="stroke-width:1; stroke:grey; "  />
</g>
<g id="a2_000"  >
<polygon points="0,85 2,80 2,90 0,85 " style="fill:white; stroke-width:1; stroke:black; " description="&lt;b&gt;PMI37_RS29130&lt;/b&gt;&lt;br&gt;hypothetical protein&lt;br&gt;Location: 56913 - 56719" locus_tag="PMI37_RS29130" class="clusterblast-orf" id="dummy-2_h2_4_0"  />
</g>
<g id="a2_001"  >
<polygon points="8,90 17,90 22,85 17,80 8,80 8,90 " style="fill:white; stroke-width:1; stroke:black; " description="&lt;b&gt;PMI37_RS29125&lt;/b&gt;&lt;br&gt;lipid kinase YegS&lt;br&gt;Location: 56316 - 55405" locus_tag="PMI37_RS29125" class="clusterblast-orf" id="dummy-2_h2_4_1"  />
</g>
<g id="a2_002"  >
<polygon points="22,85 27,80 32,80 32,90 27,90 22,85 " style="fill:white; stroke-width:1; stroke:black; " description="&lt;b&gt;PMI37_RS29120&lt;/b&gt;&lt;br&gt;DNA-binding response regulator&lt;br&gt;Location: 55421 - 54762" locus_tag="PMI37_RS29120" class="clusterblast-orf" id="dummy-2_h2_4_2"  />
</g>
<g id="a2_003"  >
<polygon points="32,85 37,80 45,80 45,90 37,90 32,85 " style="fill:#d81515; stroke-width:1; stroke:black; " description="&lt;b&gt;PMI37_RS29115&lt;/b&gt;&lt;br&gt;sensor histidine kinase&lt;br&gt;Location: 54765 - 53872&lt;br&gt;&lt;br&gt;&lt;b&gt;BlastP hit with ctg1_947&lt;/b&gt;&lt;br&gt;Percentage identity: 86&lt;br&gt;Percentage coverage: 100&lt;br&gt;BLAST bit score: 494&lt;br&gt;E-value: 9.3e-138" locus_tag="PMI37_RS29115" class="clusterblast-orf" id="dummy-2_h2_4_3"  />
</g>
<g id="a2_004"  >
<polygon points="53,85 58,80 60,80 60,90 58,90 53,85 " style="fill:#67d815; stroke-width:1; stroke:black; " description="&lt;b&gt;PMI37_RS29110&lt;/b&gt;&lt;br&gt;hypothetical protein&lt;br&gt;Location: 53388 - 52918&lt;br&gt;&lt;br&gt;&lt;b&gt;BlastP hit with ctg1_949&lt;/b&gt;&lt;br&gt;Percentage identity: 73&lt;br&gt;Percentage coverage: 100&lt;br&gt;BLAST bit score: 229&lt;br&gt;E-value: 2.9e-58" locus_tag="PMI37_RS29110" class="clusterblast-orf" id="dummy-2_h2_4_4"  />
</g>
<g id="a2_005"  >
<polygon points="67,90 76,90 81,85 76,80 67,80 67,90 " style="fill:#15b9d8; stroke-width:1; stroke:black; " description="&lt;b&gt;PMI37_RS29105&lt;/b&gt;&lt;br&gt;chemotaxis protein CheV&lt;br&gt;Location: 52463 - 51528&lt;br&gt;&lt;br&gt;&lt;b&gt;BlastP hit with ctg1_950&lt;/b&gt;&lt;br&gt;Percentage identity: 98&lt;br&gt;Percentage coverage: 100&lt;br&gt;BLAST bit score: 598&lt;br&gt;E-value: 4.8e-169" locus_tag="PMI37_RS29105" class="clusterblast-orf" id="dummy-2_h2_4_5"  />
</g>
<g id="a2_006"  >
<polygon points="84,90 92,90 97,85 92,80 84,80 84,90 " style="fill:#8615d8; stroke-width:1; stroke:black; " description="&lt;b&gt;PMI37_RS29100&lt;/b&gt;&lt;br&gt;MOSC domain-containing protein&lt;br&gt;Location: 51271 - 50465&lt;br&gt;&lt;br&gt;&lt;b&gt;BlastP hit with ctg1_951&lt;/b&gt;&lt;br&gt;Percentage identity: 88&lt;br&gt;Percentage coverage: 100&lt;br&gt;BLAST bit score: 475&lt;br&gt;E-value: 4e-132" locus_tag="PMI37_RS29100" class="clusterblast-orf" id="dummy-2_h2_4_6"  />
</g>
<g id="a2_007"  >
<polygon points="98,85 102,80 102,90 98,85 " style="fill:#d83415; stroke-width:1; stroke:black; " description="&lt;b&gt;PMI37_RS29095&lt;/b&gt;&lt;br&gt;DUF1255 domain-containing protein&lt;br&gt;Location: 50395 - 50111&lt;br&gt;&lt;br&gt;&lt;b&gt;BlastP hit with ctg1_952&lt;/b&gt;&lt;br&gt;Percentage identity: 99&lt;br&gt;Percentage coverage: 100&lt;br&gt;BLAST bit score: 194&lt;br&gt;E-value: 4.8e-48" locus_tag="PMI37_RS29095" class="clusterblast-orf" id="dummy-2_h2_4_7"  />
</g>
<g id="a2_008"  >
<polygon points="104,85 109,80 112,80 112,90 109,90 104,85 " style="fill:#49d815; stroke-width:1; stroke:black; " description="&lt;b&gt;PMI37_RS29090&lt;/b&gt;&lt;br&gt;exonuclease&lt;br&gt;Location: 50005 - 49463&lt;br&gt;&lt;br&gt;&lt;b&gt;BlastP hit with ctg1_953&lt;/b&gt;&lt;br&gt;Percentage identity: 92&lt;br&gt;Percentage coverage: 100&lt;br&gt;BLAST bit score: 351&lt;br&gt;E-value: 5.9e-95" locus_tag="PMI37_RS29090" class="clusterblast-orf" id="dummy-2_h2_4_8"  />
</g>
<g id="a2_009"  >
<polygon points="113,85 118,80 142,80 142,90 118,90 113,85 " style="fill:#159bd8; stroke-width:1; stroke:black; " description="&lt;b&gt;PMI37_RS29085&lt;/b&gt;&lt;br&gt;acetyl/propionyl/methylcrotonyl-CoA carboxylase subunit alpha&lt;br&gt;Location: 49392 - 47431&lt;br&gt;&lt;br&gt;&lt;b&gt;BlastP hit with ctg1_954&lt;/b&gt;&lt;br&gt;Percentage identity: 78&lt;br&gt;Percentage coverage: 100&lt;br&gt;BLAST bit score: 1014&lt;br&gt;E-value: 5.8e-294" locus_tag="PMI37_RS29085" class="clusterblast-orf" id="dummy-2_h2_4_9"  />
</g>
<g id="a2_0010"  >
<polygon points="144,85 149,80 156,80 156,90 149,90 144,85 " style="fill:#a515d8; stroke-width:1; stroke:black; " description="&lt;b&gt;PMI37_RS29080&lt;/b&gt;&lt;br&gt;enoyl-CoA hydratase&lt;br&gt;Location: 47312 - 46515&lt;br&gt;&lt;br&gt;&lt;b&gt;BlastP hit with ctg1_955&lt;/b&gt;&lt;br&gt;Percentage identity: 78&lt;br&gt;Percentage coverage: 100&lt;br&gt;BLAST bit score: 406&lt;br&gt;E-value: 3e-111" locus_tag="PMI37_RS29080" class="clusterblast-orf" id="dummy-2_h2_4_10"  />
</g>
<g id="a2_0011"  >
<polygon points="156,85 161,80 173,80 173,90 161,90 156,85 " style="fill:#d85315; stroke-width:1; stroke:black; " description="&lt;b&gt;PMI37_RS29075&lt;/b&gt;&lt;br&gt;acyl-CoA dehydrogenase&lt;br&gt;Location: 46518 - 45361&lt;br&gt;&lt;br&gt;&lt;b&gt;BlastP hit with ctg1_956&lt;/b&gt;&lt;br&gt;Percentage identity: 98&lt;br&gt;Percentage coverage: 100&lt;br&gt;BLAST bit score: 774&lt;br&gt;E-value: 7.8e-222" locus_tag="PMI37_RS29075" class="clusterblast-orf" id="dummy-2_h2_4_11"  />
</g>
<g id="a2_0012"  >
<polygon points="174,85 179,80 198,80 198,90 179,90 174,85 " style="fill:#2ad815; stroke-width:1; stroke:black; " description="&lt;b&gt;PMI37_RS29070&lt;/b&gt;&lt;br&gt;acyl-CoA carboxylase subunit beta&lt;br&gt;Location: 45329 - 43713&lt;br&gt;&lt;br&gt;&lt;b&gt;BlastP hit with ctg1_957&lt;/b&gt;&lt;br&gt;Percentage identity: 93&lt;br&gt;Percentage coverage: 100&lt;br&gt;BLAST bit score: 999&lt;br&gt;E-value: 1.2e-289" locus_tag="PMI37_RS29070" class="clusterblast-orf" id="dummy-2_h2_4_12"  />
</g>
<g id="a2_0013"  >
<polygon points="198,85 203,80 211,80 211,90 203,90 198,85 " style="fill:#157cd8; stroke-width:1; stroke:black; " description="&lt;b&gt;PMI37_RS29065&lt;/b&gt;&lt;br&gt;KR domain-containing protein&lt;br&gt;Location: 43709 - 42840&lt;br&gt;&lt;br&gt;&lt;b&gt;BlastP hit with ctg1_958&lt;/b&gt;&lt;br&gt;Percentage identity: 87&lt;br&gt;Percentage coverage: 100&lt;br&gt;BLAST bit score: 513&lt;br&gt;E-value: 1.9e-143" locus_tag="PMI37_RS29065" class="clusterblast-orf" id="dummy-2_h2_4_13"  />
</g>
<g id="a2_0014"  >
<polygon points="212,85 217,80 238,80 238,90 217,90 212,85 " style="fill:#c415d8; stroke-width:1; stroke:black; " description="&lt;b&gt;PMI37_RS29060&lt;/b&gt;&lt;br&gt;DUF1446 domain-containing protein&lt;br&gt;Location: 42827 - 41043&lt;br&gt;&lt;br&gt;&lt;b&gt;BlastP hit with ctg1_959&lt;/b&gt;&lt;br&gt;Percentage identity: 89&lt;br&gt;Percentage coverage: 99&lt;br&gt;BLAST bit score: 1076&lt;br&gt;E-value: 0.0" locus_tag="PMI37_RS29060" class="clusterblast-orf" id="dummy-2_h2_4_14"  />
</g>
<g id="a2_0015"  >
<polygon points="241,90 246,90 251,85 246,80 241,80 241,90 " style="fill:#d87215; stroke-width:1; stroke:black; " description="&lt;b&gt;PMI37_RS29055&lt;/b&gt;&lt;br&gt;TetR/AcrR family transcriptional regulator&lt;br&gt;Location: 40858 - 40235&lt;br&gt;&lt;br&gt;&lt;b&gt;BlastP hit with ctg1_960&lt;/b&gt;&lt;br&gt;Percentage identity: 92&lt;br&gt;Percentage coverage: 100&lt;br&gt;BLAST bit score: 379&lt;br&gt;E-value: 2.3e-103" locus_tag="PMI37_RS29055" class="clusterblast-orf" id="dummy-2_h2_4_15"  />
</g>
<g id="a2_0016"  >
<polygon points="252,90 259,90 264,85 259,80 252,80 252,90 " style="fill:#15d81f; stroke-width:1; stroke:black; " description="&lt;b&gt;PMI37_RS29050&lt;/b&gt;&lt;br&gt;amino acid ABC transporter substrate-binding protein&lt;br&gt;Location: 40142 - 39345&lt;br&gt;&lt;br&gt;&lt;b&gt;BlastP hit with ctg1_961&lt;/b&gt;&lt;br&gt;Percentage identity: 86&lt;br&gt;Percentage coverage: 99&lt;br&gt;BLAST bit score: 465&lt;br&gt;E-value: 5.3e-129&lt;br&gt;&lt;br&gt;&lt;b&gt;BlastP hit with ctg1_963&lt;/b&gt;&lt;br&gt;Percentage identity: 71&lt;br&gt;Percentage coverage: 98&lt;br&gt;BLAST bit score: 66&lt;br&gt;E-value: 6.9e-10" locus_tag="PMI37_RS29050" class="clusterblast-orf" id="dummy-2_h2_4_16"  />
</g>
<g id="a2_0017"  >
<polygon points="265,90 276,90 281,85 276,80 265,80 265,90 " style="fill:#d815ce; stroke-width:1; stroke:black; " description="&lt;b&gt;PMI37_RS29045&lt;/b&gt;&lt;br&gt;N-acetyltransferase&lt;br&gt;Location: 39257 - 38244&lt;br&gt;&lt;br&gt;&lt;b&gt;BlastP hit with ctg1_965&lt;/b&gt;&lt;br&gt;Percentage identity: 86&lt;br&gt;Percentage coverage: 100&lt;br&gt;BLAST bit score: 629&lt;br&gt;E-value: 1.6e-178" locus_tag="PMI37_RS29045" class="clusterblast-orf" id="dummy-2_h2_4_17"  />
</g>
<g id="a2_0018"  >
<polygon points="282,85 287,80 290,80 290,90 287,90 282,85 " style="fill:#d89015; stroke-width:1; stroke:black; " description="&lt;b&gt;PMI37_RS29040&lt;/b&gt;&lt;br&gt;RNA polymerase factor sigma-70&lt;br&gt;Location: 38150 - 37596&lt;br&gt;&lt;br&gt;&lt;b&gt;BlastP hit with ctg1_966&lt;/b&gt;&lt;br&gt;Percentage identity: 98&lt;br&gt;Percentage coverage: 97&lt;br&gt;BLAST bit score: 343&lt;br&gt;E-value: 1.2e-92" locus_tag="PMI37_RS29040" class="clusterblast-orf" id="dummy-2_h2_4_18"  />
</g>
<g id="a2_0019"  >
<polygon points="296,90 487,90 492,85 487,80 296,80 296,90 " style="fill:#15d83e; stroke-width:1; stroke:black; " description="&lt;b&gt;PMI37_RS29035&lt;/b&gt;&lt;br&gt;non-ribosomal peptide synthetase&lt;br&gt;Location: 37224 - 24226&lt;br&gt;&lt;br&gt;&lt;b&gt;BlastP hit with ctg1_967&lt;/b&gt;&lt;br&gt;Percentage identity: 90&lt;br&gt;Percentage coverage: 100&lt;br&gt;BLAST bit score: 7902&lt;br&gt;E-value: 0.0" locus_tag="PMI37_RS29035" class="clusterblast-orf" id="dummy-2_h2_4_19"  />
</g>
<g id="a2_0020"  >
<polygon points="495,90 502,90 507,85 502,80 495,80 495,90 " style="fill:#153ed8; stroke-width:1; stroke:black; " description="&lt;b&gt;PMI37_RS29030&lt;/b&gt;&lt;br&gt;2-succinyl-6-hydroxy-2, 4-cyclohexadiene-1-carboxylate synthase&lt;br&gt;Location: 23994 - 23182&lt;br&gt;&lt;br&gt;&lt;b&gt;BlastP hit with ctg1_968&lt;/b&gt;&lt;br&gt;Percentage identity: 88&lt;br&gt;Percentage coverage: 100&lt;br&gt;BLAST bit score: 492&lt;br&gt;E-value: 4.2e-137" locus_tag="PMI37_RS29030" class="clusterblast-orf" id="dummy-2_h2_4_20"  />
</g>
<g id="a2_0021"  >
<polygon points="508,85 513,80 520,80 520,90 513,90 508,85 " style="fill:#d815af; stroke-width:1; stroke:black; " description="&lt;b&gt;PMI37_RS29025&lt;/b&gt;&lt;br&gt;thiol:disulfide interchange protein DsbG&lt;br&gt;Location: 23118 - 22348&lt;br&gt;&lt;br&gt;&lt;b&gt;BlastP hit with ctg1_969&lt;/b&gt;&lt;br&gt;Percentage identity: 90&lt;br&gt;Percentage coverage: 100&lt;br&gt;BLAST bit score: 473&lt;br&gt;E-value: 1.9e-131" locus_tag="PMI37_RS29025" class="clusterblast-orf" id="dummy-2_h2_4_21"  />
</g>
<g id="a2_0022"  >
<polygon points="520,85 525,80 533,80 533,90 525,90 520,85 " style="fill:#d8af15; stroke-width:1; stroke:black; " description="&lt;b&gt;PMI37_RS29020&lt;/b&gt;&lt;br&gt;peroxiredoxin&lt;br&gt;Location: 22372 - 21491&lt;br&gt;&lt;br&gt;&lt;b&gt;BlastP hit with ctg1_970&lt;/b&gt;&lt;br&gt;Percentage identity: 89&lt;br&gt;Percentage coverage: 102&lt;br&gt;BLAST bit score: 524&lt;br&gt;E-value: 8.1e-147" locus_tag="PMI37_RS29020" class="clusterblast-orf" id="dummy-2_h2_4_22"  />
</g>
<g id="a2_0023"  >
<polygon points="533,85 538,80 559,80 559,90 538,90 533,85 " style="fill:#15d85d; stroke-width:1; stroke:black; " description="&lt;b&gt;PMI37_RS29015&lt;/b&gt;&lt;br&gt;protein-disulfide reductase DsbD&lt;br&gt;Location: 21491 - 19758&lt;br&gt;&lt;br&gt;&lt;b&gt;BlastP hit with ctg1_971&lt;/b&gt;&lt;br&gt;Percentage identity: 84&lt;br&gt;Percentage coverage: 100&lt;br&gt;BLAST bit score: 967&lt;br&gt;E-value: 9.5e-280" locus_tag="PMI37_RS29015" class="clusterblast-orf" id="dummy-2_h2_4_23"  />
</g>
<g id="a2_0024"  >
<polygon points="561,90 567,90 572,85 567,80 561,80 561,90 " style="fill:#151fd8; stroke-width:1; stroke:black; " description="&lt;b&gt;PMI37_RS29010&lt;/b&gt;&lt;br&gt;DNA-binding response regulator&lt;br&gt;Location: 19604 - 18924&lt;br&gt;&lt;br&gt;&lt;b&gt;BlastP hit with ctg1_972&lt;/b&gt;&lt;br&gt;Percentage identity: 95&lt;br&gt;Percentage coverage: 100&lt;br&gt;BLAST bit score: 413&lt;br&gt;E-value: 1.6e-113" locus_tag="PMI37_RS29010" class="clusterblast-orf" id="dummy-2_h2_4_24"  />
</g>
<g id="a2_0025"  >
<polygon points="572,90 586,90 591,85 586,80 572,80 572,90 " style="fill:#d81590; stroke-width:1; stroke:black; " description="&lt;b&gt;PMI37_RS29005&lt;/b&gt;&lt;br&gt;two-component sensor histidine kinase&lt;br&gt;Location: 18924 - 17602&lt;br&gt;&lt;br&gt;&lt;b&gt;BlastP hit with ctg1_973&lt;/b&gt;&lt;br&gt;Percentage identity: 90&lt;br&gt;Percentage coverage: 100&lt;br&gt;BLAST bit score: 777&lt;br&gt;E-value: 1.1e-222" locus_tag="PMI37_RS29005" class="clusterblast-orf" id="dummy-2_h2_4_25"  />
</g>
<g id="a2_0026"  >
<polygon points="594,90 597,90 602,85 597,80 594,80 594,90 " style="fill:#d8ce15; stroke-width:1; stroke:black; " description="&lt;b&gt;PMI37_RS29000&lt;/b&gt;&lt;br&gt;N-acetyltransferase&lt;br&gt;Location: 17408 - 16923&lt;br&gt;&lt;br&gt;&lt;b&gt;BlastP hit with ctg1_974&lt;/b&gt;&lt;br&gt;Percentage identity: 56&lt;br&gt;Percentage coverage: 95&lt;br&gt;BLAST bit score: 180&lt;br&gt;E-value: 2.1e-43" locus_tag="PMI37_RS29000" class="clusterblast-orf" id="dummy-2_h2_4_26"  />
</g>
<g id="a2_0027"  >
<polygon points="604,90 620,90 625,85 620,80 604,80 604,90 " style="fill:#15d87c; stroke-width:1; stroke:black; " description="&lt;b&gt;PMI37_RS28995&lt;/b&gt;&lt;br&gt;diaminobutyrate--2-oxoglutarate transaminase&lt;br&gt;Location: 16779 - 15367&lt;br&gt;&lt;br&gt;&lt;b&gt;BlastP hit with ctg1_975&lt;/b&gt;&lt;br&gt;Percentage identity: 92&lt;br&gt;Percentage coverage: 100&lt;br&gt;BLAST bit score: 852&lt;br&gt;E-value: 2.1e-245" locus_tag="PMI37_RS28995" class="clusterblast-orf" id="dummy-2_h2_4_27"  />
</g>
<g id="a2_0028"  >
<polygon points="626,90 630,85 626,80 626,90 " style="fill:#2a15d8; stroke-width:1; stroke:black; " description="&lt;b&gt;PMI37_RS28990&lt;/b&gt;&lt;br&gt;MbtH family protein&lt;br&gt;Location: 15283 - 15059&lt;br&gt;&lt;br&gt;&lt;b&gt;BlastP hit with ctg1_976&lt;/b&gt;&lt;br&gt;Percentage identity: 96&lt;br&gt;Percentage coverage: 95&lt;br&gt;BLAST bit score: 146&lt;br&gt;E-value: 9.1e-34" locus_tag="PMI37_RS28990" class="clusterblast-orf" id="dummy-2_h2_4_28"  />
</g>
<g id="a2_0029"  >
<polygon points="633,85 638,80 646,80 646,90 638,90 633,85 " style="fill:#d81572; stroke-width:1; stroke:black; " description="&lt;b&gt;PMI37_RS28985&lt;/b&gt;&lt;br&gt;metal ABC transporter substrate-binding protein&lt;br&gt;Location: 14859 - 13954&lt;br&gt;&lt;br&gt;&lt;b&gt;BlastP hit with ctg1_977&lt;/b&gt;&lt;br&gt;Percentage identity: 75&lt;br&gt;Percentage coverage: 100&lt;br&gt;BLAST bit score: 466&lt;br&gt;E-value: 2.2e-129" locus_tag="PMI37_RS28985" class="clusterblast-orf" id="dummy-2_h2_4_29"  />
</g>
<g id="a2_0030"  >
<polygon points="646,85 651,80 660,80 660,90 651,90 646,85 " style="fill:#c4d815; stroke-width:1; stroke:black; " description="&lt;b&gt;PMI37_RS28980&lt;/b&gt;&lt;br&gt;metal ABC transporter permease&lt;br&gt;Location: 13953 - 13054&lt;br&gt;&lt;br&gt;&lt;b&gt;BlastP hit with ctg1_978&lt;/b&gt;&lt;br&gt;Percentage identity: 99&lt;br&gt;Percentage coverage: 100&lt;br&gt;BLAST bit score: 481&lt;br&gt;E-value: 8.2e-134" locus_tag="PMI37_RS28980" class="clusterblast-orf" id="dummy-2_h2_4_30"  />
</g>
<g id="a2_0031"  >
<polygon points="660,85 665,80 673,80 673,90 665,90 660,85 " style="fill:#15d89b; stroke-width:1; stroke:black; " description="&lt;b&gt;PMI37_RS28975&lt;/b&gt;&lt;br&gt;metal ABC transporter ATP-binding protein&lt;br&gt;Location: 13054 - 12206&lt;br&gt;&lt;br&gt;&lt;b&gt;BlastP hit with ctg1_979&lt;/b&gt;&lt;br&gt;Percentage identity: 86&lt;br&gt;Percentage coverage: 100&lt;br&gt;BLAST bit score: 473&lt;br&gt;E-value: 1.6e-131" locus_tag="PMI37_RS28975" class="clusterblast-orf" id="dummy-2_h2_4_31"  />
</g>
<g id="a2_0032"  >
<polygon points="673,85 678,80 687,80 687,90 678,90 673,85 " style="fill:#4915d8; stroke-width:1; stroke:black; " description="&lt;b&gt;PMI37_RS28970&lt;/b&gt;&lt;br&gt;ABC transporter substrate-binding protein&lt;br&gt;Location: 12209 - 11280&lt;br&gt;&lt;br&gt;&lt;b&gt;BlastP hit with ctg1_980&lt;/b&gt;&lt;br&gt;Percentage identity: 96&lt;br&gt;Percentage coverage: 100&lt;br&gt;BLAST bit score: 573&lt;br&gt;E-value: 1.6e-161" locus_tag="PMI37_RS28970" class="clusterblast-orf" id="dummy-2_h2_4_32"  />
</g>
<g id="a2_0033"  >
<polygon points="687,85 692,80 696,80 696,90 692,90 687,85 " style="fill:#d81553; stroke-width:1; stroke:black; " description="&lt;b&gt;PMI37_RS28965&lt;/b&gt;&lt;br&gt;hypothetical protein&lt;br&gt;Location: 11244 - 10669&lt;br&gt;&lt;br&gt;&lt;b&gt;BlastP hit with ctg1_981&lt;/b&gt;&lt;br&gt;Percentage identity: 76&lt;br&gt;Percentage coverage: 101&lt;br&gt;BLAST bit score: 285&lt;br&gt;E-value: 5.5e-75" locus_tag="PMI37_RS28965" class="clusterblast-orf" id="dummy-2_h2_4_33"  />
</g>
<g id="a2_0034"  >
<polygon points="696,85 701,80 701,80 701,90 701,90 696,85 " style="fill:#a5d815; stroke-width:1; stroke:black; " description="&lt;b&gt;PMI37_RS28960&lt;/b&gt;&lt;br&gt;hypothetical protein&lt;br&gt;Location: 10672 - 10331&lt;br&gt;&lt;br&gt;&lt;b&gt;BlastP hit with ctg1_982&lt;/b&gt;&lt;br&gt;Percentage identity: 90&lt;br&gt;Percentage coverage: 94&lt;br&gt;BLAST bit score: 193&lt;br&gt;E-value: 1.6e-47" locus_tag="PMI37_RS28960" class="clusterblast-orf" id="dummy-2_h2_4_34"  />
</g>
<g id="a2_0035"  >
<polygon points="701,85 706,80 709,80 709,90 706,90 701,85 " style="fill:#15d8b9; stroke-width:1; stroke:black; " description="&lt;b&gt;PMI37_RS28955&lt;/b&gt;&lt;br&gt;hypothetical protein&lt;br&gt;Location: 10334 - 9792&lt;br&gt;&lt;br&gt;&lt;b&gt;BlastP hit with ctg1_983&lt;/b&gt;&lt;br&gt;Percentage identity: 78&lt;br&gt;Percentage coverage: 100&lt;br&gt;BLAST bit score: 311&lt;br&gt;E-value: 6.7e-83" locus_tag="PMI37_RS28955" class="clusterblast-orf" id="dummy-2_h2_4_35"  />
</g>
<g id="a2_0036"  >
<polygon points="709,85 714,80 727,80 727,90 714,90 709,85 " style="fill:#6715d8; stroke-width:1; stroke:black; " description="&lt;b&gt;PMI37_RS28950&lt;/b&gt;&lt;br&gt;PepSY domain-containing protein&lt;br&gt;Location: 9795 - 8596&lt;br&gt;&lt;br&gt;&lt;b&gt;BlastP hit with ctg1_984&lt;/b&gt;&lt;br&gt;Percentage identity: 87&lt;br&gt;Percentage coverage: 100&lt;br&gt;BLAST bit score: 708&lt;br&gt;E-value: 5.5e-202" locus_tag="PMI37_RS28950" class="clusterblast-orf" id="dummy-2_h2_4_36"  />
</g>
<g id="a2_0037"  >
<polygon points="733,90 749,90 754,85 749,80 733,80 733,90 " style="fill:#d81534; stroke-width:1; stroke:black; " description="&lt;b&gt;PMI37_RS28945&lt;/b&gt;&lt;br&gt;3-isopropylmalate dehydratase large subunit&lt;br&gt;Location: 8225 - 6807&lt;br&gt;&lt;br&gt;&lt;b&gt;BlastP hit with ctg1_985&lt;/b&gt;&lt;br&gt;Percentage identity: 91&lt;br&gt;Percentage coverage: 100&lt;br&gt;BLAST bit score: 853&lt;br&gt;E-value: 9.6e-246" locus_tag="PMI37_RS28945" class="clusterblast-orf" id="dummy-2_h2_4_37"  />
</g>
<g id="a2_0038"  >
<polygon points="754,90 758,90 763,85 758,80 754,80 754,90 " style="fill:#86d815; stroke-width:1; stroke:black; " description="&lt;b&gt;PMI37_RS28940&lt;/b&gt;&lt;br&gt;3-isopropylmalate dehydratase small subunit&lt;br&gt;Location: 6810 - 6196&lt;br&gt;&lt;br&gt;&lt;b&gt;BlastP hit with ctg1_986&lt;/b&gt;&lt;br&gt;Percentage identity: 78&lt;br&gt;Percentage coverage: 100&lt;br&gt;BLAST bit score: 334&lt;br&gt;E-value: 1.1e-89" locus_tag="PMI37_RS28940" class="clusterblast-orf" id="dummy-2_h2_4_38"  />
</g>
<g id="a2_0039"  >
<polygon points="765,85 770,80 780,80 780,90 770,90 765,85 " style="fill:#15d8d8; stroke-width:1; stroke:black; " description="&lt;b&gt;PMI37_RS28935&lt;/b&gt;&lt;br&gt;LysR family transcriptional regulator&lt;br&gt;Location: 6061 - 5111&lt;br&gt;&lt;br&gt;&lt;b&gt;BlastP hit with ctg1_987&lt;/b&gt;&lt;br&gt;Percentage identity: 91&lt;br&gt;Percentage coverage: 100&lt;br&gt;BLAST bit score: 541&lt;br&gt;E-value: 6.4e-152" locus_tag="PMI37_RS28935" class="clusterblast-orf" id="dummy-2_h2_4_39"  />
</g>
</svg>
