<svg xmlns="http://www.w3.org/2000/svg" xmlns:xlink="http://www.w3.org/1999/xlink" version="1.1" x="0" y="0" height="230" width="800" viewBox="0 0 800 230" preserveAspectRatio="none"  >
<g label="Query sequence" class="clusterblast-cluster"  >
<text x="5" y="20" class="clusterblast-acc"  >
Query sequence</text>
<line x1="10" y1="35" x2="778.0" y2="35" style="stroke-width:1; stroke:grey; "  />
<polygon points="225,35 230,30 233,30 233,40 230,40 225,35 " style="fill:#d81515; stroke-width:1; stroke:black; " description="&lt;b&gt;ctg5_984&lt;/b&gt;&lt;br&gt;ctg5 984&lt;br&gt;Location: 1078282 - 1078780" locus_tag="ctg5_984" class="clusterblast-orf" id="dummy-1_q0_0_all"  />
<polygon points="236,40 250,40 255,35 250,30 236,30 236,40 " style="fill:#4dd815; stroke-width:1; stroke:black; " description="&lt;b&gt;ctg5_985&lt;/b&gt;&lt;br&gt;ctg5 985&lt;br&gt;Location: 1078976 - 1080182" locus_tag="ctg5_985" class="clusterblast-orf" id="dummy-1_q1_0_all"  />
<polygon points="256,40 271,40 276,35 271,30 256,30 256,40 " style="fill:#15bcd8; stroke-width:1; stroke:black; " description="&lt;b&gt;ctg5_986&lt;/b&gt;&lt;br&gt;ctg5 986&lt;br&gt;Location: 1080254 - 1081529" locus_tag="ctg5_986" class="clusterblast-orf" id="dummy-1_q2_0_all"  />
<polygon points="276,40 285,40 290,35 285,30 276,30 276,40 " style="fill:#8515d8; stroke-width:1; stroke:black; " description="&lt;b&gt;ctg5_987&lt;/b&gt;&lt;br&gt;ctg5 987&lt;br&gt;Location: 1081540 - 1082422" locus_tag="ctg5_987" class="clusterblast-orf" id="dummy-1_q3_0_all"  />
<polygon points="291,40 302,40 307,35 302,30 291,30 291,40 " style="fill:#d84d15; stroke-width:1; stroke:black; " description="&lt;b&gt;ctg5_988&lt;/b&gt;&lt;br&gt;ctg5 988&lt;br&gt;Location: 1082438 - 1083488" locus_tag="ctg5_988" class="clusterblast-orf" id="dummy-1_q4_0_all"  />
<polygon points="308,40 315,40 320,35 315,30 308,30 308,40 " style="fill:#15d815; stroke-width:1; stroke:black; " description="&lt;b&gt;ctg5_989&lt;/b&gt;&lt;br&gt;ctg5 989&lt;br&gt;Location: 1083556 - 1084267" locus_tag="ctg5_989" class="clusterblast-orf" id="dummy-1_q5_0_all"  />
<polygon points="322,40 325,40 330,35 325,30 322,30 322,40 " style="fill:#1585d8; stroke-width:1; stroke:black; " description="&lt;b&gt;ctg5_990&lt;/b&gt;&lt;br&gt;ctg5 990&lt;br&gt;Location: 1084405 - 1084939" locus_tag="ctg5_990" class="clusterblast-orf" id="dummy-1_q6_0_all"  />
<polygon points="337,35 342,30 366,30 366,40 342,40 337,35 " style="fill:#bc15d8; stroke-width:1; stroke:black; " description="&lt;b&gt;ctg5_991&lt;/b&gt;&lt;br&gt;ctg5 991&lt;br&gt;Location: 1085357 - 1087193" locus_tag="ctg5_991" class="clusterblast-orf" id="dummy-1_q7_0_all"  />
<polygon points="366,35 371,30 378,30 378,40 371,40 366,35 " style="fill:#d88515; stroke-width:1; stroke:black; " description="&lt;b&gt;ctg5_992&lt;/b&gt;&lt;br&gt;ctg5 992&lt;br&gt;Location: 1087194 - 1087971" locus_tag="ctg5_992" class="clusterblast-orf" id="dummy-1_q8_0_all"  />
<polygon points="382,40 395,40 400,35 395,30 382,30 382,40 " style="fill:#15d84d; stroke-width:1; stroke:black; " description="&lt;b&gt;ctg5_993&lt;/b&gt;&lt;br&gt;ctg5 993&lt;br&gt;Location: 1088234 - 1089362" locus_tag="ctg5_993" class="clusterblast-orf" id="dummy-1_q9_0_all"  />
<polygon points="402,35 407,30 423,30 423,40 407,40 402,35 " style="fill:#154dd8; stroke-width:1; stroke:black; " description="&lt;b&gt;ctg5_994&lt;/b&gt;&lt;br&gt;ctg5 994&lt;br&gt;Location: 1089494 - 1090817" locus_tag="ctg5_994" class="clusterblast-orf" id="dummy-1_q10_0_all"  />
<polygon points="426,35 431,30 432,30 432,40 431,40 426,35 " style="fill:#d815bc; stroke-width:1; stroke:black; " description="&lt;b&gt;ctg5_995&lt;/b&gt;&lt;br&gt;ctg5 995&lt;br&gt;Location: 1090979 - 1091405" locus_tag="ctg5_995" class="clusterblast-orf" id="dummy-1_q11_0_all"  />
<polygon points="433,35 438,30 455,30 455,40 438,40 433,35 " style="fill:#d8bc15; stroke-width:1; stroke:black; " description="&lt;b&gt;ctg5_996&lt;/b&gt;&lt;br&gt;ctg5 996&lt;br&gt;Location: 1091450 - 1092830" locus_tag="ctg5_996" class="clusterblast-orf" id="dummy-1_q12_0_all"  />
<polygon points="455,35 460,30 469,30 469,40 460,40 455,35 " style="fill:#15d885; stroke-width:1; stroke:black; " description="&lt;b&gt;ctg5_997&lt;/b&gt;&lt;br&gt;ctg5 997&lt;br&gt;Location: 1092857 - 1093718" locus_tag="ctg5_997" class="clusterblast-orf" id="dummy-1_q13_0_all"  />
<polygon points="470,35 475,30 494,30 494,40 475,40 470,35 " style="fill:#1515d8; stroke-width:1; stroke:black; " description="&lt;b&gt;ctg5_998&lt;/b&gt;&lt;br&gt;ctg5 998&lt;br&gt;Location: 1093768 - 1095313" locus_tag="ctg5_998" class="clusterblast-orf" id="dummy-1_q14_0_all"  />
<polygon points="495,35 500,30 503,30 503,40 500,40 495,35 " style="fill:#d81585; stroke-width:1; stroke:black; " description="&lt;b&gt;ctg5_999&lt;/b&gt;&lt;br&gt;ctg5 999&lt;br&gt;Location: 1095334 - 1095871" locus_tag="ctg5_999" class="clusterblast-orf" id="dummy-1_q15_0_all"  />
<polygon points="503,35 508,30 511,30 511,40 508,40 503,35 " style="fill:#bcd815; stroke-width:1; stroke:black; " description="&lt;b&gt;ctg5_1000&lt;/b&gt;&lt;br&gt;ctg5 1000&lt;br&gt;Location: 1095883 - 1096354" locus_tag="ctg5_1000" class="clusterblast-orf" id="dummy-1_q16_0_all"  />
<polygon points="512,35 516,30 516,40 512,35 " style="fill:#15d8bc; stroke-width:1; stroke:black; " description="&lt;b&gt;ctg5_1001&lt;/b&gt;&lt;br&gt;ctg5 1001&lt;br&gt;Location: 1096410 - 1096668" locus_tag="ctg5_1001" class="clusterblast-orf" id="dummy-1_q17_0_all"  />
<polygon points="518,35 523,30 531,30 531,40 523,40 518,35 " style="fill:#4d15d8; stroke-width:1; stroke:black; " description="&lt;b&gt;ctg5_1002&lt;/b&gt;&lt;br&gt;ctg5 1002&lt;br&gt;Location: 1096802 - 1097672" locus_tag="ctg5_1002" class="clusterblast-orf" id="dummy-1_q18_0_all"  />
<polygon points="532,35 537,30 538,30 538,40 537,40 532,35 " style="fill:#d8154d; stroke-width:1; stroke:black; " description="&lt;b&gt;ctg5_1003&lt;/b&gt;&lt;br&gt;ctg5 1003&lt;br&gt;Location: 1097688 - 1098096" locus_tag="ctg5_1003" class="clusterblast-orf" id="dummy-1_q19_0_all"  />
<polygon points="541,35 546,30 554,30 554,40 546,40 541,35 " style="fill:#85d815; stroke-width:1; stroke:black; " description="&lt;b&gt;ctg5_1004&lt;/b&gt;&lt;br&gt;ctg5 1004&lt;br&gt;Location: 1098244 - 1099117" locus_tag="ctg5_1004" class="clusterblast-orf" id="dummy-1_q20_0_all"  />
</g>
<g label="NZ_CP006256" description="NZ_CP006256_c11: Pseudomonas syringae pv. syringae HS191, complete genome (28% of genes show similarity), nrps" class="clusterblast-cluster"  >
<text x="5" y="70" class="clusterblast-acc"  >
<a xlink:href="https://antismash-db.secondarymetabolites.org/go/NZ_CP006256/11" target="_blank">NZ_CP006256_c11</a>: Pseudomonas syringae pv. syringae HS191, complete genome (28% of genes show similarity), nrps</text>
<line x1="10" y1="85" x2="778.0" y2="85" style="stroke-width:1; stroke:grey; "  />
</g>
<g id="a1_000"  >
<polygon points="0,85 3,80 3,90 0,85 " style="fill:white; stroke-width:1; stroke:black; " description="&lt;b&gt;PSYRH_RS25570&lt;/b&gt;&lt;br&gt;hypothetical protein&lt;br&gt;Location: 5895779 - 5896003" locus_tag="PSYRH_RS25570" class="clusterblast-orf" id="dummy-1_h1_5_0"  />
</g>
<g id="a1_001"  >
<polygon points="10,90 19,90 24,85 19,80 10,80 10,90 " style="fill:white; stroke-width:1; stroke:black; " description="&lt;b&gt;PSYRH_RS25575&lt;/b&gt;&lt;br&gt;Mn-containing catalase&lt;br&gt;Location: 5896432 - 5897313" locus_tag="PSYRH_RS25575" class="clusterblast-orf" id="dummy-1_h1_5_1"  />
</g>
<g id="a1_002"  >
<polygon points="24,90 27,85 24,80 24,90 " style="fill:white; stroke-width:1; stroke:black; " description="&lt;b&gt;PSYRH_RS25580&lt;/b&gt;&lt;br&gt;hypothetical protein&lt;br&gt;Location: 5897350 - 5897547" locus_tag="PSYRH_RS25580" class="clusterblast-orf" id="dummy-1_h1_5_2"  />
</g>
<g id="a1_003"  >
<polygon points="29,90 32,90 37,85 32,80 29,80 29,90 " style="fill:white; stroke-width:1; stroke:black; " description="&lt;b&gt;PSYRH_RS25585&lt;/b&gt;&lt;br&gt;ferritin-like domain-containing protein&lt;br&gt;Location: 5897653 - 5898150" locus_tag="PSYRH_RS25585" class="clusterblast-orf" id="dummy-1_h1_5_3"  />
</g>
<g id="a1_004"  >
<polygon points="43,90 61,90 66,85 61,80 43,80 43,90 " style="fill:white; stroke-width:1; stroke:black; " description="&lt;b&gt;PSYRH_RS25590&lt;/b&gt;&lt;br&gt;iron-containing redox enzyme family protein&lt;br&gt;Location: 5898545 - 5899996" locus_tag="PSYRH_RS25590" class="clusterblast-orf" id="dummy-1_h1_5_4"  />
</g>
<g id="a1_005"  >
<polygon points="66,90 76,90 81,85 76,80 66,80 66,90 " style="fill:white; stroke-width:1; stroke:black; " description="&lt;b&gt;PSYRH_RS25595&lt;/b&gt;&lt;br&gt;SAM-dependent methyltransferase&lt;br&gt;Location: 5899993 - 5900940" locus_tag="PSYRH_RS25595" class="clusterblast-orf" id="dummy-1_h1_5_5"  />
</g>
<g id="a1_006"  >
<polygon points="84,90 85,90 90,85 85,80 84,80 84,90 " style="fill:white; stroke-width:1; stroke:black; " description="&lt;b&gt;PSYRH_RS25600&lt;/b&gt;&lt;br&gt;glyoxalase/bleomycin resistance protein/dioxygenase&lt;br&gt;Location: 5901100 - 5901513" locus_tag="PSYRH_RS25600" class="clusterblast-orf" id="dummy-1_h1_5_6"  />
</g>
<g id="a1_007"  >
<polygon points="95,90 102,90 107,85 102,80 95,80 95,90 " style="fill:white; stroke-width:1; stroke:black; " description="&lt;b&gt;PSYRH_RS25605&lt;/b&gt;&lt;br&gt;ABC transporter ATP-binding protein&lt;br&gt;Location: 5901790 - 5902569" locus_tag="PSYRH_RS25605" class="clusterblast-orf" id="dummy-1_h1_5_7"  />
</g>
<g id="a1_008"  >
<polygon points="107,90 117,90 122,85 117,80 107,80 107,90 " style="fill:white; stroke-width:1; stroke:black; " description="&lt;b&gt;PSYRH_RS25610&lt;/b&gt;&lt;br&gt;iron ABC transporter substrate-binding protein&lt;br&gt;Location: 5902571 - 5903521" locus_tag="PSYRH_RS25610" class="clusterblast-orf" id="dummy-1_h1_5_8"  />
</g>
<g id="a1_009"  >
<polygon points="122,90 133,90 138,85 133,80 122,80 122,90 " style="fill:white; stroke-width:1; stroke:black; " description="&lt;b&gt;PSYRH_RS25615&lt;/b&gt;&lt;br&gt;iron ABC transporter permease&lt;br&gt;Location: 5903518 - 5904561" locus_tag="PSYRH_RS25615" class="clusterblast-orf" id="dummy-1_h1_5_9"  />
</g>
<g id="a1_0010"  >
<polygon points="141,90 157,90 162,85 157,80 141,80 141,90 " style="fill:white; stroke-width:1; stroke:black; " description="&lt;b&gt;PSYRH_RS25620&lt;/b&gt;&lt;br&gt;UDP-glucose/GDP-mannose dehydrogenase family protein&lt;br&gt;Location: 5904724 - 5906073" locus_tag="PSYRH_RS25620" class="clusterblast-orf" id="dummy-1_h1_5_10"  />
</g>
<g id="a1_0011"  >
<polygon points="162,90 173,90 178,85 173,80 162,80 162,90 " style="fill:white; stroke-width:1; stroke:black; " description="&lt;b&gt;PSYRH_RS25625&lt;/b&gt;&lt;br&gt;protein CapI&lt;br&gt;Location: 5906070 - 5907065" locus_tag="PSYRH_RS25625" class="clusterblast-orf" id="dummy-1_h1_5_11"  />
</g>
<g id="a1_0012"  >
<polygon points="178,90 185,90 190,85 185,80 178,80 178,90 " style="fill:white; stroke-width:1; stroke:black; " description="&lt;b&gt;PSYRH_RS25630&lt;/b&gt;&lt;br&gt;glycosyltransferase family 2 protein&lt;br&gt;Location: 5907077 - 5907820" locus_tag="PSYRH_RS25630" class="clusterblast-orf" id="dummy-1_h1_5_12"  />
</g>
<g id="a1_0013"  >
<polygon points="190,90 194,85 190,80 190,90 " style="fill:white; stroke-width:1; stroke:black; " description="&lt;b&gt;PSYRH_RS25635&lt;/b&gt;&lt;br&gt;lipid A biosynthesis protein&lt;br&gt;Location: 5907817 - 5908101" locus_tag="PSYRH_RS25635" class="clusterblast-orf" id="dummy-1_h1_5_13"  />
</g>
<g id="a1_0014"  >
<polygon points="194,90 213,90 218,85 213,80 194,80 194,90 " style="fill:white; stroke-width:1; stroke:black; " description="&lt;b&gt;PSYRH_RS25640&lt;/b&gt;&lt;br&gt;dolichyl-phosphate-mannose--protein mannosyltransferase&lt;br&gt;Location: 5908098 - 5909627" locus_tag="PSYRH_RS25640" class="clusterblast-orf" id="dummy-1_h1_5_14"  />
</g>
<g id="a1_0015"  >
<polygon points="219,90 230,90 235,85 230,80 219,80 219,90 " style="fill:white; stroke-width:1; stroke:black; " description="&lt;b&gt;PSYRH_RS25645&lt;/b&gt;&lt;br&gt;SdiA-regulated&lt;br&gt;Location: 5909669 - 5910649" locus_tag="PSYRH_RS25645" class="clusterblast-orf" id="dummy-1_h1_5_15"  />
</g>
<g id="a1_0016"  >
<polygon points="237,90 237,90 242,85 237,80 237,80 237,90 " style="fill:white; stroke-width:1; stroke:black; " description="&lt;b&gt;PSYRH_RS27645&lt;/b&gt;&lt;br&gt;IS630 family transposase&lt;br&gt;Location: 5910808 - 5911142" locus_tag="PSYRH_RS27645" class="clusterblast-orf" id="dummy-1_h1_5_16"  />
</g>
<g id="a1_0017"  >
<polygon points="244,90 246,90 251,85 246,80 244,80 244,90 " style="fill:white; stroke-width:1; stroke:black; " description="&lt;b&gt;PSYRH_RS25650&lt;/b&gt;&lt;br&gt;DUF2087 domain-containing protein&lt;br&gt;Location: 5911225 - 5911656" locus_tag="PSYRH_RS25650" class="clusterblast-orf" id="dummy-1_h1_5_17"  />
</g>
<g id="a1_0018"  >
<polygon points="251,85 256,80 287,80 287,90 256,90 251,85 " style="fill:white; stroke-width:1; stroke:black; " description="&lt;b&gt;PSYRH_RS25655&lt;/b&gt;&lt;br&gt;PhpK family radical SAM P-methyltransferase&lt;br&gt;Location: 5911699 - 5913939" locus_tag="PSYRH_RS25655" class="clusterblast-orf" id="dummy-1_h1_5_18"  />
</g>
<g id="a1_0019"  >
<polygon points="288,85 293,80 304,80 304,90 293,90 288,85 " style="fill:white; stroke-width:1; stroke:black; " description="&lt;b&gt;PSYRH_RS25660&lt;/b&gt;&lt;br&gt;2,3-diaminopropionate biosynthesis protein SbnB&lt;br&gt;Location: 5914000 - 5915049" locus_tag="PSYRH_RS25660" class="clusterblast-orf" id="dummy-1_h1_5_19"  />
</g>
<g id="a1_0020"  >
<polygon points="304,85 309,80 325,80 325,90 309,90 304,85 " style="fill:white; stroke-width:1; stroke:black; " description="&lt;b&gt;PSYRH_RS25665&lt;/b&gt;&lt;br&gt;hypothetical protein&lt;br&gt;Location: 5915058 - 5916344" locus_tag="PSYRH_RS25665" class="clusterblast-orf" id="dummy-1_h1_5_20"  />
</g>
<g id="a1_0021"  >
<polygon points="325,85 330,80 351,80 351,90 330,90 325,85 " style="fill:white; stroke-width:1; stroke:black; " description="&lt;b&gt;PSYRH_RS25670&lt;/b&gt;&lt;br&gt;hypothetical protein&lt;br&gt;Location: 5916348 - 5918012" locus_tag="PSYRH_RS25670" class="clusterblast-orf" id="dummy-1_h1_5_21"  />
</g>
<g id="a1_0022"  >
<polygon points="353,85 358,80 368,80 368,90 358,90 353,85 " style="fill:white; stroke-width:1; stroke:black; " description="&lt;b&gt;PSYRH_RS25675&lt;/b&gt;&lt;br&gt;2,3-diaminopropionate biosynthesis protein SbnA&lt;br&gt;Location: 5918162 - 5919115" locus_tag="PSYRH_RS25675" class="clusterblast-orf" id="dummy-1_h1_5_22"  />
</g>
<g id="a1_0023"  >
<polygon points="368,85 373,80 464,80 464,90 373,90 368,85 " style="fill:white; stroke-width:1; stroke:black; " description="&lt;b&gt;PSYRH_RS25680&lt;/b&gt;&lt;br&gt;hypothetical protein&lt;br&gt;Location: 5919072 - 5925191" locus_tag="PSYRH_RS25680" class="clusterblast-orf" id="dummy-1_h1_5_23"  />
</g>
<g id="a1_0024"  >
<polygon points="465,85 470,80 477,80 477,90 470,90 465,85 " style="fill:white; stroke-width:1; stroke:black; " description="&lt;b&gt;PSYRH_RS25685&lt;/b&gt;&lt;br&gt;hypothetical protein&lt;br&gt;Location: 5925225 - 5926007" locus_tag="PSYRH_RS25685" class="clusterblast-orf" id="dummy-1_h1_5_24"  />
</g>
<g id="a1_0025"  >
<polygon points="477,85 482,80 490,80 490,90 482,90 477,85 " style="fill:white; stroke-width:1; stroke:black; " description="&lt;b&gt;PSYRH_RS25690&lt;/b&gt;&lt;br&gt;hypothetical protein&lt;br&gt;Location: 5926007 - 5926783" locus_tag="PSYRH_RS25690" class="clusterblast-orf" id="dummy-1_h1_5_25"  />
</g>
<g id="a1_0026"  >
<polygon points="490,85 495,80 506,80 506,90 495,90 490,85 " style="fill:white; stroke-width:1; stroke:black; " description="&lt;b&gt;PSYRH_RS25695&lt;/b&gt;&lt;br&gt;ABC transporter&lt;br&gt;Location: 5926795 - 5927820" locus_tag="PSYRH_RS25695" class="clusterblast-orf" id="dummy-1_h1_5_26"  />
</g>
<g id="a1_0027"  >
<polygon points="513,85 518,80 522,80 522,90 518,90 513,85 " style="fill:white; stroke-width:1; stroke:black; " description="&lt;b&gt;PSYRH_RS25700&lt;/b&gt;&lt;br&gt;IS30 family transposase&lt;br&gt;Location: 5928235 - 5928840" locus_tag="PSYRH_RS25700" class="clusterblast-orf" id="dummy-1_h1_5_27"  />
</g>
<g id="a1_0028"  >
<polygon points="524,85 529,80 553,80 553,90 529,90 524,85 " style="fill:#bc15d8; stroke-width:1; stroke:black; " description="&lt;b&gt;PSYRH_RS25705&lt;/b&gt;&lt;br&gt;glutamine--fructose-6-phosphate transaminase (isomerizing)&lt;br&gt;Location: 5928928 - 5930763&lt;br&gt;&lt;br&gt;&lt;b&gt;BlastP hit with ctg5_991&lt;/b&gt;&lt;br&gt;Percentage identity: 89&lt;br&gt;Percentage coverage: 100&lt;br&gt;BLAST bit score: 1057&lt;br&gt;E-value: 7.4e-307" locus_tag="PSYRH_RS25705" class="clusterblast-orf" id="dummy-1_h1_5_28"  />
</g>
<g id="a1_0029"  >
<polygon points="553,85 558,80 565,80 565,90 558,90 553,85 " style="fill:#d88515; stroke-width:1; stroke:black; " description="&lt;b&gt;PSYRH_RS25710&lt;/b&gt;&lt;br&gt;XRE family transcriptional regulator&lt;br&gt;Location: 5930773 - 5931540&lt;br&gt;&lt;br&gt;&lt;b&gt;BlastP hit with ctg5_992&lt;/b&gt;&lt;br&gt;Percentage identity: 91&lt;br&gt;Percentage coverage: 99&lt;br&gt;BLAST bit score: 462&lt;br&gt;E-value: 4.4e-128" locus_tag="PSYRH_RS25710" class="clusterblast-orf" id="dummy-1_h1_5_29"  />
</g>
<g id="a1_0030"  >
<polygon points="569,90 572,85 569,80 569,90 " style="fill:white; stroke-width:1; stroke:black; " description="&lt;b&gt;PSYRH_RS27650&lt;/b&gt;&lt;br&gt;hypothetical protein&lt;br&gt;Location: 5931809 - 5931979" locus_tag="PSYRH_RS27650" class="clusterblast-orf" id="dummy-1_h1_5_30"  />
</g>
<g id="a1_0031"  >
<polygon points="574,85 579,80 596,80 596,90 579,90 574,85 " style="fill:#154dd8; stroke-width:1; stroke:black; " description="&lt;b&gt;PSYRH_RS25715&lt;/b&gt;&lt;br&gt;UDP-N-acetylglucosamine diphosphorylase/glucosamine-1-phosphate N-acetyltransferase&lt;br&gt;Location: 5932132 - 5933499&lt;br&gt;&lt;br&gt;&lt;b&gt;BlastP hit with ctg5_994&lt;/b&gt;&lt;br&gt;Percentage identity: 83&lt;br&gt;Percentage coverage: 100&lt;br&gt;BLAST bit score: 623&lt;br&gt;E-value: 1.5e-176" locus_tag="PSYRH_RS25715" class="clusterblast-orf" id="dummy-1_h1_5_31"  />
</g>
<g id="a1_0032"  >
<polygon points="598,85 603,80 605,80 605,90 603,90 598,85 " style="fill:#d815bc; stroke-width:1; stroke:black; " description="&lt;b&gt;PSYRH_RS25720&lt;/b&gt;&lt;br&gt;ATP synthase epsilon chain&lt;br&gt;Location: 5933625 - 5934050&lt;br&gt;&lt;br&gt;&lt;b&gt;BlastP hit with ctg5_995&lt;/b&gt;&lt;br&gt;Percentage identity: 91&lt;br&gt;Percentage coverage: 100&lt;br&gt;BLAST bit score: 246&lt;br&gt;E-value: 2.1e-63" locus_tag="PSYRH_RS25720" class="clusterblast-orf" id="dummy-1_h1_5_32"  />
</g>
<g id="a1_0033"  >
<polygon points="605,85 610,80 627,80 627,90 610,90 605,85 " style="fill:#d8bc15; stroke-width:1; stroke:black; " description="&lt;b&gt;PSYRH_RS25725&lt;/b&gt;&lt;br&gt;ATP synthase subunit beta&lt;br&gt;Location: 5934094 - 5935473&lt;br&gt;&lt;br&gt;&lt;b&gt;BlastP hit with ctg5_996&lt;/b&gt;&lt;br&gt;Percentage identity: 99&lt;br&gt;Percentage coverage: 100&lt;br&gt;BLAST bit score: 889&lt;br&gt;E-value: 1.5e-256" locus_tag="PSYRH_RS25725" class="clusterblast-orf" id="dummy-1_h1_5_33"  />
</g>
<g id="a1_0034"  >
<polygon points="627,85 632,80 641,80 641,90 632,90 627,85 " style="fill:#15d885; stroke-width:1; stroke:black; " description="&lt;b&gt;PSYRH_RS25730&lt;/b&gt;&lt;br&gt;ATP synthase subunit gamma&lt;br&gt;Location: 5935501 - 5936361&lt;br&gt;&lt;br&gt;&lt;b&gt;BlastP hit with ctg5_997&lt;/b&gt;&lt;br&gt;Percentage identity: 98&lt;br&gt;Percentage coverage: 100&lt;br&gt;BLAST bit score: 535&lt;br&gt;E-value: 3.5e-150" locus_tag="PSYRH_RS25730" class="clusterblast-orf" id="dummy-1_h1_5_34"  />
</g>
<g id="a1_0035"  >
<polygon points="642,85 647,80 666,80 666,90 647,90 642,85 " style="fill:#1515d8; stroke-width:1; stroke:black; " description="&lt;b&gt;PSYRH_RS25735&lt;/b&gt;&lt;br&gt;ATP synthase subunit alpha&lt;br&gt;Location: 5936412 - 5937956&lt;br&gt;&lt;br&gt;&lt;b&gt;BlastP hit with ctg5_998&lt;/b&gt;&lt;br&gt;Percentage identity: 98&lt;br&gt;Percentage coverage: 100&lt;br&gt;BLAST bit score: 975&lt;br&gt;E-value: 1.8e-282" locus_tag="PSYRH_RS25735" class="clusterblast-orf" id="dummy-1_h1_5_35"  />
</g>
<g id="a1_0036"  >
<polygon points="667,85 672,80 675,80 675,90 672,90 667,85 " style="fill:#d81585; stroke-width:1; stroke:black; " description="&lt;b&gt;PSYRH_RS25740&lt;/b&gt;&lt;br&gt;ATP synthase subunit delta&lt;br&gt;Location: 5937978 - 5938514&lt;br&gt;&lt;br&gt;&lt;b&gt;BlastP hit with ctg5_999&lt;/b&gt;&lt;br&gt;Percentage identity: 89&lt;br&gt;Percentage coverage: 100&lt;br&gt;BLAST bit score: 301&lt;br&gt;E-value: 6.9e-80" locus_tag="PSYRH_RS25740" class="clusterblast-orf" id="dummy-1_h1_5_36"  />
</g>
<g id="a1_0037"  >
<polygon points="675,85 680,80 683,80 683,90 680,90 675,85 " style="fill:#bcd815; stroke-width:1; stroke:black; " description="&lt;b&gt;PSYRH_RS25745&lt;/b&gt;&lt;br&gt;F0F1 ATP synthase subunit B&lt;br&gt;Location: 5938527 - 5938997&lt;br&gt;&lt;br&gt;&lt;b&gt;BlastP hit with ctg5_1000&lt;/b&gt;&lt;br&gt;Percentage identity: 92&lt;br&gt;Percentage coverage: 100&lt;br&gt;BLAST bit score: 166&lt;br&gt;E-value: 3e-39" locus_tag="PSYRH_RS25745" class="clusterblast-orf" id="dummy-1_h1_5_37"  />
</g>
<g id="a1_0038"  >
<polygon points="684,85 688,80 688,90 684,85 " style="fill:#15d8bc; stroke-width:1; stroke:black; " description="&lt;b&gt;PSYRH_RS25750&lt;/b&gt;&lt;br&gt;ATP synthase subunit C&lt;br&gt;Location: 5939055 - 5939312&lt;br&gt;&lt;br&gt;&lt;b&gt;BlastP hit with ctg5_1001&lt;/b&gt;&lt;br&gt;Percentage identity: 100&lt;br&gt;Percentage coverage: 100&lt;br&gt;BLAST bit score: 155&lt;br&gt;E-value: 3.8e-36" locus_tag="PSYRH_RS25750" class="clusterblast-orf" id="dummy-1_h1_5_38"  />
</g>
<g id="a1_0039"  >
<polygon points="690,85 695,80 704,80 704,90 695,90 690,85 " style="fill:#4d15d8; stroke-width:1; stroke:black; " description="&lt;b&gt;PSYRH_RS25755&lt;/b&gt;&lt;br&gt;ATP synthase subunit A&lt;br&gt;Location: 5939451 - 5940320&lt;br&gt;&lt;br&gt;&lt;b&gt;BlastP hit with ctg5_1002&lt;/b&gt;&lt;br&gt;Percentage identity: 96&lt;br&gt;Percentage coverage: 100&lt;br&gt;BLAST bit score: 539&lt;br&gt;E-value: 3.2e-151" locus_tag="PSYRH_RS25755" class="clusterblast-orf" id="dummy-1_h1_5_39"  />
</g>
<g id="a1_0040"  >
<polygon points="704,85 709,80 710,80 710,90 709,90 704,85 " style="fill:#d8154d; stroke-width:1; stroke:black; " description="&lt;b&gt;PSYRH_RS25760&lt;/b&gt;&lt;br&gt;F0F1 ATP synthase subunit I&lt;br&gt;Location: 5940338 - 5940745&lt;br&gt;&lt;br&gt;&lt;b&gt;BlastP hit with ctg5_1003&lt;/b&gt;&lt;br&gt;Percentage identity: 86&lt;br&gt;Percentage coverage: 100&lt;br&gt;BLAST bit score: 225&lt;br&gt;E-value: 2.8e-57" locus_tag="PSYRH_RS25760" class="clusterblast-orf" id="dummy-1_h1_5_40"  />
</g>
<g id="a1_0041"  >
<polygon points="713,85 718,80 726,80 726,90 718,90 713,85 " style="fill:#85d815; stroke-width:1; stroke:black; " description="&lt;b&gt;PSYRH_RS25765&lt;/b&gt;&lt;br&gt;chromosome partitioning protein ParB&lt;br&gt;Location: 5940892 - 5941764&lt;br&gt;&lt;br&gt;&lt;b&gt;BlastP hit with ctg5_1004&lt;/b&gt;&lt;br&gt;Percentage identity: 91&lt;br&gt;Percentage coverage: 100&lt;br&gt;BLAST bit score: 500&lt;br&gt;E-value: 1.6e-139" locus_tag="PSYRH_RS25765" class="clusterblast-orf" id="dummy-1_h1_5_41"  />
</g>
<g id="a1_0042"  >
<polygon points="727,85 732,80 739,80 739,90 732,90 727,85 " style="fill:white; stroke-width:1; stroke:black; " description="&lt;b&gt;PSYRH_RS25770&lt;/b&gt;&lt;br&gt;ParA family protein&lt;br&gt;Location: 5941774 - 5942565" locus_tag="PSYRH_RS25770" class="clusterblast-orf" id="dummy-1_h1_5_42"  />
</g>
<g id="a1_0043"  >
<polygon points="739,85 744,80 749,80 749,90 744,90 739,85 " style="fill:white; stroke-width:1; stroke:black; " description="&lt;b&gt;PSYRH_RS25775&lt;/b&gt;&lt;br&gt;16S rRNA (guanine(527)-N(7))-methyltransferase RsmG&lt;br&gt;Location: 5942584 - 5943219" locus_tag="PSYRH_RS25775" class="clusterblast-orf" id="dummy-1_h1_5_43"  />
</g>
<g id="a1_0044"  >
<polygon points="750,85 755,80 780,80 780,90 755,90 750,85 " style="fill:white; stroke-width:1; stroke:black; " description="&lt;b&gt;PSYRH_RS25780&lt;/b&gt;&lt;br&gt;tRNA uridine-5-carboxymethylaminomethyl(34) synthesis enzyme MnmG&lt;br&gt;Location: 5943225 - 5945117" locus_tag="PSYRH_RS25780" class="clusterblast-orf" id="dummy-1_h1_5_44"  />
</g>
</svg>
