<svg xmlns="http://www.w3.org/2000/svg" xmlns:xlink="http://www.w3.org/1999/xlink" version="1.1" x="0" y="0" height="230" width="800" viewBox="0 0 800 230" preserveAspectRatio="none"  >
<g label="Query sequence" class="clusterblast-cluster"  >
<text x="5" y="20" class="clusterblast-acc"  >
Query sequence</text>
<line x1="10" y1="35" x2="778.0" y2="35" style="stroke-width:1; stroke:grey; "  />
<polygon points="324,40 326,35 324,30 324,40 " style="fill:white; stroke-width:1; stroke:black; " description="&lt;b&gt;ctg3_16&lt;/b&gt;&lt;br&gt;ctg3 16&lt;br&gt;Location: 14210 - 14657" locus_tag="ctg3_16" class="clusterblast-orf" id="dummy-1_q0_0_all"  />
<polygon points="326,35 331,30 333,30 333,40 331,40 326,35 " style="fill:white; stroke-width:1; stroke:black; " description="&lt;b&gt;ctg3_17&lt;/b&gt;&lt;br&gt;ctg3 17&lt;br&gt;Location: 14694 - 15846" locus_tag="ctg3_17" class="clusterblast-orf" id="dummy-1_q1_0_all"  />
<polygon points="336,35 338,30 338,40 336,35 " style="fill:white; stroke-width:1; stroke:black; " description="&lt;b&gt;ctg3_18&lt;/b&gt;&lt;br&gt;ctg3 18&lt;br&gt;Location: 16328 - 16670" locus_tag="ctg3_18" class="clusterblast-orf" id="dummy-1_q2_0_all"  />
<polygon points="339,40 342,35 339,30 339,40 " style="fill:white; stroke-width:1; stroke:black; " description="&lt;b&gt;ctg3_19&lt;/b&gt;&lt;br&gt;ctg3 19&lt;br&gt;Location: 16800 - 17451" locus_tag="ctg3_19" class="clusterblast-orf" id="dummy-1_q3_0_all"  />
<polygon points="343,35 348,30 354,30 354,40 348,40 343,35 " style="fill:#d81515; stroke-width:1; stroke:black; " description="&lt;b&gt;ctg3_20&lt;/b&gt;&lt;br&gt;ctg3 20&lt;br&gt;Location: 17490 - 19440" locus_tag="ctg3_20" class="clusterblast-orf" id="dummy-1_q4_0_all"  />
<polygon points="354,35 359,30 359,30 359,40 359,40 354,35 " style="fill:#77d815; stroke-width:1; stroke:black; " description="&lt;b&gt;ctg3_21&lt;/b&gt;&lt;br&gt;ctg3 21&lt;br&gt;Location: 19439 - 20252" locus_tag="ctg3_21" class="clusterblast-orf" id="dummy-1_q5_0_all"  />
<polygon points="359,35 364,30 369,30 369,40 364,40 359,35 " style="fill:#15d8d8; stroke-width:1; stroke:black; " description="&lt;b&gt;ctg3_22&lt;/b&gt;&lt;br&gt;ctg3 22&lt;br&gt;Location: 20357 - 21965" locus_tag="ctg3_22" class="clusterblast-orf" id="dummy-1_q6_0_all"  />
<polygon points="369,35 374,30 375,30 375,40 374,40 369,35 " style="fill:#7715d8; stroke-width:1; stroke:black; " description="&lt;b&gt;ctg3_23&lt;/b&gt;&lt;br&gt;ctg3 23&lt;br&gt;Location: 21977 - 23141" locus_tag="ctg3_23" class="clusterblast-orf" id="dummy-1_q7_0_all"  />
<polygon points="377,40 382,40 387,35 382,30 377,30 377,40 " style="fill:#d8a715; stroke-width:1; stroke:black; " description="&lt;b&gt;ctg3_24&lt;/b&gt;&lt;br&gt;ctg3 24&lt;br&gt;Location: 23480 - 25178" locus_tag="ctg3_24" class="clusterblast-orf" id="dummy-1_q8_0_all"  />
<polygon points="388,35 392,30 392,40 388,35 " style="fill:white; stroke-width:1; stroke:black; " description="&lt;b&gt;ctg3_25&lt;/b&gt;&lt;br&gt;ctg3 25&lt;br&gt;Location: 25316 - 26069" locus_tag="ctg3_25" class="clusterblast-orf" id="dummy-1_q9_0_all"  />
<polygon points="393,35 398,30 398,30 398,40 398,40 393,35 " style="fill:#15d846; stroke-width:1; stroke:black; " description="&lt;b&gt;ctg3_26&lt;/b&gt;&lt;br&gt;ctg3 26&lt;br&gt;Location: 26190 - 27093" locus_tag="ctg3_26" class="clusterblast-orf" id="dummy-1_q10_0_all"  />
<polygon points="402,35 407,30 407,30 407,40 407,40 402,35 " style="fill:#1546d8; stroke-width:1; stroke:black; " description="&lt;b&gt;ctg3_27&lt;/b&gt;&lt;br&gt;ctg3 27&lt;br&gt;Location: 27727 - 28627" locus_tag="ctg3_27" class="clusterblast-orf" id="dummy-1_q11_0_all"  />
<polygon points="408,35 410,30 410,40 408,35 " style="fill:#d815a7; stroke-width:1; stroke:black; " description="&lt;b&gt;ctg3_28&lt;/b&gt;&lt;br&gt;ctg3 28&lt;br&gt;Location: 28763 - 29165" locus_tag="ctg3_28" class="clusterblast-orf" id="dummy-1_q12_0_all"  />
<polygon points="412,35 417,30 417,30 417,40 417,40 412,35 " style="fill:white; stroke-width:1; stroke:black; " description="&lt;b&gt;ctg3_29&lt;/b&gt;&lt;br&gt;ctg3 29&lt;br&gt;Location: 29378 - 30308" locus_tag="ctg3_29" class="clusterblast-orf" id="dummy-1_q13_0_all"  />
<polygon points="418,40 420,40 425,35 420,30 418,30 418,40 " style="fill:#7715d8; stroke-width:1; stroke:black; " description="&lt;b&gt;ctg3_30&lt;/b&gt;&lt;br&gt;ctg3 30&lt;br&gt;Location: 30462 - 31692" locus_tag="ctg3_30" class="clusterblast-orf" id="dummy-1_q14_0_all"  />
<polygon points="426,35 431,30 434,30 434,40 431,40 426,35 " style="fill:white; stroke-width:1; stroke:black; " description="&lt;b&gt;ctg3_31&lt;/b&gt;&lt;br&gt;ctg3 31&lt;br&gt;Location: 31846 - 33187" locus_tag="ctg3_31" class="clusterblast-orf" id="dummy-1_q15_0_all"  />
<polygon points="435,35 440,30 440,30 440,40 440,40 435,35 " style="fill:white; stroke-width:1; stroke:black; " description="&lt;b&gt;ctg3_32&lt;/b&gt;&lt;br&gt;ctg3 32&lt;br&gt;Location: 33379 - 34192" locus_tag="ctg3_32" class="clusterblast-orf" id="dummy-1_q16_0_all"  />
<polygon points="441,40 445,35 441,30 441,40 " style="fill:white; stroke-width:1; stroke:black; " description="&lt;b&gt;ctg3_33&lt;/b&gt;&lt;br&gt;ctg3 33&lt;br&gt;Location: 34490 - 35141" locus_tag="ctg3_33" class="clusterblast-orf" id="dummy-1_q17_0_all"  />
<polygon points="446,40 451,40 456,35 451,30 446,30 446,40 " style="fill:white; stroke-width:1; stroke:black; " description="&lt;b&gt;ctg3_34&lt;/b&gt;&lt;br&gt;ctg3 34&lt;br&gt;Location: 35242 - 36934" locus_tag="ctg3_34" class="clusterblast-orf" id="dummy-1_q18_0_all"  />
</g>
<g label="NZ_CP011937" description="NZ_CP011937_c6: Bacillus methylotrophicus strain CBMB205, complete genome (9% of genes show similarity), transatpks-nrps" class="clusterblast-cluster"  >
<text x="5" y="70" class="clusterblast-acc"  >
<a xlink:href="https://antismash-db.secondarymetabolites.org/go/NZ_CP011937/6" target="_blank">NZ_CP011937_c6</a>: Bacillus methylotrophicus strain CBMB205, complete genome (9% of genes show similarity), transatpks-nrps</text>
<line x1="10" y1="85" x2="778.0" y2="85" style="stroke-width:1; stroke:grey; "  />
</g>
<g id="a1_000"  >
<polygon points="0,90 0,90 5,85 0,80 0,80 0,90 " style="fill:white; stroke-width:1; stroke:black; " description="&lt;b&gt;AAV34_RS10290&lt;/b&gt;&lt;br&gt;alcohol dehydrogenase&lt;br&gt;Location: 2065377 - 2064358" locus_tag="AAV34_RS10290" class="clusterblast-orf" id="dummy-1_h1_3_0"  />
</g>
<g id="a1_001"  >
<polygon points="5,90 9,85 5,80 5,90 " style="fill:white; stroke-width:1; stroke:black; " description="&lt;b&gt;AAV34_RS10285&lt;/b&gt;&lt;br&gt;bifunctional 2-keto-4-hydroxyglutarate aldolase/2-keto-3-deoxy-6-phosphogluconate aldolase&lt;br&gt;Location: 2064344 - 2063709" locus_tag="AAV34_RS10285" class="clusterblast-orf" id="dummy-1_h1_3_1"  />
</g>
<g id="a1_002"  >
<polygon points="9,90 10,90 15,85 10,80 9,80 9,90 " style="fill:white; stroke-width:1; stroke:black; " description="&lt;b&gt;AAV34_RS10280&lt;/b&gt;&lt;br&gt;mannonate dehydratase&lt;br&gt;Location: 2063707 - 2062631" locus_tag="AAV34_RS10280" class="clusterblast-orf" id="dummy-1_h1_3_2"  />
</g>
<g id="a1_003"  >
<polygon points="15,90 15,90 20,85 15,80 15,80 15,90 " style="fill:white; stroke-width:1; stroke:black; " description="&lt;b&gt;AAV34_RS10275&lt;/b&gt;&lt;br&gt;KR domain-containing protein&lt;br&gt;Location: 2062634 - 2061798" locus_tag="AAV34_RS10275" class="clusterblast-orf" id="dummy-1_h1_3_3"  />
</g>
<g id="a1_004"  >
<polygon points="21,90 22,90 27,85 22,80 21,80 21,90 " style="fill:white; stroke-width:1; stroke:black; " description="&lt;b&gt;AAV34_RS10270&lt;/b&gt;&lt;br&gt;LacI family DNA-binding transcriptional regulator&lt;br&gt;Location: 2061714 - 2060713" locus_tag="AAV34_RS10270" class="clusterblast-orf" id="dummy-1_h1_3_4"  />
</g>
<g id="a1_005"  >
<polygon points="27,90 29,90 34,85 29,80 27,80 27,90 " style="fill:white; stroke-width:1; stroke:black; " description="&lt;b&gt;AAV34_RS10265&lt;/b&gt;&lt;br&gt;MFS transporter&lt;br&gt;Location: 2060635 - 2059364" locus_tag="AAV34_RS10265" class="clusterblast-orf" id="dummy-1_h1_3_5"  />
</g>
<g id="a1_006"  >
<polygon points="35,90 35,90 40,85 35,80 35,80 35,90 " style="fill:white; stroke-width:1; stroke:black; " description="&lt;b&gt;AAV34_RS10260&lt;/b&gt;&lt;br&gt;hypothetical protein&lt;br&gt;Location: 2059245 - 2058430" locus_tag="AAV34_RS10260" class="clusterblast-orf" id="dummy-1_h1_3_6"  />
</g>
<g id="a1_007"  >
<polygon points="40,90 43,85 40,80 40,90 " style="fill:white; stroke-width:1; stroke:black; " description="&lt;b&gt;AAV34_RS10255&lt;/b&gt;&lt;br&gt;DUF4166 domain-containing protein&lt;br&gt;Location: 2058433 - 2057825" locus_tag="AAV34_RS10255" class="clusterblast-orf" id="dummy-1_h1_3_7"  />
</g>
<g id="a1_008"  >
<polygon points="43,90 48,90 53,85 48,80 43,80 43,90 " style="fill:white; stroke-width:1; stroke:black; " description="&lt;b&gt;AAV34_RS10250&lt;/b&gt;&lt;br&gt;membrane protein&lt;br&gt;Location: 2057831 - 2056203" locus_tag="AAV34_RS10250" class="clusterblast-orf" id="dummy-1_h1_3_8"  />
</g>
<g id="a1_009"  >
<polygon points="54,90 55,85 54,80 54,90 " style="fill:white; stroke-width:1; stroke:black; " description="&lt;b&gt;AAV34_RS10245&lt;/b&gt;&lt;br&gt;hypothetical protein&lt;br&gt;Location: 2056022 - 2055762" locus_tag="AAV34_RS10245" class="clusterblast-orf" id="dummy-1_h1_3_9"  />
</g>
<g id="a1_0010"  >
<polygon points="56,90 58,85 56,80 56,90 " style="fill:white; stroke-width:1; stroke:black; " description="&lt;b&gt;AAV34_RS10240&lt;/b&gt;&lt;br&gt;MFS transporter&lt;br&gt;Location: 2055715 - 2055281" locus_tag="AAV34_RS10240" class="clusterblast-orf" id="dummy-1_h1_3_10"  />
</g>
<g id="a1_0011"  >
<polygon points="59,90 61,85 59,80 59,90 " style="fill:white; stroke-width:1; stroke:black; " description="&lt;b&gt;AAV34_RS10235&lt;/b&gt;&lt;br&gt;hypothetical protein&lt;br&gt;Location: 2055136 - 2054867" locus_tag="AAV34_RS10235" class="clusterblast-orf" id="dummy-1_h1_3_11"  />
</g>
<g id="a1_0012"  >
<polygon points="62,85 67,80 69,80 69,90 67,90 62,85 " style="fill:white; stroke-width:1; stroke:black; " description="&lt;b&gt;AAV34_RS10230&lt;/b&gt;&lt;br&gt;choline esterase&lt;br&gt;Location: 2054597 - 2053461" locus_tag="AAV34_RS10230" class="clusterblast-orf" id="dummy-1_h1_3_12"  />
</g>
<g id="a1_0013"  >
<polygon points="70,85 75,80 79,80 79,90 75,90 70,85 " style="fill:white; stroke-width:1; stroke:black; " description="&lt;b&gt;AAV34_RS10225&lt;/b&gt;&lt;br&gt;endoglucanase&lt;br&gt;Location: 2053216 - 2051717" locus_tag="AAV34_RS10225" class="clusterblast-orf" id="dummy-1_h1_3_13"  />
</g>
<g id="a1_0014"  >
<polygon points="82,90 83,85 82,80 82,90 " style="fill:white; stroke-width:1; stroke:black; " description="&lt;b&gt;AAV34_RS10220&lt;/b&gt;&lt;br&gt;DUF4870 domain-containing protein&lt;br&gt;Location: 2051256 - 2050945" locus_tag="AAV34_RS10220" class="clusterblast-orf" id="dummy-1_h1_3_14"  />
</g>
<g id="a1_0015"  >
<polygon points="84,85 89,80 92,80 92,90 89,90 84,85 " style="fill:white; stroke-width:1; stroke:black; " description="&lt;b&gt;AAV34_RS10215&lt;/b&gt;&lt;br&gt;sensor histidine kinase&lt;br&gt;Location: 2050897 - 2049497" locus_tag="AAV34_RS10215" class="clusterblast-orf" id="dummy-1_h1_3_15"  />
</g>
<g id="a1_0016"  >
<polygon points="92,85 96,80 96,90 92,85 " style="fill:white; stroke-width:1; stroke:black; " description="&lt;b&gt;AAV34_RS10210&lt;/b&gt;&lt;br&gt;DNA-binding response regulator&lt;br&gt;Location: 2049494 - 2048787" locus_tag="AAV34_RS10210" class="clusterblast-orf" id="dummy-1_h1_3_16"  />
</g>
<g id="a1_0017"  >
<polygon points="97,85 102,80 104,80 104,90 102,90 97,85 " style="fill:white; stroke-width:1; stroke:black; " description="&lt;b&gt;AAV34_RS10205&lt;/b&gt;&lt;br&gt;glucuronoxylanase&lt;br&gt;Location: 2048643 - 2047372" locus_tag="AAV34_RS10205" class="clusterblast-orf" id="dummy-1_h1_3_17"  />
</g>
<g id="a1_0018"  >
<polygon points="104,85 109,80 113,80 113,90 109,90 104,85 " style="fill:white; stroke-width:1; stroke:black; " description="&lt;b&gt;AAV34_RS10200&lt;/b&gt;&lt;br&gt;arabinoxylan arabinofuranohydrolase&lt;br&gt;Location: 2047320 - 2045782" locus_tag="AAV34_RS10200" class="clusterblast-orf" id="dummy-1_h1_3_18"  />
</g>
<g id="a1_0019"  >
<polygon points="115,85 120,80 161,80 161,90 120,90 115,85 " style="fill:white; stroke-width:1; stroke:black; " description="&lt;b&gt;AAV34_RS10195&lt;/b&gt;&lt;br&gt;non-ribosomal peptide synthetase&lt;br&gt;Location: 2045457 - 2037607" locus_tag="AAV34_RS10195" class="clusterblast-orf" id="dummy-1_h1_3_19"  />
</g>
<g id="a1_0020"  >
<polygon points="161,85 166,80 255,80 255,90 166,90 161,85 " style="fill:white; stroke-width:1; stroke:black; " description="&lt;b&gt;AAV34_RS10190&lt;/b&gt;&lt;br&gt;non-ribosomal peptide synthetase&lt;br&gt;Location: 2037518 - 2021433" locus_tag="AAV34_RS10190" class="clusterblast-orf" id="dummy-1_h1_3_20"  />
</g>
<g id="a1_0021"  >
<polygon points="255,85 260,80 324,80 324,90 260,90 255,85 " style="fill:white; stroke-width:1; stroke:black; " description="&lt;b&gt;AAV34_RS10185&lt;/b&gt;&lt;br&gt;non-ribosomal peptide synthetase&lt;br&gt;Location: 2021388 - 2009440" locus_tag="AAV34_RS10185" class="clusterblast-orf" id="dummy-1_h1_3_21"  />
</g>
<g id="a1_0022"  >
<polygon points="324,85 329,80 331,80 331,90 329,90 324,85 " style="fill:white; stroke-width:1; stroke:black; " description="&lt;b&gt;AAV34_RS10180&lt;/b&gt;&lt;br&gt;[acyl-carrier-protein] S-malonyltransferase&lt;br&gt;Location: 2009420 - 2008218" locus_tag="AAV34_RS10180" class="clusterblast-orf" id="dummy-1_h1_3_22"  />
</g>
<g id="a1_0023"  >
<polygon points="335,85 339,80 339,90 335,85 " style="fill:white; stroke-width:1; stroke:black; " description="&lt;b&gt;AAV34_RS10175&lt;/b&gt;&lt;br&gt;3-hydroxybutyrate dehydrogenase&lt;br&gt;Location: 2007660 - 2006875" locus_tag="AAV34_RS10175" class="clusterblast-orf" id="dummy-1_h1_3_23"  />
</g>
<g id="a1_0024"  >
<polygon points="339,85 343,80 343,90 339,85 " style="fill:white; stroke-width:1; stroke:black; " description="&lt;b&gt;AAV34_RS10170&lt;/b&gt;&lt;br&gt;CoA transferase subunit B&lt;br&gt;Location: 2006862 - 2006200" locus_tag="AAV34_RS10170" class="clusterblast-orf" id="dummy-1_h1_3_24"  />
</g>
<g id="a1_0025"  >
<polygon points="343,85 347,80 347,90 343,85 " style="fill:white; stroke-width:1; stroke:black; " description="&lt;b&gt;AAV34_RS10165&lt;/b&gt;&lt;br&gt;CoA transferase subunit A&lt;br&gt;Location: 2006182 - 2005481" locus_tag="AAV34_RS10165" class="clusterblast-orf" id="dummy-1_h1_3_25"  />
</g>
<g id="a1_0026"  >
<polygon points="347,85 352,80 356,80 356,90 352,90 347,85 " style="fill:white; stroke-width:1; stroke:black; " description="&lt;b&gt;AAV34_RS10160&lt;/b&gt;&lt;br&gt;GntP family permease&lt;br&gt;Location: 2005456 - 2004011" locus_tag="AAV34_RS10160" class="clusterblast-orf" id="dummy-1_h1_3_26"  />
</g>
<g id="a1_0027"  >
<polygon points="358,85 363,80 365,80 365,90 363,90 358,85 " style="fill:white; stroke-width:1; stroke:black; " description="&lt;b&gt;AAV34_RS10155&lt;/b&gt;&lt;br&gt;cytochrome P450&lt;br&gt;Location: 2003707 - 2002511" locus_tag="AAV34_RS10155" class="clusterblast-orf" id="dummy-1_h1_3_27"  />
</g>
<g id="a1_0028"  >
<polygon points="365,85 370,80 371,80 371,90 370,90 365,85 " style="fill:white; stroke-width:1; stroke:black; " description="&lt;b&gt;AAV34_RS10150&lt;/b&gt;&lt;br&gt;biotin synthase BioB&lt;br&gt;Location: 2002509 - 2001490" locus_tag="AAV34_RS10150" class="clusterblast-orf" id="dummy-1_h1_3_28"  />
</g>
<g id="a1_0029"  >
<polygon points="371,85 375,80 375,90 371,85 " style="fill:white; stroke-width:1; stroke:black; " description="&lt;b&gt;AAV34_RS10145&lt;/b&gt;&lt;br&gt;ATP-dependent dethiobiotin synthetase BioD&lt;br&gt;Location: 2001487 - 2000786" locus_tag="AAV34_RS10145" class="clusterblast-orf" id="dummy-1_h1_3_29"  />
</g>
<g id="a1_0030"  >
<polygon points="375,85 380,80 381,80 381,90 380,90 375,85 " style="fill:white; stroke-width:1; stroke:black; " description="&lt;b&gt;AAV34_RS10140&lt;/b&gt;&lt;br&gt;8-amino-7-oxononanoate synthase&lt;br&gt;Location: 2000789 - 1999629" locus_tag="AAV34_RS10140" class="clusterblast-orf" id="dummy-1_h1_3_30"  />
</g>
<g id="a1_0031"  >
<polygon points="381,85 386,80 389,80 389,90 386,90 381,85 " style="fill:white; stroke-width:1; stroke:black; " description="&lt;b&gt;AAV34_RS10135&lt;/b&gt;&lt;br&gt;adenosylmethionine--8-amino-7-oxononanoate transaminase&lt;br&gt;Location: 1999639 - 1998293" locus_tag="AAV34_RS10135" class="clusterblast-orf" id="dummy-1_h1_3_31"  />
</g>
<g id="a1_0032"  >
<polygon points="389,85 394,80 394,80 394,90 394,90 389,85 " style="fill:white; stroke-width:1; stroke:black; " description="&lt;b&gt;AAV34_RS10130&lt;/b&gt;&lt;br&gt;6-carboxyhexanoate--CoA ligase&lt;br&gt;Location: 1998293 - 1997526" locus_tag="AAV34_RS10130" class="clusterblast-orf" id="dummy-1_h1_3_32"  />
</g>
<g id="a1_0033"  >
<polygon points="395,90 398,85 395,80 395,90 " style="fill:white; stroke-width:1; stroke:black; " description="&lt;b&gt;AAV34_RS10125&lt;/b&gt;&lt;br&gt;GtrA family protein&lt;br&gt;Location: 1997250 - 1996843" locus_tag="AAV34_RS10125" class="clusterblast-orf" id="dummy-1_h1_3_33"  />
</g>
<g id="a1_0034"  >
<polygon points="398,90 398,90 403,85 398,80 398,80 398,90 " style="fill:white; stroke-width:1; stroke:black; " description="&lt;b&gt;AAV34_RS10120&lt;/b&gt;&lt;br&gt;UTP--glucose-1-phosphate uridylyltransferase&lt;br&gt;Location: 1996836 - 1995942" locus_tag="AAV34_RS10120" class="clusterblast-orf" id="dummy-1_h1_3_34"  />
</g>
<g id="a1_0035"  >
<polygon points="403,90 407,85 403,80 403,90 " style="fill:white; stroke-width:1; stroke:black; " description="&lt;b&gt;AAV34_RS10115&lt;/b&gt;&lt;br&gt;DedA family protein&lt;br&gt;Location: 1995867 - 1995277" locus_tag="AAV34_RS10115" class="clusterblast-orf" id="dummy-1_h1_3_35"  />
</g>
<g id="a1_0036"  >
<polygon points="407,85 412,80 416,80 416,90 412,90 407,85 " style="fill:#15d8d8; stroke-width:1; stroke:black; " description="&lt;b&gt;AAV34_RS10110&lt;/b&gt;&lt;br&gt;acyl-CoA carboxylase subunit beta&lt;br&gt;Location: 1995224 - 1993695&lt;br&gt;&lt;br&gt;&lt;b&gt;BlastP hit with ctg3_22&lt;/b&gt;&lt;br&gt;Percentage identity: 36&lt;br&gt;Percentage coverage: 92&lt;br&gt;BLAST bit score: 306&lt;br&gt;E-value: 4.9e-81" locus_tag="AAV34_RS10110" class="clusterblast-orf" id="dummy-1_h1_3_36"  />
</g>
<g id="a1_0037"  >
<polygon points="416,85 420,80 420,90 416,85 " style="fill:white; stroke-width:1; stroke:black; " description="&lt;b&gt;AAV34_RS10105&lt;/b&gt;&lt;br&gt;enoyl-CoA hydratase&lt;br&gt;Location: 1993677 - 1992898" locus_tag="AAV34_RS10105" class="clusterblast-orf" id="dummy-1_h1_3_37"  />
</g>
<g id="a1_0038"  >
<polygon points="421,85 426,80 426,80 426,90 426,90 421,85 " style="fill:#1546d8; stroke-width:1; stroke:black; " description="&lt;b&gt;AAV34_RS10100&lt;/b&gt;&lt;br&gt;hydroxymethylglutaryl-CoA lyase&lt;br&gt;Location: 1992884 - 1991985&lt;br&gt;&lt;br&gt;&lt;b&gt;BlastP hit with ctg3_27&lt;/b&gt;&lt;br&gt;Percentage identity: 44&lt;br&gt;Percentage coverage: 99&lt;br&gt;BLAST bit score: 252&lt;br&gt;E-value: 6.2e-65" locus_tag="AAV34_RS10100" class="clusterblast-orf" id="dummy-1_h1_3_38"  />
</g>
<g id="a1_0039"  >
<polygon points="426,85 427,80 427,90 426,85 " style="fill:white; stroke-width:1; stroke:black; " description="&lt;b&gt;AAV34_RS10095&lt;/b&gt;&lt;br&gt;acetyl-CoA carboxylase biotin carboxyl carrier protein subunit&lt;br&gt;Location: 1991969 - 1991757" locus_tag="AAV34_RS10095" class="clusterblast-orf" id="dummy-1_h1_3_39"  />
</g>
<g id="a1_0040"  >
<polygon points="427,85 432,80 435,80 435,90 432,90 427,85 " style="fill:#d81515; stroke-width:1; stroke:black; " description="&lt;b&gt;AAV34_RS10090&lt;/b&gt;&lt;br&gt;acetyl-CoA carboxylase biotin carboxylase subunit&lt;br&gt;Location: 1991760 - 1990411&lt;br&gt;&lt;br&gt;&lt;b&gt;BlastP hit with ctg3_20&lt;/b&gt;&lt;br&gt;Percentage identity: 49&lt;br&gt;Percentage coverage: 68&lt;br&gt;BLAST bit score: 418&lt;br&gt;E-value: 1.1e-114" locus_tag="AAV34_RS10090" class="clusterblast-orf" id="dummy-1_h1_3_40"  />
</g>
<g id="a1_0041"  >
<polygon points="435,85 440,80 445,80 445,90 440,90 435,85 " style="fill:#d8a715; stroke-width:1; stroke:black; " description="&lt;b&gt;AAV34_RS10085&lt;/b&gt;&lt;br&gt;AMP-binding protein&lt;br&gt;Location: 1990389 - 1988749&lt;br&gt;&lt;br&gt;&lt;b&gt;BlastP hit with ctg3_24&lt;/b&gt;&lt;br&gt;Percentage identity: 48&lt;br&gt;Percentage coverage: 96&lt;br&gt;BLAST bit score: 541&lt;br&gt;E-value: 9.6e-152" locus_tag="AAV34_RS10085" class="clusterblast-orf" id="dummy-1_h1_3_41"  />
</g>
<g id="a1_0042"  >
<polygon points="445,85 450,80 451,80 451,90 450,90 445,85 " style="fill:#7715d8; stroke-width:1; stroke:black; " description="&lt;b&gt;AAV34_RS10080&lt;/b&gt;&lt;br&gt;acyl-CoA dehydrogenase&lt;br&gt;Location: 1988704 - 1987562&lt;br&gt;&lt;br&gt;&lt;b&gt;BlastP hit with ctg3_23&lt;/b&gt;&lt;br&gt;Percentage identity: 42&lt;br&gt;Percentage coverage: 98&lt;br&gt;BLAST bit score: 300&lt;br&gt;E-value: 2.6e-79&lt;br&gt;&lt;br&gt;&lt;b&gt;BlastP hit with ctg3_30&lt;/b&gt;&lt;br&gt;Percentage identity: 31&lt;br&gt;Percentage coverage: 96&lt;br&gt;BLAST bit score: 166&lt;br&gt;E-value: 7.9e-39" locus_tag="AAV34_RS10080" class="clusterblast-orf" id="dummy-1_h1_3_42"  />
</g>
<g id="a1_0043"  >
<polygon points="452,85 457,80 461,80 461,90 457,90 452,85 " style="fill:white; stroke-width:1; stroke:black; " description="&lt;b&gt;AAV34_RS10075&lt;/b&gt;&lt;br&gt;hypothetical protein&lt;br&gt;Location: 1987422 - 1985884" locus_tag="AAV34_RS10075" class="clusterblast-orf" id="dummy-1_h1_3_43"  />
</g>
<g id="a1_0044"  >
<polygon points="462,85 464,80 464,90 462,85 " style="fill:white; stroke-width:1; stroke:black; " description="&lt;b&gt;AAV34_RS10070&lt;/b&gt;&lt;br&gt;DUF1360 domain-containing protein&lt;br&gt;Location: 1985763 - 1985383" locus_tag="AAV34_RS10070" class="clusterblast-orf" id="dummy-1_h1_3_44"  />
</g>
<g id="a1_0045"  >
<polygon points="464,85 469,80 487,80 487,90 469,90 464,85 " style="fill:white; stroke-width:1; stroke:black; " description="&lt;b&gt;AAV34_RS10065&lt;/b&gt;&lt;br&gt;non-ribosomal peptide synthase&lt;br&gt;Location: 1985308 - 1981505" locus_tag="AAV34_RS10065" class="clusterblast-orf" id="dummy-1_h1_3_45"  />
</g>
<g id="a1_0046"  >
<polygon points="487,85 492,80 549,80 549,90 492,90 487,85 " style="fill:white; stroke-width:1; stroke:black; " description="&lt;b&gt;AAV34_RS10060&lt;/b&gt;&lt;br&gt;D-alanine--poly(phosphoribitol) ligase subunit DltA&lt;br&gt;Location: 1981485 - 1970710" locus_tag="AAV34_RS10060" class="clusterblast-orf" id="dummy-1_h1_3_46"  />
</g>
<g id="a1_0047"  >
<polygon points="549,85 554,80 594,80 594,90 554,90 549,85 " style="fill:white; stroke-width:1; stroke:black; " description="&lt;b&gt;AAV34_RS10055&lt;/b&gt;&lt;br&gt;non-ribosomal peptide synthetase&lt;br&gt;Location: 1970684 - 1963047" locus_tag="AAV34_RS10055" class="clusterblast-orf" id="dummy-1_h1_3_47"  />
</g>
<g id="a1_0048"  >
<polygon points="594,85 599,80 639,80 639,90 599,90 594,85 " style="fill:white; stroke-width:1; stroke:black; " description="&lt;b&gt;AAV34_RS10050&lt;/b&gt;&lt;br&gt;non-ribosomal peptide synthetase&lt;br&gt;Location: 1963031 - 1955340" locus_tag="AAV34_RS10050" class="clusterblast-orf" id="dummy-1_h1_3_48"  />
</g>
<g id="a1_0049"  >
<polygon points="639,85 644,80 683,80 683,90 644,90 639,85 " style="fill:white; stroke-width:1; stroke:black; " description="&lt;b&gt;AAV34_RS10045&lt;/b&gt;&lt;br&gt;non-ribosomal peptide synthetase&lt;br&gt;Location: 1955314 - 1947656" locus_tag="AAV34_RS10045" class="clusterblast-orf" id="dummy-1_h1_3_49"  />
</g>
<g id="a1_0050"  >
<polygon points="685,85 686,80 686,90 685,85 " style="fill:white; stroke-width:1; stroke:black; " description="&lt;b&gt;AAV34_RS10040&lt;/b&gt;&lt;br&gt;hypothetical protein&lt;br&gt;Location: 1947413 - 1947206" locus_tag="AAV34_RS10040" class="clusterblast-orf" id="dummy-1_h1_3_50"  />
</g>
<g id="a1_0051"  >
<polygon points="686,85 691,80 694,80 694,90 691,90 686,85 " style="fill:white; stroke-width:1; stroke:black; " description="&lt;b&gt;AAV34_RS10035&lt;/b&gt;&lt;br&gt;D-alanyl-D-alanine carboxypeptidase/D-alanyl-D-alanine-endopeptidase&lt;br&gt;Location: 1947195 - 1945720" locus_tag="AAV34_RS10035" class="clusterblast-orf" id="dummy-1_h1_3_51"  />
</g>
<g id="a1_0052"  >
<polygon points="695,85 700,80 700,80 700,90 700,90 695,85 " style="fill:white; stroke-width:1; stroke:black; " description="&lt;b&gt;AAV34_RS10030&lt;/b&gt;&lt;br&gt;aldose 1-epimerase&lt;br&gt;Location: 1945701 - 1944733" locus_tag="AAV34_RS10030" class="clusterblast-orf" id="dummy-1_h1_3_52"  />
</g>
<g id="a1_0053"  >
<polygon points="701,85 706,80 709,80 709,90 706,90 701,85 " style="fill:white; stroke-width:1; stroke:black; " description="&lt;b&gt;AAV34_RS10025&lt;/b&gt;&lt;br&gt;MATE family efflux transporter&lt;br&gt;Location: 1944618 - 1943230" locus_tag="AAV34_RS10025" class="clusterblast-orf" id="dummy-1_h1_3_53"  />
</g>
<g id="a1_0054"  >
<polygon points="710,90 713,85 710,80 710,90 " style="fill:white; stroke-width:1; stroke:black; " description="&lt;b&gt;AAV34_RS10020&lt;/b&gt;&lt;br&gt;hypothetical protein&lt;br&gt;Location: 1943001 - 1942459" locus_tag="AAV34_RS10020" class="clusterblast-orf" id="dummy-1_h1_3_54"  />
</g>
<g id="a1_0055"  >
<polygon points="715,85 718,80 718,90 715,85 " style="fill:white; stroke-width:1; stroke:black; " description="&lt;b&gt;AAV34_RS10010&lt;/b&gt;&lt;br&gt;site-specific integrase&lt;br&gt;Location: 1942199 - 1941654" locus_tag="AAV34_RS10010" class="clusterblast-orf" id="dummy-1_h1_3_55"  />
</g>
<g id="a1_0056"  >
<polygon points="720,85 721,80 721,90 720,85 " style="fill:white; stroke-width:1; stroke:black; " description="&lt;b&gt;AAV34_RS10005&lt;/b&gt;&lt;br&gt;helix-turn-helix domain-containing protein&lt;br&gt;Location: 1941339 - 1941109" locus_tag="AAV34_RS10005" class="clusterblast-orf" id="dummy-1_h1_3_56"  />
</g>
<g id="a1_0057"  >
<polygon points="723,90 728,90 733,85 728,80 723,80 723,90 " style="fill:white; stroke-width:1; stroke:black; " description="&lt;b&gt;AAV34_RS10000&lt;/b&gt;&lt;br&gt;gamma-glutamyltransferase&lt;br&gt;Location: 1940865 - 1939099" locus_tag="AAV34_RS10000" class="clusterblast-orf" id="dummy-1_h1_3_57"  />
</g>
<g id="a1_0058"  >
<polygon points="733,85 738,80 740,80 740,90 738,90 733,85 " style="fill:white; stroke-width:1; stroke:black; " description="&lt;b&gt;AAV34_RS09995&lt;/b&gt;&lt;br&gt;MFS transporter&lt;br&gt;Location: 1939052 - 1937877" locus_tag="AAV34_RS09995" class="clusterblast-orf" id="dummy-1_h1_3_58"  />
</g>
<g id="a1_0059"  >
<polygon points="741,85 743,80 743,90 741,85 " style="fill:white; stroke-width:1; stroke:black; " description="&lt;b&gt;AAV34_RS09990&lt;/b&gt;&lt;br&gt;ArsR family transcriptional regulator&lt;br&gt;Location: 1937733 - 1937431" locus_tag="AAV34_RS09990" class="clusterblast-orf" id="dummy-1_h1_3_59"  />
</g>
<g id="a1_0060"  >
<polygon points="743,85 748,80 754,80 754,90 748,90 743,85 " style="fill:white; stroke-width:1; stroke:black; " description="&lt;b&gt;AAV34_RS09985&lt;/b&gt;&lt;br&gt;threonine--tRNA ligase&lt;br&gt;Location: 1937384 - 1935465" locus_tag="AAV34_RS09985" class="clusterblast-orf" id="dummy-1_h1_3_60"  />
</g>
<g id="a1_0061"  >
<polygon points="755,90 756,85 755,80 755,90 " style="fill:white; stroke-width:1; stroke:black; " description="&lt;b&gt;AAV34_RS09980&lt;/b&gt;&lt;br&gt;hypothetical protein&lt;br&gt;Location: 1935266 - 1935075" locus_tag="AAV34_RS09980" class="clusterblast-orf" id="dummy-1_h1_3_61"  />
</g>
<g id="a1_0062"  >
<polygon points="758,85 763,80 763,80 763,90 763,90 758,85 " style="fill:#15d846; stroke-width:1; stroke:black; " description="&lt;b&gt;AAV34_RS09975&lt;/b&gt;&lt;br&gt;LysR family transcriptional regulator&lt;br&gt;Location: 1934821 - 1933955&lt;br&gt;&lt;br&gt;&lt;b&gt;BlastP hit with ctg3_26&lt;/b&gt;&lt;br&gt;Percentage identity: 31&lt;br&gt;Percentage coverage: 41&lt;br&gt;BLAST bit score: 64&lt;br&gt;E-value: 2.4e-08" locus_tag="AAV34_RS09975" class="clusterblast-orf" id="dummy-1_h1_3_62"  />
</g>
<g id="a1_0063"  >
<polygon points="763,90 764,90 769,85 764,80 763,80 763,90 " style="fill:white; stroke-width:1; stroke:black; " description="&lt;b&gt;AAV34_RS09970&lt;/b&gt;&lt;br&gt;alcohol dehydrogenase&lt;br&gt;Location: 1933836 - 1932856" locus_tag="AAV34_RS09970" class="clusterblast-orf" id="dummy-1_h1_3_63"  />
</g>
<g id="a1_0064"  >
<polygon points="771,85 776,80 780,80 780,90 776,90 771,85 " style="fill:white; stroke-width:1; stroke:black; " description="&lt;b&gt;AAV34_RS09965&lt;/b&gt;&lt;br&gt;FAD-binding protein&lt;br&gt;Location: 1932548 - 1931067" locus_tag="AAV34_RS09965" class="clusterblast-orf" id="dummy-1_h1_3_64"  />
</g>
</svg>
