<svg xmlns="http://www.w3.org/2000/svg" xmlns:xlink="http://www.w3.org/1999/xlink" version="1.1" x="0" y="0" height="230" width="800" viewBox="0 0 800 230" preserveAspectRatio="none"  >
<g label="Query sequence" class="clusterblast-cluster"  >
<text x="5" y="20" class="clusterblast-acc"  >
Query sequence</text>
<line x1="10" y1="35" x2="778.0" y2="35" style="stroke-width:1; stroke:grey; "  />
<polygon points="0,40 29,40 34,35 29,30 0,30 0,40 " style="fill:#d81515; stroke-width:1; stroke:black; " description="&lt;b&gt;ctg3_1885&lt;/b&gt;&lt;br&gt;ctg3 1885&lt;br&gt;Location: 2244699 - 2245152" locus_tag="ctg3_1885" class="clusterblast-orf" id="dummy-3_q0_0_all"  />
<polygon points="41,40 70,40 75,35 70,30 41,30 41,40 " style="fill:#d81515; stroke-width:1; stroke:black; " description="&lt;b&gt;ctg3_1886&lt;/b&gt;&lt;br&gt;ctg3 1886&lt;br&gt;Location: 2245255 - 2245708" locus_tag="ctg3_1886" class="clusterblast-orf" id="dummy-3_q1_0_all"  />
<polygon points="86,40 115,40 120,35 115,30 86,30 86,40 " style="fill:#77d815; stroke-width:1; stroke:black; " description="&lt;b&gt;ctg3_1887&lt;/b&gt;&lt;br&gt;ctg3 1887&lt;br&gt;Location: 2245857 - 2246316" locus_tag="ctg3_1887" class="clusterblast-orf" id="dummy-3_q2_0_all"  />
<polygon points="120,40 140,40 145,35 140,30 120,30 120,40 " style="fill:#15d8d8; stroke-width:1; stroke:black; " description="&lt;b&gt;ctg3_1888&lt;/b&gt;&lt;br&gt;ctg3 1888&lt;br&gt;Location: 2246312 - 2246654" locus_tag="ctg3_1888" class="clusterblast-orf" id="dummy-3_q3_0_all"  />
<polygon points="143,35 148,30 213,30 213,40 148,40 143,35 " style="fill:#7715d8; stroke-width:1; stroke:black; " description="&lt;b&gt;ctg3_1889&lt;/b&gt;&lt;br&gt;ctg3 1889&lt;br&gt;Location: 2246623 - 2247562" locus_tag="ctg3_1889" class="clusterblast-orf" id="dummy-3_q4_0_all"  />
<polygon points="218,40 279,40 284,35 279,30 218,30 218,40 " style="fill:#d87715; stroke-width:1; stroke:black; " description="&lt;b&gt;ctg3_1890&lt;/b&gt;&lt;br&gt;ctg3 1890&lt;br&gt;Location: 2247630 - 2248518" locus_tag="ctg3_1890" class="clusterblast-orf" id="dummy-3_q5_0_all"  />
<polygon points="293,35 298,30 349,30 349,40 298,40 293,35 " style="fill:#15d815; stroke-width:1; stroke:black; " description="&lt;b&gt;ctg3_1891&lt;/b&gt;&lt;br&gt;ctg3 1891&lt;br&gt;Location: 2248647 - 2249406" locus_tag="ctg3_1891" class="clusterblast-orf" id="dummy-3_q6_0_all"  />
<polygon points="349,35 354,30 411,30 411,40 354,40 349,35 " style="fill:#1577d8; stroke-width:1; stroke:black; " description="&lt;b&gt;ctg3_1892&lt;/b&gt;&lt;br&gt;ctg3 1892&lt;br&gt;Location: 2249398 - 2250238" locus_tag="ctg3_1892" class="clusterblast-orf" id="dummy-3_q7_0_all"  />
<polygon points="416,35 421,30 431,30 431,40 421,40 416,35 " style="fill:#d815d8; stroke-width:1; stroke:black; " description="&lt;b&gt;ctg3_1893&lt;/b&gt;&lt;br&gt;ctg3 1893&lt;br&gt;Location: 2250300 - 2250507" locus_tag="ctg3_1893" class="clusterblast-orf" id="dummy-3_q8_0_all"  />
<polygon points="445,35 450,30 544,30 544,40 450,40 445,35 " style="fill:#d8d815; stroke-width:1; stroke:black; " description="&lt;b&gt;ctg3_1894&lt;/b&gt;&lt;br&gt;ctg3 1894&lt;br&gt;Location: 2250689 - 2252024" locus_tag="ctg3_1894" class="clusterblast-orf" id="dummy-3_q9_0_all"  />
<polygon points="568,35 573,30 637,30 637,40 573,40 568,35 " style="fill:#15d877; stroke-width:1; stroke:black; " description="&lt;b&gt;ctg3_1895&lt;/b&gt;&lt;br&gt;ctg3 1895&lt;br&gt;Location: 2252354 - 2253278" locus_tag="ctg3_1895" class="clusterblast-orf" id="dummy-3_q10_0_all"  />
<polygon points="653,35 658,30 731,30 731,40 658,40 653,35 " style="fill:#1515d8; stroke-width:1; stroke:black; " description="&lt;b&gt;ctg3_1896&lt;/b&gt;&lt;br&gt;ctg3 1896&lt;br&gt;Location: 2253502 - 2254546" locus_tag="ctg3_1896" class="clusterblast-orf" id="dummy-3_q11_0_all"  />
<polygon points="747,40 775,40 780,35 775,30 747,30 747,40 " style="fill:#d81577; stroke-width:1; stroke:black; " description="&lt;b&gt;ctg3_1897&lt;/b&gt;&lt;br&gt;ctg3 1897&lt;br&gt;Location: 2254762 - 2255212" locus_tag="ctg3_1897" class="clusterblast-orf" id="dummy-3_q12_0_all"  />
</g>
<g label="NZ_CP027656" description="NZ_CP027656_c4: Pseudomonas chlororaphis subsp. piscium strain ZJU60 chromoso... (25% of genes show similarity), bacteriocin" class="clusterblast-cluster"  >
<text x="5" y="70" class="clusterblast-acc"  >
<a xlink:href="https://antismash-db.secondarymetabolites.org/go/NZ_CP027656/4" target="_blank">NZ_CP027656_c4</a>: Pseudomonas chlororaphis subsp. piscium strain ZJU60 chromoso... (25% of genes show similarity), bacteriocin</text>
<line x1="10" y1="85" x2="778.0" y2="85" style="stroke-width:1; stroke:grey; "  />
</g>
<g id="a3_000"  >
<polygon points="21,85 26,80 41,80 41,90 26,90 21,85 " style="fill:white; stroke-width:1; stroke:black; " description="&lt;b&gt;C6Q18_RS13035&lt;/b&gt;&lt;br&gt;DUF2790 domain-containing protein&lt;br&gt;Location: 2837011 - 2836748" locus_tag="C6Q18_RS13035" class="clusterblast-orf" id="dummy-3_h3_6_0"  />
</g>
<g id="a3_001"  >
<polygon points="62,90 112,90 117,85 112,80 62,80 62,90 " style="fill:white; stroke-width:1; stroke:black; " description="&lt;b&gt;C6Q18_RS13030&lt;/b&gt;&lt;br&gt;DNA-binding response regulator&lt;br&gt;Location: 2836453 - 2835713" locus_tag="C6Q18_RS13030" class="clusterblast-orf" id="dummy-3_h3_6_1"  />
</g>
<g id="a3_002"  >
<polygon points="117,90 210,90 215,85 210,80 117,80 117,90 " style="fill:white; stroke-width:1; stroke:black; " description="&lt;b&gt;C6Q18_RS13025&lt;/b&gt;&lt;br&gt;two-component sensor histidine kinase&lt;br&gt;Location: 2835716 - 2834394" locus_tag="C6Q18_RS13025" class="clusterblast-orf" id="dummy-3_h3_6_2"  />
</g>
<g id="a3_003"  >
<polygon points="224,90 266,90 271,85 266,80 224,80 224,90 " style="fill:white; stroke-width:1; stroke:black; " description="&lt;b&gt;C6Q18_RS13020&lt;/b&gt;&lt;br&gt;hypothetical protein&lt;br&gt;Location: 2834277 - 2833642" locus_tag="C6Q18_RS13020" class="clusterblast-orf" id="dummy-3_h3_6_3"  />
</g>
<g id="a3_004"  >
<polygon points="279,90 311,90 316,85 311,80 279,80 279,90 " style="fill:white; stroke-width:1; stroke:black; " description="&lt;b&gt;C6Q18_RS13015&lt;/b&gt;&lt;br&gt;DoxX family protein&lt;br&gt;Location: 2833540 - 2833034" locus_tag="C6Q18_RS13015" class="clusterblast-orf" id="dummy-3_h3_6_4"  />
</g>
<g id="a3_005"  >
<polygon points="332,85 337,80 388,80 388,90 337,90 332,85 " style="fill:#15d815; stroke-width:1; stroke:black; " description="&lt;b&gt;C6Q18_RS13010&lt;/b&gt;&lt;br&gt;DUF2063 domain-containing protein&lt;br&gt;Location: 2832821 - 2832060&lt;br&gt;&lt;br&gt;&lt;b&gt;BlastP hit with ctg3_1891&lt;/b&gt;&lt;br&gt;Percentage identity: 63&lt;br&gt;Percentage coverage: 98&lt;br&gt;BLAST bit score: 321&lt;br&gt;E-value: 1.2e-85" locus_tag="C6Q18_RS13010" class="clusterblast-orf" id="dummy-3_h3_6_5"  />
</g>
<g id="a3_006"  >
<polygon points="388,85 393,80 453,80 453,90 393,90 388,85 " style="fill:#1577d8; stroke-width:1; stroke:black; " description="&lt;b&gt;C6Q18_RS13005&lt;/b&gt;&lt;br&gt;hypothetical protein&lt;br&gt;Location: 2832067 - 2831183&lt;br&gt;&lt;br&gt;&lt;b&gt;BlastP hit with ctg3_1892&lt;/b&gt;&lt;br&gt;Percentage identity: 80&lt;br&gt;Percentage coverage: 97&lt;br&gt;BLAST bit score: 455&lt;br&gt;E-value: 4.5e-126" locus_tag="C6Q18_RS13005" class="clusterblast-orf" id="dummy-3_h3_6_6"  />
</g>
<g id="a3_007"  >
<polygon points="459,85 464,80 488,80 488,90 464,90 459,85 " style="fill:#d815d8; stroke-width:1; stroke:black; " description="&lt;b&gt;C6Q18_RS13000&lt;/b&gt;&lt;br&gt;calcium-binding protein&lt;br&gt;Location: 2831105 - 2830719&lt;br&gt;&lt;br&gt;&lt;b&gt;BlastP hit with ctg3_1893&lt;/b&gt;&lt;br&gt;Percentage identity: 67&lt;br&gt;Percentage coverage: 63&lt;br&gt;BLAST bit score: 54&lt;br&gt;E-value: 7.3e-06" locus_tag="C6Q18_RS13000" class="clusterblast-orf" id="dummy-3_h3_6_7"  />
</g>
<g id="a3_008"  >
<polygon points="503,85 508,80 572,80 572,90 508,90 503,85 " style="fill:white; stroke-width:1; stroke:black; " description="&lt;b&gt;C6Q18_RS12995&lt;/b&gt;&lt;br&gt;GDP-mannose pyrophosphatase NudK&lt;br&gt;Location: 2830516 - 2829584" locus_tag="C6Q18_RS12995" class="clusterblast-orf" id="dummy-3_h3_6_8"  />
</g>
<g id="a3_009"  >
<polygon points="575,85 580,80 621,80 621,90 580,90 575,85 " style="fill:white; stroke-width:1; stroke:black; " description="&lt;b&gt;C6Q18_RS12990&lt;/b&gt;&lt;br&gt;TetR/AcrR family transcriptional regulator&lt;br&gt;Location: 2829546 - 2828926" locus_tag="C6Q18_RS12990" class="clusterblast-orf" id="dummy-3_h3_6_9"  />
</g>
<g id="a3_0010"  >
<polygon points="632,90 660,90 665,85 660,80 632,80 632,90 " style="fill:white; stroke-width:1; stroke:black; " description="&lt;b&gt;C6Q18_RS12985&lt;/b&gt;&lt;br&gt;DUF4442 domain-containing protein&lt;br&gt;Location: 2828773 - 2828333" locus_tag="C6Q18_RS12985" class="clusterblast-orf" id="dummy-3_h3_6_10"  />
</g>
<g id="a3_0011"  >
<polygon points="669,85 674,80 758,80 758,90 674,90 669,85 " style="fill:white; stroke-width:1; stroke:black; " description="&lt;b&gt;C6Q18_RS12980&lt;/b&gt;&lt;br&gt;bifunctional NADH-specific enoyl-ACP reductase/trans-2-enoyl-CoA reductase&lt;br&gt;Location: 2828274 - 2827078" locus_tag="C6Q18_RS12980" class="clusterblast-orf" id="dummy-3_h3_6_11"  />
</g>
</svg>
