<svg xmlns="http://www.w3.org/2000/svg" xmlns:xlink="http://www.w3.org/1999/xlink" version="1.1" x="0" y="0" height="230" width="800" viewBox="0 0 800 230" preserveAspectRatio="none"  >
<g label="Query sequence" class="clusterblast-cluster"  >
<text x="5" y="20" class="clusterblast-acc"  >
Query sequence</text>
<line x1="10" y1="35" x2="778.0" y2="35" style="stroke-width:1; stroke:grey; "  />
<polygon points="197,40 252,40 257,35 252,30 197,30 197,40 " style="fill:white; stroke-width:1; stroke:black; " description="&lt;b&gt;ctg1_736&lt;/b&gt;&lt;br&gt;ctg1 736&lt;br&gt;Location: 811806 - 813900" locus_tag="ctg1_736" class="clusterblast-orf" id="dummy-1_q0_0_all"  />
<polygon points="259,35 263,30 263,40 259,35 " style="fill:white; stroke-width:1; stroke:black; " description="&lt;b&gt;ctg1_737&lt;/b&gt;&lt;br&gt;ctg1 737&lt;br&gt;Location: 813962 - 814115" locus_tag="ctg1_737" class="clusterblast-orf" id="dummy-1_q1_0_all"  />
<polygon points="274,40 292,40 297,35 292,30 274,30 274,40 " style="fill:#d81515; stroke-width:1; stroke:black; " description="&lt;b&gt;ctg1_738&lt;/b&gt;&lt;br&gt;ctg1 738&lt;br&gt;Location: 814519 - 815335" locus_tag="ctg1_738" class="clusterblast-orf" id="dummy-1_q2_0_all"  />
<polygon points="299,40 304,40 309,35 304,30 299,30 299,40 " style="fill:white; stroke-width:1; stroke:black; " description="&lt;b&gt;ctg1_739&lt;/b&gt;&lt;br&gt;ctg1 739&lt;br&gt;Location: 815399 - 815732" locus_tag="ctg1_739" class="clusterblast-orf" id="dummy-1_q3_0_all"  />
<polygon points="313,40 313,40 318,35 313,30 313,30 313,40 " style="fill:#77d815; stroke-width:1; stroke:black; " description="&lt;b&gt;ctg1_740&lt;/b&gt;&lt;br&gt;ctg1 740&lt;br&gt;Location: 815885 - 816071" locus_tag="ctg1_740" class="clusterblast-orf" id="dummy-1_q4_0_all"  />
<polygon points="318,35 323,30 325,30 325,40 323,40 318,35 " style="fill:#15d8d8; stroke-width:1; stroke:black; " description="&lt;b&gt;ctg1_741&lt;/b&gt;&lt;br&gt;ctg1 741&lt;br&gt;Location: 816076 - 816304" locus_tag="ctg1_741" class="clusterblast-orf" id="dummy-1_q5_0_all"  />
<polygon points="330,35 335,30 364,30 364,40 335,40 330,35 " style="fill:#7715d8; stroke-width:1; stroke:black; " description="&lt;b&gt;ctg1_742&lt;/b&gt;&lt;br&gt;ctg1 742&lt;br&gt;Location: 816493 - 817684" locus_tag="ctg1_742" class="clusterblast-orf" id="dummy-1_q6_0_all"  />
<polygon points="369,35 374,30 418,30 418,40 374,40 369,35 " style="fill:#d8a715; stroke-width:1; stroke:black; " description="&lt;b&gt;ctg1_743&lt;/b&gt;&lt;br&gt;ctg1 743&lt;br&gt;Location: 817849 - 819598" locus_tag="ctg1_743" class="clusterblast-orf" id="dummy-1_q7_0_all"  />
<polygon points="418,35 423,30 468,30 468,40 423,40 418,35 " style="fill:#15d846; stroke-width:1; stroke:black; " description="&lt;b&gt;ctg1_744&lt;/b&gt;&lt;br&gt;ctg1 744&lt;br&gt;Location: 819601 - 821374" locus_tag="ctg1_744" class="clusterblast-orf" id="dummy-1_q8_0_all"  />
<polygon points="476,35 481,30 532,30 532,40 481,40 476,35 " style="fill:#1546d8; stroke-width:1; stroke:black; " description="&lt;b&gt;ctg1_745&lt;/b&gt;&lt;br&gt;ctg1 745&lt;br&gt;Location: 821636 - 823616" locus_tag="ctg1_745" class="clusterblast-orf" id="dummy-1_q9_0_all"  />
<polygon points="539,40 577,40 582,35 577,30 539,30 539,40 " style="fill:#d815a7; stroke-width:1; stroke:black; " description="&lt;b&gt;ctg1_746&lt;/b&gt;&lt;br&gt;ctg1 746&lt;br&gt;Location: 823868 - 825383" locus_tag="ctg1_746" class="clusterblast-orf" id="dummy-1_q10_0_all"  />
</g>
<g label="NZ_FMZG01000012" description="NZ_FMZG01000012_c1: Mycobacterium sp. 365mftsu, whole genome shotgun sequence (10% of genes show similarity), other" class="clusterblast-cluster"  >
<text x="5" y="70" class="clusterblast-acc"  >
<a xlink:href="https://antismash-db.secondarymetabolites.org/go/NZ_FMZG01000012/1" target="_blank">NZ_FMZG01000012_c1</a>: Mycobacterium sp. 365mftsu, whole genome shotgun sequence (10% of genes show similarity), other</text>
<line x1="10" y1="85" x2="778.0" y2="85" style="stroke-width:1; stroke:grey; "  />
</g>
<g id="a1_000"  >
<polygon points="0,90 12,90 17,85 12,80 0,80 0,90 " style="fill:white; stroke-width:1; stroke:black; " description="&lt;b&gt;BLS83_RS26405&lt;/b&gt;&lt;br&gt;superoxide dismutase&lt;br&gt;Location: 12 - 635" locus_tag="BLS83_RS26405" class="clusterblast-orf" id="dummy-1_h1_7_0"  />
</g>
<g id="a1_001"  >
<polygon points="19,90 37,90 42,85 37,80 19,80 19,90 " style="fill:white; stroke-width:1; stroke:black; " description="&lt;b&gt;BLS83_RS26410&lt;/b&gt;&lt;br&gt;DUF1206 domain-containing protein&lt;br&gt;Location: 708 - 1526" locus_tag="BLS83_RS26410" class="clusterblast-orf" id="dummy-1_h1_7_1"  />
</g>
<g id="a1_002"  >
<polygon points="43,85 48,80 53,80 53,90 48,90 43,85 " style="fill:white; stroke-width:1; stroke:black; " description="&lt;b&gt;BLS83_RS26415&lt;/b&gt;&lt;br&gt;hemophore-related protein&lt;br&gt;Location: 1546 - 1911" locus_tag="BLS83_RS26415" class="clusterblast-orf" id="dummy-1_h1_7_2"  />
</g>
<g id="a1_003"  >
<polygon points="56,90 76,90 81,85 76,80 56,80 56,90 " style="fill:white; stroke-width:1; stroke:black; " description="&lt;b&gt;BLS83_RS26420&lt;/b&gt;&lt;br&gt;hypothetical protein&lt;br&gt;Location: 1997 - 2890" locus_tag="BLS83_RS26420" class="clusterblast-orf" id="dummy-1_h1_7_3"  />
</g>
<g id="a1_004"  >
<polygon points="82,90 106,90 111,85 106,80 82,80 82,90 " style="fill:white; stroke-width:1; stroke:black; " description="&lt;b&gt;BLS83_RS26425&lt;/b&gt;&lt;br&gt;iron ABC transporter substrate-binding protein&lt;br&gt;Location: 2941 - 3957" locus_tag="BLS83_RS26425" class="clusterblast-orf" id="dummy-1_h1_7_4"  />
</g>
<g id="a1_005"  >
<polygon points="111,90 150,90 155,85 150,80 111,80 111,90 " style="fill:white; stroke-width:1; stroke:black; " description="&lt;b&gt;BLS83_RS26430&lt;/b&gt;&lt;br&gt;iron ABC transporter permease&lt;br&gt;Location: 3958 - 5514" locus_tag="BLS83_RS26430" class="clusterblast-orf" id="dummy-1_h1_7_5"  />
</g>
<g id="a1_006"  >
<polygon points="155,90 180,90 185,85 180,80 155,80 155,90 " style="fill:white; stroke-width:1; stroke:black; " description="&lt;b&gt;BLS83_RS26435&lt;/b&gt;&lt;br&gt;ABC transporter ATP-binding protein&lt;br&gt;Location: 5511 - 6563" locus_tag="BLS83_RS26435" class="clusterblast-orf" id="dummy-1_h1_7_6"  />
</g>
<g id="a1_007"  >
<polygon points="185,90 248,90 253,85 248,80 185,80 185,90 " style="fill:white; stroke-width:1; stroke:black; " description="&lt;b&gt;BLS83_RS26440&lt;/b&gt;&lt;br&gt;AMP-dependent synthetase&lt;br&gt;Location: 6560 - 8968" locus_tag="BLS83_RS26440" class="clusterblast-orf" id="dummy-1_h1_7_7"  />
</g>
<g id="a1_008"  >
<polygon points="253,85 258,80 275,80 275,90 258,90 253,85 " style="fill:white; stroke-width:1; stroke:black; " description="&lt;b&gt;BLS83_RS26445&lt;/b&gt;&lt;br&gt;acyl-CoA thioesterase II&lt;br&gt;Location: 8959 - 9753" locus_tag="BLS83_RS26445" class="clusterblast-orf" id="dummy-1_h1_7_8"  />
</g>
<g id="a1_009"  >
<polygon points="275,85 280,80 309,80 309,90 280,90 275,85 " style="fill:white; stroke-width:1; stroke:black; " description="&lt;b&gt;BLS83_RS26450&lt;/b&gt;&lt;br&gt;dehydratase&lt;br&gt;Location: 9750 - 10946" locus_tag="BLS83_RS26450" class="clusterblast-orf" id="dummy-1_h1_7_9"  />
</g>
<g id="a1_0010"  >
<polygon points="310,85 315,80 329,80 329,90 315,90 310,85 " style="fill:white; stroke-width:1; stroke:black; " description="&lt;b&gt;BLS83_RS26455&lt;/b&gt;&lt;br&gt;hypothetical protein&lt;br&gt;Location: 10959 - 11645" locus_tag="BLS83_RS26455" class="clusterblast-orf" id="dummy-1_h1_7_10"  />
</g>
<g id="a1_0011"  >
<polygon points="330,90 344,90 349,85 344,80 330,80 330,90 " style="fill:white; stroke-width:1; stroke:black; " description="&lt;b&gt;BLS83_RS26460&lt;/b&gt;&lt;br&gt;dienelactone hydrolase family protein&lt;br&gt;Location: 11667 - 12362" locus_tag="BLS83_RS26460" class="clusterblast-orf" id="dummy-1_h1_7_11"  />
</g>
<g id="a1_0012"  >
<polygon points="349,85 354,80 361,80 361,90 354,90 349,85 " style="fill:white; stroke-width:1; stroke:black; " description="&lt;b&gt;BLS83_RS26465&lt;/b&gt;&lt;br&gt;nitroreductase family deazaflavin-dependent oxidoreductase&lt;br&gt;Location: 12359 - 12778" locus_tag="BLS83_RS26465" class="clusterblast-orf" id="dummy-1_h1_7_12"  />
</g>
<g id="a1_0013"  >
<polygon points="362,85 367,80 371,80 371,90 367,90 362,85 " style="fill:white; stroke-width:1; stroke:black; " description="&lt;b&gt;BLS83_RS26470&lt;/b&gt;&lt;br&gt;DUF2469 domain-containing protein&lt;br&gt;Location: 12820 - 13125" locus_tag="BLS83_RS26470" class="clusterblast-orf" id="dummy-1_h1_7_13"  />
</g>
<g id="a1_0014"  >
<polygon points="371,85 376,80 392,80 392,90 376,90 371,85 " style="fill:white; stroke-width:1; stroke:black; " description="&lt;b&gt;BLS83_RS26475&lt;/b&gt;&lt;br&gt;ribonuclease HII&lt;br&gt;Location: 13122 - 13856" locus_tag="BLS83_RS26475" class="clusterblast-orf" id="dummy-1_h1_7_14"  />
</g>
<g id="a1_0015"  >
<polygon points="392,85 397,80 415,80 415,90 397,90 392,85 " style="fill:white; stroke-width:1; stroke:black; " description="&lt;b&gt;BLS83_RS26480&lt;/b&gt;&lt;br&gt;signal peptidase I&lt;br&gt;Location: 13868 - 14677" locus_tag="BLS83_RS26480" class="clusterblast-orf" id="dummy-1_h1_7_15"  />
</g>
<g id="a1_0016"  >
<polygon points="417,85 422,80 427,80 427,90 422,90 417,85 " style="fill:white; stroke-width:1; stroke:black; " description="&lt;b&gt;BLS83_RS26485&lt;/b&gt;&lt;br&gt;50S ribosomal protein L19&lt;br&gt;Location: 14751 - 15092" locus_tag="BLS83_RS26485" class="clusterblast-orf" id="dummy-1_h1_7_16"  />
</g>
<g id="a1_0017"  >
<polygon points="434,90 457,90 462,85 457,80 434,80 434,90 " style="fill:white; stroke-width:1; stroke:black; " description="&lt;b&gt;BLS83_RS26490&lt;/b&gt;&lt;br&gt;hypothetical protein&lt;br&gt;Location: 15341 - 16324" locus_tag="BLS83_RS26490" class="clusterblast-orf" id="dummy-1_h1_7_17"  />
</g>
<g id="a1_0018"  >
<polygon points="464,85 469,80 508,80 508,90 469,90 464,85 " style="fill:white; stroke-width:1; stroke:black; " description="&lt;b&gt;BLS83_RS26495&lt;/b&gt;&lt;br&gt;hypothetical protein&lt;br&gt;Location: 16412 - 17971" locus_tag="BLS83_RS26495" class="clusterblast-orf" id="dummy-1_h1_7_18"  />
</g>
<g id="a1_0019"  >
<polygon points="517,85 522,80 537,80 537,90 522,90 517,85 " style="fill:white; stroke-width:1; stroke:black; " description="&lt;b&gt;BLS83_RS26500&lt;/b&gt;&lt;br&gt;tRNA (guanosine(37)-N1)-methyltransferase TrmD&lt;br&gt;Location: 18295 - 18972" locus_tag="BLS83_RS26500" class="clusterblast-orf" id="dummy-1_h1_7_19"  />
</g>
<g id="a1_0020"  >
<polygon points="537,85 542,80 551,80 551,90 542,90 537,85 " style="fill:white; stroke-width:1; stroke:black; " description="&lt;b&gt;BLS83_RS26505&lt;/b&gt;&lt;br&gt;ribosome maturation factor RimM&lt;br&gt;Location: 18974 - 19495" locus_tag="BLS83_RS26505" class="clusterblast-orf" id="dummy-1_h1_7_20"  />
</g>
<g id="a1_0021"  >
<polygon points="551,85 556,80 558,80 558,90 556,90 551,85 " style="fill:white; stroke-width:1; stroke:black; " description="&lt;b&gt;BLS83_RS26510&lt;/b&gt;&lt;br&gt;KH domain-containing protein&lt;br&gt;Location: 19500 - 19742" locus_tag="BLS83_RS26510" class="clusterblast-orf" id="dummy-1_h1_7_21"  />
</g>
<g id="a1_0022"  >
<polygon points="558,85 563,80 571,80 571,90 563,90 558,85 " style="fill:white; stroke-width:1; stroke:black; " description="&lt;b&gt;BLS83_RS26515&lt;/b&gt;&lt;br&gt;30S ribosomal protein S16&lt;br&gt;Location: 19739 - 20194" locus_tag="BLS83_RS26515" class="clusterblast-orf" id="dummy-1_h1_7_22"  />
</g>
<g id="a1_0023"  >
<polygon points="577,85 582,80 589,80 589,90 582,90 577,85 " style="fill:white; stroke-width:1; stroke:black; " description="&lt;b&gt;BLS83_RS26520&lt;/b&gt;&lt;br&gt;nuclear transport factor 2 family protein&lt;br&gt;Location: 20405 - 20824" locus_tag="BLS83_RS26520" class="clusterblast-orf" id="dummy-1_h1_7_23"  />
</g>
<g id="a1_0024"  >
<polygon points="590,85 595,80 624,80 624,90 595,90 590,85 " style="fill:#7715d8; stroke-width:1; stroke:black; " description="&lt;b&gt;BLS83_RS26525&lt;/b&gt;&lt;br&gt;osmoprotectant NAGGN system M42 family peptidase&lt;br&gt;Location: 20844 - 22064&lt;br&gt;&lt;br&gt;&lt;b&gt;BlastP hit with ctg1_742&lt;/b&gt;&lt;br&gt;Percentage identity: 49&lt;br&gt;Percentage coverage: 91&lt;br&gt;BLAST bit score: 339&lt;br&gt;E-value: 5.1e-91" locus_tag="BLS83_RS26525" class="clusterblast-orf" id="dummy-1_h1_7_24"  />
</g>
<g id="a1_0025"  >
<polygon points="626,85 631,80 675,80 675,90 631,90 626,85 " style="fill:#d8a715; stroke-width:1; stroke:black; " description="&lt;b&gt;BLS83_RS26530&lt;/b&gt;&lt;br&gt;N-acetylglutaminylglutamine synthetase&lt;br&gt;Location: 22145 - 23875&lt;br&gt;&lt;br&gt;&lt;b&gt;BlastP hit with ctg1_743&lt;/b&gt;&lt;br&gt;Percentage identity: 50&lt;br&gt;Percentage coverage: 94&lt;br&gt;BLAST bit score: 509&lt;br&gt;E-value: 4.2e-142" locus_tag="BLS83_RS26530" class="clusterblast-orf" id="dummy-1_h1_7_25"  />
</g>
<g id="a1_0026"  >
<polygon points="675,85 680,80 726,80 726,90 680,90 675,85 " style="fill:#15d846; stroke-width:1; stroke:black; " description="&lt;b&gt;BLS83_RS26535&lt;/b&gt;&lt;br&gt;N-acetylglutaminylglutamine amidotransferase&lt;br&gt;Location: 23872 - 25674&lt;br&gt;&lt;br&gt;&lt;b&gt;BlastP hit with ctg1_744&lt;/b&gt;&lt;br&gt;Percentage identity: 58&lt;br&gt;Percentage coverage: 100&lt;br&gt;BLAST bit score: 694&lt;br&gt;E-value: 1.2e-197" locus_tag="BLS83_RS26535" class="clusterblast-orf" id="dummy-1_h1_7_26"  />
</g>
<g id="a1_0027"  >
<polygon points="730,90 749,90 754,85 749,80 730,80 730,90 " style="fill:white; stroke-width:1; stroke:black; " description="&lt;b&gt;BLS83_RS26540&lt;/b&gt;&lt;br&gt;D-alanyl-D-alanine carboxypeptidase&lt;br&gt;Location: 25788 - 26663" locus_tag="BLS83_RS26540" class="clusterblast-orf" id="dummy-1_h1_7_27"  />
</g>
<g id="a1_0028"  >
<polygon points="756,90 775,90 780,85 775,80 756,80 756,90 " style="fill:white; stroke-width:1; stroke:black; " description="&lt;b&gt;BLS83_RS26545&lt;/b&gt;&lt;br&gt;D-alanyl-D-alanine carboxypeptidase&lt;br&gt;Location: 26735 - 27550" locus_tag="BLS83_RS26545" class="clusterblast-orf" id="dummy-1_h1_7_28"  />
</g>
</svg>
