<svg xmlns="http://www.w3.org/2000/svg" xmlns:xlink="http://www.w3.org/1999/xlink" version="1.1" x="0" y="0" height="230" width="800" viewBox="0 0 800 230" preserveAspectRatio="none"  >
<g label="Query sequence" class="clusterblast-cluster"  >
<text x="5" y="20" class="clusterblast-acc"  >
Query sequence</text>
<line x1="10" y1="35" x2="778.0" y2="35" style="stroke-width:1; stroke:grey; "  />
<polygon points="199,35 204,30 208,30 208,40 204,40 199,35 " style="fill:#d81515; stroke-width:1; stroke:black; " description="&lt;b&gt;ctg5_984&lt;/b&gt;&lt;br&gt;ctg5 984&lt;br&gt;Location: 1078282 - 1078780" locus_tag="ctg5_984" class="clusterblast-orf" id="dummy-1_q0_0_all"  />
<polygon points="211,40 228,40 233,35 228,30 211,30 211,40 " style="fill:#4dd815; stroke-width:1; stroke:black; " description="&lt;b&gt;ctg5_985&lt;/b&gt;&lt;br&gt;ctg5 985&lt;br&gt;Location: 1078976 - 1080182" locus_tag="ctg5_985" class="clusterblast-orf" id="dummy-1_q1_0_all"  />
<polygon points="235,40 253,40 258,35 253,30 235,30 235,40 " style="fill:#15bcd8; stroke-width:1; stroke:black; " description="&lt;b&gt;ctg5_986&lt;/b&gt;&lt;br&gt;ctg5 986&lt;br&gt;Location: 1080254 - 1081529" locus_tag="ctg5_986" class="clusterblast-orf" id="dummy-1_q2_0_all"  />
<polygon points="258,40 270,40 275,35 270,30 258,30 258,40 " style="fill:#8515d8; stroke-width:1; stroke:black; " description="&lt;b&gt;ctg5_987&lt;/b&gt;&lt;br&gt;ctg5 987&lt;br&gt;Location: 1081540 - 1082422" locus_tag="ctg5_987" class="clusterblast-orf" id="dummy-1_q3_0_all"  />
<polygon points="275,40 289,40 294,35 289,30 275,30 275,40 " style="fill:#d84d15; stroke-width:1; stroke:black; " description="&lt;b&gt;ctg5_988&lt;/b&gt;&lt;br&gt;ctg5 988&lt;br&gt;Location: 1082438 - 1083488" locus_tag="ctg5_988" class="clusterblast-orf" id="dummy-1_q4_0_all"  />
<polygon points="295,40 303,40 308,35 303,30 295,30 295,40 " style="fill:#15d815; stroke-width:1; stroke:black; " description="&lt;b&gt;ctg5_989&lt;/b&gt;&lt;br&gt;ctg5 989&lt;br&gt;Location: 1083556 - 1084267" locus_tag="ctg5_989" class="clusterblast-orf" id="dummy-1_q5_0_all"  />
<polygon points="311,40 316,40 321,35 316,30 311,30 311,40 " style="fill:#1585d8; stroke-width:1; stroke:black; " description="&lt;b&gt;ctg5_990&lt;/b&gt;&lt;br&gt;ctg5 990&lt;br&gt;Location: 1084405 - 1084939" locus_tag="ctg5_990" class="clusterblast-orf" id="dummy-1_q6_0_all"  />
<polygon points="328,35 333,30 362,30 362,40 333,40 328,35 " style="fill:#bc15d8; stroke-width:1; stroke:black; " description="&lt;b&gt;ctg5_991&lt;/b&gt;&lt;br&gt;ctg5 991&lt;br&gt;Location: 1085357 - 1087193" locus_tag="ctg5_991" class="clusterblast-orf" id="dummy-1_q7_0_all"  />
<polygon points="362,35 367,30 376,30 376,40 367,40 362,35 " style="fill:#d88515; stroke-width:1; stroke:black; " description="&lt;b&gt;ctg5_992&lt;/b&gt;&lt;br&gt;ctg5 992&lt;br&gt;Location: 1087194 - 1087971" locus_tag="ctg5_992" class="clusterblast-orf" id="dummy-1_q8_0_all"  />
<polygon points="381,40 397,40 402,35 397,30 381,30 381,40 " style="fill:#15d84d; stroke-width:1; stroke:black; " description="&lt;b&gt;ctg5_993&lt;/b&gt;&lt;br&gt;ctg5 993&lt;br&gt;Location: 1088234 - 1089362" locus_tag="ctg5_993" class="clusterblast-orf" id="dummy-1_q9_0_all"  />
<polygon points="404,35 409,30 429,30 429,40 409,40 404,35 " style="fill:#154dd8; stroke-width:1; stroke:black; " description="&lt;b&gt;ctg5_994&lt;/b&gt;&lt;br&gt;ctg5 994&lt;br&gt;Location: 1089494 - 1090817" locus_tag="ctg5_994" class="clusterblast-orf" id="dummy-1_q10_0_all"  />
<polygon points="431,35 436,30 439,30 439,40 436,40 431,35 " style="fill:#d815bc; stroke-width:1; stroke:black; " description="&lt;b&gt;ctg5_995&lt;/b&gt;&lt;br&gt;ctg5 995&lt;br&gt;Location: 1090979 - 1091405" locus_tag="ctg5_995" class="clusterblast-orf" id="dummy-1_q11_0_all"  />
<polygon points="440,35 445,30 465,30 465,40 445,40 440,35 " style="fill:#d8bc15; stroke-width:1; stroke:black; " description="&lt;b&gt;ctg5_996&lt;/b&gt;&lt;br&gt;ctg5 996&lt;br&gt;Location: 1091450 - 1092830" locus_tag="ctg5_996" class="clusterblast-orf" id="dummy-1_q12_0_all"  />
<polygon points="466,35 471,30 482,30 482,40 471,40 466,35 " style="fill:#15d885; stroke-width:1; stroke:black; " description="&lt;b&gt;ctg5_997&lt;/b&gt;&lt;br&gt;ctg5 997&lt;br&gt;Location: 1092857 - 1093718" locus_tag="ctg5_997" class="clusterblast-orf" id="dummy-1_q13_0_all"  />
<polygon points="483,35 488,30 511,30 511,40 488,40 483,35 " style="fill:#1515d8; stroke-width:1; stroke:black; " description="&lt;b&gt;ctg5_998&lt;/b&gt;&lt;br&gt;ctg5 998&lt;br&gt;Location: 1093768 - 1095313" locus_tag="ctg5_998" class="clusterblast-orf" id="dummy-1_q14_0_all"  />
<polygon points="511,35 516,30 521,30 521,40 516,40 511,35 " style="fill:#d81585; stroke-width:1; stroke:black; " description="&lt;b&gt;ctg5_999&lt;/b&gt;&lt;br&gt;ctg5 999&lt;br&gt;Location: 1095334 - 1095871" locus_tag="ctg5_999" class="clusterblast-orf" id="dummy-1_q15_0_all"  />
<polygon points="521,35 526,30 530,30 530,40 526,40 521,35 " style="fill:#bcd815; stroke-width:1; stroke:black; " description="&lt;b&gt;ctg5_1000&lt;/b&gt;&lt;br&gt;ctg5 1000&lt;br&gt;Location: 1095883 - 1096354" locus_tag="ctg5_1000" class="clusterblast-orf" id="dummy-1_q16_0_all"  />
<polygon points="531,35 536,30 536,30 536,40 536,40 531,35 " style="fill:#15d8bc; stroke-width:1; stroke:black; " description="&lt;b&gt;ctg5_1001&lt;/b&gt;&lt;br&gt;ctg5 1001&lt;br&gt;Location: 1096410 - 1096668" locus_tag="ctg5_1001" class="clusterblast-orf" id="dummy-1_q17_0_all"  />
<polygon points="538,35 543,30 554,30 554,40 543,40 538,35 " style="fill:#4d15d8; stroke-width:1; stroke:black; " description="&lt;b&gt;ctg5_1002&lt;/b&gt;&lt;br&gt;ctg5 1002&lt;br&gt;Location: 1096802 - 1097672" locus_tag="ctg5_1002" class="clusterblast-orf" id="dummy-1_q18_0_all"  />
<polygon points="555,35 560,30 562,30 562,40 560,40 555,35 " style="fill:#d8154d; stroke-width:1; stroke:black; " description="&lt;b&gt;ctg5_1003&lt;/b&gt;&lt;br&gt;ctg5 1003&lt;br&gt;Location: 1097688 - 1098096" locus_tag="ctg5_1003" class="clusterblast-orf" id="dummy-1_q19_0_all"  />
<polygon points="565,35 570,30 581,30 581,40 570,40 565,35 " style="fill:#85d815; stroke-width:1; stroke:black; " description="&lt;b&gt;ctg5_1004&lt;/b&gt;&lt;br&gt;ctg5 1004&lt;br&gt;Location: 1098244 - 1099117" locus_tag="ctg5_1004" class="clusterblast-orf" id="dummy-1_q20_0_all"  />
</g>
<g label="NC_008027" description="NC_008027_c11: Pseudomonas entomophila str. L48 chromosome,complete sequence (39% of genes show similarity), t1pks" class="clusterblast-cluster"  >
<text x="5" y="70" class="clusterblast-acc"  >
<a xlink:href="https://antismash-db.secondarymetabolites.org/go/NC_008027/11" target="_blank">NC_008027_c11</a>: Pseudomonas entomophila str. L48 chromosome,complete sequence (39% of genes show similarity), t1pks</text>
<line x1="10" y1="85" x2="778.0" y2="85" style="stroke-width:1; stroke:grey; "  />
</g>
<g id="a1_000"  >
<polygon points="0,85 5,80 25,80 25,90 5,90 0,85 " style="fill:white; stroke-width:1; stroke:black; " description="&lt;b&gt;PSEEN_RS25545&lt;/b&gt;&lt;br&gt;NAD(P)/FAD-dependent oxidoreductase&lt;br&gt;Location: 5845435 - 5846829" locus_tag="PSEEN_RS25545" class="clusterblast-orf" id="dummy-1_h1_8_0"  />
</g>
<g id="a1_001"  >
<polygon points="25,85 30,80 31,80 31,90 30,90 25,85 " style="fill:white; stroke-width:1; stroke:black; " description="&lt;b&gt;PSEEN_RS25550&lt;/b&gt;&lt;br&gt;(2Fe-2S)-binding protein&lt;br&gt;Location: 5846826 - 5847140" locus_tag="PSEEN_RS25550" class="clusterblast-orf" id="dummy-1_h1_8_1"  />
</g>
<g id="a1_002"  >
<polygon points="36,85 41,80 47,80 47,90 41,90 36,85 " style="fill:white; stroke-width:1; stroke:black; " description="&lt;b&gt;PSEEN_RS25555&lt;/b&gt;&lt;br&gt;adenylyl-sulfate kinase&lt;br&gt;Location: 5847408 - 5848034" locus_tag="PSEEN_RS25555" class="clusterblast-orf" id="dummy-1_h1_8_2"  />
</g>
<g id="a1_003"  >
<polygon points="47,85 52,80 68,80 68,90 52,90 47,85 " style="fill:white; stroke-width:1; stroke:black; " description="&lt;b&gt;PSEEN_RS25560&lt;/b&gt;&lt;br&gt;hypothetical protein&lt;br&gt;Location: 5848050 - 5849171" locus_tag="PSEEN_RS25560" class="clusterblast-orf" id="dummy-1_h1_8_3"  />
</g>
<g id="a1_004"  >
<polygon points="68,85 73,80 104,80 104,90 73,90 68,85 " style="fill:white; stroke-width:1; stroke:black; " description="&lt;b&gt;PSEEN_RS25565&lt;/b&gt;&lt;br&gt;asparagine synthase (glutamine-hydrolyzing)&lt;br&gt;Location: 5849187 - 5851115" locus_tag="PSEEN_RS25565" class="clusterblast-orf" id="dummy-1_h1_8_4"  />
</g>
<g id="a1_005"  >
<polygon points="104,85 109,80 123,80 123,90 109,90 104,85 " style="fill:white; stroke-width:1; stroke:black; " description="&lt;b&gt;PSEEN_RS25570&lt;/b&gt;&lt;br&gt;hypothetical protein&lt;br&gt;Location: 5851115 - 5852176" locus_tag="PSEEN_RS25570" class="clusterblast-orf" id="dummy-1_h1_8_5"  />
</g>
<g id="a1_006"  >
<polygon points="122,85 127,80 189,80 189,90 127,90 122,85 " style="fill:white; stroke-width:1; stroke:black; " description="&lt;b&gt;PSEEN_RS25575&lt;/b&gt;&lt;br&gt;KR domain-containing protein&lt;br&gt;Location: 5852088 - 5855777" locus_tag="PSEEN_RS25575" class="clusterblast-orf" id="dummy-1_h1_8_6"  />
</g>
<g id="a1_007"  >
<polygon points="189,85 194,80 216,80 216,90 194,90 189,85 " style="fill:white; stroke-width:1; stroke:black; " description="&lt;b&gt;PSEEN_RS25580&lt;/b&gt;&lt;br&gt;cytochrome P450&lt;br&gt;Location: 5855789 - 5857222" locus_tag="PSEEN_RS25580" class="clusterblast-orf" id="dummy-1_h1_8_7"  />
</g>
<g id="a1_008"  >
<polygon points="216,85 221,80 253,80 253,90 221,90 216,85 " style="fill:white; stroke-width:1; stroke:black; " description="&lt;b&gt;PSEEN_RS25585&lt;/b&gt;&lt;br&gt;polyketide synthase&lt;br&gt;Location: 5857234 - 5859243" locus_tag="PSEEN_RS25585" class="clusterblast-orf" id="dummy-1_h1_8_8"  />
</g>
<g id="a1_009"  >
<polygon points="253,85 258,80 292,80 292,90 258,90 253,85 " style="fill:white; stroke-width:1; stroke:black; " description="&lt;b&gt;PSEEN_RS25840&lt;/b&gt;&lt;br&gt;polyketide synthase&lt;br&gt;Location: 5859280 - 5861391" locus_tag="PSEEN_RS25840" class="clusterblast-orf" id="dummy-1_h1_8_9"  />
</g>
<g id="a1_0010"  >
<polygon points="293,85 298,80 309,80 309,90 298,90 293,85 " style="fill:white; stroke-width:1; stroke:black; " description="&lt;b&gt;PSEEN_RS25595&lt;/b&gt;&lt;br&gt;class I SAM-dependent methyltransferase&lt;br&gt;Location: 5861418 - 5862302" locus_tag="PSEEN_RS25595" class="clusterblast-orf" id="dummy-1_h1_8_10"  />
</g>
<g id="a1_0011"  >
<polygon points="309,85 314,80 314,80 314,90 314,90 309,85 " style="fill:white; stroke-width:1; stroke:black; " description="&lt;b&gt;PSEEN_RS25600&lt;/b&gt;&lt;br&gt;acyl carrier protein&lt;br&gt;Location: 5862321 - 5862575" locus_tag="PSEEN_RS25600" class="clusterblast-orf" id="dummy-1_h1_8_11"  />
</g>
<g id="a1_0012"  >
<polygon points="314,85 319,80 331,80 331,90 319,90 314,85 " style="fill:white; stroke-width:1; stroke:black; " description="&lt;b&gt;PSEEN_RS25605&lt;/b&gt;&lt;br&gt;acyl-CoA desaturase&lt;br&gt;Location: 5862568 - 5863527" locus_tag="PSEEN_RS25605" class="clusterblast-orf" id="dummy-1_h1_8_12"  />
</g>
<g id="a1_0013"  >
<polygon points="332,85 337,80 363,80 363,90 337,90 332,85 " style="fill:white; stroke-width:1; stroke:black; " description="&lt;b&gt;PSEEN_RS25610&lt;/b&gt;&lt;br&gt;polyketide synthase&lt;br&gt;Location: 5863547 - 5865250" locus_tag="PSEEN_RS25610" class="clusterblast-orf" id="dummy-1_h1_8_13"  />
</g>
<g id="a1_0014"  >
<polygon points="364,85 369,80 414,80 414,90 369,90 364,85 " style="fill:white; stroke-width:1; stroke:black; " description="&lt;b&gt;PSEEN_RS26440&lt;/b&gt;&lt;br&gt;polyketide synthase&lt;br&gt;Location: 5865294 - 5868056" locus_tag="PSEEN_RS26440" class="clusterblast-orf" id="dummy-1_h1_8_14"  />
</g>
<g id="a1_0015"  >
<polygon points="421,85 426,80 454,80 454,90 426,90 421,85 " style="fill:#bc15d8; stroke-width:1; stroke:black; " description="&lt;b&gt;PSEEN_RS25625&lt;/b&gt;&lt;br&gt;glutamine--fructose-6-phosphate transaminase (isomerizing)&lt;br&gt;Location: 5868391 - 5870226&lt;br&gt;&lt;br&gt;&lt;b&gt;BlastP hit with ctg5_991&lt;/b&gt;&lt;br&gt;Percentage identity: 85&lt;br&gt;Percentage coverage: 100&lt;br&gt;BLAST bit score: 1014&lt;br&gt;E-value: 5.5e-294" locus_tag="PSEEN_RS25625" class="clusterblast-orf" id="dummy-1_h1_8_15"  />
</g>
<g id="a1_0016"  >
<polygon points="454,85 459,80 469,80 469,90 459,90 454,85 " style="fill:#d88515; stroke-width:1; stroke:black; " description="&lt;b&gt;PSEEN_RS25630&lt;/b&gt;&lt;br&gt;HTH domain-containing protein&lt;br&gt;Location: 5870229 - 5871005&lt;br&gt;&lt;br&gt;&lt;b&gt;BlastP hit with ctg5_992&lt;/b&gt;&lt;br&gt;Percentage identity: 87&lt;br&gt;Percentage coverage: 100&lt;br&gt;BLAST bit score: 441&lt;br&gt;E-value: 8.1e-122" locus_tag="PSEEN_RS25630" class="clusterblast-orf" id="dummy-1_h1_8_16"  />
</g>
<g id="a1_0017"  >
<polygon points="473,85 478,80 498,80 498,90 478,90 473,85 " style="fill:#154dd8; stroke-width:1; stroke:black; " description="&lt;b&gt;PSEEN_RS25635&lt;/b&gt;&lt;br&gt;bifunctional N-acetylglucosamine-1-phosphate uridyltransferase/glucosamine-1-phosphate acetyltransferase&lt;br&gt;Location: 5871264 - 5872631&lt;br&gt;&lt;br&gt;&lt;b&gt;BlastP hit with ctg5_994&lt;/b&gt;&lt;br&gt;Percentage identity: 82&lt;br&gt;Percentage coverage: 100&lt;br&gt;BLAST bit score: 673&lt;br&gt;E-value: 2.2e-191" locus_tag="PSEEN_RS25635" class="clusterblast-orf" id="dummy-1_h1_8_17"  />
</g>
<g id="a1_0018"  >
<polygon points="501,85 506,80 508,80 508,90 506,90 501,85 " style="fill:#d815bc; stroke-width:1; stroke:black; " description="&lt;b&gt;PSEEN_RS25640&lt;/b&gt;&lt;br&gt;ATP synthase epsilon chain&lt;br&gt;Location: 5872754 - 5873173&lt;br&gt;&lt;br&gt;&lt;b&gt;BlastP hit with ctg5_995&lt;/b&gt;&lt;br&gt;Percentage identity: 86&lt;br&gt;Percentage coverage: 97&lt;br&gt;BLAST bit score: 228&lt;br&gt;E-value: 3.4e-58" locus_tag="PSEEN_RS25640" class="clusterblast-orf" id="dummy-1_h1_8_18"  />
</g>
<g id="a1_0019"  >
<polygon points="509,85 514,80 534,80 534,90 514,90 509,85 " style="fill:#d8bc15; stroke-width:1; stroke:black; " description="&lt;b&gt;PSEEN_RS25645&lt;/b&gt;&lt;br&gt;ATP synthase subunit beta&lt;br&gt;Location: 5873218 - 5874594&lt;br&gt;&lt;br&gt;&lt;b&gt;BlastP hit with ctg5_996&lt;/b&gt;&lt;br&gt;Percentage identity: 94&lt;br&gt;Percentage coverage: 100&lt;br&gt;BLAST bit score: 843&lt;br&gt;E-value: 1.3e-242" locus_tag="PSEEN_RS25645" class="clusterblast-orf" id="dummy-1_h1_8_19"  />
</g>
<g id="a1_0020"  >
<polygon points="535,85 540,80 551,80 551,90 540,90 535,85 " style="fill:#15d885; stroke-width:1; stroke:black; " description="&lt;b&gt;PSEEN_RS25650&lt;/b&gt;&lt;br&gt;ATP synthase subunit gamma&lt;br&gt;Location: 5874622 - 5875482&lt;br&gt;&lt;br&gt;&lt;b&gt;BlastP hit with ctg5_997&lt;/b&gt;&lt;br&gt;Percentage identity: 95&lt;br&gt;Percentage coverage: 100&lt;br&gt;BLAST bit score: 524&lt;br&gt;E-value: 8e-147" locus_tag="PSEEN_RS25650" class="clusterblast-orf" id="dummy-1_h1_8_20"  />
</g>
<g id="a1_0021"  >
<polygon points="552,85 557,80 580,80 580,90 557,90 552,85 " style="fill:#1515d8; stroke-width:1; stroke:black; " description="&lt;b&gt;PSEEN_RS25655&lt;/b&gt;&lt;br&gt;ATP synthase subunit alpha&lt;br&gt;Location: 5875531 - 5877075&lt;br&gt;&lt;br&gt;&lt;b&gt;BlastP hit with ctg5_998&lt;/b&gt;&lt;br&gt;Percentage identity: 96&lt;br&gt;Percentage coverage: 100&lt;br&gt;BLAST bit score: 964&lt;br&gt;E-value: 5.5e-279" locus_tag="PSEEN_RS25655" class="clusterblast-orf" id="dummy-1_h1_8_21"  />
</g>
<g id="a1_0022"  >
<polygon points="580,85 585,80 590,80 590,90 585,90 580,85 " style="fill:#d81585; stroke-width:1; stroke:black; " description="&lt;b&gt;PSEEN_RS25660&lt;/b&gt;&lt;br&gt;ATP synthase subunit delta&lt;br&gt;Location: 5877097 - 5877633&lt;br&gt;&lt;br&gt;&lt;b&gt;BlastP hit with ctg5_999&lt;/b&gt;&lt;br&gt;Percentage identity: 88&lt;br&gt;Percentage coverage: 100&lt;br&gt;BLAST bit score: 294&lt;br&gt;E-value: 1.1e-77" locus_tag="PSEEN_RS25660" class="clusterblast-orf" id="dummy-1_h1_8_22"  />
</g>
<g id="a1_0023"  >
<polygon points="590,85 595,80 599,80 599,90 595,90 590,85 " style="fill:#bcd815; stroke-width:1; stroke:black; " description="&lt;b&gt;PSEEN_RS25665&lt;/b&gt;&lt;br&gt;ATP synthase subunit B&lt;br&gt;Location: 5877646 - 5878116&lt;br&gt;&lt;br&gt;&lt;b&gt;BlastP hit with ctg5_1000&lt;/b&gt;&lt;br&gt;Percentage identity: 90&lt;br&gt;Percentage coverage: 100&lt;br&gt;BLAST bit score: 156&lt;br&gt;E-value: 3.1e-36" locus_tag="PSEEN_RS25665" class="clusterblast-orf" id="dummy-1_h1_8_23"  />
</g>
<g id="a1_0024"  >
<polygon points="600,85 605,80 605,80 605,90 605,90 600,85 " style="fill:#15d8bc; stroke-width:1; stroke:black; " description="&lt;b&gt;PSEEN_RS25670&lt;/b&gt;&lt;br&gt;ATP synthase subunit C&lt;br&gt;Location: 5878174 - 5878431&lt;br&gt;&lt;br&gt;&lt;b&gt;BlastP hit with ctg5_1001&lt;/b&gt;&lt;br&gt;Percentage identity: 99&lt;br&gt;Percentage coverage: 100&lt;br&gt;BLAST bit score: 154&lt;br&gt;E-value: 6.5e-36" locus_tag="PSEEN_RS25670" class="clusterblast-orf" id="dummy-1_h1_8_24"  />
</g>
<g id="a1_0025"  >
<polygon points="607,85 612,80 623,80 623,90 612,90 607,85 " style="fill:#4d15d8; stroke-width:1; stroke:black; " description="&lt;b&gt;PSEEN_RS25675&lt;/b&gt;&lt;br&gt;ATP synthase subunit A&lt;br&gt;Location: 5878575 - 5879444&lt;br&gt;&lt;br&gt;&lt;b&gt;BlastP hit with ctg5_1002&lt;/b&gt;&lt;br&gt;Percentage identity: 81&lt;br&gt;Percentage coverage: 100&lt;br&gt;BLAST bit score: 477&lt;br&gt;E-value: 8.7e-133" locus_tag="PSEEN_RS25675" class="clusterblast-orf" id="dummy-1_h1_8_25"  />
</g>
<g id="a1_0026"  >
<polygon points="624,85 629,80 631,80 631,90 629,90 624,85 " style="fill:#d8154d; stroke-width:1; stroke:black; " description="&lt;b&gt;PSEEN_RS25680&lt;/b&gt;&lt;br&gt;F0F1 ATP synthase subunit I&lt;br&gt;Location: 5879461 - 5879868&lt;br&gt;&lt;br&gt;&lt;b&gt;BlastP hit with ctg5_1003&lt;/b&gt;&lt;br&gt;Percentage identity: 87&lt;br&gt;Percentage coverage: 100&lt;br&gt;BLAST bit score: 227&lt;br&gt;E-value: 7.3e-58" locus_tag="PSEEN_RS25680" class="clusterblast-orf" id="dummy-1_h1_8_26"  />
</g>
<g id="a1_0027"  >
<polygon points="634,85 639,80 650,80 650,90 639,90 634,85 " style="fill:#85d815; stroke-width:1; stroke:black; " description="&lt;b&gt;PSEEN_RS25685&lt;/b&gt;&lt;br&gt;chromosome partitioning protein ParB&lt;br&gt;Location: 5880018 - 5880890&lt;br&gt;&lt;br&gt;&lt;b&gt;BlastP hit with ctg5_1004&lt;/b&gt;&lt;br&gt;Percentage identity: 86&lt;br&gt;Percentage coverage: 100&lt;br&gt;BLAST bit score: 487&lt;br&gt;E-value: 1.4e-135" locus_tag="PSEEN_RS25685" class="clusterblast-orf" id="dummy-1_h1_8_27"  />
</g>
<g id="a1_0028"  >
<polygon points="650,85 655,80 665,80 665,90 655,90 650,85 " style="fill:white; stroke-width:1; stroke:black; " description="&lt;b&gt;PSEEN_RS25690&lt;/b&gt;&lt;br&gt;ParA family protein&lt;br&gt;Location: 5880900 - 5881691" locus_tag="PSEEN_RS25690" class="clusterblast-orf" id="dummy-1_h1_8_28"  />
</g>
<g id="a1_0029"  >
<polygon points="665,85 670,80 677,80 677,90 670,90 665,85 " style="fill:white; stroke-width:1; stroke:black; " description="&lt;b&gt;PSEEN_RS25695&lt;/b&gt;&lt;br&gt;ribosomal RNA small subunit methyltransferase G&lt;br&gt;Location: 5881710 - 5882360" locus_tag="PSEEN_RS25695" class="clusterblast-orf" id="dummy-1_h1_8_29"  />
</g>
<g id="a1_0030"  >
<polygon points="677,85 682,80 711,80 711,90 682,90 677,85 " style="fill:white; stroke-width:1; stroke:black; " description="&lt;b&gt;PSEEN_RS25700&lt;/b&gt;&lt;br&gt;tRNA uridine-5-carboxymethylaminomethyl(34) synthesis enzyme MnmG&lt;br&gt;Location: 5882357 - 5884249" locus_tag="PSEEN_RS25700" class="clusterblast-orf" id="dummy-1_h1_8_30"  />
</g>
<g id="a1_0031"  >
<polygon points="722,85 727,80 747,80 747,90 727,90 722,85 " style="fill:white; stroke-width:1; stroke:black; " description="&lt;b&gt;PSEEN_RS25705&lt;/b&gt;&lt;br&gt;tRNA uridine-5-carboxymethylaminomethyl(34) synthesis GTPase MnmE&lt;br&gt;Location: 5884816 - 5886186" locus_tag="PSEEN_RS25705" class="clusterblast-orf" id="dummy-1_h1_8_31"  />
</g>
<g id="a1_0032"  >
<polygon points="749,85 754,80 780,80 780,90 754,90 749,85 " style="fill:white; stroke-width:1; stroke:black; " description="&lt;b&gt;PSEEN_RS25710&lt;/b&gt;&lt;br&gt;membrane protein insertase YidC&lt;br&gt;Location: 5886274 - 5887959" locus_tag="PSEEN_RS25710" class="clusterblast-orf" id="dummy-1_h1_8_32"  />
</g>
</svg>
