<svg xmlns="http://www.w3.org/2000/svg" xmlns:xlink="http://www.w3.org/1999/xlink" version="1.1" x="0" y="0" height="230" width="800" viewBox="0 0 800 230" preserveAspectRatio="none"  >
<g label="Query sequence" class="clusterblast-cluster"  >
<text x="5" y="20" class="clusterblast-acc"  >
Query sequence</text>
<line x1="10" y1="35" x2="778.0" y2="35" style="stroke-width:1; stroke:grey; "  />
<polygon points="255,40 291,40 296,35 291,30 255,30 255,40 " style="fill:white; stroke-width:1; stroke:black; " description="&lt;b&gt;ctg1_736&lt;/b&gt;&lt;br&gt;ctg1 736&lt;br&gt;Location: 811806 - 813900" locus_tag="ctg1_736" class="clusterblast-orf" id="dummy-1_q0_0_all"  />
<polygon points="298,35 301,30 301,40 298,35 " style="fill:white; stroke-width:1; stroke:black; " description="&lt;b&gt;ctg1_737&lt;/b&gt;&lt;br&gt;ctg1 737&lt;br&gt;Location: 813962 - 814115" locus_tag="ctg1_737" class="clusterblast-orf" id="dummy-1_q1_0_all"  />
<polygon points="309,40 320,40 325,35 320,30 309,30 309,40 " style="fill:#d81515; stroke-width:1; stroke:black; " description="&lt;b&gt;ctg1_738&lt;/b&gt;&lt;br&gt;ctg1 738&lt;br&gt;Location: 814519 - 815335" locus_tag="ctg1_738" class="clusterblast-orf" id="dummy-1_q2_0_all"  />
<polygon points="326,40 328,40 333,35 328,30 326,30 326,40 " style="fill:white; stroke-width:1; stroke:black; " description="&lt;b&gt;ctg1_739&lt;/b&gt;&lt;br&gt;ctg1 739&lt;br&gt;Location: 815399 - 815732" locus_tag="ctg1_739" class="clusterblast-orf" id="dummy-1_q3_0_all"  />
<polygon points="336,40 340,35 336,30 336,40 " style="fill:#77d815; stroke-width:1; stroke:black; " description="&lt;b&gt;ctg1_740&lt;/b&gt;&lt;br&gt;ctg1 740&lt;br&gt;Location: 815885 - 816071" locus_tag="ctg1_740" class="clusterblast-orf" id="dummy-1_q4_0_all"  />
<polygon points="340,35 344,30 344,40 340,35 " style="fill:#15d8d8; stroke-width:1; stroke:black; " description="&lt;b&gt;ctg1_741&lt;/b&gt;&lt;br&gt;ctg1 741&lt;br&gt;Location: 816076 - 816304" locus_tag="ctg1_741" class="clusterblast-orf" id="dummy-1_q5_0_all"  />
<polygon points="348,35 353,30 372,30 372,40 353,40 348,35 " style="fill:#7715d8; stroke-width:1; stroke:black; " description="&lt;b&gt;ctg1_742&lt;/b&gt;&lt;br&gt;ctg1 742&lt;br&gt;Location: 816493 - 817684" locus_tag="ctg1_742" class="clusterblast-orf" id="dummy-1_q6_0_all"  />
<polygon points="375,35 380,30 410,30 410,40 380,40 375,35 " style="fill:#d8a715; stroke-width:1; stroke:black; " description="&lt;b&gt;ctg1_743&lt;/b&gt;&lt;br&gt;ctg1 743&lt;br&gt;Location: 817849 - 819598" locus_tag="ctg1_743" class="clusterblast-orf" id="dummy-1_q7_0_all"  />
<polygon points="410,35 415,30 445,30 445,40 415,40 410,35 " style="fill:#15d846; stroke-width:1; stroke:black; " description="&lt;b&gt;ctg1_744&lt;/b&gt;&lt;br&gt;ctg1 744&lt;br&gt;Location: 819601 - 821374" locus_tag="ctg1_744" class="clusterblast-orf" id="dummy-1_q8_0_all"  />
<polygon points="450,35 455,30 489,30 489,40 455,40 450,35 " style="fill:#1546d8; stroke-width:1; stroke:black; " description="&lt;b&gt;ctg1_745&lt;/b&gt;&lt;br&gt;ctg1 745&lt;br&gt;Location: 821636 - 823616" locus_tag="ctg1_745" class="clusterblast-orf" id="dummy-1_q9_0_all"  />
<polygon points="494,40 520,40 525,35 520,30 494,30 494,40 " style="fill:#d815a7; stroke-width:1; stroke:black; " description="&lt;b&gt;ctg1_746&lt;/b&gt;&lt;br&gt;ctg1 746&lt;br&gt;Location: 823868 - 825383" locus_tag="ctg1_746" class="clusterblast-orf" id="dummy-1_q10_0_all"  />
</g>
<g label="NZ_KB899497" description="NZ_KB899497_c3: Azoarcus toluclasticus ATCC 700605 strain MF63 F464DRAFT scaf... (10% of genes show similarity), other" class="clusterblast-cluster"  >
<text x="5" y="70" class="clusterblast-acc"  >
<a xlink:href="https://antismash-db.secondarymetabolites.org/go/NZ_KB899497/3" target="_blank">NZ_KB899497_c3</a>: Azoarcus toluclasticus ATCC 700605 strain MF63 F464DRAFT scaf... (10% of genes show similarity), other</text>
<line x1="10" y1="85" x2="778.0" y2="85" style="stroke-width:1; stroke:grey; "  />
</g>
<g id="a1_000"  >
<polygon points="0,90 13,90 18,85 13,80 0,80 0,90 " style="fill:white; stroke-width:1; stroke:black; " description="&lt;b&gt;F464_RS0113485&lt;/b&gt;&lt;br&gt;hypothetical protein&lt;br&gt;Location: 124137 - 123187" locus_tag="F464_RS0113485" class="clusterblast-orf" id="dummy-1_h1_3_0"  />
</g>
<g id="a1_001"  >
<polygon points="22,90 33,90 38,85 33,80 22,80 22,90 " style="fill:white; stroke-width:1; stroke:black; " description="&lt;b&gt;F464_RS0113480&lt;/b&gt;&lt;br&gt;hypothetical protein&lt;br&gt;Location: 122981 - 122187" locus_tag="F464_RS0113480" class="clusterblast-orf" id="dummy-1_h1_3_1"  />
</g>
<g id="a1_002"  >
<polygon points="39,90 149,90 154,85 149,80 39,80 39,90 " style="fill:white; stroke-width:1; stroke:black; " description="&lt;b&gt;F464_RS0113475&lt;/b&gt;&lt;br&gt;CHAT domain-containing protein&lt;br&gt;Location: 122126 - 116343" locus_tag="F464_RS0113475" class="clusterblast-orf" id="dummy-1_h1_3_2"  />
</g>
<g id="a1_003"  >
<polygon points="157,90 163,90 168,85 163,80 157,80 157,90 " style="fill:white; stroke-width:1; stroke:black; " description="&lt;b&gt;F464_RS0113470&lt;/b&gt;&lt;br&gt;hypothetical protein&lt;br&gt;Location: 116208 - 115639" locus_tag="F464_RS0113470" class="clusterblast-orf" id="dummy-1_h1_3_3"  />
</g>
<g id="a1_004"  >
<polygon points="171,90 175,90 180,85 175,80 171,80 171,90 " style="fill:white; stroke-width:1; stroke:black; " description="&lt;b&gt;F464_RS0113465&lt;/b&gt;&lt;br&gt;Hsp20/alpha crystallin family protein&lt;br&gt;Location: 115489 - 115049" locus_tag="F464_RS0113465" class="clusterblast-orf" id="dummy-1_h1_3_4"  />
</g>
<g id="a1_005"  >
<polygon points="180,90 183,90 188,85 183,80 180,80 180,90 " style="fill:white; stroke-width:1; stroke:black; " description="&lt;b&gt;F464_RS0113460&lt;/b&gt;&lt;br&gt;Hsp20/alpha crystallin family protein&lt;br&gt;Location: 115035 - 114655" locus_tag="F464_RS0113460" class="clusterblast-orf" id="dummy-1_h1_3_5"  />
</g>
<g id="a1_006"  >
<polygon points="194,90 205,90 210,85 205,80 194,80 194,90 " style="fill:white; stroke-width:1; stroke:black; " description="&lt;b&gt;F464_RS0113455&lt;/b&gt;&lt;br&gt;mechanosensitive ion channel family protein&lt;br&gt;Location: 114340 - 113519" locus_tag="F464_RS0113455" class="clusterblast-orf" id="dummy-1_h1_3_6"  />
</g>
<g id="a1_007"  >
<polygon points="211,85 216,80 216,80 216,90 216,90 211,85 " style="fill:white; stroke-width:1; stroke:black; " description="&lt;b&gt;F464_RS0113450&lt;/b&gt;&lt;br&gt;acyl carrier protein&lt;br&gt;Location: 113505 - 113254" locus_tag="F464_RS0113450" class="clusterblast-orf" id="dummy-1_h1_3_7"  />
</g>
<g id="a1_008"  >
<polygon points="216,85 221,80 240,80 240,90 221,90 216,85 " style="fill:white; stroke-width:1; stroke:black; " description="&lt;b&gt;F464_RS0113445&lt;/b&gt;&lt;br&gt;2-oxo acid dehydrogenase subunit E2&lt;br&gt;Location: 113217 - 112048" locus_tag="F464_RS0113445" class="clusterblast-orf" id="dummy-1_h1_3_8"  />
</g>
<g id="a1_009"  >
<polygon points="240,85 245,80 259,80 259,90 245,90 240,85 " style="fill:white; stroke-width:1; stroke:black; " description="&lt;b&gt;F464_RS0113440&lt;/b&gt;&lt;br&gt;alpha-ketoacid dehydrogenase subunit beta&lt;br&gt;Location: 112055 - 111072" locus_tag="F464_RS0113440" class="clusterblast-orf" id="dummy-1_h1_3_9"  />
</g>
<g id="a1_0010"  >
<polygon points="259,85 264,80 279,80 279,90 264,90 259,85 " style="fill:white; stroke-width:1; stroke:black; " description="&lt;b&gt;F464_RS0113435&lt;/b&gt;&lt;br&gt;pyruvate dehydrogenase (acetyl-transferring) E1 component subunit alpha&lt;br&gt;Location: 111075 - 110083" locus_tag="F464_RS0113435" class="clusterblast-orf" id="dummy-1_h1_3_10"  />
</g>
<g id="a1_0011"  >
<polygon points="279,85 284,80 314,80 314,90 284,90 279,85 " style="fill:white; stroke-width:1; stroke:black; " description="&lt;b&gt;F464_RS0113430&lt;/b&gt;&lt;br&gt;acetate--CoA ligase&lt;br&gt;Location: 110068 - 108302" locus_tag="F464_RS0113430" class="clusterblast-orf" id="dummy-1_h1_3_11"  />
</g>
<g id="a1_0012"  >
<polygon points="323,90 330,90 335,85 330,80 323,80 323,90 " style="fill:white; stroke-width:1; stroke:black; " description="&lt;b&gt;F464_RS0113420&lt;/b&gt;&lt;br&gt;hypothetical protein&lt;br&gt;Location: 107882 - 107229" locus_tag="F464_RS0113420" class="clusterblast-orf" id="dummy-1_h1_3_12"  />
</g>
<g id="a1_0013"  >
<polygon points="337,90 387,90 392,85 387,80 337,80 337,90 " style="fill:white; stroke-width:1; stroke:black; " description="&lt;b&gt;F464_RS0113415&lt;/b&gt;&lt;br&gt;hypothetical protein&lt;br&gt;Location: 107169 - 104383" locus_tag="F464_RS0113415" class="clusterblast-orf" id="dummy-1_h1_3_13"  />
</g>
<g id="a1_0014"  >
<polygon points="392,85 397,80 410,80 410,90 397,90 392,85 " style="fill:white; stroke-width:1; stroke:black; " description="&lt;b&gt;F464_RS0113410&lt;/b&gt;&lt;br&gt;LysR family transcriptional regulator&lt;br&gt;Location: 104382 - 103483" locus_tag="F464_RS0113410" class="clusterblast-orf" id="dummy-1_h1_3_14"  />
</g>
<g id="a1_0015"  >
<polygon points="413,90 430,90 435,85 430,80 413,80 413,90 " style="fill:white; stroke-width:1; stroke:black; " description="&lt;b&gt;F464_RS0113405&lt;/b&gt;&lt;br&gt;S-(hydroxymethyl)glutathione dehydrogenase/class III alcohol dehydrogenase&lt;br&gt;Location: 103339 - 102224" locus_tag="F464_RS0113405" class="clusterblast-orf" id="dummy-1_h1_3_15"  />
</g>
<g id="a1_0016"  >
<polygon points="435,90 447,90 452,85 447,80 435,80 435,90 " style="fill:white; stroke-width:1; stroke:black; " description="&lt;b&gt;F464_RS0113400&lt;/b&gt;&lt;br&gt;S-formylglutathione hydrolase&lt;br&gt;Location: 102204 - 101359" locus_tag="F464_RS0113400" class="clusterblast-orf" id="dummy-1_h1_3_16"  />
</g>
<g id="a1_0017"  >
<polygon points="454,90 482,90 487,85 482,80 454,80 454,90 " style="fill:white; stroke-width:1; stroke:black; " description="&lt;b&gt;F464_RS0113395&lt;/b&gt;&lt;br&gt;MFS transporter&lt;br&gt;Location: 101250 - 99625" locus_tag="F464_RS0113395" class="clusterblast-orf" id="dummy-1_h1_3_17"  />
</g>
<g id="a1_0018"  >
<polygon points="496,90 514,90 519,85 514,80 496,80 496,90 " style="fill:white; stroke-width:1; stroke:black; " description="&lt;b&gt;F464_RS0113380&lt;/b&gt;&lt;br&gt;exonuclease SbcCD subunit D&lt;br&gt;Location: 99129 - 97975" locus_tag="F464_RS0113380" class="clusterblast-orf" id="dummy-1_h1_3_18"  />
</g>
<g id="a1_0019"  >
<polygon points="519,90 575,90 580,85 575,80 519,80 519,90 " style="fill:white; stroke-width:1; stroke:black; " description="&lt;b&gt;F464_RS0113375&lt;/b&gt;&lt;br&gt;SMC family ATPase&lt;br&gt;Location: 97978 - 94916" locus_tag="F464_RS0113375" class="clusterblast-orf" id="dummy-1_h1_3_19"  />
</g>
<g id="a1_0020"  >
<polygon points="581,85 586,80 604,80 604,90 586,90 581,85 " style="fill:white; stroke-width:1; stroke:black; " description="&lt;b&gt;F464_RS0113370&lt;/b&gt;&lt;br&gt;mechanosensitive ion channel family protein&lt;br&gt;Location: 94858 - 93737" locus_tag="F464_RS0113370" class="clusterblast-orf" id="dummy-1_h1_3_20"  />
</g>
<g id="a1_0021"  >
<polygon points="604,85 609,80 626,80 626,90 609,90 604,85 " style="fill:#7715d8; stroke-width:1; stroke:black; " description="&lt;b&gt;F464_RS28475&lt;/b&gt;&lt;br&gt;osmoprotectant NAGGN system M42 family peptidase&lt;br&gt;Location: 93740 - 92592&lt;br&gt;&lt;br&gt;&lt;b&gt;BlastP hit with ctg1_742&lt;/b&gt;&lt;br&gt;Percentage identity: 57&lt;br&gt;Percentage coverage: 91&lt;br&gt;BLAST bit score: 413&lt;br&gt;E-value: 2.8e-113" locus_tag="F464_RS28475" class="clusterblast-orf" id="dummy-1_h1_3_21"  />
</g>
<g id="a1_0022"  >
<polygon points="626,85 631,80 661,80 661,90 631,90 626,85 " style="fill:#d8a715; stroke-width:1; stroke:black; " description="&lt;b&gt;F464_RS0113360&lt;/b&gt;&lt;br&gt;N-acetylglutaminylglutamine synthetase&lt;br&gt;Location: 92602 - 90833&lt;br&gt;&lt;br&gt;&lt;b&gt;BlastP hit with ctg1_743&lt;/b&gt;&lt;br&gt;Percentage identity: 55&lt;br&gt;Percentage coverage: 93&lt;br&gt;BLAST bit score: 556&lt;br&gt;E-value: 3.9e-156" locus_tag="F464_RS0113360" class="clusterblast-orf" id="dummy-1_h1_3_22"  />
</g>
<g id="a1_0023"  >
<polygon points="662,85 667,80 697,80 697,90 667,90 662,85 " style="fill:#15d846; stroke-width:1; stroke:black; " description="&lt;b&gt;F464_RS0113355&lt;/b&gt;&lt;br&gt;N-acetylglutaminylglutamine amidotransferase&lt;br&gt;Location: 90816 - 89038&lt;br&gt;&lt;br&gt;&lt;b&gt;BlastP hit with ctg1_744&lt;/b&gt;&lt;br&gt;Percentage identity: 57&lt;br&gt;Percentage coverage: 101&lt;br&gt;BLAST bit score: 682&lt;br&gt;E-value: 3.6e-194" locus_tag="F464_RS0113355" class="clusterblast-orf" id="dummy-1_h1_3_23"  />
</g>
<g id="a1_0024"  >
<polygon points="700,85 705,80 709,80 709,90 705,90 700,85 " style="fill:white; stroke-width:1; stroke:black; " description="&lt;b&gt;F464_RS0113350&lt;/b&gt;&lt;br&gt;NUDIX domain-containing protein&lt;br&gt;Location: 88901 - 88425" locus_tag="F464_RS0113350" class="clusterblast-orf" id="dummy-1_h1_3_24"  />
</g>
<g id="a1_0025"  >
<polygon points="712,90 714,90 719,85 714,80 712,80 712,90 " style="fill:white; stroke-width:1; stroke:black; " description="&lt;b&gt;F464_RS0113345&lt;/b&gt;&lt;br&gt;hypothetical protein&lt;br&gt;Location: 88298 - 87933" locus_tag="F464_RS0113345" class="clusterblast-orf" id="dummy-1_h1_3_25"  />
</g>
<g id="a1_0026"  >
<polygon points="720,85 725,80 728,80 728,90 725,90 720,85 " style="fill:white; stroke-width:1; stroke:black; " description="&lt;b&gt;F464_RS0113340&lt;/b&gt;&lt;br&gt;aminoacyl-tRNA hydrolase&lt;br&gt;Location: 87878 - 87474" locus_tag="F464_RS0113340" class="clusterblast-orf" id="dummy-1_h1_3_26"  />
</g>
<g id="a1_0027"  >
<polygon points="728,85 733,80 745,80 745,90 733,90 728,85 " style="fill:white; stroke-width:1; stroke:black; " description="&lt;b&gt;F464_RS0113335&lt;/b&gt;&lt;br&gt;RIO1 family serine kinase&lt;br&gt;Location: 87455 - 86601" locus_tag="F464_RS0113335" class="clusterblast-orf" id="dummy-1_h1_3_27"  />
</g>
<g id="a1_0028"  >
<polygon points="750,90 754,85 750,80 750,90 " style="fill:white; stroke-width:1; stroke:black; " description="&lt;b&gt;F464_RS0113330&lt;/b&gt;&lt;br&gt;IS5/IS1182 family transposase&lt;br&gt;Location: 86360 - 86165" locus_tag="F464_RS0113330" class="clusterblast-orf" id="dummy-1_h1_3_28"  />
</g>
<g id="a1_0029"  >
<polygon points="758,85 763,80 780,80 780,90 763,90 758,85 " style="fill:white; stroke-width:1; stroke:black; " description="&lt;b&gt;F464_RS0113320&lt;/b&gt;&lt;br&gt;threonylcarbamoyl-AMP synthase&lt;br&gt;Location: 85943 - 84885" locus_tag="F464_RS0113320" class="clusterblast-orf" id="dummy-1_h1_3_29"  />
</g>
</svg>
