<svg xmlns="http://www.w3.org/2000/svg" xmlns:xlink="http://www.w3.org/1999/xlink" version="1.1" x="0" y="0" height="230" width="800" viewBox="0 0 800 230" preserveAspectRatio="none"  >
<g label="Query sequence" class="clusterblast-cluster"  >
<text x="5" y="20" class="clusterblast-acc"  >
Query sequence</text>
<line x1="10" y1="35" x2="778.0" y2="35" style="stroke-width:1; stroke:grey; "  />
<polygon points="0,40 29,40 34,35 29,30 0,30 0,40 " style="fill:#d81515; stroke-width:1; stroke:black; " description="&lt;b&gt;ctg3_1885&lt;/b&gt;&lt;br&gt;ctg3 1885&lt;br&gt;Location: 2244699 - 2245152" locus_tag="ctg3_1885" class="clusterblast-orf" id="dummy-3_q0_0_all"  />
<polygon points="41,40 70,40 75,35 70,30 41,30 41,40 " style="fill:#d81515; stroke-width:1; stroke:black; " description="&lt;b&gt;ctg3_1886&lt;/b&gt;&lt;br&gt;ctg3 1886&lt;br&gt;Location: 2245255 - 2245708" locus_tag="ctg3_1886" class="clusterblast-orf" id="dummy-3_q1_0_all"  />
<polygon points="86,40 115,40 120,35 115,30 86,30 86,40 " style="fill:#77d815; stroke-width:1; stroke:black; " description="&lt;b&gt;ctg3_1887&lt;/b&gt;&lt;br&gt;ctg3 1887&lt;br&gt;Location: 2245857 - 2246316" locus_tag="ctg3_1887" class="clusterblast-orf" id="dummy-3_q2_0_all"  />
<polygon points="120,40 140,40 145,35 140,30 120,30 120,40 " style="fill:#15d8d8; stroke-width:1; stroke:black; " description="&lt;b&gt;ctg3_1888&lt;/b&gt;&lt;br&gt;ctg3 1888&lt;br&gt;Location: 2246312 - 2246654" locus_tag="ctg3_1888" class="clusterblast-orf" id="dummy-3_q3_0_all"  />
<polygon points="143,35 148,30 213,30 213,40 148,40 143,35 " style="fill:#7715d8; stroke-width:1; stroke:black; " description="&lt;b&gt;ctg3_1889&lt;/b&gt;&lt;br&gt;ctg3 1889&lt;br&gt;Location: 2246623 - 2247562" locus_tag="ctg3_1889" class="clusterblast-orf" id="dummy-3_q4_0_all"  />
<polygon points="218,40 279,40 284,35 279,30 218,30 218,40 " style="fill:#d87715; stroke-width:1; stroke:black; " description="&lt;b&gt;ctg3_1890&lt;/b&gt;&lt;br&gt;ctg3 1890&lt;br&gt;Location: 2247630 - 2248518" locus_tag="ctg3_1890" class="clusterblast-orf" id="dummy-3_q5_0_all"  />
<polygon points="293,35 298,30 349,30 349,40 298,40 293,35 " style="fill:#15d815; stroke-width:1; stroke:black; " description="&lt;b&gt;ctg3_1891&lt;/b&gt;&lt;br&gt;ctg3 1891&lt;br&gt;Location: 2248647 - 2249406" locus_tag="ctg3_1891" class="clusterblast-orf" id="dummy-3_q6_0_all"  />
<polygon points="349,35 354,30 411,30 411,40 354,40 349,35 " style="fill:#1577d8; stroke-width:1; stroke:black; " description="&lt;b&gt;ctg3_1892&lt;/b&gt;&lt;br&gt;ctg3 1892&lt;br&gt;Location: 2249398 - 2250238" locus_tag="ctg3_1892" class="clusterblast-orf" id="dummy-3_q7_0_all"  />
<polygon points="416,35 421,30 431,30 431,40 421,40 416,35 " style="fill:#d815d8; stroke-width:1; stroke:black; " description="&lt;b&gt;ctg3_1893&lt;/b&gt;&lt;br&gt;ctg3 1893&lt;br&gt;Location: 2250300 - 2250507" locus_tag="ctg3_1893" class="clusterblast-orf" id="dummy-3_q8_0_all"  />
<polygon points="445,35 450,30 544,30 544,40 450,40 445,35 " style="fill:#d8d815; stroke-width:1; stroke:black; " description="&lt;b&gt;ctg3_1894&lt;/b&gt;&lt;br&gt;ctg3 1894&lt;br&gt;Location: 2250689 - 2252024" locus_tag="ctg3_1894" class="clusterblast-orf" id="dummy-3_q9_0_all"  />
<polygon points="568,35 573,30 637,30 637,40 573,40 568,35 " style="fill:#15d877; stroke-width:1; stroke:black; " description="&lt;b&gt;ctg3_1895&lt;/b&gt;&lt;br&gt;ctg3 1895&lt;br&gt;Location: 2252354 - 2253278" locus_tag="ctg3_1895" class="clusterblast-orf" id="dummy-3_q10_0_all"  />
<polygon points="653,35 658,30 731,30 731,40 658,40 653,35 " style="fill:#1515d8; stroke-width:1; stroke:black; " description="&lt;b&gt;ctg3_1896&lt;/b&gt;&lt;br&gt;ctg3 1896&lt;br&gt;Location: 2253502 - 2254546" locus_tag="ctg3_1896" class="clusterblast-orf" id="dummy-3_q11_0_all"  />
<polygon points="747,40 775,40 780,35 775,30 747,30 747,40 " style="fill:#d81577; stroke-width:1; stroke:black; " description="&lt;b&gt;ctg3_1897&lt;/b&gt;&lt;br&gt;ctg3 1897&lt;br&gt;Location: 2254762 - 2255212" locus_tag="ctg3_1897" class="clusterblast-orf" id="dummy-3_q12_0_all"  />
</g>
<g label="NZ_FMUZ01000025" description="NZ_FMUZ01000025_c19: Pseudomonas sp. NFACC37-1, whole genome shotgun sequence (33% of genes show similarity), bacteriocin" class="clusterblast-cluster"  >
<text x="5" y="70" class="clusterblast-acc"  >
<a xlink:href="https://antismash-db.secondarymetabolites.org/go/NZ_FMUZ01000025/19" target="_blank">NZ_FMUZ01000025_c19</a>: Pseudomonas sp. NFACC37-1, whole genome shotgun sequence (33% of genes show similarity), bacteriocin</text>
<line x1="10" y1="85" x2="778.0" y2="85" style="stroke-width:1; stroke:grey; "  />
</g>
<g id="a3_000"  >
<polygon points="85,85 90,80 104,80 104,90 90,90 85,85 " style="fill:white; stroke-width:1; stroke:black; " description="&lt;b&gt;BLP82_RS22055&lt;/b&gt;&lt;br&gt;DUF2790 domain-containing protein&lt;br&gt;Location: 36965 - 36702" locus_tag="BLP82_RS22055" class="clusterblast-orf" id="dummy-3_h3_9_0"  />
</g>
<g id="a3_001"  >
<polygon points="121,90 171,90 176,85 171,80 121,80 121,90 " style="fill:white; stroke-width:1; stroke:black; " description="&lt;b&gt;BLP82_RS22050&lt;/b&gt;&lt;br&gt;DNA-binding response regulator&lt;br&gt;Location: 36476 - 35736" locus_tag="BLP82_RS22050" class="clusterblast-orf" id="dummy-3_h3_9_1"  />
</g>
<g id="a3_002"  >
<polygon points="176,90 268,90 273,85 268,80 176,80 176,90 " style="fill:white; stroke-width:1; stroke:black; " description="&lt;b&gt;BLP82_RS22045&lt;/b&gt;&lt;br&gt;HAMP domain-containing protein&lt;br&gt;Location: 35739 - 34429" locus_tag="BLP82_RS22045" class="clusterblast-orf" id="dummy-3_h3_9_2"  />
</g>
<g id="a3_003"  >
<polygon points="287,90 329,90 334,85 329,80 287,80 287,90 " style="fill:white; stroke-width:1; stroke:black; " description="&lt;b&gt;BLP82_RS22040&lt;/b&gt;&lt;br&gt;hypothetical protein&lt;br&gt;Location: 34238 - 33606" locus_tag="BLP82_RS22040" class="clusterblast-orf" id="dummy-3_h3_9_3"  />
</g>
<g id="a3_004"  >
<polygon points="335,90 367,90 372,85 367,80 335,80 335,90 " style="fill:white; stroke-width:1; stroke:black; " description="&lt;b&gt;BLP82_RS22035&lt;/b&gt;&lt;br&gt;DoxX family protein&lt;br&gt;Location: 33588 - 33091" locus_tag="BLP82_RS22035" class="clusterblast-orf" id="dummy-3_h3_9_4"  />
</g>
<g id="a3_005"  >
<polygon points="382,85 387,80 438,80 438,90 387,90 382,85 " style="fill:#15d815; stroke-width:1; stroke:black; " description="&lt;b&gt;BLP82_RS22030&lt;/b&gt;&lt;br&gt;DUF2063 domain-containing protein&lt;br&gt;Location: 32957 - 32208&lt;br&gt;&lt;br&gt;&lt;b&gt;BlastP hit with ctg3_1891&lt;/b&gt;&lt;br&gt;Percentage identity: 65&lt;br&gt;Percentage coverage: 98&lt;br&gt;BLAST bit score: 326&lt;br&gt;E-value: 2.8e-87" locus_tag="BLP82_RS22030" class="clusterblast-orf" id="dummy-3_h3_9_5"  />
</g>
<g id="a3_006"  >
<polygon points="437,85 442,80 500,80 500,90 442,90 437,85 " style="fill:#1577d8; stroke-width:1; stroke:black; " description="&lt;b&gt;BLP82_RS22025&lt;/b&gt;&lt;br&gt;DUF692 domain-containing protein&lt;br&gt;Location: 32215 - 31370&lt;br&gt;&lt;br&gt;&lt;b&gt;BlastP hit with ctg3_1892&lt;/b&gt;&lt;br&gt;Percentage identity: 78&lt;br&gt;Percentage coverage: 96&lt;br&gt;BLAST bit score: 445&lt;br&gt;E-value: 4.6e-123" locus_tag="BLP82_RS22025" class="clusterblast-orf" id="dummy-3_h3_9_6"  />
</g>
<g id="a3_007"  >
<polygon points="510,85 515,80 539,80 539,90 515,90 510,85 " style="fill:#d815d8; stroke-width:1; stroke:black; " description="&lt;b&gt;BLP82_RS22020&lt;/b&gt;&lt;br&gt;EF-hand domain-containing protein&lt;br&gt;Location: 31236 - 30850&lt;br&gt;&lt;br&gt;&lt;b&gt;BlastP hit with ctg3_1893&lt;/b&gt;&lt;br&gt;Percentage identity: 66&lt;br&gt;Percentage coverage: 74&lt;br&gt;BLAST bit score: 55&lt;br&gt;E-value: 2.5e-06" locus_tag="BLP82_RS22020" class="clusterblast-orf" id="dummy-3_h3_9_7"  />
</g>
<g id="a3_008"  >
<polygon points="561,90 689,90 694,85 689,80 561,80 561,90 " style="fill:white; stroke-width:1; stroke:black; " description="&lt;b&gt;BLP82_RS22015&lt;/b&gt;&lt;br&gt;thiamine pyrophosphate-requiring protein&lt;br&gt;Location: 30551 - 28752" locus_tag="BLP82_RS22015" class="clusterblast-orf" id="dummy-3_h3_9_8"  />
</g>
</svg>
