<svg xmlns="http://www.w3.org/2000/svg" xmlns:xlink="http://www.w3.org/1999/xlink" version="1.1" x="0" y="0" height="230" width="800" viewBox="0 0 800 230" preserveAspectRatio="none"  >
<g label="Query sequence" class="clusterblast-cluster"  >
<text x="5" y="20" class="clusterblast-acc"  >
Query sequence</text>
<line x1="10" y1="35" x2="778.0" y2="35" style="stroke-width:1; stroke:grey; "  />
<polygon points="34,35 39,30 40,30 40,40 39,40 34,35 " style="fill:#d81515; stroke-width:1; stroke:black; " description="&lt;b&gt;ctg6_147&lt;/b&gt;&lt;br&gt;ctg6 147&lt;br&gt;Location: 179074 - 179695" locus_tag="ctg6_147" class="clusterblast-orf" id="dummy-1_q0_0_all"  />
<polygon points="43,35 48,30 69,30 69,40 48,40 43,35 " style="fill:#6dd815; stroke-width:1; stroke:black; " description="&lt;b&gt;ctg6_148&lt;/b&gt;&lt;br&gt;ctg6 148&lt;br&gt;Location: 180036 - 182742" locus_tag="ctg6_148" class="clusterblast-orf" id="dummy-1_q1_0_all"  />
<polygon points="73,35 78,30 86,30 86,40 78,40 73,35 " style="fill:#15c5d8; stroke-width:1; stroke:black; " description="&lt;b&gt;ctg6_149&lt;/b&gt;&lt;br&gt;ctg6 149&lt;br&gt;Location: 183246 - 184584" locus_tag="ctg6_149" class="clusterblast-orf" id="dummy-1_q2_0_all"  />
<polygon points="87,35 92,30 92,30 92,40 92,40 87,35 " style="fill:#9315d8; stroke-width:1; stroke:black; " description="&lt;b&gt;ctg6_150&lt;/b&gt;&lt;br&gt;ctg6 150&lt;br&gt;Location: 184716 - 185199" locus_tag="ctg6_150" class="clusterblast-orf" id="dummy-1_q3_0_all"  />
<polygon points="95,40 101,40 106,35 101,30 95,30 95,40 " style="fill:#d83b15; stroke-width:1; stroke:black; " description="&lt;b&gt;ctg6_151&lt;/b&gt;&lt;br&gt;ctg6 151&lt;br&gt;Location: 185519 - 186692" locus_tag="ctg6_151" class="clusterblast-orf" id="dummy-1_q4_0_all"  />
<polygon points="106,40 119,40 124,35 119,30 106,30 106,40 " style="fill:#48d815; stroke-width:1; stroke:black; " description="&lt;b&gt;ctg6_152&lt;/b&gt;&lt;br&gt;ctg6 152&lt;br&gt;Location: 186692 - 188666" locus_tag="ctg6_152" class="clusterblast-orf" id="dummy-1_q5_0_all"  />
<polygon points="124,40 133,40 138,35 133,30 124,30 124,40 " style="fill:#15a0d8; stroke-width:1; stroke:black; " description="&lt;b&gt;ctg6_153&lt;/b&gt;&lt;br&gt;ctg6 153&lt;br&gt;Location: 188673 - 190068" locus_tag="ctg6_153" class="clusterblast-orf" id="dummy-1_q6_0_all"  />
<polygon points="141,35 146,30 157,30 157,40 146,40 141,35 " style="fill:#b915d8; stroke-width:1; stroke:black; " description="&lt;b&gt;ctg6_154&lt;/b&gt;&lt;br&gt;ctg6 154&lt;br&gt;Location: 190471 - 192100" locus_tag="ctg6_154" class="clusterblast-orf" id="dummy-1_q7_0_all"  />
<polygon points="159,40 167,40 172,35 167,30 159,30 159,40 " style="fill:#d86115; stroke-width:1; stroke:black; " description="&lt;b&gt;ctg6_155&lt;/b&gt;&lt;br&gt;ctg6 155&lt;br&gt;Location: 192332 - 193703" locus_tag="ctg6_155" class="clusterblast-orf" id="dummy-1_q8_0_all"  />
<polygon points="172,40 179,40 184,35 179,30 172,30 172,40 " style="fill:#22d815; stroke-width:1; stroke:black; " description="&lt;b&gt;ctg6_156&lt;/b&gt;&lt;br&gt;ctg6 156&lt;br&gt;Location: 193699 - 194983" locus_tag="ctg6_156" class="clusterblast-orf" id="dummy-1_q9_0_all"  />
<polygon points="186,40 189,40 194,35 189,30 186,30 186,40 " style="fill:#157ad8; stroke-width:1; stroke:black; " description="&lt;b&gt;ctg6_157&lt;/b&gt;&lt;br&gt;ctg6 157&lt;br&gt;Location: 195221 - 196109" locus_tag="ctg6_157" class="clusterblast-orf" id="dummy-1_q10_0_all"  />
<polygon points="196,40 206,40 211,35 206,30 196,30 196,40 " style="fill:#d815d2; stroke-width:1; stroke:black; " description="&lt;b&gt;ctg6_158&lt;/b&gt;&lt;br&gt;ctg6 158&lt;br&gt;Location: 196239 - 197898" locus_tag="ctg6_158" class="clusterblast-orf" id="dummy-1_q11_0_all"  />
<polygon points="212,40 246,40 251,35 246,30 212,30 212,40 " style="fill:#d88615; stroke-width:1; stroke:black; " description="&lt;b&gt;ctg6_159&lt;/b&gt;&lt;br&gt;ctg6 159&lt;br&gt;Location: 197962 - 202165" locus_tag="ctg6_159" class="clusterblast-orf" id="dummy-1_q12_0_all"  />
<polygon points="256,35 259,30 259,40 256,35 " style="fill:#15d82e; stroke-width:1; stroke:black; " description="&lt;b&gt;ctg6_160&lt;/b&gt;&lt;br&gt;ctg6 160&lt;br&gt;Location: 202628 - 202997" locus_tag="ctg6_160" class="clusterblast-orf" id="dummy-1_q13_0_all"  />
<polygon points="266,35 271,30 290,30 290,40 271,40 266,35 " style="fill:#1554d8; stroke-width:1; stroke:black; " description="&lt;b&gt;ctg6_161&lt;/b&gt;&lt;br&gt;ctg6 161&lt;br&gt;Location: 203761 - 206242" locus_tag="ctg6_161" class="clusterblast-orf" id="dummy-1_q14_0_all"  />
<polygon points="295,35 300,30 325,30 325,40 300,40 295,35 " style="fill:#d88615; stroke-width:1; stroke:black; " description="&lt;b&gt;ctg6_162&lt;/b&gt;&lt;br&gt;ctg6 162&lt;br&gt;Location: 206833 - 210055" locus_tag="ctg6_162" class="clusterblast-orf" id="dummy-1_q15_0_all"  />
<polygon points="325,35 330,30 452,30 452,40 330,40 325,35 " style="fill:#d88615; stroke-width:1; stroke:black; " description="&lt;b&gt;ctg6_163&lt;/b&gt;&lt;br&gt;ctg6 163&lt;br&gt;Location: 210051 - 223575" locus_tag="ctg6_163" class="clusterblast-orf" id="dummy-1_q16_0_all"  />
<polygon points="453,35 458,30 569,30 569,40 458,40 453,35 " style="fill:#d88615; stroke-width:1; stroke:black; " description="&lt;b&gt;ctg6_164&lt;/b&gt;&lt;br&gt;ctg6 164&lt;br&gt;Location: 223592 - 235946" locus_tag="ctg6_164" class="clusterblast-orf" id="dummy-1_q17_0_all"  />
<polygon points="571,35 576,30 578,30 578,40 576,40 571,35 " style="fill:#d815ac; stroke-width:1; stroke:black; " description="&lt;b&gt;ctg6_165&lt;/b&gt;&lt;br&gt;ctg6 165&lt;br&gt;Location: 236194 - 236929" locus_tag="ctg6_165" class="clusterblast-orf" id="dummy-1_q18_0_all"  />
<polygon points="579,40 585,40 590,35 585,30 579,30 579,40 " style="fill:#d8ac15; stroke-width:1; stroke:black; " description="&lt;b&gt;ctg6_166&lt;/b&gt;&lt;br&gt;ctg6 166&lt;br&gt;Location: 237061 - 238195" locus_tag="ctg6_166" class="clusterblast-orf" id="dummy-1_q19_0_all"  />
<polygon points="591,35 596,30 602,30 602,40 596,40 591,35 " style="fill:#15d854; stroke-width:1; stroke:black; " description="&lt;b&gt;ctg6_167&lt;/b&gt;&lt;br&gt;ctg6 167&lt;br&gt;Location: 238308 - 239481" locus_tag="ctg6_167" class="clusterblast-orf" id="dummy-1_q20_0_all"  />
<polygon points="604,40 607,40 612,35 607,30 604,30 604,40 " style="fill:#152ed8; stroke-width:1; stroke:black; " description="&lt;b&gt;ctg6_168&lt;/b&gt;&lt;br&gt;ctg6 168&lt;br&gt;Location: 239709 - 240510" locus_tag="ctg6_168" class="clusterblast-orf" id="dummy-1_q21_0_all"  />
<polygon points="612,40 624,40 629,35 624,30 612,30 612,40 " style="fill:#d81586; stroke-width:1; stroke:black; " description="&lt;b&gt;ctg6_169&lt;/b&gt;&lt;br&gt;ctg6 169&lt;br&gt;Location: 240502 - 242329" locus_tag="ctg6_169" class="clusterblast-orf" id="dummy-1_q22_0_all"  />
<polygon points="634,40 637,35 634,30 634,40 " style="fill:#d8d215; stroke-width:1; stroke:black; " description="&lt;b&gt;ctg6_170&lt;/b&gt;&lt;br&gt;ctg6 170&lt;br&gt;Location: 242874 - 243264" locus_tag="ctg6_170" class="clusterblast-orf" id="dummy-1_q23_0_all"  />
<polygon points="639,40 645,40 650,35 645,30 639,30 639,40 " style="fill:white; stroke-width:1; stroke:black; " description="&lt;b&gt;ctg6_171&lt;/b&gt;&lt;br&gt;ctg6 171&lt;br&gt;Location: 243399 - 244644" locus_tag="ctg6_171" class="clusterblast-orf" id="dummy-1_q24_0_all"  />
<polygon points="652,40 655,40 660,35 655,30 652,30 652,40 " style="fill:#15d87a; stroke-width:1; stroke:black; " description="&lt;b&gt;ctg6_172&lt;/b&gt;&lt;br&gt;ctg6 172&lt;br&gt;Location: 244758 - 245664" locus_tag="ctg6_172" class="clusterblast-orf" id="dummy-1_q25_0_all"  />
<polygon points="660,35 665,30 669,30 669,40 665,40 660,35 " style="fill:#2215d8; stroke-width:1; stroke:black; " description="&lt;b&gt;ctg6_173&lt;/b&gt;&lt;br&gt;ctg6 173&lt;br&gt;Location: 245617 - 246616" locus_tag="ctg6_173" class="clusterblast-orf" id="dummy-1_q26_0_all"  />
<polygon points="670,40 671,40 676,35 671,30 670,30 670,40 " style="fill:#2215d8; stroke-width:1; stroke:black; " description="&lt;b&gt;ctg6_174&lt;/b&gt;&lt;br&gt;ctg6 174&lt;br&gt;Location: 246708 - 247395" locus_tag="ctg6_174" class="clusterblast-orf" id="dummy-1_q27_0_all"  />
<polygon points="677,35 682,30 683,30 683,40 682,40 677,35 " style="fill:white; stroke-width:1; stroke:black; " description="&lt;b&gt;ctg6_175&lt;/b&gt;&lt;br&gt;ctg6 175&lt;br&gt;Location: 247489 - 248107" locus_tag="ctg6_175" class="clusterblast-orf" id="dummy-1_q28_0_all"  />
<polygon points="686,35 691,30 694,30 694,40 691,40 686,35 " style="fill:#d81561; stroke-width:1; stroke:black; " description="&lt;b&gt;ctg6_176&lt;/b&gt;&lt;br&gt;ctg6 176&lt;br&gt;Location: 248451 - 249252" locus_tag="ctg6_176" class="clusterblast-orf" id="dummy-1_q29_0_all"  />
<polygon points="694,35 698,30 698,40 694,35 " style="fill:#b9d815; stroke-width:1; stroke:black; " description="&lt;b&gt;ctg6_177&lt;/b&gt;&lt;br&gt;ctg6 177&lt;br&gt;Location: 249252 - 249741" locus_tag="ctg6_177" class="clusterblast-orf" id="dummy-1_q30_0_all"  />
<polygon points="700,40 704,40 709,35 704,30 700,30 700,40 " style="fill:#15d8a0; stroke-width:1; stroke:black; " description="&lt;b&gt;ctg6_178&lt;/b&gt;&lt;br&gt;ctg6 178&lt;br&gt;Location: 249938 - 250883" locus_tag="ctg6_178" class="clusterblast-orf" id="dummy-1_q31_0_all"  />
<polygon points="709,40 713,35 709,30 709,40 " style="fill:#4815d8; stroke-width:1; stroke:black; " description="&lt;b&gt;ctg6_179&lt;/b&gt;&lt;br&gt;ctg6 179&lt;br&gt;Location: 250875 - 251274" locus_tag="ctg6_179" class="clusterblast-orf" id="dummy-1_q32_0_all"  />
<polygon points="714,40 717,35 714,30 714,40 " style="fill:#d8153b; stroke-width:1; stroke:black; " description="&lt;b&gt;ctg6_180&lt;/b&gt;&lt;br&gt;ctg6 180&lt;br&gt;Location: 251446 - 251749" locus_tag="ctg6_180" class="clusterblast-orf" id="dummy-1_q33_0_all"  />
<polygon points="718,40 720,40 725,35 720,30 718,30 718,40 " style="fill:white; stroke-width:1; stroke:black; " description="&lt;b&gt;ctg6_181&lt;/b&gt;&lt;br&gt;ctg6 181&lt;br&gt;Location: 251877 - 252582" locus_tag="ctg6_181" class="clusterblast-orf" id="dummy-1_q34_0_all"  />
<polygon points="726,40 730,35 726,30 726,40 " style="fill:#93d815; stroke-width:1; stroke:black; " description="&lt;b&gt;ctg6_182&lt;/b&gt;&lt;br&gt;ctg6 182&lt;br&gt;Location: 252704 - 253106" locus_tag="ctg6_182" class="clusterblast-orf" id="dummy-1_q35_0_all"  />
<polygon points="731,35 736,30 742,30 742,40 736,40 731,35 " style="fill:#15d8c5; stroke-width:1; stroke:black; " description="&lt;b&gt;ctg6_183&lt;/b&gt;&lt;br&gt;ctg6 183&lt;br&gt;Location: 253229 - 254348" locus_tag="ctg6_183" class="clusterblast-orf" id="dummy-1_q36_0_all"  />
<polygon points="742,35 745,30 745,40 742,35 " style="fill:#6d15d8; stroke-width:1; stroke:black; " description="&lt;b&gt;ctg6_184&lt;/b&gt;&lt;br&gt;ctg6 184&lt;br&gt;Location: 254372 - 254696" locus_tag="ctg6_184" class="clusterblast-orf" id="dummy-1_q37_0_all"  />
</g>
<g label="NZ_AKJT01000001" description="NZ_AKJT01000001_c1: Pseudomonas sp. GM18 PMI21 contig 5.5, whole genome shotg... (59% of genes show similarity), terpene-nrps" class="clusterblast-cluster"  >
<text x="5" y="70" class="clusterblast-acc"  >
<a xlink:href="https://antismash-db.secondarymetabolites.org/go/NZ_AKJT01000001/1" target="_blank">NZ_AKJT01000001_c1</a>: Pseudomonas sp. GM18 PMI21 contig 5.5, whole genome shotg... (59% of genes show similarity), terpene-nrps</text>
<line x1="10" y1="85" x2="778.0" y2="85" style="stroke-width:1; stroke:grey; "  />
</g>
<g id="a1_000"  >
<polygon points="0,85 5,80 5,80 5,90 5,90 0,85 " style="fill:#d81515; stroke-width:1; stroke:black; " description="&lt;b&gt;PMI21_RS27575&lt;/b&gt;&lt;br&gt;DNA-binding response regulator&lt;br&gt;Location: 51186 - 51806&lt;br&gt;&lt;br&gt;&lt;b&gt;BlastP hit with ctg6_147&lt;/b&gt;&lt;br&gt;Percentage identity: 72&lt;br&gt;Percentage coverage: 100&lt;br&gt;BLAST bit score: 288&lt;br&gt;E-value: 5.3e-76" locus_tag="PMI21_RS27575" class="clusterblast-orf" id="dummy-1_h1_8_0"  />
</g>
<g id="a1_001"  >
<polygon points="7,85 10,80 10,90 7,85 " style="fill:white; stroke-width:1; stroke:black; " description="&lt;b&gt;PMI21_RS27570&lt;/b&gt;&lt;br&gt;hypothetical protein&lt;br&gt;Location: 51949 - 52326" locus_tag="PMI21_RS27570" class="clusterblast-orf" id="dummy-1_h1_8_1"  />
</g>
<g id="a1_002"  >
<polygon points="12,85 17,80 37,80 37,90 17,90 12,85 " style="fill:#6dd815; stroke-width:1; stroke:black; " description="&lt;b&gt;PMI21_RS27565&lt;/b&gt;&lt;br&gt;magnesium-translocating P-type ATPase&lt;br&gt;Location: 52494 - 55211&lt;br&gt;&lt;br&gt;&lt;b&gt;BlastP hit with ctg6_148&lt;/b&gt;&lt;br&gt;Percentage identity: 91&lt;br&gt;Percentage coverage: 101&lt;br&gt;BLAST bit score: 1567&lt;br&gt;E-value: 0.0" locus_tag="PMI21_RS27565" class="clusterblast-orf" id="dummy-1_h1_8_2"  />
</g>
<g id="a1_003"  >
<polygon points="40,85 42,80 42,90 40,85 " style="fill:white; stroke-width:1; stroke:black; " description="&lt;b&gt;PMI21_RS28490&lt;/b&gt;&lt;br&gt;hypothetical protein&lt;br&gt;Location: 55505 - 55687" locus_tag="PMI21_RS28490" class="clusterblast-orf" id="dummy-1_h1_8_3"  />
</g>
<g id="a1_004"  >
<polygon points="42,85 47,80 55,80 55,90 47,90 42,85 " style="fill:#15c5d8; stroke-width:1; stroke:black; " description="&lt;b&gt;PMI21_RS27560&lt;/b&gt;&lt;br&gt;L-ornithine 5-monooxygenase&lt;br&gt;Location: 55709 - 57046&lt;br&gt;&lt;br&gt;&lt;b&gt;BlastP hit with ctg6_149&lt;/b&gt;&lt;br&gt;Percentage identity: 96&lt;br&gt;Percentage coverage: 100&lt;br&gt;BLAST bit score: 857&lt;br&gt;E-value: 6.2e-247" locus_tag="PMI21_RS27560" class="clusterblast-orf" id="dummy-1_h1_8_4"  />
</g>
<g id="a1_005"  >
<polygon points="56,85 60,80 60,90 56,85 " style="fill:#9315d8; stroke-width:1; stroke:black; " description="&lt;b&gt;PMI21_RS27555&lt;/b&gt;&lt;br&gt;RNA polymerase sigma factor&lt;br&gt;Location: 57178 - 57660&lt;br&gt;&lt;br&gt;&lt;b&gt;BlastP hit with ctg6_150&lt;/b&gt;&lt;br&gt;Percentage identity: 93&lt;br&gt;Percentage coverage: 99&lt;br&gt;BLAST bit score: 304&lt;br&gt;E-value: 9.6e-81" locus_tag="PMI21_RS27555" class="clusterblast-orf" id="dummy-1_h1_8_5"  />
</g>
<g id="a1_006"  >
<polygon points="63,90 69,90 74,85 69,80 63,80 63,90 " style="fill:#d83b15; stroke-width:1; stroke:black; " description="&lt;b&gt;PMI21_RS27550&lt;/b&gt;&lt;br&gt;efflux RND transporter periplasmic adaptor subunit&lt;br&gt;Location: 57995 - 59167&lt;br&gt;&lt;br&gt;&lt;b&gt;BlastP hit with ctg6_151&lt;/b&gt;&lt;br&gt;Percentage identity: 93&lt;br&gt;Percentage coverage: 100&lt;br&gt;BLAST bit score: 627&lt;br&gt;E-value: 9.2e-178" locus_tag="PMI21_RS27550" class="clusterblast-orf" id="dummy-1_h1_8_6"  />
</g>
<g id="a1_007"  >
<polygon points="75,90 88,90 93,85 88,80 75,80 75,90 " style="fill:#48d815; stroke-width:1; stroke:black; " description="&lt;b&gt;PMI21_RS27545&lt;/b&gt;&lt;br&gt;MacB family efflux pump subunit&lt;br&gt;Location: 59168 - 61141&lt;br&gt;&lt;br&gt;&lt;b&gt;BlastP hit with ctg6_152&lt;/b&gt;&lt;br&gt;Percentage identity: 95&lt;br&gt;Percentage coverage: 100&lt;br&gt;BLAST bit score: 1194&lt;br&gt;E-value: 0.0" locus_tag="PMI21_RS27545" class="clusterblast-orf" id="dummy-1_h1_8_7"  />
</g>
<g id="a1_008"  >
<polygon points="93,90 101,90 106,85 101,80 93,80 93,90 " style="fill:#15a0d8; stroke-width:1; stroke:black; " description="&lt;b&gt;PMI21_RS27540&lt;/b&gt;&lt;br&gt;RND transporter&lt;br&gt;Location: 61149 - 62543&lt;br&gt;&lt;br&gt;&lt;b&gt;BlastP hit with ctg6_153&lt;/b&gt;&lt;br&gt;Percentage identity: 85&lt;br&gt;Percentage coverage: 100&lt;br&gt;BLAST bit score: 748&lt;br&gt;E-value: 4.3e-214" locus_tag="PMI21_RS27540" class="clusterblast-orf" id="dummy-1_h1_8_8"  />
</g>
<g id="a1_009"  >
<polygon points="107,85 112,80 122,80 122,90 112,90 107,85 " style="fill:#b915d8; stroke-width:1; stroke:black; " description="&lt;b&gt;PMI21_RS27535&lt;/b&gt;&lt;br&gt;hypothetical protein&lt;br&gt;Location: 62606 - 64234&lt;br&gt;&lt;br&gt;&lt;b&gt;BlastP hit with ctg6_154&lt;/b&gt;&lt;br&gt;Percentage identity: 90&lt;br&gt;Percentage coverage: 99&lt;br&gt;BLAST bit score: 1059&lt;br&gt;E-value: 1.3e-307" locus_tag="PMI21_RS27535" class="clusterblast-orf" id="dummy-1_h1_8_9"  />
</g>
<g id="a1_0010"  >
<polygon points="124,90 132,90 137,85 132,80 124,80 124,90 " style="fill:#d86115; stroke-width:1; stroke:black; " description="&lt;b&gt;PMI21_RS27530&lt;/b&gt;&lt;br&gt;membrane dipeptidase&lt;br&gt;Location: 64427 - 65797&lt;br&gt;&lt;br&gt;&lt;b&gt;BlastP hit with ctg6_155&lt;/b&gt;&lt;br&gt;Percentage identity: 92&lt;br&gt;Percentage coverage: 100&lt;br&gt;BLAST bit score: 872&lt;br&gt;E-value: 1.9e-251" locus_tag="PMI21_RS27530" class="clusterblast-orf" id="dummy-1_h1_8_10"  />
</g>
<g id="a1_0011"  >
<polygon points="137,90 144,90 149,85 144,80 137,80 137,90 " style="fill:#22d815; stroke-width:1; stroke:black; " description="&lt;b&gt;PMI21_RS27525&lt;/b&gt;&lt;br&gt;aminotransferase class V-fold PLP-dependent enzyme&lt;br&gt;Location: 65794 - 67074&lt;br&gt;&lt;br&gt;&lt;b&gt;BlastP hit with ctg6_156&lt;/b&gt;&lt;br&gt;Percentage identity: 90&lt;br&gt;Percentage coverage: 100&lt;br&gt;BLAST bit score: 776&lt;br&gt;E-value: 1.3e-222" locus_tag="PMI21_RS27525" class="clusterblast-orf" id="dummy-1_h1_8_11"  />
</g>
<g id="a1_0012"  >
<polygon points="149,90 153,90 158,85 153,80 149,80 149,90 " style="fill:#157ad8; stroke-width:1; stroke:black; " description="&lt;b&gt;PMI21_RS27520&lt;/b&gt;&lt;br&gt;formylglycine-generating enzyme family protein&lt;br&gt;Location: 67121 - 68008&lt;br&gt;&lt;br&gt;&lt;b&gt;BlastP hit with ctg6_157&lt;/b&gt;&lt;br&gt;Percentage identity: 93&lt;br&gt;Percentage coverage: 100&lt;br&gt;BLAST bit score: 586&lt;br&gt;E-value: 2.3e-165" locus_tag="PMI21_RS27520" class="clusterblast-orf" id="dummy-1_h1_8_12"  />
</g>
<g id="a1_0013"  >
<polygon points="158,90 169,90 174,85 169,80 158,80 158,90 " style="fill:#d815d2; stroke-width:1; stroke:black; " description="&lt;b&gt;PMI21_RS27515&lt;/b&gt;&lt;br&gt;cyclic peptide export ABC transporter&lt;br&gt;Location: 68089 - 69747&lt;br&gt;&lt;br&gt;&lt;b&gt;BlastP hit with ctg6_158&lt;/b&gt;&lt;br&gt;Percentage identity: 90&lt;br&gt;Percentage coverage: 100&lt;br&gt;BLAST bit score: 966&lt;br&gt;E-value: 1.2e-279" locus_tag="PMI21_RS27515" class="clusterblast-orf" id="dummy-1_h1_8_13"  />
</g>
<g id="a1_0014"  >
<polygon points="175,90 209,90 214,85 209,80 175,80 175,90 " style="fill:#d88615; stroke-width:1; stroke:black; " description="&lt;b&gt;PMI21_RS27510&lt;/b&gt;&lt;br&gt;non-ribosomal peptide synthetase&lt;br&gt;Location: 69884 - 74059&lt;br&gt;&lt;br&gt;&lt;b&gt;BlastP hit with ctg6_159&lt;/b&gt;&lt;br&gt;Percentage identity: 74&lt;br&gt;Percentage coverage: 100&lt;br&gt;BLAST bit score: 1956&lt;br&gt;E-value: 0.0" locus_tag="PMI21_RS27510" class="clusterblast-orf" id="dummy-1_h1_8_14"  />
</g>
<g id="a1_0015"  >
<polygon points="217,85 222,80 241,80 241,90 222,90 217,85 " style="fill:#1554d8; stroke-width:1; stroke:black; " description="&lt;b&gt;PMI21_RS27505&lt;/b&gt;&lt;br&gt;TonB-dependent siderophore receptor&lt;br&gt;Location: 74353 - 76833&lt;br&gt;&lt;br&gt;&lt;b&gt;BlastP hit with ctg6_161&lt;/b&gt;&lt;br&gt;Percentage identity: 92&lt;br&gt;Percentage coverage: 100&lt;br&gt;BLAST bit score: 1555&lt;br&gt;E-value: 0.0" locus_tag="PMI21_RS27505" class="clusterblast-orf" id="dummy-1_h1_8_15"  />
</g>
<g id="a1_0016"  >
<polygon points="244,85 249,80 274,80 274,90 249,90 244,85 " style="fill:#d88615; stroke-width:1; stroke:black; " description="&lt;b&gt;PMI21_RS27500&lt;/b&gt;&lt;br&gt;non-ribosomal peptide synthetase&lt;br&gt;Location: 77177 - 80410&lt;br&gt;&lt;br&gt;&lt;b&gt;BlastP hit with ctg6_162&lt;/b&gt;&lt;br&gt;Percentage identity: 91&lt;br&gt;Percentage coverage: 100&lt;br&gt;BLAST bit score: 1923&lt;br&gt;E-value: 0.0" locus_tag="PMI21_RS27500" class="clusterblast-orf" id="dummy-1_h1_8_16"  />
</g>
<g id="a1_0017"  >
<polygon points="274,85 279,80 401,80 401,90 279,90 274,85 " style="fill:#d88615; stroke-width:1; stroke:black; " description="&lt;b&gt;PMI21_RS27495&lt;/b&gt;&lt;br&gt;non-ribosomal peptide synthetase&lt;br&gt;Location: 80407 - 93903&lt;br&gt;&lt;br&gt;&lt;b&gt;BlastP hit with ctg6_159&lt;/b&gt;&lt;br&gt;Percentage identity: 53&lt;br&gt;Percentage coverage: 75&lt;br&gt;BLAST bit score: 1067&lt;br&gt;E-value: 1.6e-309&lt;br&gt;&lt;br&gt;&lt;b&gt;BlastP hit with ctg6_163&lt;/b&gt;&lt;br&gt;Percentage identity: 66&lt;br&gt;Percentage coverage: 101&lt;br&gt;BLAST bit score: 5820&lt;br&gt;E-value: 0.0&lt;br&gt;&lt;br&gt;&lt;b&gt;BlastP hit with ctg6_164&lt;/b&gt;&lt;br&gt;Percentage identity: 49&lt;br&gt;Percentage coverage: 101&lt;br&gt;BLAST bit score: 3459&lt;br&gt;E-value: 0.0" locus_tag="PMI21_RS27495" class="clusterblast-orf" id="dummy-1_h1_8_17"  />
</g>
<g id="a1_0018"  >
<polygon points="401,85 406,80 517,80 517,90 406,90 401,85 " style="fill:#d88615; stroke-width:1; stroke:black; " description="&lt;b&gt;PMI21_RS27490&lt;/b&gt;&lt;br&gt;non-ribosomal peptide synthetase&lt;br&gt;Location: 93903 - 106283&lt;br&gt;&lt;br&gt;&lt;b&gt;BlastP hit with ctg6_159&lt;/b&gt;&lt;br&gt;Percentage identity: 44&lt;br&gt;Percentage coverage: 76&lt;br&gt;BLAST bit score: 829&lt;br&gt;E-value: 5.7e-238&lt;br&gt;&lt;br&gt;&lt;b&gt;BlastP hit with ctg6_163&lt;/b&gt;&lt;br&gt;Percentage identity: 44&lt;br&gt;Percentage coverage: 93&lt;br&gt;BLAST bit score: 2961&lt;br&gt;E-value: 0.0&lt;br&gt;&lt;br&gt;&lt;b&gt;BlastP hit with ctg6_164&lt;/b&gt;&lt;br&gt;Percentage identity: 81&lt;br&gt;Percentage coverage: 100&lt;br&gt;BLAST bit score: 6548&lt;br&gt;E-value: 0.0" locus_tag="PMI21_RS27490" class="clusterblast-orf" id="dummy-1_h1_8_18"  />
</g>
<g id="a1_0019"  >
<polygon points="521,85 526,80 528,80 528,90 526,90 521,85 " style="fill:#d815ac; stroke-width:1; stroke:black; " description="&lt;b&gt;PMI21_RS27485&lt;/b&gt;&lt;br&gt;thioesterase&lt;br&gt;Location: 106669 - 107406&lt;br&gt;&lt;br&gt;&lt;b&gt;BlastP hit with ctg6_165&lt;/b&gt;&lt;br&gt;Percentage identity: 93&lt;br&gt;Percentage coverage: 100&lt;br&gt;BLAST bit score: 463&lt;br&gt;E-value: 1.9e-128" locus_tag="PMI21_RS27485" class="clusterblast-orf" id="dummy-1_h1_8_19"  />
</g>
<g id="a1_0020"  >
<polygon points="529,90 535,90 540,85 535,80 529,80 529,90 " style="fill:#d8ac15; stroke-width:1; stroke:black; " description="&lt;b&gt;PMI21_RS27480&lt;/b&gt;&lt;br&gt;cupin&lt;br&gt;Location: 107564 - 108697&lt;br&gt;&lt;br&gt;&lt;b&gt;BlastP hit with ctg6_166&lt;/b&gt;&lt;br&gt;Percentage identity: 94&lt;br&gt;Percentage coverage: 100&lt;br&gt;BLAST bit score: 738&lt;br&gt;E-value: 4.7e-211" locus_tag="PMI21_RS27480" class="clusterblast-orf" id="dummy-1_h1_8_20"  />
</g>
<g id="a1_0021"  >
<polygon points="540,85 545,80 551,80 551,90 545,90 540,85 " style="fill:#15d854; stroke-width:1; stroke:black; " description="&lt;b&gt;PMI21_RS27475&lt;/b&gt;&lt;br&gt;MFS transporter&lt;br&gt;Location: 108718 - 109890&lt;br&gt;&lt;br&gt;&lt;b&gt;BlastP hit with ctg6_167&lt;/b&gt;&lt;br&gt;Percentage identity: 86&lt;br&gt;Percentage coverage: 100&lt;br&gt;BLAST bit score: 621&lt;br&gt;E-value: 5e-176" locus_tag="PMI21_RS27475" class="clusterblast-orf" id="dummy-1_h1_8_21"  />
</g>
<g id="a1_0022"  >
<polygon points="554,90 554,90 559,85 554,80 554,80 554,90 " style="fill:white; stroke-width:1; stroke:black; " description="&lt;b&gt;PMI21_RS27470&lt;/b&gt;&lt;br&gt;isopentenyl-diphosphate Delta-isomerase&lt;br&gt;Location: 110173 - 110712" locus_tag="PMI21_RS27470" class="clusterblast-orf" id="dummy-1_h1_8_22"  />
</g>
<g id="a1_0023"  >
<polygon points="560,90 564,90 569,85 564,80 560,80 560,90 " style="fill:white; stroke-width:1; stroke:black; " description="&lt;b&gt;PMI21_RS27465&lt;/b&gt;&lt;br&gt;class I SAM-dependent methyltransferase&lt;br&gt;Location: 110810 - 111778" locus_tag="PMI21_RS27465" class="clusterblast-orf" id="dummy-1_h1_8_23"  />
</g>
<g id="a1_0024"  >
<polygon points="569,90 572,85 569,80 569,90 " style="fill:white; stroke-width:1; stroke:black; " description="&lt;b&gt;PMI21_RS27460&lt;/b&gt;&lt;br&gt;hypothetical protein&lt;br&gt;Location: 111842 - 112129" locus_tag="PMI21_RS27460" class="clusterblast-orf" id="dummy-1_h1_8_24"  />
</g>
<g id="a1_0025"  >
<polygon points="574,90 577,90 582,85 577,80 574,80 574,90 " style="fill:white; stroke-width:1; stroke:black; " description="&lt;b&gt;PMI21_RS27455&lt;/b&gt;&lt;br&gt;class I SAM-dependent methyltransferase&lt;br&gt;Location: 112277 - 113197" locus_tag="PMI21_RS27455" class="clusterblast-orf" id="dummy-1_h1_8_25"  />
</g>
<g id="a1_0026"  >
<polygon points="582,90 587,90 592,85 587,80 582,80 582,90 " style="fill:white; stroke-width:1; stroke:black; " description="&lt;b&gt;PMI21_RS27450&lt;/b&gt;&lt;br&gt;hypothetical protein&lt;br&gt;Location: 113213 - 114226" locus_tag="PMI21_RS27450" class="clusterblast-orf" id="dummy-1_h1_8_26"  />
</g>
<g id="a1_0027"  >
<polygon points="596,85 599,80 599,90 596,85 " style="fill:white; stroke-width:1; stroke:black; " description="&lt;b&gt;PMI21_RS27445&lt;/b&gt;&lt;br&gt;hypothetical protein&lt;br&gt;Location: 114653 - 115027" locus_tag="PMI21_RS27445" class="clusterblast-orf" id="dummy-1_h1_8_27"  />
</g>
<g id="a1_0028"  >
<polygon points="606,90 610,85 606,80 606,90 " style="fill:#d8d215; stroke-width:1; stroke:black; " description="&lt;b&gt;PMI21_RS27440&lt;/b&gt;&lt;br&gt;hypothetical protein&lt;br&gt;Location: 115716 - 116105&lt;br&gt;&lt;br&gt;&lt;b&gt;BlastP hit with ctg6_170&lt;/b&gt;&lt;br&gt;Percentage identity: 89&lt;br&gt;Percentage coverage: 99&lt;br&gt;BLAST bit score: 245&lt;br&gt;E-value: 3.3e-63" locus_tag="PMI21_RS27440" class="clusterblast-orf" id="dummy-1_h1_8_28"  />
</g>
<g id="a1_0029"  >
<polygon points="610,90 614,90 619,85 614,80 610,80 610,90 " style="fill:#15d87a; stroke-width:1; stroke:black; " description="&lt;b&gt;PMI21_RS27435&lt;/b&gt;&lt;br&gt;alpha/beta hydrolase&lt;br&gt;Location: 116166 - 117068&lt;br&gt;&lt;br&gt;&lt;b&gt;BlastP hit with ctg6_172&lt;/b&gt;&lt;br&gt;Percentage identity: 85&lt;br&gt;Percentage coverage: 98&lt;br&gt;BLAST bit score: 537&lt;br&gt;E-value: 7.4e-151" locus_tag="PMI21_RS27435" class="clusterblast-orf" id="dummy-1_h1_8_29"  />
</g>
<g id="a1_0030"  >
<polygon points="618,85 623,80 628,80 628,90 623,90 618,85 " style="fill:#2215d8; stroke-width:1; stroke:black; " description="&lt;b&gt;PMI21_RS27430&lt;/b&gt;&lt;br&gt;GlxA family transcriptional regulator&lt;br&gt;Location: 117037 - 118029&lt;br&gt;&lt;br&gt;&lt;b&gt;BlastP hit with ctg6_173&lt;/b&gt;&lt;br&gt;Percentage identity: 86&lt;br&gt;Percentage coverage: 98&lt;br&gt;BLAST bit score: 555&lt;br&gt;E-value: 2.9e-156&lt;br&gt;&lt;br&gt;&lt;b&gt;BlastP hit with ctg6_174&lt;/b&gt;&lt;br&gt;Percentage identity: 36&lt;br&gt;Percentage coverage: 82&lt;br&gt;BLAST bit score: 92&lt;br&gt;E-value: 8.1e-17" locus_tag="PMI21_RS27430" class="clusterblast-orf" id="dummy-1_h1_8_30"  />
</g>
<g id="a1_0031"  >
<polygon points="628,90 630,90 635,85 630,80 628,80 628,90 " style="fill:#2215d8; stroke-width:1; stroke:black; " description="&lt;b&gt;PMI21_RS27425&lt;/b&gt;&lt;br&gt;DJ-1/PfpI family protein&lt;br&gt;Location: 118120 - 118806&lt;br&gt;&lt;br&gt;&lt;b&gt;BlastP hit with ctg6_173&lt;/b&gt;&lt;br&gt;Percentage identity: 32&lt;br&gt;Percentage coverage: 58&lt;br&gt;BLAST bit score: 76&lt;br&gt;E-value: 6.7e-12&lt;br&gt;&lt;br&gt;&lt;b&gt;BlastP hit with ctg6_174&lt;/b&gt;&lt;br&gt;Percentage identity: 87&lt;br&gt;Percentage coverage: 100&lt;br&gt;BLAST bit score: 392&lt;br&gt;E-value: 3.8e-107" locus_tag="PMI21_RS27425" class="clusterblast-orf" id="dummy-1_h1_8_31"  />
</g>
<g id="a1_0032"  >
<polygon points="635,85 638,80 638,90 635,85 " style="fill:white; stroke-width:1; stroke:black; " description="&lt;b&gt;PMI21_RS27420&lt;/b&gt;&lt;br&gt;hypothetical protein&lt;br&gt;Location: 118844 - 119173" locus_tag="PMI21_RS27420" class="clusterblast-orf" id="dummy-1_h1_8_32"  />
</g>
<g id="a1_0033"  >
<polygon points="639,85 644,80 645,80 645,90 644,90 639,85 " style="fill:white; stroke-width:1; stroke:black; " description="&lt;b&gt;PMI21_RS27415&lt;/b&gt;&lt;br&gt;LysE family translocator&lt;br&gt;Location: 119200 - 119829" locus_tag="PMI21_RS27415" class="clusterblast-orf" id="dummy-1_h1_8_33"  />
</g>
<g id="a1_0034"  >
<polygon points="645,90 653,90 658,85 653,80 645,80 645,90 " style="fill:white; stroke-width:1; stroke:black; " description="&lt;b&gt;PMI21_RS27410&lt;/b&gt;&lt;br&gt;PLP-dependent aminotransferase family protein&lt;br&gt;Location: 119919 - 121244" locus_tag="PMI21_RS27410" class="clusterblast-orf" id="dummy-1_h1_8_34"  />
</g>
<g id="a1_0035"  >
<polygon points="664,85 669,80 669,80 669,90 669,90 664,85 " style="fill:#b9d815; stroke-width:1; stroke:black; " description="&lt;b&gt;PMI21_RS27405&lt;/b&gt;&lt;br&gt;vanillate O-demethylase oxidoreductase VanB&lt;br&gt;Location: 121905 - 122393&lt;br&gt;&lt;br&gt;&lt;b&gt;BlastP hit with ctg6_177&lt;/b&gt;&lt;br&gt;Percentage identity: 86&lt;br&gt;Percentage coverage: 99&lt;br&gt;BLAST bit score: 297&lt;br&gt;E-value: 1.2e-78" locus_tag="PMI21_RS27405" class="clusterblast-orf" id="dummy-1_h1_8_35"  />
</g>
<g id="a1_0036"  >
<polygon points="671,90 674,85 671,80 671,90 " style="fill:#93d815; stroke-width:1; stroke:black; " description="&lt;b&gt;PMI21_RS27400&lt;/b&gt;&lt;br&gt;DUF1311 domain-containing protein&lt;br&gt;Location: 122602 - 123003&lt;br&gt;&lt;br&gt;&lt;b&gt;BlastP hit with ctg6_182&lt;/b&gt;&lt;br&gt;Percentage identity: 80&lt;br&gt;Percentage coverage: 100&lt;br&gt;BLAST bit score: 218&lt;br&gt;E-value: 3.4e-55" locus_tag="PMI21_RS27400" class="clusterblast-orf" id="dummy-1_h1_8_36"  />
</g>
<g id="a1_0037"  >
<polygon points="675,85 680,80 686,80 686,90 680,90 675,85 " style="fill:#15d8c5; stroke-width:1; stroke:black; " description="&lt;b&gt;PMI21_RS27395&lt;/b&gt;&lt;br&gt;quinohemoprotein amine dehydrogenase subunit beta&lt;br&gt;Location: 123086 - 124204&lt;br&gt;&lt;br&gt;&lt;b&gt;BlastP hit with ctg6_183&lt;/b&gt;&lt;br&gt;Percentage identity: 94&lt;br&gt;Percentage coverage: 100&lt;br&gt;BLAST bit score: 731&lt;br&gt;E-value: 4.3e-209" locus_tag="PMI21_RS27395" class="clusterblast-orf" id="dummy-1_h1_8_37"  />
</g>
<g id="a1_0038"  >
<polygon points="686,85 689,80 689,90 686,85 " style="fill:#6d15d8; stroke-width:1; stroke:black; " description="&lt;b&gt;PMI21_RS27390&lt;/b&gt;&lt;br&gt;Quinohemoprotein amine dehydrogenase gamma subunit&lt;br&gt;Location: 124228 - 124551&lt;br&gt;&lt;br&gt;&lt;b&gt;BlastP hit with ctg6_184&lt;/b&gt;&lt;br&gt;Percentage identity: 95&lt;br&gt;Percentage coverage: 100&lt;br&gt;BLAST bit score: 222&lt;br&gt;E-value: 3.2e-56" locus_tag="PMI21_RS27390" class="clusterblast-orf" id="dummy-1_h1_8_38"  />
</g>
<g id="a1_0039"  >
<polygon points="689,85 694,80 702,80 702,90 694,90 689,85 " style="fill:white; stroke-width:1; stroke:black; " description="&lt;b&gt;PMI21_RS27385&lt;/b&gt;&lt;br&gt;quinohemoprotein amine dehydrogenase maturation protein&lt;br&gt;Location: 124553 - 125983" locus_tag="PMI21_RS27385" class="clusterblast-orf" id="dummy-1_h1_8_39"  />
</g>
<g id="a1_0040"  >
<polygon points="703,85 708,80 718,80 718,90 708,90 703,85 " style="fill:white; stroke-width:1; stroke:black; " description="&lt;b&gt;PMI21_RS27380&lt;/b&gt;&lt;br&gt;quinohemoprotein amine dehydrogenase subunit alpha&lt;br&gt;Location: 126065 - 127645" locus_tag="PMI21_RS27380" class="clusterblast-orf" id="dummy-1_h1_8_40"  />
</g>
<g id="a1_0041"  >
<polygon points="721,90 725,85 721,80 721,90 " style="fill:white; stroke-width:1; stroke:black; " description="&lt;b&gt;PMI21_RS27375&lt;/b&gt;&lt;br&gt;hypothetical protein&lt;br&gt;Location: 127991 - 128347" locus_tag="PMI21_RS27375" class="clusterblast-orf" id="dummy-1_h1_8_41"  />
</g>
<g id="a1_0042"  >
<polygon points="725,85 727,80 727,90 725,85 " style="fill:white; stroke-width:1; stroke:black; " description="&lt;b&gt;PMI21_RS27370&lt;/b&gt;&lt;br&gt;DUF1652 domain-containing protein&lt;br&gt;Location: 128396 - 128650" locus_tag="PMI21_RS27370" class="clusterblast-orf" id="dummy-1_h1_8_42"  />
</g>
<g id="a1_0043"  >
<polygon points="730,90 739,90 744,85 739,80 730,80 730,90 " style="fill:white; stroke-width:1; stroke:black; " description="&lt;b&gt;PMI21_RS27365&lt;/b&gt;&lt;br&gt;aldehyde dehydrogenase&lt;br&gt;Location: 128935 - 130425" locus_tag="PMI21_RS27365" class="clusterblast-orf" id="dummy-1_h1_8_43"  />
</g>
<g id="a1_0044"  >
<polygon points="745,85 750,80 757,80 757,90 750,90 745,85 " style="fill:white; stroke-width:1; stroke:black; " description="&lt;b&gt;PMI21_RS27360&lt;/b&gt;&lt;br&gt;flavin-dependent dehydrogenase&lt;br&gt;Location: 130515 - 131810" locus_tag="PMI21_RS27360" class="clusterblast-orf" id="dummy-1_h1_8_44"  />
</g>
<g id="a1_0045"  >
<polygon points="757,85 762,80 763,80 763,90 762,90 757,85 " style="fill:white; stroke-width:1; stroke:black; " description="&lt;b&gt;PMI21_RS27355&lt;/b&gt;&lt;br&gt;hypothetical protein&lt;br&gt;Location: 131807 - 132484" locus_tag="PMI21_RS27355" class="clusterblast-orf" id="dummy-1_h1_8_45"  />
</g>
<g id="a1_0046"  >
<polygon points="763,85 768,80 780,80 780,90 768,90 763,85 " style="fill:white; stroke-width:1; stroke:black; " description="&lt;b&gt;PMI21_RS27350&lt;/b&gt;&lt;br&gt;ABC transporter ATP-binding protein&lt;br&gt;Location: 132474 - 134192" locus_tag="PMI21_RS27350" class="clusterblast-orf" id="dummy-1_h1_8_46"  />
</g>
</svg>
