<svg xmlns="http://www.w3.org/2000/svg" xmlns:xlink="http://www.w3.org/1999/xlink" version="1.1" x="0" y="0" height="230" width="800" viewBox="0 0 800 230" preserveAspectRatio="none"  >
<g label="Query sequence" class="clusterblast-cluster"  >
<text x="5" y="20" class="clusterblast-acc"  >
Query sequence</text>
<line x1="10" y1="35" x2="778.0" y2="35" style="stroke-width:1; stroke:grey; "  />
<polygon points="211,40 213,40 218,35 213,30 211,30 211,40 " style="fill:white; stroke-width:1; stroke:black; " description="&lt;b&gt;ctg3_16&lt;/b&gt;&lt;br&gt;ctg3 16&lt;br&gt;Location: 14210 - 14657" locus_tag="ctg3_16" class="clusterblast-orf" id="dummy-1_q0_0_all"  />
<polygon points="218,35 223,30 237,30 237,40 223,40 218,35 " style="fill:white; stroke-width:1; stroke:black; " description="&lt;b&gt;ctg3_17&lt;/b&gt;&lt;br&gt;ctg3 17&lt;br&gt;Location: 14694 - 15846" locus_tag="ctg3_17" class="clusterblast-orf" id="dummy-1_q1_0_all"  />
<polygon points="244,35 249,30 250,30 250,40 249,40 244,35 " style="fill:white; stroke-width:1; stroke:black; " description="&lt;b&gt;ctg3_18&lt;/b&gt;&lt;br&gt;ctg3 18&lt;br&gt;Location: 16328 - 16670" locus_tag="ctg3_18" class="clusterblast-orf" id="dummy-1_q2_0_all"  />
<polygon points="252,40 257,40 262,35 257,30 252,30 252,40 " style="fill:white; stroke-width:1; stroke:black; " description="&lt;b&gt;ctg3_19&lt;/b&gt;&lt;br&gt;ctg3 19&lt;br&gt;Location: 16800 - 17451" locus_tag="ctg3_19" class="clusterblast-orf" id="dummy-1_q3_0_all"  />
<polygon points="262,35 267,30 293,30 293,40 267,40 262,35 " style="fill:#d81515; stroke-width:1; stroke:black; " description="&lt;b&gt;ctg3_20&lt;/b&gt;&lt;br&gt;ctg3 20&lt;br&gt;Location: 17490 - 19440" locus_tag="ctg3_20" class="clusterblast-orf" id="dummy-1_q4_0_all"  />
<polygon points="293,35 298,30 306,30 306,40 298,40 293,35 " style="fill:#77d815; stroke-width:1; stroke:black; " description="&lt;b&gt;ctg3_21&lt;/b&gt;&lt;br&gt;ctg3 21&lt;br&gt;Location: 19439 - 20252" locus_tag="ctg3_21" class="clusterblast-orf" id="dummy-1_q5_0_all"  />
<polygon points="308,35 313,30 333,30 333,40 313,40 308,35 " style="fill:#15d8d8; stroke-width:1; stroke:black; " description="&lt;b&gt;ctg3_22&lt;/b&gt;&lt;br&gt;ctg3 22&lt;br&gt;Location: 20357 - 21965" locus_tag="ctg3_22" class="clusterblast-orf" id="dummy-1_q6_0_all"  />
<polygon points="333,35 338,30 351,30 351,40 338,40 333,35 " style="fill:#7715d8; stroke-width:1; stroke:black; " description="&lt;b&gt;ctg3_23&lt;/b&gt;&lt;br&gt;ctg3 23&lt;br&gt;Location: 21977 - 23141" locus_tag="ctg3_23" class="clusterblast-orf" id="dummy-1_q7_0_all"  />
<polygon points="357,40 378,40 383,35 378,30 357,30 357,40 " style="fill:#d8a715; stroke-width:1; stroke:black; " description="&lt;b&gt;ctg3_24&lt;/b&gt;&lt;br&gt;ctg3 24&lt;br&gt;Location: 23480 - 25178" locus_tag="ctg3_24" class="clusterblast-orf" id="dummy-1_q8_0_all"  />
<polygon points="386,35 391,30 397,30 397,40 391,40 386,35 " style="fill:white; stroke-width:1; stroke:black; " description="&lt;b&gt;ctg3_25&lt;/b&gt;&lt;br&gt;ctg3 25&lt;br&gt;Location: 25316 - 26069" locus_tag="ctg3_25" class="clusterblast-orf" id="dummy-1_q9_0_all"  />
<polygon points="399,35 404,30 414,30 414,40 404,40 399,35 " style="fill:#15d846; stroke-width:1; stroke:black; " description="&lt;b&gt;ctg3_26&lt;/b&gt;&lt;br&gt;ctg3 26&lt;br&gt;Location: 26190 - 27093" locus_tag="ctg3_26" class="clusterblast-orf" id="dummy-1_q10_0_all"  />
<polygon points="424,35 429,30 438,30 438,40 429,40 424,35 " style="fill:#1546d8; stroke-width:1; stroke:black; " description="&lt;b&gt;ctg3_27&lt;/b&gt;&lt;br&gt;ctg3 27&lt;br&gt;Location: 27727 - 28627" locus_tag="ctg3_27" class="clusterblast-orf" id="dummy-1_q11_0_all"  />
<polygon points="440,35 445,30 446,30 446,40 445,40 440,35 " style="fill:#d815a7; stroke-width:1; stroke:black; " description="&lt;b&gt;ctg3_28&lt;/b&gt;&lt;br&gt;ctg3 28&lt;br&gt;Location: 28763 - 29165" locus_tag="ctg3_28" class="clusterblast-orf" id="dummy-1_q12_0_all"  />
<polygon points="450,35 455,30 464,30 464,40 455,40 450,35 " style="fill:white; stroke-width:1; stroke:black; " description="&lt;b&gt;ctg3_29&lt;/b&gt;&lt;br&gt;ctg3 29&lt;br&gt;Location: 29378 - 30308" locus_tag="ctg3_29" class="clusterblast-orf" id="dummy-1_q13_0_all"  />
<polygon points="467,40 481,40 486,35 481,30 467,30 467,40 " style="fill:#7715d8; stroke-width:1; stroke:black; " description="&lt;b&gt;ctg3_30&lt;/b&gt;&lt;br&gt;ctg3 30&lt;br&gt;Location: 30462 - 31692" locus_tag="ctg3_30" class="clusterblast-orf" id="dummy-1_q14_0_all"  />
<polygon points="488,35 493,30 509,30 509,40 493,40 488,35 " style="fill:white; stroke-width:1; stroke:black; " description="&lt;b&gt;ctg3_31&lt;/b&gt;&lt;br&gt;ctg3 31&lt;br&gt;Location: 31846 - 33187" locus_tag="ctg3_31" class="clusterblast-orf" id="dummy-1_q15_0_all"  />
<polygon points="513,35 518,30 525,30 525,40 518,40 513,35 " style="fill:white; stroke-width:1; stroke:black; " description="&lt;b&gt;ctg3_32&lt;/b&gt;&lt;br&gt;ctg3 32&lt;br&gt;Location: 33379 - 34192" locus_tag="ctg3_32" class="clusterblast-orf" id="dummy-1_q16_0_all"  />
<polygon points="530,40 535,40 540,35 535,30 530,30 530,40 " style="fill:white; stroke-width:1; stroke:black; " description="&lt;b&gt;ctg3_33&lt;/b&gt;&lt;br&gt;ctg3 33&lt;br&gt;Location: 34490 - 35141" locus_tag="ctg3_33" class="clusterblast-orf" id="dummy-1_q17_0_all"  />
<polygon points="542,40 563,40 568,35 563,30 542,30 542,40 " style="fill:white; stroke-width:1; stroke:black; " description="&lt;b&gt;ctg3_34&lt;/b&gt;&lt;br&gt;ctg3 34&lt;br&gt;Location: 35242 - 36934" locus_tag="ctg3_34" class="clusterblast-orf" id="dummy-1_q18_0_all"  />
</g>
<g label="NZ_CP014864" description="NZ_CP014864_c1: Microbulbifer thermotolerans strain DAU221 chromosome, comple... (14% of genes show similarity), nrps" class="clusterblast-cluster"  >
<text x="5" y="70" class="clusterblast-acc"  >
<a xlink:href="https://antismash-db.secondarymetabolites.org/go/NZ_CP014864/1" target="_blank">NZ_CP014864_c1</a>: Microbulbifer thermotolerans strain DAU221 chromosome, comple... (14% of genes show similarity), nrps</text>
<line x1="10" y1="85" x2="778.0" y2="85" style="stroke-width:1; stroke:grey; "  />
</g>
<g id="a1_000"  >
<polygon points="0,85 5,80 19,80 19,90 5,90 0,85 " style="fill:white; stroke-width:1; stroke:black; " description="&lt;b&gt;A3224_RS01665&lt;/b&gt;&lt;br&gt;DUF945 domain-containing protein&lt;br&gt;Location: 414810 - 413572" locus_tag="A3224_RS01665" class="clusterblast-orf" id="dummy-1_h1_8_0"  />
</g>
<g id="a1_001"  >
<polygon points="22,85 27,80 36,80 36,90 27,90 22,85 " style="fill:#1546d8; stroke-width:1; stroke:black; " description="&lt;b&gt;A3224_RS01660&lt;/b&gt;&lt;br&gt;hydroxymethylglutaryl-CoA lyase&lt;br&gt;Location: 413412 - 412516&lt;br&gt;&lt;br&gt;&lt;b&gt;BlastP hit with ctg3_27&lt;/b&gt;&lt;br&gt;Percentage identity: 68&lt;br&gt;Percentage coverage: 99&lt;br&gt;BLAST bit score: 399&lt;br&gt;E-value: 4.1e-109" locus_tag="A3224_RS01660" class="clusterblast-orf" id="dummy-1_h1_8_1"  />
</g>
<g id="a1_002"  >
<polygon points="36,85 41,80 67,80 67,90 41,90 36,85 " style="fill:#d81515; stroke-width:1; stroke:black; " description="&lt;b&gt;A3224_RS01655&lt;/b&gt;&lt;br&gt;acetyl/propionyl/methylcrotonyl-CoA carboxylase subunit alpha&lt;br&gt;Location: 412513 - 410516&lt;br&gt;&lt;br&gt;&lt;b&gt;BlastP hit with ctg3_20&lt;/b&gt;&lt;br&gt;Percentage identity: 51&lt;br&gt;Percentage coverage: 103&lt;br&gt;BLAST bit score: 611&lt;br&gt;E-value: 1.5e-172" locus_tag="A3224_RS01655" class="clusterblast-orf" id="dummy-1_h1_8_2"  />
</g>
<g id="a1_003"  >
<polygon points="67,85 72,80 80,80 80,90 72,90 67,85 " style="fill:#77d815; stroke-width:1; stroke:black; " description="&lt;b&gt;A3224_RS01650&lt;/b&gt;&lt;br&gt;gamma-carboxygeranoyl-CoA hydratase&lt;br&gt;Location: 410505 - 409708&lt;br&gt;&lt;br&gt;&lt;b&gt;BlastP hit with ctg3_21&lt;/b&gt;&lt;br&gt;Percentage identity: 49&lt;br&gt;Percentage coverage: 96&lt;br&gt;BLAST bit score: 241&lt;br&gt;E-value: 9.8e-62" locus_tag="A3224_RS01650" class="clusterblast-orf" id="dummy-1_h1_8_3"  />
</g>
<g id="a1_004"  >
<polygon points="81,85 86,80 106,80 106,90 86,90 81,85 " style="fill:#15d8d8; stroke-width:1; stroke:black; " description="&lt;b&gt;A3224_RS01645&lt;/b&gt;&lt;br&gt;methylcrotonoyl-CoA carboxylase&lt;br&gt;Location: 409624 - 408017&lt;br&gt;&lt;br&gt;&lt;b&gt;BlastP hit with ctg3_22&lt;/b&gt;&lt;br&gt;Percentage identity: 73&lt;br&gt;Percentage coverage: 99&lt;br&gt;BLAST bit score: 790&lt;br&gt;E-value: 1.5e-226" locus_tag="A3224_RS01645" class="clusterblast-orf" id="dummy-1_h1_8_4"  />
</g>
<g id="a1_005"  >
<polygon points="107,85 112,80 125,80 125,90 112,90 107,85 " style="fill:#7715d8; stroke-width:1; stroke:black; " description="&lt;b&gt;A3224_RS01640&lt;/b&gt;&lt;br&gt;isovaleryl-CoA dehydrogenase&lt;br&gt;Location: 407981 - 406812&lt;br&gt;&lt;br&gt;&lt;b&gt;BlastP hit with ctg3_23&lt;/b&gt;&lt;br&gt;Percentage identity: 76&lt;br&gt;Percentage coverage: 99&lt;br&gt;BLAST bit score: 618&lt;br&gt;E-value: 7.2e-175" locus_tag="A3224_RS01640" class="clusterblast-orf" id="dummy-1_h1_8_5"  />
</g>
<g id="a1_006"  >
<polygon points="126,85 131,80 132,80 132,90 131,90 126,85 " style="fill:#d815a7; stroke-width:1; stroke:black; " description="&lt;b&gt;A3224_RS01635&lt;/b&gt;&lt;br&gt;MerR family transcriptional regulator&lt;br&gt;Location: 406787 - 406383&lt;br&gt;&lt;br&gt;&lt;b&gt;BlastP hit with ctg3_28&lt;/b&gt;&lt;br&gt;Percentage identity: 64&lt;br&gt;Percentage coverage: 90&lt;br&gt;BLAST bit score: 151&lt;br&gt;E-value: 8.6e-35" locus_tag="A3224_RS01635" class="clusterblast-orf" id="dummy-1_h1_8_6"  />
</g>
<g id="a1_007"  >
<polygon points="136,85 141,80 153,80 153,90 141,90 136,85 " style="fill:white; stroke-width:1; stroke:black; " description="&lt;b&gt;A3224_RS01630&lt;/b&gt;&lt;br&gt;hypothetical protein&lt;br&gt;Location: 406161 - 405073" locus_tag="A3224_RS01630" class="clusterblast-orf" id="dummy-1_h1_8_7"  />
</g>
<g id="a1_008"  >
<polygon points="154,90 167,90 172,85 167,80 154,80 154,90 " style="fill:white; stroke-width:1; stroke:black; " description="&lt;b&gt;A3224_RS01625&lt;/b&gt;&lt;br&gt;phosphoserine phosphatase SerB&lt;br&gt;Location: 404970 - 403849" locus_tag="A3224_RS01625" class="clusterblast-orf" id="dummy-1_h1_8_8"  />
</g>
<g id="a1_009"  >
<polygon points="176,85 181,80 207,80 207,90 181,90 176,85 " style="fill:white; stroke-width:1; stroke:black; " description="&lt;b&gt;A3224_RS01620&lt;/b&gt;&lt;br&gt;M1 family peptidase&lt;br&gt;Location: 403607 - 401655" locus_tag="A3224_RS01620" class="clusterblast-orf" id="dummy-1_h1_8_9"  />
</g>
<g id="a1_0010"  >
<polygon points="208,85 213,80 241,80 241,90 213,90 208,85 " style="fill:white; stroke-width:1; stroke:black; " description="&lt;b&gt;A3224_RS01615&lt;/b&gt;&lt;br&gt;diguanylate cyclase&lt;br&gt;Location: 401558 - 399471" locus_tag="A3224_RS01615" class="clusterblast-orf" id="dummy-1_h1_8_10"  />
</g>
<g id="a1_0011"  >
<polygon points="243,85 248,80 259,80 259,90 248,90 243,85 " style="fill:white; stroke-width:1; stroke:black; " description="&lt;b&gt;A3224_RS01610&lt;/b&gt;&lt;br&gt;EF-P beta-lysylation protein EpmB&lt;br&gt;Location: 399319 - 398303" locus_tag="A3224_RS01610" class="clusterblast-orf" id="dummy-1_h1_8_11"  />
</g>
<g id="a1_0012"  >
<polygon points="267,90 280,90 285,85 280,80 267,80 267,90 " style="fill:white; stroke-width:1; stroke:black; " description="&lt;b&gt;A3224_RS01605&lt;/b&gt;&lt;br&gt;3-dehydroquinate synthase&lt;br&gt;Location: 397781 - 396672" locus_tag="A3224_RS01605" class="clusterblast-orf" id="dummy-1_h1_8_12"  />
</g>
<g id="a1_0013"  >
<polygon points="286,90 299,90 304,85 299,80 286,80 286,90 " style="fill:white; stroke-width:1; stroke:black; " description="&lt;b&gt;A3224_RS01600&lt;/b&gt;&lt;br&gt;hypothetical protein&lt;br&gt;Location: 396598 - 395489" locus_tag="A3224_RS01600" class="clusterblast-orf" id="dummy-1_h1_8_13"  />
</g>
<g id="a1_0014"  >
<polygon points="304,90 321,90 326,85 321,80 304,80 304,90 " style="fill:white; stroke-width:1; stroke:black; " description="&lt;b&gt;A3224_RS01595&lt;/b&gt;&lt;br&gt;hypothetical protein&lt;br&gt;Location: 395478 - 394069" locus_tag="A3224_RS01595" class="clusterblast-orf" id="dummy-1_h1_8_14"  />
</g>
<g id="a1_0015"  >
<polygon points="326,90 349,90 354,85 349,80 326,80 326,90 " style="fill:white; stroke-width:1; stroke:black; " description="&lt;b&gt;A3224_RS01590&lt;/b&gt;&lt;br&gt;long-chain fatty acid--CoA ligase&lt;br&gt;Location: 394061 - 392283" locus_tag="A3224_RS01590" class="clusterblast-orf" id="dummy-1_h1_8_15"  />
</g>
<g id="a1_0016"  >
<polygon points="354,90 369,90 374,85 369,80 354,80 354,90 " style="fill:white; stroke-width:1; stroke:black; " description="&lt;b&gt;A3224_RS01585&lt;/b&gt;&lt;br&gt;hypothetical protein&lt;br&gt;Location: 392313 - 391042" locus_tag="A3224_RS01585" class="clusterblast-orf" id="dummy-1_h1_8_16"  />
</g>
<g id="a1_0017"  >
<polygon points="374,90 381,90 386,85 381,80 374,80 374,90 " style="fill:white; stroke-width:1; stroke:black; " description="&lt;b&gt;A3224_RS01580&lt;/b&gt;&lt;br&gt;ABC transporter ATP-binding protein&lt;br&gt;Location: 391005 - 390268" locus_tag="A3224_RS01580" class="clusterblast-orf" id="dummy-1_h1_8_17"  />
</g>
<g id="a1_0018"  >
<polygon points="386,90 412,90 417,85 412,80 386,80 386,90 " style="fill:white; stroke-width:1; stroke:black; " description="&lt;b&gt;A3224_RS01575&lt;/b&gt;&lt;br&gt;hypothetical protein&lt;br&gt;Location: 390268 - 388292" locus_tag="A3224_RS01575" class="clusterblast-orf" id="dummy-1_h1_8_18"  />
</g>
<g id="a1_0019"  >
<polygon points="417,90 433,90 438,85 433,80 417,80 417,90 " style="fill:white; stroke-width:1; stroke:black; " description="&lt;b&gt;A3224_RS01570&lt;/b&gt;&lt;br&gt;ABC transporter permease&lt;br&gt;Location: 388257 - 386959" locus_tag="A3224_RS01570" class="clusterblast-orf" id="dummy-1_h1_8_19"  />
</g>
<g id="a1_0020"  >
<polygon points="438,90 446,90 451,85 446,80 438,80 438,90 " style="fill:white; stroke-width:1; stroke:black; " description="&lt;b&gt;A3224_RS01565&lt;/b&gt;&lt;br&gt;aldolase&lt;br&gt;Location: 386925 - 386104" locus_tag="A3224_RS01565" class="clusterblast-orf" id="dummy-1_h1_8_20"  />
</g>
<g id="a1_0021"  >
<polygon points="452,90 471,90 476,85 471,80 452,80 452,90 " style="fill:white; stroke-width:1; stroke:black; " description="&lt;b&gt;A3224_RS01560&lt;/b&gt;&lt;br&gt;hypothetical protein&lt;br&gt;Location: 386045 - 384507" locus_tag="A3224_RS01560" class="clusterblast-orf" id="dummy-1_h1_8_21"  />
</g>
<g id="a1_0022"  >
<polygon points="476,85 481,80 488,80 488,90 481,90 476,85 " style="fill:white; stroke-width:1; stroke:black; " description="&lt;b&gt;A3224_RS01555&lt;/b&gt;&lt;br&gt;LuxR family transcriptional regulator&lt;br&gt;Location: 384510 - 383782" locus_tag="A3224_RS01555" class="clusterblast-orf" id="dummy-1_h1_8_22"  />
</g>
<g id="a1_0023"  >
<polygon points="491,90 497,90 502,85 497,80 491,80 491,90 " style="fill:white; stroke-width:1; stroke:black; " description="&lt;b&gt;A3224_RS01550&lt;/b&gt;&lt;br&gt;iron-containing redox enzyme family protein&lt;br&gt;Location: 383595 - 382867" locus_tag="A3224_RS01550" class="clusterblast-orf" id="dummy-1_h1_8_23"  />
</g>
<g id="a1_0024"  >
<polygon points="503,90 510,90 515,85 510,80 503,80 503,90 " style="fill:white; stroke-width:1; stroke:black; " description="&lt;b&gt;A3224_RS01545&lt;/b&gt;&lt;br&gt;aldolase&lt;br&gt;Location: 382832 - 382035" locus_tag="A3224_RS01545" class="clusterblast-orf" id="dummy-1_h1_8_24"  />
</g>
<g id="a1_0025"  >
<polygon points="516,90 521,90 526,85 521,80 516,80 516,90 " style="fill:white; stroke-width:1; stroke:black; " description="&lt;b&gt;A3224_RS01540&lt;/b&gt;&lt;br&gt;hypothetical protein&lt;br&gt;Location: 381979 - 381368" locus_tag="A3224_RS01540" class="clusterblast-orf" id="dummy-1_h1_8_25"  />
</g>
<g id="a1_0026"  >
<polygon points="527,90 531,90 536,85 531,80 527,80 527,90 " style="fill:white; stroke-width:1; stroke:black; " description="&lt;b&gt;A3224_RS01535&lt;/b&gt;&lt;br&gt;elongation factor P&lt;br&gt;Location: 381289 - 380717" locus_tag="A3224_RS01535" class="clusterblast-orf" id="dummy-1_h1_8_26"  />
</g>
<g id="a1_0027"  >
<polygon points="538,90 548,90 553,85 548,80 538,80 538,90 " style="fill:white; stroke-width:1; stroke:black; " description="&lt;b&gt;A3224_RS01530&lt;/b&gt;&lt;br&gt;EF-P lysine aminoacylase GenX&lt;br&gt;Location: 380611 - 379658" locus_tag="A3224_RS01530" class="clusterblast-orf" id="dummy-1_h1_8_27"  />
</g>
<g id="a1_0028"  >
<polygon points="554,85 559,80 566,80 566,90 559,90 554,85 " style="fill:white; stroke-width:1; stroke:black; " description="&lt;b&gt;A3224_RS01525&lt;/b&gt;&lt;br&gt;N-acetyltransferase&lt;br&gt;Location: 379592 - 378792" locus_tag="A3224_RS01525" class="clusterblast-orf" id="dummy-1_h1_8_28"  />
</g>
<g id="a1_0029"  >
<polygon points="567,85 572,80 580,80 580,90 572,90 567,85 " style="fill:white; stroke-width:1; stroke:black; " description="&lt;b&gt;A3224_RS01520&lt;/b&gt;&lt;br&gt;serine O-acetyltransferase&lt;br&gt;Location: 378737 - 377916" locus_tag="A3224_RS01520" class="clusterblast-orf" id="dummy-1_h1_8_29"  />
</g>
<g id="a1_0030"  >
<polygon points="587,90 600,90 605,85 600,80 587,80 587,90 " style="fill:white; stroke-width:1; stroke:black; " description="&lt;b&gt;A3224_RS01515&lt;/b&gt;&lt;br&gt;hypothetical protein&lt;br&gt;Location: 377451 - 376327" locus_tag="A3224_RS01515" class="clusterblast-orf" id="dummy-1_h1_8_30"  />
</g>
<g id="a1_0031"  >
<polygon points="606,85 611,80 617,80 617,90 611,90 606,85 " style="fill:white; stroke-width:1; stroke:black; " description="&lt;b&gt;A3224_RS01510&lt;/b&gt;&lt;br&gt;hypothetical protein&lt;br&gt;Location: 376269 - 375547" locus_tag="A3224_RS01510" class="clusterblast-orf" id="dummy-1_h1_8_31"  />
</g>
<g id="a1_0032"  >
<polygon points="623,85 628,80 638,80 638,90 628,90 623,85 " style="fill:white; stroke-width:1; stroke:black; " description="&lt;b&gt;A3224_RS01505&lt;/b&gt;&lt;br&gt;serine/threonine protein kinase&lt;br&gt;Location: 375209 - 374223" locus_tag="A3224_RS01505" class="clusterblast-orf" id="dummy-1_h1_8_32"  />
</g>
<g id="a1_0033"  >
<polygon points="640,85 645,80 675,80 675,90 645,90 640,85 " style="fill:white; stroke-width:1; stroke:black; " description="&lt;b&gt;A3224_RS01500&lt;/b&gt;&lt;br&gt;catalase/peroxidase HPI&lt;br&gt;Location: 374084 - 371871" locus_tag="A3224_RS01500" class="clusterblast-orf" id="dummy-1_h1_8_33"  />
</g>
<g id="a1_0034"  >
<polygon points="678,85 683,80 684,80 684,90 683,90 678,85 " style="fill:white; stroke-width:1; stroke:black; " description="&lt;b&gt;A3224_RS01495&lt;/b&gt;&lt;br&gt;hypothetical protein&lt;br&gt;Location: 371707 - 371327" locus_tag="A3224_RS01495" class="clusterblast-orf" id="dummy-1_h1_8_34"  />
</g>
<g id="a1_0035"  >
<polygon points="685,85 690,80 691,80 691,90 690,90 685,85 " style="fill:white; stroke-width:1; stroke:black; " description="&lt;b&gt;A3224_RS01490&lt;/b&gt;&lt;br&gt;VOC family protein&lt;br&gt;Location: 371245 - 370868" locus_tag="A3224_RS01490" class="clusterblast-orf" id="dummy-1_h1_8_35"  />
</g>
<g id="a1_0036"  >
<polygon points="694,85 699,80 700,80 700,90 699,90 694,85 " style="fill:white; stroke-width:1; stroke:black; " description="&lt;b&gt;A3224_RS01485&lt;/b&gt;&lt;br&gt;hypothetical protein&lt;br&gt;Location: 370689 - 370276" locus_tag="A3224_RS01485" class="clusterblast-orf" id="dummy-1_h1_8_36"  />
</g>
<g id="a1_0037"  >
<polygon points="707,85 712,80 738,80 738,90 712,90 707,85 " style="fill:white; stroke-width:1; stroke:black; " description="&lt;b&gt;A3224_RS01480&lt;/b&gt;&lt;br&gt;acetate--CoA ligase&lt;br&gt;Location: 369834 - 367897" locus_tag="A3224_RS01480" class="clusterblast-orf" id="dummy-1_h1_8_37"  />
</g>
<g id="a1_0038"  >
<polygon points="743,85 748,80 749,80 749,90 748,90 743,85 " style="fill:white; stroke-width:1; stroke:black; " description="&lt;b&gt;A3224_RS01475&lt;/b&gt;&lt;br&gt;aspartate 1-decarboxylase&lt;br&gt;Location: 367571 - 367185" locus_tag="A3224_RS01475" class="clusterblast-orf" id="dummy-1_h1_8_38"  />
</g>
<g id="a1_0039"  >
<polygon points="749,85 754,80 763,80 763,90 754,90 749,85 " style="fill:white; stroke-width:1; stroke:black; " description="&lt;b&gt;A3224_RS01470&lt;/b&gt;&lt;br&gt;pantoate--beta-alanine ligase&lt;br&gt;Location: 367162 - 366314" locus_tag="A3224_RS01470" class="clusterblast-orf" id="dummy-1_h1_8_39"  />
</g>
<g id="a1_0040"  >
<polygon points="769,90 774,90 779,85 774,80 769,80 769,90 " style="fill:white; stroke-width:1; stroke:black; " description="&lt;b&gt;A3224_RS01465&lt;/b&gt;&lt;br&gt;hypothetical protein&lt;br&gt;Location: 365911 - 365246" locus_tag="A3224_RS01465" class="clusterblast-orf" id="dummy-1_h1_8_40"  />
</g>
</svg>
