<svg xmlns="http://www.w3.org/2000/svg" xmlns:xlink="http://www.w3.org/1999/xlink" version="1.1" x="0" y="0" height="230" width="800" viewBox="0 0 800 230" preserveAspectRatio="none"  >
<g label="Query sequence" class="clusterblast-cluster"  >
<text x="5" y="20" class="clusterblast-acc"  >
Query sequence</text>
<line x1="10" y1="35" x2="778.0" y2="35" style="stroke-width:1; stroke:grey; "  />
<polygon points="0,40 299,40 304,35 299,30 0,30 0,40 " style="fill:#d81515; stroke-width:1; stroke:black; " description="&lt;b&gt;ctg4_577&lt;/b&gt;&lt;br&gt;ctg4 577&lt;br&gt;Location: 680926 - 689050" locus_tag="ctg4_577" class="clusterblast-orf" id="dummy-2_q0_0_all"  />
<polygon points="310,40 318,40 323,35 318,30 310,30 310,40 " style="fill:#3cd815; stroke-width:1; stroke:black; " description="&lt;b&gt;ctg4_578&lt;/b&gt;&lt;br&gt;ctg4 578&lt;br&gt;Location: 689198 - 689537" locus_tag="ctg4_578" class="clusterblast-orf" id="dummy-2_q1_0_all"  />
<polygon points="328,35 333,30 401,30 401,40 333,40 328,35 " style="fill:#1563d8; stroke-width:1; stroke:black; " description="&lt;b&gt;ctg4_579&lt;/b&gt;&lt;br&gt;ctg4 579&lt;br&gt;Location: 689672 - 691619" locus_tag="ctg4_579" class="clusterblast-orf" id="dummy-2_q2_0_all"  />
<polygon points="401,35 406,30 427,30 427,40 406,40 401,35 " style="fill:#b115d8; stroke-width:1; stroke:black; " description="&lt;b&gt;ctg4_580&lt;/b&gt;&lt;br&gt;ctg4 580&lt;br&gt;Location: 691633 - 692326" locus_tag="ctg4_580" class="clusterblast-orf" id="dummy-2_q3_0_all"  />
<polygon points="437,40 459,40 464,35 459,30 437,30 437,40 " style="fill:#d88a15; stroke-width:1; stroke:black; " description="&lt;b&gt;ctg4_581&lt;/b&gt;&lt;br&gt;ctg4 581&lt;br&gt;Location: 692593 - 693304" locus_tag="ctg4_581" class="clusterblast-orf" id="dummy-2_q4_0_all"  />
<polygon points="493,40 517,40 522,35 517,30 493,30 493,40 " style="fill:#15d863; stroke-width:1; stroke:black; " description="&lt;b&gt;ctg4_582&lt;/b&gt;&lt;br&gt;ctg4 582&lt;br&gt;Location: 694088 - 694865" locus_tag="ctg4_582" class="clusterblast-orf" id="dummy-2_q5_0_all"  />
<polygon points="522,40 552,40 557,35 552,30 522,30 522,40 " style="fill:#3c15d8; stroke-width:1; stroke:black; " description="&lt;b&gt;ctg4_583&lt;/b&gt;&lt;br&gt;ctg4 583&lt;br&gt;Location: 694861 - 695791" locus_tag="ctg4_583" class="clusterblast-orf" id="dummy-2_q6_0_all"  />
<polygon points="558,40 681,40 686,35 681,30 558,30 558,40 " style="fill:#d8158a; stroke-width:1; stroke:black; " description="&lt;b&gt;ctg4_584&lt;/b&gt;&lt;br&gt;ctg4 584&lt;br&gt;Location: 695804 - 699215" locus_tag="ctg4_584" class="clusterblast-orf" id="dummy-2_q7_0_all"  />
<polygon points="686,40 699,40 704,35 699,30 686,30 686,40 " style="fill:#b1d815; stroke-width:1; stroke:black; " description="&lt;b&gt;ctg4_585&lt;/b&gt;&lt;br&gt;ctg4 585&lt;br&gt;Location: 699237 - 699705" locus_tag="ctg4_585" class="clusterblast-orf" id="dummy-2_q8_0_all"  />
<polygon points="709,35 714,30 780,30 780,40 714,40 709,35 " style="fill:#15d8d8; stroke-width:1; stroke:black; " description="&lt;b&gt;ctg4_586&lt;/b&gt;&lt;br&gt;ctg4 586&lt;br&gt;Location: 699851 - 701732" locus_tag="ctg4_586" class="clusterblast-orf" id="dummy-2_q9_0_all"  />
</g>
<g label="NZ_KB907445" description="NZ_KB907445_c10: Pseudomonas sp. 45MFCol3.1 G368DRAFT scaffold00017.17, whole... (100% of genes show similarity), other" class="clusterblast-cluster"  >
<text x="5" y="70" class="clusterblast-acc"  >
<a xlink:href="https://antismash-db.secondarymetabolites.org/go/NZ_KB907445/10" target="_blank">NZ_KB907445_c10</a>: Pseudomonas sp. 45MFCol3.1 G368DRAFT scaffold00017.17, whole... (100% of genes show similarity), other</text>
<line x1="10" y1="85" x2="778.0" y2="85" style="stroke-width:1; stroke:grey; "  />
</g>
<g id="a2_000"  >
<polygon points="59,90 244,90 249,85 244,80 59,80 59,90 " style="fill:#d81515; stroke-width:1; stroke:black; " description="&lt;b&gt;G368_RS0129915&lt;/b&gt;&lt;br&gt;type I secretion C-terminal target domain-containing protein&lt;br&gt;Location: 18309 - 13222&lt;br&gt;&lt;br&gt;&lt;b&gt;BlastP hit with ctg4_577&lt;/b&gt;&lt;br&gt;Percentage identity: 83&lt;br&gt;Percentage coverage: 63&lt;br&gt;BLAST bit score: 2445&lt;br&gt;E-value: 0.0" locus_tag="G368_RS0129915" class="clusterblast-orf" id="dummy-2_h2_5_0"  />
</g>
<g id="a2_001"  >
<polygon points="255,90 263,90 268,85 263,80 255,80 255,90 " style="fill:#3cd815; stroke-width:1; stroke:black; " description="&lt;b&gt;G368_RS0129910&lt;/b&gt;&lt;br&gt;hypothetical protein&lt;br&gt;Location: 13074 - 12736&lt;br&gt;&lt;br&gt;&lt;b&gt;BlastP hit with ctg4_578&lt;/b&gt;&lt;br&gt;Percentage identity: 94&lt;br&gt;Percentage coverage: 100&lt;br&gt;BLAST bit score: 200&lt;br&gt;E-value: 8e-50" locus_tag="G368_RS0129910" class="clusterblast-orf" id="dummy-2_h2_5_1"  />
</g>
<g id="a2_002"  >
<polygon points="270,85 275,80 342,80 342,90 275,90 270,85 " style="fill:#1563d8; stroke-width:1; stroke:black; " description="&lt;b&gt;G368_RS0129905&lt;/b&gt;&lt;br&gt;GGDEF domain-containing protein&lt;br&gt;Location: 12687 - 10741&lt;br&gt;&lt;br&gt;&lt;b&gt;BlastP hit with ctg4_579&lt;/b&gt;&lt;br&gt;Percentage identity: 94&lt;br&gt;Percentage coverage: 100&lt;br&gt;BLAST bit score: 1171&lt;br&gt;E-value: 0.0" locus_tag="G368_RS0129905" class="clusterblast-orf" id="dummy-2_h2_5_2"  />
</g>
<g id="a2_003"  >
<polygon points="343,85 348,80 369,80 369,90 348,90 343,85 " style="fill:#b115d8; stroke-width:1; stroke:black; " description="&lt;b&gt;G368_RS0129900&lt;/b&gt;&lt;br&gt;hypothetical protein&lt;br&gt;Location: 10726 - 10034&lt;br&gt;&lt;br&gt;&lt;b&gt;BlastP hit with ctg4_580&lt;/b&gt;&lt;br&gt;Percentage identity: 93&lt;br&gt;Percentage coverage: 100&lt;br&gt;BLAST bit score: 442&lt;br&gt;E-value: 2.5e-122" locus_tag="G368_RS0129900" class="clusterblast-orf" id="dummy-2_h2_5_3"  />
</g>
<g id="a2_004"  >
<polygon points="379,90 401,90 406,85 401,80 379,80 379,90 " style="fill:#d88a15; stroke-width:1; stroke:black; " description="&lt;b&gt;G368_RS0129895&lt;/b&gt;&lt;br&gt;GntR family transcriptional regulator&lt;br&gt;Location: 9767 - 9057&lt;br&gt;&lt;br&gt;&lt;b&gt;BlastP hit with ctg4_581&lt;/b&gt;&lt;br&gt;Percentage identity: 88&lt;br&gt;Percentage coverage: 100&lt;br&gt;BLAST bit score: 399&lt;br&gt;E-value: 3.2e-109" locus_tag="G368_RS0129895" class="clusterblast-orf" id="dummy-2_h2_5_4"  />
</g>
<g id="a2_005"  >
<polygon points="434,90 458,90 463,85 458,80 434,80 434,90 " style="fill:#15d863; stroke-width:1; stroke:black; " description="&lt;b&gt;G368_RS0129890&lt;/b&gt;&lt;br&gt;DUF3050 domain-containing protein&lt;br&gt;Location: 8313 - 7537&lt;br&gt;&lt;br&gt;&lt;b&gt;BlastP hit with ctg4_582&lt;/b&gt;&lt;br&gt;Percentage identity: 95&lt;br&gt;Percentage coverage: 100&lt;br&gt;BLAST bit score: 498&lt;br&gt;E-value: 4.3e-139" locus_tag="G368_RS0129890" class="clusterblast-orf" id="dummy-2_h2_5_5"  />
</g>
<g id="a2_006"  >
<polygon points="462,90 492,90 497,85 492,80 462,80 462,90 " style="fill:#3c15d8; stroke-width:1; stroke:black; " description="&lt;b&gt;G368_RS0129885&lt;/b&gt;&lt;br&gt;P-aminobenzoate N-oxygenase AurF&lt;br&gt;Location: 7540 - 6611&lt;br&gt;&lt;br&gt;&lt;b&gt;BlastP hit with ctg4_583&lt;/b&gt;&lt;br&gt;Percentage identity: 96&lt;br&gt;Percentage coverage: 100&lt;br&gt;BLAST bit score: 592&lt;br&gt;E-value: 2.6e-167" locus_tag="G368_RS0129885" class="clusterblast-orf" id="dummy-2_h2_5_6"  />
</g>
<g id="a2_007"  >
<polygon points="498,90 621,90 626,85 621,80 498,80 498,90 " style="fill:#d8158a; stroke-width:1; stroke:black; " description="&lt;b&gt;G368_RS0129880&lt;/b&gt;&lt;br&gt;peptide transporter&lt;br&gt;Location: 6597 - 3181&lt;br&gt;&lt;br&gt;&lt;b&gt;BlastP hit with ctg4_584&lt;/b&gt;&lt;br&gt;Percentage identity: 89&lt;br&gt;Percentage coverage: 100&lt;br&gt;BLAST bit score: 1996&lt;br&gt;E-value: 0.0" locus_tag="G368_RS0129880" class="clusterblast-orf" id="dummy-2_h2_5_7"  />
</g>
<g id="a2_008"  >
<polygon points="627,90 640,90 645,85 640,80 627,80 627,90 " style="fill:#b1d815; stroke-width:1; stroke:black; " description="&lt;b&gt;G368_RS0129875&lt;/b&gt;&lt;br&gt;SRPBCC family protein&lt;br&gt;Location: 3150 - 2683&lt;br&gt;&lt;br&gt;&lt;b&gt;BlastP hit with ctg4_585&lt;/b&gt;&lt;br&gt;Percentage identity: 90&lt;br&gt;Percentage coverage: 99&lt;br&gt;BLAST bit score: 287&lt;br&gt;E-value: 9e-76" locus_tag="G368_RS0129875" class="clusterblast-orf" id="dummy-2_h2_5_8"  />
</g>
<g id="a2_009"  >
<polygon points="650,85 655,80 720,80 720,90 655,90 650,85 " style="fill:#15d8d8; stroke-width:1; stroke:black; " description="&lt;b&gt;G368_RS0129870&lt;/b&gt;&lt;br&gt;methyl-accepting chemotaxis protein&lt;br&gt;Location: 2546 - 666&lt;br&gt;&lt;br&gt;&lt;b&gt;BlastP hit with ctg4_586&lt;/b&gt;&lt;br&gt;Percentage identity: 89&lt;br&gt;Percentage coverage: 100&lt;br&gt;BLAST bit score: 923&lt;br&gt;E-value: 1e-266" locus_tag="G368_RS0129870" class="clusterblast-orf" id="dummy-2_h2_5_9"  />
</g>
</svg>
