<svg xmlns="http://www.w3.org/2000/svg" xmlns:xlink="http://www.w3.org/1999/xlink" version="1.1" x="0" y="0" height="230" width="800" viewBox="0 0 800 230" preserveAspectRatio="none"  >
<g label="Query sequence" class="clusterblast-cluster"  >
<text x="5" y="20" class="clusterblast-acc"  >
Query sequence</text>
<line x1="10" y1="35" x2="778.0" y2="35" style="stroke-width:1; stroke:grey; "  />
<polygon points="0,40 29,40 34,35 29,30 0,30 0,40 " style="fill:#d81515; stroke-width:1; stroke:black; " description="&lt;b&gt;ctg3_1885&lt;/b&gt;&lt;br&gt;ctg3 1885&lt;br&gt;Location: 2244699 - 2245152" locus_tag="ctg3_1885" class="clusterblast-orf" id="dummy-3_q0_0_all"  />
<polygon points="41,40 70,40 75,35 70,30 41,30 41,40 " style="fill:#d81515; stroke-width:1; stroke:black; " description="&lt;b&gt;ctg3_1886&lt;/b&gt;&lt;br&gt;ctg3 1886&lt;br&gt;Location: 2245255 - 2245708" locus_tag="ctg3_1886" class="clusterblast-orf" id="dummy-3_q1_0_all"  />
<polygon points="86,40 115,40 120,35 115,30 86,30 86,40 " style="fill:#77d815; stroke-width:1; stroke:black; " description="&lt;b&gt;ctg3_1887&lt;/b&gt;&lt;br&gt;ctg3 1887&lt;br&gt;Location: 2245857 - 2246316" locus_tag="ctg3_1887" class="clusterblast-orf" id="dummy-3_q2_0_all"  />
<polygon points="120,40 140,40 145,35 140,30 120,30 120,40 " style="fill:#15d8d8; stroke-width:1; stroke:black; " description="&lt;b&gt;ctg3_1888&lt;/b&gt;&lt;br&gt;ctg3 1888&lt;br&gt;Location: 2246312 - 2246654" locus_tag="ctg3_1888" class="clusterblast-orf" id="dummy-3_q3_0_all"  />
<polygon points="143,35 148,30 213,30 213,40 148,40 143,35 " style="fill:#7715d8; stroke-width:1; stroke:black; " description="&lt;b&gt;ctg3_1889&lt;/b&gt;&lt;br&gt;ctg3 1889&lt;br&gt;Location: 2246623 - 2247562" locus_tag="ctg3_1889" class="clusterblast-orf" id="dummy-3_q4_0_all"  />
<polygon points="218,40 279,40 284,35 279,30 218,30 218,40 " style="fill:#d87715; stroke-width:1; stroke:black; " description="&lt;b&gt;ctg3_1890&lt;/b&gt;&lt;br&gt;ctg3 1890&lt;br&gt;Location: 2247630 - 2248518" locus_tag="ctg3_1890" class="clusterblast-orf" id="dummy-3_q5_0_all"  />
<polygon points="293,35 298,30 349,30 349,40 298,40 293,35 " style="fill:#15d815; stroke-width:1; stroke:black; " description="&lt;b&gt;ctg3_1891&lt;/b&gt;&lt;br&gt;ctg3 1891&lt;br&gt;Location: 2248647 - 2249406" locus_tag="ctg3_1891" class="clusterblast-orf" id="dummy-3_q6_0_all"  />
<polygon points="349,35 354,30 411,30 411,40 354,40 349,35 " style="fill:#1577d8; stroke-width:1; stroke:black; " description="&lt;b&gt;ctg3_1892&lt;/b&gt;&lt;br&gt;ctg3 1892&lt;br&gt;Location: 2249398 - 2250238" locus_tag="ctg3_1892" class="clusterblast-orf" id="dummy-3_q7_0_all"  />
<polygon points="416,35 421,30 431,30 431,40 421,40 416,35 " style="fill:#d815d8; stroke-width:1; stroke:black; " description="&lt;b&gt;ctg3_1893&lt;/b&gt;&lt;br&gt;ctg3 1893&lt;br&gt;Location: 2250300 - 2250507" locus_tag="ctg3_1893" class="clusterblast-orf" id="dummy-3_q8_0_all"  />
<polygon points="445,35 450,30 544,30 544,40 450,40 445,35 " style="fill:#d8d815; stroke-width:1; stroke:black; " description="&lt;b&gt;ctg3_1894&lt;/b&gt;&lt;br&gt;ctg3 1894&lt;br&gt;Location: 2250689 - 2252024" locus_tag="ctg3_1894" class="clusterblast-orf" id="dummy-3_q9_0_all"  />
<polygon points="568,35 573,30 637,30 637,40 573,40 568,35 " style="fill:#15d877; stroke-width:1; stroke:black; " description="&lt;b&gt;ctg3_1895&lt;/b&gt;&lt;br&gt;ctg3 1895&lt;br&gt;Location: 2252354 - 2253278" locus_tag="ctg3_1895" class="clusterblast-orf" id="dummy-3_q10_0_all"  />
<polygon points="653,35 658,30 731,30 731,40 658,40 653,35 " style="fill:#1515d8; stroke-width:1; stroke:black; " description="&lt;b&gt;ctg3_1896&lt;/b&gt;&lt;br&gt;ctg3 1896&lt;br&gt;Location: 2253502 - 2254546" locus_tag="ctg3_1896" class="clusterblast-orf" id="dummy-3_q11_0_all"  />
<polygon points="747,40 775,40 780,35 775,30 747,30 747,40 " style="fill:#d81577; stroke-width:1; stroke:black; " description="&lt;b&gt;ctg3_1897&lt;/b&gt;&lt;br&gt;ctg3 1897&lt;br&gt;Location: 2254762 - 2255212" locus_tag="ctg3_1897" class="clusterblast-orf" id="dummy-3_q12_0_all"  />
</g>
<g label="NZ_LIRD01000002" description="NZ_LIRD01000002_c3: Pseudomonas sp. In5 P.sp In5 contig 2, whole genome shotg... (100% of genes show similarity), bacteriocin" class="clusterblast-cluster"  >
<text x="5" y="70" class="clusterblast-acc"  >
<a xlink:href="https://antismash-db.secondarymetabolites.org/go/NZ_LIRD01000002/3" target="_blank">NZ_LIRD01000002_c3</a>: Pseudomonas sp. In5 P.sp In5 contig 2, whole genome shotg... (100% of genes show similarity), bacteriocin</text>
<line x1="10" y1="85" x2="778.0" y2="85" style="stroke-width:1; stroke:grey; "  />
</g>
<g id="a3_000"  >
<polygon points="0,90 28,90 33,85 28,80 0,80 0,90 " style="fill:#d81515; stroke-width:1; stroke:black; " description="&lt;b&gt;AL066_RS14345&lt;/b&gt;&lt;br&gt;peroxiredoxin&lt;br&gt;Location: 2244700 - 2245152&lt;br&gt;&lt;br&gt;&lt;b&gt;BlastP hit with ctg3_1885&lt;/b&gt;&lt;br&gt;Percentage identity: 100&lt;br&gt;Percentage coverage: 100&lt;br&gt;BLAST bit score: 293&lt;br&gt;E-value: 1.6e-77&lt;br&gt;&lt;br&gt;&lt;b&gt;BlastP hit with ctg3_1886&lt;/b&gt;&lt;br&gt;Percentage identity: 79&lt;br&gt;Percentage coverage: 100&lt;br&gt;BLAST bit score: 238&lt;br&gt;E-value: 3.5e-61" locus_tag="AL066_RS14345" class="clusterblast-orf" id="dummy-3_h3_1_0"  />
</g>
<g id="a3_001"  >
<polygon points="41,90 69,90 74,85 69,80 41,80 41,90 " style="fill:#d81515; stroke-width:1; stroke:black; " description="&lt;b&gt;AL066_RS14350&lt;/b&gt;&lt;br&gt;peroxiredoxin&lt;br&gt;Location: 2245256 - 2245708&lt;br&gt;&lt;br&gt;&lt;b&gt;BlastP hit with ctg3_1885&lt;/b&gt;&lt;br&gt;Percentage identity: 79&lt;br&gt;Percentage coverage: 100&lt;br&gt;BLAST bit score: 240&lt;br&gt;E-value: 1.6e-61&lt;br&gt;&lt;br&gt;&lt;b&gt;BlastP hit with ctg3_1886&lt;/b&gt;&lt;br&gt;Percentage identity: 100&lt;br&gt;Percentage coverage: 100&lt;br&gt;BLAST bit score: 296&lt;br&gt;E-value: 1.4e-78" locus_tag="AL066_RS14350" class="clusterblast-orf" id="dummy-3_h3_1_1"  />
</g>
<g id="a3_002"  >
<polygon points="85,90 114,90 119,85 114,80 85,80 85,90 " style="fill:#77d815; stroke-width:1; stroke:black; " description="&lt;b&gt;AL066_RS14355&lt;/b&gt;&lt;br&gt;MarR family transcriptional regulator&lt;br&gt;Location: 2245858 - 2246316&lt;br&gt;&lt;br&gt;&lt;b&gt;BlastP hit with ctg3_1887&lt;/b&gt;&lt;br&gt;Percentage identity: 100&lt;br&gt;Percentage coverage: 100&lt;br&gt;BLAST bit score: 303&lt;br&gt;E-value: 1.5e-80" locus_tag="AL066_RS14355" class="clusterblast-orf" id="dummy-3_h3_1_2"  />
</g>
<g id="a3_003"  >
<polygon points="119,90 139,90 144,85 139,80 119,80 119,90 " style="fill:#15d8d8; stroke-width:1; stroke:black; " description="&lt;b&gt;AL066_RS14360&lt;/b&gt;&lt;br&gt;hypothetical protein&lt;br&gt;Location: 2246313 - 2246654&lt;br&gt;&lt;br&gt;&lt;b&gt;BlastP hit with ctg3_1888&lt;/b&gt;&lt;br&gt;Percentage identity: 100&lt;br&gt;Percentage coverage: 100&lt;br&gt;BLAST bit score: 242&lt;br&gt;E-value: 3.1e-62" locus_tag="AL066_RS14360" class="clusterblast-orf" id="dummy-3_h3_1_3"  />
</g>
<g id="a3_004"  >
<polygon points="142,85 147,80 209,80 209,90 147,90 142,85 " style="fill:#7715d8; stroke-width:1; stroke:black; " description="&lt;b&gt;AL066_RS14365&lt;/b&gt;&lt;br&gt;LysR family transcriptional regulator&lt;br&gt;Location: 2246624 - 2247523&lt;br&gt;&lt;br&gt;&lt;b&gt;BlastP hit with ctg3_1889&lt;/b&gt;&lt;br&gt;Percentage identity: 100&lt;br&gt;Percentage coverage: 96&lt;br&gt;BLAST bit score: 581&lt;br&gt;E-value: 7.9e-164" locus_tag="AL066_RS14365" class="clusterblast-orf" id="dummy-3_h3_1_4"  />
</g>
<g id="a3_005"  >
<polygon points="224,90 278,90 283,85 278,80 224,80 224,90 " style="fill:#d87715; stroke-width:1; stroke:black; " description="&lt;b&gt;AL066_RS14370&lt;/b&gt;&lt;br&gt;pirin family protein&lt;br&gt;Location: 2247721 - 2248518&lt;br&gt;&lt;br&gt;&lt;b&gt;BlastP hit with ctg3_1890&lt;/b&gt;&lt;br&gt;Percentage identity: 100&lt;br&gt;Percentage coverage: 90&lt;br&gt;BLAST bit score: 542&lt;br&gt;E-value: 2.9e-152" locus_tag="AL066_RS14370" class="clusterblast-orf" id="dummy-3_h3_1_5"  />
</g>
<g id="a3_006"  >
<polygon points="292,85 297,80 349,80 349,90 297,90 292,85 " style="fill:#15d815; stroke-width:1; stroke:black; " description="&lt;b&gt;AL066_RS14375&lt;/b&gt;&lt;br&gt;DUF2063 domain-containing protein&lt;br&gt;Location: 2248648 - 2249406&lt;br&gt;&lt;br&gt;&lt;b&gt;BlastP hit with ctg3_1891&lt;/b&gt;&lt;br&gt;Percentage identity: 100&lt;br&gt;Percentage coverage: 100&lt;br&gt;BLAST bit score: 515&lt;br&gt;E-value: 2.5e-144" locus_tag="AL066_RS14375" class="clusterblast-orf" id="dummy-3_h3_1_6"  />
</g>
<g id="a3_007"  >
<polygon points="348,85 353,80 410,80 410,90 353,90 348,85 " style="fill:#1577d8; stroke-width:1; stroke:black; " description="&lt;b&gt;AL066_RS14380&lt;/b&gt;&lt;br&gt;DUF692 domain-containing protein&lt;br&gt;Location: 2249399 - 2250238&lt;br&gt;&lt;br&gt;&lt;b&gt;BlastP hit with ctg3_1892&lt;/b&gt;&lt;br&gt;Percentage identity: 100&lt;br&gt;Percentage coverage: 100&lt;br&gt;BLAST bit score: 566&lt;br&gt;E-value: 1.4e-159" locus_tag="AL066_RS14380" class="clusterblast-orf" id="dummy-3_h3_1_7"  />
</g>
<g id="a3_008"  >
<polygon points="415,85 420,80 430,80 430,90 420,90 415,85 " style="fill:#d815d8; stroke-width:1; stroke:black; " description="&lt;b&gt;AL066_RS14385&lt;/b&gt;&lt;br&gt;hypothetical protein&lt;br&gt;Location: 2250301 - 2250507&lt;br&gt;&lt;br&gt;&lt;b&gt;BlastP hit with ctg3_1893&lt;/b&gt;&lt;br&gt;Percentage identity: 100&lt;br&gt;Percentage coverage: 100&lt;br&gt;BLAST bit score: 92&lt;br&gt;E-value: 1.9e-17" locus_tag="AL066_RS14385" class="clusterblast-orf" id="dummy-3_h3_1_8"  />
</g>
<g id="a3_009"  >
<polygon points="444,85 449,80 543,80 543,90 449,90 444,85 " style="fill:#d8d815; stroke-width:1; stroke:black; " description="&lt;b&gt;AL066_RS14390&lt;/b&gt;&lt;br&gt;acetamidase&lt;br&gt;Location: 2250690 - 2252024&lt;br&gt;&lt;br&gt;&lt;b&gt;BlastP hit with ctg3_1894&lt;/b&gt;&lt;br&gt;Percentage identity: 100&lt;br&gt;Percentage coverage: 100&lt;br&gt;BLAST bit score: 912&lt;br&gt;E-value: 2.1e-263" locus_tag="AL066_RS14390" class="clusterblast-orf" id="dummy-3_h3_1_9"  />
</g>
<g id="a3_0010"  >
<polygon points="567,85 572,80 636,80 636,90 572,90 567,85 " style="fill:#15d877; stroke-width:1; stroke:black; " description="&lt;b&gt;AL066_RS14395&lt;/b&gt;&lt;br&gt;LysR family transcriptional regulator&lt;br&gt;Location: 2252355 - 2253278&lt;br&gt;&lt;br&gt;&lt;b&gt;BlastP hit with ctg3_1895&lt;/b&gt;&lt;br&gt;Percentage identity: 100&lt;br&gt;Percentage coverage: 100&lt;br&gt;BLAST bit score: 609&lt;br&gt;E-value: 2e-172" locus_tag="AL066_RS14395" class="clusterblast-orf" id="dummy-3_h3_1_10"  />
</g>
<g id="a3_0011"  >
<polygon points="653,85 658,80 726,80 726,90 658,90 653,85 " style="fill:#1515d8; stroke-width:1; stroke:black; " description="&lt;b&gt;AL066_RS14400&lt;/b&gt;&lt;br&gt;MBL fold metallo-hydrolase&lt;br&gt;Location: 2253503 - 2254486&lt;br&gt;&lt;br&gt;&lt;b&gt;BlastP hit with ctg3_1896&lt;/b&gt;&lt;br&gt;Percentage identity: 100&lt;br&gt;Percentage coverage: 94&lt;br&gt;BLAST bit score: 654&lt;br&gt;E-value: 4.8e-186" locus_tag="AL066_RS14400" class="clusterblast-orf" id="dummy-3_h3_1_11"  />
</g>
<g id="a3_0012"  >
<polygon points="746,90 774,90 779,85 774,80 746,80 746,90 " style="fill:#d81577; stroke-width:1; stroke:black; " description="&lt;b&gt;AL066_RS14405&lt;/b&gt;&lt;br&gt;AraC family transcriptional regulator&lt;br&gt;Location: 2254763 - 2255212&lt;br&gt;&lt;br&gt;&lt;b&gt;BlastP hit with ctg3_1897&lt;/b&gt;&lt;br&gt;Percentage identity: 100&lt;br&gt;Percentage coverage: 100&lt;br&gt;BLAST bit score: 311&lt;br&gt;E-value: 7.3e-83" locus_tag="AL066_RS14405" class="clusterblast-orf" id="dummy-3_h3_1_12"  />
</g>
</svg>
