<svg xmlns="http://www.w3.org/2000/svg" xmlns:xlink="http://www.w3.org/1999/xlink" version="1.1" x="0" y="0" height="230" width="800" viewBox="0 0 800 230" preserveAspectRatio="none"  >
<g label="Query sequence" class="clusterblast-cluster"  >
<text x="5" y="20" class="clusterblast-acc"  >
Query sequence</text>
<line x1="10" y1="35" x2="778.0" y2="35" style="stroke-width:1; stroke:grey; "  />
<polygon points="3,35 8,30 16,30 16,40 8,40 3,35 " style="fill:#d81515; stroke-width:1; stroke:black; " description="&lt;b&gt;ctg1_947&lt;/b&gt;&lt;br&gt;ctg1 947&lt;br&gt;Location: 1045973 - 1046867" locus_tag="ctg1_947" class="clusterblast-orf" id="dummy-2_q0_0_all"  />
<polygon points="17,40 19,35 17,30 17,40 " style="fill:white; stroke-width:1; stroke:black; " description="&lt;b&gt;ctg1_948&lt;/b&gt;&lt;br&gt;ctg1 948&lt;br&gt;Location: 1046885 - 1047053" locus_tag="ctg1_948" class="clusterblast-orf" id="dummy-2_q1_0_all"  />
<polygon points="24,35 29,30 31,30 31,40 29,40 24,35 " style="fill:#67d815; stroke-width:1; stroke:black; " description="&lt;b&gt;ctg1_949&lt;/b&gt;&lt;br&gt;ctg1 949&lt;br&gt;Location: 1047381 - 1047852" locus_tag="ctg1_949" class="clusterblast-orf" id="dummy-2_q2_0_all"  />
<polygon points="38,40 47,40 52,35 47,30 38,30 38,40 " style="fill:#15b9d8; stroke-width:1; stroke:black; " description="&lt;b&gt;ctg1_950&lt;/b&gt;&lt;br&gt;ctg1 950&lt;br&gt;Location: 1048295 - 1049231" locus_tag="ctg1_950" class="clusterblast-orf" id="dummy-2_q3_0_all"  />
<polygon points="54,40 61,40 66,35 61,30 54,30 54,40 " style="fill:#8615d8; stroke-width:1; stroke:black; " description="&lt;b&gt;ctg1_951&lt;/b&gt;&lt;br&gt;ctg1 951&lt;br&gt;Location: 1049408 - 1050215" locus_tag="ctg1_951" class="clusterblast-orf" id="dummy-2_q4_0_all"  />
<polygon points="68,35 72,30 72,40 68,35 " style="fill:#d83415; stroke-width:1; stroke:black; " description="&lt;b&gt;ctg1_952&lt;/b&gt;&lt;br&gt;ctg1 952&lt;br&gt;Location: 1050289 - 1050574" locus_tag="ctg1_952" class="clusterblast-orf" id="dummy-2_q5_0_all"  />
<polygon points="73,35 78,30 81,30 81,40 78,40 73,35 " style="fill:#49d815; stroke-width:1; stroke:black; " description="&lt;b&gt;ctg1_953&lt;/b&gt;&lt;br&gt;ctg1 953&lt;br&gt;Location: 1050644 - 1051187" locus_tag="ctg1_953" class="clusterblast-orf" id="dummy-2_q6_0_all"  />
<polygon points="82,35 87,30 111,30 111,40 87,40 82,35 " style="fill:#159bd8; stroke-width:1; stroke:black; " description="&lt;b&gt;ctg1_954&lt;/b&gt;&lt;br&gt;ctg1 954&lt;br&gt;Location: 1051258 - 1053220" locus_tag="ctg1_954" class="clusterblast-orf" id="dummy-2_q7_0_all"  />
<polygon points="113,35 118,30 125,30 125,40 118,40 113,35 " style="fill:#a515d8; stroke-width:1; stroke:black; " description="&lt;b&gt;ctg1_955&lt;/b&gt;&lt;br&gt;ctg1 955&lt;br&gt;Location: 1053329 - 1054127" locus_tag="ctg1_955" class="clusterblast-orf" id="dummy-2_q8_0_all"  />
<polygon points="125,35 130,30 142,30 142,40 130,40 125,35 " style="fill:#d85315; stroke-width:1; stroke:black; " description="&lt;b&gt;ctg1_956&lt;/b&gt;&lt;br&gt;ctg1 956&lt;br&gt;Location: 1054123 - 1055281" locus_tag="ctg1_956" class="clusterblast-orf" id="dummy-2_q9_0_all"  />
<polygon points="143,35 148,30 167,30 167,40 148,40 143,35 " style="fill:#2ad815; stroke-width:1; stroke:black; " description="&lt;b&gt;ctg1_957&lt;/b&gt;&lt;br&gt;ctg1 957&lt;br&gt;Location: 1055304 - 1056921" locus_tag="ctg1_957" class="clusterblast-orf" id="dummy-2_q10_0_all"  />
<polygon points="167,35 172,30 180,30 180,40 172,40 167,35 " style="fill:#157cd8; stroke-width:1; stroke:black; " description="&lt;b&gt;ctg1_958&lt;/b&gt;&lt;br&gt;ctg1 958&lt;br&gt;Location: 1056924 - 1057809" locus_tag="ctg1_958" class="clusterblast-orf" id="dummy-2_q11_0_all"  />
<polygon points="180,35 185,30 207,30 207,40 185,40 180,35 " style="fill:#c415d8; stroke-width:1; stroke:black; " description="&lt;b&gt;ctg1_959&lt;/b&gt;&lt;br&gt;ctg1 959&lt;br&gt;Location: 1057821 - 1059624" locus_tag="ctg1_959" class="clusterblast-orf" id="dummy-2_q12_0_all"  />
<polygon points="210,40 214,40 219,35 214,30 210,30 210,40 " style="fill:#d87215; stroke-width:1; stroke:black; " description="&lt;b&gt;ctg1_960&lt;/b&gt;&lt;br&gt;ctg1 960&lt;br&gt;Location: 1059802 - 1060429" locus_tag="ctg1_960" class="clusterblast-orf" id="dummy-2_q13_0_all"  />
<polygon points="221,40 227,40 232,35 227,30 221,30 221,40 " style="fill:#15d81f; stroke-width:1; stroke:black; " description="&lt;b&gt;ctg1_961&lt;/b&gt;&lt;br&gt;ctg1 961&lt;br&gt;Location: 1060521 - 1061316" locus_tag="ctg1_961" class="clusterblast-orf" id="dummy-2_q14_0_all"  />
<polygon points="234,40 242,40 247,35 242,30 234,30 234,40 " style="fill:#155dd8; stroke-width:1; stroke:black; " description="&lt;b&gt;ctg1_962&lt;/b&gt;&lt;br&gt;ctg1 962&lt;br&gt;Location: 1061450 - 1062287" locus_tag="ctg1_962" class="clusterblast-orf" id="dummy-2_q15_0_all"  />
<polygon points="247,40 249,35 247,30 247,40 " style="fill:#15d81f; stroke-width:1; stroke:black; " description="&lt;b&gt;ctg1_963&lt;/b&gt;&lt;br&gt;ctg1 963&lt;br&gt;Location: 1062293 - 1062425" locus_tag="ctg1_963" class="clusterblast-orf" id="dummy-2_q16_0_all"  />
<polygon points="251,40 258,40 263,35 258,30 251,30 251,40 " style="fill:#155dd8; stroke-width:1; stroke:black; " description="&lt;b&gt;ctg1_964&lt;/b&gt;&lt;br&gt;ctg1 964&lt;br&gt;Location: 1062559 - 1063393" locus_tag="ctg1_964" class="clusterblast-orf" id="dummy-2_q17_0_all"  />
<polygon points="266,40 276,40 281,35 276,30 266,30 266,40 " style="fill:#d815ce; stroke-width:1; stroke:black; " description="&lt;b&gt;ctg1_965&lt;/b&gt;&lt;br&gt;ctg1 965&lt;br&gt;Location: 1063545 - 1064559" locus_tag="ctg1_965" class="clusterblast-orf" id="dummy-2_q18_0_all"  />
<polygon points="283,35 288,30 291,30 291,40 288,40 283,35 " style="fill:#d89015; stroke-width:1; stroke:black; " description="&lt;b&gt;ctg1_966&lt;/b&gt;&lt;br&gt;ctg1 966&lt;br&gt;Location: 1064693 - 1065242" locus_tag="ctg1_966" class="clusterblast-orf" id="dummy-2_q19_0_all"  />
<polygon points="297,40 486,40 491,35 486,30 297,30 297,40 " style="fill:#15d83e; stroke-width:1; stroke:black; " description="&lt;b&gt;ctg1_967&lt;/b&gt;&lt;br&gt;ctg1 967&lt;br&gt;Location: 1065614 - 1078598" locus_tag="ctg1_967" class="clusterblast-orf" id="dummy-2_q20_0_all"  />
<polygon points="493,40 500,40 505,35 500,30 493,30 493,40 " style="fill:#153ed8; stroke-width:1; stroke:black; " description="&lt;b&gt;ctg1_968&lt;/b&gt;&lt;br&gt;ctg1 968&lt;br&gt;Location: 1078770 - 1079583" locus_tag="ctg1_968" class="clusterblast-orf" id="dummy-2_q21_0_all"  />
<polygon points="507,35 512,30 518,30 518,40 512,40 507,35 " style="fill:#d815af; stroke-width:1; stroke:black; " description="&lt;b&gt;ctg1_969&lt;/b&gt;&lt;br&gt;ctg1 969&lt;br&gt;Location: 1079675 - 1080446" locus_tag="ctg1_969" class="clusterblast-orf" id="dummy-2_q22_0_all"  />
<polygon points="518,35 523,30 531,30 531,40 523,40 518,35 " style="fill:#d8af15; stroke-width:1; stroke:black; " description="&lt;b&gt;ctg1_970&lt;/b&gt;&lt;br&gt;ctg1 970&lt;br&gt;Location: 1080421 - 1081288" locus_tag="ctg1_970" class="clusterblast-orf" id="dummy-2_q23_0_all"  />
<polygon points="531,35 536,30 557,30 557,40 536,40 531,35 " style="fill:#15d85d; stroke-width:1; stroke:black; " description="&lt;b&gt;ctg1_971&lt;/b&gt;&lt;br&gt;ctg1 971&lt;br&gt;Location: 1081287 - 1083027" locus_tag="ctg1_971" class="clusterblast-orf" id="dummy-2_q24_0_all"  />
<polygon points="559,40 564,40 569,35 564,30 559,30 559,40 " style="fill:#151fd8; stroke-width:1; stroke:black; " description="&lt;b&gt;ctg1_972&lt;/b&gt;&lt;br&gt;ctg1 972&lt;br&gt;Location: 1083180 - 1083861" locus_tag="ctg1_972" class="clusterblast-orf" id="dummy-2_q25_0_all"  />
<polygon points="569,40 584,40 589,35 584,30 569,30 569,40 " style="fill:#d81590; stroke-width:1; stroke:black; " description="&lt;b&gt;ctg1_973&lt;/b&gt;&lt;br&gt;ctg1 973&lt;br&gt;Location: 1083857 - 1085183" locus_tag="ctg1_973" class="clusterblast-orf" id="dummy-2_q26_0_all"  />
<polygon points="592,40 595,40 600,35 595,30 592,30 592,40 " style="fill:#d8ce15; stroke-width:1; stroke:black; " description="&lt;b&gt;ctg1_974&lt;/b&gt;&lt;br&gt;ctg1 974&lt;br&gt;Location: 1085400 - 1085886" locus_tag="ctg1_974" class="clusterblast-orf" id="dummy-2_q27_0_all"  />
<polygon points="602,40 618,40 623,35 618,30 602,30 602,40 " style="fill:#15d87c; stroke-width:1; stroke:black; " description="&lt;b&gt;ctg1_975&lt;/b&gt;&lt;br&gt;ctg1 975&lt;br&gt;Location: 1086029 - 1087442" locus_tag="ctg1_975" class="clusterblast-orf" id="dummy-2_q28_0_all"  />
<polygon points="624,40 627,35 624,30 624,40 " style="fill:#2a15d8; stroke-width:1; stroke:black; " description="&lt;b&gt;ctg1_976&lt;/b&gt;&lt;br&gt;ctg1 976&lt;br&gt;Location: 1087524 - 1087752" locus_tag="ctg1_976" class="clusterblast-orf" id="dummy-2_q29_0_all"  />
<polygon points="630,35 635,30 645,30 645,40 635,40 630,35 " style="fill:#d81572; stroke-width:1; stroke:black; " description="&lt;b&gt;ctg1_977&lt;/b&gt;&lt;br&gt;ctg1 977&lt;br&gt;Location: 1087926 - 1088898" locus_tag="ctg1_977" class="clusterblast-orf" id="dummy-2_q30_0_all"  />
<polygon points="645,35 650,30 658,30 658,40 650,40 645,35 " style="fill:#c4d815; stroke-width:1; stroke:black; " description="&lt;b&gt;ctg1_978&lt;/b&gt;&lt;br&gt;ctg1 978&lt;br&gt;Location: 1088898 - 1089798" locus_tag="ctg1_978" class="clusterblast-orf" id="dummy-2_q31_0_all"  />
<polygon points="658,35 663,30 671,30 671,40 663,40 658,35 " style="fill:#15d89b; stroke-width:1; stroke:black; " description="&lt;b&gt;ctg1_979&lt;/b&gt;&lt;br&gt;ctg1 979&lt;br&gt;Location: 1089797 - 1090661" locus_tag="ctg1_979" class="clusterblast-orf" id="dummy-2_q32_0_all"  />
<polygon points="671,35 676,30 685,30 685,40 676,40 671,35 " style="fill:#4915d8; stroke-width:1; stroke:black; " description="&lt;b&gt;ctg1_980&lt;/b&gt;&lt;br&gt;ctg1 980&lt;br&gt;Location: 1090657 - 1091584" locus_tag="ctg1_980" class="clusterblast-orf" id="dummy-2_q33_0_all"  />
<polygon points="685,35 690,30 694,30 694,40 690,40 685,35 " style="fill:#d81553; stroke-width:1; stroke:black; " description="&lt;b&gt;ctg1_981&lt;/b&gt;&lt;br&gt;ctg1 981&lt;br&gt;Location: 1091619 - 1092192" locus_tag="ctg1_981" class="clusterblast-orf" id="dummy-2_q34_0_all"  />
<polygon points="694,35 699,30 699,30 699,40 699,40 694,35 " style="fill:#a5d815; stroke-width:1; stroke:black; " description="&lt;b&gt;ctg1_982&lt;/b&gt;&lt;br&gt;ctg1 982&lt;br&gt;Location: 1092194 - 1092524" locus_tag="ctg1_982" class="clusterblast-orf" id="dummy-2_q35_0_all"  />
<polygon points="699,35 704,30 707,30 707,40 704,40 699,35 " style="fill:#15d8b9; stroke-width:1; stroke:black; " description="&lt;b&gt;ctg1_983&lt;/b&gt;&lt;br&gt;ctg1 983&lt;br&gt;Location: 1092520 - 1093063" locus_tag="ctg1_983" class="clusterblast-orf" id="dummy-2_q36_0_all"  />
<polygon points="707,35 712,30 725,30 725,40 712,40 707,35 " style="fill:#6715d8; stroke-width:1; stroke:black; " description="&lt;b&gt;ctg1_984&lt;/b&gt;&lt;br&gt;ctg1 984&lt;br&gt;Location: 1093059 - 1094262" locus_tag="ctg1_984" class="clusterblast-orf" id="dummy-2_q37_0_all"  />
<polygon points="731,40 747,40 752,35 747,30 731,30 731,40 " style="fill:#d81534; stroke-width:1; stroke:black; " description="&lt;b&gt;ctg1_985&lt;/b&gt;&lt;br&gt;ctg1 985&lt;br&gt;Location: 1094682 - 1096104" locus_tag="ctg1_985" class="clusterblast-orf" id="dummy-2_q38_0_all"  />
<polygon points="752,40 756,40 761,35 756,30 752,30 752,40 " style="fill:#86d815; stroke-width:1; stroke:black; " description="&lt;b&gt;ctg1_986&lt;/b&gt;&lt;br&gt;ctg1 986&lt;br&gt;Location: 1096100 - 1096712" locus_tag="ctg1_986" class="clusterblast-orf" id="dummy-2_q39_0_all"  />
<polygon points="763,35 768,30 776,30 776,40 768,40 763,35 " style="fill:#15d8d8; stroke-width:1; stroke:black; " description="&lt;b&gt;ctg1_987&lt;/b&gt;&lt;br&gt;ctg1 987&lt;br&gt;Location: 1096837 - 1097704" locus_tag="ctg1_987" class="clusterblast-orf" id="dummy-2_q40_0_all"  />
</g>
<g label="NZ_CP010945" description="NZ_CP010945_c6: Pseudomonas fluorescens NCIMB 11764, complete genome (90% of genes show similarity), nrps" class="clusterblast-cluster"  >
<text x="5" y="70" class="clusterblast-acc"  >
<a xlink:href="https://antismash-db.secondarymetabolites.org/go/NZ_CP010945/6" target="_blank">NZ_CP010945_c6</a>: Pseudomonas fluorescens NCIMB 11764, complete genome (90% of genes show similarity), nrps</text>
<line x1="10" y1="85" x2="778.0" y2="85" style="stroke-width:1; stroke:grey; "  />
</g>
<g id="a2_000"  >
<polygon points="0,85 4,80 4,90 0,85 " style="fill:white; stroke-width:1; stroke:black; " description="&lt;b&gt;B723_RS27775&lt;/b&gt;&lt;br&gt;hypothetical protein&lt;br&gt;Location: 6111974 - 6111666" locus_tag="B723_RS27775" class="clusterblast-orf" id="dummy-2_h2_3_0"  />
</g>
<g id="a2_001"  >
<polygon points="7,90 16,90 21,85 16,80 7,80 7,90 " style="fill:white; stroke-width:1; stroke:black; " description="&lt;b&gt;B723_RS27770&lt;/b&gt;&lt;br&gt;lipid kinase YegS&lt;br&gt;Location: 6111439 - 6110522" locus_tag="B723_RS27770" class="clusterblast-orf" id="dummy-2_h2_3_1"  />
</g>
<g id="a2_002"  >
<polygon points="21,85 26,80 31,80 31,90 26,90 21,85 " style="fill:white; stroke-width:1; stroke:black; " description="&lt;b&gt;B723_RS27765&lt;/b&gt;&lt;br&gt;DNA-binding response regulator&lt;br&gt;Location: 6110538 - 6109879" locus_tag="B723_RS27765" class="clusterblast-orf" id="dummy-2_h2_3_2"  />
</g>
<g id="a2_003"  >
<polygon points="31,85 36,80 44,80 44,90 36,90 31,85 " style="fill:#d81515; stroke-width:1; stroke:black; " description="&lt;b&gt;B723_RS27760&lt;/b&gt;&lt;br&gt;sensor histidine kinase&lt;br&gt;Location: 6109882 - 6108989&lt;br&gt;&lt;br&gt;&lt;b&gt;BlastP hit with ctg1_947&lt;/b&gt;&lt;br&gt;Percentage identity: 91&lt;br&gt;Percentage coverage: 100&lt;br&gt;BLAST bit score: 526&lt;br&gt;E-value: 2.2e-147" locus_tag="B723_RS27760" class="clusterblast-orf" id="dummy-2_h2_3_3"  />
</g>
<g id="a2_004"  >
<polygon points="49,85 54,80 56,80 56,90 54,90 49,85 " style="fill:#67d815; stroke-width:1; stroke:black; " description="&lt;b&gt;B723_RS27755&lt;/b&gt;&lt;br&gt;hypothetical protein&lt;br&gt;Location: 6108649 - 6108182&lt;br&gt;&lt;br&gt;&lt;b&gt;BlastP hit with ctg1_949&lt;/b&gt;&lt;br&gt;Percentage identity: 81&lt;br&gt;Percentage coverage: 100&lt;br&gt;BLAST bit score: 243&lt;br&gt;E-value: 2e-62" locus_tag="B723_RS27755" class="clusterblast-orf" id="dummy-2_h2_3_4"  />
</g>
<g id="a2_005"  >
<polygon points="63,90 72,90 77,85 72,80 63,80 63,90 " style="fill:#15b9d8; stroke-width:1; stroke:black; " description="&lt;b&gt;B723_RS27750&lt;/b&gt;&lt;br&gt;chemotaxis protein CheV&lt;br&gt;Location: 6107719 - 6106784&lt;br&gt;&lt;br&gt;&lt;b&gt;BlastP hit with ctg1_950&lt;/b&gt;&lt;br&gt;Percentage identity: 98&lt;br&gt;Percentage coverage: 100&lt;br&gt;BLAST bit score: 601&lt;br&gt;E-value: 5.6e-170" locus_tag="B723_RS27750" class="clusterblast-orf" id="dummy-2_h2_3_5"  />
</g>
<g id="a2_006"  >
<polygon points="79,90 86,90 91,85 86,80 79,80 79,90 " style="fill:#8615d8; stroke-width:1; stroke:black; " description="&lt;b&gt;B723_RS27745&lt;/b&gt;&lt;br&gt;MOSC domain-containing protein&lt;br&gt;Location: 6106671 - 6105865&lt;br&gt;&lt;br&gt;&lt;b&gt;BlastP hit with ctg1_951&lt;/b&gt;&lt;br&gt;Percentage identity: 88&lt;br&gt;Percentage coverage: 100&lt;br&gt;BLAST bit score: 488&lt;br&gt;E-value: 3.5e-136" locus_tag="B723_RS27745" class="clusterblast-orf" id="dummy-2_h2_3_6"  />
</g>
<g id="a2_007"  >
<polygon points="92,85 96,80 96,90 92,85 " style="fill:#d83415; stroke-width:1; stroke:black; " description="&lt;b&gt;B723_RS27740&lt;/b&gt;&lt;br&gt;DUF1255 domain-containing protein&lt;br&gt;Location: 6105794 - 6105510&lt;br&gt;&lt;br&gt;&lt;b&gt;BlastP hit with ctg1_952&lt;/b&gt;&lt;br&gt;Percentage identity: 98&lt;br&gt;Percentage coverage: 100&lt;br&gt;BLAST bit score: 193&lt;br&gt;E-value: 1.4e-47" locus_tag="B723_RS27740" class="clusterblast-orf" id="dummy-2_h2_3_7"  />
</g>
<g id="a2_008"  >
<polygon points="97,85 102,80 105,80 105,90 102,90 97,85 " style="fill:#49d815; stroke-width:1; stroke:black; " description="&lt;b&gt;B723_RS27735&lt;/b&gt;&lt;br&gt;exonuclease&lt;br&gt;Location: 6105440 - 6104898&lt;br&gt;&lt;br&gt;&lt;b&gt;BlastP hit with ctg1_953&lt;/b&gt;&lt;br&gt;Percentage identity: 92&lt;br&gt;Percentage coverage: 100&lt;br&gt;BLAST bit score: 352&lt;br&gt;E-value: 3.4e-95" locus_tag="B723_RS27735" class="clusterblast-orf" id="dummy-2_h2_3_8"  />
</g>
<g id="a2_009"  >
<polygon points="106,85 111,80 136,80 136,90 111,90 106,85 " style="fill:#159bd8; stroke-width:1; stroke:black; " description="&lt;b&gt;B723_RS27730&lt;/b&gt;&lt;br&gt;acetyl/propionyl/methylcrotonyl-CoA carboxylase subunit alpha&lt;br&gt;Location: 6104826 - 6102865&lt;br&gt;&lt;br&gt;&lt;b&gt;BlastP hit with ctg1_954&lt;/b&gt;&lt;br&gt;Percentage identity: 86&lt;br&gt;Percentage coverage: 94&lt;br&gt;BLAST bit score: 1064&lt;br&gt;E-value: 3.8e-309" locus_tag="B723_RS27730" class="clusterblast-orf" id="dummy-2_h2_3_9"  />
</g>
<g id="a2_0010"  >
<polygon points="137,85 142,80 149,80 149,90 142,90 137,85 " style="fill:#a515d8; stroke-width:1; stroke:black; " description="&lt;b&gt;B723_RS27725&lt;/b&gt;&lt;br&gt;enoyl-CoA hydratase&lt;br&gt;Location: 6102801 - 6102004&lt;br&gt;&lt;br&gt;&lt;b&gt;BlastP hit with ctg1_955&lt;/b&gt;&lt;br&gt;Percentage identity: 85&lt;br&gt;Percentage coverage: 100&lt;br&gt;BLAST bit score: 437&lt;br&gt;E-value: 9.2e-121" locus_tag="B723_RS27725" class="clusterblast-orf" id="dummy-2_h2_3_10"  />
</g>
<g id="a2_0011"  >
<polygon points="148,85 153,80 166,80 166,90 153,90 148,85 " style="fill:#d85315; stroke-width:1; stroke:black; " description="&lt;b&gt;B723_RS27720&lt;/b&gt;&lt;br&gt;acyl-CoA dehydrogenase&lt;br&gt;Location: 6102007 - 6100850&lt;br&gt;&lt;br&gt;&lt;b&gt;BlastP hit with ctg1_956&lt;/b&gt;&lt;br&gt;Percentage identity: 98&lt;br&gt;Percentage coverage: 100&lt;br&gt;BLAST bit score: 772&lt;br&gt;E-value: 1.7e-221" locus_tag="B723_RS27720" class="clusterblast-orf" id="dummy-2_h2_3_11"  />
</g>
<g id="a2_0012"  >
<polygon points="166,85 171,80 190,80 190,90 171,90 166,85 " style="fill:#2ad815; stroke-width:1; stroke:black; " description="&lt;b&gt;B723_RS27715&lt;/b&gt;&lt;br&gt;acyl-CoA carboxylase subunit beta&lt;br&gt;Location: 6100825 - 6099209&lt;br&gt;&lt;br&gt;&lt;b&gt;BlastP hit with ctg1_957&lt;/b&gt;&lt;br&gt;Percentage identity: 95&lt;br&gt;Percentage coverage: 100&lt;br&gt;BLAST bit score: 1019&lt;br&gt;E-value: 1.1e-295" locus_tag="B723_RS27715" class="clusterblast-orf" id="dummy-2_h2_3_12"  />
</g>
<g id="a2_0013"  >
<polygon points="190,85 195,80 203,80 203,90 195,90 190,85 " style="fill:#157cd8; stroke-width:1; stroke:black; " description="&lt;b&gt;B723_RS27710&lt;/b&gt;&lt;br&gt;2,4-dienoyl-CoA reductase&lt;br&gt;Location: 6099205 - 6098336&lt;br&gt;&lt;br&gt;&lt;b&gt;BlastP hit with ctg1_958&lt;/b&gt;&lt;br&gt;Percentage identity: 93&lt;br&gt;Percentage coverage: 100&lt;br&gt;BLAST bit score: 549&lt;br&gt;E-value: 2.4e-154" locus_tag="B723_RS27710" class="clusterblast-orf" id="dummy-2_h2_3_13"  />
</g>
<g id="a2_0014"  >
<polygon points="204,85 209,80 230,80 230,90 209,90 204,85 " style="fill:#c415d8; stroke-width:1; stroke:black; " description="&lt;b&gt;B723_RS27705&lt;/b&gt;&lt;br&gt;DUF1446 domain-containing protein&lt;br&gt;Location: 6098323 - 6096521&lt;br&gt;&lt;br&gt;&lt;b&gt;BlastP hit with ctg1_959&lt;/b&gt;&lt;br&gt;Percentage identity: 94&lt;br&gt;Percentage coverage: 100&lt;br&gt;BLAST bit score: 1141&lt;br&gt;E-value: 0.0" locus_tag="B723_RS27705" class="clusterblast-orf" id="dummy-2_h2_3_14"  />
</g>
<g id="a2_0015"  >
<polygon points="233,90 237,90 242,85 237,80 233,80 233,90 " style="fill:#d87215; stroke-width:1; stroke:black; " description="&lt;b&gt;B723_RS27700&lt;/b&gt;&lt;br&gt;TetR/AcrR family transcriptional regulator&lt;br&gt;Location: 6096357 - 6095731&lt;br&gt;&lt;br&gt;&lt;b&gt;BlastP hit with ctg1_960&lt;/b&gt;&lt;br&gt;Percentage identity: 91&lt;br&gt;Percentage coverage: 100&lt;br&gt;BLAST bit score: 375&lt;br&gt;E-value: 3.4e-102" locus_tag="B723_RS27700" class="clusterblast-orf" id="dummy-2_h2_3_15"  />
</g>
<g id="a2_0016"  >
<polygon points="244,90 251,90 256,85 251,80 244,80 244,90 " style="fill:#15d81f; stroke-width:1; stroke:black; " description="&lt;b&gt;B723_RS27695&lt;/b&gt;&lt;br&gt;amino acid ABC transporter substrate-binding protein&lt;br&gt;Location: 6095641 - 6094844&lt;br&gt;&lt;br&gt;&lt;b&gt;BlastP hit with ctg1_961&lt;/b&gt;&lt;br&gt;Percentage identity: 89&lt;br&gt;Percentage coverage: 99&lt;br&gt;BLAST bit score: 473&lt;br&gt;E-value: 1.5e-131&lt;br&gt;&lt;br&gt;&lt;b&gt;BlastP hit with ctg1_963&lt;/b&gt;&lt;br&gt;Percentage identity: 83&lt;br&gt;Percentage coverage: 93&lt;br&gt;BLAST bit score: 72&lt;br&gt;E-value: 1.6e-11" locus_tag="B723_RS27695" class="clusterblast-orf" id="dummy-2_h2_3_16"  />
</g>
<g id="a2_0017"  >
<polygon points="257,90 267,90 272,85 267,80 257,80 257,90 " style="fill:#d815ce; stroke-width:1; stroke:black; " description="&lt;b&gt;B723_RS27690&lt;/b&gt;&lt;br&gt;N-acetyltransferase&lt;br&gt;Location: 6094743 - 6093739&lt;br&gt;&lt;br&gt;&lt;b&gt;BlastP hit with ctg1_965&lt;/b&gt;&lt;br&gt;Percentage identity: 81&lt;br&gt;Percentage coverage: 100&lt;br&gt;BLAST bit score: 583&lt;br&gt;E-value: 1.3e-164" locus_tag="B723_RS27690" class="clusterblast-orf" id="dummy-2_h2_3_17"  />
</g>
<g id="a2_0018"  >
<polygon points="274,85 279,80 282,80 282,90 279,90 274,85 " style="fill:#d89015; stroke-width:1; stroke:black; " description="&lt;b&gt;B723_RS27685&lt;/b&gt;&lt;br&gt;RNA polymerase factor sigma-70&lt;br&gt;Location: 6093632 - 6093084&lt;br&gt;&lt;br&gt;&lt;b&gt;BlastP hit with ctg1_966&lt;/b&gt;&lt;br&gt;Percentage identity: 99&lt;br&gt;Percentage coverage: 100&lt;br&gt;BLAST bit score: 354&lt;br&gt;E-value: 7e-96" locus_tag="B723_RS27685" class="clusterblast-orf" id="dummy-2_h2_3_18"  />
</g>
<g id="a2_0019"  >
<polygon points="288,90 477,90 482,85 477,80 288,80 288,90 " style="fill:#15d83e; stroke-width:1; stroke:black; " description="&lt;b&gt;B723_RS27680&lt;/b&gt;&lt;br&gt;non-ribosomal peptide synthetase&lt;br&gt;Location: 6092698 - 6079700&lt;br&gt;&lt;br&gt;&lt;b&gt;BlastP hit with ctg1_967&lt;/b&gt;&lt;br&gt;Percentage identity: 92&lt;br&gt;Percentage coverage: 100&lt;br&gt;BLAST bit score: 8039&lt;br&gt;E-value: 0.0" locus_tag="B723_RS27680" class="clusterblast-orf" id="dummy-2_h2_3_19"  />
</g>
<g id="a2_0020"  >
<polygon points="485,90 492,90 497,85 492,80 485,80 485,90 " style="fill:#153ed8; stroke-width:1; stroke:black; " description="&lt;b&gt;B723_RS27675&lt;/b&gt;&lt;br&gt;2-succinyl-6-hydroxy-2, 4-cyclohexadiene-1-carboxylate synthase&lt;br&gt;Location: 6079521 - 6078709&lt;br&gt;&lt;br&gt;&lt;b&gt;BlastP hit with ctg1_968&lt;/b&gt;&lt;br&gt;Percentage identity: 92&lt;br&gt;Percentage coverage: 100&lt;br&gt;BLAST bit score: 514&lt;br&gt;E-value: 1e-143" locus_tag="B723_RS27675" class="clusterblast-orf" id="dummy-2_h2_3_20"  />
</g>
<g id="a2_0021"  >
<polygon points="498,85 503,80 509,80 509,90 503,90 498,85 " style="fill:#d815af; stroke-width:1; stroke:black; " description="&lt;b&gt;B723_RS27670&lt;/b&gt;&lt;br&gt;thiol:disulfide interchange protein DsbG&lt;br&gt;Location: 6078637 - 6077867&lt;br&gt;&lt;br&gt;&lt;b&gt;BlastP hit with ctg1_969&lt;/b&gt;&lt;br&gt;Percentage identity: 89&lt;br&gt;Percentage coverage: 100&lt;br&gt;BLAST bit score: 463&lt;br&gt;E-value: 1.5e-128" locus_tag="B723_RS27670" class="clusterblast-orf" id="dummy-2_h2_3_21"  />
</g>
<g id="a2_0022"  >
<polygon points="509,85 514,80 522,80 522,90 514,90 509,85 " style="fill:#d8af15; stroke-width:1; stroke:black; " description="&lt;b&gt;B723_RS27665&lt;/b&gt;&lt;br&gt;peroxiredoxin&lt;br&gt;Location: 6077891 - 6077025&lt;br&gt;&lt;br&gt;&lt;b&gt;BlastP hit with ctg1_970&lt;/b&gt;&lt;br&gt;Percentage identity: 93&lt;br&gt;Percentage coverage: 100&lt;br&gt;BLAST bit score: 544&lt;br&gt;E-value: 9.9e-153" locus_tag="B723_RS27665" class="clusterblast-orf" id="dummy-2_h2_3_22"  />
</g>
<g id="a2_0023"  >
<polygon points="522,85 527,80 548,80 548,90 527,90 522,85 " style="fill:#15d85d; stroke-width:1; stroke:black; " description="&lt;b&gt;B723_RS27660&lt;/b&gt;&lt;br&gt;protein-disulfide reductase DsbD&lt;br&gt;Location: 6077025 - 6075289&lt;br&gt;&lt;br&gt;&lt;b&gt;BlastP hit with ctg1_971&lt;/b&gt;&lt;br&gt;Percentage identity: 89&lt;br&gt;Percentage coverage: 100&lt;br&gt;BLAST bit score: 1025&lt;br&gt;E-value: 1.7e-297" locus_tag="B723_RS27660" class="clusterblast-orf" id="dummy-2_h2_3_23"  />
</g>
<g id="a2_0024"  >
<polygon points="550,90 555,90 560,85 555,80 550,80 550,90 " style="fill:#151fd8; stroke-width:1; stroke:black; " description="&lt;b&gt;B723_RS27655&lt;/b&gt;&lt;br&gt;DNA-binding response regulator&lt;br&gt;Location: 6075135 - 6074452&lt;br&gt;&lt;br&gt;&lt;b&gt;BlastP hit with ctg1_972&lt;/b&gt;&lt;br&gt;Percentage identity: 97&lt;br&gt;Percentage coverage: 100&lt;br&gt;BLAST bit score: 428&lt;br&gt;E-value: 6.2e-118" locus_tag="B723_RS27655" class="clusterblast-orf" id="dummy-2_h2_3_24"  />
</g>
<g id="a2_0025"  >
<polygon points="560,90 575,90 580,85 575,80 560,80 560,90 " style="fill:#d81590; stroke-width:1; stroke:black; " description="&lt;b&gt;B723_RS27650&lt;/b&gt;&lt;br&gt;two-component sensor histidine kinase&lt;br&gt;Location: 6074455 - 6073130&lt;br&gt;&lt;br&gt;&lt;b&gt;BlastP hit with ctg1_973&lt;/b&gt;&lt;br&gt;Percentage identity: 96&lt;br&gt;Percentage coverage: 100&lt;br&gt;BLAST bit score: 820&lt;br&gt;E-value: 8.4e-236" locus_tag="B723_RS27650" class="clusterblast-orf" id="dummy-2_h2_3_25"  />
</g>
<g id="a2_0026"  >
<polygon points="582,90 585,90 590,85 585,80 582,80 582,90 " style="fill:#d8ce15; stroke-width:1; stroke:black; " description="&lt;b&gt;B723_RS27645&lt;/b&gt;&lt;br&gt;N-acetyltransferase&lt;br&gt;Location: 6072970 - 6072485&lt;br&gt;&lt;br&gt;&lt;b&gt;BlastP hit with ctg1_974&lt;/b&gt;&lt;br&gt;Percentage identity: 78&lt;br&gt;Percentage coverage: 100&lt;br&gt;BLAST bit score: 269&lt;br&gt;E-value: 2.6e-70" locus_tag="B723_RS27645" class="clusterblast-orf" id="dummy-2_h2_3_26"  />
</g>
<g id="a2_0027"  >
<polygon points="591,90 607,90 612,85 607,80 591,80 591,90 " style="fill:#15d87c; stroke-width:1; stroke:black; " description="&lt;b&gt;B723_RS27640&lt;/b&gt;&lt;br&gt;diaminobutyrate--2-oxoglutarate transaminase&lt;br&gt;Location: 6072409 - 6070997&lt;br&gt;&lt;br&gt;&lt;b&gt;BlastP hit with ctg1_975&lt;/b&gt;&lt;br&gt;Percentage identity: 95&lt;br&gt;Percentage coverage: 100&lt;br&gt;BLAST bit score: 885&lt;br&gt;E-value: 2.3e-255" locus_tag="B723_RS27640" class="clusterblast-orf" id="dummy-2_h2_3_27"  />
</g>
<g id="a2_0028"  >
<polygon points="613,90 616,85 613,80 613,90 " style="fill:#2a15d8; stroke-width:1; stroke:black; " description="&lt;b&gt;B723_RS27635&lt;/b&gt;&lt;br&gt;MbtH family protein&lt;br&gt;Location: 6070915 - 6070691&lt;br&gt;&lt;br&gt;&lt;b&gt;BlastP hit with ctg1_976&lt;/b&gt;&lt;br&gt;Percentage identity: 95&lt;br&gt;Percentage coverage: 100&lt;br&gt;BLAST bit score: 150&lt;br&gt;E-value: 8.3e-35" locus_tag="B723_RS27635" class="clusterblast-orf" id="dummy-2_h2_3_28"  />
</g>
<g id="a2_0029"  >
<polygon points="622,85 627,80 636,80 636,90 627,90 622,85 " style="fill:#d81572; stroke-width:1; stroke:black; " description="&lt;b&gt;B723_RS27630&lt;/b&gt;&lt;br&gt;metal ABC transporter substrate-binding protein&lt;br&gt;Location: 6070293 - 6069391&lt;br&gt;&lt;br&gt;&lt;b&gt;BlastP hit with ctg1_977&lt;/b&gt;&lt;br&gt;Percentage identity: 78&lt;br&gt;Percentage coverage: 100&lt;br&gt;BLAST bit score: 482&lt;br&gt;E-value: 3e-134" locus_tag="B723_RS27630" class="clusterblast-orf" id="dummy-2_h2_3_29"  />
</g>
<g id="a2_0030"  >
<polygon points="636,85 641,80 649,80 649,90 641,90 636,85 " style="fill:#c4d815; stroke-width:1; stroke:black; " description="&lt;b&gt;B723_RS27625&lt;/b&gt;&lt;br&gt;metal ABC transporter permease&lt;br&gt;Location: 6069390 - 6068491&lt;br&gt;&lt;br&gt;&lt;b&gt;BlastP hit with ctg1_978&lt;/b&gt;&lt;br&gt;Percentage identity: 99&lt;br&gt;Percentage coverage: 100&lt;br&gt;BLAST bit score: 483&lt;br&gt;E-value: 1.6e-134" locus_tag="B723_RS27625" class="clusterblast-orf" id="dummy-2_h2_3_30"  />
</g>
<g id="a2_0031"  >
<polygon points="649,85 654,80 662,80 662,90 654,90 649,85 " style="fill:#15d89b; stroke-width:1; stroke:black; " description="&lt;b&gt;B723_RS27620&lt;/b&gt;&lt;br&gt;metal ABC transporter ATP-binding protein&lt;br&gt;Location: 6068491 - 6067655&lt;br&gt;&lt;br&gt;&lt;b&gt;BlastP hit with ctg1_979&lt;/b&gt;&lt;br&gt;Percentage identity: 88&lt;br&gt;Percentage coverage: 100&lt;br&gt;BLAST bit score: 482&lt;br&gt;E-value: 3.5e-134" locus_tag="B723_RS27620" class="clusterblast-orf" id="dummy-2_h2_3_31"  />
</g>
<g id="a2_0032"  >
<polygon points="662,85 667,80 676,80 676,90 667,90 662,85 " style="fill:#4915d8; stroke-width:1; stroke:black; " description="&lt;b&gt;B723_RS27615&lt;/b&gt;&lt;br&gt;ABC transporter substrate-binding protein&lt;br&gt;Location: 6067658 - 6066732&lt;br&gt;&lt;br&gt;&lt;b&gt;BlastP hit with ctg1_980&lt;/b&gt;&lt;br&gt;Percentage identity: 96&lt;br&gt;Percentage coverage: 100&lt;br&gt;BLAST bit score: 583&lt;br&gt;E-value: 1.6e-164" locus_tag="B723_RS27615" class="clusterblast-orf" id="dummy-2_h2_3_32"  />
</g>
<g id="a2_0033"  >
<polygon points="676,85 681,80 685,80 685,90 681,90 676,85 " style="fill:#d81553; stroke-width:1; stroke:black; " description="&lt;b&gt;B723_RS27610&lt;/b&gt;&lt;br&gt;hypothetical protein&lt;br&gt;Location: 6066696 - 6066124&lt;br&gt;&lt;br&gt;&lt;b&gt;BlastP hit with ctg1_981&lt;/b&gt;&lt;br&gt;Percentage identity: 91&lt;br&gt;Percentage coverage: 100&lt;br&gt;BLAST bit score: 344&lt;br&gt;E-value: 9.9e-93" locus_tag="B723_RS27610" class="clusterblast-orf" id="dummy-2_h2_3_33"  />
</g>
<g id="a2_0034"  >
<polygon points="685,85 690,80 690,80 690,90 690,90 685,85 " style="fill:#a5d815; stroke-width:1; stroke:black; " description="&lt;b&gt;B723_RS27605&lt;/b&gt;&lt;br&gt;hypothetical protein&lt;br&gt;Location: 6066127 - 6065798&lt;br&gt;&lt;br&gt;&lt;b&gt;BlastP hit with ctg1_982&lt;/b&gt;&lt;br&gt;Percentage identity: 90&lt;br&gt;Percentage coverage: 96&lt;br&gt;BLAST bit score: 198&lt;br&gt;E-value: 5e-49" locus_tag="B723_RS27605" class="clusterblast-orf" id="dummy-2_h2_3_34"  />
</g>
<g id="a2_0035"  >
<polygon points="690,85 695,80 698,80 698,90 695,90 690,85 " style="fill:#15d8b9; stroke-width:1; stroke:black; " description="&lt;b&gt;B723_RS27600&lt;/b&gt;&lt;br&gt;hypothetical protein&lt;br&gt;Location: 6065801 - 6065259&lt;br&gt;&lt;br&gt;&lt;b&gt;BlastP hit with ctg1_983&lt;/b&gt;&lt;br&gt;Percentage identity: 80&lt;br&gt;Percentage coverage: 100&lt;br&gt;BLAST bit score: 316&lt;br&gt;E-value: 2.7e-84" locus_tag="B723_RS27600" class="clusterblast-orf" id="dummy-2_h2_3_35"  />
</g>
<g id="a2_0036"  >
<polygon points="698,85 703,80 716,80 716,90 703,90 698,85 " style="fill:#6715d8; stroke-width:1; stroke:black; " description="&lt;b&gt;B723_RS27595&lt;/b&gt;&lt;br&gt;PepSY domain-containing protein&lt;br&gt;Location: 6065262 - 6064060&lt;br&gt;&lt;br&gt;&lt;b&gt;BlastP hit with ctg1_984&lt;/b&gt;&lt;br&gt;Percentage identity: 79&lt;br&gt;Percentage coverage: 100&lt;br&gt;BLAST bit score: 651&lt;br&gt;E-value: 4.7e-185" locus_tag="B723_RS27595" class="clusterblast-orf" id="dummy-2_h2_3_36"  />
</g>
<g id="a2_0037"  >
<polygon points="721,90 737,90 742,85 737,80 721,80 721,90 " style="fill:#d81534; stroke-width:1; stroke:black; " description="&lt;b&gt;B723_RS27590&lt;/b&gt;&lt;br&gt;3-isopropylmalate dehydratase large subunit&lt;br&gt;Location: 6063721 - 6062300&lt;br&gt;&lt;br&gt;&lt;b&gt;BlastP hit with ctg1_985&lt;/b&gt;&lt;br&gt;Percentage identity: 95&lt;br&gt;Percentage coverage: 100&lt;br&gt;BLAST bit score: 895&lt;br&gt;E-value: 2.2e-258" locus_tag="B723_RS27590" class="clusterblast-orf" id="dummy-2_h2_3_37"  />
</g>
<g id="a2_0038"  >
<polygon points="742,90 746,90 751,85 746,80 742,80 742,90 " style="fill:#86d815; stroke-width:1; stroke:black; " description="&lt;b&gt;B723_RS27585&lt;/b&gt;&lt;br&gt;3-isopropylmalate dehydratase small subunit&lt;br&gt;Location: 6062303 - 6061689&lt;br&gt;&lt;br&gt;&lt;b&gt;BlastP hit with ctg1_986&lt;/b&gt;&lt;br&gt;Percentage identity: 92&lt;br&gt;Percentage coverage: 100&lt;br&gt;BLAST bit score: 375&lt;br&gt;E-value: 3.3e-102" locus_tag="B723_RS27585" class="clusterblast-orf" id="dummy-2_h2_3_38"  />
</g>
<g id="a2_0039"  >
<polygon points="752,85 757,80 766,80 766,90 757,90 752,85 " style="fill:#15d8d8; stroke-width:1; stroke:black; " description="&lt;b&gt;B723_RS27580&lt;/b&gt;&lt;br&gt;LysR family transcriptional regulator&lt;br&gt;Location: 6061627 - 6060677&lt;br&gt;&lt;br&gt;&lt;b&gt;BlastP hit with ctg1_987&lt;/b&gt;&lt;br&gt;Percentage identity: 94&lt;br&gt;Percentage coverage: 100&lt;br&gt;BLAST bit score: 551&lt;br&gt;E-value: 6.2e-155" locus_tag="B723_RS27580" class="clusterblast-orf" id="dummy-2_h2_3_39"  />
</g>
<g id="a2_0040"  >
<polygon points="766,85 771,80 780,80 780,90 771,90 766,85 " style="fill:white; stroke-width:1; stroke:black; " description="&lt;b&gt;B723_RS27575&lt;/b&gt;&lt;br&gt;alpha/beta hydrolase&lt;br&gt;Location: 6060658 - 6059783" locus_tag="B723_RS27575" class="clusterblast-orf" id="dummy-2_h2_3_40"  />
</g>
</svg>
