<svg xmlns="http://www.w3.org/2000/svg" xmlns:xlink="http://www.w3.org/1999/xlink" version="1.1" x="0" y="0" height="230" width="800" viewBox="0 0 800 230" preserveAspectRatio="none"  >
<g label="Query sequence" class="clusterblast-cluster"  >
<text x="5" y="20" class="clusterblast-acc"  >
Query sequence</text>
<line x1="10" y1="35" x2="778.0" y2="35" style="stroke-width:1; stroke:grey; "  />
<polygon points="0,40 22,40 27,35 22,30 0,30 0,40 " style="fill:#d81515; stroke-width:1; stroke:black; " description="&lt;b&gt;ctg4_256&lt;/b&gt;&lt;br&gt;ctg4 256&lt;br&gt;Location: 315122 - 316586" locus_tag="ctg4_256" class="clusterblast-orf" id="dummy-1_q0_0_all"  />
<polygon points="27,35 31,30 31,40 27,35 " style="fill:#6fd815; stroke-width:1; stroke:black; " description="&lt;b&gt;ctg4_257&lt;/b&gt;&lt;br&gt;ctg4 257&lt;br&gt;Location: 316588 - 316825" locus_tag="ctg4_257" class="clusterblast-orf" id="dummy-1_q1_0_all"  />
<polygon points="35,40 38,40 43,35 38,30 35,30 35,40 " style="fill:#15c9d8; stroke-width:1; stroke:black; " description="&lt;b&gt;ctg4_258&lt;/b&gt;&lt;br&gt;ctg4 258&lt;br&gt;Location: 317041 - 317476" locus_tag="ctg4_258" class="clusterblast-orf" id="dummy-1_q2_0_all"  />
<polygon points="46,35 51,30 60,30 60,40 51,40 46,35 " style="fill:#8d15d8; stroke-width:1; stroke:black; " description="&lt;b&gt;ctg4_259&lt;/b&gt;&lt;br&gt;ctg4 259&lt;br&gt;Location: 317609 - 318380" locus_tag="ctg4_259" class="clusterblast-orf" id="dummy-1_q3_0_all"  />
<polygon points="67,40 75,40 80,35 75,30 67,30 67,40 " style="fill:#d83315; stroke-width:1; stroke:black; " description="&lt;b&gt;ctg4_260&lt;/b&gt;&lt;br&gt;ctg4 260&lt;br&gt;Location: 318743 - 319463" locus_tag="ctg4_260" class="clusterblast-orf" id="dummy-1_q4_0_all"  />
<polygon points="80,40 90,40 95,35 90,30 80,30 80,40 " style="fill:#51d815; stroke-width:1; stroke:black; " description="&lt;b&gt;ctg4_261&lt;/b&gt;&lt;br&gt;ctg4 261&lt;br&gt;Location: 319438 - 320248" locus_tag="ctg4_261" class="clusterblast-orf" id="dummy-1_q5_0_all"  />
<polygon points="95,40 99,35 95,30 95,40 " style="fill:#15abd8; stroke-width:1; stroke:black; " description="&lt;b&gt;ctg4_262&lt;/b&gt;&lt;br&gt;ctg4 262&lt;br&gt;Location: 320228 - 320489" locus_tag="ctg4_262" class="clusterblast-orf" id="dummy-1_q6_0_all"  />
<polygon points="100,40 104,35 100,30 100,40 " style="fill:#ab15d8; stroke-width:1; stroke:black; " description="&lt;b&gt;ctg4_263&lt;/b&gt;&lt;br&gt;ctg4 263&lt;br&gt;Location: 320498 - 320753" locus_tag="ctg4_263" class="clusterblast-orf" id="dummy-1_q7_0_all"  />
<polygon points="104,40 109,40 114,35 109,30 104,30 104,40 " style="fill:#d85115; stroke-width:1; stroke:black; " description="&lt;b&gt;ctg4_264&lt;/b&gt;&lt;br&gt;ctg4 264&lt;br&gt;Location: 320749 - 321295" locus_tag="ctg4_264" class="clusterblast-orf" id="dummy-1_q8_0_all"  />
<polygon points="114,40 141,40 146,35 141,30 114,30 114,40 " style="fill:#33d815; stroke-width:1; stroke:black; " description="&lt;b&gt;ctg4_265&lt;/b&gt;&lt;br&gt;ctg4 265&lt;br&gt;Location: 321291 - 322971" locus_tag="ctg4_265" class="clusterblast-orf" id="dummy-1_q9_0_all"  />
<polygon points="147,40 157,40 162,35 157,30 147,30 147,40 " style="fill:#158dd8; stroke-width:1; stroke:black; " description="&lt;b&gt;ctg4_266&lt;/b&gt;&lt;br&gt;ctg4 266&lt;br&gt;Location: 323060 - 323870" locus_tag="ctg4_266" class="clusterblast-orf" id="dummy-1_q10_0_all"  />
<polygon points="162,40 175,40 180,35 175,30 162,30 162,40 " style="fill:#c915d8; stroke-width:1; stroke:black; " description="&lt;b&gt;ctg4_267&lt;/b&gt;&lt;br&gt;ctg4 267&lt;br&gt;Location: 323866 - 324814" locus_tag="ctg4_267" class="clusterblast-orf" id="dummy-1_q11_0_all"  />
<polygon points="179,40 203,40 208,35 203,30 179,30 179,40 " style="fill:#d86f15; stroke-width:1; stroke:black; " description="&lt;b&gt;ctg4_268&lt;/b&gt;&lt;br&gt;ctg4 268&lt;br&gt;Location: 324794 - 326339" locus_tag="ctg4_268" class="clusterblast-orf" id="dummy-1_q12_0_all"  />
<polygon points="208,40 211,40 216,35 211,30 208,30 208,40 " style="fill:#15d815; stroke-width:1; stroke:black; " description="&lt;b&gt;ctg4_269&lt;/b&gt;&lt;br&gt;ctg4 269&lt;br&gt;Location: 326331 - 326757" locus_tag="ctg4_269" class="clusterblast-orf" id="dummy-1_q13_0_all"  />
<polygon points="216,40 224,40 229,35 224,30 216,30 216,40 " style="fill:#156fd8; stroke-width:1; stroke:black; " description="&lt;b&gt;ctg4_270&lt;/b&gt;&lt;br&gt;ctg4 270&lt;br&gt;Location: 326753 - 327488" locus_tag="ctg4_270" class="clusterblast-orf" id="dummy-1_q14_0_all"  />
<polygon points="229,40 268,40 273,35 268,30 229,30 229,40 " style="fill:#d815c9; stroke-width:1; stroke:black; " description="&lt;b&gt;ctg4_271&lt;/b&gt;&lt;br&gt;ctg4 271&lt;br&gt;Location: 327471 - 329814" locus_tag="ctg4_271" class="clusterblast-orf" id="dummy-1_q15_0_all"  />
<polygon points="273,40 289,40 294,35 289,30 273,30 273,40 " style="fill:#d88d15; stroke-width:1; stroke:black; " description="&lt;b&gt;ctg4_272&lt;/b&gt;&lt;br&gt;ctg4 272&lt;br&gt;Location: 329810 - 330971" locus_tag="ctg4_272" class="clusterblast-orf" id="dummy-1_q16_0_all"  />
<polygon points="294,40 312,40 317,35 312,30 294,30 294,40 " style="fill:#15d833; stroke-width:1; stroke:black; " description="&lt;b&gt;ctg4_273&lt;/b&gt;&lt;br&gt;ctg4 273&lt;br&gt;Location: 330957 - 332205" locus_tag="ctg4_273" class="clusterblast-orf" id="dummy-1_q17_0_all"  />
<polygon points="317,40 325,40 330,35 325,30 317,30 317,40 " style="fill:#1551d8; stroke-width:1; stroke:black; " description="&lt;b&gt;ctg4_274&lt;/b&gt;&lt;br&gt;ctg4 274&lt;br&gt;Location: 332201 - 332927" locus_tag="ctg4_274" class="clusterblast-orf" id="dummy-1_q18_0_all"  />
<polygon points="330,40 337,40 342,35 337,30 330,30 330,40 " style="fill:#d815ab; stroke-width:1; stroke:black; " description="&lt;b&gt;ctg4_275&lt;/b&gt;&lt;br&gt;ctg4 275&lt;br&gt;Location: 332926 - 333547" locus_tag="ctg4_275" class="clusterblast-orf" id="dummy-1_q19_0_all"  />
<polygon points="342,40 359,40 364,35 359,30 342,30 342,40 " style="fill:#d8ab15; stroke-width:1; stroke:black; " description="&lt;b&gt;ctg4_276&lt;/b&gt;&lt;br&gt;ctg4 276&lt;br&gt;Location: 333543 - 334740" locus_tag="ctg4_276" class="clusterblast-orf" id="dummy-1_q20_0_all"  />
<polygon points="364,40 368,40 373,35 368,30 364,30 364,40 " style="fill:#15d851; stroke-width:1; stroke:black; " description="&lt;b&gt;ctg4_277&lt;/b&gt;&lt;br&gt;ctg4 277&lt;br&gt;Location: 334736 - 335195" locus_tag="ctg4_277" class="clusterblast-orf" id="dummy-1_q21_0_all"  />
<polygon points="373,40 381,40 386,35 381,30 373,30 373,40 " style="fill:#1533d8; stroke-width:1; stroke:black; " description="&lt;b&gt;ctg4_278&lt;/b&gt;&lt;br&gt;ctg4 278&lt;br&gt;Location: 335194 - 335923" locus_tag="ctg4_278" class="clusterblast-orf" id="dummy-1_q22_0_all"  />
<polygon points="386,40 404,40 409,35 404,30 386,30 386,40 " style="fill:#d8ab15; stroke-width:1; stroke:black; " description="&lt;b&gt;ctg4_279&lt;/b&gt;&lt;br&gt;ctg4 279&lt;br&gt;Location: 335922 - 337149" locus_tag="ctg4_279" class="clusterblast-orf" id="dummy-1_q23_0_all"  />
<polygon points="409,40 413,40 418,35 413,30 409,30 409,40 " style="fill:#d8158d; stroke-width:1; stroke:black; " description="&lt;b&gt;ctg4_280&lt;/b&gt;&lt;br&gt;ctg4 280&lt;br&gt;Location: 337178 - 337625" locus_tag="ctg4_280" class="clusterblast-orf" id="dummy-1_q24_0_all"  />
<polygon points="423,35 428,30 440,30 440,40 428,40 423,35 " style="fill:#d8c915; stroke-width:1; stroke:black; " description="&lt;b&gt;ctg4_281&lt;/b&gt;&lt;br&gt;ctg4 281&lt;br&gt;Location: 337929 - 338808" locus_tag="ctg4_281" class="clusterblast-orf" id="dummy-1_q25_0_all"  />
<polygon points="440,35 445,30 451,30 451,40 445,40 440,35 " style="fill:#15d86f; stroke-width:1; stroke:black; " description="&lt;b&gt;ctg4_282&lt;/b&gt;&lt;br&gt;ctg4 282&lt;br&gt;Location: 338800 - 339397" locus_tag="ctg4_282" class="clusterblast-orf" id="dummy-1_q26_0_all"  />
<polygon points="459,40 461,40 466,35 461,30 459,30 459,40 " style="fill:#1515d8; stroke-width:1; stroke:black; " description="&lt;b&gt;ctg4_283&lt;/b&gt;&lt;br&gt;ctg4 283&lt;br&gt;Location: 339852 - 340236" locus_tag="ctg4_283" class="clusterblast-orf" id="dummy-1_q27_0_all"  />
<polygon points="467,40 467,40 472,35 467,30 467,30 467,40 " style="fill:#d8156f; stroke-width:1; stroke:black; " description="&lt;b&gt;ctg4_284&lt;/b&gt;&lt;br&gt;ctg4 284&lt;br&gt;Location: 340273 - 340528" locus_tag="ctg4_284" class="clusterblast-orf" id="dummy-1_q28_0_all"  />
<polygon points="475,35 479,30 479,40 475,35 " style="fill:#c9d815; stroke-width:1; stroke:black; " description="&lt;b&gt;ctg4_285&lt;/b&gt;&lt;br&gt;ctg4 285&lt;br&gt;Location: 340717 - 340909" locus_tag="ctg4_285" class="clusterblast-orf" id="dummy-1_q29_0_all"  />
<polygon points="482,35 487,30 498,30 498,40 487,40 482,35 " style="fill:#15d88d; stroke-width:1; stroke:black; " description="&lt;b&gt;ctg4_286&lt;/b&gt;&lt;br&gt;ctg4 286&lt;br&gt;Location: 341059 - 341962" locus_tag="ctg4_286" class="clusterblast-orf" id="dummy-1_q30_0_all"  />
<polygon points="500,40 519,40 524,35 519,30 500,30 500,40 " style="fill:#3315d8; stroke-width:1; stroke:black; " description="&lt;b&gt;ctg4_287&lt;/b&gt;&lt;br&gt;ctg4 287&lt;br&gt;Location: 342035 - 343355" locus_tag="ctg4_287" class="clusterblast-orf" id="dummy-1_q31_0_all"  />
<polygon points="528,35 533,30 547,30 547,40 533,40 528,35 " style="fill:#d81551; stroke-width:1; stroke:black; " description="&lt;b&gt;ctg4_288&lt;/b&gt;&lt;br&gt;ctg4 288&lt;br&gt;Location: 343531 - 344599" locus_tag="ctg4_288" class="clusterblast-orf" id="dummy-1_q32_0_all"  />
<polygon points="552,35 557,30 578,30 578,40 557,40 552,35 " style="fill:#abd815; stroke-width:1; stroke:black; " description="&lt;b&gt;ctg4_289&lt;/b&gt;&lt;br&gt;ctg4 289&lt;br&gt;Location: 344851 - 346270" locus_tag="ctg4_289" class="clusterblast-orf" id="dummy-1_q33_0_all"  />
<polygon points="579,35 584,30 662,30 662,40 584,40 579,35 " style="fill:#15d8ab; stroke-width:1; stroke:black; " description="&lt;b&gt;ctg4_290&lt;/b&gt;&lt;br&gt;ctg4 290&lt;br&gt;Location: 346303 - 350749" locus_tag="ctg4_290" class="clusterblast-orf" id="dummy-1_q34_0_all"  />
<polygon points="668,35 673,30 698,30 698,40 673,40 668,35 " style="fill:#5115d8; stroke-width:1; stroke:black; " description="&lt;b&gt;ctg4_291&lt;/b&gt;&lt;br&gt;ctg4 291&lt;br&gt;Location: 351099 - 352689" locus_tag="ctg4_291" class="clusterblast-orf" id="dummy-1_q35_0_all"  />
<polygon points="698,35 703,30 718,30 718,40 703,40 698,35 " style="fill:#d81533; stroke-width:1; stroke:black; " description="&lt;b&gt;ctg4_292&lt;/b&gt;&lt;br&gt;ctg4 292&lt;br&gt;Location: 352699 - 353800" locus_tag="ctg4_292" class="clusterblast-orf" id="dummy-1_q36_0_all"  />
<polygon points="721,35 726,30 730,30 730,40 726,40 721,35 " style="fill:#8dd815; stroke-width:1; stroke:black; " description="&lt;b&gt;ctg4_293&lt;/b&gt;&lt;br&gt;ctg4 293&lt;br&gt;Location: 353951 - 354443" locus_tag="ctg4_293" class="clusterblast-orf" id="dummy-1_q37_0_all"  />
<polygon points="731,35 736,30 770,30 770,40 736,40 731,35 " style="fill:#15d8c9; stroke-width:1; stroke:black; " description="&lt;b&gt;ctg4_294&lt;/b&gt;&lt;br&gt;ctg4 294&lt;br&gt;Location: 354474 - 356562" locus_tag="ctg4_294" class="clusterblast-orf" id="dummy-1_q38_0_all"  />
<polygon points="770,35 775,30 780,30 780,40 775,40 770,35 " style="fill:#6f15d8; stroke-width:1; stroke:black; " description="&lt;b&gt;ctg4_295&lt;/b&gt;&lt;br&gt;ctg4 295&lt;br&gt;Location: 356575 - 357103" locus_tag="ctg4_295" class="clusterblast-orf" id="dummy-1_q39_0_all"  />
</g>
<g label="NZ_CP018319" description="NZ_CP018319_c1: Pseudomonas frederiksbergensis strain AS1, complete genome (87% of genes show similarity), arylpolyene" class="clusterblast-cluster"  >
<text x="5" y="70" class="clusterblast-acc"  >
<a xlink:href="https://antismash-db.secondarymetabolites.org/go/NZ_CP018319/1" target="_blank">NZ_CP018319_c1</a>: Pseudomonas frederiksbergensis strain AS1, complete genome (87% of genes show similarity), arylpolyene</text>
<line x1="10" y1="85" x2="778.0" y2="85" style="stroke-width:1; stroke:grey; "  />
</g>
<g id="a1_000"  >
<polygon points="5,90 27,90 32,85 27,80 5,80 5,90 " style="fill:#d81515; stroke-width:1; stroke:black; " description="&lt;b&gt;PFAS1_RS08955&lt;/b&gt;&lt;br&gt;YdiU family protein&lt;br&gt;Location: 1927965 - 1929428&lt;br&gt;&lt;br&gt;&lt;b&gt;BlastP hit with ctg4_256&lt;/b&gt;&lt;br&gt;Percentage identity: 95&lt;br&gt;Percentage coverage: 100&lt;br&gt;BLAST bit score: 948&lt;br&gt;E-value: 2.9e-274" locus_tag="PFAS1_RS08955" class="clusterblast-orf" id="dummy-1_h1_4_0"  />
</g>
<g id="a1_001"  >
<polygon points="32,85 37,80 37,80 37,90 37,90 32,85 " style="fill:#6fd815; stroke-width:1; stroke:black; " description="&lt;b&gt;PFAS1_RS08960&lt;/b&gt;&lt;br&gt;hypothetical protein&lt;br&gt;Location: 1929447 - 1929668&lt;br&gt;&lt;br&gt;&lt;b&gt;BlastP hit with ctg4_257&lt;/b&gt;&lt;br&gt;Percentage identity: 58&lt;br&gt;Percentage coverage: 91&lt;br&gt;BLAST bit score: 86&lt;br&gt;E-value: 2e-15" locus_tag="PFAS1_RS08960" class="clusterblast-orf" id="dummy-1_h1_4_1"  />
</g>
<g id="a1_002"  >
<polygon points="40,90 43,90 48,85 43,80 40,80 40,90 " style="fill:#15c9d8; stroke-width:1; stroke:black; " description="&lt;b&gt;PFAS1_RS08965&lt;/b&gt;&lt;br&gt;thioredoxin TrxC&lt;br&gt;Location: 1929872 - 1930306&lt;br&gt;&lt;br&gt;&lt;b&gt;BlastP hit with ctg4_258&lt;/b&gt;&lt;br&gt;Percentage identity: 94&lt;br&gt;Percentage coverage: 100&lt;br&gt;BLAST bit score: 289&lt;br&gt;E-value: 2.9e-76" locus_tag="PFAS1_RS08965" class="clusterblast-orf" id="dummy-1_h1_4_2"  />
</g>
<g id="a1_003"  >
<polygon points="52,85 57,80 66,80 66,90 57,90 52,85 " style="fill:#8d15d8; stroke-width:1; stroke:black; " description="&lt;b&gt;PFAS1_RS08970&lt;/b&gt;&lt;br&gt;ParA family protein&lt;br&gt;Location: 1930489 - 1931259&lt;br&gt;&lt;br&gt;&lt;b&gt;BlastP hit with ctg4_259&lt;/b&gt;&lt;br&gt;Percentage identity: 98&lt;br&gt;Percentage coverage: 100&lt;br&gt;BLAST bit score: 497&lt;br&gt;E-value: 9.4e-139" locus_tag="PFAS1_RS08970" class="clusterblast-orf" id="dummy-1_h1_4_3"  />
</g>
<g id="a1_004"  >
<polygon points="73,90 81,90 86,85 81,80 73,80 73,90 " style="fill:#d83315; stroke-width:1; stroke:black; " description="&lt;b&gt;PFAS1_RS08975&lt;/b&gt;&lt;br&gt;3-oxoacyl-ACP synthase&lt;br&gt;Location: 1931615 - 1932340&lt;br&gt;&lt;br&gt;&lt;b&gt;BlastP hit with ctg4_260&lt;/b&gt;&lt;br&gt;Percentage identity: 94&lt;br&gt;Percentage coverage: 100&lt;br&gt;BLAST bit score: 467&lt;br&gt;E-value: 1.3e-129" locus_tag="PFAS1_RS08975" class="clusterblast-orf" id="dummy-1_h1_4_4"  />
</g>
<g id="a1_005"  >
<polygon points="86,90 96,90 101,85 96,80 86,80 86,90 " style="fill:#51d815; stroke-width:1; stroke:black; " description="&lt;b&gt;PFAS1_RS08980&lt;/b&gt;&lt;br&gt;1-acyl-sn-glycerol-3-phosphate acyltransferase&lt;br&gt;Location: 1932316 - 1933125&lt;br&gt;&lt;br&gt;&lt;b&gt;BlastP hit with ctg4_261&lt;/b&gt;&lt;br&gt;Percentage identity: 91&lt;br&gt;Percentage coverage: 100&lt;br&gt;BLAST bit score: 504&lt;br&gt;E-value: 6.2e-141" locus_tag="PFAS1_RS08980" class="clusterblast-orf" id="dummy-1_h1_4_5"  />
</g>
<g id="a1_006"  >
<polygon points="100,90 100,90 105,85 100,80 100,80 100,90 " style="fill:#15abd8; stroke-width:1; stroke:black; " description="&lt;b&gt;PFAS1_RS08985&lt;/b&gt;&lt;br&gt;acyl carrier protein&lt;br&gt;Location: 1933106 - 1933366&lt;br&gt;&lt;br&gt;&lt;b&gt;BlastP hit with ctg4_262&lt;/b&gt;&lt;br&gt;Percentage identity: 97&lt;br&gt;Percentage coverage: 100&lt;br&gt;BLAST bit score: 161&lt;br&gt;E-value: 5.4e-38" locus_tag="PFAS1_RS08985" class="clusterblast-orf" id="dummy-1_h1_4_6"  />
</g>
<g id="a1_007"  >
<polygon points="105,90 105,90 110,85 105,80 105,80 105,90 " style="fill:#ab15d8; stroke-width:1; stroke:black; " description="&lt;b&gt;PFAS1_RS08990&lt;/b&gt;&lt;br&gt;acyl carrier protein&lt;br&gt;Location: 1933376 - 1933630&lt;br&gt;&lt;br&gt;&lt;b&gt;BlastP hit with ctg4_263&lt;/b&gt;&lt;br&gt;Percentage identity: 99&lt;br&gt;Percentage coverage: 100&lt;br&gt;BLAST bit score: 159&lt;br&gt;E-value: 1.5e-37" locus_tag="PFAS1_RS08990" class="clusterblast-orf" id="dummy-1_h1_4_7"  />
</g>
<g id="a1_008"  >
<polygon points="110,90 115,90 120,85 115,80 110,80 110,90 " style="fill:#d85115; stroke-width:1; stroke:black; " description="&lt;b&gt;PFAS1_RS08995&lt;/b&gt;&lt;br&gt;hypothetical protein&lt;br&gt;Location: 1933627 - 1934172&lt;br&gt;&lt;br&gt;&lt;b&gt;BlastP hit with ctg4_264&lt;/b&gt;&lt;br&gt;Percentage identity: 89&lt;br&gt;Percentage coverage: 100&lt;br&gt;BLAST bit score: 328&lt;br&gt;E-value: 5.4e-88" locus_tag="PFAS1_RS08995" class="clusterblast-orf" id="dummy-1_h1_4_8"  />
</g>
<g id="a1_009"  >
<polygon points="120,90 146,90 151,85 146,80 120,80 120,90 " style="fill:#33d815; stroke-width:1; stroke:black; " description="&lt;b&gt;PFAS1_RS09000&lt;/b&gt;&lt;br&gt;AMP-binding protein&lt;br&gt;Location: 1934169 - 1935851&lt;br&gt;&lt;br&gt;&lt;b&gt;BlastP hit with ctg4_265&lt;/b&gt;&lt;br&gt;Percentage identity: 90&lt;br&gt;Percentage coverage: 100&lt;br&gt;BLAST bit score: 1003&lt;br&gt;E-value: 8.8e-291" locus_tag="PFAS1_RS09000" class="clusterblast-orf" id="dummy-1_h1_4_9"  />
</g>
<g id="a1_0010"  >
<polygon points="154,90 163,90 168,85 163,80 154,80 154,90 " style="fill:#158dd8; stroke-width:1; stroke:black; " description="&lt;b&gt;PFAS1_RS09005&lt;/b&gt;&lt;br&gt;glycosyltransferase family 2 protein&lt;br&gt;Location: 1936001 - 1936735&lt;br&gt;&lt;br&gt;&lt;b&gt;BlastP hit with ctg4_266&lt;/b&gt;&lt;br&gt;Percentage identity: 90&lt;br&gt;Percentage coverage: 90&lt;br&gt;BLAST bit score: 449&lt;br&gt;E-value: 3.1e-124" locus_tag="PFAS1_RS09005" class="clusterblast-orf" id="dummy-1_h1_4_10"  />
</g>
<g id="a1_0011"  >
<polygon points="168,90 180,90 185,85 180,80 168,80 168,90 " style="fill:#c915d8; stroke-width:1; stroke:black; " description="&lt;b&gt;PFAS1_RS09010&lt;/b&gt;&lt;br&gt;glycosyl transferase&lt;br&gt;Location: 1936732 - 1937679&lt;br&gt;&lt;br&gt;&lt;b&gt;BlastP hit with ctg4_267&lt;/b&gt;&lt;br&gt;Percentage identity: 94&lt;br&gt;Percentage coverage: 100&lt;br&gt;BLAST bit score: 629&lt;br&gt;E-value: 2.6e-178" locus_tag="PFAS1_RS09010" class="clusterblast-orf" id="dummy-1_h1_4_11"  />
</g>
<g id="a1_0012"  >
<polygon points="185,90 209,90 214,85 209,80 185,80 185,90 " style="fill:#d86f15; stroke-width:1; stroke:black; " description="&lt;b&gt;PFAS1_RS09015&lt;/b&gt;&lt;br&gt;aromatic amino acid lyase&lt;br&gt;Location: 1937660 - 1939204&lt;br&gt;&lt;br&gt;&lt;b&gt;BlastP hit with ctg4_268&lt;/b&gt;&lt;br&gt;Percentage identity: 97&lt;br&gt;Percentage coverage: 100&lt;br&gt;BLAST bit score: 998&lt;br&gt;E-value: 3.4e-289" locus_tag="PFAS1_RS09015" class="clusterblast-orf" id="dummy-1_h1_4_12"  />
</g>
<g id="a1_0013"  >
<polygon points="214,90 217,90 222,85 217,80 214,80 214,90 " style="fill:#15d815; stroke-width:1; stroke:black; " description="&lt;b&gt;PFAS1_RS09020&lt;/b&gt;&lt;br&gt;acyl-CoA thioesterase&lt;br&gt;Location: 1939197 - 1939622&lt;br&gt;&lt;br&gt;&lt;b&gt;BlastP hit with ctg4_269&lt;/b&gt;&lt;br&gt;Percentage identity: 94&lt;br&gt;Percentage coverage: 99&lt;br&gt;BLAST bit score: 271&lt;br&gt;E-value: 4.6e-71" locus_tag="PFAS1_RS09020" class="clusterblast-orf" id="dummy-1_h1_4_13"  />
</g>
<g id="a1_0014"  >
<polygon points="224,90 230,90 235,85 230,80 224,80 224,90 " style="fill:#156fd8; stroke-width:1; stroke:black; " description="&lt;b&gt;PFAS1_RS09025&lt;/b&gt;&lt;br&gt;outer membrane lipoprotein carrier protein LolA&lt;br&gt;Location: 1939769 - 1940362&lt;br&gt;&lt;br&gt;&lt;b&gt;BlastP hit with ctg4_270&lt;/b&gt;&lt;br&gt;Percentage identity: 88&lt;br&gt;Percentage coverage: 79&lt;br&gt;BLAST bit score: 338&lt;br&gt;E-value: 5.3e-91" locus_tag="PFAS1_RS09025" class="clusterblast-orf" id="dummy-1_h1_4_14"  />
</g>
<g id="a1_0015"  >
<polygon points="235,90 273,90 278,85 273,80 235,80 235,90 " style="fill:#d815c9; stroke-width:1; stroke:black; " description="&lt;b&gt;PFAS1_RS09030&lt;/b&gt;&lt;br&gt;hypothetical protein&lt;br&gt;Location: 1940346 - 1942685&lt;br&gt;&lt;br&gt;&lt;b&gt;BlastP hit with ctg4_271&lt;/b&gt;&lt;br&gt;Percentage identity: 92&lt;br&gt;Percentage coverage: 100&lt;br&gt;BLAST bit score: 1346&lt;br&gt;E-value: 0.0" locus_tag="PFAS1_RS09030" class="clusterblast-orf" id="dummy-1_h1_4_15"  />
</g>
<g id="a1_0016"  >
<polygon points="278,90 295,90 300,85 295,80 278,80 278,90 " style="fill:#d88d15; stroke-width:1; stroke:black; " description="&lt;b&gt;PFAS1_RS09035&lt;/b&gt;&lt;br&gt;sodium:proton antiporter&lt;br&gt;Location: 1942682 - 1943842&lt;br&gt;&lt;br&gt;&lt;b&gt;BlastP hit with ctg4_272&lt;/b&gt;&lt;br&gt;Percentage identity: 89&lt;br&gt;Percentage coverage: 100&lt;br&gt;BLAST bit score: 649&lt;br&gt;E-value: 2.2e-184" locus_tag="PFAS1_RS09035" class="clusterblast-orf" id="dummy-1_h1_4_16"  />
</g>
<g id="a1_0017"  >
<polygon points="300,90 318,90 323,85 318,80 300,80 300,90 " style="fill:#15d833; stroke-width:1; stroke:black; " description="&lt;b&gt;PFAS1_RS09040&lt;/b&gt;&lt;br&gt;NAD(P)/FAD-dependent oxidoreductase&lt;br&gt;Location: 1943829 - 1945076&lt;br&gt;&lt;br&gt;&lt;b&gt;BlastP hit with ctg4_273&lt;/b&gt;&lt;br&gt;Percentage identity: 89&lt;br&gt;Percentage coverage: 100&lt;br&gt;BLAST bit score: 780&lt;br&gt;E-value: 6.9e-224" locus_tag="PFAS1_RS09040" class="clusterblast-orf" id="dummy-1_h1_4_17"  />
</g>
<g id="a1_0018"  >
<polygon points="323,90 331,90 336,85 331,80 323,80 323,90 " style="fill:#1551d8; stroke-width:1; stroke:black; " description="&lt;b&gt;PFAS1_RS09045&lt;/b&gt;&lt;br&gt;class I SAM-dependent methyltransferase&lt;br&gt;Location: 1945073 - 1945798&lt;br&gt;&lt;br&gt;&lt;b&gt;BlastP hit with ctg4_274&lt;/b&gt;&lt;br&gt;Percentage identity: 89&lt;br&gt;Percentage coverage: 100&lt;br&gt;BLAST bit score: 457&lt;br&gt;E-value: 7.8e-127" locus_tag="PFAS1_RS09045" class="clusterblast-orf" id="dummy-1_h1_4_18"  />
</g>
<g id="a1_0019"  >
<polygon points="336,90 343,90 348,85 343,80 336,80 336,90 " style="fill:#d815ab; stroke-width:1; stroke:black; " description="&lt;b&gt;PFAS1_RS09050&lt;/b&gt;&lt;br&gt;hypothetical protein&lt;br&gt;Location: 1945798 - 1946403&lt;br&gt;&lt;br&gt;&lt;b&gt;BlastP hit with ctg4_275&lt;/b&gt;&lt;br&gt;Percentage identity: 81&lt;br&gt;Percentage coverage: 94&lt;br&gt;BLAST bit score: 327&lt;br&gt;E-value: 1.4e-87" locus_tag="PFAS1_RS09050" class="clusterblast-orf" id="dummy-1_h1_4_19"  />
</g>
<g id="a1_0020"  >
<polygon points="347,90 365,90 370,85 365,80 347,80 347,90 " style="fill:#d8ab15; stroke-width:1; stroke:black; " description="&lt;b&gt;PFAS1_RS09055&lt;/b&gt;&lt;br&gt;beta-ketoacyl-[acyl-carrier-protein] synthase II&lt;br&gt;Location: 1946400 - 1947596&lt;br&gt;&lt;br&gt;&lt;b&gt;BlastP hit with ctg4_276&lt;/b&gt;&lt;br&gt;Percentage identity: 88&lt;br&gt;Percentage coverage: 100&lt;br&gt;BLAST bit score: 698&lt;br&gt;E-value: 3.3e-199&lt;br&gt;&lt;br&gt;&lt;b&gt;BlastP hit with ctg4_279&lt;/b&gt;&lt;br&gt;Percentage identity: 32&lt;br&gt;Percentage coverage: 100&lt;br&gt;BLAST bit score: 137&lt;br&gt;E-value: 3.9e-30" locus_tag="PFAS1_RS09055" class="clusterblast-orf" id="dummy-1_h1_4_20"  />
</g>
<g id="a1_0021"  >
<polygon points="370,90 373,90 378,85 373,80 370,80 370,90 " style="fill:#15d851; stroke-width:1; stroke:black; " description="&lt;b&gt;PFAS1_RS09060&lt;/b&gt;&lt;br&gt;3-hydroxylacyl-ACP dehydratase&lt;br&gt;Location: 1947593 - 1948054&lt;br&gt;&lt;br&gt;&lt;b&gt;BlastP hit with ctg4_277&lt;/b&gt;&lt;br&gt;Percentage identity: 90&lt;br&gt;Percentage coverage: 100&lt;br&gt;BLAST bit score: 296&lt;br&gt;E-value: 1.9e-78" locus_tag="PFAS1_RS09060" class="clusterblast-orf" id="dummy-1_h1_4_21"  />
</g>
<g id="a1_0022"  >
<polygon points="378,90 387,90 392,85 387,80 378,80 378,90 " style="fill:#1533d8; stroke-width:1; stroke:black; " description="&lt;b&gt;PFAS1_RS09065&lt;/b&gt;&lt;br&gt;3-oxoacyl-ACP reductase FabG&lt;br&gt;Location: 1948051 - 1948779&lt;br&gt;&lt;br&gt;&lt;b&gt;BlastP hit with ctg4_278&lt;/b&gt;&lt;br&gt;Percentage identity: 96&lt;br&gt;Percentage coverage: 100&lt;br&gt;BLAST bit score: 457&lt;br&gt;E-value: 1e-126" locus_tag="PFAS1_RS09065" class="clusterblast-orf" id="dummy-1_h1_4_22"  />
</g>
<g id="a1_0023"  >
<polygon points="392,90 409,90 414,85 409,80 392,80 392,90 " style="fill:#d8ab15; stroke-width:1; stroke:black; " description="&lt;b&gt;PFAS1_RS09070&lt;/b&gt;&lt;br&gt;beta-ketoacyl-ACP synthase II&lt;br&gt;Location: 1948779 - 1950005&lt;br&gt;&lt;br&gt;&lt;b&gt;BlastP hit with ctg4_276&lt;/b&gt;&lt;br&gt;Percentage identity: 33&lt;br&gt;Percentage coverage: 102&lt;br&gt;BLAST bit score: 139&lt;br&gt;E-value: 5.9e-31&lt;br&gt;&lt;br&gt;&lt;b&gt;BlastP hit with ctg4_279&lt;/b&gt;&lt;br&gt;Percentage identity: 97&lt;br&gt;Percentage coverage: 100&lt;br&gt;BLAST bit score: 805&lt;br&gt;E-value: 2e-231" locus_tag="PFAS1_RS09070" class="clusterblast-orf" id="dummy-1_h1_4_23"  />
</g>
<g id="a1_0024"  >
<polygon points="420,85 424,80 424,90 420,85 " style="fill:white; stroke-width:1; stroke:black; " description="&lt;b&gt;PFAS1_RS09075&lt;/b&gt;&lt;br&gt;hypothetical protein&lt;br&gt;Location: 1950280 - 1950546" locus_tag="PFAS1_RS09075" class="clusterblast-orf" id="dummy-1_h1_4_24"  />
</g>
<g id="a1_0025"  >
<polygon points="434,85 439,80 451,80 451,90 439,90 434,85 " style="fill:#15d88d; stroke-width:1; stroke:black; " description="&lt;b&gt;PFAS1_RS09080&lt;/b&gt;&lt;br&gt;LysR family transcriptional regulator&lt;br&gt;Location: 1951057 - 1951959&lt;br&gt;&lt;br&gt;&lt;b&gt;BlastP hit with ctg4_286&lt;/b&gt;&lt;br&gt;Percentage identity: 99&lt;br&gt;Percentage coverage: 100&lt;br&gt;BLAST bit score: 561&lt;br&gt;E-value: 8.1e-158" locus_tag="PFAS1_RS09080" class="clusterblast-orf" id="dummy-1_h1_4_25"  />
</g>
<g id="a1_0026"  >
<polygon points="453,90 472,90 477,85 472,80 453,80 453,90 " style="fill:#3315d8; stroke-width:1; stroke:black; " description="&lt;b&gt;PFAS1_RS09085&lt;/b&gt;&lt;br&gt;MFS transporter&lt;br&gt;Location: 1952078 - 1953352&lt;br&gt;&lt;br&gt;&lt;b&gt;BlastP hit with ctg4_287&lt;/b&gt;&lt;br&gt;Percentage identity: 93&lt;br&gt;Percentage coverage: 97&lt;br&gt;BLAST bit score: 757&lt;br&gt;E-value: 8.7e-217" locus_tag="PFAS1_RS09085" class="clusterblast-orf" id="dummy-1_h1_4_26"  />
</g>
<g id="a1_0027"  >
<polygon points="480,85 485,80 500,80 500,90 485,90 480,85 " style="fill:#d81551; stroke-width:1; stroke:black; " description="&lt;b&gt;PFAS1_RS09090&lt;/b&gt;&lt;br&gt;uroporphyrinogen decarboxylase&lt;br&gt;Location: 1953526 - 1954593&lt;br&gt;&lt;br&gt;&lt;b&gt;BlastP hit with ctg4_288&lt;/b&gt;&lt;br&gt;Percentage identity: 97&lt;br&gt;Percentage coverage: 100&lt;br&gt;BLAST bit score: 712&lt;br&gt;E-value: 2e-203" locus_tag="PFAS1_RS09090" class="clusterblast-orf" id="dummy-1_h1_4_27"  />
</g>
<g id="a1_0028"  >
<polygon points="504,85 509,80 531,80 531,90 509,90 504,85 " style="fill:#abd815; stroke-width:1; stroke:black; " description="&lt;b&gt;PFAS1_RS09095&lt;/b&gt;&lt;br&gt;glutamate synthase subunit beta&lt;br&gt;Location: 1954846 - 1956264&lt;br&gt;&lt;br&gt;&lt;b&gt;BlastP hit with ctg4_289&lt;/b&gt;&lt;br&gt;Percentage identity: 99&lt;br&gt;Percentage coverage: 100&lt;br&gt;BLAST bit score: 962&lt;br&gt;E-value: 1.5e-278" locus_tag="PFAS1_RS09095" class="clusterblast-orf" id="dummy-1_h1_4_28"  />
</g>
<g id="a1_0029"  >
<polygon points="531,85 536,80 614,80 614,90 536,90 531,85 " style="fill:#15d8ab; stroke-width:1; stroke:black; " description="&lt;b&gt;PFAS1_RS09100&lt;/b&gt;&lt;br&gt;glutamate synthase large subunit&lt;br&gt;Location: 1956298 - 1960743&lt;br&gt;&lt;br&gt;&lt;b&gt;BlastP hit with ctg4_290&lt;/b&gt;&lt;br&gt;Percentage identity: 99&lt;br&gt;Percentage coverage: 100&lt;br&gt;BLAST bit score: 2822&lt;br&gt;E-value: 0.0" locus_tag="PFAS1_RS09100" class="clusterblast-orf" id="dummy-1_h1_4_29"  />
</g>
<g id="a1_0030"  >
<polygon points="612,90 614,90 619,85 614,80 612,80 612,90 " style="fill:white; stroke-width:1; stroke:black; " description="&lt;b&gt;PFAS1_RS09105&lt;/b&gt;&lt;br&gt;hypothetical protein&lt;br&gt;Location: 1960657 - 1960996" locus_tag="PFAS1_RS09105" class="clusterblast-orf" id="dummy-1_h1_4_30"  />
</g>
<g id="a1_0031"  >
<polygon points="620,85 625,80 650,80 650,90 625,90 620,85 " style="fill:#5115d8; stroke-width:1; stroke:black; " description="&lt;b&gt;PFAS1_RS09110&lt;/b&gt;&lt;br&gt;cell division protein&lt;br&gt;Location: 1961094 - 1962698&lt;br&gt;&lt;br&gt;&lt;b&gt;BlastP hit with ctg4_291&lt;/b&gt;&lt;br&gt;Percentage identity: 93&lt;br&gt;Percentage coverage: 101&lt;br&gt;BLAST bit score: 819&lt;br&gt;E-value: 1.7e-235" locus_tag="PFAS1_RS09110" class="clusterblast-orf" id="dummy-1_h1_4_31"  />
</g>
<g id="a1_0032"  >
<polygon points="650,85 655,80 671,80 671,90 655,90 650,85 " style="fill:#d81533; stroke-width:1; stroke:black; " description="&lt;b&gt;PFAS1_RS09115&lt;/b&gt;&lt;br&gt;3-dehydroquinate synthase&lt;br&gt;Location: 1962709 - 1963809&lt;br&gt;&lt;br&gt;&lt;b&gt;BlastP hit with ctg4_292&lt;/b&gt;&lt;br&gt;Percentage identity: 97&lt;br&gt;Percentage coverage: 100&lt;br&gt;BLAST bit score: 714&lt;br&gt;E-value: 5.4e-204" locus_tag="PFAS1_RS09115" class="clusterblast-orf" id="dummy-1_h1_4_32"  />
</g>
<g id="a1_0033"  >
<polygon points="674,85 679,80 683,80 683,90 679,90 674,85 " style="fill:#8dd815; stroke-width:1; stroke:black; " description="&lt;b&gt;PFAS1_RS09120&lt;/b&gt;&lt;br&gt;shikimate kinase AroK&lt;br&gt;Location: 1963961 - 1964479&lt;br&gt;&lt;br&gt;&lt;b&gt;BlastP hit with ctg4_293&lt;/b&gt;&lt;br&gt;Percentage identity: 99&lt;br&gt;Percentage coverage: 100&lt;br&gt;BLAST bit score: 321&lt;br&gt;E-value: 4.5e-86" locus_tag="PFAS1_RS09120" class="clusterblast-orf" id="dummy-1_h1_4_33"  />
</g>
<g id="a1_0034"  >
<polygon points="683,85 688,80 722,80 722,90 688,90 683,85 " style="fill:#15d8c9; stroke-width:1; stroke:black; " description="&lt;b&gt;PFAS1_RS09125&lt;/b&gt;&lt;br&gt;type IV pilus secretin PilQ&lt;br&gt;Location: 1964484 - 1966574&lt;br&gt;&lt;br&gt;&lt;b&gt;BlastP hit with ctg4_294&lt;/b&gt;&lt;br&gt;Percentage identity: 93&lt;br&gt;Percentage coverage: 100&lt;br&gt;BLAST bit score: 1203&lt;br&gt;E-value: 0.0" locus_tag="PFAS1_RS09125" class="clusterblast-orf" id="dummy-1_h1_4_34"  />
</g>
<g id="a1_0035"  >
<polygon points="723,85 728,80 732,80 732,90 728,90 723,85 " style="fill:#6f15d8; stroke-width:1; stroke:black; " description="&lt;b&gt;PFAS1_RS09130&lt;/b&gt;&lt;br&gt;pilus assembly protein PilP&lt;br&gt;Location: 1966588 - 1967115&lt;br&gt;&lt;br&gt;&lt;b&gt;BlastP hit with ctg4_295&lt;/b&gt;&lt;br&gt;Percentage identity: 91&lt;br&gt;Percentage coverage: 100&lt;br&gt;BLAST bit score: 334&lt;br&gt;E-value: 9.4e-90" locus_tag="PFAS1_RS09130" class="clusterblast-orf" id="dummy-1_h1_4_35"  />
</g>
<g id="a1_0036"  >
<polygon points="732,85 737,80 744,80 744,90 737,90 732,85 " style="fill:white; stroke-width:1; stroke:black; " description="&lt;b&gt;PFAS1_RS09135&lt;/b&gt;&lt;br&gt;pilus assembly protein PilP&lt;br&gt;Location: 1967112 - 1967735" locus_tag="PFAS1_RS09135" class="clusterblast-orf" id="dummy-1_h1_4_36"  />
</g>
<g id="a1_0037"  >
<polygon points="744,85 749,80 754,80 754,90 749,90 744,85 " style="fill:white; stroke-width:1; stroke:black; " description="&lt;b&gt;PFAS1_RS09140&lt;/b&gt;&lt;br&gt;pilus assembly protein PilN&lt;br&gt;Location: 1967732 - 1968298" locus_tag="PFAS1_RS09140" class="clusterblast-orf" id="dummy-1_h1_4_37"  />
</g>
<g id="a1_0038"  >
<polygon points="754,85 759,80 774,80 774,90 759,90 754,85 " style="fill:white; stroke-width:1; stroke:black; " description="&lt;b&gt;PFAS1_RS09145&lt;/b&gt;&lt;br&gt;pilus assembly protein PilM&lt;br&gt;Location: 1968298 - 1969362" locus_tag="PFAS1_RS09145" class="clusterblast-orf" id="dummy-1_h1_4_38"  />
</g>
</svg>
