<svg xmlns="http://www.w3.org/2000/svg" xmlns:xlink="http://www.w3.org/1999/xlink" version="1.1" x="0" y="0" height="230" width="800" viewBox="0 0 800 230" preserveAspectRatio="none"  >
<g label="Query sequence" class="clusterblast-cluster"  >
<text x="5" y="20" class="clusterblast-acc"  >
Query sequence</text>
<line x1="10" y1="35" x2="778.0" y2="35" style="stroke-width:1; stroke:grey; "  />
<polygon points="6,35 11,30 20,30 20,40 11,40 6,35 " style="fill:#d81515; stroke-width:1; stroke:black; " description="&lt;b&gt;ctg1_947&lt;/b&gt;&lt;br&gt;ctg1 947&lt;br&gt;Location: 1045973 - 1046867" locus_tag="ctg1_947" class="clusterblast-orf" id="dummy-2_q0_0_all"  />
<polygon points="20,40 22,35 20,30 20,40 " style="fill:white; stroke-width:1; stroke:black; " description="&lt;b&gt;ctg1_948&lt;/b&gt;&lt;br&gt;ctg1 948&lt;br&gt;Location: 1046885 - 1047053" locus_tag="ctg1_948" class="clusterblast-orf" id="dummy-2_q1_0_all"  />
<polygon points="27,35 32,30 34,30 34,40 32,40 27,35 " style="fill:#67d815; stroke-width:1; stroke:black; " description="&lt;b&gt;ctg1_949&lt;/b&gt;&lt;br&gt;ctg1 949&lt;br&gt;Location: 1047381 - 1047852" locus_tag="ctg1_949" class="clusterblast-orf" id="dummy-2_q2_0_all"  />
<polygon points="41,40 50,40 55,35 50,30 41,30 41,40 " style="fill:#15b9d8; stroke-width:1; stroke:black; " description="&lt;b&gt;ctg1_950&lt;/b&gt;&lt;br&gt;ctg1 950&lt;br&gt;Location: 1048295 - 1049231" locus_tag="ctg1_950" class="clusterblast-orf" id="dummy-2_q3_0_all"  />
<polygon points="57,40 64,40 69,35 64,30 57,30 57,40 " style="fill:#8615d8; stroke-width:1; stroke:black; " description="&lt;b&gt;ctg1_951&lt;/b&gt;&lt;br&gt;ctg1 951&lt;br&gt;Location: 1049408 - 1050215" locus_tag="ctg1_951" class="clusterblast-orf" id="dummy-2_q4_0_all"  />
<polygon points="70,35 75,30 75,30 75,40 75,40 70,35 " style="fill:#d83415; stroke-width:1; stroke:black; " description="&lt;b&gt;ctg1_952&lt;/b&gt;&lt;br&gt;ctg1 952&lt;br&gt;Location: 1050289 - 1050574" locus_tag="ctg1_952" class="clusterblast-orf" id="dummy-2_q5_0_all"  />
<polygon points="76,35 81,30 84,30 84,40 81,40 76,35 " style="fill:#49d815; stroke-width:1; stroke:black; " description="&lt;b&gt;ctg1_953&lt;/b&gt;&lt;br&gt;ctg1 953&lt;br&gt;Location: 1050644 - 1051187" locus_tag="ctg1_953" class="clusterblast-orf" id="dummy-2_q6_0_all"  />
<polygon points="85,35 90,30 114,30 114,40 90,40 85,35 " style="fill:#159bd8; stroke-width:1; stroke:black; " description="&lt;b&gt;ctg1_954&lt;/b&gt;&lt;br&gt;ctg1 954&lt;br&gt;Location: 1051258 - 1053220" locus_tag="ctg1_954" class="clusterblast-orf" id="dummy-2_q7_0_all"  />
<polygon points="115,35 120,30 127,30 127,40 120,40 115,35 " style="fill:#a515d8; stroke-width:1; stroke:black; " description="&lt;b&gt;ctg1_955&lt;/b&gt;&lt;br&gt;ctg1 955&lt;br&gt;Location: 1053329 - 1054127" locus_tag="ctg1_955" class="clusterblast-orf" id="dummy-2_q8_0_all"  />
<polygon points="127,35 132,30 144,30 144,40 132,40 127,35 " style="fill:#d85315; stroke-width:1; stroke:black; " description="&lt;b&gt;ctg1_956&lt;/b&gt;&lt;br&gt;ctg1 956&lt;br&gt;Location: 1054123 - 1055281" locus_tag="ctg1_956" class="clusterblast-orf" id="dummy-2_q9_0_all"  />
<polygon points="145,35 150,30 169,30 169,40 150,40 145,35 " style="fill:#2ad815; stroke-width:1; stroke:black; " description="&lt;b&gt;ctg1_957&lt;/b&gt;&lt;br&gt;ctg1 957&lt;br&gt;Location: 1055304 - 1056921" locus_tag="ctg1_957" class="clusterblast-orf" id="dummy-2_q10_0_all"  />
<polygon points="169,35 174,30 182,30 182,40 174,40 169,35 " style="fill:#157cd8; stroke-width:1; stroke:black; " description="&lt;b&gt;ctg1_958&lt;/b&gt;&lt;br&gt;ctg1 958&lt;br&gt;Location: 1056924 - 1057809" locus_tag="ctg1_958" class="clusterblast-orf" id="dummy-2_q11_0_all"  />
<polygon points="182,35 187,30 209,30 209,40 187,40 182,35 " style="fill:#c415d8; stroke-width:1; stroke:black; " description="&lt;b&gt;ctg1_959&lt;/b&gt;&lt;br&gt;ctg1 959&lt;br&gt;Location: 1057821 - 1059624" locus_tag="ctg1_959" class="clusterblast-orf" id="dummy-2_q12_0_all"  />
<polygon points="211,40 216,40 221,35 216,30 211,30 211,40 " style="fill:#d87215; stroke-width:1; stroke:black; " description="&lt;b&gt;ctg1_960&lt;/b&gt;&lt;br&gt;ctg1 960&lt;br&gt;Location: 1059802 - 1060429" locus_tag="ctg1_960" class="clusterblast-orf" id="dummy-2_q13_0_all"  />
<polygon points="222,40 229,40 234,35 229,30 222,30 222,40 " style="fill:#15d81f; stroke-width:1; stroke:black; " description="&lt;b&gt;ctg1_961&lt;/b&gt;&lt;br&gt;ctg1 961&lt;br&gt;Location: 1060521 - 1061316" locus_tag="ctg1_961" class="clusterblast-orf" id="dummy-2_q14_0_all"  />
<polygon points="236,40 243,40 248,35 243,30 236,30 236,40 " style="fill:#155dd8; stroke-width:1; stroke:black; " description="&lt;b&gt;ctg1_962&lt;/b&gt;&lt;br&gt;ctg1 962&lt;br&gt;Location: 1061450 - 1062287" locus_tag="ctg1_962" class="clusterblast-orf" id="dummy-2_q15_0_all"  />
<polygon points="248,40 250,35 248,30 248,40 " style="fill:#15d81f; stroke-width:1; stroke:black; " description="&lt;b&gt;ctg1_963&lt;/b&gt;&lt;br&gt;ctg1 963&lt;br&gt;Location: 1062293 - 1062425" locus_tag="ctg1_963" class="clusterblast-orf" id="dummy-2_q16_0_all"  />
<polygon points="252,40 259,40 264,35 259,30 252,30 252,40 " style="fill:#155dd8; stroke-width:1; stroke:black; " description="&lt;b&gt;ctg1_964&lt;/b&gt;&lt;br&gt;ctg1 964&lt;br&gt;Location: 1062559 - 1063393" locus_tag="ctg1_964" class="clusterblast-orf" id="dummy-2_q17_0_all"  />
<polygon points="267,40 277,40 282,35 277,30 267,30 267,40 " style="fill:#d815ce; stroke-width:1; stroke:black; " description="&lt;b&gt;ctg1_965&lt;/b&gt;&lt;br&gt;ctg1 965&lt;br&gt;Location: 1063545 - 1064559" locus_tag="ctg1_965" class="clusterblast-orf" id="dummy-2_q18_0_all"  />
<polygon points="284,35 289,30 292,30 292,40 289,40 284,35 " style="fill:#d89015; stroke-width:1; stroke:black; " description="&lt;b&gt;ctg1_966&lt;/b&gt;&lt;br&gt;ctg1 966&lt;br&gt;Location: 1064693 - 1065242" locus_tag="ctg1_966" class="clusterblast-orf" id="dummy-2_q19_0_all"  />
<polygon points="297,40 485,40 490,35 485,30 297,30 297,40 " style="fill:#15d83e; stroke-width:1; stroke:black; " description="&lt;b&gt;ctg1_967&lt;/b&gt;&lt;br&gt;ctg1 967&lt;br&gt;Location: 1065614 - 1078598" locus_tag="ctg1_967" class="clusterblast-orf" id="dummy-2_q20_0_all"  />
<polygon points="492,40 499,40 504,35 499,30 492,30 492,40 " style="fill:#153ed8; stroke-width:1; stroke:black; " description="&lt;b&gt;ctg1_968&lt;/b&gt;&lt;br&gt;ctg1 968&lt;br&gt;Location: 1078770 - 1079583" locus_tag="ctg1_968" class="clusterblast-orf" id="dummy-2_q21_0_all"  />
<polygon points="506,35 511,30 517,30 517,40 511,40 506,35 " style="fill:#d815af; stroke-width:1; stroke:black; " description="&lt;b&gt;ctg1_969&lt;/b&gt;&lt;br&gt;ctg1 969&lt;br&gt;Location: 1079675 - 1080446" locus_tag="ctg1_969" class="clusterblast-orf" id="dummy-2_q22_0_all"  />
<polygon points="517,35 522,30 530,30 530,40 522,40 517,35 " style="fill:#d8af15; stroke-width:1; stroke:black; " description="&lt;b&gt;ctg1_970&lt;/b&gt;&lt;br&gt;ctg1 970&lt;br&gt;Location: 1080421 - 1081288" locus_tag="ctg1_970" class="clusterblast-orf" id="dummy-2_q23_0_all"  />
<polygon points="530,35 535,30 555,30 555,40 535,40 530,35 " style="fill:#15d85d; stroke-width:1; stroke:black; " description="&lt;b&gt;ctg1_971&lt;/b&gt;&lt;br&gt;ctg1 971&lt;br&gt;Location: 1081287 - 1083027" locus_tag="ctg1_971" class="clusterblast-orf" id="dummy-2_q24_0_all"  />
<polygon points="558,40 563,40 568,35 563,30 558,30 558,40 " style="fill:#151fd8; stroke-width:1; stroke:black; " description="&lt;b&gt;ctg1_972&lt;/b&gt;&lt;br&gt;ctg1 972&lt;br&gt;Location: 1083180 - 1083861" locus_tag="ctg1_972" class="clusterblast-orf" id="dummy-2_q25_0_all"  />
<polygon points="568,40 582,40 587,35 582,30 568,30 568,40 " style="fill:#d81590; stroke-width:1; stroke:black; " description="&lt;b&gt;ctg1_973&lt;/b&gt;&lt;br&gt;ctg1 973&lt;br&gt;Location: 1083857 - 1085183" locus_tag="ctg1_973" class="clusterblast-orf" id="dummy-2_q26_0_all"  />
<polygon points="591,40 593,40 598,35 593,30 591,30 591,40 " style="fill:#d8ce15; stroke-width:1; stroke:black; " description="&lt;b&gt;ctg1_974&lt;/b&gt;&lt;br&gt;ctg1 974&lt;br&gt;Location: 1085400 - 1085886" locus_tag="ctg1_974" class="clusterblast-orf" id="dummy-2_q27_0_all"  />
<polygon points="600,40 616,40 621,35 616,30 600,30 600,40 " style="fill:#15d87c; stroke-width:1; stroke:black; " description="&lt;b&gt;ctg1_975&lt;/b&gt;&lt;br&gt;ctg1 975&lt;br&gt;Location: 1086029 - 1087442" locus_tag="ctg1_975" class="clusterblast-orf" id="dummy-2_q28_0_all"  />
<polygon points="622,40 625,35 622,30 622,40 " style="fill:#2a15d8; stroke-width:1; stroke:black; " description="&lt;b&gt;ctg1_976&lt;/b&gt;&lt;br&gt;ctg1 976&lt;br&gt;Location: 1087524 - 1087752" locus_tag="ctg1_976" class="clusterblast-orf" id="dummy-2_q29_0_all"  />
<polygon points="628,35 633,30 642,30 642,40 633,40 628,35 " style="fill:#d81572; stroke-width:1; stroke:black; " description="&lt;b&gt;ctg1_977&lt;/b&gt;&lt;br&gt;ctg1 977&lt;br&gt;Location: 1087926 - 1088898" locus_tag="ctg1_977" class="clusterblast-orf" id="dummy-2_q30_0_all"  />
<polygon points="642,35 647,30 656,30 656,40 647,40 642,35 " style="fill:#c4d815; stroke-width:1; stroke:black; " description="&lt;b&gt;ctg1_978&lt;/b&gt;&lt;br&gt;ctg1 978&lt;br&gt;Location: 1088898 - 1089798" locus_tag="ctg1_978" class="clusterblast-orf" id="dummy-2_q31_0_all"  />
<polygon points="656,35 661,30 669,30 669,40 661,40 656,35 " style="fill:#15d89b; stroke-width:1; stroke:black; " description="&lt;b&gt;ctg1_979&lt;/b&gt;&lt;br&gt;ctg1 979&lt;br&gt;Location: 1089797 - 1090661" locus_tag="ctg1_979" class="clusterblast-orf" id="dummy-2_q32_0_all"  />
<polygon points="669,35 674,30 682,30 682,40 674,40 669,35 " style="fill:#4915d8; stroke-width:1; stroke:black; " description="&lt;b&gt;ctg1_980&lt;/b&gt;&lt;br&gt;ctg1 980&lt;br&gt;Location: 1090657 - 1091584" locus_tag="ctg1_980" class="clusterblast-orf" id="dummy-2_q33_0_all"  />
<polygon points="683,35 688,30 691,30 691,40 688,40 683,35 " style="fill:#d81553; stroke-width:1; stroke:black; " description="&lt;b&gt;ctg1_981&lt;/b&gt;&lt;br&gt;ctg1 981&lt;br&gt;Location: 1091619 - 1092192" locus_tag="ctg1_981" class="clusterblast-orf" id="dummy-2_q34_0_all"  />
<polygon points="691,35 696,30 696,30 696,40 696,40 691,35 " style="fill:#a5d815; stroke-width:1; stroke:black; " description="&lt;b&gt;ctg1_982&lt;/b&gt;&lt;br&gt;ctg1 982&lt;br&gt;Location: 1092194 - 1092524" locus_tag="ctg1_982" class="clusterblast-orf" id="dummy-2_q35_0_all"  />
<polygon points="696,35 701,30 704,30 704,40 701,40 696,35 " style="fill:#15d8b9; stroke-width:1; stroke:black; " description="&lt;b&gt;ctg1_983&lt;/b&gt;&lt;br&gt;ctg1 983&lt;br&gt;Location: 1092520 - 1093063" locus_tag="ctg1_983" class="clusterblast-orf" id="dummy-2_q36_0_all"  />
<polygon points="704,35 709,30 722,30 722,40 709,40 704,35 " style="fill:#6715d8; stroke-width:1; stroke:black; " description="&lt;b&gt;ctg1_984&lt;/b&gt;&lt;br&gt;ctg1 984&lt;br&gt;Location: 1093059 - 1094262" locus_tag="ctg1_984" class="clusterblast-orf" id="dummy-2_q37_0_all"  />
<polygon points="728,40 744,40 749,35 744,30 728,30 728,40 " style="fill:#d81534; stroke-width:1; stroke:black; " description="&lt;b&gt;ctg1_985&lt;/b&gt;&lt;br&gt;ctg1 985&lt;br&gt;Location: 1094682 - 1096104" locus_tag="ctg1_985" class="clusterblast-orf" id="dummy-2_q38_0_all"  />
<polygon points="749,40 753,40 758,35 753,30 749,30 749,40 " style="fill:#86d815; stroke-width:1; stroke:black; " description="&lt;b&gt;ctg1_986&lt;/b&gt;&lt;br&gt;ctg1 986&lt;br&gt;Location: 1096100 - 1096712" locus_tag="ctg1_986" class="clusterblast-orf" id="dummy-2_q39_0_all"  />
<polygon points="760,35 765,30 773,30 773,40 765,40 760,35 " style="fill:#15d8d8; stroke-width:1; stroke:black; " description="&lt;b&gt;ctg1_987&lt;/b&gt;&lt;br&gt;ctg1 987&lt;br&gt;Location: 1096837 - 1097704" locus_tag="ctg1_987" class="clusterblast-orf" id="dummy-2_q40_0_all"  />
</g>
<g label="NZ_CP015852" description="NZ_CP015852_c6: Pseudomonas koreensis strain CRS05-R5 chromosome, complete ge... (90% of genes show similarity), nrps" class="clusterblast-cluster"  >
<text x="5" y="70" class="clusterblast-acc"  >
<a xlink:href="https://antismash-db.secondarymetabolites.org/go/NZ_CP015852/6" target="_blank">NZ_CP015852_c6</a>: Pseudomonas koreensis strain CRS05-R5 chromosome, complete ge... (90% of genes show similarity), nrps</text>
<line x1="10" y1="85" x2="778.0" y2="85" style="stroke-width:1; stroke:grey; "  />
</g>
<g id="a2_000"  >
<polygon points="0,85 2,80 2,90 0,85 " style="fill:white; stroke-width:1; stroke:black; " description="&lt;b&gt;A8L59_RS17895&lt;/b&gt;&lt;br&gt;hypothetical protein&lt;br&gt;Location: 4046148 - 4045954" locus_tag="A8L59_RS17895" class="clusterblast-orf" id="dummy-2_h2_10_0"  />
</g>
<g id="a2_001"  >
<polygon points="9,90 17,90 22,85 17,80 9,80 9,90 " style="fill:white; stroke-width:1; stroke:black; " description="&lt;b&gt;A8L59_RS17890&lt;/b&gt;&lt;br&gt;lipid kinase YegS&lt;br&gt;Location: 4045522 - 4044605" locus_tag="A8L59_RS17890" class="clusterblast-orf" id="dummy-2_h2_10_1"  />
</g>
<g id="a2_002"  >
<polygon points="22,85 27,80 32,80 32,90 27,90 22,85 " style="fill:white; stroke-width:1; stroke:black; " description="&lt;b&gt;A8L59_RS17885&lt;/b&gt;&lt;br&gt;DNA-binding response regulator&lt;br&gt;Location: 4044621 - 4043962" locus_tag="A8L59_RS17885" class="clusterblast-orf" id="dummy-2_h2_10_2"  />
</g>
<g id="a2_003"  >
<polygon points="32,85 37,80 45,80 45,90 37,90 32,85 " style="fill:#d81515; stroke-width:1; stroke:black; " description="&lt;b&gt;A8L59_RS17880&lt;/b&gt;&lt;br&gt;sensor histidine kinase&lt;br&gt;Location: 4043965 - 4043072&lt;br&gt;&lt;br&gt;&lt;b&gt;BlastP hit with ctg1_947&lt;/b&gt;&lt;br&gt;Percentage identity: 87&lt;br&gt;Percentage coverage: 100&lt;br&gt;BLAST bit score: 508&lt;br&gt;E-value: 4.7e-142" locus_tag="A8L59_RS17880" class="clusterblast-orf" id="dummy-2_h2_10_3"  />
</g>
<g id="a2_004"  >
<polygon points="52,85 57,80 59,80 59,90 57,90 52,85 " style="fill:#67d815; stroke-width:1; stroke:black; " description="&lt;b&gt;A8L59_RS17875&lt;/b&gt;&lt;br&gt;hypothetical protein&lt;br&gt;Location: 4042581 - 4042111&lt;br&gt;&lt;br&gt;&lt;b&gt;BlastP hit with ctg1_949&lt;/b&gt;&lt;br&gt;Percentage identity: 71&lt;br&gt;Percentage coverage: 100&lt;br&gt;BLAST bit score: 217&lt;br&gt;E-value: 8.8e-55" locus_tag="A8L59_RS17875" class="clusterblast-orf" id="dummy-2_h2_10_4"  />
</g>
<g id="a2_005"  >
<polygon points="66,90 75,90 80,85 75,80 66,80 66,90 " style="fill:#15b9d8; stroke-width:1; stroke:black; " description="&lt;b&gt;A8L59_RS17870&lt;/b&gt;&lt;br&gt;chemotaxis protein CheV&lt;br&gt;Location: 4041657 - 4040722&lt;br&gt;&lt;br&gt;&lt;b&gt;BlastP hit with ctg1_950&lt;/b&gt;&lt;br&gt;Percentage identity: 98&lt;br&gt;Percentage coverage: 100&lt;br&gt;BLAST bit score: 599&lt;br&gt;E-value: 2.1e-169" locus_tag="A8L59_RS17870" class="clusterblast-orf" id="dummy-2_h2_10_5"  />
</g>
<g id="a2_006"  >
<polygon points="83,90 90,90 95,85 90,80 83,80 83,90 " style="fill:#8615d8; stroke-width:1; stroke:black; " description="&lt;b&gt;A8L59_RS17865&lt;/b&gt;&lt;br&gt;MOSC domain-containing protein&lt;br&gt;Location: 4040521 - 4039715&lt;br&gt;&lt;br&gt;&lt;b&gt;BlastP hit with ctg1_951&lt;/b&gt;&lt;br&gt;Percentage identity: 84&lt;br&gt;Percentage coverage: 100&lt;br&gt;BLAST bit score: 461&lt;br&gt;E-value: 7.8e-128" locus_tag="A8L59_RS17865" class="clusterblast-orf" id="dummy-2_h2_10_6"  />
</g>
<g id="a2_007"  >
<polygon points="96,85 100,80 100,90 96,85 " style="fill:#d83415; stroke-width:1; stroke:black; " description="&lt;b&gt;A8L59_RS17860&lt;/b&gt;&lt;br&gt;DUF1255 domain-containing protein&lt;br&gt;Location: 4039644 - 4039360&lt;br&gt;&lt;br&gt;&lt;b&gt;BlastP hit with ctg1_952&lt;/b&gt;&lt;br&gt;Percentage identity: 98&lt;br&gt;Percentage coverage: 100&lt;br&gt;BLAST bit score: 193&lt;br&gt;E-value: 1.1e-47" locus_tag="A8L59_RS17860" class="clusterblast-orf" id="dummy-2_h2_10_7"  />
</g>
<g id="a2_008"  >
<polygon points="102,85 107,80 110,80 110,90 107,90 102,85 " style="fill:#49d815; stroke-width:1; stroke:black; " description="&lt;b&gt;A8L59_RS17855&lt;/b&gt;&lt;br&gt;exonuclease&lt;br&gt;Location: 4039245 - 4038703&lt;br&gt;&lt;br&gt;&lt;b&gt;BlastP hit with ctg1_953&lt;/b&gt;&lt;br&gt;Percentage identity: 91&lt;br&gt;Percentage coverage: 100&lt;br&gt;BLAST bit score: 347&lt;br&gt;E-value: 6.5e-94" locus_tag="A8L59_RS17855" class="clusterblast-orf" id="dummy-2_h2_10_8"  />
</g>
<g id="a2_009"  >
<polygon points="111,85 116,80 140,80 140,90 116,90 111,85 " style="fill:#159bd8; stroke-width:1; stroke:black; " description="&lt;b&gt;A8L59_RS17850&lt;/b&gt;&lt;br&gt;acetyl/propionyl/methylcrotonyl-CoA carboxylase subunit alpha&lt;br&gt;Location: 4038632 - 4036671&lt;br&gt;&lt;br&gt;&lt;b&gt;BlastP hit with ctg1_954&lt;/b&gt;&lt;br&gt;Percentage identity: 77&lt;br&gt;Percentage coverage: 100&lt;br&gt;BLAST bit score: 1004&lt;br&gt;E-value: 6.1e-291" locus_tag="A8L59_RS17850" class="clusterblast-orf" id="dummy-2_h2_10_9"  />
</g>
<g id="a2_0010"  >
<polygon points="142,85 147,80 153,80 153,90 147,90 142,85 " style="fill:#a515d8; stroke-width:1; stroke:black; " description="&lt;b&gt;A8L59_RS17845&lt;/b&gt;&lt;br&gt;enoyl-CoA hydratase&lt;br&gt;Location: 4036561 - 4035764&lt;br&gt;&lt;br&gt;&lt;b&gt;BlastP hit with ctg1_955&lt;/b&gt;&lt;br&gt;Percentage identity: 81&lt;br&gt;Percentage coverage: 100&lt;br&gt;BLAST bit score: 417&lt;br&gt;E-value: 1.3e-114" locus_tag="A8L59_RS17845" class="clusterblast-orf" id="dummy-2_h2_10_10"  />
</g>
<g id="a2_0011"  >
<polygon points="153,85 158,80 170,80 170,90 158,90 153,85 " style="fill:#d85315; stroke-width:1; stroke:black; " description="&lt;b&gt;A8L59_RS17840&lt;/b&gt;&lt;br&gt;acyl-CoA dehydrogenase&lt;br&gt;Location: 4035767 - 4034610&lt;br&gt;&lt;br&gt;&lt;b&gt;BlastP hit with ctg1_956&lt;/b&gt;&lt;br&gt;Percentage identity: 98&lt;br&gt;Percentage coverage: 100&lt;br&gt;BLAST bit score: 772&lt;br&gt;E-value: 1.7e-221" locus_tag="A8L59_RS17840" class="clusterblast-orf" id="dummy-2_h2_10_11"  />
</g>
<g id="a2_0012"  >
<polygon points="171,85 176,80 195,80 195,90 176,90 171,85 " style="fill:#2ad815; stroke-width:1; stroke:black; " description="&lt;b&gt;A8L59_RS17835&lt;/b&gt;&lt;br&gt;acyl-CoA carboxylase subunit beta&lt;br&gt;Location: 4034579 - 4032963&lt;br&gt;&lt;br&gt;&lt;b&gt;BlastP hit with ctg1_957&lt;/b&gt;&lt;br&gt;Percentage identity: 92&lt;br&gt;Percentage coverage: 100&lt;br&gt;BLAST bit score: 994&lt;br&gt;E-value: 4e-288" locus_tag="A8L59_RS17835" class="clusterblast-orf" id="dummy-2_h2_10_12"  />
</g>
<g id="a2_0013"  >
<polygon points="195,85 200,80 208,80 208,90 200,90 195,85 " style="fill:#157cd8; stroke-width:1; stroke:black; " description="&lt;b&gt;A8L59_RS17830&lt;/b&gt;&lt;br&gt;2,4-dienoyl-CoA reductase&lt;br&gt;Location: 4032959 - 4032090&lt;br&gt;&lt;br&gt;&lt;b&gt;BlastP hit with ctg1_958&lt;/b&gt;&lt;br&gt;Percentage identity: 87&lt;br&gt;Percentage coverage: 100&lt;br&gt;BLAST bit score: 514&lt;br&gt;E-value: 8.6e-144" locus_tag="A8L59_RS17830" class="clusterblast-orf" id="dummy-2_h2_10_13"  />
</g>
<g id="a2_0014"  >
<polygon points="208,85 213,80 235,80 235,90 213,90 208,85 " style="fill:#c415d8; stroke-width:1; stroke:black; " description="&lt;b&gt;A8L59_RS17825&lt;/b&gt;&lt;br&gt;DUF1446 domain-containing protein&lt;br&gt;Location: 4032077 - 4030287&lt;br&gt;&lt;br&gt;&lt;b&gt;BlastP hit with ctg1_959&lt;/b&gt;&lt;br&gt;Percentage identity: 88&lt;br&gt;Percentage coverage: 99&lt;br&gt;BLAST bit score: 1077&lt;br&gt;E-value: 0.0" locus_tag="A8L59_RS17825" class="clusterblast-orf" id="dummy-2_h2_10_14"  />
</g>
<g id="a2_0015"  >
<polygon points="237,90 241,90 246,85 241,80 237,80 237,90 " style="fill:#d87215; stroke-width:1; stroke:black; " description="&lt;b&gt;A8L59_RS17820&lt;/b&gt;&lt;br&gt;TetR/AcrR family transcriptional regulator&lt;br&gt;Location: 4030103 - 4029480&lt;br&gt;&lt;br&gt;&lt;b&gt;BlastP hit with ctg1_960&lt;/b&gt;&lt;br&gt;Percentage identity: 93&lt;br&gt;Percentage coverage: 100&lt;br&gt;BLAST bit score: 380&lt;br&gt;E-value: 1.4e-103" locus_tag="A8L59_RS17820" class="clusterblast-orf" id="dummy-2_h2_10_15"  />
</g>
<g id="a2_0016"  >
<polygon points="248,90 255,90 260,85 255,80 248,80 248,90 " style="fill:#15d81f; stroke-width:1; stroke:black; " description="&lt;b&gt;A8L59_RS17815&lt;/b&gt;&lt;br&gt;amino acid ABC transporter substrate-binding protein&lt;br&gt;Location: 4029387 - 4028590&lt;br&gt;&lt;br&gt;&lt;b&gt;BlastP hit with ctg1_961&lt;/b&gt;&lt;br&gt;Percentage identity: 80&lt;br&gt;Percentage coverage: 100&lt;br&gt;BLAST bit score: 431&lt;br&gt;E-value: 5e-119&lt;br&gt;&lt;br&gt;&lt;b&gt;BlastP hit with ctg1_963&lt;/b&gt;&lt;br&gt;Percentage identity: 69&lt;br&gt;Percentage coverage: 98&lt;br&gt;BLAST bit score: 67&lt;br&gt;E-value: 4e-10" locus_tag="A8L59_RS17815" class="clusterblast-orf" id="dummy-2_h2_10_16"  />
</g>
<g id="a2_0017"  >
<polygon points="261,90 271,90 276,85 271,80 261,80 261,90 " style="fill:#d815ce; stroke-width:1; stroke:black; " description="&lt;b&gt;A8L59_RS17810&lt;/b&gt;&lt;br&gt;N-acetyltransferase&lt;br&gt;Location: 4028505 - 4027492&lt;br&gt;&lt;br&gt;&lt;b&gt;BlastP hit with ctg1_965&lt;/b&gt;&lt;br&gt;Percentage identity: 80&lt;br&gt;Percentage coverage: 100&lt;br&gt;BLAST bit score: 578&lt;br&gt;E-value: 5.5e-163" locus_tag="A8L59_RS17810" class="clusterblast-orf" id="dummy-2_h2_10_17"  />
</g>
<g id="a2_0018"  >
<polygon points="277,85 282,80 286,80 286,90 282,90 277,85 " style="fill:#d89015; stroke-width:1; stroke:black; " description="&lt;b&gt;A8L59_RS17805&lt;/b&gt;&lt;br&gt;RNA polymerase factor sigma-70&lt;br&gt;Location: 4027396 - 4026842&lt;br&gt;&lt;br&gt;&lt;b&gt;BlastP hit with ctg1_966&lt;/b&gt;&lt;br&gt;Percentage identity: 98&lt;br&gt;Percentage coverage: 97&lt;br&gt;BLAST bit score: 344&lt;br&gt;E-value: 9.5e-93" locus_tag="A8L59_RS17805" class="clusterblast-orf" id="dummy-2_h2_10_18"  />
</g>
<g id="a2_0019"  >
<polygon points="291,90 479,90 484,85 479,80 291,80 291,90 " style="fill:#15d83e; stroke-width:1; stroke:black; " description="&lt;b&gt;A8L59_RS17800&lt;/b&gt;&lt;br&gt;non-ribosomal peptide synthase/polyketide synthase&lt;br&gt;Location: 4026472 - 4013474&lt;br&gt;&lt;br&gt;&lt;b&gt;BlastP hit with ctg1_967&lt;/b&gt;&lt;br&gt;Percentage identity: 90&lt;br&gt;Percentage coverage: 100&lt;br&gt;BLAST bit score: 7847&lt;br&gt;E-value: 0.0" locus_tag="A8L59_RS17800" class="clusterblast-orf" id="dummy-2_h2_10_19"  />
</g>
<g id="a2_0020"  >
<polygon points="487,90 494,90 499,85 494,80 487,80 487,90 " style="fill:#153ed8; stroke-width:1; stroke:black; " description="&lt;b&gt;A8L59_RS17795&lt;/b&gt;&lt;br&gt;2-succinyl-6-hydroxy-2, 4-cyclohexadiene-1-carboxylate synthase&lt;br&gt;Location: 4013245 - 4012433&lt;br&gt;&lt;br&gt;&lt;b&gt;BlastP hit with ctg1_968&lt;/b&gt;&lt;br&gt;Percentage identity: 87&lt;br&gt;Percentage coverage: 100&lt;br&gt;BLAST bit score: 487&lt;br&gt;E-value: 7.9e-136" locus_tag="A8L59_RS17795" class="clusterblast-orf" id="dummy-2_h2_10_20"  />
</g>
<g id="a2_0021"  >
<polygon points="500,85 505,80 512,80 512,90 505,90 500,85 " style="fill:#d815af; stroke-width:1; stroke:black; " description="&lt;b&gt;A8L59_RS17790&lt;/b&gt;&lt;br&gt;thiol:disulfide interchange protein DsbG&lt;br&gt;Location: 4012350 - 4011580&lt;br&gt;&lt;br&gt;&lt;b&gt;BlastP hit with ctg1_969&lt;/b&gt;&lt;br&gt;Percentage identity: 89&lt;br&gt;Percentage coverage: 100&lt;br&gt;BLAST bit score: 472&lt;br&gt;E-value: 3.2e-131" locus_tag="A8L59_RS17790" class="clusterblast-orf" id="dummy-2_h2_10_21"  />
</g>
<g id="a2_0022"  >
<polygon points="511,85 516,80 524,80 524,90 516,90 511,85 " style="fill:#d8af15; stroke-width:1; stroke:black; " description="&lt;b&gt;A8L59_RS17785&lt;/b&gt;&lt;br&gt;peroxiredoxin&lt;br&gt;Location: 4011604 - 4010735&lt;br&gt;&lt;br&gt;&lt;b&gt;BlastP hit with ctg1_970&lt;/b&gt;&lt;br&gt;Percentage identity: 91&lt;br&gt;Percentage coverage: 100&lt;br&gt;BLAST bit score: 533&lt;br&gt;E-value: 1.7e-149" locus_tag="A8L59_RS17785" class="clusterblast-orf" id="dummy-2_h2_10_22"  />
</g>
<g id="a2_0023"  >
<polygon points="524,85 529,80 550,80 550,90 529,90 524,85 " style="fill:#15d85d; stroke-width:1; stroke:black; " description="&lt;b&gt;A8L59_RS17780&lt;/b&gt;&lt;br&gt;protein-disulfide reductase DsbD&lt;br&gt;Location: 4010735 - 4009002&lt;br&gt;&lt;br&gt;&lt;b&gt;BlastP hit with ctg1_971&lt;/b&gt;&lt;br&gt;Percentage identity: 84&lt;br&gt;Percentage coverage: 100&lt;br&gt;BLAST bit score: 976&lt;br&gt;E-value: 1.6e-282" locus_tag="A8L59_RS17780" class="clusterblast-orf" id="dummy-2_h2_10_23"  />
</g>
<g id="a2_0024"  >
<polygon points="552,85 557,80 562,80 562,90 557,90 552,85 " style="fill:white; stroke-width:1; stroke:black; " description="&lt;b&gt;A8L59_RS17775&lt;/b&gt;&lt;br&gt;hypothetical protein&lt;br&gt;Location: 4008876 - 4008193" locus_tag="A8L59_RS17775" class="clusterblast-orf" id="dummy-2_h2_10_24"  />
</g>
<g id="a2_0025"  >
<polygon points="566,90 571,90 576,85 571,80 566,80 566,90 " style="fill:#151fd8; stroke-width:1; stroke:black; " description="&lt;b&gt;A8L59_RS17770&lt;/b&gt;&lt;br&gt;DNA-binding response regulator&lt;br&gt;Location: 4007908 - 4007228&lt;br&gt;&lt;br&gt;&lt;b&gt;BlastP hit with ctg1_972&lt;/b&gt;&lt;br&gt;Percentage identity: 95&lt;br&gt;Percentage coverage: 100&lt;br&gt;BLAST bit score: 412&lt;br&gt;E-value: 2.7e-113" locus_tag="A8L59_RS17770" class="clusterblast-orf" id="dummy-2_h2_10_25"  />
</g>
<g id="a2_0026"  >
<polygon points="576,90 591,90 596,85 591,80 576,80 576,90 " style="fill:#d81590; stroke-width:1; stroke:black; " description="&lt;b&gt;A8L59_RS17765&lt;/b&gt;&lt;br&gt;two-component sensor histidine kinase&lt;br&gt;Location: 4007228 - 4005906&lt;br&gt;&lt;br&gt;&lt;b&gt;BlastP hit with ctg1_973&lt;/b&gt;&lt;br&gt;Percentage identity: 93&lt;br&gt;Percentage coverage: 100&lt;br&gt;BLAST bit score: 796&lt;br&gt;E-value: 1.7e-228" locus_tag="A8L59_RS17765" class="clusterblast-orf" id="dummy-2_h2_10_26"  />
</g>
<g id="a2_0027"  >
<polygon points="598,90 600,90 605,85 600,80 598,80 598,90 " style="fill:#d8ce15; stroke-width:1; stroke:black; " description="&lt;b&gt;A8L59_RS17760&lt;/b&gt;&lt;br&gt;N-acetyltransferase&lt;br&gt;Location: 4005779 - 4005294&lt;br&gt;&lt;br&gt;&lt;b&gt;BlastP hit with ctg1_974&lt;/b&gt;&lt;br&gt;Percentage identity: 61&lt;br&gt;Percentage coverage: 99&lt;br&gt;BLAST bit score: 201&lt;br&gt;E-value: 5.1e-50" locus_tag="A8L59_RS17760" class="clusterblast-orf" id="dummy-2_h2_10_27"  />
</g>
<g id="a2_0028"  >
<polygon points="607,90 623,90 628,85 623,80 607,80 607,90 " style="fill:#15d87c; stroke-width:1; stroke:black; " description="&lt;b&gt;A8L59_RS17755&lt;/b&gt;&lt;br&gt;diaminobutyrate--2-oxoglutarate transaminase&lt;br&gt;Location: 4005150 - 4003738&lt;br&gt;&lt;br&gt;&lt;b&gt;BlastP hit with ctg1_975&lt;/b&gt;&lt;br&gt;Percentage identity: 92&lt;br&gt;Percentage coverage: 100&lt;br&gt;BLAST bit score: 859&lt;br&gt;E-value: 1.7e-247" locus_tag="A8L59_RS17755" class="clusterblast-orf" id="dummy-2_h2_10_28"  />
</g>
<g id="a2_0029"  >
<polygon points="629,90 633,85 629,80 629,90 " style="fill:#2a15d8; stroke-width:1; stroke:black; " description="&lt;b&gt;A8L59_RS17750&lt;/b&gt;&lt;br&gt;MbtH family protein&lt;br&gt;Location: 4003654 - 4003430&lt;br&gt;&lt;br&gt;&lt;b&gt;BlastP hit with ctg1_976&lt;/b&gt;&lt;br&gt;Percentage identity: 97&lt;br&gt;Percentage coverage: 96&lt;br&gt;BLAST bit score: 149&lt;br&gt;E-value: 1.4e-34" locus_tag="A8L59_RS17750" class="clusterblast-orf" id="dummy-2_h2_10_29"  />
</g>
<g id="a2_0030"  >
<polygon points="635,85 640,80 648,80 648,90 640,90 635,85 " style="fill:#d81572; stroke-width:1; stroke:black; " description="&lt;b&gt;A8L59_RS17745&lt;/b&gt;&lt;br&gt;metal ABC transporter substrate-binding protein&lt;br&gt;Location: 4003286 - 4002372&lt;br&gt;&lt;br&gt;&lt;b&gt;BlastP hit with ctg1_977&lt;/b&gt;&lt;br&gt;Percentage identity: 74&lt;br&gt;Percentage coverage: 100&lt;br&gt;BLAST bit score: 465&lt;br&gt;E-value: 6.5e-129" locus_tag="A8L59_RS17745" class="clusterblast-orf" id="dummy-2_h2_10_30"  />
</g>
<g id="a2_0031"  >
<polygon points="648,85 653,80 662,80 662,90 653,90 648,85 " style="fill:#c4d815; stroke-width:1; stroke:black; " description="&lt;b&gt;A8L59_RS17740&lt;/b&gt;&lt;br&gt;metal ABC transporter permease&lt;br&gt;Location: 4002371 - 4001472&lt;br&gt;&lt;br&gt;&lt;b&gt;BlastP hit with ctg1_978&lt;/b&gt;&lt;br&gt;Percentage identity: 94&lt;br&gt;Percentage coverage: 100&lt;br&gt;BLAST bit score: 474&lt;br&gt;E-value: 1e-131" locus_tag="A8L59_RS17740" class="clusterblast-orf" id="dummy-2_h2_10_31"  />
</g>
<g id="a2_0032"  >
<polygon points="662,85 667,80 674,80 674,90 667,90 662,85 " style="fill:#15d89b; stroke-width:1; stroke:black; " description="&lt;b&gt;A8L59_RS17735&lt;/b&gt;&lt;br&gt;metal ABC transporter ATP-binding protein&lt;br&gt;Location: 4001472 - 4000627&lt;br&gt;&lt;br&gt;&lt;b&gt;BlastP hit with ctg1_979&lt;/b&gt;&lt;br&gt;Percentage identity: 86&lt;br&gt;Percentage coverage: 100&lt;br&gt;BLAST bit score: 472&lt;br&gt;E-value: 4.8e-131" locus_tag="A8L59_RS17735" class="clusterblast-orf" id="dummy-2_h2_10_32"  />
</g>
<g id="a2_0033"  >
<polygon points="674,85 679,80 688,80 688,90 679,90 674,85 " style="fill:#4915d8; stroke-width:1; stroke:black; " description="&lt;b&gt;A8L59_RS17730&lt;/b&gt;&lt;br&gt;ABC transporter substrate-binding protein&lt;br&gt;Location: 4000630 - 3999701&lt;br&gt;&lt;br&gt;&lt;b&gt;BlastP hit with ctg1_980&lt;/b&gt;&lt;br&gt;Percentage identity: 95&lt;br&gt;Percentage coverage: 100&lt;br&gt;BLAST bit score: 571&lt;br&gt;E-value: 6.2e-161" locus_tag="A8L59_RS17730" class="clusterblast-orf" id="dummy-2_h2_10_33"  />
</g>
<g id="a2_0034"  >
<polygon points="688,85 693,80 697,80 697,90 693,90 688,85 " style="fill:#d81553; stroke-width:1; stroke:black; " description="&lt;b&gt;A8L59_RS17725&lt;/b&gt;&lt;br&gt;hypothetical protein&lt;br&gt;Location: 3999665 - 3999090&lt;br&gt;&lt;br&gt;&lt;b&gt;BlastP hit with ctg1_981&lt;/b&gt;&lt;br&gt;Percentage identity: 77&lt;br&gt;Percentage coverage: 101&lt;br&gt;BLAST bit score: 287&lt;br&gt;E-value: 1.1e-75" locus_tag="A8L59_RS17725" class="clusterblast-orf" id="dummy-2_h2_10_34"  />
</g>
<g id="a2_0035"  >
<polygon points="697,85 702,80 702,80 702,90 702,90 697,85 " style="fill:#a5d815; stroke-width:1; stroke:black; " description="&lt;b&gt;A8L59_RS17720&lt;/b&gt;&lt;br&gt;hypothetical protein&lt;br&gt;Location: 3999093 - 3998752&lt;br&gt;&lt;br&gt;&lt;b&gt;BlastP hit with ctg1_982&lt;/b&gt;&lt;br&gt;Percentage identity: 92&lt;br&gt;Percentage coverage: 93&lt;br&gt;BLAST bit score: 193&lt;br&gt;E-value: 1.2e-47" locus_tag="A8L59_RS17720" class="clusterblast-orf" id="dummy-2_h2_10_35"  />
</g>
<g id="a2_0036"  >
<polygon points="702,85 707,80 710,80 710,90 707,90 702,85 " style="fill:#15d8b9; stroke-width:1; stroke:black; " description="&lt;b&gt;A8L59_RS17715&lt;/b&gt;&lt;br&gt;hypothetical protein&lt;br&gt;Location: 3998755 - 3998213&lt;br&gt;&lt;br&gt;&lt;b&gt;BlastP hit with ctg1_983&lt;/b&gt;&lt;br&gt;Percentage identity: 84&lt;br&gt;Percentage coverage: 96&lt;br&gt;BLAST bit score: 310&lt;br&gt;E-value: 1.5e-82" locus_tag="A8L59_RS17715" class="clusterblast-orf" id="dummy-2_h2_10_36"  />
</g>
<g id="a2_0037"  >
<polygon points="710,85 715,80 727,80 727,90 715,90 710,85 " style="fill:#6715d8; stroke-width:1; stroke:black; " description="&lt;b&gt;A8L59_RS17710&lt;/b&gt;&lt;br&gt;PepSY domain-containing protein&lt;br&gt;Location: 3998216 - 3997026&lt;br&gt;&lt;br&gt;&lt;b&gt;BlastP hit with ctg1_984&lt;/b&gt;&lt;br&gt;Percentage identity: 85&lt;br&gt;Percentage coverage: 100&lt;br&gt;BLAST bit score: 698&lt;br&gt;E-value: 5.7e-199" locus_tag="A8L59_RS17710" class="clusterblast-orf" id="dummy-2_h2_10_37"  />
</g>
<g id="a2_0038"  >
<polygon points="733,90 749,90 754,85 749,80 733,80 733,90 " style="fill:#d81534; stroke-width:1; stroke:black; " description="&lt;b&gt;A8L59_RS17705&lt;/b&gt;&lt;br&gt;3-isopropylmalate dehydratase large subunit&lt;br&gt;Location: 3996618 - 3995200&lt;br&gt;&lt;br&gt;&lt;b&gt;BlastP hit with ctg1_985&lt;/b&gt;&lt;br&gt;Percentage identity: 90&lt;br&gt;Percentage coverage: 100&lt;br&gt;BLAST bit score: 839&lt;br&gt;E-value: 1.4e-241" locus_tag="A8L59_RS17705" class="clusterblast-orf" id="dummy-2_h2_10_38"  />
</g>
<g id="a2_0039"  >
<polygon points="754,90 759,90 764,85 759,80 754,80 754,90 " style="fill:#86d815; stroke-width:1; stroke:black; " description="&lt;b&gt;A8L59_RS17700&lt;/b&gt;&lt;br&gt;3-isopropylmalate dehydratase small subunit&lt;br&gt;Location: 3995203 - 3994589&lt;br&gt;&lt;br&gt;&lt;b&gt;BlastP hit with ctg1_986&lt;/b&gt;&lt;br&gt;Percentage identity: 85&lt;br&gt;Percentage coverage: 100&lt;br&gt;BLAST bit score: 352&lt;br&gt;E-value: 3e-95" locus_tag="A8L59_RS17700" class="clusterblast-orf" id="dummy-2_h2_10_39"  />
</g>
<g id="a2_0040"  >
<polygon points="765,85 770,80 780,80 780,90 770,90 765,85 " style="fill:#15d8d8; stroke-width:1; stroke:black; " description="&lt;b&gt;A8L59_RS17695&lt;/b&gt;&lt;br&gt;LysR family transcriptional regulator&lt;br&gt;Location: 3994461 - 3993511&lt;br&gt;&lt;br&gt;&lt;b&gt;BlastP hit with ctg1_987&lt;/b&gt;&lt;br&gt;Percentage identity: 89&lt;br&gt;Percentage coverage: 100&lt;br&gt;BLAST bit score: 527&lt;br&gt;E-value: 1.2e-147" locus_tag="A8L59_RS17695" class="clusterblast-orf" id="dummy-2_h2_10_40"  />
</g>
</svg>
