<svg xmlns="http://www.w3.org/2000/svg" xmlns:xlink="http://www.w3.org/1999/xlink" version="1.1" x="0" y="0" height="230" width="800" viewBox="0 0 800 230" preserveAspectRatio="none"  >
<g label="Query sequence" class="clusterblast-cluster"  >
<text x="5" y="20" class="clusterblast-acc"  >
Query sequence</text>
<line x1="10" y1="35" x2="778.0" y2="35" style="stroke-width:1; stroke:grey; "  />
<polygon points="2,35 7,30 15,30 15,40 7,40 2,35 " style="fill:#d81515; stroke-width:1; stroke:black; " description="&lt;b&gt;ctg1_947&lt;/b&gt;&lt;br&gt;ctg1 947&lt;br&gt;Location: 1045973 - 1046867" locus_tag="ctg1_947" class="clusterblast-orf" id="dummy-2_q0_0_all"  />
<polygon points="16,40 18,35 16,30 16,40 " style="fill:white; stroke-width:1; stroke:black; " description="&lt;b&gt;ctg1_948&lt;/b&gt;&lt;br&gt;ctg1 948&lt;br&gt;Location: 1046885 - 1047053" locus_tag="ctg1_948" class="clusterblast-orf" id="dummy-2_q1_0_all"  />
<polygon points="23,35 28,30 30,30 30,40 28,40 23,35 " style="fill:#67d815; stroke-width:1; stroke:black; " description="&lt;b&gt;ctg1_949&lt;/b&gt;&lt;br&gt;ctg1 949&lt;br&gt;Location: 1047381 - 1047852" locus_tag="ctg1_949" class="clusterblast-orf" id="dummy-2_q2_0_all"  />
<polygon points="37,40 46,40 51,35 46,30 37,30 37,40 " style="fill:#15b9d8; stroke-width:1; stroke:black; " description="&lt;b&gt;ctg1_950&lt;/b&gt;&lt;br&gt;ctg1 950&lt;br&gt;Location: 1048295 - 1049231" locus_tag="ctg1_950" class="clusterblast-orf" id="dummy-2_q3_0_all"  />
<polygon points="53,40 60,40 65,35 60,30 53,30 53,40 " style="fill:#8615d8; stroke-width:1; stroke:black; " description="&lt;b&gt;ctg1_951&lt;/b&gt;&lt;br&gt;ctg1 951&lt;br&gt;Location: 1049408 - 1050215" locus_tag="ctg1_951" class="clusterblast-orf" id="dummy-2_q4_0_all"  />
<polygon points="67,35 71,30 71,40 67,35 " style="fill:#d83415; stroke-width:1; stroke:black; " description="&lt;b&gt;ctg1_952&lt;/b&gt;&lt;br&gt;ctg1 952&lt;br&gt;Location: 1050289 - 1050574" locus_tag="ctg1_952" class="clusterblast-orf" id="dummy-2_q5_0_all"  />
<polygon points="72,35 77,30 80,30 80,40 77,40 72,35 " style="fill:#49d815; stroke-width:1; stroke:black; " description="&lt;b&gt;ctg1_953&lt;/b&gt;&lt;br&gt;ctg1 953&lt;br&gt;Location: 1050644 - 1051187" locus_tag="ctg1_953" class="clusterblast-orf" id="dummy-2_q6_0_all"  />
<polygon points="81,35 86,30 110,30 110,40 86,40 81,35 " style="fill:#159bd8; stroke-width:1; stroke:black; " description="&lt;b&gt;ctg1_954&lt;/b&gt;&lt;br&gt;ctg1 954&lt;br&gt;Location: 1051258 - 1053220" locus_tag="ctg1_954" class="clusterblast-orf" id="dummy-2_q7_0_all"  />
<polygon points="112,35 117,30 124,30 124,40 117,40 112,35 " style="fill:#a515d8; stroke-width:1; stroke:black; " description="&lt;b&gt;ctg1_955&lt;/b&gt;&lt;br&gt;ctg1 955&lt;br&gt;Location: 1053329 - 1054127" locus_tag="ctg1_955" class="clusterblast-orf" id="dummy-2_q8_0_all"  />
<polygon points="124,35 129,30 141,30 141,40 129,40 124,35 " style="fill:#d85315; stroke-width:1; stroke:black; " description="&lt;b&gt;ctg1_956&lt;/b&gt;&lt;br&gt;ctg1 956&lt;br&gt;Location: 1054123 - 1055281" locus_tag="ctg1_956" class="clusterblast-orf" id="dummy-2_q9_0_all"  />
<polygon points="142,35 147,30 166,30 166,40 147,40 142,35 " style="fill:#2ad815; stroke-width:1; stroke:black; " description="&lt;b&gt;ctg1_957&lt;/b&gt;&lt;br&gt;ctg1 957&lt;br&gt;Location: 1055304 - 1056921" locus_tag="ctg1_957" class="clusterblast-orf" id="dummy-2_q10_0_all"  />
<polygon points="166,35 171,30 179,30 179,40 171,40 166,35 " style="fill:#157cd8; stroke-width:1; stroke:black; " description="&lt;b&gt;ctg1_958&lt;/b&gt;&lt;br&gt;ctg1 958&lt;br&gt;Location: 1056924 - 1057809" locus_tag="ctg1_958" class="clusterblast-orf" id="dummy-2_q11_0_all"  />
<polygon points="179,35 184,30 207,30 207,40 184,40 179,35 " style="fill:#c415d8; stroke-width:1; stroke:black; " description="&lt;b&gt;ctg1_959&lt;/b&gt;&lt;br&gt;ctg1 959&lt;br&gt;Location: 1057821 - 1059624" locus_tag="ctg1_959" class="clusterblast-orf" id="dummy-2_q12_0_all"  />
<polygon points="209,40 214,40 219,35 214,30 209,30 209,40 " style="fill:#d87215; stroke-width:1; stroke:black; " description="&lt;b&gt;ctg1_960&lt;/b&gt;&lt;br&gt;ctg1 960&lt;br&gt;Location: 1059802 - 1060429" locus_tag="ctg1_960" class="clusterblast-orf" id="dummy-2_q13_0_all"  />
<polygon points="220,40 227,40 232,35 227,30 220,30 220,40 " style="fill:#15d81f; stroke-width:1; stroke:black; " description="&lt;b&gt;ctg1_961&lt;/b&gt;&lt;br&gt;ctg1 961&lt;br&gt;Location: 1060521 - 1061316" locus_tag="ctg1_961" class="clusterblast-orf" id="dummy-2_q14_0_all"  />
<polygon points="234,40 241,40 246,35 241,30 234,30 234,40 " style="fill:#155dd8; stroke-width:1; stroke:black; " description="&lt;b&gt;ctg1_962&lt;/b&gt;&lt;br&gt;ctg1 962&lt;br&gt;Location: 1061450 - 1062287" locus_tag="ctg1_962" class="clusterblast-orf" id="dummy-2_q15_0_all"  />
<polygon points="247,40 249,35 247,30 247,40 " style="fill:#15d81f; stroke-width:1; stroke:black; " description="&lt;b&gt;ctg1_963&lt;/b&gt;&lt;br&gt;ctg1 963&lt;br&gt;Location: 1062293 - 1062425" locus_tag="ctg1_963" class="clusterblast-orf" id="dummy-2_q16_0_all"  />
<polygon points="251,40 258,40 263,35 258,30 251,30 251,40 " style="fill:#155dd8; stroke-width:1; stroke:black; " description="&lt;b&gt;ctg1_964&lt;/b&gt;&lt;br&gt;ctg1 964&lt;br&gt;Location: 1062559 - 1063393" locus_tag="ctg1_964" class="clusterblast-orf" id="dummy-2_q17_0_all"  />
<polygon points="265,40 276,40 281,35 276,30 265,30 265,40 " style="fill:#d815ce; stroke-width:1; stroke:black; " description="&lt;b&gt;ctg1_965&lt;/b&gt;&lt;br&gt;ctg1 965&lt;br&gt;Location: 1063545 - 1064559" locus_tag="ctg1_965" class="clusterblast-orf" id="dummy-2_q18_0_all"  />
<polygon points="283,35 288,30 291,30 291,40 288,40 283,35 " style="fill:#d89015; stroke-width:1; stroke:black; " description="&lt;b&gt;ctg1_966&lt;/b&gt;&lt;br&gt;ctg1 966&lt;br&gt;Location: 1064693 - 1065242" locus_tag="ctg1_966" class="clusterblast-orf" id="dummy-2_q19_0_all"  />
<polygon points="296,40 486,40 491,35 486,30 296,30 296,40 " style="fill:#15d83e; stroke-width:1; stroke:black; " description="&lt;b&gt;ctg1_967&lt;/b&gt;&lt;br&gt;ctg1 967&lt;br&gt;Location: 1065614 - 1078598" locus_tag="ctg1_967" class="clusterblast-orf" id="dummy-2_q20_0_all"  />
<polygon points="494,40 501,40 506,35 501,30 494,30 494,40 " style="fill:#153ed8; stroke-width:1; stroke:black; " description="&lt;b&gt;ctg1_968&lt;/b&gt;&lt;br&gt;ctg1 968&lt;br&gt;Location: 1078770 - 1079583" locus_tag="ctg1_968" class="clusterblast-orf" id="dummy-2_q21_0_all"  />
<polygon points="507,35 512,30 519,30 519,40 512,40 507,35 " style="fill:#d815af; stroke-width:1; stroke:black; " description="&lt;b&gt;ctg1_969&lt;/b&gt;&lt;br&gt;ctg1 969&lt;br&gt;Location: 1079675 - 1080446" locus_tag="ctg1_969" class="clusterblast-orf" id="dummy-2_q22_0_all"  />
<polygon points="518,35 523,30 531,30 531,40 523,40 518,35 " style="fill:#d8af15; stroke-width:1; stroke:black; " description="&lt;b&gt;ctg1_970&lt;/b&gt;&lt;br&gt;ctg1 970&lt;br&gt;Location: 1080421 - 1081288" locus_tag="ctg1_970" class="clusterblast-orf" id="dummy-2_q23_0_all"  />
<polygon points="531,35 536,30 557,30 557,40 536,40 531,35 " style="fill:#15d85d; stroke-width:1; stroke:black; " description="&lt;b&gt;ctg1_971&lt;/b&gt;&lt;br&gt;ctg1 971&lt;br&gt;Location: 1081287 - 1083027" locus_tag="ctg1_971" class="clusterblast-orf" id="dummy-2_q24_0_all"  />
<polygon points="560,40 565,40 570,35 565,30 560,30 560,40 " style="fill:#151fd8; stroke-width:1; stroke:black; " description="&lt;b&gt;ctg1_972&lt;/b&gt;&lt;br&gt;ctg1 972&lt;br&gt;Location: 1083180 - 1083861" locus_tag="ctg1_972" class="clusterblast-orf" id="dummy-2_q25_0_all"  />
<polygon points="570,40 585,40 590,35 585,30 570,30 570,40 " style="fill:#d81590; stroke-width:1; stroke:black; " description="&lt;b&gt;ctg1_973&lt;/b&gt;&lt;br&gt;ctg1 973&lt;br&gt;Location: 1083857 - 1085183" locus_tag="ctg1_973" class="clusterblast-orf" id="dummy-2_q26_0_all"  />
<polygon points="593,40 595,40 600,35 595,30 593,30 593,40 " style="fill:#d8ce15; stroke-width:1; stroke:black; " description="&lt;b&gt;ctg1_974&lt;/b&gt;&lt;br&gt;ctg1 974&lt;br&gt;Location: 1085400 - 1085886" locus_tag="ctg1_974" class="clusterblast-orf" id="dummy-2_q27_0_all"  />
<polygon points="602,40 619,40 624,35 619,30 602,30 602,40 " style="fill:#15d87c; stroke-width:1; stroke:black; " description="&lt;b&gt;ctg1_975&lt;/b&gt;&lt;br&gt;ctg1 975&lt;br&gt;Location: 1086029 - 1087442" locus_tag="ctg1_975" class="clusterblast-orf" id="dummy-2_q28_0_all"  />
<polygon points="625,40 628,35 625,30 625,40 " style="fill:#2a15d8; stroke-width:1; stroke:black; " description="&lt;b&gt;ctg1_976&lt;/b&gt;&lt;br&gt;ctg1 976&lt;br&gt;Location: 1087524 - 1087752" locus_tag="ctg1_976" class="clusterblast-orf" id="dummy-2_q29_0_all"  />
<polygon points="631,35 636,30 645,30 645,40 636,40 631,35 " style="fill:#d81572; stroke-width:1; stroke:black; " description="&lt;b&gt;ctg1_977&lt;/b&gt;&lt;br&gt;ctg1 977&lt;br&gt;Location: 1087926 - 1088898" locus_tag="ctg1_977" class="clusterblast-orf" id="dummy-2_q30_0_all"  />
<polygon points="645,35 650,30 659,30 659,40 650,40 645,35 " style="fill:#c4d815; stroke-width:1; stroke:black; " description="&lt;b&gt;ctg1_978&lt;/b&gt;&lt;br&gt;ctg1 978&lt;br&gt;Location: 1088898 - 1089798" locus_tag="ctg1_978" class="clusterblast-orf" id="dummy-2_q31_0_all"  />
<polygon points="659,35 664,30 672,30 672,40 664,40 659,35 " style="fill:#15d89b; stroke-width:1; stroke:black; " description="&lt;b&gt;ctg1_979&lt;/b&gt;&lt;br&gt;ctg1 979&lt;br&gt;Location: 1089797 - 1090661" locus_tag="ctg1_979" class="clusterblast-orf" id="dummy-2_q32_0_all"  />
<polygon points="672,35 677,30 686,30 686,40 677,40 672,35 " style="fill:#4915d8; stroke-width:1; stroke:black; " description="&lt;b&gt;ctg1_980&lt;/b&gt;&lt;br&gt;ctg1 980&lt;br&gt;Location: 1090657 - 1091584" locus_tag="ctg1_980" class="clusterblast-orf" id="dummy-2_q33_0_all"  />
<polygon points="686,35 691,30 695,30 695,40 691,40 686,35 " style="fill:#d81553; stroke-width:1; stroke:black; " description="&lt;b&gt;ctg1_981&lt;/b&gt;&lt;br&gt;ctg1 981&lt;br&gt;Location: 1091619 - 1092192" locus_tag="ctg1_981" class="clusterblast-orf" id="dummy-2_q34_0_all"  />
<polygon points="695,35 700,30 700,30 700,40 700,40 695,35 " style="fill:#a5d815; stroke-width:1; stroke:black; " description="&lt;b&gt;ctg1_982&lt;/b&gt;&lt;br&gt;ctg1 982&lt;br&gt;Location: 1092194 - 1092524" locus_tag="ctg1_982" class="clusterblast-orf" id="dummy-2_q35_0_all"  />
<polygon points="700,35 705,30 708,30 708,40 705,40 700,35 " style="fill:#15d8b9; stroke-width:1; stroke:black; " description="&lt;b&gt;ctg1_983&lt;/b&gt;&lt;br&gt;ctg1 983&lt;br&gt;Location: 1092520 - 1093063" locus_tag="ctg1_983" class="clusterblast-orf" id="dummy-2_q36_0_all"  />
<polygon points="708,35 713,30 726,30 726,40 713,40 708,35 " style="fill:#6715d8; stroke-width:1; stroke:black; " description="&lt;b&gt;ctg1_984&lt;/b&gt;&lt;br&gt;ctg1 984&lt;br&gt;Location: 1093059 - 1094262" locus_tag="ctg1_984" class="clusterblast-orf" id="dummy-2_q37_0_all"  />
<polygon points="732,40 748,40 753,35 748,30 732,30 732,40 " style="fill:#d81534; stroke-width:1; stroke:black; " description="&lt;b&gt;ctg1_985&lt;/b&gt;&lt;br&gt;ctg1 985&lt;br&gt;Location: 1094682 - 1096104" locus_tag="ctg1_985" class="clusterblast-orf" id="dummy-2_q38_0_all"  />
<polygon points="753,40 758,40 763,35 758,30 753,30 753,40 " style="fill:#86d815; stroke-width:1; stroke:black; " description="&lt;b&gt;ctg1_986&lt;/b&gt;&lt;br&gt;ctg1 986&lt;br&gt;Location: 1096100 - 1096712" locus_tag="ctg1_986" class="clusterblast-orf" id="dummy-2_q39_0_all"  />
<polygon points="764,35 769,30 777,30 777,40 769,40 764,35 " style="fill:#15d8d8; stroke-width:1; stroke:black; " description="&lt;b&gt;ctg1_987&lt;/b&gt;&lt;br&gt;ctg1 987&lt;br&gt;Location: 1096837 - 1097704" locus_tag="ctg1_987" class="clusterblast-orf" id="dummy-2_q40_0_all"  />
</g>
<g label="NZ_AKJP02000031" description="NZ_AKJP02000031_c2: Pseudomonas sp. GM30 ctg8, whole genome shotgun sequence (90% of genes show similarity), nrps" class="clusterblast-cluster"  >
<text x="5" y="70" class="clusterblast-acc"  >
<a xlink:href="https://antismash-db.secondarymetabolites.org/go/NZ_AKJP02000031/2" target="_blank">NZ_AKJP02000031_c2</a>: Pseudomonas sp. GM30 ctg8, whole genome shotgun sequence (90% of genes show similarity), nrps</text>
<line x1="10" y1="85" x2="778.0" y2="85" style="stroke-width:1; stroke:grey; "  />
</g>
<g id="a2_000"  >
<polygon points="0,85 2,80 2,90 0,85 " style="fill:white; stroke-width:1; stroke:black; " description="&lt;b&gt;PMI25_RS25320&lt;/b&gt;&lt;br&gt;hypothetical protein&lt;br&gt;Location: 67391 - 67197" locus_tag="PMI25_RS25320" class="clusterblast-orf" id="dummy-2_h2_7_0"  />
</g>
<g id="a2_001"  >
<polygon points="9,90 18,90 23,85 18,80 9,80 9,90 " style="fill:white; stroke-width:1; stroke:black; " description="&lt;b&gt;PMI25_RS25315&lt;/b&gt;&lt;br&gt;lipid kinase YegS&lt;br&gt;Location: 66764 - 65847" locus_tag="PMI25_RS25315" class="clusterblast-orf" id="dummy-2_h2_7_1"  />
</g>
<g id="a2_002"  >
<polygon points="22,85 27,80 32,80 32,90 27,90 22,85 " style="fill:white; stroke-width:1; stroke:black; " description="&lt;b&gt;PMI25_RS25310&lt;/b&gt;&lt;br&gt;DNA-binding response regulator&lt;br&gt;Location: 65863 - 65204" locus_tag="PMI25_RS25310" class="clusterblast-orf" id="dummy-2_h2_7_2"  />
</g>
<g id="a2_003"  >
<polygon points="32,85 37,80 46,80 46,90 37,90 32,85 " style="fill:#d81515; stroke-width:1; stroke:black; " description="&lt;b&gt;PMI25_RS25305&lt;/b&gt;&lt;br&gt;sensor histidine kinase&lt;br&gt;Location: 65207 - 64314&lt;br&gt;&lt;br&gt;&lt;b&gt;BlastP hit with ctg1_947&lt;/b&gt;&lt;br&gt;Percentage identity: 86&lt;br&gt;Percentage coverage: 100&lt;br&gt;BLAST bit score: 497&lt;br&gt;E-value: 8.4e-139" locus_tag="PMI25_RS25305" class="clusterblast-orf" id="dummy-2_h2_7_3"  />
</g>
<g id="a2_004"  >
<polygon points="53,85 58,80 60,80 60,90 58,90 53,85 " style="fill:#67d815; stroke-width:1; stroke:black; " description="&lt;b&gt;PMI25_RS25300&lt;/b&gt;&lt;br&gt;hypothetical protein&lt;br&gt;Location: 63821 - 63351&lt;br&gt;&lt;br&gt;&lt;b&gt;BlastP hit with ctg1_949&lt;/b&gt;&lt;br&gt;Percentage identity: 71&lt;br&gt;Percentage coverage: 100&lt;br&gt;BLAST bit score: 217&lt;br&gt;E-value: 8.8e-55" locus_tag="PMI25_RS25300" class="clusterblast-orf" id="dummy-2_h2_7_4"  />
</g>
<g id="a2_005"  >
<polygon points="67,90 76,90 81,85 76,80 67,80 67,90 " style="fill:#15b9d8; stroke-width:1; stroke:black; " description="&lt;b&gt;PMI25_RS25295&lt;/b&gt;&lt;br&gt;chemotaxis protein CheV&lt;br&gt;Location: 62896 - 61961&lt;br&gt;&lt;br&gt;&lt;b&gt;BlastP hit with ctg1_950&lt;/b&gt;&lt;br&gt;Percentage identity: 98&lt;br&gt;Percentage coverage: 100&lt;br&gt;BLAST bit score: 601&lt;br&gt;E-value: 7.3e-170" locus_tag="PMI25_RS25295" class="clusterblast-orf" id="dummy-2_h2_7_5"  />
</g>
<g id="a2_006"  >
<polygon points="84,90 91,90 96,85 91,80 84,80 84,90 " style="fill:#8615d8; stroke-width:1; stroke:black; " description="&lt;b&gt;PMI25_RS25290&lt;/b&gt;&lt;br&gt;MOSC domain-containing protein&lt;br&gt;Location: 61769 - 60963&lt;br&gt;&lt;br&gt;&lt;b&gt;BlastP hit with ctg1_951&lt;/b&gt;&lt;br&gt;Percentage identity: 86&lt;br&gt;Percentage coverage: 100&lt;br&gt;BLAST bit score: 469&lt;br&gt;E-value: 2.9e-130" locus_tag="PMI25_RS25290" class="clusterblast-orf" id="dummy-2_h2_7_6"  />
</g>
<g id="a2_007"  >
<polygon points="97,85 101,80 101,90 97,85 " style="fill:#d83415; stroke-width:1; stroke:black; " description="&lt;b&gt;PMI25_RS25285&lt;/b&gt;&lt;br&gt;DUF1255 domain-containing protein&lt;br&gt;Location: 60891 - 60607&lt;br&gt;&lt;br&gt;&lt;b&gt;BlastP hit with ctg1_952&lt;/b&gt;&lt;br&gt;Percentage identity: 98&lt;br&gt;Percentage coverage: 100&lt;br&gt;BLAST bit score: 193&lt;br&gt;E-value: 1.1e-47" locus_tag="PMI25_RS25285" class="clusterblast-orf" id="dummy-2_h2_7_7"  />
</g>
<g id="a2_008"  >
<polygon points="103,85 108,80 111,80 111,90 108,90 103,85 " style="fill:#49d815; stroke-width:1; stroke:black; " description="&lt;b&gt;PMI25_RS25280&lt;/b&gt;&lt;br&gt;exonuclease&lt;br&gt;Location: 60491 - 59949&lt;br&gt;&lt;br&gt;&lt;b&gt;BlastP hit with ctg1_953&lt;/b&gt;&lt;br&gt;Percentage identity: 92&lt;br&gt;Percentage coverage: 100&lt;br&gt;BLAST bit score: 353&lt;br&gt;E-value: 1.5e-95" locus_tag="PMI25_RS25280" class="clusterblast-orf" id="dummy-2_h2_7_8"  />
</g>
<g id="a2_009"  >
<polygon points="112,85 117,80 142,80 142,90 117,90 112,85 " style="fill:#159bd8; stroke-width:1; stroke:black; " description="&lt;b&gt;PMI25_RS25275&lt;/b&gt;&lt;br&gt;acetyl/propionyl/methylcrotonyl-CoA carboxylase subunit alpha&lt;br&gt;Location: 59878 - 57917&lt;br&gt;&lt;br&gt;&lt;b&gt;BlastP hit with ctg1_954&lt;/b&gt;&lt;br&gt;Percentage identity: 77&lt;br&gt;Percentage coverage: 100&lt;br&gt;BLAST bit score: 998&lt;br&gt;E-value: 4.3e-289" locus_tag="PMI25_RS25275" class="clusterblast-orf" id="dummy-2_h2_7_9"  />
</g>
<g id="a2_0010"  >
<polygon points="143,85 148,80 155,80 155,90 148,90 143,85 " style="fill:#a515d8; stroke-width:1; stroke:black; " description="&lt;b&gt;PMI25_RS25270&lt;/b&gt;&lt;br&gt;enoyl-CoA hydratase&lt;br&gt;Location: 57807 - 57010&lt;br&gt;&lt;br&gt;&lt;b&gt;BlastP hit with ctg1_955&lt;/b&gt;&lt;br&gt;Percentage identity: 82&lt;br&gt;Percentage coverage: 100&lt;br&gt;BLAST bit score: 423&lt;br&gt;E-value: 2.3e-116" locus_tag="PMI25_RS25270" class="clusterblast-orf" id="dummy-2_h2_7_10"  />
</g>
<g id="a2_0011"  >
<polygon points="155,85 160,80 172,80 172,90 160,90 155,85 " style="fill:#d85315; stroke-width:1; stroke:black; " description="&lt;b&gt;PMI25_RS25265&lt;/b&gt;&lt;br&gt;acyl-CoA dehydrogenase&lt;br&gt;Location: 57013 - 55856&lt;br&gt;&lt;br&gt;&lt;b&gt;BlastP hit with ctg1_956&lt;/b&gt;&lt;br&gt;Percentage identity: 98&lt;br&gt;Percentage coverage: 100&lt;br&gt;BLAST bit score: 775&lt;br&gt;E-value: 3.5e-222" locus_tag="PMI25_RS25265" class="clusterblast-orf" id="dummy-2_h2_7_11"  />
</g>
<g id="a2_0012"  >
<polygon points="173,85 178,80 197,80 197,90 178,90 173,85 " style="fill:#2ad815; stroke-width:1; stroke:black; " description="&lt;b&gt;PMI25_RS25260&lt;/b&gt;&lt;br&gt;acyl-CoA carboxylase subunit beta&lt;br&gt;Location: 55825 - 54209&lt;br&gt;&lt;br&gt;&lt;b&gt;BlastP hit with ctg1_957&lt;/b&gt;&lt;br&gt;Percentage identity: 92&lt;br&gt;Percentage coverage: 100&lt;br&gt;BLAST bit score: 1001&lt;br&gt;E-value: 4.2e-290" locus_tag="PMI25_RS25260" class="clusterblast-orf" id="dummy-2_h2_7_12"  />
</g>
<g id="a2_0013"  >
<polygon points="197,85 202,80 210,80 210,90 202,90 197,85 " style="fill:#157cd8; stroke-width:1; stroke:black; " description="&lt;b&gt;PMI25_RS25255&lt;/b&gt;&lt;br&gt;2,4-dienoyl-CoA reductase&lt;br&gt;Location: 54205 - 53336&lt;br&gt;&lt;br&gt;&lt;b&gt;BlastP hit with ctg1_958&lt;/b&gt;&lt;br&gt;Percentage identity: 86&lt;br&gt;Percentage coverage: 100&lt;br&gt;BLAST bit score: 515&lt;br&gt;E-value: 5e-144" locus_tag="PMI25_RS25255" class="clusterblast-orf" id="dummy-2_h2_7_13"  />
</g>
<g id="a2_0014"  >
<polygon points="210,85 215,80 237,80 237,90 215,90 210,85 " style="fill:#c415d8; stroke-width:1; stroke:black; " description="&lt;b&gt;PMI25_RS25250&lt;/b&gt;&lt;br&gt;DUF1446 domain-containing protein&lt;br&gt;Location: 53323 - 51533&lt;br&gt;&lt;br&gt;&lt;b&gt;BlastP hit with ctg1_959&lt;/b&gt;&lt;br&gt;Percentage identity: 88&lt;br&gt;Percentage coverage: 99&lt;br&gt;BLAST bit score: 1079&lt;br&gt;E-value: 0.0" locus_tag="PMI25_RS25250" class="clusterblast-orf" id="dummy-2_h2_7_14"  />
</g>
<g id="a2_0015"  >
<polygon points="240,90 244,90 249,85 244,80 240,80 240,90 " style="fill:#d87215; stroke-width:1; stroke:black; " description="&lt;b&gt;PMI25_RS25245&lt;/b&gt;&lt;br&gt;TetR/AcrR family transcriptional regulator&lt;br&gt;Location: 51349 - 50726&lt;br&gt;&lt;br&gt;&lt;b&gt;BlastP hit with ctg1_960&lt;/b&gt;&lt;br&gt;Percentage identity: 93&lt;br&gt;Percentage coverage: 100&lt;br&gt;BLAST bit score: 381&lt;br&gt;E-value: 4.7e-104" locus_tag="PMI25_RS25245" class="clusterblast-orf" id="dummy-2_h2_7_15"  />
</g>
<g id="a2_0016"  >
<polygon points="251,90 258,90 263,85 258,80 251,80 251,90 " style="fill:#15d81f; stroke-width:1; stroke:black; " description="&lt;b&gt;PMI25_RS25240&lt;/b&gt;&lt;br&gt;amino acid ABC transporter substrate-binding protein&lt;br&gt;Location: 50633 - 49836&lt;br&gt;&lt;br&gt;&lt;b&gt;BlastP hit with ctg1_961&lt;/b&gt;&lt;br&gt;Percentage identity: 84&lt;br&gt;Percentage coverage: 99&lt;br&gt;BLAST bit score: 451&lt;br&gt;E-value: 8e-125&lt;br&gt;&lt;br&gt;&lt;b&gt;BlastP hit with ctg1_963&lt;/b&gt;&lt;br&gt;Percentage identity: 79&lt;br&gt;Percentage coverage: 100&lt;br&gt;BLAST bit score: 73&lt;br&gt;E-value: 7.4e-12" locus_tag="PMI25_RS25240" class="clusterblast-orf" id="dummy-2_h2_7_16"  />
</g>
<g id="a2_0017"  >
<polygon points="264,90 274,90 279,85 274,80 264,80 264,90 " style="fill:#d815ce; stroke-width:1; stroke:black; " description="&lt;b&gt;PMI25_RS25235&lt;/b&gt;&lt;br&gt;N-acetyltransferase&lt;br&gt;Location: 49751 - 48738&lt;br&gt;&lt;br&gt;&lt;b&gt;BlastP hit with ctg1_965&lt;/b&gt;&lt;br&gt;Percentage identity: 85&lt;br&gt;Percentage coverage: 100&lt;br&gt;BLAST bit score: 619&lt;br&gt;E-value: 2.2e-175" locus_tag="PMI25_RS25235" class="clusterblast-orf" id="dummy-2_h2_7_17"  />
</g>
<g id="a2_0018"  >
<polygon points="281,85 286,80 289,80 289,90 286,90 281,85 " style="fill:#d89015; stroke-width:1; stroke:black; " description="&lt;b&gt;PMI25_RS25230&lt;/b&gt;&lt;br&gt;RNA polymerase factor sigma-70&lt;br&gt;Location: 48639 - 48085&lt;br&gt;&lt;br&gt;&lt;b&gt;BlastP hit with ctg1_966&lt;/b&gt;&lt;br&gt;Percentage identity: 98&lt;br&gt;Percentage coverage: 97&lt;br&gt;BLAST bit score: 342&lt;br&gt;E-value: 2.1e-92" locus_tag="PMI25_RS25230" class="clusterblast-orf" id="dummy-2_h2_7_18"  />
</g>
<g id="a2_0019"  >
<polygon points="294,90 484,90 489,85 484,80 294,80 294,90 " style="fill:#15d83e; stroke-width:1; stroke:black; " description="&lt;b&gt;PMI25_RS25225&lt;/b&gt;&lt;br&gt;non-ribosomal peptide synthetase&lt;br&gt;Location: 47717 - 34719&lt;br&gt;&lt;br&gt;&lt;b&gt;BlastP hit with ctg1_967&lt;/b&gt;&lt;br&gt;Percentage identity: 90&lt;br&gt;Percentage coverage: 100&lt;br&gt;BLAST bit score: 7896&lt;br&gt;E-value: 0.0" locus_tag="PMI25_RS25225" class="clusterblast-orf" id="dummy-2_h2_7_19"  />
</g>
<g id="a2_0020"  >
<polygon points="493,90 500,90 505,85 500,80 493,80 493,90 " style="fill:#153ed8; stroke-width:1; stroke:black; " description="&lt;b&gt;PMI25_RS25220&lt;/b&gt;&lt;br&gt;2-succinyl-6-hydroxy-2, 4-cyclohexadiene-1-carboxylate synthase&lt;br&gt;Location: 34490 - 33675&lt;br&gt;&lt;br&gt;&lt;b&gt;BlastP hit with ctg1_968&lt;/b&gt;&lt;br&gt;Percentage identity: 86&lt;br&gt;Percentage coverage: 100&lt;br&gt;BLAST bit score: 481&lt;br&gt;E-value: 7.4e-134" locus_tag="PMI25_RS25220" class="clusterblast-orf" id="dummy-2_h2_7_20"  />
</g>
<g id="a2_0021"  >
<polygon points="507,85 512,80 518,80 518,90 512,90 507,85 " style="fill:#d815af; stroke-width:1; stroke:black; " description="&lt;b&gt;PMI25_RS25215&lt;/b&gt;&lt;br&gt;thiol:disulfide interchange protein DsbG&lt;br&gt;Location: 33562 - 32792&lt;br&gt;&lt;br&gt;&lt;b&gt;BlastP hit with ctg1_969&lt;/b&gt;&lt;br&gt;Percentage identity: 89&lt;br&gt;Percentage coverage: 100&lt;br&gt;BLAST bit score: 470&lt;br&gt;E-value: 9.4e-131" locus_tag="PMI25_RS25215" class="clusterblast-orf" id="dummy-2_h2_7_21"  />
</g>
<g id="a2_0022"  >
<polygon points="518,85 523,80 531,80 531,90 523,90 518,85 " style="fill:#d8af15; stroke-width:1; stroke:black; " description="&lt;b&gt;PMI25_RS25210&lt;/b&gt;&lt;br&gt;peroxiredoxin&lt;br&gt;Location: 32816 - 31947&lt;br&gt;&lt;br&gt;&lt;b&gt;BlastP hit with ctg1_970&lt;/b&gt;&lt;br&gt;Percentage identity: 91&lt;br&gt;Percentage coverage: 100&lt;br&gt;BLAST bit score: 534&lt;br&gt;E-value: 7.8e-150" locus_tag="PMI25_RS25210" class="clusterblast-orf" id="dummy-2_h2_7_22"  />
</g>
<g id="a2_0023"  >
<polygon points="531,85 536,80 557,80 557,90 536,90 531,85 " style="fill:#15d85d; stroke-width:1; stroke:black; " description="&lt;b&gt;PMI25_RS25205&lt;/b&gt;&lt;br&gt;protein-disulfide reductase DsbD&lt;br&gt;Location: 31946 - 30213&lt;br&gt;&lt;br&gt;&lt;b&gt;BlastP hit with ctg1_971&lt;/b&gt;&lt;br&gt;Percentage identity: 83&lt;br&gt;Percentage coverage: 100&lt;br&gt;BLAST bit score: 952&lt;br&gt;E-value: 1.9e-275" locus_tag="PMI25_RS25205" class="clusterblast-orf" id="dummy-2_h2_7_23"  />
</g>
<g id="a2_0024"  >
<polygon points="559,90 564,90 569,85 564,80 559,80 559,90 " style="fill:#151fd8; stroke-width:1; stroke:black; " description="&lt;b&gt;PMI25_RS25200&lt;/b&gt;&lt;br&gt;DNA-binding response regulator&lt;br&gt;Location: 30059 - 29379&lt;br&gt;&lt;br&gt;&lt;b&gt;BlastP hit with ctg1_972&lt;/b&gt;&lt;br&gt;Percentage identity: 95&lt;br&gt;Percentage coverage: 100&lt;br&gt;BLAST bit score: 412&lt;br&gt;E-value: 2.7e-113" locus_tag="PMI25_RS25200" class="clusterblast-orf" id="dummy-2_h2_7_24"  />
</g>
<g id="a2_0025"  >
<polygon points="569,90 584,90 589,85 584,80 569,80 569,90 " style="fill:#d81590; stroke-width:1; stroke:black; " description="&lt;b&gt;PMI25_RS25195&lt;/b&gt;&lt;br&gt;two-component sensor histidine kinase&lt;br&gt;Location: 29382 - 28057&lt;br&gt;&lt;br&gt;&lt;b&gt;BlastP hit with ctg1_973&lt;/b&gt;&lt;br&gt;Percentage identity: 91&lt;br&gt;Percentage coverage: 100&lt;br&gt;BLAST bit score: 793&lt;br&gt;E-value: 1.4e-227" locus_tag="PMI25_RS25195" class="clusterblast-orf" id="dummy-2_h2_7_25"  />
</g>
<g id="a2_0026"  >
<polygon points="593,90 595,90 600,85 595,80 593,80 593,90 " style="fill:#d8ce15; stroke-width:1; stroke:black; " description="&lt;b&gt;PMI25_RS25190&lt;/b&gt;&lt;br&gt;N-acetyltransferase&lt;br&gt;Location: 27835 - 27350&lt;br&gt;&lt;br&gt;&lt;b&gt;BlastP hit with ctg1_974&lt;/b&gt;&lt;br&gt;Percentage identity: 61&lt;br&gt;Percentage coverage: 99&lt;br&gt;BLAST bit score: 203&lt;br&gt;E-value: 2.3e-50" locus_tag="PMI25_RS25190" class="clusterblast-orf" id="dummy-2_h2_7_26"  />
</g>
<g id="a2_0027"  >
<polygon points="602,90 618,90 623,85 618,80 602,80 602,90 " style="fill:#15d87c; stroke-width:1; stroke:black; " description="&lt;b&gt;PMI25_RS25185&lt;/b&gt;&lt;br&gt;diaminobutyrate--2-oxoglutarate transaminase&lt;br&gt;Location: 27206 - 25794&lt;br&gt;&lt;br&gt;&lt;b&gt;BlastP hit with ctg1_975&lt;/b&gt;&lt;br&gt;Percentage identity: 92&lt;br&gt;Percentage coverage: 100&lt;br&gt;BLAST bit score: 861&lt;br&gt;E-value: 6e-248" locus_tag="PMI25_RS25185" class="clusterblast-orf" id="dummy-2_h2_7_27"  />
</g>
<g id="a2_0028"  >
<polygon points="624,90 628,85 624,80 624,90 " style="fill:#2a15d8; stroke-width:1; stroke:black; " description="&lt;b&gt;PMI25_RS25180&lt;/b&gt;&lt;br&gt;MbtH family protein&lt;br&gt;Location: 25710 - 25486&lt;br&gt;&lt;br&gt;&lt;b&gt;BlastP hit with ctg1_976&lt;/b&gt;&lt;br&gt;Percentage identity: 96&lt;br&gt;Percentage coverage: 96&lt;br&gt;BLAST bit score: 148&lt;br&gt;E-value: 3.1e-34" locus_tag="PMI25_RS25180" class="clusterblast-orf" id="dummy-2_h2_7_28"  />
</g>
<g id="a2_0029"  >
<polygon points="630,85 635,80 644,80 644,90 635,90 630,85 " style="fill:#d81572; stroke-width:1; stroke:black; " description="&lt;b&gt;PMI25_RS25175&lt;/b&gt;&lt;br&gt;metal ABC transporter substrate-binding protein&lt;br&gt;Location: 25309 - 24404&lt;br&gt;&lt;br&gt;&lt;b&gt;BlastP hit with ctg1_977&lt;/b&gt;&lt;br&gt;Percentage identity: 74&lt;br&gt;Percentage coverage: 100&lt;br&gt;BLAST bit score: 464&lt;br&gt;E-value: 8.5e-129" locus_tag="PMI25_RS25175" class="clusterblast-orf" id="dummy-2_h2_7_29"  />
</g>
<g id="a2_0030"  >
<polygon points="644,85 649,80 658,80 658,90 649,90 644,85 " style="fill:#c4d815; stroke-width:1; stroke:black; " description="&lt;b&gt;PMI25_RS25170&lt;/b&gt;&lt;br&gt;metal ABC transporter permease&lt;br&gt;Location: 24403 - 23504&lt;br&gt;&lt;br&gt;&lt;b&gt;BlastP hit with ctg1_978&lt;/b&gt;&lt;br&gt;Percentage identity: 99&lt;br&gt;Percentage coverage: 100&lt;br&gt;BLAST bit score: 483&lt;br&gt;E-value: 2.1e-134" locus_tag="PMI25_RS25170" class="clusterblast-orf" id="dummy-2_h2_7_30"  />
</g>
<g id="a2_0031"  >
<polygon points="658,85 663,80 670,80 670,90 663,90 658,85 " style="fill:#15d89b; stroke-width:1; stroke:black; " description="&lt;b&gt;PMI25_RS25165&lt;/b&gt;&lt;br&gt;metal ABC transporter ATP-binding protein&lt;br&gt;Location: 23504 - 22659&lt;br&gt;&lt;br&gt;&lt;b&gt;BlastP hit with ctg1_979&lt;/b&gt;&lt;br&gt;Percentage identity: 86&lt;br&gt;Percentage coverage: 100&lt;br&gt;BLAST bit score: 475&lt;br&gt;E-value: 4.3e-132" locus_tag="PMI25_RS25165" class="clusterblast-orf" id="dummy-2_h2_7_31"  />
</g>
<g id="a2_0032"  >
<polygon points="673,85 678,80 687,80 687,90 678,90 673,85 " style="fill:#4915d8; stroke-width:1; stroke:black; " description="&lt;b&gt;PMI25_RS25160&lt;/b&gt;&lt;br&gt;ABC transporter substrate-binding protein&lt;br&gt;Location: 22479 - 21550&lt;br&gt;&lt;br&gt;&lt;b&gt;BlastP hit with ctg1_980&lt;/b&gt;&lt;br&gt;Percentage identity: 95&lt;br&gt;Percentage coverage: 99&lt;br&gt;BLAST bit score: 566&lt;br&gt;E-value: 2.6e-159" locus_tag="PMI25_RS25160" class="clusterblast-orf" id="dummy-2_h2_7_32"  />
</g>
<g id="a2_0033"  >
<polygon points="687,85 692,80 696,80 696,90 692,90 687,85 " style="fill:#d81553; stroke-width:1; stroke:black; " description="&lt;b&gt;PMI25_RS25155&lt;/b&gt;&lt;br&gt;hypothetical protein&lt;br&gt;Location: 21514 - 20939&lt;br&gt;&lt;br&gt;&lt;b&gt;BlastP hit with ctg1_981&lt;/b&gt;&lt;br&gt;Percentage identity: 79&lt;br&gt;Percentage coverage: 101&lt;br&gt;BLAST bit score: 297&lt;br&gt;E-value: 1.4e-78" locus_tag="PMI25_RS25155" class="clusterblast-orf" id="dummy-2_h2_7_33"  />
</g>
<g id="a2_0034"  >
<polygon points="696,85 701,80 701,80 701,90 701,90 696,85 " style="fill:#a5d815; stroke-width:1; stroke:black; " description="&lt;b&gt;PMI25_RS25150&lt;/b&gt;&lt;br&gt;hypothetical protein&lt;br&gt;Location: 20942 - 20601&lt;br&gt;&lt;br&gt;&lt;b&gt;BlastP hit with ctg1_982&lt;/b&gt;&lt;br&gt;Percentage identity: 93&lt;br&gt;Percentage coverage: 94&lt;br&gt;BLAST bit score: 196&lt;br&gt;E-value: 1.9e-48" locus_tag="PMI25_RS25150" class="clusterblast-orf" id="dummy-2_h2_7_34"  />
</g>
<g id="a2_0035"  >
<polygon points="701,85 706,80 709,80 709,90 706,90 701,85 " style="fill:#15d8b9; stroke-width:1; stroke:black; " description="&lt;b&gt;PMI25_RS25145&lt;/b&gt;&lt;br&gt;hypothetical protein&lt;br&gt;Location: 20604 - 20062&lt;br&gt;&lt;br&gt;&lt;b&gt;BlastP hit with ctg1_983&lt;/b&gt;&lt;br&gt;Percentage identity: 83&lt;br&gt;Percentage coverage: 96&lt;br&gt;BLAST bit score: 307&lt;br&gt;E-value: 1.3e-81" locus_tag="PMI25_RS25145" class="clusterblast-orf" id="dummy-2_h2_7_35"  />
</g>
<g id="a2_0036"  >
<polygon points="709,85 714,80 727,80 727,90 714,90 709,85 " style="fill:#6715d8; stroke-width:1; stroke:black; " description="&lt;b&gt;PMI25_RS25140&lt;/b&gt;&lt;br&gt;PepSY domain-containing protein&lt;br&gt;Location: 20065 - 18875&lt;br&gt;&lt;br&gt;&lt;b&gt;BlastP hit with ctg1_984&lt;/b&gt;&lt;br&gt;Percentage identity: 86&lt;br&gt;Percentage coverage: 100&lt;br&gt;BLAST bit score: 706&lt;br&gt;E-value: 2.1e-201" locus_tag="PMI25_RS25140" class="clusterblast-orf" id="dummy-2_h2_7_36"  />
</g>
<g id="a2_0037"  >
<polygon points="726,85 731,80 732,80 732,90 731,90 726,85 " style="fill:white; stroke-width:1; stroke:black; " description="&lt;b&gt;PMI25_RS28335&lt;/b&gt;&lt;br&gt;hypothetical protein&lt;br&gt;Location: 18918 - 18565" locus_tag="PMI25_RS28335" class="clusterblast-orf" id="dummy-2_h2_7_37"  />
</g>
<g id="a2_0038"  >
<polygon points="733,90 749,90 754,85 749,80 733,80 733,90 " style="fill:#d81534; stroke-width:1; stroke:black; " description="&lt;b&gt;PMI25_RS25135&lt;/b&gt;&lt;br&gt;3-isopropylmalate dehydratase large subunit&lt;br&gt;Location: 18471 - 17053&lt;br&gt;&lt;br&gt;&lt;b&gt;BlastP hit with ctg1_985&lt;/b&gt;&lt;br&gt;Percentage identity: 90&lt;br&gt;Percentage coverage: 100&lt;br&gt;BLAST bit score: 841&lt;br&gt;E-value: 3.8e-242" locus_tag="PMI25_RS25135" class="clusterblast-orf" id="dummy-2_h2_7_38"  />
</g>
<g id="a2_0039"  >
<polygon points="754,90 758,90 763,85 758,80 754,80 754,90 " style="fill:#86d815; stroke-width:1; stroke:black; " description="&lt;b&gt;PMI25_RS25130&lt;/b&gt;&lt;br&gt;3-isopropylmalate dehydratase small subunit&lt;br&gt;Location: 17056 - 16442&lt;br&gt;&lt;br&gt;&lt;b&gt;BlastP hit with ctg1_986&lt;/b&gt;&lt;br&gt;Percentage identity: 83&lt;br&gt;Percentage coverage: 100&lt;br&gt;BLAST bit score: 355&lt;br&gt;E-value: 3.5e-96" locus_tag="PMI25_RS25130" class="clusterblast-orf" id="dummy-2_h2_7_39"  />
</g>
<g id="a2_0040"  >
<polygon points="765,85 770,80 780,80 780,90 770,90 765,85 " style="fill:#15d8d8; stroke-width:1; stroke:black; " description="&lt;b&gt;PMI25_RS25125&lt;/b&gt;&lt;br&gt;LysR family transcriptional regulator&lt;br&gt;Location: 16318 - 15368&lt;br&gt;&lt;br&gt;&lt;b&gt;BlastP hit with ctg1_987&lt;/b&gt;&lt;br&gt;Percentage identity: 88&lt;br&gt;Percentage coverage: 100&lt;br&gt;BLAST bit score: 523&lt;br&gt;E-value: 1.4e-146" locus_tag="PMI25_RS25125" class="clusterblast-orf" id="dummy-2_h2_7_40"  />
</g>
</svg>
