<svg xmlns="http://www.w3.org/2000/svg" xmlns:xlink="http://www.w3.org/1999/xlink" version="1.1" x="0" y="0" height="230" width="800" viewBox="0 0 800 230" preserveAspectRatio="none"  >
<g label="Query sequence" class="clusterblast-cluster"  >
<text x="5" y="20" class="clusterblast-acc"  >
Query sequence</text>
<line x1="10" y1="35" x2="778.0" y2="35" style="stroke-width:1; stroke:grey; "  />
<polygon points="223,35 228,30 231,30 231,40 228,40 223,35 " style="fill:#d81515; stroke-width:1; stroke:black; " description="&lt;b&gt;ctg5_984&lt;/b&gt;&lt;br&gt;ctg5 984&lt;br&gt;Location: 1078282 - 1078780" locus_tag="ctg5_984" class="clusterblast-orf" id="dummy-1_q0_0_all"  />
<polygon points="234,40 248,40 253,35 248,30 234,30 234,40 " style="fill:#4dd815; stroke-width:1; stroke:black; " description="&lt;b&gt;ctg5_985&lt;/b&gt;&lt;br&gt;ctg5 985&lt;br&gt;Location: 1078976 - 1080182" locus_tag="ctg5_985" class="clusterblast-orf" id="dummy-1_q1_0_all"  />
<polygon points="255,40 270,40 275,35 270,30 255,30 255,40 " style="fill:#15bcd8; stroke-width:1; stroke:black; " description="&lt;b&gt;ctg5_986&lt;/b&gt;&lt;br&gt;ctg5 986&lt;br&gt;Location: 1080254 - 1081529" locus_tag="ctg5_986" class="clusterblast-orf" id="dummy-1_q2_0_all"  />
<polygon points="275,40 284,40 289,35 284,30 275,30 275,40 " style="fill:#8515d8; stroke-width:1; stroke:black; " description="&lt;b&gt;ctg5_987&lt;/b&gt;&lt;br&gt;ctg5 987&lt;br&gt;Location: 1081540 - 1082422" locus_tag="ctg5_987" class="clusterblast-orf" id="dummy-1_q3_0_all"  />
<polygon points="290,40 301,40 306,35 301,30 290,30 290,40 " style="fill:#d84d15; stroke-width:1; stroke:black; " description="&lt;b&gt;ctg5_988&lt;/b&gt;&lt;br&gt;ctg5 988&lt;br&gt;Location: 1082438 - 1083488" locus_tag="ctg5_988" class="clusterblast-orf" id="dummy-1_q4_0_all"  />
<polygon points="307,40 314,40 319,35 314,30 307,30 307,40 " style="fill:#15d815; stroke-width:1; stroke:black; " description="&lt;b&gt;ctg5_989&lt;/b&gt;&lt;br&gt;ctg5 989&lt;br&gt;Location: 1083556 - 1084267" locus_tag="ctg5_989" class="clusterblast-orf" id="dummy-1_q5_0_all"  />
<polygon points="321,40 325,40 330,35 325,30 321,30 321,40 " style="fill:#1585d8; stroke-width:1; stroke:black; " description="&lt;b&gt;ctg5_990&lt;/b&gt;&lt;br&gt;ctg5 990&lt;br&gt;Location: 1084405 - 1084939" locus_tag="ctg5_990" class="clusterblast-orf" id="dummy-1_q6_0_all"  />
<polygon points="336,35 341,30 366,30 366,40 341,40 336,35 " style="fill:#bc15d8; stroke-width:1; stroke:black; " description="&lt;b&gt;ctg5_991&lt;/b&gt;&lt;br&gt;ctg5 991&lt;br&gt;Location: 1085357 - 1087193" locus_tag="ctg5_991" class="clusterblast-orf" id="dummy-1_q7_0_all"  />
<polygon points="366,35 371,30 378,30 378,40 371,40 366,35 " style="fill:#d88515; stroke-width:1; stroke:black; " description="&lt;b&gt;ctg5_992&lt;/b&gt;&lt;br&gt;ctg5 992&lt;br&gt;Location: 1087194 - 1087971" locus_tag="ctg5_992" class="clusterblast-orf" id="dummy-1_q8_0_all"  />
<polygon points="382,40 395,40 400,35 395,30 382,30 382,40 " style="fill:#15d84d; stroke-width:1; stroke:black; " description="&lt;b&gt;ctg5_993&lt;/b&gt;&lt;br&gt;ctg5 993&lt;br&gt;Location: 1088234 - 1089362" locus_tag="ctg5_993" class="clusterblast-orf" id="dummy-1_q9_0_all"  />
<polygon points="402,35 407,30 424,30 424,40 407,40 402,35 " style="fill:#154dd8; stroke-width:1; stroke:black; " description="&lt;b&gt;ctg5_994&lt;/b&gt;&lt;br&gt;ctg5 994&lt;br&gt;Location: 1089494 - 1090817" locus_tag="ctg5_994" class="clusterblast-orf" id="dummy-1_q10_0_all"  />
<polygon points="426,35 431,30 433,30 433,40 431,40 426,35 " style="fill:#d815bc; stroke-width:1; stroke:black; " description="&lt;b&gt;ctg5_995&lt;/b&gt;&lt;br&gt;ctg5 995&lt;br&gt;Location: 1090979 - 1091405" locus_tag="ctg5_995" class="clusterblast-orf" id="dummy-1_q11_0_all"  />
<polygon points="434,35 439,30 456,30 456,40 439,40 434,35 " style="fill:#d8bc15; stroke-width:1; stroke:black; " description="&lt;b&gt;ctg5_996&lt;/b&gt;&lt;br&gt;ctg5 996&lt;br&gt;Location: 1091450 - 1092830" locus_tag="ctg5_996" class="clusterblast-orf" id="dummy-1_q12_0_all"  />
<polygon points="456,35 461,30 470,30 470,40 461,40 456,35 " style="fill:#15d885; stroke-width:1; stroke:black; " description="&lt;b&gt;ctg5_997&lt;/b&gt;&lt;br&gt;ctg5 997&lt;br&gt;Location: 1092857 - 1093718" locus_tag="ctg5_997" class="clusterblast-orf" id="dummy-1_q13_0_all"  />
<polygon points="471,35 476,30 495,30 495,40 476,40 471,35 " style="fill:#1515d8; stroke-width:1; stroke:black; " description="&lt;b&gt;ctg5_998&lt;/b&gt;&lt;br&gt;ctg5 998&lt;br&gt;Location: 1093768 - 1095313" locus_tag="ctg5_998" class="clusterblast-orf" id="dummy-1_q14_0_all"  />
<polygon points="496,35 501,30 504,30 504,40 501,40 496,35 " style="fill:#d81585; stroke-width:1; stroke:black; " description="&lt;b&gt;ctg5_999&lt;/b&gt;&lt;br&gt;ctg5 999&lt;br&gt;Location: 1095334 - 1095871" locus_tag="ctg5_999" class="clusterblast-orf" id="dummy-1_q15_0_all"  />
<polygon points="505,35 510,30 512,30 512,40 510,40 505,35 " style="fill:#bcd815; stroke-width:1; stroke:black; " description="&lt;b&gt;ctg5_1000&lt;/b&gt;&lt;br&gt;ctg5 1000&lt;br&gt;Location: 1095883 - 1096354" locus_tag="ctg5_1000" class="clusterblast-orf" id="dummy-1_q16_0_all"  />
<polygon points="513,35 517,30 517,40 513,35 " style="fill:#15d8bc; stroke-width:1; stroke:black; " description="&lt;b&gt;ctg5_1001&lt;/b&gt;&lt;br&gt;ctg5 1001&lt;br&gt;Location: 1096410 - 1096668" locus_tag="ctg5_1001" class="clusterblast-orf" id="dummy-1_q17_0_all"  />
<polygon points="519,35 524,30 533,30 533,40 524,40 519,35 " style="fill:#4d15d8; stroke-width:1; stroke:black; " description="&lt;b&gt;ctg5_1002&lt;/b&gt;&lt;br&gt;ctg5 1002&lt;br&gt;Location: 1096802 - 1097672" locus_tag="ctg5_1002" class="clusterblast-orf" id="dummy-1_q18_0_all"  />
<polygon points="533,35 538,30 540,30 540,40 538,40 533,35 " style="fill:#d8154d; stroke-width:1; stroke:black; " description="&lt;b&gt;ctg5_1003&lt;/b&gt;&lt;br&gt;ctg5 1003&lt;br&gt;Location: 1097688 - 1098096" locus_tag="ctg5_1003" class="clusterblast-orf" id="dummy-1_q19_0_all"  />
<polygon points="542,35 547,30 556,30 556,40 547,40 542,35 " style="fill:#85d815; stroke-width:1; stroke:black; " description="&lt;b&gt;ctg5_1004&lt;/b&gt;&lt;br&gt;ctg5 1004&lt;br&gt;Location: 1098244 - 1099117" locus_tag="ctg5_1004" class="clusterblast-orf" id="dummy-1_q20_0_all"  />
</g>
<g label="NZ_JSYZ01000014" description="NZ_JSYZ01000014_c4: Pseudomonas fuscovaginae strain IRRI 6609 Pf IRRI 6609 co... (35% of genes show similarity), nrps" class="clusterblast-cluster"  >
<text x="5" y="70" class="clusterblast-acc"  >
<a xlink:href="https://antismash-db.secondarymetabolites.org/go/NZ_JSYZ01000014/4" target="_blank">NZ_JSYZ01000014_c4</a>: Pseudomonas fuscovaginae strain IRRI 6609 Pf IRRI 6609 co... (35% of genes show similarity), nrps</text>
<line x1="10" y1="85" x2="778.0" y2="85" style="stroke-width:1; stroke:grey; "  />
</g>
<g id="a1_000"  >
<polygon points="0,90 0,90 5,85 0,80 0,80 0,90 " style="fill:white; stroke-width:1; stroke:black; " description="&lt;b&gt;PF66_RS32140&lt;/b&gt;&lt;br&gt;hypothetical protein&lt;br&gt;Location: 176066 - 175728" locus_tag="PF66_RS32140" class="clusterblast-orf" id="dummy-1_h1_7_0"  />
</g>
<g id="a1_001"  >
<polygon points="9,90 13,90 18,85 13,80 9,80 9,90 " style="fill:white; stroke-width:1; stroke:black; " description="&lt;b&gt;PF66_RS17990&lt;/b&gt;&lt;br&gt;CDP-alcohol phosphatidyltransferase family protein&lt;br&gt;Location: 175501 - 174887" locus_tag="PF66_RS17990" class="clusterblast-orf" id="dummy-1_h1_7_1"  />
</g>
<g id="a1_002"  >
<polygon points="20,90 43,90 48,85 43,80 20,80 20,90 " style="fill:white; stroke-width:1; stroke:black; " description="&lt;b&gt;PF66_RS17985&lt;/b&gt;&lt;br&gt;hypothetical protein&lt;br&gt;Location: 174788 - 173031" locus_tag="PF66_RS17985" class="clusterblast-orf" id="dummy-1_h1_7_2"  />
</g>
<g id="a1_003"  >
<polygon points="48,90 65,90 70,85 65,80 48,80 48,90 " style="fill:white; stroke-width:1; stroke:black; " description="&lt;b&gt;PF66_RS17980&lt;/b&gt;&lt;br&gt;serine/threonine protein phosphatase&lt;br&gt;Location: 173034 - 171673" locus_tag="PF66_RS17980" class="clusterblast-orf" id="dummy-1_h1_7_3"  />
</g>
<g id="a1_004"  >
<polygon points="70,90 72,90 77,85 72,80 70,80 70,90 " style="fill:white; stroke-width:1; stroke:black; " description="&lt;b&gt;PF66_RS17975&lt;/b&gt;&lt;br&gt;hypothetical protein&lt;br&gt;Location: 171683 - 171228" locus_tag="PF66_RS17975" class="clusterblast-orf" id="dummy-1_h1_7_4"  />
</g>
<g id="a1_005"  >
<polygon points="77,90 82,90 87,85 82,80 77,80 77,90 " style="fill:white; stroke-width:1; stroke:black; " description="&lt;b&gt;PF66_RS17970&lt;/b&gt;&lt;br&gt;1-acyl-sn-glycerol-3-phosphate acyltransferase&lt;br&gt;Location: 171218 - 170598" locus_tag="PF66_RS17970" class="clusterblast-orf" id="dummy-1_h1_7_5"  />
</g>
<g id="a1_006"  >
<polygon points="87,90 97,90 102,85 97,80 87,80 87,90 " style="fill:white; stroke-width:1; stroke:black; " description="&lt;b&gt;PF66_RS17965&lt;/b&gt;&lt;br&gt;phosphatidate cytidylyltransferase&lt;br&gt;Location: 170596 - 169664" locus_tag="PF66_RS17965" class="clusterblast-orf" id="dummy-1_h1_7_6"  />
</g>
<g id="a1_007"  >
<polygon points="105,90 123,90 128,85 123,80 105,80 105,90 " style="fill:white; stroke-width:1; stroke:black; " description="&lt;b&gt;PF66_RS17960&lt;/b&gt;&lt;br&gt;dihydrolipoyl dehydrogenase&lt;br&gt;Location: 169443 - 168043" locus_tag="PF66_RS17960" class="clusterblast-orf" id="dummy-1_h1_7_7"  />
</g>
<g id="a1_008"  >
<polygon points="129,85 134,80 136,80 136,90 134,90 129,85 " style="fill:white; stroke-width:1; stroke:black; " description="&lt;b&gt;PF66_RS17955&lt;/b&gt;&lt;br&gt;Lrp/AsnC family transcriptional regulator&lt;br&gt;Location: 167982 - 167509" locus_tag="PF66_RS17955" class="clusterblast-orf" id="dummy-1_h1_7_8"  />
</g>
<g id="a1_009"  >
<polygon points="139,90 144,90 149,85 144,80 139,80 139,90 " style="fill:white; stroke-width:1; stroke:black; " description="&lt;b&gt;PF66_RS17950&lt;/b&gt;&lt;br&gt;LysE family translocator&lt;br&gt;Location: 167361 - 166735" locus_tag="PF66_RS17950" class="clusterblast-orf" id="dummy-1_h1_7_9"  />
</g>
<g id="a1_0010"  >
<polygon points="150,90 169,90 174,85 169,80 150,80 150,90 " style="fill:white; stroke-width:1; stroke:black; " description="&lt;b&gt;PF66_RS17945&lt;/b&gt;&lt;br&gt;glutamate-5-semialdehyde dehydrogenase&lt;br&gt;Location: 166642 - 165140" locus_tag="PF66_RS17945" class="clusterblast-orf" id="dummy-1_h1_7_10"  />
</g>
<g id="a1_0011"  >
<polygon points="175,85 180,80 208,80 208,90 180,90 175,85 " style="fill:white; stroke-width:1; stroke:black; " description="&lt;b&gt;PF66_RS17940&lt;/b&gt;&lt;br&gt;FAD-binding oxidoreductase&lt;br&gt;Location: 165067 - 163022" locus_tag="PF66_RS17940" class="clusterblast-orf" id="dummy-1_h1_7_11"  />
</g>
<g id="a1_0012"  >
<polygon points="208,85 213,80 219,80 219,90 213,90 208,85 " style="fill:white; stroke-width:1; stroke:black; " description="&lt;b&gt;PF66_RS17935&lt;/b&gt;&lt;br&gt;glutathione S-transferase&lt;br&gt;Location: 163000 - 162371" locus_tag="PF66_RS17935" class="clusterblast-orf" id="dummy-1_h1_7_12"  />
</g>
<g id="a1_0013"  >
<polygon points="221,85 226,80 235,80 235,90 226,90 221,85 " style="fill:white; stroke-width:1; stroke:black; " description="&lt;b&gt;PF66_RS17930&lt;/b&gt;&lt;br&gt;LysR family transcriptional regulator&lt;br&gt;Location: 162225 - 161341" locus_tag="PF66_RS17930" class="clusterblast-orf" id="dummy-1_h1_7_13"  />
</g>
<g id="a1_0014"  >
<polygon points="237,85 242,80 250,80 250,90 242,90 237,85 " style="fill:white; stroke-width:1; stroke:black; " description="&lt;b&gt;PF66_RS17925&lt;/b&gt;&lt;br&gt;2-succinyl-6-hydroxy-2, 4-cyclohexadiene-1-carboxylate synthase&lt;br&gt;Location: 161246 - 160431" locus_tag="PF66_RS17925" class="clusterblast-orf" id="dummy-1_h1_7_14"  />
</g>
<g id="a1_0015"  >
<polygon points="255,90 269,90 274,85 269,80 255,80 255,90 " style="fill:white; stroke-width:1; stroke:black; " description="&lt;b&gt;PF66_RS17920&lt;/b&gt;&lt;br&gt;putative sugar O-methyltransferase&lt;br&gt;Location: 160059 - 158923" locus_tag="PF66_RS17920" class="clusterblast-orf" id="dummy-1_h1_7_15"  />
</g>
<g id="a1_0016"  >
<polygon points="275,85 280,80 282,80 282,90 280,90 275,85 " style="fill:white; stroke-width:1; stroke:black; " description="&lt;b&gt;PF66_RS17915&lt;/b&gt;&lt;br&gt;DUF3077 domain-containing protein&lt;br&gt;Location: 158809 - 158405" locus_tag="PF66_RS17915" class="clusterblast-orf" id="dummy-1_h1_7_16"  />
</g>
<g id="a1_0017"  >
<polygon points="289,90 290,90 295,85 290,80 289,80 289,90 " style="fill:white; stroke-width:1; stroke:black; " description="&lt;b&gt;PF66_RS17910&lt;/b&gt;&lt;br&gt;hypothetical protein&lt;br&gt;Location: 157971 - 157558" locus_tag="PF66_RS17910" class="clusterblast-orf" id="dummy-1_h1_7_17"  />
</g>
<g id="a1_0018"  >
<polygon points="300,90 467,90 472,85 467,80 300,80 300,90 " style="fill:white; stroke-width:1; stroke:black; " description="&lt;b&gt;PF66_RS17905&lt;/b&gt;&lt;br&gt;non-ribosomal peptide synthetase&lt;br&gt;Location: 157264 - 146546" locus_tag="PF66_RS17905" class="clusterblast-orf" id="dummy-1_h1_7_18"  />
</g>
<g id="a1_0019"  >
<polygon points="472,90 485,90 490,85 485,80 472,80 472,90 " style="fill:white; stroke-width:1; stroke:black; " description="&lt;b&gt;PF66_RS17900&lt;/b&gt;&lt;br&gt;2-polyprenyl-6-methoxyphenol hydroxylase&lt;br&gt;Location: 146549 - 145389" locus_tag="PF66_RS17900" class="clusterblast-orf" id="dummy-1_h1_7_19"  />
</g>
<g id="a1_0020"  >
<polygon points="493,85 498,80 522,80 522,90 498,90 493,85 " style="fill:#bc15d8; stroke-width:1; stroke:black; " description="&lt;b&gt;PF66_RS17895&lt;/b&gt;&lt;br&gt;glutamine--fructose-6-phosphate transaminase (isomerizing)&lt;br&gt;Location: 145228 - 143393&lt;br&gt;&lt;br&gt;&lt;b&gt;BlastP hit with ctg5_991&lt;/b&gt;&lt;br&gt;Percentage identity: 91&lt;br&gt;Percentage coverage: 100&lt;br&gt;BLAST bit score: 1084&lt;br&gt;E-value: 0.0" locus_tag="PF66_RS17895" class="clusterblast-orf" id="dummy-1_h1_7_20"  />
</g>
<g id="a1_0021"  >
<polygon points="522,85 527,80 534,80 534,90 527,90 522,85 " style="fill:#d88515; stroke-width:1; stroke:black; " description="&lt;b&gt;PF66_RS17890&lt;/b&gt;&lt;br&gt;XRE family transcriptional regulator&lt;br&gt;Location: 143381 - 142614&lt;br&gt;&lt;br&gt;&lt;b&gt;BlastP hit with ctg5_992&lt;/b&gt;&lt;br&gt;Percentage identity: 91&lt;br&gt;Percentage coverage: 99&lt;br&gt;BLAST bit score: 450&lt;br&gt;E-value: 1e-124" locus_tag="PF66_RS17890" class="clusterblast-orf" id="dummy-1_h1_7_21"  />
</g>
<g id="a1_0022"  >
<polygon points="540,85 545,80 562,80 562,90 545,90 540,85 " style="fill:#154dd8; stroke-width:1; stroke:black; " description="&lt;b&gt;PF66_RS17885&lt;/b&gt;&lt;br&gt;UDP-N-acetylglucosamine diphosphorylase/glucosamine-1-phosphate N-acetyltransferase&lt;br&gt;Location: 142288 - 140921&lt;br&gt;&lt;br&gt;&lt;b&gt;BlastP hit with ctg5_994&lt;/b&gt;&lt;br&gt;Percentage identity: 83&lt;br&gt;Percentage coverage: 100&lt;br&gt;BLAST bit score: 623&lt;br&gt;E-value: 2.6e-176" locus_tag="PF66_RS17885" class="clusterblast-orf" id="dummy-1_h1_7_22"  />
</g>
<g id="a1_0023"  >
<polygon points="563,85 568,80 570,80 570,90 568,90 563,85 " style="fill:#d815bc; stroke-width:1; stroke:black; " description="&lt;b&gt;PF66_RS17880&lt;/b&gt;&lt;br&gt;F0F1 ATP synthase subunit epsilon&lt;br&gt;Location: 140807 - 140382&lt;br&gt;&lt;br&gt;&lt;b&gt;BlastP hit with ctg5_995&lt;/b&gt;&lt;br&gt;Percentage identity: 96&lt;br&gt;Percentage coverage: 100&lt;br&gt;BLAST bit score: 260&lt;br&gt;E-value: 1.1e-67" locus_tag="PF66_RS17880" class="clusterblast-orf" id="dummy-1_h1_7_23"  />
</g>
<g id="a1_0024"  >
<polygon points="571,85 576,80 593,80 593,90 576,90 571,85 " style="fill:#d8bc15; stroke-width:1; stroke:black; " description="&lt;b&gt;PF66_RS17875&lt;/b&gt;&lt;br&gt;F0F1 ATP synthase subunit beta&lt;br&gt;Location: 140336 - 138960&lt;br&gt;&lt;br&gt;&lt;b&gt;BlastP hit with ctg5_996&lt;/b&gt;&lt;br&gt;Percentage identity: 96&lt;br&gt;Percentage coverage: 100&lt;br&gt;BLAST bit score: 864&lt;br&gt;E-value: 4e-249" locus_tag="PF66_RS17875" class="clusterblast-orf" id="dummy-1_h1_7_24"  />
</g>
<g id="a1_0025"  >
<polygon points="593,85 598,80 607,80 607,90 598,90 593,85 " style="fill:#15d885; stroke-width:1; stroke:black; " description="&lt;b&gt;PF66_RS17870&lt;/b&gt;&lt;br&gt;ATP synthase subunit gamma&lt;br&gt;Location: 138932 - 138072&lt;br&gt;&lt;br&gt;&lt;b&gt;BlastP hit with ctg5_997&lt;/b&gt;&lt;br&gt;Percentage identity: 99&lt;br&gt;Percentage coverage: 100&lt;br&gt;BLAST bit score: 541&lt;br&gt;E-value: 6.4e-152" locus_tag="PF66_RS17870" class="clusterblast-orf" id="dummy-1_h1_7_25"  />
</g>
<g id="a1_0026"  >
<polygon points="608,85 613,80 633,80 633,90 613,90 608,85 " style="fill:#1515d8; stroke-width:1; stroke:black; " description="&lt;b&gt;PF66_RS17865&lt;/b&gt;&lt;br&gt;F0F1 ATP synthase subunit alpha&lt;br&gt;Location: 138021 - 136477&lt;br&gt;&lt;br&gt;&lt;b&gt;BlastP hit with ctg5_998&lt;/b&gt;&lt;br&gt;Percentage identity: 97&lt;br&gt;Percentage coverage: 100&lt;br&gt;BLAST bit score: 970&lt;br&gt;E-value: 5.8e-281" locus_tag="PF66_RS17865" class="clusterblast-orf" id="dummy-1_h1_7_26"  />
</g>
<g id="a1_0027"  >
<polygon points="633,85 638,80 642,80 642,90 638,90 633,85 " style="fill:#d81585; stroke-width:1; stroke:black; " description="&lt;b&gt;PF66_RS17860&lt;/b&gt;&lt;br&gt;F0F1 ATP synthase subunit delta&lt;br&gt;Location: 136455 - 135919&lt;br&gt;&lt;br&gt;&lt;b&gt;BlastP hit with ctg5_999&lt;/b&gt;&lt;br&gt;Percentage identity: 93&lt;br&gt;Percentage coverage: 100&lt;br&gt;BLAST bit score: 309&lt;br&gt;E-value: 1.9e-82" locus_tag="PF66_RS17860" class="clusterblast-orf" id="dummy-1_h1_7_27"  />
</g>
<g id="a1_0028"  >
<polygon points="642,85 647,80 649,80 649,90 647,90 642,85 " style="fill:#bcd815; stroke-width:1; stroke:black; " description="&lt;b&gt;PF66_RS17855&lt;/b&gt;&lt;br&gt;F0F1 ATP synthase subunit B&lt;br&gt;Location: 135906 - 135436&lt;br&gt;&lt;br&gt;&lt;b&gt;BlastP hit with ctg5_1000&lt;/b&gt;&lt;br&gt;Percentage identity: 84&lt;br&gt;Percentage coverage: 100&lt;br&gt;BLAST bit score: 134&lt;br&gt;E-value: 9.8e-30" locus_tag="PF66_RS17855" class="clusterblast-orf" id="dummy-1_h1_7_28"  />
</g>
<g id="a1_0029"  >
<polygon points="650,85 654,80 654,90 650,85 " style="fill:#15d8bc; stroke-width:1; stroke:black; " description="&lt;b&gt;PF66_RS32135&lt;/b&gt;&lt;br&gt;ATP synthase subunit C&lt;br&gt;Location: 135383 - 135126&lt;br&gt;&lt;br&gt;&lt;b&gt;BlastP hit with ctg5_1001&lt;/b&gt;&lt;br&gt;Percentage identity: 100&lt;br&gt;Percentage coverage: 100&lt;br&gt;BLAST bit score: 155&lt;br&gt;E-value: 3.8e-36" locus_tag="PF66_RS32135" class="clusterblast-orf" id="dummy-1_h1_7_29"  />
</g>
<g id="a1_0030"  >
<polygon points="657,85 662,80 671,80 671,90 662,90 657,85 " style="fill:#4d15d8; stroke-width:1; stroke:black; " description="&lt;b&gt;PF66_RS17845&lt;/b&gt;&lt;br&gt;F0F1 ATP synthase subunit A&lt;br&gt;Location: 134977 - 134108&lt;br&gt;&lt;br&gt;&lt;b&gt;BlastP hit with ctg5_1002&lt;/b&gt;&lt;br&gt;Percentage identity: 91&lt;br&gt;Percentage coverage: 100&lt;br&gt;BLAST bit score: 521&lt;br&gt;E-value: 6.9e-146" locus_tag="PF66_RS17845" class="clusterblast-orf" id="dummy-1_h1_7_30"  />
</g>
<g id="a1_0031"  >
<polygon points="671,85 676,80 677,80 677,90 676,90 671,85 " style="fill:#d8154d; stroke-width:1; stroke:black; " description="&lt;b&gt;PF66_RS17840&lt;/b&gt;&lt;br&gt;ATP synthase F0F1 subunit I&lt;br&gt;Location: 134091 - 133684&lt;br&gt;&lt;br&gt;&lt;b&gt;BlastP hit with ctg5_1003&lt;/b&gt;&lt;br&gt;Percentage identity: 91&lt;br&gt;Percentage coverage: 100&lt;br&gt;BLAST bit score: 239&lt;br&gt;E-value: 1.9e-61" locus_tag="PF66_RS17840" class="clusterblast-orf" id="dummy-1_h1_7_31"  />
</g>
<g id="a1_0032"  >
<polygon points="680,85 685,80 694,80 694,90 685,90 680,85 " style="fill:#85d815; stroke-width:1; stroke:black; " description="&lt;b&gt;PF66_RS17835&lt;/b&gt;&lt;br&gt;chromosome partitioning protein ParB&lt;br&gt;Location: 133535 - 132663&lt;br&gt;&lt;br&gt;&lt;b&gt;BlastP hit with ctg5_1004&lt;/b&gt;&lt;br&gt;Percentage identity: 94&lt;br&gt;Percentage coverage: 100&lt;br&gt;BLAST bit score: 520&lt;br&gt;E-value: 1.5e-145" locus_tag="PF66_RS17835" class="clusterblast-orf" id="dummy-1_h1_7_32"  />
</g>
<g id="a1_0033"  >
<polygon points="694,85 699,80 706,80 706,90 699,90 694,85 " style="fill:white; stroke-width:1; stroke:black; " description="&lt;b&gt;PF66_RS17830&lt;/b&gt;&lt;br&gt;ParA family protein&lt;br&gt;Location: 132653 - 131859" locus_tag="PF66_RS17830" class="clusterblast-orf" id="dummy-1_h1_7_33"  />
</g>
<g id="a1_0034"  >
<polygon points="707,85 712,80 717,80 717,90 712,90 707,85 " style="fill:white; stroke-width:1; stroke:black; " description="&lt;b&gt;PF66_RS17825&lt;/b&gt;&lt;br&gt;16S rRNA (guanine(527)-N(7))-methyltransferase RsmG&lt;br&gt;Location: 131840 - 131196" locus_tag="PF66_RS17825" class="clusterblast-orf" id="dummy-1_h1_7_34"  />
</g>
<g id="a1_0035"  >
<polygon points="717,85 722,80 747,80 747,90 722,90 717,85 " style="fill:white; stroke-width:1; stroke:black; " description="&lt;b&gt;PF66_RS17820&lt;/b&gt;&lt;br&gt;tRNA uridine-5-carboxymethylaminomethyl(34) synthesis enzyme MnmG&lt;br&gt;Location: 131199 - 129307" locus_tag="PF66_RS17820" class="clusterblast-orf" id="dummy-1_h1_7_35"  />
</g>
<g id="a1_0036"  >
<polygon points="758,85 763,80 779,80 779,90 763,90 758,85 " style="fill:white; stroke-width:1; stroke:black; " description="&lt;b&gt;PF66_RS17815&lt;/b&gt;&lt;br&gt;tRNA uridine-5-carboxymethylaminomethyl(34) synthesis GTPase MnmE&lt;br&gt;Location: 128664 - 127294" locus_tag="PF66_RS17815" class="clusterblast-orf" id="dummy-1_h1_7_36"  />
</g>
</svg>
