<svg xmlns="http://www.w3.org/2000/svg" xmlns:xlink="http://www.w3.org/1999/xlink" version="1.1" x="0" y="0" height="230" width="800" viewBox="0 0 800 230" preserveAspectRatio="none"  >
<g label="Query sequence" class="clusterblast-cluster"  >
<text x="5" y="20" class="clusterblast-acc"  >
Query sequence</text>
<line x1="10" y1="35" x2="778.0" y2="35" style="stroke-width:1; stroke:grey; "  />
<polygon points="285,40 289,35 285,30 285,40 " style="fill:white; stroke-width:1; stroke:black; " description="&lt;b&gt;ctg3_16&lt;/b&gt;&lt;br&gt;ctg3 16&lt;br&gt;Location: 14210 - 14657" locus_tag="ctg3_16" class="clusterblast-orf" id="dummy-1_q0_0_all"  />
<polygon points="290,35 295,30 300,30 300,40 295,40 290,35 " style="fill:white; stroke-width:1; stroke:black; " description="&lt;b&gt;ctg3_17&lt;/b&gt;&lt;br&gt;ctg3 17&lt;br&gt;Location: 14694 - 15846" locus_tag="ctg3_17" class="clusterblast-orf" id="dummy-1_q1_0_all"  />
<polygon points="305,35 308,30 308,40 305,35 " style="fill:white; stroke-width:1; stroke:black; " description="&lt;b&gt;ctg3_18&lt;/b&gt;&lt;br&gt;ctg3 18&lt;br&gt;Location: 16328 - 16670" locus_tag="ctg3_18" class="clusterblast-orf" id="dummy-1_q2_0_all"  />
<polygon points="309,40 310,40 315,35 310,30 309,30 309,40 " style="fill:white; stroke-width:1; stroke:black; " description="&lt;b&gt;ctg3_19&lt;/b&gt;&lt;br&gt;ctg3 19&lt;br&gt;Location: 16800 - 17451" locus_tag="ctg3_19" class="clusterblast-orf" id="dummy-1_q3_0_all"  />
<polygon points="315,35 320,30 333,30 333,40 320,40 315,35 " style="fill:#d81515; stroke-width:1; stroke:black; " description="&lt;b&gt;ctg3_20&lt;/b&gt;&lt;br&gt;ctg3 20&lt;br&gt;Location: 17490 - 19440" locus_tag="ctg3_20" class="clusterblast-orf" id="dummy-1_q4_0_all"  />
<polygon points="333,35 338,30 341,30 341,40 338,40 333,35 " style="fill:#77d815; stroke-width:1; stroke:black; " description="&lt;b&gt;ctg3_21&lt;/b&gt;&lt;br&gt;ctg3 21&lt;br&gt;Location: 19439 - 20252" locus_tag="ctg3_21" class="clusterblast-orf" id="dummy-1_q5_0_all"  />
<polygon points="342,35 347,30 357,30 357,40 347,40 342,35 " style="fill:#15d8d8; stroke-width:1; stroke:black; " description="&lt;b&gt;ctg3_22&lt;/b&gt;&lt;br&gt;ctg3 22&lt;br&gt;Location: 20357 - 21965" locus_tag="ctg3_22" class="clusterblast-orf" id="dummy-1_q6_0_all"  />
<polygon points="357,35 362,30 367,30 367,40 362,40 357,35 " style="fill:#7715d8; stroke-width:1; stroke:black; " description="&lt;b&gt;ctg3_23&lt;/b&gt;&lt;br&gt;ctg3 23&lt;br&gt;Location: 21977 - 23141" locus_tag="ctg3_23" class="clusterblast-orf" id="dummy-1_q7_0_all"  />
<polygon points="370,40 381,40 386,35 381,30 370,30 370,40 " style="fill:#d8a715; stroke-width:1; stroke:black; " description="&lt;b&gt;ctg3_24&lt;/b&gt;&lt;br&gt;ctg3 24&lt;br&gt;Location: 23480 - 25178" locus_tag="ctg3_24" class="clusterblast-orf" id="dummy-1_q8_0_all"  />
<polygon points="387,35 392,30 394,30 394,40 392,40 387,35 " style="fill:white; stroke-width:1; stroke:black; " description="&lt;b&gt;ctg3_25&lt;/b&gt;&lt;br&gt;ctg3 25&lt;br&gt;Location: 25316 - 26069" locus_tag="ctg3_25" class="clusterblast-orf" id="dummy-1_q9_0_all"  />
<polygon points="395,35 400,30 404,30 404,40 400,40 395,35 " style="fill:#15d846; stroke-width:1; stroke:black; " description="&lt;b&gt;ctg3_26&lt;/b&gt;&lt;br&gt;ctg3 26&lt;br&gt;Location: 26190 - 27093" locus_tag="ctg3_26" class="clusterblast-orf" id="dummy-1_q10_0_all"  />
<polygon points="409,35 414,30 418,30 418,40 414,40 409,35 " style="fill:#1546d8; stroke-width:1; stroke:black; " description="&lt;b&gt;ctg3_27&lt;/b&gt;&lt;br&gt;ctg3 27&lt;br&gt;Location: 27727 - 28627" locus_tag="ctg3_27" class="clusterblast-orf" id="dummy-1_q11_0_all"  />
<polygon points="419,35 423,30 423,40 419,35 " style="fill:#d815a7; stroke-width:1; stroke:black; " description="&lt;b&gt;ctg3_28&lt;/b&gt;&lt;br&gt;ctg3 28&lt;br&gt;Location: 28763 - 29165" locus_tag="ctg3_28" class="clusterblast-orf" id="dummy-1_q12_0_all"  />
<polygon points="424,35 429,30 433,30 433,40 429,40 424,35 " style="fill:white; stroke-width:1; stroke:black; " description="&lt;b&gt;ctg3_29&lt;/b&gt;&lt;br&gt;ctg3 29&lt;br&gt;Location: 29378 - 30308" locus_tag="ctg3_29" class="clusterblast-orf" id="dummy-1_q13_0_all"  />
<polygon points="434,40 441,40 446,35 441,30 434,30 434,40 " style="fill:#7715d8; stroke-width:1; stroke:black; " description="&lt;b&gt;ctg3_30&lt;/b&gt;&lt;br&gt;ctg3 30&lt;br&gt;Location: 30462 - 31692" locus_tag="ctg3_30" class="clusterblast-orf" id="dummy-1_q14_0_all"  />
<polygon points="447,35 452,30 459,30 459,40 452,40 447,35 " style="fill:white; stroke-width:1; stroke:black; " description="&lt;b&gt;ctg3_31&lt;/b&gt;&lt;br&gt;ctg3 31&lt;br&gt;Location: 31846 - 33187" locus_tag="ctg3_31" class="clusterblast-orf" id="dummy-1_q15_0_all"  />
<polygon points="461,35 466,30 469,30 469,40 466,40 461,35 " style="fill:white; stroke-width:1; stroke:black; " description="&lt;b&gt;ctg3_32&lt;/b&gt;&lt;br&gt;ctg3 32&lt;br&gt;Location: 33379 - 34192" locus_tag="ctg3_32" class="clusterblast-orf" id="dummy-1_q16_0_all"  />
<polygon points="471,40 472,40 477,35 472,30 471,30 471,40 " style="fill:white; stroke-width:1; stroke:black; " description="&lt;b&gt;ctg3_33&lt;/b&gt;&lt;br&gt;ctg3 33&lt;br&gt;Location: 34490 - 35141" locus_tag="ctg3_33" class="clusterblast-orf" id="dummy-1_q17_0_all"  />
<polygon points="478,40 489,40 494,35 489,30 478,30 478,40 " style="fill:white; stroke-width:1; stroke:black; " description="&lt;b&gt;ctg3_34&lt;/b&gt;&lt;br&gt;ctg3 34&lt;br&gt;Location: 35242 - 36934" locus_tag="ctg3_34" class="clusterblast-orf" id="dummy-1_q18_0_all"  />
</g>
<g label="NZ_CP023168" description="NZ_CP023168_c5: Bacillus paralicheniformis strain 14DA11 chromosome, complete... (10% of genes show similarity), nrps" class="clusterblast-cluster"  >
<text x="5" y="70" class="clusterblast-acc"  >
<a xlink:href="https://antismash-db.secondarymetabolites.org/go/NZ_CP023168/5" target="_blank">NZ_CP023168_c5</a>: Bacillus paralicheniformis strain 14DA11 chromosome, complete... (10% of genes show similarity), nrps</text>
<line x1="10" y1="85" x2="778.0" y2="85" style="stroke-width:1; stroke:grey; "  />
</g>
<g id="a1_000"  >
<polygon points="0,85 3,80 3,90 0,85 " style="fill:white; stroke-width:1; stroke:black; " description="&lt;b&gt;CK945_RS11240&lt;/b&gt;&lt;br&gt;protein ArsC&lt;br&gt;Location: 2212784 - 2212365" locus_tag="CK945_RS11240" class="clusterblast-orf" id="dummy-1_h1_10_0"  />
</g>
<g id="a1_001"  >
<polygon points="4,85 9,80 15,80 15,90 9,90 4,85 " style="fill:white; stroke-width:1; stroke:black; " description="&lt;b&gt;CK945_RS11235&lt;/b&gt;&lt;br&gt;arsenical efflux pump membrane protein ArsB&lt;br&gt;Location: 2212342 - 2211047" locus_tag="CK945_RS11235" class="clusterblast-orf" id="dummy-1_h1_10_1"  />
</g>
<g id="a1_002"  >
<polygon points="17,85 20,80 20,90 17,85 " style="fill:white; stroke-width:1; stroke:black; " description="&lt;b&gt;CK945_RS11230&lt;/b&gt;&lt;br&gt;ArsR family transcriptional regulator&lt;br&gt;Location: 2210924 - 2210577" locus_tag="CK945_RS11230" class="clusterblast-orf" id="dummy-1_h1_10_2"  />
</g>
<g id="a1_003"  >
<polygon points="22,85 27,80 27,80 27,90 27,90 22,85 " style="fill:white; stroke-width:1; stroke:black; " description="&lt;b&gt;CK945_RS11225&lt;/b&gt;&lt;br&gt;hypothetical protein&lt;br&gt;Location: 2210369 - 2209776" locus_tag="CK945_RS11225" class="clusterblast-orf" id="dummy-1_h1_10_3"  />
</g>
<g id="a1_004"  >
<polygon points="28,90 30,90 35,85 30,80 28,80 28,90 " style="fill:white; stroke-width:1; stroke:black; " description="&lt;b&gt;CK945_RS11220&lt;/b&gt;&lt;br&gt;endonuclease/exonuclease/phosphatase&lt;br&gt;Location: 2209652 - 2208927" locus_tag="CK945_RS11220" class="clusterblast-orf" id="dummy-1_h1_10_4"  />
</g>
<g id="a1_005"  >
<polygon points="35,85 40,80 43,80 43,90 40,90 35,85 " style="fill:white; stroke-width:1; stroke:black; " description="&lt;b&gt;CK945_RS11215&lt;/b&gt;&lt;br&gt;glucose transporter GlcU&lt;br&gt;Location: 2208904 - 2208047" locus_tag="CK945_RS11215" class="clusterblast-orf" id="dummy-1_h1_10_5"  />
</g>
<g id="a1_006"  >
<polygon points="44,85 49,80 55,80 55,90 49,90 44,85 " style="fill:white; stroke-width:1; stroke:black; " description="&lt;b&gt;CK945_RS11210&lt;/b&gt;&lt;br&gt;hypothetical protein&lt;br&gt;Location: 2207906 - 2206719" locus_tag="CK945_RS11210" class="clusterblast-orf" id="dummy-1_h1_10_6"  />
</g>
<g id="a1_007"  >
<polygon points="56,85 61,80 67,80 67,90 61,90 56,85 " style="fill:white; stroke-width:1; stroke:black; " description="&lt;b&gt;CK945_RS11205&lt;/b&gt;&lt;br&gt;oligoribonuclease&lt;br&gt;Location: 2206621 - 2205419" locus_tag="CK945_RS11205" class="clusterblast-orf" id="dummy-1_h1_10_7"  />
</g>
<g id="a1_008"  >
<polygon points="68,85 73,80 75,80 75,90 73,90 68,85 " style="fill:white; stroke-width:1; stroke:black; " description="&lt;b&gt;CK945_RS11200&lt;/b&gt;&lt;br&gt;pyruvate formate lyase-activating protein&lt;br&gt;Location: 2205263 - 2204505" locus_tag="CK945_RS11200" class="clusterblast-orf" id="dummy-1_h1_10_8"  />
</g>
<g id="a1_009"  >
<polygon points="76,85 81,80 96,80 96,90 81,90 76,85 " style="fill:white; stroke-width:1; stroke:black; " description="&lt;b&gt;CK945_RS11195&lt;/b&gt;&lt;br&gt;formate C-acetyltransferase&lt;br&gt;Location: 2204444 - 2202219" locus_tag="CK945_RS11195" class="clusterblast-orf" id="dummy-1_h1_10_9"  />
</g>
<g id="a1_0010"  >
<polygon points="99,85 104,80 113,80 113,90 104,90 99,85 " style="fill:white; stroke-width:1; stroke:black; " description="&lt;b&gt;CK945_RS11190&lt;/b&gt;&lt;br&gt;glycosyltransferase family 1 protein&lt;br&gt;Location: 2201943 - 2200393" locus_tag="CK945_RS11190" class="clusterblast-orf" id="dummy-1_h1_10_10"  />
</g>
<g id="a1_0011"  >
<polygon points="114,85 119,80 127,80 127,90 119,90 114,85 " style="fill:white; stroke-width:1; stroke:black; " description="&lt;b&gt;CK945_RS11185&lt;/b&gt;&lt;br&gt;D-alanyl-D-alanine carboxypeptidase/D-alanyl-D-alanine-endopeptidase&lt;br&gt;Location: 2200307 - 2198835" locus_tag="CK945_RS11185" class="clusterblast-orf" id="dummy-1_h1_10_11"  />
</g>
<g id="a1_0012"  >
<polygon points="128,85 133,80 135,80 135,90 133,90 128,85 " style="fill:white; stroke-width:1; stroke:black; " description="&lt;b&gt;CK945_RS11180&lt;/b&gt;&lt;br&gt;hypothetical protein&lt;br&gt;Location: 2198771 - 2198055" locus_tag="CK945_RS11180" class="clusterblast-orf" id="dummy-1_h1_10_12"  />
</g>
<g id="a1_0013"  >
<polygon points="135,85 140,80 141,80 141,90 140,90 135,85 " style="fill:white; stroke-width:1; stroke:black; " description="&lt;b&gt;CK945_RS11175&lt;/b&gt;&lt;br&gt;ABC transporter permease&lt;br&gt;Location: 2198058 - 2197348" locus_tag="CK945_RS11175" class="clusterblast-orf" id="dummy-1_h1_10_13"  />
</g>
<g id="a1_0014"  >
<polygon points="141,85 146,80 149,80 149,90 146,90 141,85 " style="fill:white; stroke-width:1; stroke:black; " description="&lt;b&gt;CK945_RS11170&lt;/b&gt;&lt;br&gt;ABC transporter ATP-binding protein&lt;br&gt;Location: 2197351 - 2196497" locus_tag="CK945_RS11170" class="clusterblast-orf" id="dummy-1_h1_10_14"  />
</g>
<g id="a1_0015"  >
<polygon points="149,85 154,80 154,80 154,90 154,90 149,85 " style="fill:white; stroke-width:1; stroke:black; " description="&lt;b&gt;CK945_RS11165&lt;/b&gt;&lt;br&gt;TetR/AcrR family transcriptional regulator&lt;br&gt;Location: 2196504 - 2195899" locus_tag="CK945_RS11165" class="clusterblast-orf" id="dummy-1_h1_10_15"  />
</g>
<g id="a1_0016"  >
<polygon points="156,85 161,80 167,80 167,90 161,90 156,85 " style="fill:white; stroke-width:1; stroke:black; " description="&lt;b&gt;CK945_RS11160&lt;/b&gt;&lt;br&gt;NAD(P)/FAD-dependent oxidoreductase&lt;br&gt;Location: 2195712 - 2194534" locus_tag="CK945_RS11160" class="clusterblast-orf" id="dummy-1_h1_10_16"  />
</g>
<g id="a1_0017"  >
<polygon points="167,85 171,80 171,90 167,85 " style="fill:white; stroke-width:1; stroke:black; " description="&lt;b&gt;CK945_RS11155&lt;/b&gt;&lt;br&gt;DUF1641 domain-containing protein&lt;br&gt;Location: 2194497 - 2194063" locus_tag="CK945_RS11155" class="clusterblast-orf" id="dummy-1_h1_10_17"  />
</g>
<g id="a1_0018"  >
<polygon points="171,85 174,80 174,90 171,85 " style="fill:white; stroke-width:1; stroke:black; " description="&lt;b&gt;CK945_RS11150&lt;/b&gt;&lt;br&gt;hypothetical protein&lt;br&gt;Location: 2194111 - 2193788" locus_tag="CK945_RS11150" class="clusterblast-orf" id="dummy-1_h1_10_18"  />
</g>
<g id="a1_0019"  >
<polygon points="175,85 177,80 177,90 175,85 " style="fill:white; stroke-width:1; stroke:black; " description="&lt;b&gt;CK945_RS11145&lt;/b&gt;&lt;br&gt;helix-turn-helix domain-containing protein&lt;br&gt;Location: 2193664 - 2193434" locus_tag="CK945_RS11145" class="clusterblast-orf" id="dummy-1_h1_10_19"  />
</g>
<g id="a1_0020"  >
<polygon points="178,90 180,85 178,80 178,90 " style="fill:white; stroke-width:1; stroke:black; " description="&lt;b&gt;CK945_RS11140&lt;/b&gt;&lt;br&gt;hypothetical protein&lt;br&gt;Location: 2193340 - 2193116" locus_tag="CK945_RS11140" class="clusterblast-orf" id="dummy-1_h1_10_20"  />
</g>
<g id="a1_0021"  >
<polygon points="181,85 186,80 198,80 198,90 186,90 181,85 " style="fill:white; stroke-width:1; stroke:black; " description="&lt;b&gt;CK945_RS11135&lt;/b&gt;&lt;br&gt;AMP-dependent synthetase&lt;br&gt;Location: 2193045 - 2191093" locus_tag="CK945_RS11135" class="clusterblast-orf" id="dummy-1_h1_10_21"  />
</g>
<g id="a1_0022"  >
<polygon points="199,85 204,80 213,80 213,90 204,90 199,85 " style="fill:#15d8d8; stroke-width:1; stroke:black; " description="&lt;b&gt;CK945_RS11130&lt;/b&gt;&lt;br&gt;acyl-CoA carboxylase subunit beta&lt;br&gt;Location: 2191061 - 2189532&lt;br&gt;&lt;br&gt;&lt;b&gt;BlastP hit with ctg3_22&lt;/b&gt;&lt;br&gt;Percentage identity: 38&lt;br&gt;Percentage coverage: 93&lt;br&gt;BLAST bit score: 319&lt;br&gt;E-value: 9.6e-85" locus_tag="CK945_RS11130" class="clusterblast-orf" id="dummy-1_h1_10_22"  />
</g>
<g id="a1_0023"  >
<polygon points="213,85 218,80 220,80 220,90 218,90 213,85 " style="fill:white; stroke-width:1; stroke:black; " description="&lt;b&gt;CK945_RS11125&lt;/b&gt;&lt;br&gt;3-hydroxybutyryl-CoA dehydratase&lt;br&gt;Location: 2189511 - 2188729" locus_tag="CK945_RS11125" class="clusterblast-orf" id="dummy-1_h1_10_23"  />
</g>
<g id="a1_0024"  >
<polygon points="220,85 225,80 229,80 229,90 225,90 220,85 " style="fill:#1546d8; stroke-width:1; stroke:black; " description="&lt;b&gt;CK945_RS11120&lt;/b&gt;&lt;br&gt;hydroxymethylglutaryl-CoA lyase&lt;br&gt;Location: 2188707 - 2187796&lt;br&gt;&lt;br&gt;&lt;b&gt;BlastP hit with ctg3_27&lt;/b&gt;&lt;br&gt;Percentage identity: 47&lt;br&gt;Percentage coverage: 100&lt;br&gt;BLAST bit score: 278&lt;br&gt;E-value: 8e-73" locus_tag="CK945_RS11120" class="clusterblast-orf" id="dummy-1_h1_10_24"  />
</g>
<g id="a1_0025"  >
<polygon points="229,85 231,80 231,90 229,85 " style="fill:white; stroke-width:1; stroke:black; " description="&lt;b&gt;CK945_RS11115&lt;/b&gt;&lt;br&gt;acetyl-CoA carboxylase biotin carboxyl carrier protein subunit&lt;br&gt;Location: 2187778 - 2187566" locus_tag="CK945_RS11115" class="clusterblast-orf" id="dummy-1_h1_10_25"  />
</g>
<g id="a1_0026"  >
<polygon points="231,85 236,80 243,80 243,90 236,90 231,85 " style="fill:#d81515; stroke-width:1; stroke:black; " description="&lt;b&gt;CK945_RS11110&lt;/b&gt;&lt;br&gt;acetyl-CoA carboxylase biotin carboxylase subunit&lt;br&gt;Location: 2187548 - 2186208&lt;br&gt;&lt;br&gt;&lt;b&gt;BlastP hit with ctg3_20&lt;/b&gt;&lt;br&gt;Percentage identity: 48&lt;br&gt;Percentage coverage: 68&lt;br&gt;BLAST bit score: 412&lt;br&gt;E-value: 1e-112" locus_tag="CK945_RS11110" class="clusterblast-orf" id="dummy-1_h1_10_26"  />
</g>
<g id="a1_0027"  >
<polygon points="245,85 250,80 280,80 280,90 250,90 245,85 " style="fill:white; stroke-width:1; stroke:black; " description="&lt;b&gt;CK945_RS11105&lt;/b&gt;&lt;br&gt;non-ribosomal peptide synthase&lt;br&gt;Location: 2185969 - 2182167" locus_tag="CK945_RS11105" class="clusterblast-orf" id="dummy-1_h1_10_27"  />
</g>
<g id="a1_0028"  >
<polygon points="281,85 286,80 379,80 379,90 286,90 281,85 " style="fill:white; stroke-width:1; stroke:black; " description="&lt;b&gt;CK945_RS11100&lt;/b&gt;&lt;br&gt;D-alanine--poly(phosphoribitol) ligase subunit DltA&lt;br&gt;Location: 2182149 - 2171359" locus_tag="CK945_RS11100" class="clusterblast-orf" id="dummy-1_h1_10_28"  />
</g>
<g id="a1_0029"  >
<polygon points="380,85 385,80 450,80 450,90 385,90 380,85 " style="fill:white; stroke-width:1; stroke:black; " description="&lt;b&gt;CK945_RS11095&lt;/b&gt;&lt;br&gt;D-alanine--poly(phosphoribitol) ligase subunit DltA&lt;br&gt;Location: 2171336 - 2163696" locus_tag="CK945_RS11095" class="clusterblast-orf" id="dummy-1_h1_10_29"  />
</g>
<g id="a1_0030"  >
<polygon points="450,85 455,80 521,80 521,90 455,90 450,85 " style="fill:white; stroke-width:1; stroke:black; " description="&lt;b&gt;CK945_RS11090&lt;/b&gt;&lt;br&gt;D-alanine--poly(phosphoribitol) ligase subunit DltA&lt;br&gt;Location: 2163679 - 2155985" locus_tag="CK945_RS11090" class="clusterblast-orf" id="dummy-1_h1_10_30"  />
</g>
<g id="a1_0031"  >
<polygon points="521,85 526,80 591,80 591,90 526,90 521,85 " style="fill:white; stroke-width:1; stroke:black; " description="&lt;b&gt;CK945_RS11085&lt;/b&gt;&lt;br&gt;non-ribosomal peptide synthetase&lt;br&gt;Location: 2155958 - 2148304" locus_tag="CK945_RS11085" class="clusterblast-orf" id="dummy-1_h1_10_31"  />
</g>
<g id="a1_0032"  >
<polygon points="596,85 601,80 611,80 611,90 601,90 596,85 " style="fill:#d8a715; stroke-width:1; stroke:black; " description="&lt;b&gt;CK945_RS11080&lt;/b&gt;&lt;br&gt;AMP-binding protein&lt;br&gt;Location: 2147795 - 2146158&lt;br&gt;&lt;br&gt;&lt;b&gt;BlastP hit with ctg3_24&lt;/b&gt;&lt;br&gt;Percentage identity: 51&lt;br&gt;Percentage coverage: 96&lt;br&gt;BLAST bit score: 560&lt;br&gt;E-value: 2e-157" locus_tag="CK945_RS11080" class="clusterblast-orf" id="dummy-1_h1_10_32"  />
</g>
<g id="a1_0033"  >
<polygon points="611,85 616,80 622,80 622,90 616,90 611,85 " style="fill:#7715d8; stroke-width:1; stroke:black; " description="&lt;b&gt;CK945_RS11075&lt;/b&gt;&lt;br&gt;acyl-CoA dehydrogenase&lt;br&gt;Location: 2146126 - 2144966&lt;br&gt;&lt;br&gt;&lt;b&gt;BlastP hit with ctg3_23&lt;/b&gt;&lt;br&gt;Percentage identity: 41&lt;br&gt;Percentage coverage: 98&lt;br&gt;BLAST bit score: 292&lt;br&gt;E-value: 5.3e-77&lt;br&gt;&lt;br&gt;&lt;b&gt;BlastP hit with ctg3_30&lt;/b&gt;&lt;br&gt;Percentage identity: 32&lt;br&gt;Percentage coverage: 85&lt;br&gt;BLAST bit score: 154&lt;br&gt;E-value: 2.4e-35" locus_tag="CK945_RS11075" class="clusterblast-orf" id="dummy-1_h1_10_33"  />
</g>
<g id="a1_0034"  >
<polygon points="624,90 624,90 629,85 624,80 624,80 624,90 " style="fill:white; stroke-width:1; stroke:black; " description="&lt;b&gt;CK945_RS11070&lt;/b&gt;&lt;br&gt;flavodoxin family protein&lt;br&gt;Location: 2144735 - 2144175" locus_tag="CK945_RS11070" class="clusterblast-orf" id="dummy-1_h1_10_34"  />
</g>
<g id="a1_0035"  >
<polygon points="629,85 632,80 632,90 629,85 " style="fill:white; stroke-width:1; stroke:black; " description="&lt;b&gt;CK945_RS11065&lt;/b&gt;&lt;br&gt;transcriptional regulator&lt;br&gt;Location: 2144139 - 2143789" locus_tag="CK945_RS11065" class="clusterblast-orf" id="dummy-1_h1_10_35"  />
</g>
<g id="a1_0036"  >
<polygon points="634,85 639,80 646,80 646,90 639,90 634,85 " style="fill:white; stroke-width:1; stroke:black; " description="&lt;b&gt;CK945_RS11060&lt;/b&gt;&lt;br&gt;glutamate-5-semialdehyde dehydrogenase&lt;br&gt;Location: 2143580 - 2142309" locus_tag="CK945_RS11060" class="clusterblast-orf" id="dummy-1_h1_10_36"  />
</g>
<g id="a1_0037"  >
<polygon points="646,85 651,80 656,80 656,90 651,90 646,85 " style="fill:white; stroke-width:1; stroke:black; " description="&lt;b&gt;CK945_RS11055&lt;/b&gt;&lt;br&gt;glutamate 5-kinase&lt;br&gt;Location: 2142283 - 2141162" locus_tag="CK945_RS11055" class="clusterblast-orf" id="dummy-1_h1_10_37"  />
</g>
<g id="a1_0038"  >
<polygon points="657,85 662,80 665,80 665,90 662,90 657,85 " style="fill:white; stroke-width:1; stroke:black; " description="&lt;b&gt;CK945_RS11050&lt;/b&gt;&lt;br&gt;pyrroline-5-carboxylate reductase&lt;br&gt;Location: 2141123 - 2140272" locus_tag="CK945_RS11050" class="clusterblast-orf" id="dummy-1_h1_10_38"  />
</g>
<g id="a1_0039"  >
<polygon points="668,85 673,80 674,80 674,90 673,90 668,85 " style="fill:white; stroke-width:1; stroke:black; " description="&lt;b&gt;CK945_RS11045&lt;/b&gt;&lt;br&gt;DUF421 domain-containing protein&lt;br&gt;Location: 2139920 - 2139243" locus_tag="CK945_RS11045" class="clusterblast-orf" id="dummy-1_h1_10_39"  />
</g>
<g id="a1_0040"  >
<polygon points="677,85 682,80 687,80 687,90 682,90 677,85 " style="fill:white; stroke-width:1; stroke:black; " description="&lt;b&gt;CK945_RS11040&lt;/b&gt;&lt;br&gt;inorganic phosphate transporter&lt;br&gt;Location: 2138939 - 2137800" locus_tag="CK945_RS11040" class="clusterblast-orf" id="dummy-1_h1_10_40"  />
</g>
<g id="a1_0041"  >
<polygon points="687,85 692,80 694,80 694,90 692,90 687,85 " style="fill:white; stroke-width:1; stroke:black; " description="&lt;b&gt;CK945_RS11035&lt;/b&gt;&lt;br&gt;phosphoadenylyl-sulfate reductase&lt;br&gt;Location: 2137785 - 2137075" locus_tag="CK945_RS11035" class="clusterblast-orf" id="dummy-1_h1_10_41"  />
</g>
<g id="a1_0042"  >
<polygon points="700,90 702,90 707,85 702,80 700,80 700,90 " style="fill:white; stroke-width:1; stroke:black; " description="&lt;b&gt;CK945_RS11030&lt;/b&gt;&lt;br&gt;phosphosulfolactate synthase&lt;br&gt;Location: 2136463 - 2135699" locus_tag="CK945_RS11030" class="clusterblast-orf" id="dummy-1_h1_10_42"  />
</g>
<g id="a1_0043"  >
<polygon points="707,85 712,80 712,80 712,90 712,90 707,85 " style="fill:white; stroke-width:1; stroke:black; " description="&lt;b&gt;CK945_RS11025&lt;/b&gt;&lt;br&gt;hypothetical protein&lt;br&gt;Location: 2135680 - 2135058" locus_tag="CK945_RS11025" class="clusterblast-orf" id="dummy-1_h1_10_43"  />
</g>
<g id="a1_0044"  >
<polygon points="713,85 718,80 723,80 723,90 718,90 713,85 " style="fill:white; stroke-width:1; stroke:black; " description="&lt;b&gt;CK945_RS11020&lt;/b&gt;&lt;br&gt;mandelate racemase/muconate lactonizing enzyme family protein&lt;br&gt;Location: 2134967 - 2133861" locus_tag="CK945_RS11020" class="clusterblast-orf" id="dummy-1_h1_10_44"  />
</g>
<g id="a1_0045"  >
<polygon points="724,85 729,80 735,80 735,90 729,90 724,85 " style="fill:white; stroke-width:1; stroke:black; " description="&lt;b&gt;CK945_RS11015&lt;/b&gt;&lt;br&gt;MFS transporter&lt;br&gt;Location: 2133843 - 2132602" locus_tag="CK945_RS11015" class="clusterblast-orf" id="dummy-1_h1_10_45"  />
</g>
<g id="a1_0046"  >
<polygon points="736,85 741,80 745,80 745,90 741,90 736,85 " style="fill:white; stroke-width:1; stroke:black; " description="&lt;b&gt;CK945_RS11010&lt;/b&gt;&lt;br&gt;glycosyltransferase&lt;br&gt;Location: 2132536 - 2131529" locus_tag="CK945_RS11010" class="clusterblast-orf" id="dummy-1_h1_10_46"  />
</g>
<g id="a1_0047"  >
<polygon points="745,85 750,80 761,80 761,90 750,90 745,85 " style="fill:white; stroke-width:1; stroke:black; " description="&lt;b&gt;CK945_RS11005&lt;/b&gt;&lt;br&gt;hypothetical protein&lt;br&gt;Location: 2131506 - 2129791" locus_tag="CK945_RS11005" class="clusterblast-orf" id="dummy-1_h1_10_47"  />
</g>
<g id="a1_0048"  >
<polygon points="762,85 764,80 764,90 762,85 " style="fill:white; stroke-width:1; stroke:black; " description="&lt;b&gt;CK945_RS11000&lt;/b&gt;&lt;br&gt;hypothetical protein&lt;br&gt;Location: 2129666 - 2129466" locus_tag="CK945_RS11000" class="clusterblast-orf" id="dummy-1_h1_10_48"  />
</g>
<g id="a1_0049"  >
<polygon points="766,85 771,80 780,80 780,90 771,90 766,85 " style="fill:white; stroke-width:1; stroke:black; " description="&lt;b&gt;CK945_RS10995&lt;/b&gt;&lt;br&gt;glutamate synthase&lt;br&gt;Location: 2129232 - 2127751" locus_tag="CK945_RS10995" class="clusterblast-orf" id="dummy-1_h1_10_49"  />
</g>
</svg>
