<svg xmlns="http://www.w3.org/2000/svg" xmlns:xlink="http://www.w3.org/1999/xlink" version="1.1" x="0" y="0" height="230" width="800" viewBox="0 0 800 230" preserveAspectRatio="none"  >
<g label="Query sequence" class="clusterblast-cluster"  >
<text x="5" y="20" class="clusterblast-acc"  >
Query sequence</text>
<line x1="10" y1="35" x2="778.0" y2="35" style="stroke-width:1; stroke:grey; "  />
<polygon points="262,40 297,40 302,35 297,30 262,30 262,40 " style="fill:white; stroke-width:1; stroke:black; " description="&lt;b&gt;ctg1_736&lt;/b&gt;&lt;br&gt;ctg1 736&lt;br&gt;Location: 811806 - 813900" locus_tag="ctg1_736" class="clusterblast-orf" id="dummy-1_q0_0_all"  />
<polygon points="303,35 306,30 306,40 303,35 " style="fill:white; stroke-width:1; stroke:black; " description="&lt;b&gt;ctg1_737&lt;/b&gt;&lt;br&gt;ctg1 737&lt;br&gt;Location: 813962 - 814115" locus_tag="ctg1_737" class="clusterblast-orf" id="dummy-1_q1_0_all"  />
<polygon points="313,40 324,40 329,35 324,30 313,30 313,40 " style="fill:#d81515; stroke-width:1; stroke:black; " description="&lt;b&gt;ctg1_738&lt;/b&gt;&lt;br&gt;ctg1 738&lt;br&gt;Location: 814519 - 815335" locus_tag="ctg1_738" class="clusterblast-orf" id="dummy-1_q2_0_all"  />
<polygon points="330,40 331,40 336,35 331,30 330,30 330,40 " style="fill:white; stroke-width:1; stroke:black; " description="&lt;b&gt;ctg1_739&lt;/b&gt;&lt;br&gt;ctg1 739&lt;br&gt;Location: 815399 - 815732" locus_tag="ctg1_739" class="clusterblast-orf" id="dummy-1_q3_0_all"  />
<polygon points="339,40 342,35 339,30 339,40 " style="fill:#77d815; stroke-width:1; stroke:black; " description="&lt;b&gt;ctg1_740&lt;/b&gt;&lt;br&gt;ctg1 740&lt;br&gt;Location: 815885 - 816071" locus_tag="ctg1_740" class="clusterblast-orf" id="dummy-1_q4_0_all"  />
<polygon points="342,35 347,30 347,30 347,40 347,40 342,35 " style="fill:#15d8d8; stroke-width:1; stroke:black; " description="&lt;b&gt;ctg1_741&lt;/b&gt;&lt;br&gt;ctg1 741&lt;br&gt;Location: 816076 - 816304" locus_tag="ctg1_741" class="clusterblast-orf" id="dummy-1_q5_0_all"  />
<polygon points="350,35 355,30 373,30 373,40 355,40 350,35 " style="fill:#7715d8; stroke-width:1; stroke:black; " description="&lt;b&gt;ctg1_742&lt;/b&gt;&lt;br&gt;ctg1 742&lt;br&gt;Location: 816493 - 817684" locus_tag="ctg1_742" class="clusterblast-orf" id="dummy-1_q6_0_all"  />
<polygon points="376,35 381,30 409,30 409,40 381,40 376,35 " style="fill:#d8a715; stroke-width:1; stroke:black; " description="&lt;b&gt;ctg1_743&lt;/b&gt;&lt;br&gt;ctg1 743&lt;br&gt;Location: 817849 - 819598" locus_tag="ctg1_743" class="clusterblast-orf" id="dummy-1_q7_0_all"  />
<polygon points="409,35 414,30 442,30 442,40 414,40 409,35 " style="fill:#15d846; stroke-width:1; stroke:black; " description="&lt;b&gt;ctg1_744&lt;/b&gt;&lt;br&gt;ctg1 744&lt;br&gt;Location: 819601 - 821374" locus_tag="ctg1_744" class="clusterblast-orf" id="dummy-1_q8_0_all"  />
<polygon points="447,35 452,30 484,30 484,40 452,40 447,35 " style="fill:#1546d8; stroke-width:1; stroke:black; " description="&lt;b&gt;ctg1_745&lt;/b&gt;&lt;br&gt;ctg1 745&lt;br&gt;Location: 821636 - 823616" locus_tag="ctg1_745" class="clusterblast-orf" id="dummy-1_q9_0_all"  />
<polygon points="489,40 512,40 517,35 512,30 489,30 489,40 " style="fill:#d815a7; stroke-width:1; stroke:black; " description="&lt;b&gt;ctg1_746&lt;/b&gt;&lt;br&gt;ctg1 746&lt;br&gt;Location: 823868 - 825383" locus_tag="ctg1_746" class="clusterblast-orf" id="dummy-1_q10_0_all"  />
</g>
<g label="NZ_MCHX01000005" description="NZ_MCHX01000005_c2: Mycobacterium grossiae strain GK PROKKA contig000005, who... (7% of genes show similarity), other" class="clusterblast-cluster"  >
<text x="5" y="70" class="clusterblast-acc"  >
<a xlink:href="https://antismash-db.secondarymetabolites.org/go/NZ_MCHX01000005/2" target="_blank">NZ_MCHX01000005_c2</a>: Mycobacterium grossiae strain GK PROKKA contig000005, who... (7% of genes show similarity), other</text>
<line x1="10" y1="85" x2="778.0" y2="85" style="stroke-width:1; stroke:grey; "  />
</g>
<g id="a1_000"  >
<polygon points="0,85 5,80 79,80 79,90 5,90 0,85 " style="fill:white; stroke-width:1; stroke:black; " description="&lt;b&gt;BEL07_RS03130&lt;/b&gt;&lt;br&gt;phage tail tape measure protein&lt;br&gt;Location: 51210 - 46963" locus_tag="BEL07_RS03130" class="clusterblast-orf" id="dummy-1_h1_10_0"  />
</g>
<g id="a1_001"  >
<polygon points="84,85 89,80 90,80 90,90 89,90 84,85 " style="fill:white; stroke-width:1; stroke:black; " description="&lt;b&gt;BEL07_RS03125&lt;/b&gt;&lt;br&gt;hypothetical protein&lt;br&gt;Location: 46694 - 46410" locus_tag="BEL07_RS03125" class="clusterblast-orf" id="dummy-1_h1_10_1"  />
</g>
<g id="a1_002"  >
<polygon points="94,85 98,80 98,90 94,85 " style="fill:white; stroke-width:1; stroke:black; " description="&lt;b&gt;BEL07_RS03120&lt;/b&gt;&lt;br&gt;hypothetical protein&lt;br&gt;Location: 46149 - 45937" locus_tag="BEL07_RS03120" class="clusterblast-orf" id="dummy-1_h1_10_2"  />
</g>
<g id="a1_003"  >
<polygon points="100,85 105,80 111,80 111,90 105,90 100,85 " style="fill:white; stroke-width:1; stroke:black; " description="&lt;b&gt;BEL07_RS03115&lt;/b&gt;&lt;br&gt;hypothetical protein&lt;br&gt;Location: 45839 - 45255" locus_tag="BEL07_RS03115" class="clusterblast-orf" id="dummy-1_h1_10_3"  />
</g>
<g id="a1_004"  >
<polygon points="111,85 116,80 119,80 119,90 116,90 111,85 " style="fill:white; stroke-width:1; stroke:black; " description="&lt;b&gt;BEL07_RS03110&lt;/b&gt;&lt;br&gt;DNA-binding protein&lt;br&gt;Location: 45244 - 44849" locus_tag="BEL07_RS03110" class="clusterblast-orf" id="dummy-1_h1_10_4"  />
</g>
<g id="a1_005"  >
<polygon points="119,85 124,80 124,80 124,90 124,90 119,85 " style="fill:white; stroke-width:1; stroke:black; " description="&lt;b&gt;BEL07_RS03105&lt;/b&gt;&lt;br&gt;hypothetical protein&lt;br&gt;Location: 44852 - 44556" locus_tag="BEL07_RS03105" class="clusterblast-orf" id="dummy-1_h1_10_5"  />
</g>
<g id="a1_006"  >
<polygon points="124,85 129,80 136,80 136,90 129,90 124,85 " style="fill:white; stroke-width:1; stroke:black; " description="&lt;b&gt;BEL07_RS03100&lt;/b&gt;&lt;br&gt;hypothetical protein&lt;br&gt;Location: 44563 - 43943" locus_tag="BEL07_RS03100" class="clusterblast-orf" id="dummy-1_h1_10_6"  />
</g>
<g id="a1_007"  >
<polygon points="142,85 147,80 163,80 163,90 147,90 142,85 " style="fill:white; stroke-width:1; stroke:black; " description="&lt;b&gt;BEL07_RS03095&lt;/b&gt;&lt;br&gt;transcriptional regulator&lt;br&gt;Location: 43604 - 42498" locus_tag="BEL07_RS03095" class="clusterblast-orf" id="dummy-1_h1_10_7"  />
</g>
<g id="a1_008"  >
<polygon points="165,85 170,80 174,80 174,90 170,90 165,85 " style="fill:white; stroke-width:1; stroke:black; " description="&lt;b&gt;BEL07_RS03090&lt;/b&gt;&lt;br&gt;hypothetical protein&lt;br&gt;Location: 42387 - 41899" locus_tag="BEL07_RS03090" class="clusterblast-orf" id="dummy-1_h1_10_8"  />
</g>
<g id="a1_009"  >
<polygon points="182,85 185,80 185,90 182,85 " style="fill:white; stroke-width:1; stroke:black; " description="&lt;b&gt;BEL07_RS03085&lt;/b&gt;&lt;br&gt;hypothetical protein&lt;br&gt;Location: 41487 - 41305" locus_tag="BEL07_RS03085" class="clusterblast-orf" id="dummy-1_h1_10_9"  />
</g>
<g id="a1_0010"  >
<polygon points="196,85 201,80 223,80 223,90 201,90 196,85 " style="fill:white; stroke-width:1; stroke:black; " description="&lt;b&gt;BEL07_RS03080&lt;/b&gt;&lt;br&gt;recombinase family protein&lt;br&gt;Location: 40744 - 39302" locus_tag="BEL07_RS03080" class="clusterblast-orf" id="dummy-1_h1_10_10"  />
</g>
<g id="a1_0011"  >
<polygon points="223,85 228,80 249,80 249,90 228,90 223,85 " style="fill:white; stroke-width:1; stroke:black; " description="&lt;b&gt;BEL07_RS03075&lt;/b&gt;&lt;br&gt;ATP-binding protein&lt;br&gt;Location: 39317 - 37881" locus_tag="BEL07_RS03075" class="clusterblast-orf" id="dummy-1_h1_10_11"  />
</g>
<g id="a1_0012"  >
<polygon points="249,85 254,80 256,80 256,90 254,90 249,85 " style="fill:white; stroke-width:1; stroke:black; " description="&lt;b&gt;BEL07_RS03070&lt;/b&gt;&lt;br&gt;YraN family protein&lt;br&gt;Location: 37881 - 37510" locus_tag="BEL07_RS03070" class="clusterblast-orf" id="dummy-1_h1_10_12"  />
</g>
<g id="a1_0013"  >
<polygon points="260,85 265,80 267,80 267,90 265,90 260,85 " style="fill:white; stroke-width:1; stroke:black; " description="&lt;b&gt;BEL07_RS03065&lt;/b&gt;&lt;br&gt;hemophore-related protein&lt;br&gt;Location: 37323 - 36940" locus_tag="BEL07_RS03065" class="clusterblast-orf" id="dummy-1_h1_10_13"  />
</g>
<g id="a1_0014"  >
<polygon points="273,90 274,90 279,85 274,80 273,80 273,90 " style="fill:white; stroke-width:1; stroke:black; " description="&lt;b&gt;BEL07_RS03060&lt;/b&gt;&lt;br&gt;hypothetical protein&lt;br&gt;Location: 36632 - 36294" locus_tag="BEL07_RS03060" class="clusterblast-orf" id="dummy-1_h1_10_14"  />
</g>
<g id="a1_0015"  >
<polygon points="279,90 292,90 297,85 292,80 279,80 279,90 " style="fill:white; stroke-width:1; stroke:black; " description="&lt;b&gt;BEL07_RS03055&lt;/b&gt;&lt;br&gt;hypothetical protein&lt;br&gt;Location: 36284 - 35325" locus_tag="BEL07_RS03055" class="clusterblast-orf" id="dummy-1_h1_10_15"  />
</g>
<g id="a1_0016"  >
<polygon points="300,90 314,90 319,85 314,80 300,80 300,90 " style="fill:white; stroke-width:1; stroke:black; " description="&lt;b&gt;BEL07_RS03050&lt;/b&gt;&lt;br&gt;iron ABC transporter substrate-binding protein&lt;br&gt;Location: 35201 - 34176" locus_tag="BEL07_RS03050" class="clusterblast-orf" id="dummy-1_h1_10_16"  />
</g>
<g id="a1_0017"  >
<polygon points="319,90 344,90 349,85 344,80 319,80 319,90 " style="fill:white; stroke-width:1; stroke:black; " description="&lt;b&gt;BEL07_RS03045&lt;/b&gt;&lt;br&gt;iron ABC transporter permease&lt;br&gt;Location: 34162 - 32558" locus_tag="BEL07_RS03045" class="clusterblast-orf" id="dummy-1_h1_10_17"  />
</g>
<g id="a1_0018"  >
<polygon points="349,90 364,90 369,85 364,80 349,80 349,90 " style="fill:white; stroke-width:1; stroke:black; " description="&lt;b&gt;BEL07_RS03040&lt;/b&gt;&lt;br&gt;ABC transporter ATP-binding protein&lt;br&gt;Location: 32561 - 31515" locus_tag="BEL07_RS03040" class="clusterblast-orf" id="dummy-1_h1_10_18"  />
</g>
<g id="a1_0019"  >
<polygon points="370,90 412,90 417,85 412,80 370,80 370,90 " style="fill:white; stroke-width:1; stroke:black; " description="&lt;b&gt;BEL07_RS03035&lt;/b&gt;&lt;br&gt;AMP-dependent synthetase&lt;br&gt;Location: 31461 - 28954" locus_tag="BEL07_RS03035" class="clusterblast-orf" id="dummy-1_h1_10_19"  />
</g>
<g id="a1_0020"  >
<polygon points="416,85 421,80 432,80 432,90 421,90 416,85 " style="fill:white; stroke-width:1; stroke:black; " description="&lt;b&gt;BEL07_RS03030&lt;/b&gt;&lt;br&gt;acyl-CoA thioesterase II&lt;br&gt;Location: 28985 - 28173" locus_tag="BEL07_RS03030" class="clusterblast-orf" id="dummy-1_h1_10_20"  />
</g>
<g id="a1_0021"  >
<polygon points="431,85 436,80 454,80 454,90 436,90 431,85 " style="fill:white; stroke-width:1; stroke:black; " description="&lt;b&gt;BEL07_RS03025&lt;/b&gt;&lt;br&gt;mesaconyl-CoA isomerase&lt;br&gt;Location: 28176 - 26965" locus_tag="BEL07_RS03025" class="clusterblast-orf" id="dummy-1_h1_10_21"  />
</g>
<g id="a1_0022"  >
<polygon points="455,85 460,80 470,80 470,90 460,90 455,85 " style="fill:white; stroke-width:1; stroke:black; " description="&lt;b&gt;BEL07_RS03020&lt;/b&gt;&lt;br&gt;HAD family hydrolase&lt;br&gt;Location: 26906 - 26133" locus_tag="BEL07_RS03020" class="clusterblast-orf" id="dummy-1_h1_10_22"  />
</g>
<g id="a1_0023"  >
<polygon points="470,85 475,80 486,80 486,90 475,90 470,85 " style="fill:white; stroke-width:1; stroke:black; " description="&lt;b&gt;BEL07_RS03015&lt;/b&gt;&lt;br&gt;short-chain dehydrogenase&lt;br&gt;Location: 26101 - 25289" locus_tag="BEL07_RS03015" class="clusterblast-orf" id="dummy-1_h1_10_23"  />
</g>
<g id="a1_0024"  >
<polygon points="486,85 491,80 491,80 491,90 491,90 486,85 " style="fill:white; stroke-width:1; stroke:black; " description="&lt;b&gt;BEL07_RS03010&lt;/b&gt;&lt;br&gt;DUF2469 domain-containing protein&lt;br&gt;Location: 25285 - 24980" locus_tag="BEL07_RS03010" class="clusterblast-orf" id="dummy-1_h1_10_24"  />
</g>
<g id="a1_0025"  >
<polygon points="494,85 499,80 506,80 506,90 499,90 494,85 " style="fill:white; stroke-width:1; stroke:black; " description="&lt;b&gt;BEL07_RS03005&lt;/b&gt;&lt;br&gt;ribonuclease HII&lt;br&gt;Location: 24863 - 24195" locus_tag="BEL07_RS03005" class="clusterblast-orf" id="dummy-1_h1_10_25"  />
</g>
<g id="a1_0026"  >
<polygon points="506,85 511,80 522,80 522,90 511,90 506,85 " style="fill:white; stroke-width:1; stroke:black; " description="&lt;b&gt;BEL07_RS03000&lt;/b&gt;&lt;br&gt;signal peptidase I&lt;br&gt;Location: 24188 - 23364" locus_tag="BEL07_RS03000" class="clusterblast-orf" id="dummy-1_h1_10_26"  />
</g>
<g id="a1_0027"  >
<polygon points="523,85 528,80 529,80 529,90 528,90 523,85 " style="fill:white; stroke-width:1; stroke:black; " description="&lt;b&gt;BEL07_RS02995&lt;/b&gt;&lt;br&gt;50S ribosomal protein L19&lt;br&gt;Location: 23308 - 22967" locus_tag="BEL07_RS02995" class="clusterblast-orf" id="dummy-1_h1_10_27"  />
</g>
<g id="a1_0028"  >
<polygon points="535,90 547,90 552,85 547,80 535,80 535,90 " style="fill:white; stroke-width:1; stroke:black; " description="&lt;b&gt;BEL07_RS02990&lt;/b&gt;&lt;br&gt;hypothetical protein&lt;br&gt;Location: 22655 - 21726" locus_tag="BEL07_RS02990" class="clusterblast-orf" id="dummy-1_h1_10_28"  />
</g>
<g id="a1_0029"  >
<polygon points="552,85 557,80 565,80 565,90 557,90 552,85 " style="fill:white; stroke-width:1; stroke:black; " description="&lt;b&gt;BEL07_RS02985&lt;/b&gt;&lt;br&gt;tRNA (guanosine(37)-N1)-methyltransferase TrmD&lt;br&gt;Location: 21729 - 21052" locus_tag="BEL07_RS02985" class="clusterblast-orf" id="dummy-1_h1_10_29"  />
</g>
<g id="a1_0030"  >
<polygon points="565,85 570,80 575,80 575,90 570,90 565,85 " style="fill:white; stroke-width:1; stroke:black; " description="&lt;b&gt;BEL07_RS02980&lt;/b&gt;&lt;br&gt;ribosome maturation factor RimM&lt;br&gt;Location: 21042 - 20515" locus_tag="BEL07_RS02980" class="clusterblast-orf" id="dummy-1_h1_10_30"  />
</g>
<g id="a1_0031"  >
<polygon points="575,85 580,80 580,80 580,90 580,90 575,85 " style="fill:white; stroke-width:1; stroke:black; " description="&lt;b&gt;BEL07_RS02975&lt;/b&gt;&lt;br&gt;KH domain-containing protein&lt;br&gt;Location: 20502 - 20260" locus_tag="BEL07_RS02975" class="clusterblast-orf" id="dummy-1_h1_10_31"  />
</g>
<g id="a1_0032"  >
<polygon points="580,85 585,80 590,80 590,90 585,90 580,85 " style="fill:white; stroke-width:1; stroke:black; " description="&lt;b&gt;BEL07_RS02970&lt;/b&gt;&lt;br&gt;30S ribosomal protein S16&lt;br&gt;Location: 20252 - 19728" locus_tag="BEL07_RS02970" class="clusterblast-orf" id="dummy-1_h1_10_32"  />
</g>
<g id="a1_0033"  >
<polygon points="593,85 598,80 601,80 601,90 598,90 593,85 " style="fill:white; stroke-width:1; stroke:black; " description="&lt;b&gt;BEL07_RS02965&lt;/b&gt;&lt;br&gt;nuclear transport factor 2 family protein&lt;br&gt;Location: 19545 - 19117" locus_tag="BEL07_RS02965" class="clusterblast-orf" id="dummy-1_h1_10_33"  />
</g>
<g id="a1_0034"  >
<polygon points="602,85 607,80 625,80 625,90 607,90 602,85 " style="fill:#7715d8; stroke-width:1; stroke:black; " description="&lt;b&gt;BEL07_RS02960&lt;/b&gt;&lt;br&gt;osmoprotectant NAGGN system M42 family peptidase&lt;br&gt;Location: 19065 - 17851&lt;br&gt;&lt;br&gt;&lt;b&gt;BlastP hit with ctg1_742&lt;/b&gt;&lt;br&gt;Percentage identity: 49&lt;br&gt;Percentage coverage: 92&lt;br&gt;BLAST bit score: 339&lt;br&gt;E-value: 3.9e-91" locus_tag="BEL07_RS02960" class="clusterblast-orf" id="dummy-1_h1_10_34"  />
</g>
<g id="a1_0035"  >
<polygon points="627,85 632,80 659,80 659,90 632,90 627,85 " style="fill:#d8a715; stroke-width:1; stroke:black; " description="&lt;b&gt;BEL07_RS02955&lt;/b&gt;&lt;br&gt;N-acetylglutaminylglutamine synthetase&lt;br&gt;Location: 17763 - 16018&lt;br&gt;&lt;br&gt;&lt;b&gt;BlastP hit with ctg1_743&lt;/b&gt;&lt;br&gt;Percentage identity: 51&lt;br&gt;Percentage coverage: 94&lt;br&gt;BLAST bit score: 507&lt;br&gt;E-value: 1.6e-141" locus_tag="BEL07_RS02955" class="clusterblast-orf" id="dummy-1_h1_10_35"  />
</g>
<g id="a1_0036"  >
<polygon points="659,85 664,80 693,80 693,90 664,90 659,85 " style="fill:#15d846; stroke-width:1; stroke:black; " description="&lt;b&gt;BEL07_RS02950&lt;/b&gt;&lt;br&gt;N-acetylglutaminylglutamine amidotransferase&lt;br&gt;Location: 16021 - 14210&lt;br&gt;&lt;br&gt;&lt;b&gt;BlastP hit with ctg1_744&lt;/b&gt;&lt;br&gt;Percentage identity: 59&lt;br&gt;Percentage coverage: 101&lt;br&gt;BLAST bit score: 690&lt;br&gt;E-value: 2.3e-196" locus_tag="BEL07_RS02950" class="clusterblast-orf" id="dummy-1_h1_10_36"  />
</g>
<g id="a1_0037"  >
<polygon points="695,90 708,90 713,85 708,80 695,80 695,90 " style="fill:white; stroke-width:1; stroke:black; " description="&lt;b&gt;BEL07_RS02945&lt;/b&gt;&lt;br&gt;D-alanyl-D-alanine carboxypeptidase&lt;br&gt;Location: 14120 - 13155" locus_tag="BEL07_RS02945" class="clusterblast-orf" id="dummy-1_h1_10_37"  />
</g>
<g id="a1_0038"  >
<polygon points="715,90 726,90 731,85 726,80 715,80 715,90 " style="fill:white; stroke-width:1; stroke:black; " description="&lt;b&gt;BEL07_RS29355&lt;/b&gt;&lt;br&gt;D-alanyl-D-alanine carboxypeptidase&lt;br&gt;Location: 13077 - 12219" locus_tag="BEL07_RS29355" class="clusterblast-orf" id="dummy-1_h1_10_38"  />
</g>
<g id="a1_0039"  >
<polygon points="730,85 735,80 748,80 748,90 735,90 730,85 " style="fill:white; stroke-width:1; stroke:black; " description="&lt;b&gt;BEL07_RS02935&lt;/b&gt;&lt;br&gt;cyclase family protein&lt;br&gt;Location: 12232 - 11309" locus_tag="BEL07_RS02935" class="clusterblast-orf" id="dummy-1_h1_10_39"  />
</g>
<g id="a1_0040"  >
<polygon points="750,90 775,90 780,85 775,80 750,80 750,90 " style="fill:white; stroke-width:1; stroke:black; " description="&lt;b&gt;BEL07_RS02930&lt;/b&gt;&lt;br&gt;sulfite reductase flavoprotein subunit alpha&lt;br&gt;Location: 11209 - 9617" locus_tag="BEL07_RS02930" class="clusterblast-orf" id="dummy-1_h1_10_40"  />
</g>
</svg>
