<svg xmlns="http://www.w3.org/2000/svg" xmlns:xlink="http://www.w3.org/1999/xlink" version="1.1" x="0" y="0" height="230" width="800" viewBox="0 0 800 230" preserveAspectRatio="none"  >
<g label="Query sequence" class="clusterblast-cluster"  >
<text x="5" y="20" class="clusterblast-acc"  >
Query sequence</text>
<line x1="10" y1="35" x2="778.0" y2="35" style="stroke-width:1; stroke:grey; "  />
<polygon points="1,35 6,30 36,30 36,40 6,40 1,35 " style="fill:#d81515; stroke-width:1; stroke:black; " description="&lt;b&gt;ctg3_2058&lt;/b&gt;&lt;br&gt;ctg3 2058&lt;br&gt;Location: 2447924 - 2448710" locus_tag="ctg3_2058" class="clusterblast-orf" id="dummy-4_q0_0_all"  />
<polygon points="36,35 41,30 70,30 70,40 41,40 36,35 " style="fill:#77d815; stroke-width:1; stroke:black; " description="&lt;b&gt;ctg3_2059&lt;/b&gt;&lt;br&gt;ctg3 2059&lt;br&gt;Location: 2448706 - 2449498" locus_tag="ctg3_2059" class="clusterblast-orf" id="dummy-4_q1_0_all"  />
<polygon points="71,35 76,30 116,30 116,40 76,40 71,35 " style="fill:#15d8d8; stroke-width:1; stroke:black; " description="&lt;b&gt;ctg3_2060&lt;/b&gt;&lt;br&gt;ctg3 2060&lt;br&gt;Location: 2449510 - 2450542" locus_tag="ctg3_2060" class="clusterblast-orf" id="dummy-4_q2_0_all"  />
<polygon points="116,35 121,30 159,30 159,40 121,40 116,35 " style="fill:#15d8d8; stroke-width:1; stroke:black; " description="&lt;b&gt;ctg3_2061&lt;/b&gt;&lt;br&gt;ctg3 2061&lt;br&gt;Location: 2450534 - 2451524" locus_tag="ctg3_2061" class="clusterblast-orf" id="dummy-4_q3_0_all"  />
<polygon points="159,35 164,30 197,30 197,40 164,40 159,35 " style="fill:#7715d8; stroke-width:1; stroke:black; " description="&lt;b&gt;ctg3_2062&lt;/b&gt;&lt;br&gt;ctg3 2062&lt;br&gt;Location: 2451520 - 2452393" locus_tag="ctg3_2062" class="clusterblast-orf" id="dummy-4_q4_0_all"  />
<polygon points="199,35 204,30 279,30 279,40 204,40 199,35 " style="fill:#d87715; stroke-width:1; stroke:black; " description="&lt;b&gt;ctg3_2063&lt;/b&gt;&lt;br&gt;ctg3 2063&lt;br&gt;Location: 2452424 - 2454254" locus_tag="ctg3_2063" class="clusterblast-orf" id="dummy-4_q5_0_all"  />
<polygon points="279,35 284,30 313,30 313,40 284,40 279,35 " style="fill:#15d815; stroke-width:1; stroke:black; " description="&lt;b&gt;ctg3_2064&lt;/b&gt;&lt;br&gt;ctg3 2064&lt;br&gt;Location: 2454258 - 2455032" locus_tag="ctg3_2064" class="clusterblast-orf" id="dummy-4_q6_0_all"  />
<polygon points="313,35 318,30 394,30 394,40 318,40 313,35 " style="fill:#1577d8; stroke-width:1; stroke:black; " description="&lt;b&gt;ctg3_2065&lt;/b&gt;&lt;br&gt;ctg3 2065&lt;br&gt;Location: 2455025 - 2456879" locus_tag="ctg3_2065" class="clusterblast-orf" id="dummy-4_q7_0_all"  />
<polygon points="395,35 400,30 457,30 457,40 400,40 395,35 " style="fill:#d815d8; stroke-width:1; stroke:black; " description="&lt;b&gt;ctg3_2066&lt;/b&gt;&lt;br&gt;ctg3 2066&lt;br&gt;Location: 2456903 - 2458325" locus_tag="ctg3_2066" class="clusterblast-orf" id="dummy-4_q8_0_all"  />
<polygon points="457,35 462,30 510,30 510,40 462,40 457,35 " style="fill:#d8d815; stroke-width:1; stroke:black; " description="&lt;b&gt;ctg3_2067&lt;/b&gt;&lt;br&gt;ctg3 2067&lt;br&gt;Location: 2458315 - 2459527" locus_tag="ctg3_2067" class="clusterblast-orf" id="dummy-4_q9_0_all"  />
<polygon points="510,35 515,30 588,30 588,40 515,40 510,35 " style="fill:#15d877; stroke-width:1; stroke:black; " description="&lt;b&gt;ctg3_2068&lt;/b&gt;&lt;br&gt;ctg3 2068&lt;br&gt;Location: 2459519 - 2461301" locus_tag="ctg3_2068" class="clusterblast-orf" id="dummy-4_q10_0_all"  />
<polygon points="596,35 601,30 657,30 657,40 601,40 596,35 " style="fill:#1515d8; stroke-width:1; stroke:black; " description="&lt;b&gt;ctg3_2069&lt;/b&gt;&lt;br&gt;ctg3 2069&lt;br&gt;Location: 2461498 - 2462875" locus_tag="ctg3_2069" class="clusterblast-orf" id="dummy-4_q11_0_all"  />
<polygon points="672,35 677,30 778,30 778,40 677,40 672,35 " style="fill:#d81577; stroke-width:1; stroke:black; " description="&lt;b&gt;ctg3_2070&lt;/b&gt;&lt;br&gt;ctg3 2070&lt;br&gt;Location: 2463226 - 2465650" locus_tag="ctg3_2070" class="clusterblast-orf" id="dummy-4_q12_0_all"  />
</g>
<g label="NZ_LACH01000025" description="NZ_LACH01000025_c2: Pseudomonas fluorescens strain H24 FCC4JPUACXX-wHAIPI0079... (100% of genes show similarity), siderophore" class="clusterblast-cluster"  >
<text x="5" y="70" class="clusterblast-acc"  >
<a xlink:href="https://antismash-db.secondarymetabolites.org/go/NZ_LACH01000025/2" target="_blank">NZ_LACH01000025_c2</a>: Pseudomonas fluorescens strain H24 FCC4JPUACXX-wHAIPI0079... (100% of genes show similarity), siderophore</text>
<line x1="10" y1="85" x2="778.0" y2="85" style="stroke-width:1; stroke:grey; "  />
</g>
<g id="a4_000"  >
<polygon points="0,85 5,80 34,80 34,90 5,90 0,85 " style="fill:#d81515; stroke-width:1; stroke:black; " description="&lt;b&gt;VD17_RS13255&lt;/b&gt;&lt;br&gt;siderophore-iron reductase Fe-S cluster protein&lt;br&gt;Location: 2299 - 3081&lt;br&gt;&lt;br&gt;&lt;b&gt;BlastP hit with ctg3_2058&lt;/b&gt;&lt;br&gt;Percentage identity: 87&lt;br&gt;Percentage coverage: 100&lt;br&gt;BLAST bit score: 472&lt;br&gt;E-value: 3.3e-131" locus_tag="VD17_RS13255" class="clusterblast-orf" id="dummy-4_h4_7_0"  />
</g>
<g id="a4_001"  >
<polygon points="34,85 39,80 68,80 68,90 39,90 34,85 " style="fill:#77d815; stroke-width:1; stroke:black; " description="&lt;b&gt;VD17_RS13260&lt;/b&gt;&lt;br&gt;ABC transporter ATP-binding protein&lt;br&gt;Location: 3078 - 3869&lt;br&gt;&lt;br&gt;&lt;b&gt;BlastP hit with ctg3_2059&lt;/b&gt;&lt;br&gt;Percentage identity: 96&lt;br&gt;Percentage coverage: 100&lt;br&gt;BLAST bit score: 502&lt;br&gt;E-value: 3e-140" locus_tag="VD17_RS13260" class="clusterblast-orf" id="dummy-4_h4_7_1"  />
</g>
<g id="a4_002"  >
<polygon points="69,85 74,80 114,80 114,90 74,90 69,85 " style="fill:#15d8d8; stroke-width:1; stroke:black; " description="&lt;b&gt;VD17_RS13265&lt;/b&gt;&lt;br&gt;iron ABC transporter permease&lt;br&gt;Location: 3882 - 4913&lt;br&gt;&lt;br&gt;&lt;b&gt;BlastP hit with ctg3_2060&lt;/b&gt;&lt;br&gt;Percentage identity: 89&lt;br&gt;Percentage coverage: 100&lt;br&gt;BLAST bit score: 559&lt;br&gt;E-value: 2.7e-157&lt;br&gt;&lt;br&gt;&lt;b&gt;BlastP hit with ctg3_2061&lt;/b&gt;&lt;br&gt;Percentage identity: 34&lt;br&gt;Percentage coverage: 100&lt;br&gt;BLAST bit score: 133&lt;br&gt;E-value: 3.5e-29" locus_tag="VD17_RS13265" class="clusterblast-orf" id="dummy-4_h4_7_2"  />
</g>
<g id="a4_003"  >
<polygon points="114,85 119,80 157,80 157,90 119,90 114,85 " style="fill:#15d8d8; stroke-width:1; stroke:black; " description="&lt;b&gt;VD17_RS13270&lt;/b&gt;&lt;br&gt;iron ABC transporter permease&lt;br&gt;Location: 4906 - 5895&lt;br&gt;&lt;br&gt;&lt;b&gt;BlastP hit with ctg3_2060&lt;/b&gt;&lt;br&gt;Percentage identity: 37&lt;br&gt;Percentage coverage: 94&lt;br&gt;BLAST bit score: 133&lt;br&gt;E-value: 6.3e-29&lt;br&gt;&lt;br&gt;&lt;b&gt;BlastP hit with ctg3_2061&lt;/b&gt;&lt;br&gt;Percentage identity: 89&lt;br&gt;Percentage coverage: 100&lt;br&gt;BLAST bit score: 542&lt;br&gt;E-value: 4.3e-152" locus_tag="VD17_RS13270" class="clusterblast-orf" id="dummy-4_h4_7_3"  />
</g>
<g id="a4_004"  >
<polygon points="157,85 162,80 197,80 197,90 162,90 157,85 " style="fill:#7715d8; stroke-width:1; stroke:black; " description="&lt;b&gt;VD17_RS13275&lt;/b&gt;&lt;br&gt;iron-siderophore ABC transporter substrate-binding protein&lt;br&gt;Location: 5892 - 6812&lt;br&gt;&lt;br&gt;&lt;b&gt;BlastP hit with ctg3_2062&lt;/b&gt;&lt;br&gt;Percentage identity: 87&lt;br&gt;Percentage coverage: 100&lt;br&gt;BLAST bit score: 498&lt;br&gt;E-value: 4.8e-139" locus_tag="VD17_RS13275" class="clusterblast-orf" id="dummy-4_h4_7_4"  />
</g>
<g id="a4_005"  >
<polygon points="197,85 202,80 278,80 278,90 202,90 197,85 " style="fill:#d87715; stroke-width:1; stroke:black; " description="&lt;b&gt;VD17_RS13280&lt;/b&gt;&lt;br&gt;AcsA protein&lt;br&gt;Location: 6805 - 8652&lt;br&gt;&lt;br&gt;&lt;b&gt;BlastP hit with ctg3_2063&lt;/b&gt;&lt;br&gt;Percentage identity: 89&lt;br&gt;Percentage coverage: 101&lt;br&gt;BLAST bit score: 1120&lt;br&gt;E-value: 0.0" locus_tag="VD17_RS13280" class="clusterblast-orf" id="dummy-4_h4_7_5"  />
</g>
<g id="a4_006"  >
<polygon points="278,85 283,80 312,80 312,90 283,90 278,85 " style="fill:#15d815; stroke-width:1; stroke:black; " description="&lt;b&gt;VD17_RS13285&lt;/b&gt;&lt;br&gt;siderophore biosynthesis protein SbnG&lt;br&gt;Location: 8657 - 9430&lt;br&gt;&lt;br&gt;&lt;b&gt;BlastP hit with ctg3_2064&lt;/b&gt;&lt;br&gt;Percentage identity: 94&lt;br&gt;Percentage coverage: 100&lt;br&gt;BLAST bit score: 473&lt;br&gt;E-value: 1.1e-131" locus_tag="VD17_RS13285" class="clusterblast-orf" id="dummy-4_h4_7_6"  />
</g>
<g id="a4_007"  >
<polygon points="312,85 317,80 394,80 394,90 317,90 312,85 " style="fill:#1577d8; stroke-width:1; stroke:black; " description="&lt;b&gt;VD17_RS13290&lt;/b&gt;&lt;br&gt;AcsC protein&lt;br&gt;Location: 9424 - 11295&lt;br&gt;&lt;br&gt;&lt;b&gt;BlastP hit with ctg3_2065&lt;/b&gt;&lt;br&gt;Percentage identity: 90&lt;br&gt;Percentage coverage: 101&lt;br&gt;BLAST bit score: 1151&lt;br&gt;E-value: 0.0" locus_tag="VD17_RS13290" class="clusterblast-orf" id="dummy-4_h4_7_7"  />
</g>
<g id="a4_008"  >
<polygon points="395,85 400,80 457,80 457,90 400,90 395,85 " style="fill:#d815d8; stroke-width:1; stroke:black; " description="&lt;b&gt;VD17_RS13295&lt;/b&gt;&lt;br&gt;MFS transporter&lt;br&gt;Location: 11315 - 12742&lt;br&gt;&lt;br&gt;&lt;b&gt;BlastP hit with ctg3_2066&lt;/b&gt;&lt;br&gt;Percentage identity: 93&lt;br&gt;Percentage coverage: 100&lt;br&gt;BLAST bit score: 831&lt;br&gt;E-value: 6.6e-239" locus_tag="VD17_RS13295" class="clusterblast-orf" id="dummy-4_h4_7_8"  />
</g>
<g id="a4_009"  >
<polygon points="457,85 462,80 510,80 510,90 462,90 457,85 " style="fill:#d8d815; stroke-width:1; stroke:black; " description="&lt;b&gt;VD17_RS13300&lt;/b&gt;&lt;br&gt;diaminopimelate decarboxylase&lt;br&gt;Location: 12739 - 13950&lt;br&gt;&lt;br&gt;&lt;b&gt;BlastP hit with ctg3_2067&lt;/b&gt;&lt;br&gt;Percentage identity: 92&lt;br&gt;Percentage coverage: 100&lt;br&gt;BLAST bit score: 772&lt;br&gt;E-value: 1.8e-221" locus_tag="VD17_RS13300" class="clusterblast-orf" id="dummy-4_h4_7_9"  />
</g>
<g id="a4_0010"  >
<polygon points="510,85 515,80 588,80 588,90 515,90 510,85 " style="fill:#15d877; stroke-width:1; stroke:black; " description="&lt;b&gt;VD17_RS13305&lt;/b&gt;&lt;br&gt;AcsD protein&lt;br&gt;Location: 13943 - 15727&lt;br&gt;&lt;br&gt;&lt;b&gt;BlastP hit with ctg3_2068&lt;/b&gt;&lt;br&gt;Percentage identity: 93&lt;br&gt;Percentage coverage: 100&lt;br&gt;BLAST bit score: 1141&lt;br&gt;E-value: 0.0" locus_tag="VD17_RS13305" class="clusterblast-orf" id="dummy-4_h4_7_10"  />
</g>
<g id="a4_0011"  >
<polygon points="597,85 602,80 658,80 658,90 602,90 597,85 " style="fill:#1515d8; stroke-width:1; stroke:black; " description="&lt;b&gt;VD17_RS13310&lt;/b&gt;&lt;br&gt;diaminobutyrate--2-oxoglutarate transaminase&lt;br&gt;Location: 15940 - 17316&lt;br&gt;&lt;br&gt;&lt;b&gt;BlastP hit with ctg3_2069&lt;/b&gt;&lt;br&gt;Percentage identity: 96&lt;br&gt;Percentage coverage: 100&lt;br&gt;BLAST bit score: 895&lt;br&gt;E-value: 2.8e-258" locus_tag="VD17_RS13310" class="clusterblast-orf" id="dummy-4_h4_7_11"  />
</g>
<g id="a4_0012"  >
<polygon points="673,85 678,80 780,80 780,90 678,90 673,85 " style="fill:#d81577; stroke-width:1; stroke:black; " description="&lt;b&gt;VD17_RS13315&lt;/b&gt;&lt;br&gt;TonB-dependent siderophore receptor&lt;br&gt;Location: 17672 - 20095&lt;br&gt;&lt;br&gt;&lt;b&gt;BlastP hit with ctg3_2070&lt;/b&gt;&lt;br&gt;Percentage identity: 90&lt;br&gt;Percentage coverage: 100&lt;br&gt;BLAST bit score: 1455&lt;br&gt;E-value: 0.0" locus_tag="VD17_RS13315" class="clusterblast-orf" id="dummy-4_h4_7_12"  />
</g>
</svg>
