<svg xmlns="http://www.w3.org/2000/svg" xmlns:xlink="http://www.w3.org/1999/xlink" version="1.1" x="0" y="0" height="230" width="800" viewBox="0 0 800 230" preserveAspectRatio="none"  >
<g label="Query sequence" class="clusterblast-cluster"  >
<text x="5" y="20" class="clusterblast-acc"  >
Query sequence</text>
<line x1="10" y1="35" x2="778.0" y2="35" style="stroke-width:1; stroke:grey; "  />
<polygon points="0,40 22,40 27,35 22,30 0,30 0,40 " style="fill:#d81515; stroke-width:1; stroke:black; " description="&lt;b&gt;ctg4_256&lt;/b&gt;&lt;br&gt;ctg4 256&lt;br&gt;Location: 315122 - 316586" locus_tag="ctg4_256" class="clusterblast-orf" id="dummy-1_q0_0_all"  />
<polygon points="27,35 31,30 31,40 27,35 " style="fill:#6fd815; stroke-width:1; stroke:black; " description="&lt;b&gt;ctg4_257&lt;/b&gt;&lt;br&gt;ctg4 257&lt;br&gt;Location: 316588 - 316825" locus_tag="ctg4_257" class="clusterblast-orf" id="dummy-1_q1_0_all"  />
<polygon points="35,40 38,40 43,35 38,30 35,30 35,40 " style="fill:#15c9d8; stroke-width:1; stroke:black; " description="&lt;b&gt;ctg4_258&lt;/b&gt;&lt;br&gt;ctg4 258&lt;br&gt;Location: 317041 - 317476" locus_tag="ctg4_258" class="clusterblast-orf" id="dummy-1_q2_0_all"  />
<polygon points="46,35 51,30 60,30 60,40 51,40 46,35 " style="fill:#8d15d8; stroke-width:1; stroke:black; " description="&lt;b&gt;ctg4_259&lt;/b&gt;&lt;br&gt;ctg4 259&lt;br&gt;Location: 317609 - 318380" locus_tag="ctg4_259" class="clusterblast-orf" id="dummy-1_q3_0_all"  />
<polygon points="67,40 75,40 80,35 75,30 67,30 67,40 " style="fill:#d83315; stroke-width:1; stroke:black; " description="&lt;b&gt;ctg4_260&lt;/b&gt;&lt;br&gt;ctg4 260&lt;br&gt;Location: 318743 - 319463" locus_tag="ctg4_260" class="clusterblast-orf" id="dummy-1_q4_0_all"  />
<polygon points="80,40 90,40 95,35 90,30 80,30 80,40 " style="fill:#51d815; stroke-width:1; stroke:black; " description="&lt;b&gt;ctg4_261&lt;/b&gt;&lt;br&gt;ctg4 261&lt;br&gt;Location: 319438 - 320248" locus_tag="ctg4_261" class="clusterblast-orf" id="dummy-1_q5_0_all"  />
<polygon points="95,40 99,35 95,30 95,40 " style="fill:#15abd8; stroke-width:1; stroke:black; " description="&lt;b&gt;ctg4_262&lt;/b&gt;&lt;br&gt;ctg4 262&lt;br&gt;Location: 320228 - 320489" locus_tag="ctg4_262" class="clusterblast-orf" id="dummy-1_q6_0_all"  />
<polygon points="100,40 104,35 100,30 100,40 " style="fill:#ab15d8; stroke-width:1; stroke:black; " description="&lt;b&gt;ctg4_263&lt;/b&gt;&lt;br&gt;ctg4 263&lt;br&gt;Location: 320498 - 320753" locus_tag="ctg4_263" class="clusterblast-orf" id="dummy-1_q7_0_all"  />
<polygon points="104,40 109,40 114,35 109,30 104,30 104,40 " style="fill:#d85115; stroke-width:1; stroke:black; " description="&lt;b&gt;ctg4_264&lt;/b&gt;&lt;br&gt;ctg4 264&lt;br&gt;Location: 320749 - 321295" locus_tag="ctg4_264" class="clusterblast-orf" id="dummy-1_q8_0_all"  />
<polygon points="114,40 141,40 146,35 141,30 114,30 114,40 " style="fill:#33d815; stroke-width:1; stroke:black; " description="&lt;b&gt;ctg4_265&lt;/b&gt;&lt;br&gt;ctg4 265&lt;br&gt;Location: 321291 - 322971" locus_tag="ctg4_265" class="clusterblast-orf" id="dummy-1_q9_0_all"  />
<polygon points="147,40 157,40 162,35 157,30 147,30 147,40 " style="fill:#158dd8; stroke-width:1; stroke:black; " description="&lt;b&gt;ctg4_266&lt;/b&gt;&lt;br&gt;ctg4 266&lt;br&gt;Location: 323060 - 323870" locus_tag="ctg4_266" class="clusterblast-orf" id="dummy-1_q10_0_all"  />
<polygon points="162,40 175,40 180,35 175,30 162,30 162,40 " style="fill:#c915d8; stroke-width:1; stroke:black; " description="&lt;b&gt;ctg4_267&lt;/b&gt;&lt;br&gt;ctg4 267&lt;br&gt;Location: 323866 - 324814" locus_tag="ctg4_267" class="clusterblast-orf" id="dummy-1_q11_0_all"  />
<polygon points="179,40 203,40 208,35 203,30 179,30 179,40 " style="fill:#d86f15; stroke-width:1; stroke:black; " description="&lt;b&gt;ctg4_268&lt;/b&gt;&lt;br&gt;ctg4 268&lt;br&gt;Location: 324794 - 326339" locus_tag="ctg4_268" class="clusterblast-orf" id="dummy-1_q12_0_all"  />
<polygon points="208,40 211,40 216,35 211,30 208,30 208,40 " style="fill:#15d815; stroke-width:1; stroke:black; " description="&lt;b&gt;ctg4_269&lt;/b&gt;&lt;br&gt;ctg4 269&lt;br&gt;Location: 326331 - 326757" locus_tag="ctg4_269" class="clusterblast-orf" id="dummy-1_q13_0_all"  />
<polygon points="216,40 224,40 229,35 224,30 216,30 216,40 " style="fill:#156fd8; stroke-width:1; stroke:black; " description="&lt;b&gt;ctg4_270&lt;/b&gt;&lt;br&gt;ctg4 270&lt;br&gt;Location: 326753 - 327488" locus_tag="ctg4_270" class="clusterblast-orf" id="dummy-1_q14_0_all"  />
<polygon points="229,40 268,40 273,35 268,30 229,30 229,40 " style="fill:#d815c9; stroke-width:1; stroke:black; " description="&lt;b&gt;ctg4_271&lt;/b&gt;&lt;br&gt;ctg4 271&lt;br&gt;Location: 327471 - 329814" locus_tag="ctg4_271" class="clusterblast-orf" id="dummy-1_q15_0_all"  />
<polygon points="273,40 289,40 294,35 289,30 273,30 273,40 " style="fill:#d88d15; stroke-width:1; stroke:black; " description="&lt;b&gt;ctg4_272&lt;/b&gt;&lt;br&gt;ctg4 272&lt;br&gt;Location: 329810 - 330971" locus_tag="ctg4_272" class="clusterblast-orf" id="dummy-1_q16_0_all"  />
<polygon points="294,40 312,40 317,35 312,30 294,30 294,40 " style="fill:#15d833; stroke-width:1; stroke:black; " description="&lt;b&gt;ctg4_273&lt;/b&gt;&lt;br&gt;ctg4 273&lt;br&gt;Location: 330957 - 332205" locus_tag="ctg4_273" class="clusterblast-orf" id="dummy-1_q17_0_all"  />
<polygon points="317,40 325,40 330,35 325,30 317,30 317,40 " style="fill:#1551d8; stroke-width:1; stroke:black; " description="&lt;b&gt;ctg4_274&lt;/b&gt;&lt;br&gt;ctg4 274&lt;br&gt;Location: 332201 - 332927" locus_tag="ctg4_274" class="clusterblast-orf" id="dummy-1_q18_0_all"  />
<polygon points="330,40 337,40 342,35 337,30 330,30 330,40 " style="fill:#d815ab; stroke-width:1; stroke:black; " description="&lt;b&gt;ctg4_275&lt;/b&gt;&lt;br&gt;ctg4 275&lt;br&gt;Location: 332926 - 333547" locus_tag="ctg4_275" class="clusterblast-orf" id="dummy-1_q19_0_all"  />
<polygon points="342,40 359,40 364,35 359,30 342,30 342,40 " style="fill:#d8ab15; stroke-width:1; stroke:black; " description="&lt;b&gt;ctg4_276&lt;/b&gt;&lt;br&gt;ctg4 276&lt;br&gt;Location: 333543 - 334740" locus_tag="ctg4_276" class="clusterblast-orf" id="dummy-1_q20_0_all"  />
<polygon points="364,40 368,40 373,35 368,30 364,30 364,40 " style="fill:#15d851; stroke-width:1; stroke:black; " description="&lt;b&gt;ctg4_277&lt;/b&gt;&lt;br&gt;ctg4 277&lt;br&gt;Location: 334736 - 335195" locus_tag="ctg4_277" class="clusterblast-orf" id="dummy-1_q21_0_all"  />
<polygon points="373,40 381,40 386,35 381,30 373,30 373,40 " style="fill:#1533d8; stroke-width:1; stroke:black; " description="&lt;b&gt;ctg4_278&lt;/b&gt;&lt;br&gt;ctg4 278&lt;br&gt;Location: 335194 - 335923" locus_tag="ctg4_278" class="clusterblast-orf" id="dummy-1_q22_0_all"  />
<polygon points="386,40 404,40 409,35 404,30 386,30 386,40 " style="fill:#d8ab15; stroke-width:1; stroke:black; " description="&lt;b&gt;ctg4_279&lt;/b&gt;&lt;br&gt;ctg4 279&lt;br&gt;Location: 335922 - 337149" locus_tag="ctg4_279" class="clusterblast-orf" id="dummy-1_q23_0_all"  />
<polygon points="409,40 413,40 418,35 413,30 409,30 409,40 " style="fill:#d8158d; stroke-width:1; stroke:black; " description="&lt;b&gt;ctg4_280&lt;/b&gt;&lt;br&gt;ctg4 280&lt;br&gt;Location: 337178 - 337625" locus_tag="ctg4_280" class="clusterblast-orf" id="dummy-1_q24_0_all"  />
<polygon points="423,35 428,30 440,30 440,40 428,40 423,35 " style="fill:#d8c915; stroke-width:1; stroke:black; " description="&lt;b&gt;ctg4_281&lt;/b&gt;&lt;br&gt;ctg4 281&lt;br&gt;Location: 337929 - 338808" locus_tag="ctg4_281" class="clusterblast-orf" id="dummy-1_q25_0_all"  />
<polygon points="440,35 445,30 451,30 451,40 445,40 440,35 " style="fill:#15d86f; stroke-width:1; stroke:black; " description="&lt;b&gt;ctg4_282&lt;/b&gt;&lt;br&gt;ctg4 282&lt;br&gt;Location: 338800 - 339397" locus_tag="ctg4_282" class="clusterblast-orf" id="dummy-1_q26_0_all"  />
<polygon points="459,40 461,40 466,35 461,30 459,30 459,40 " style="fill:#1515d8; stroke-width:1; stroke:black; " description="&lt;b&gt;ctg4_283&lt;/b&gt;&lt;br&gt;ctg4 283&lt;br&gt;Location: 339852 - 340236" locus_tag="ctg4_283" class="clusterblast-orf" id="dummy-1_q27_0_all"  />
<polygon points="467,40 467,40 472,35 467,30 467,30 467,40 " style="fill:#d8156f; stroke-width:1; stroke:black; " description="&lt;b&gt;ctg4_284&lt;/b&gt;&lt;br&gt;ctg4 284&lt;br&gt;Location: 340273 - 340528" locus_tag="ctg4_284" class="clusterblast-orf" id="dummy-1_q28_0_all"  />
<polygon points="475,35 479,30 479,40 475,35 " style="fill:#c9d815; stroke-width:1; stroke:black; " description="&lt;b&gt;ctg4_285&lt;/b&gt;&lt;br&gt;ctg4 285&lt;br&gt;Location: 340717 - 340909" locus_tag="ctg4_285" class="clusterblast-orf" id="dummy-1_q29_0_all"  />
<polygon points="482,35 487,30 498,30 498,40 487,40 482,35 " style="fill:#15d88d; stroke-width:1; stroke:black; " description="&lt;b&gt;ctg4_286&lt;/b&gt;&lt;br&gt;ctg4 286&lt;br&gt;Location: 341059 - 341962" locus_tag="ctg4_286" class="clusterblast-orf" id="dummy-1_q30_0_all"  />
<polygon points="500,40 519,40 524,35 519,30 500,30 500,40 " style="fill:#3315d8; stroke-width:1; stroke:black; " description="&lt;b&gt;ctg4_287&lt;/b&gt;&lt;br&gt;ctg4 287&lt;br&gt;Location: 342035 - 343355" locus_tag="ctg4_287" class="clusterblast-orf" id="dummy-1_q31_0_all"  />
<polygon points="528,35 533,30 547,30 547,40 533,40 528,35 " style="fill:#d81551; stroke-width:1; stroke:black; " description="&lt;b&gt;ctg4_288&lt;/b&gt;&lt;br&gt;ctg4 288&lt;br&gt;Location: 343531 - 344599" locus_tag="ctg4_288" class="clusterblast-orf" id="dummy-1_q32_0_all"  />
<polygon points="552,35 557,30 578,30 578,40 557,40 552,35 " style="fill:#abd815; stroke-width:1; stroke:black; " description="&lt;b&gt;ctg4_289&lt;/b&gt;&lt;br&gt;ctg4 289&lt;br&gt;Location: 344851 - 346270" locus_tag="ctg4_289" class="clusterblast-orf" id="dummy-1_q33_0_all"  />
<polygon points="579,35 584,30 662,30 662,40 584,40 579,35 " style="fill:#15d8ab; stroke-width:1; stroke:black; " description="&lt;b&gt;ctg4_290&lt;/b&gt;&lt;br&gt;ctg4 290&lt;br&gt;Location: 346303 - 350749" locus_tag="ctg4_290" class="clusterblast-orf" id="dummy-1_q34_0_all"  />
<polygon points="668,35 673,30 698,30 698,40 673,40 668,35 " style="fill:#5115d8; stroke-width:1; stroke:black; " description="&lt;b&gt;ctg4_291&lt;/b&gt;&lt;br&gt;ctg4 291&lt;br&gt;Location: 351099 - 352689" locus_tag="ctg4_291" class="clusterblast-orf" id="dummy-1_q35_0_all"  />
<polygon points="698,35 703,30 718,30 718,40 703,40 698,35 " style="fill:#d81533; stroke-width:1; stroke:black; " description="&lt;b&gt;ctg4_292&lt;/b&gt;&lt;br&gt;ctg4 292&lt;br&gt;Location: 352699 - 353800" locus_tag="ctg4_292" class="clusterblast-orf" id="dummy-1_q36_0_all"  />
<polygon points="721,35 726,30 730,30 730,40 726,40 721,35 " style="fill:#8dd815; stroke-width:1; stroke:black; " description="&lt;b&gt;ctg4_293&lt;/b&gt;&lt;br&gt;ctg4 293&lt;br&gt;Location: 353951 - 354443" locus_tag="ctg4_293" class="clusterblast-orf" id="dummy-1_q37_0_all"  />
<polygon points="731,35 736,30 770,30 770,40 736,40 731,35 " style="fill:#15d8c9; stroke-width:1; stroke:black; " description="&lt;b&gt;ctg4_294&lt;/b&gt;&lt;br&gt;ctg4 294&lt;br&gt;Location: 354474 - 356562" locus_tag="ctg4_294" class="clusterblast-orf" id="dummy-1_q38_0_all"  />
<polygon points="770,35 775,30 780,30 780,40 775,40 770,35 " style="fill:#6f15d8; stroke-width:1; stroke:black; " description="&lt;b&gt;ctg4_295&lt;/b&gt;&lt;br&gt;ctg4 295&lt;br&gt;Location: 356575 - 357103" locus_tag="ctg4_295" class="clusterblast-orf" id="dummy-1_q39_0_all"  />
</g>
<g label="NZ_LIRD01000003" description="NZ_LIRD01000003_c5: Pseudomonas sp. In5 P.sp In5 contig 3, whole genome shotg... (97% of genes show similarity), arylpolyene" class="clusterblast-cluster"  >
<text x="5" y="70" class="clusterblast-acc"  >
<a xlink:href="https://antismash-db.secondarymetabolites.org/go/NZ_LIRD01000003/5" target="_blank">NZ_LIRD01000003_c5</a>: Pseudomonas sp. In5 P.sp In5 contig 3, whole genome shotg... (97% of genes show similarity), arylpolyene</text>
<line x1="10" y1="85" x2="778.0" y2="85" style="stroke-width:1; stroke:grey; "  />
</g>
<g id="a1_000"  >
<polygon points="0,90 22,90 27,85 22,80 0,80 0,90 " style="fill:#d81515; stroke-width:1; stroke:black; " description="&lt;b&gt;AL066_RS23425&lt;/b&gt;&lt;br&gt;YdiU family protein&lt;br&gt;Location: 315123 - 316586&lt;br&gt;&lt;br&gt;&lt;b&gt;BlastP hit with ctg4_256&lt;/b&gt;&lt;br&gt;Percentage identity: 100&lt;br&gt;Percentage coverage: 100&lt;br&gt;BLAST bit score: 996&lt;br&gt;E-value: 9.4e-289" locus_tag="AL066_RS23425" class="clusterblast-orf" id="dummy-1_h1_1_0"  />
</g>
<g id="a1_001"  >
<polygon points="27,85 31,80 31,90 27,85 " style="fill:#6fd815; stroke-width:1; stroke:black; " description="&lt;b&gt;AL066_RS23430&lt;/b&gt;&lt;br&gt;hypothetical protein&lt;br&gt;Location: 316589 - 316825&lt;br&gt;&lt;br&gt;&lt;b&gt;BlastP hit with ctg4_257&lt;/b&gt;&lt;br&gt;Percentage identity: 100&lt;br&gt;Percentage coverage: 100&lt;br&gt;BLAST bit score: 161&lt;br&gt;E-value: 3.7e-38" locus_tag="AL066_RS23430" class="clusterblast-orf" id="dummy-1_h1_1_1"  />
</g>
<g id="a1_002"  >
<polygon points="35,90 38,90 43,85 38,80 35,80 35,90 " style="fill:#15c9d8; stroke-width:1; stroke:black; " description="&lt;b&gt;AL066_RS23435&lt;/b&gt;&lt;br&gt;thioredoxin TrxC&lt;br&gt;Location: 317042 - 317476&lt;br&gt;&lt;br&gt;&lt;b&gt;BlastP hit with ctg4_258&lt;/b&gt;&lt;br&gt;Percentage identity: 100&lt;br&gt;Percentage coverage: 100&lt;br&gt;BLAST bit score: 305&lt;br&gt;E-value: 3.9e-81" locus_tag="AL066_RS23435" class="clusterblast-orf" id="dummy-1_h1_1_2"  />
</g>
<g id="a1_003"  >
<polygon points="46,85 51,80 60,80 60,90 51,90 46,85 " style="fill:#8d15d8; stroke-width:1; stroke:black; " description="&lt;b&gt;AL066_RS23440&lt;/b&gt;&lt;br&gt;ParA family protein&lt;br&gt;Location: 317610 - 318380&lt;br&gt;&lt;br&gt;&lt;b&gt;BlastP hit with ctg4_259&lt;/b&gt;&lt;br&gt;Percentage identity: 100&lt;br&gt;Percentage coverage: 100&lt;br&gt;BLAST bit score: 503&lt;br&gt;E-value: 1e-140" locus_tag="AL066_RS23440" class="clusterblast-orf" id="dummy-1_h1_1_3"  />
</g>
<g id="a1_004"  >
<polygon points="67,90 75,90 80,85 75,80 67,80 67,90 " style="fill:#d83315; stroke-width:1; stroke:black; " description="&lt;b&gt;AL066_RS23445&lt;/b&gt;&lt;br&gt;3-oxoacyl-ACP synthase&lt;br&gt;Location: 318738 - 319463&lt;br&gt;&lt;br&gt;&lt;b&gt;BlastP hit with ctg4_260&lt;/b&gt;&lt;br&gt;Percentage identity: 100&lt;br&gt;Percentage coverage: 100&lt;br&gt;BLAST bit score: 500&lt;br&gt;E-value: 1e-139" locus_tag="AL066_RS23445" class="clusterblast-orf" id="dummy-1_h1_1_4"  />
</g>
<g id="a1_005"  >
<polygon points="80,90 90,90 95,85 90,80 80,80 80,90 " style="fill:#51d815; stroke-width:1; stroke:black; " description="&lt;b&gt;AL066_RS23450&lt;/b&gt;&lt;br&gt;1-acyl-sn-glycerol-3-phosphate acyltransferase&lt;br&gt;Location: 319439 - 320248&lt;br&gt;&lt;br&gt;&lt;b&gt;BlastP hit with ctg4_261&lt;/b&gt;&lt;br&gt;Percentage identity: 100&lt;br&gt;Percentage coverage: 100&lt;br&gt;BLAST bit score: 554&lt;br&gt;E-value: 5.2e-156" locus_tag="AL066_RS23450" class="clusterblast-orf" id="dummy-1_h1_1_5"  />
</g>
<g id="a1_006"  >
<polygon points="94,90 94,90 99,85 94,80 94,80 94,90 " style="fill:#15abd8; stroke-width:1; stroke:black; " description="&lt;b&gt;AL066_RS23455&lt;/b&gt;&lt;br&gt;acyl carrier protein&lt;br&gt;Location: 320229 - 320489&lt;br&gt;&lt;br&gt;&lt;b&gt;BlastP hit with ctg4_262&lt;/b&gt;&lt;br&gt;Percentage identity: 100&lt;br&gt;Percentage coverage: 100&lt;br&gt;BLAST bit score: 166&lt;br&gt;E-value: 9.8e-40" locus_tag="AL066_RS23455" class="clusterblast-orf" id="dummy-1_h1_1_6"  />
</g>
<g id="a1_007"  >
<polygon points="99,90 99,90 104,85 99,80 99,80 99,90 " style="fill:#ab15d8; stroke-width:1; stroke:black; " description="&lt;b&gt;AL066_RS23460&lt;/b&gt;&lt;br&gt;acyl carrier protein&lt;br&gt;Location: 320499 - 320753&lt;br&gt;&lt;br&gt;&lt;b&gt;BlastP hit with ctg4_263&lt;/b&gt;&lt;br&gt;Percentage identity: 100&lt;br&gt;Percentage coverage: 100&lt;br&gt;BLAST bit score: 161&lt;br&gt;E-value: 5.3e-38" locus_tag="AL066_RS23460" class="clusterblast-orf" id="dummy-1_h1_1_7"  />
</g>
<g id="a1_008"  >
<polygon points="104,90 109,90 114,85 109,80 104,80 104,90 " style="fill:#d85115; stroke-width:1; stroke:black; " description="&lt;b&gt;AL066_RS23465&lt;/b&gt;&lt;br&gt;hypothetical protein&lt;br&gt;Location: 320750 - 321295&lt;br&gt;&lt;br&gt;&lt;b&gt;BlastP hit with ctg4_264&lt;/b&gt;&lt;br&gt;Percentage identity: 100&lt;br&gt;Percentage coverage: 100&lt;br&gt;BLAST bit score: 364&lt;br&gt;E-value: 6.7e-99" locus_tag="AL066_RS23465" class="clusterblast-orf" id="dummy-1_h1_1_8"  />
</g>
<g id="a1_009"  >
<polygon points="114,90 140,90 145,85 140,80 114,80 114,90 " style="fill:#33d815; stroke-width:1; stroke:black; " description="&lt;b&gt;AL066_RS23470&lt;/b&gt;&lt;br&gt;AMP-binding protein&lt;br&gt;Location: 321292 - 322971&lt;br&gt;&lt;br&gt;&lt;b&gt;BlastP hit with ctg4_265&lt;/b&gt;&lt;br&gt;Percentage identity: 100&lt;br&gt;Percentage coverage: 100&lt;br&gt;BLAST bit score: 1116&lt;br&gt;E-value: 0.0" locus_tag="AL066_RS23470" class="clusterblast-orf" id="dummy-1_h1_1_9"  />
</g>
<g id="a1_0010"  >
<polygon points="148,90 157,90 162,85 157,80 148,80 148,90 " style="fill:#158dd8; stroke-width:1; stroke:black; " description="&lt;b&gt;AL066_RS23475&lt;/b&gt;&lt;br&gt;glycosyltransferase family 2 protein&lt;br&gt;Location: 323136 - 323870&lt;br&gt;&lt;br&gt;&lt;b&gt;BlastP hit with ctg4_266&lt;/b&gt;&lt;br&gt;Percentage identity: 100&lt;br&gt;Percentage coverage: 91&lt;br&gt;BLAST bit score: 500&lt;br&gt;E-value: 1.5e-139" locus_tag="AL066_RS23475" class="clusterblast-orf" id="dummy-1_h1_1_10"  />
</g>
<g id="a1_0011"  >
<polygon points="162,90 175,90 180,85 175,80 162,80 162,90 " style="fill:#c915d8; stroke-width:1; stroke:black; " description="&lt;b&gt;AL066_RS23480&lt;/b&gt;&lt;br&gt;glycosyl transferase&lt;br&gt;Location: 323867 - 324814&lt;br&gt;&lt;br&gt;&lt;b&gt;BlastP hit with ctg4_267&lt;/b&gt;&lt;br&gt;Percentage identity: 100&lt;br&gt;Percentage coverage: 100&lt;br&gt;BLAST bit score: 658&lt;br&gt;E-value: 3e-187" locus_tag="AL066_RS23480" class="clusterblast-orf" id="dummy-1_h1_1_11"  />
</g>
<g id="a1_0012"  >
<polygon points="179,90 203,90 208,85 203,80 179,80 179,90 " style="fill:#d86f15; stroke-width:1; stroke:black; " description="&lt;b&gt;AL066_RS23485&lt;/b&gt;&lt;br&gt;aromatic amino acid lyase&lt;br&gt;Location: 324795 - 326339&lt;br&gt;&lt;br&gt;&lt;b&gt;BlastP hit with ctg4_268&lt;/b&gt;&lt;br&gt;Percentage identity: 100&lt;br&gt;Percentage coverage: 100&lt;br&gt;BLAST bit score: 1020&lt;br&gt;E-value: 6.4e-296" locus_tag="AL066_RS23485" class="clusterblast-orf" id="dummy-1_h1_1_12"  />
</g>
<g id="a1_0013"  >
<polygon points="208,90 211,90 216,85 211,80 208,80 208,90 " style="fill:#15d815; stroke-width:1; stroke:black; " description="&lt;b&gt;AL066_RS23490&lt;/b&gt;&lt;br&gt;acyl-CoA thioesterase&lt;br&gt;Location: 326332 - 326757&lt;br&gt;&lt;br&gt;&lt;b&gt;BlastP hit with ctg4_269&lt;/b&gt;&lt;br&gt;Percentage identity: 100&lt;br&gt;Percentage coverage: 100&lt;br&gt;BLAST bit score: 287&lt;br&gt;E-value: 1.1e-75" locus_tag="AL066_RS23490" class="clusterblast-orf" id="dummy-1_h1_1_13"  />
</g>
<g id="a1_0014"  >
<polygon points="219,90 224,90 229,85 224,80 219,80 219,90 " style="fill:#156fd8; stroke-width:1; stroke:black; " description="&lt;b&gt;AL066_RS23495&lt;/b&gt;&lt;br&gt;outer membrane lipoprotein carrier protein LolA&lt;br&gt;Location: 326922 - 327488&lt;br&gt;&lt;br&gt;&lt;b&gt;BlastP hit with ctg4_270&lt;/b&gt;&lt;br&gt;Percentage identity: 100&lt;br&gt;Percentage coverage: 77&lt;br&gt;BLAST bit score: 373&lt;br&gt;E-value: 2e-101" locus_tag="AL066_RS23495" class="clusterblast-orf" id="dummy-1_h1_1_14"  />
</g>
<g id="a1_0015"  >
<polygon points="229,90 267,90 272,85 267,80 229,80 229,90 " style="fill:#d815c9; stroke-width:1; stroke:black; " description="&lt;b&gt;AL066_RS23500&lt;/b&gt;&lt;br&gt;hypothetical protein&lt;br&gt;Location: 327472 - 329814&lt;br&gt;&lt;br&gt;&lt;b&gt;BlastP hit with ctg4_271&lt;/b&gt;&lt;br&gt;Percentage identity: 100&lt;br&gt;Percentage coverage: 100&lt;br&gt;BLAST bit score: 1478&lt;br&gt;E-value: 0.0" locus_tag="AL066_RS23500" class="clusterblast-orf" id="dummy-1_h1_1_15"  />
</g>
<g id="a1_0016"  >
<polygon points="272,90 289,90 294,85 289,80 272,80 272,90 " style="fill:#d88d15; stroke-width:1; stroke:black; " description="&lt;b&gt;AL066_RS23505&lt;/b&gt;&lt;br&gt;hypothetical protein&lt;br&gt;Location: 329811 - 330971&lt;br&gt;&lt;br&gt;&lt;b&gt;BlastP hit with ctg4_272&lt;/b&gt;&lt;br&gt;Percentage identity: 100&lt;br&gt;Percentage coverage: 100&lt;br&gt;BLAST bit score: 737&lt;br&gt;E-value: 1.1e-210" locus_tag="AL066_RS23505" class="clusterblast-orf" id="dummy-1_h1_1_16"  />
</g>
<g id="a1_0017"  >
<polygon points="294,90 312,90 317,85 312,80 294,80 294,90 " style="fill:#15d833; stroke-width:1; stroke:black; " description="&lt;b&gt;AL066_RS23510&lt;/b&gt;&lt;br&gt;NAD(P)/FAD-dependent oxidoreductase&lt;br&gt;Location: 330958 - 332205&lt;br&gt;&lt;br&gt;&lt;b&gt;BlastP hit with ctg4_273&lt;/b&gt;&lt;br&gt;Percentage identity: 100&lt;br&gt;Percentage coverage: 100&lt;br&gt;BLAST bit score: 850&lt;br&gt;E-value: 9.3e-245" locus_tag="AL066_RS23510" class="clusterblast-orf" id="dummy-1_h1_1_17"  />
</g>
<g id="a1_0018"  >
<polygon points="317,90 325,90 330,85 325,80 317,80 317,90 " style="fill:#1551d8; stroke-width:1; stroke:black; " description="&lt;b&gt;AL066_RS23515&lt;/b&gt;&lt;br&gt;class I SAM-dependent methyltransferase&lt;br&gt;Location: 332202 - 332927&lt;br&gt;&lt;br&gt;&lt;b&gt;BlastP hit with ctg4_274&lt;/b&gt;&lt;br&gt;Percentage identity: 100&lt;br&gt;Percentage coverage: 100&lt;br&gt;BLAST bit score: 504&lt;br&gt;E-value: 5.6e-141" locus_tag="AL066_RS23515" class="clusterblast-orf" id="dummy-1_h1_1_18"  />
</g>
<g id="a1_0019"  >
<polygon points="333,90 337,90 342,85 337,80 333,80 333,90 " style="fill:#d815ab; stroke-width:1; stroke:black; " description="&lt;b&gt;AL066_RS23520&lt;/b&gt;&lt;br&gt;hypothetical protein&lt;br&gt;Location: 333065 - 333547&lt;br&gt;&lt;br&gt;&lt;b&gt;BlastP hit with ctg4_275&lt;/b&gt;&lt;br&gt;Percentage identity: 99&lt;br&gt;Percentage coverage: 78&lt;br&gt;BLAST bit score: 331&lt;br&gt;E-value: 5.5e-89" locus_tag="AL066_RS23520" class="clusterblast-orf" id="dummy-1_h1_1_19"  />
</g>
<g id="a1_0020"  >
<polygon points="342,90 359,90 364,85 359,80 342,80 342,90 " style="fill:#d8ab15; stroke-width:1; stroke:black; " description="&lt;b&gt;AL066_RS23525&lt;/b&gt;&lt;br&gt;beta-ketoacyl-[acyl-carrier-protein] synthase II&lt;br&gt;Location: 333544 - 334740&lt;br&gt;&lt;br&gt;&lt;b&gt;BlastP hit with ctg4_276&lt;/b&gt;&lt;br&gt;Percentage identity: 100&lt;br&gt;Percentage coverage: 100&lt;br&gt;BLAST bit score: 794&lt;br&gt;E-value: 7.6e-228&lt;br&gt;&lt;br&gt;&lt;b&gt;BlastP hit with ctg4_279&lt;/b&gt;&lt;br&gt;Percentage identity: 33&lt;br&gt;Percentage coverage: 100&lt;br&gt;BLAST bit score: 150&lt;br&gt;E-value: 4.5e-34" locus_tag="AL066_RS23525" class="clusterblast-orf" id="dummy-1_h1_1_20"  />
</g>
<g id="a1_0021"  >
<polygon points="364,90 367,90 372,85 367,80 364,80 364,90 " style="fill:#15d851; stroke-width:1; stroke:black; " description="&lt;b&gt;AL066_RS23530&lt;/b&gt;&lt;br&gt;3-hydroxylacyl-ACP dehydratase&lt;br&gt;Location: 334737 - 335195&lt;br&gt;&lt;br&gt;&lt;b&gt;BlastP hit with ctg4_277&lt;/b&gt;&lt;br&gt;Percentage identity: 100&lt;br&gt;Percentage coverage: 100&lt;br&gt;BLAST bit score: 321&lt;br&gt;E-value: 5.5e-86" locus_tag="AL066_RS23530" class="clusterblast-orf" id="dummy-1_h1_1_21"  />
</g>
<g id="a1_0022"  >
<polygon points="372,90 381,90 386,85 381,80 372,80 372,90 " style="fill:#1533d8; stroke-width:1; stroke:black; " description="&lt;b&gt;AL066_RS23535&lt;/b&gt;&lt;br&gt;3-oxoacyl-ACP reductase FabG&lt;br&gt;Location: 335195 - 335923&lt;br&gt;&lt;br&gt;&lt;b&gt;BlastP hit with ctg4_278&lt;/b&gt;&lt;br&gt;Percentage identity: 100&lt;br&gt;Percentage coverage: 100&lt;br&gt;BLAST bit score: 469&lt;br&gt;E-value: 2e-130" locus_tag="AL066_RS23535" class="clusterblast-orf" id="dummy-1_h1_1_22"  />
</g>
<g id="a1_0023"  >
<polygon points="386,90 404,90 409,85 404,80 386,80 386,90 " style="fill:#d8ab15; stroke-width:1; stroke:black; " description="&lt;b&gt;AL066_RS23540&lt;/b&gt;&lt;br&gt;beta-ketoacyl-ACP synthase II&lt;br&gt;Location: 335923 - 337149&lt;br&gt;&lt;br&gt;&lt;b&gt;BlastP hit with ctg4_276&lt;/b&gt;&lt;br&gt;Percentage identity: 33&lt;br&gt;Percentage coverage: 102&lt;br&gt;BLAST bit score: 141&lt;br&gt;E-value: 1.6e-31&lt;br&gt;&lt;br&gt;&lt;b&gt;BlastP hit with ctg4_279&lt;/b&gt;&lt;br&gt;Percentage identity: 100&lt;br&gt;Percentage coverage: 100&lt;br&gt;BLAST bit score: 822&lt;br&gt;E-value: 2.7e-236" locus_tag="AL066_RS23540" class="clusterblast-orf" id="dummy-1_h1_1_23"  />
</g>
<g id="a1_0024"  >
<polygon points="409,90 413,90 418,85 413,80 409,80 409,90 " style="fill:#d8158d; stroke-width:1; stroke:black; " description="&lt;b&gt;AL066_RS23545&lt;/b&gt;&lt;br&gt;hypothetical protein&lt;br&gt;Location: 337179 - 337625&lt;br&gt;&lt;br&gt;&lt;b&gt;BlastP hit with ctg4_280&lt;/b&gt;&lt;br&gt;Percentage identity: 100&lt;br&gt;Percentage coverage: 100&lt;br&gt;BLAST bit score: 286&lt;br&gt;E-value: 1.9e-75" locus_tag="AL066_RS23545" class="clusterblast-orf" id="dummy-1_h1_1_24"  />
</g>
<g id="a1_0025"  >
<polygon points="423,85 428,80 440,80 440,90 428,90 423,85 " style="fill:#d8c915; stroke-width:1; stroke:black; " description="&lt;b&gt;AL066_RS23550&lt;/b&gt;&lt;br&gt;hypothetical protein&lt;br&gt;Location: 337930 - 338808&lt;br&gt;&lt;br&gt;&lt;b&gt;BlastP hit with ctg4_281&lt;/b&gt;&lt;br&gt;Percentage identity: 100&lt;br&gt;Percentage coverage: 100&lt;br&gt;BLAST bit score: 542&lt;br&gt;E-value: 2.2e-152" locus_tag="AL066_RS23550" class="clusterblast-orf" id="dummy-1_h1_1_25"  />
</g>
<g id="a1_0026"  >
<polygon points="439,85 444,80 451,80 451,90 444,90 439,85 " style="fill:#15d86f; stroke-width:1; stroke:black; " description="&lt;b&gt;AL066_RS23555&lt;/b&gt;&lt;br&gt;XRE family transcriptional regulator&lt;br&gt;Location: 338801 - 339397&lt;br&gt;&lt;br&gt;&lt;b&gt;BlastP hit with ctg4_282&lt;/b&gt;&lt;br&gt;Percentage identity: 100&lt;br&gt;Percentage coverage: 100&lt;br&gt;BLAST bit score: 383&lt;br&gt;E-value: 2e-104" locus_tag="AL066_RS23555" class="clusterblast-orf" id="dummy-1_h1_1_26"  />
</g>
<g id="a1_0027"  >
<polygon points="459,90 461,90 466,85 461,80 459,80 459,90 " style="fill:#1515d8; stroke-width:1; stroke:black; " description="&lt;b&gt;AL066_RS23560&lt;/b&gt;&lt;br&gt;hypothetical protein&lt;br&gt;Location: 339853 - 340236&lt;br&gt;&lt;br&gt;&lt;b&gt;BlastP hit with ctg4_283&lt;/b&gt;&lt;br&gt;Percentage identity: 100&lt;br&gt;Percentage coverage: 100&lt;br&gt;BLAST bit score: 249&lt;br&gt;E-value: 2.2e-64" locus_tag="AL066_RS23560" class="clusterblast-orf" id="dummy-1_h1_1_27"  />
</g>
<g id="a1_0028"  >
<polygon points="467,90 467,90 472,85 467,80 467,80 467,90 " style="fill:#d8156f; stroke-width:1; stroke:black; " description="&lt;b&gt;AL066_RS23565&lt;/b&gt;&lt;br&gt;hypothetical protein&lt;br&gt;Location: 340274 - 340528&lt;br&gt;&lt;br&gt;&lt;b&gt;BlastP hit with ctg4_284&lt;/b&gt;&lt;br&gt;Percentage identity: 100&lt;br&gt;Percentage coverage: 100&lt;br&gt;BLAST bit score: 171&lt;br&gt;E-value: 5.1e-41" locus_tag="AL066_RS23565" class="clusterblast-orf" id="dummy-1_h1_1_28"  />
</g>
<g id="a1_0029"  >
<polygon points="475,85 479,80 479,90 475,85 " style="fill:#c9d815; stroke-width:1; stroke:black; " description="&lt;b&gt;AL066_RS23570&lt;/b&gt;&lt;br&gt;hypothetical protein&lt;br&gt;Location: 340718 - 340909&lt;br&gt;&lt;br&gt;&lt;b&gt;BlastP hit with ctg4_285&lt;/b&gt;&lt;br&gt;Percentage identity: 100&lt;br&gt;Percentage coverage: 100&lt;br&gt;BLAST bit score: 125&lt;br&gt;E-value: 2.4e-27" locus_tag="AL066_RS23570" class="clusterblast-orf" id="dummy-1_h1_1_29"  />
</g>
<g id="a1_0030"  >
<polygon points="481,85 486,80 498,80 498,90 486,90 481,85 " style="fill:#15d88d; stroke-width:1; stroke:black; " description="&lt;b&gt;AL066_RS23575&lt;/b&gt;&lt;br&gt;LysR family transcriptional regulator&lt;br&gt;Location: 341060 - 341962&lt;br&gt;&lt;br&gt;&lt;b&gt;BlastP hit with ctg4_286&lt;/b&gt;&lt;br&gt;Percentage identity: 100&lt;br&gt;Percentage coverage: 100&lt;br&gt;BLAST bit score: 568&lt;br&gt;E-value: 5.1e-160" locus_tag="AL066_RS23575" class="clusterblast-orf" id="dummy-1_h1_1_30"  />
</g>
<g id="a1_0031"  >
<polygon points="500,90 519,90 524,85 519,80 500,80 500,90 " style="fill:#3315d8; stroke-width:1; stroke:black; " description="&lt;b&gt;AL066_RS23580&lt;/b&gt;&lt;br&gt;MFS transporter&lt;br&gt;Location: 342081 - 343355&lt;br&gt;&lt;br&gt;&lt;b&gt;BlastP hit with ctg4_287&lt;/b&gt;&lt;br&gt;Percentage identity: 100&lt;br&gt;Percentage coverage: 97&lt;br&gt;BLAST bit score: 797&lt;br&gt;E-value: 9.9e-229" locus_tag="AL066_RS23580" class="clusterblast-orf" id="dummy-1_h1_1_31"  />
</g>
<g id="a1_0032"  >
<polygon points="527,85 532,80 547,80 547,90 532,90 527,85 " style="fill:#d81551; stroke-width:1; stroke:black; " description="&lt;b&gt;AL066_RS23585&lt;/b&gt;&lt;br&gt;uroporphyrinogen decarboxylase&lt;br&gt;Location: 343532 - 344599&lt;br&gt;&lt;br&gt;&lt;b&gt;BlastP hit with ctg4_288&lt;/b&gt;&lt;br&gt;Percentage identity: 100&lt;br&gt;Percentage coverage: 100&lt;br&gt;BLAST bit score: 727&lt;br&gt;E-value: 5.9e-208" locus_tag="AL066_RS23585" class="clusterblast-orf" id="dummy-1_h1_1_32"  />
</g>
<g id="a1_0033"  >
<polygon points="552,85 557,80 578,80 578,90 557,90 552,85 " style="fill:#abd815; stroke-width:1; stroke:black; " description="&lt;b&gt;AL066_RS23590&lt;/b&gt;&lt;br&gt;glutamate synthase&lt;br&gt;Location: 344852 - 346270&lt;br&gt;&lt;br&gt;&lt;b&gt;BlastP hit with ctg4_289&lt;/b&gt;&lt;br&gt;Percentage identity: 100&lt;br&gt;Percentage coverage: 100&lt;br&gt;BLAST bit score: 972&lt;br&gt;E-value: 1.4e-281" locus_tag="AL066_RS23590" class="clusterblast-orf" id="dummy-1_h1_1_33"  />
</g>
<g id="a1_0034"  >
<polygon points="579,85 584,80 661,80 661,90 584,90 579,85 " style="fill:#15d8ab; stroke-width:1; stroke:black; " description="&lt;b&gt;AL066_RS23595&lt;/b&gt;&lt;br&gt;glutamate synthase large subunit&lt;br&gt;Location: 346304 - 350749&lt;br&gt;&lt;br&gt;&lt;b&gt;BlastP hit with ctg4_290&lt;/b&gt;&lt;br&gt;Percentage identity: 100&lt;br&gt;Percentage coverage: 100&lt;br&gt;BLAST bit score: 2849&lt;br&gt;E-value: 0.0" locus_tag="AL066_RS23595" class="clusterblast-orf" id="dummy-1_h1_1_34"  />
</g>
<g id="a1_0035"  >
<polygon points="660,90 661,90 666,85 661,80 660,80 660,90 " style="fill:white; stroke-width:1; stroke:black; " description="&lt;b&gt;AL066_RS32575&lt;/b&gt;&lt;br&gt;hypothetical protein&lt;br&gt;Location: 350663 - 351002" locus_tag="AL066_RS32575" class="clusterblast-orf" id="dummy-1_h1_1_35"  />
</g>
<g id="a1_0036"  >
<polygon points="668,85 673,80 697,80 697,90 673,90 668,85 " style="fill:#5115d8; stroke-width:1; stroke:black; " description="&lt;b&gt;AL066_RS23600&lt;/b&gt;&lt;br&gt;cell division protein&lt;br&gt;Location: 351100 - 352689&lt;br&gt;&lt;br&gt;&lt;b&gt;BlastP hit with ctg4_291&lt;/b&gt;&lt;br&gt;Percentage identity: 100&lt;br&gt;Percentage coverage: 100&lt;br&gt;BLAST bit score: 882&lt;br&gt;E-value: 2.8e-254" locus_tag="AL066_RS23600" class="clusterblast-orf" id="dummy-1_h1_1_36"  />
</g>
<g id="a1_0037"  >
<polygon points="698,85 703,80 718,80 718,90 703,90 698,85 " style="fill:#d81533; stroke-width:1; stroke:black; " description="&lt;b&gt;AL066_RS23605&lt;/b&gt;&lt;br&gt;3-dehydroquinate synthase&lt;br&gt;Location: 352700 - 353800&lt;br&gt;&lt;br&gt;&lt;b&gt;BlastP hit with ctg4_292&lt;/b&gt;&lt;br&gt;Percentage identity: 100&lt;br&gt;Percentage coverage: 100&lt;br&gt;BLAST bit score: 730&lt;br&gt;E-value: 1.2e-208" locus_tag="AL066_RS23605" class="clusterblast-orf" id="dummy-1_h1_1_37"  />
</g>
<g id="a1_0038"  >
<polygon points="721,85 726,80 731,80 731,90 726,90 721,85 " style="fill:#8dd815; stroke-width:1; stroke:black; " description="&lt;b&gt;AL066_RS23610&lt;/b&gt;&lt;br&gt;shikimate kinase AroK&lt;br&gt;Location: 353952 - 354470&lt;br&gt;&lt;br&gt;&lt;b&gt;BlastP hit with ctg4_293&lt;/b&gt;&lt;br&gt;Percentage identity: 100&lt;br&gt;Percentage coverage: 100&lt;br&gt;BLAST bit score: 324&lt;br&gt;E-value: 9.1e-87" locus_tag="AL066_RS23610" class="clusterblast-orf" id="dummy-1_h1_1_38"  />
</g>
<g id="a1_0039"  >
<polygon points="731,85 736,80 769,80 769,90 736,90 731,85 " style="fill:#15d8c9; stroke-width:1; stroke:black; " description="&lt;b&gt;AL066_RS23615&lt;/b&gt;&lt;br&gt;type IV pilus secretin PilQ&lt;br&gt;Location: 354475 - 356562&lt;br&gt;&lt;br&gt;&lt;b&gt;BlastP hit with ctg4_294&lt;/b&gt;&lt;br&gt;Percentage identity: 100&lt;br&gt;Percentage coverage: 100&lt;br&gt;BLAST bit score: 1287&lt;br&gt;E-value: 0.0" locus_tag="AL066_RS23615" class="clusterblast-orf" id="dummy-1_h1_1_39"  />
</g>
<g id="a1_0040"  >
<polygon points="770,85 775,80 779,80 779,90 775,90 770,85 " style="fill:#6f15d8; stroke-width:1; stroke:black; " description="&lt;b&gt;AL066_RS23620&lt;/b&gt;&lt;br&gt;pilus assembly protein PilP&lt;br&gt;Location: 356576 - 357103&lt;br&gt;&lt;br&gt;&lt;b&gt;BlastP hit with ctg4_295&lt;/b&gt;&lt;br&gt;Percentage identity: 100&lt;br&gt;Percentage coverage: 100&lt;br&gt;BLAST bit score: 363&lt;br&gt;E-value: 1.5e-98" locus_tag="AL066_RS23620" class="clusterblast-orf" id="dummy-1_h1_1_40"  />
</g>
</svg>
