<svg xmlns="http://www.w3.org/2000/svg" xmlns:xlink="http://www.w3.org/1999/xlink" version="1.1" x="0" y="0" height="230" width="800" viewBox="0 0 800 230" preserveAspectRatio="none"  >
<g label="Query sequence" class="clusterblast-cluster"  >
<text x="5" y="20" class="clusterblast-acc"  >
Query sequence</text>
<line x1="10" y1="35" x2="778.0" y2="35" style="stroke-width:1; stroke:grey; "  />
<polygon points="2,40 24,40 29,35 24,30 2,30 2,40 " style="fill:#d81515; stroke-width:1; stroke:black; " description="&lt;b&gt;ctg4_256&lt;/b&gt;&lt;br&gt;ctg4 256&lt;br&gt;Location: 315122 - 316586" locus_tag="ctg4_256" class="clusterblast-orf" id="dummy-1_q0_0_all"  />
<polygon points="29,35 33,30 33,40 29,35 " style="fill:#6fd815; stroke-width:1; stroke:black; " description="&lt;b&gt;ctg4_257&lt;/b&gt;&lt;br&gt;ctg4 257&lt;br&gt;Location: 316588 - 316825" locus_tag="ctg4_257" class="clusterblast-orf" id="dummy-1_q1_0_all"  />
<polygon points="37,40 40,40 45,35 40,30 37,30 37,40 " style="fill:#15c9d8; stroke-width:1; stroke:black; " description="&lt;b&gt;ctg4_258&lt;/b&gt;&lt;br&gt;ctg4 258&lt;br&gt;Location: 317041 - 317476" locus_tag="ctg4_258" class="clusterblast-orf" id="dummy-1_q2_0_all"  />
<polygon points="48,35 53,30 62,30 62,40 53,40 48,35 " style="fill:#8d15d8; stroke-width:1; stroke:black; " description="&lt;b&gt;ctg4_259&lt;/b&gt;&lt;br&gt;ctg4 259&lt;br&gt;Location: 317609 - 318380" locus_tag="ctg4_259" class="clusterblast-orf" id="dummy-1_q3_0_all"  />
<polygon points="69,40 77,40 82,35 77,30 69,30 69,40 " style="fill:#d83315; stroke-width:1; stroke:black; " description="&lt;b&gt;ctg4_260&lt;/b&gt;&lt;br&gt;ctg4 260&lt;br&gt;Location: 318743 - 319463" locus_tag="ctg4_260" class="clusterblast-orf" id="dummy-1_q4_0_all"  />
<polygon points="81,40 91,40 96,35 91,30 81,30 81,40 " style="fill:#51d815; stroke-width:1; stroke:black; " description="&lt;b&gt;ctg4_261&lt;/b&gt;&lt;br&gt;ctg4 261&lt;br&gt;Location: 319438 - 320248" locus_tag="ctg4_261" class="clusterblast-orf" id="dummy-1_q5_0_all"  />
<polygon points="96,40 96,40 101,35 96,30 96,30 96,40 " style="fill:#15abd8; stroke-width:1; stroke:black; " description="&lt;b&gt;ctg4_262&lt;/b&gt;&lt;br&gt;ctg4 262&lt;br&gt;Location: 320228 - 320489" locus_tag="ctg4_262" class="clusterblast-orf" id="dummy-1_q6_0_all"  />
<polygon points="101,40 101,40 106,35 101,30 101,30 101,40 " style="fill:#ab15d8; stroke-width:1; stroke:black; " description="&lt;b&gt;ctg4_263&lt;/b&gt;&lt;br&gt;ctg4 263&lt;br&gt;Location: 320498 - 320753" locus_tag="ctg4_263" class="clusterblast-orf" id="dummy-1_q7_0_all"  />
<polygon points="106,40 111,40 116,35 111,30 106,30 106,40 " style="fill:#d85115; stroke-width:1; stroke:black; " description="&lt;b&gt;ctg4_264&lt;/b&gt;&lt;br&gt;ctg4 264&lt;br&gt;Location: 320749 - 321295" locus_tag="ctg4_264" class="clusterblast-orf" id="dummy-1_q8_0_all"  />
<polygon points="116,40 142,40 147,35 142,30 116,30 116,40 " style="fill:#33d815; stroke-width:1; stroke:black; " description="&lt;b&gt;ctg4_265&lt;/b&gt;&lt;br&gt;ctg4 265&lt;br&gt;Location: 321291 - 322971" locus_tag="ctg4_265" class="clusterblast-orf" id="dummy-1_q9_0_all"  />
<polygon points="148,40 158,40 163,35 158,30 148,30 148,40 " style="fill:#158dd8; stroke-width:1; stroke:black; " description="&lt;b&gt;ctg4_266&lt;/b&gt;&lt;br&gt;ctg4 266&lt;br&gt;Location: 323060 - 323870" locus_tag="ctg4_266" class="clusterblast-orf" id="dummy-1_q10_0_all"  />
<polygon points="163,40 176,40 181,35 176,30 163,30 163,40 " style="fill:#c915d8; stroke-width:1; stroke:black; " description="&lt;b&gt;ctg4_267&lt;/b&gt;&lt;br&gt;ctg4 267&lt;br&gt;Location: 323866 - 324814" locus_tag="ctg4_267" class="clusterblast-orf" id="dummy-1_q11_0_all"  />
<polygon points="180,40 204,40 209,35 204,30 180,30 180,40 " style="fill:#d86f15; stroke-width:1; stroke:black; " description="&lt;b&gt;ctg4_268&lt;/b&gt;&lt;br&gt;ctg4 268&lt;br&gt;Location: 324794 - 326339" locus_tag="ctg4_268" class="clusterblast-orf" id="dummy-1_q12_0_all"  />
<polygon points="209,40 212,40 217,35 212,30 209,30 209,40 " style="fill:#15d815; stroke-width:1; stroke:black; " description="&lt;b&gt;ctg4_269&lt;/b&gt;&lt;br&gt;ctg4 269&lt;br&gt;Location: 326331 - 326757" locus_tag="ctg4_269" class="clusterblast-orf" id="dummy-1_q13_0_all"  />
<polygon points="217,40 225,40 230,35 225,30 217,30 217,40 " style="fill:#156fd8; stroke-width:1; stroke:black; " description="&lt;b&gt;ctg4_270&lt;/b&gt;&lt;br&gt;ctg4 270&lt;br&gt;Location: 326753 - 327488" locus_tag="ctg4_270" class="clusterblast-orf" id="dummy-1_q14_0_all"  />
<polygon points="230,40 268,40 273,35 268,30 230,30 230,40 " style="fill:#d815c9; stroke-width:1; stroke:black; " description="&lt;b&gt;ctg4_271&lt;/b&gt;&lt;br&gt;ctg4 271&lt;br&gt;Location: 327471 - 329814" locus_tag="ctg4_271" class="clusterblast-orf" id="dummy-1_q15_0_all"  />
<polygon points="273,40 290,40 295,35 290,30 273,30 273,40 " style="fill:#d88d15; stroke-width:1; stroke:black; " description="&lt;b&gt;ctg4_272&lt;/b&gt;&lt;br&gt;ctg4 272&lt;br&gt;Location: 329810 - 330971" locus_tag="ctg4_272" class="clusterblast-orf" id="dummy-1_q16_0_all"  />
<polygon points="294,40 312,40 317,35 312,30 294,30 294,40 " style="fill:#15d833; stroke-width:1; stroke:black; " description="&lt;b&gt;ctg4_273&lt;/b&gt;&lt;br&gt;ctg4 273&lt;br&gt;Location: 330957 - 332205" locus_tag="ctg4_273" class="clusterblast-orf" id="dummy-1_q17_0_all"  />
<polygon points="317,40 326,40 331,35 326,30 317,30 317,40 " style="fill:#1551d8; stroke-width:1; stroke:black; " description="&lt;b&gt;ctg4_274&lt;/b&gt;&lt;br&gt;ctg4 274&lt;br&gt;Location: 332201 - 332927" locus_tag="ctg4_274" class="clusterblast-orf" id="dummy-1_q18_0_all"  />
<polygon points="331,40 337,40 342,35 337,30 331,30 331,40 " style="fill:#d815ab; stroke-width:1; stroke:black; " description="&lt;b&gt;ctg4_275&lt;/b&gt;&lt;br&gt;ctg4 275&lt;br&gt;Location: 332926 - 333547" locus_tag="ctg4_275" class="clusterblast-orf" id="dummy-1_q19_0_all"  />
<polygon points="342,40 359,40 364,35 359,30 342,30 342,40 " style="fill:#d8ab15; stroke-width:1; stroke:black; " description="&lt;b&gt;ctg4_276&lt;/b&gt;&lt;br&gt;ctg4 276&lt;br&gt;Location: 333543 - 334740" locus_tag="ctg4_276" class="clusterblast-orf" id="dummy-1_q20_0_all"  />
<polygon points="364,40 368,40 373,35 368,30 364,30 364,40 " style="fill:#15d851; stroke-width:1; stroke:black; " description="&lt;b&gt;ctg4_277&lt;/b&gt;&lt;br&gt;ctg4 277&lt;br&gt;Location: 334736 - 335195" locus_tag="ctg4_277" class="clusterblast-orf" id="dummy-1_q21_0_all"  />
<polygon points="373,40 381,40 386,35 381,30 373,30 373,40 " style="fill:#1533d8; stroke-width:1; stroke:black; " description="&lt;b&gt;ctg4_278&lt;/b&gt;&lt;br&gt;ctg4 278&lt;br&gt;Location: 335194 - 335923" locus_tag="ctg4_278" class="clusterblast-orf" id="dummy-1_q22_0_all"  />
<polygon points="386,40 404,40 409,35 404,30 386,30 386,40 " style="fill:#d8ab15; stroke-width:1; stroke:black; " description="&lt;b&gt;ctg4_279&lt;/b&gt;&lt;br&gt;ctg4 279&lt;br&gt;Location: 335922 - 337149" locus_tag="ctg4_279" class="clusterblast-orf" id="dummy-1_q23_0_all"  />
<polygon points="409,40 413,40 418,35 413,30 409,30 409,40 " style="fill:#d8158d; stroke-width:1; stroke:black; " description="&lt;b&gt;ctg4_280&lt;/b&gt;&lt;br&gt;ctg4 280&lt;br&gt;Location: 337178 - 337625" locus_tag="ctg4_280" class="clusterblast-orf" id="dummy-1_q24_0_all"  />
<polygon points="423,35 428,30 440,30 440,40 428,40 423,35 " style="fill:#d8c915; stroke-width:1; stroke:black; " description="&lt;b&gt;ctg4_281&lt;/b&gt;&lt;br&gt;ctg4 281&lt;br&gt;Location: 337929 - 338808" locus_tag="ctg4_281" class="clusterblast-orf" id="dummy-1_q25_0_all"  />
<polygon points="439,35 444,30 450,30 450,40 444,40 439,35 " style="fill:#15d86f; stroke-width:1; stroke:black; " description="&lt;b&gt;ctg4_282&lt;/b&gt;&lt;br&gt;ctg4 282&lt;br&gt;Location: 338800 - 339397" locus_tag="ctg4_282" class="clusterblast-orf" id="dummy-1_q26_0_all"  />
<polygon points="459,40 461,40 466,35 461,30 459,30 459,40 " style="fill:#1515d8; stroke-width:1; stroke:black; " description="&lt;b&gt;ctg4_283&lt;/b&gt;&lt;br&gt;ctg4 283&lt;br&gt;Location: 339852 - 340236" locus_tag="ctg4_283" class="clusterblast-orf" id="dummy-1_q27_0_all"  />
<polygon points="467,40 471,35 467,30 467,40 " style="fill:#d8156f; stroke-width:1; stroke:black; " description="&lt;b&gt;ctg4_284&lt;/b&gt;&lt;br&gt;ctg4 284&lt;br&gt;Location: 340273 - 340528" locus_tag="ctg4_284" class="clusterblast-orf" id="dummy-1_q28_0_all"  />
<polygon points="475,35 478,30 478,40 475,35 " style="fill:#c9d815; stroke-width:1; stroke:black; " description="&lt;b&gt;ctg4_285&lt;/b&gt;&lt;br&gt;ctg4 285&lt;br&gt;Location: 340717 - 340909" locus_tag="ctg4_285" class="clusterblast-orf" id="dummy-1_q29_0_all"  />
<polygon points="481,35 486,30 498,30 498,40 486,40 481,35 " style="fill:#15d88d; stroke-width:1; stroke:black; " description="&lt;b&gt;ctg4_286&lt;/b&gt;&lt;br&gt;ctg4 286&lt;br&gt;Location: 341059 - 341962" locus_tag="ctg4_286" class="clusterblast-orf" id="dummy-1_q30_0_all"  />
<polygon points="499,40 519,40 524,35 519,30 499,30 499,40 " style="fill:#3315d8; stroke-width:1; stroke:black; " description="&lt;b&gt;ctg4_287&lt;/b&gt;&lt;br&gt;ctg4 287&lt;br&gt;Location: 342035 - 343355" locus_tag="ctg4_287" class="clusterblast-orf" id="dummy-1_q31_0_all"  />
<polygon points="527,35 532,30 547,30 547,40 532,40 527,35 " style="fill:#d81551; stroke-width:1; stroke:black; " description="&lt;b&gt;ctg4_288&lt;/b&gt;&lt;br&gt;ctg4 288&lt;br&gt;Location: 343531 - 344599" locus_tag="ctg4_288" class="clusterblast-orf" id="dummy-1_q32_0_all"  />
<polygon points="551,35 556,30 577,30 577,40 556,40 551,35 " style="fill:#abd815; stroke-width:1; stroke:black; " description="&lt;b&gt;ctg4_289&lt;/b&gt;&lt;br&gt;ctg4 289&lt;br&gt;Location: 344851 - 346270" locus_tag="ctg4_289" class="clusterblast-orf" id="dummy-1_q33_0_all"  />
<polygon points="578,35 583,30 660,30 660,40 583,40 578,35 " style="fill:#15d8ab; stroke-width:1; stroke:black; " description="&lt;b&gt;ctg4_290&lt;/b&gt;&lt;br&gt;ctg4 290&lt;br&gt;Location: 346303 - 350749" locus_tag="ctg4_290" class="clusterblast-orf" id="dummy-1_q34_0_all"  />
<polygon points="667,35 672,30 696,30 696,40 672,40 667,35 " style="fill:#5115d8; stroke-width:1; stroke:black; " description="&lt;b&gt;ctg4_291&lt;/b&gt;&lt;br&gt;ctg4 291&lt;br&gt;Location: 351099 - 352689" locus_tag="ctg4_291" class="clusterblast-orf" id="dummy-1_q35_0_all"  />
<polygon points="696,35 701,30 717,30 717,40 701,40 696,35 " style="fill:#d81533; stroke-width:1; stroke:black; " description="&lt;b&gt;ctg4_292&lt;/b&gt;&lt;br&gt;ctg4 292&lt;br&gt;Location: 352699 - 353800" locus_tag="ctg4_292" class="clusterblast-orf" id="dummy-1_q36_0_all"  />
<polygon points="719,35 724,30 729,30 729,40 724,40 719,35 " style="fill:#8dd815; stroke-width:1; stroke:black; " description="&lt;b&gt;ctg4_293&lt;/b&gt;&lt;br&gt;ctg4 293&lt;br&gt;Location: 353951 - 354443" locus_tag="ctg4_293" class="clusterblast-orf" id="dummy-1_q37_0_all"  />
<polygon points="729,35 734,30 768,30 768,40 734,40 729,35 " style="fill:#15d8c9; stroke-width:1; stroke:black; " description="&lt;b&gt;ctg4_294&lt;/b&gt;&lt;br&gt;ctg4 294&lt;br&gt;Location: 354474 - 356562" locus_tag="ctg4_294" class="clusterblast-orf" id="dummy-1_q38_0_all"  />
<polygon points="768,35 773,30 778,30 778,40 773,40 768,35 " style="fill:#6f15d8; stroke-width:1; stroke:black; " description="&lt;b&gt;ctg4_295&lt;/b&gt;&lt;br&gt;ctg4 295&lt;br&gt;Location: 356575 - 357103" locus_tag="ctg4_295" class="clusterblast-orf" id="dummy-1_q39_0_all"  />
</g>
<g label="NZ_FNTJ01000002" description="NZ_FNTJ01000002_c2: Pseudomonas saponiphila strain DSM 9751, whole genome sho... (83% of genes show similarity), arylpolyene" class="clusterblast-cluster"  >
<text x="5" y="70" class="clusterblast-acc"  >
<a xlink:href="https://antismash-db.secondarymetabolites.org/go/NZ_FNTJ01000002/2" target="_blank">NZ_FNTJ01000002_c2</a>: Pseudomonas saponiphila strain DSM 9751, whole genome sho... (83% of genes show similarity), arylpolyene</text>
<line x1="10" y1="85" x2="778.0" y2="85" style="stroke-width:1; stroke:grey; "  />
</g>
<g id="a1_000"  >
<polygon points="0,90 22,90 27,85 22,80 0,80 0,90 " style="fill:#d81515; stroke-width:1; stroke:black; " description="&lt;b&gt;BLV47_RS25840&lt;/b&gt;&lt;br&gt;YdiU family protein&lt;br&gt;Location: 853634 - 852171&lt;br&gt;&lt;br&gt;&lt;b&gt;BlastP hit with ctg4_256&lt;/b&gt;&lt;br&gt;Percentage identity: 90&lt;br&gt;Percentage coverage: 100&lt;br&gt;BLAST bit score: 907&lt;br&gt;E-value: 7.5e-262" locus_tag="BLV47_RS25840" class="clusterblast-orf" id="dummy-1_h1_7_0"  />
</g>
<g id="a1_001"  >
<polygon points="27,85 32,80 34,80 34,90 32,90 27,85 " style="fill:#6fd815; stroke-width:1; stroke:black; " description="&lt;b&gt;BLV47_RS25835&lt;/b&gt;&lt;br&gt;transcriptional regulator&lt;br&gt;Location: 852169 - 851768&lt;br&gt;&lt;br&gt;&lt;b&gt;BlastP hit with ctg4_257&lt;/b&gt;&lt;br&gt;Percentage identity: 45&lt;br&gt;Percentage coverage: 91&lt;br&gt;BLAST bit score: 63&lt;br&gt;E-value: 1.4e-08" locus_tag="BLV47_RS25835" class="clusterblast-orf" id="dummy-1_h1_7_1"  />
</g>
<g id="a1_002"  >
<polygon points="34,85 39,80 39,80 39,90 39,90 34,85 " style="fill:white; stroke-width:1; stroke:black; " description="&lt;b&gt;BLV47_RS25830&lt;/b&gt;&lt;br&gt;type II toxin-antitoxin system HigB family toxin&lt;br&gt;Location: 851771 - 851475" locus_tag="BLV47_RS25830" class="clusterblast-orf" id="dummy-1_h1_7_2"  />
</g>
<g id="a1_003"  >
<polygon points="48,90 61,90 66,85 61,80 48,80 48,90 " style="fill:white; stroke-width:1; stroke:black; " description="&lt;b&gt;BLV47_RS25825&lt;/b&gt;&lt;br&gt;hypothetical protein&lt;br&gt;Location: 851018 - 850062" locus_tag="BLV47_RS25825" class="clusterblast-orf" id="dummy-1_h1_7_3"  />
</g>
<g id="a1_004"  >
<polygon points="67,90 70,90 75,85 70,80 67,80 67,90 " style="fill:#15c9d8; stroke-width:1; stroke:black; " description="&lt;b&gt;BLV47_RS25820&lt;/b&gt;&lt;br&gt;thioredoxin TrxC&lt;br&gt;Location: 849984 - 849550&lt;br&gt;&lt;br&gt;&lt;b&gt;BlastP hit with ctg4_258&lt;/b&gt;&lt;br&gt;Percentage identity: 90&lt;br&gt;Percentage coverage: 100&lt;br&gt;BLAST bit score: 281&lt;br&gt;E-value: 4.6e-74" locus_tag="BLV47_RS25820" class="clusterblast-orf" id="dummy-1_h1_7_4"  />
</g>
<g id="a1_005"  >
<polygon points="76,85 81,80 90,80 90,90 81,90 76,85 " style="fill:#8d15d8; stroke-width:1; stroke:black; " description="&lt;b&gt;BLV47_RS25815&lt;/b&gt;&lt;br&gt;ParA family protein&lt;br&gt;Location: 849511 - 848741&lt;br&gt;&lt;br&gt;&lt;b&gt;BlastP hit with ctg4_259&lt;/b&gt;&lt;br&gt;Percentage identity: 96&lt;br&gt;Percentage coverage: 100&lt;br&gt;BLAST bit score: 487&lt;br&gt;E-value: 1.3e-135" locus_tag="BLV47_RS25815" class="clusterblast-orf" id="dummy-1_h1_7_5"  />
</g>
<g id="a1_006"  >
<polygon points="96,90 105,90 110,85 105,80 96,80 96,90 " style="fill:#d83315; stroke-width:1; stroke:black; " description="&lt;b&gt;BLV47_RS25810&lt;/b&gt;&lt;br&gt;3-oxoacyl-ACP synthase&lt;br&gt;Location: 848395 - 847676&lt;br&gt;&lt;br&gt;&lt;b&gt;BlastP hit with ctg4_260&lt;/b&gt;&lt;br&gt;Percentage identity: 84&lt;br&gt;Percentage coverage: 99&lt;br&gt;BLAST bit score: 416&lt;br&gt;E-value: 1.5e-114" locus_tag="BLV47_RS25810" class="clusterblast-orf" id="dummy-1_h1_7_6"  />
</g>
<g id="a1_007"  >
<polygon points="109,90 119,90 124,85 119,80 109,80 109,90 " style="fill:#51d815; stroke-width:1; stroke:black; " description="&lt;b&gt;BLV47_RS25805&lt;/b&gt;&lt;br&gt;1-acyl-sn-glycerol-3-phosphate acyltransferase&lt;br&gt;Location: 847700 - 846879&lt;br&gt;&lt;br&gt;&lt;b&gt;BlastP hit with ctg4_261&lt;/b&gt;&lt;br&gt;Percentage identity: 79&lt;br&gt;Percentage coverage: 100&lt;br&gt;BLAST bit score: 454&lt;br&gt;E-value: 9.6e-126" locus_tag="BLV47_RS25805" class="clusterblast-orf" id="dummy-1_h1_7_7"  />
</g>
<g id="a1_008"  >
<polygon points="124,90 124,90 129,85 124,80 124,80 124,90 " style="fill:#15abd8; stroke-width:1; stroke:black; " description="&lt;b&gt;BLV47_RS25800&lt;/b&gt;&lt;br&gt;acyl carrier protein&lt;br&gt;Location: 846910 - 846638&lt;br&gt;&lt;br&gt;&lt;b&gt;BlastP hit with ctg4_262&lt;/b&gt;&lt;br&gt;Percentage identity: 93&lt;br&gt;Percentage coverage: 98&lt;br&gt;BLAST bit score: 147&lt;br&gt;E-value: 6.2e-34" locus_tag="BLV47_RS25800" class="clusterblast-orf" id="dummy-1_h1_7_8"  />
</g>
<g id="a1_009"  >
<polygon points="129,90 129,90 134,85 129,80 129,80 129,90 " style="fill:#ab15d8; stroke-width:1; stroke:black; " description="&lt;b&gt;BLV47_RS25795&lt;/b&gt;&lt;br&gt;acyl carrier protein&lt;br&gt;Location: 846628 - 846374&lt;br&gt;&lt;br&gt;&lt;b&gt;BlastP hit with ctg4_263&lt;/b&gt;&lt;br&gt;Percentage identity: 94&lt;br&gt;Percentage coverage: 100&lt;br&gt;BLAST bit score: 154&lt;br&gt;E-value: 4.9e-36" locus_tag="BLV47_RS25795" class="clusterblast-orf" id="dummy-1_h1_7_9"  />
</g>
<g id="a1_0010"  >
<polygon points="134,90 139,90 144,85 139,80 134,80 134,90 " style="fill:#d85115; stroke-width:1; stroke:black; " description="&lt;b&gt;BLV47_RS25790&lt;/b&gt;&lt;br&gt;hypothetical protein&lt;br&gt;Location: 846377 - 845832&lt;br&gt;&lt;br&gt;&lt;b&gt;BlastP hit with ctg4_264&lt;/b&gt;&lt;br&gt;Percentage identity: 87&lt;br&gt;Percentage coverage: 99&lt;br&gt;BLAST bit score: 316&lt;br&gt;E-value: 2.1e-84" locus_tag="BLV47_RS25790" class="clusterblast-orf" id="dummy-1_h1_7_10"  />
</g>
<g id="a1_0011"  >
<polygon points="144,90 170,90 175,85 170,80 144,80 144,90 " style="fill:#33d815; stroke-width:1; stroke:black; " description="&lt;b&gt;BLV47_RS25785&lt;/b&gt;&lt;br&gt;AMP-binding protein&lt;br&gt;Location: 845835 - 844162&lt;br&gt;&lt;br&gt;&lt;b&gt;BlastP hit with ctg4_265&lt;/b&gt;&lt;br&gt;Percentage identity: 81&lt;br&gt;Percentage coverage: 100&lt;br&gt;BLAST bit score: 899&lt;br&gt;E-value: 1.4e-259" locus_tag="BLV47_RS25785" class="clusterblast-orf" id="dummy-1_h1_7_11"  />
</g>
<g id="a1_0012"  >
<polygon points="176,90 184,90 189,85 184,80 176,80 176,90 " style="fill:#158dd8; stroke-width:1; stroke:black; " description="&lt;b&gt;BLV47_RS25780&lt;/b&gt;&lt;br&gt;glycosyltransferase family 2 protein&lt;br&gt;Location: 844096 - 843362&lt;br&gt;&lt;br&gt;&lt;b&gt;BlastP hit with ctg4_266&lt;/b&gt;&lt;br&gt;Percentage identity: 76&lt;br&gt;Percentage coverage: 90&lt;br&gt;BLAST bit score: 396&lt;br&gt;E-value: 2.4e-108" locus_tag="BLV47_RS25780" class="clusterblast-orf" id="dummy-1_h1_7_12"  />
</g>
<g id="a1_0013"  >
<polygon points="189,90 202,90 207,85 202,80 189,80 189,90 " style="fill:#c915d8; stroke-width:1; stroke:black; " description="&lt;b&gt;BLV47_RS25775&lt;/b&gt;&lt;br&gt;glycosyl transferase&lt;br&gt;Location: 843365 - 842421&lt;br&gt;&lt;br&gt;&lt;b&gt;BlastP hit with ctg4_267&lt;/b&gt;&lt;br&gt;Percentage identity: 80&lt;br&gt;Percentage coverage: 99&lt;br&gt;BLAST bit score: 535&lt;br&gt;E-value: 3.8e-150" locus_tag="BLV47_RS25775" class="clusterblast-orf" id="dummy-1_h1_7_13"  />
</g>
<g id="a1_0014"  >
<polygon points="206,90 230,90 235,85 230,80 206,80 206,90 " style="fill:#d86f15; stroke-width:1; stroke:black; " description="&lt;b&gt;BLV47_RS25770&lt;/b&gt;&lt;br&gt;aromatic amino acid lyase&lt;br&gt;Location: 842440 - 840896&lt;br&gt;&lt;br&gt;&lt;b&gt;BlastP hit with ctg4_268&lt;/b&gt;&lt;br&gt;Percentage identity: 93&lt;br&gt;Percentage coverage: 100&lt;br&gt;BLAST bit score: 945&lt;br&gt;E-value: 3.4e-273" locus_tag="BLV47_RS25770" class="clusterblast-orf" id="dummy-1_h1_7_14"  />
</g>
<g id="a1_0015"  >
<polygon points="235,90 238,90 243,85 238,80 235,80 235,90 " style="fill:#15d815; stroke-width:1; stroke:black; " description="&lt;b&gt;BLV47_RS25765&lt;/b&gt;&lt;br&gt;acyl-CoA thioesterase&lt;br&gt;Location: 840903 - 840478&lt;br&gt;&lt;br&gt;&lt;b&gt;BlastP hit with ctg4_269&lt;/b&gt;&lt;br&gt;Percentage identity: 89&lt;br&gt;Percentage coverage: 100&lt;br&gt;BLAST bit score: 259&lt;br&gt;E-value: 2.4e-67" locus_tag="BLV47_RS25765" class="clusterblast-orf" id="dummy-1_h1_7_15"  />
</g>
<g id="a1_0016"  >
<polygon points="243,90 250,90 255,85 250,80 243,80 243,90 " style="fill:#156fd8; stroke-width:1; stroke:black; " description="&lt;b&gt;BLV47_RS25760&lt;/b&gt;&lt;br&gt;outer membrane lipoprotein carrier protein LolA&lt;br&gt;Location: 840481 - 839801&lt;br&gt;&lt;br&gt;&lt;b&gt;BlastP hit with ctg4_270&lt;/b&gt;&lt;br&gt;Percentage identity: 74&lt;br&gt;Percentage coverage: 86&lt;br&gt;BLAST bit score: 304&lt;br&gt;E-value: 8.5e-81" locus_tag="BLV47_RS25760" class="clusterblast-orf" id="dummy-1_h1_7_16"  />
</g>
<g id="a1_0017"  >
<polygon points="255,90 293,90 298,85 293,80 255,80 255,90 " style="fill:#d815c9; stroke-width:1; stroke:black; " description="&lt;b&gt;BLV47_RS25755&lt;/b&gt;&lt;br&gt;hypothetical protein&lt;br&gt;Location: 839817 - 837475&lt;br&gt;&lt;br&gt;&lt;b&gt;BlastP hit with ctg4_271&lt;/b&gt;&lt;br&gt;Percentage identity: 81&lt;br&gt;Percentage coverage: 100&lt;br&gt;BLAST bit score: 1194&lt;br&gt;E-value: 0.0" locus_tag="BLV47_RS25755" class="clusterblast-orf" id="dummy-1_h1_7_17"  />
</g>
<g id="a1_0018"  >
<polygon points="298,90 315,90 320,85 315,80 298,80 298,90 " style="fill:#d88d15; stroke-width:1; stroke:black; " description="&lt;b&gt;BLV47_RS25750&lt;/b&gt;&lt;br&gt;sodium:proton antiporter&lt;br&gt;Location: 837481 - 836291&lt;br&gt;&lt;br&gt;&lt;b&gt;BlastP hit with ctg4_272&lt;/b&gt;&lt;br&gt;Percentage identity: 82&lt;br&gt;Percentage coverage: 102&lt;br&gt;BLAST bit score: 604&lt;br&gt;E-value: 6.3e-171" locus_tag="BLV47_RS25750" class="clusterblast-orf" id="dummy-1_h1_7_18"  />
</g>
<g id="a1_0019"  >
<polygon points="320,90 338,90 343,85 338,80 320,80 320,90 " style="fill:#15d833; stroke-width:1; stroke:black; " description="&lt;b&gt;BLV47_RS25745&lt;/b&gt;&lt;br&gt;NAD(P)/FAD-dependent oxidoreductase&lt;br&gt;Location: 836304 - 835057&lt;br&gt;&lt;br&gt;&lt;b&gt;BlastP hit with ctg4_273&lt;/b&gt;&lt;br&gt;Percentage identity: 83&lt;br&gt;Percentage coverage: 100&lt;br&gt;BLAST bit score: 723&lt;br&gt;E-value: 1.7e-206" locus_tag="BLV47_RS25745" class="clusterblast-orf" id="dummy-1_h1_7_19"  />
</g>
<g id="a1_0020"  >
<polygon points="343,90 352,90 357,85 352,80 343,80 343,90 " style="fill:#1551d8; stroke-width:1; stroke:black; " description="&lt;b&gt;BLV47_RS25740&lt;/b&gt;&lt;br&gt;class I SAM-dependent methyltransferase&lt;br&gt;Location: 835060 - 834299&lt;br&gt;&lt;br&gt;&lt;b&gt;BlastP hit with ctg4_274&lt;/b&gt;&lt;br&gt;Percentage identity: 86&lt;br&gt;Percentage coverage: 99&lt;br&gt;BLAST bit score: 433&lt;br&gt;E-value: 2.1e-119" locus_tag="BLV47_RS25740" class="clusterblast-orf" id="dummy-1_h1_7_20"  />
</g>
<g id="a1_0021"  >
<polygon points="357,90 361,90 366,85 361,80 357,80 357,90 " style="fill:#d815ab; stroke-width:1; stroke:black; " description="&lt;b&gt;BLV47_RS25735&lt;/b&gt;&lt;br&gt;hypothetical protein&lt;br&gt;Location: 834302 - 833817&lt;br&gt;&lt;br&gt;&lt;b&gt;BlastP hit with ctg4_275&lt;/b&gt;&lt;br&gt;Percentage identity: 73&lt;br&gt;Percentage coverage: 75&lt;br&gt;BLAST bit score: 236&lt;br&gt;E-value: 3.1e-60" locus_tag="BLV47_RS25735" class="clusterblast-orf" id="dummy-1_h1_7_21"  />
</g>
<g id="a1_0022"  >
<polygon points="366,90 383,90 388,85 383,80 366,80 366,90 " style="fill:#d8ab15; stroke-width:1; stroke:black; " description="&lt;b&gt;BLV47_RS25730&lt;/b&gt;&lt;br&gt;beta-ketoacyl-[acyl-carrier-protein] synthase II&lt;br&gt;Location: 833820 - 832624&lt;br&gt;&lt;br&gt;&lt;b&gt;BlastP hit with ctg4_276&lt;/b&gt;&lt;br&gt;Percentage identity: 78&lt;br&gt;Percentage coverage: 100&lt;br&gt;BLAST bit score: 624&lt;br&gt;E-value: 7.9e-177&lt;br&gt;&lt;br&gt;&lt;b&gt;BlastP hit with ctg4_279&lt;/b&gt;&lt;br&gt;Percentage identity: 32&lt;br&gt;Percentage coverage: 100&lt;br&gt;BLAST bit score: 141&lt;br&gt;E-value: 1.6e-31" locus_tag="BLV47_RS25730" class="clusterblast-orf" id="dummy-1_h1_7_22"  />
</g>
<g id="a1_0023"  >
<polygon points="388,90 392,90 397,85 392,80 388,80 388,90 " style="fill:#15d851; stroke-width:1; stroke:black; " description="&lt;b&gt;BLV47_RS25725&lt;/b&gt;&lt;br&gt;3-hydroxylacyl-ACP dehydratase&lt;br&gt;Location: 832627 - 832154&lt;br&gt;&lt;br&gt;&lt;b&gt;BlastP hit with ctg4_277&lt;/b&gt;&lt;br&gt;Percentage identity: 82&lt;br&gt;Percentage coverage: 97&lt;br&gt;BLAST bit score: 262&lt;br&gt;E-value: 4e-68" locus_tag="BLV47_RS25725" class="clusterblast-orf" id="dummy-1_h1_7_23"  />
</g>
<g id="a1_0024"  >
<polygon points="397,90 405,90 410,85 405,80 397,80 397,90 " style="fill:#1533d8; stroke-width:1; stroke:black; " description="&lt;b&gt;BLV47_RS25720&lt;/b&gt;&lt;br&gt;3-oxoacyl-ACP reductase FabG&lt;br&gt;Location: 832157 - 831429&lt;br&gt;&lt;br&gt;&lt;b&gt;BlastP hit with ctg4_278&lt;/b&gt;&lt;br&gt;Percentage identity: 91&lt;br&gt;Percentage coverage: 100&lt;br&gt;BLAST bit score: 436&lt;br&gt;E-value: 1.4e-120" locus_tag="BLV47_RS25720" class="clusterblast-orf" id="dummy-1_h1_7_24"  />
</g>
<g id="a1_0025"  >
<polygon points="410,90 428,90 433,85 428,80 410,80 410,90 " style="fill:#d8ab15; stroke-width:1; stroke:black; " description="&lt;b&gt;BLV47_RS25715&lt;/b&gt;&lt;br&gt;beta-ketoacyl-ACP synthase II&lt;br&gt;Location: 831429 - 830203&lt;br&gt;&lt;br&gt;&lt;b&gt;BlastP hit with ctg4_276&lt;/b&gt;&lt;br&gt;Percentage identity: 32&lt;br&gt;Percentage coverage: 103&lt;br&gt;BLAST bit score: 136&lt;br&gt;E-value: 6.6e-30&lt;br&gt;&lt;br&gt;&lt;b&gt;BlastP hit with ctg4_279&lt;/b&gt;&lt;br&gt;Percentage identity: 91&lt;br&gt;Percentage coverage: 100&lt;br&gt;BLAST bit score: 753&lt;br&gt;E-value: 1.2e-215" locus_tag="BLV47_RS25715" class="clusterblast-orf" id="dummy-1_h1_7_25"  />
</g>
<g id="a1_0026"  >
<polygon points="433,90 436,90 441,85 436,80 433,80 433,90 " style="fill:white; stroke-width:1; stroke:black; " description="&lt;b&gt;BLV47_RS25710&lt;/b&gt;&lt;br&gt;hypothetical protein&lt;br&gt;Location: 830177 - 829728" locus_tag="BLV47_RS25710" class="clusterblast-orf" id="dummy-1_h1_7_26"  />
</g>
<g id="a1_0027"  >
<polygon points="443,90 446,90 451,85 446,80 443,80 443,90 " style="fill:#d8158d; stroke-width:1; stroke:black; " description="&lt;b&gt;BLV47_RS25705&lt;/b&gt;&lt;br&gt;excinuclease&lt;br&gt;Location: 829664 - 829218&lt;br&gt;&lt;br&gt;&lt;b&gt;BlastP hit with ctg4_280&lt;/b&gt;&lt;br&gt;Percentage identity: 74&lt;br&gt;Percentage coverage: 100&lt;br&gt;BLAST bit score: 215&lt;br&gt;E-value: 4.1e-54" locus_tag="BLV47_RS25705" class="clusterblast-orf" id="dummy-1_h1_7_27"  />
</g>
<g id="a1_0028"  >
<polygon points="453,85 458,80 469,80 469,90 458,90 453,85 " style="fill:#15d88d; stroke-width:1; stroke:black; " description="&lt;b&gt;BLV47_RS25700&lt;/b&gt;&lt;br&gt;LysR family transcriptional regulator&lt;br&gt;Location: 829114 - 828215&lt;br&gt;&lt;br&gt;&lt;b&gt;BlastP hit with ctg4_286&lt;/b&gt;&lt;br&gt;Percentage identity: 92&lt;br&gt;Percentage coverage: 98&lt;br&gt;BLAST bit score: 515&lt;br&gt;E-value: 3.9e-144" locus_tag="BLV47_RS25700" class="clusterblast-orf" id="dummy-1_h1_7_28"  />
</g>
<g id="a1_0029"  >
<polygon points="472,90 490,90 495,85 490,80 472,80 472,90 " style="fill:#3315d8; stroke-width:1; stroke:black; " description="&lt;b&gt;BLV47_RS25695&lt;/b&gt;&lt;br&gt;MFS transporter&lt;br&gt;Location: 828092 - 826833&lt;br&gt;&lt;br&gt;&lt;b&gt;BlastP hit with ctg4_287&lt;/b&gt;&lt;br&gt;Percentage identity: 88&lt;br&gt;Percentage coverage: 95&lt;br&gt;BLAST bit score: 708&lt;br&gt;E-value: 6e-202" locus_tag="BLV47_RS25695" class="clusterblast-orf" id="dummy-1_h1_7_29"  />
</g>
<g id="a1_0030"  >
<polygon points="499,85 504,80 518,80 518,90 504,90 499,85 " style="fill:#d81551; stroke-width:1; stroke:black; " description="&lt;b&gt;BLV47_RS25690&lt;/b&gt;&lt;br&gt;uroporphyrinogen decarboxylase&lt;br&gt;Location: 826643 - 825576&lt;br&gt;&lt;br&gt;&lt;b&gt;BlastP hit with ctg4_288&lt;/b&gt;&lt;br&gt;Percentage identity: 94&lt;br&gt;Percentage coverage: 100&lt;br&gt;BLAST bit score: 684&lt;br&gt;E-value: 7.5e-195" locus_tag="BLV47_RS25690" class="clusterblast-orf" id="dummy-1_h1_7_30"  />
</g>
<g id="a1_0031"  >
<polygon points="522,85 527,80 548,80 548,90 527,90 522,85 " style="fill:#abd815; stroke-width:1; stroke:black; " description="&lt;b&gt;BLV47_RS25685&lt;/b&gt;&lt;br&gt;glutamate synthase small subunit&lt;br&gt;Location: 825358 - 823940&lt;br&gt;&lt;br&gt;&lt;b&gt;BlastP hit with ctg4_289&lt;/b&gt;&lt;br&gt;Percentage identity: 98&lt;br&gt;Percentage coverage: 100&lt;br&gt;BLAST bit score: 951&lt;br&gt;E-value: 2.6e-275" locus_tag="BLV47_RS25685" class="clusterblast-orf" id="dummy-1_h1_7_31"  />
</g>
<g id="a1_0032"  >
<polygon points="551,85 556,80 633,80 633,90 556,90 551,85 " style="fill:#15d8ab; stroke-width:1; stroke:black; " description="&lt;b&gt;BLV47_RS25680&lt;/b&gt;&lt;br&gt;glutamate synthase large subunit&lt;br&gt;Location: 823819 - 819374&lt;br&gt;&lt;br&gt;&lt;b&gt;BlastP hit with ctg4_290&lt;/b&gt;&lt;br&gt;Percentage identity: 97&lt;br&gt;Percentage coverage: 100&lt;br&gt;BLAST bit score: 2773&lt;br&gt;E-value: 0.0" locus_tag="BLV47_RS25680" class="clusterblast-orf" id="dummy-1_h1_7_32"  />
</g>
<g id="a1_0033"  >
<polygon points="631,90 633,90 638,85 633,80 631,80 631,90 " style="fill:white; stroke-width:1; stroke:black; " description="&lt;b&gt;BLV47_RS25675&lt;/b&gt;&lt;br&gt;hypothetical protein&lt;br&gt;Location: 819460 - 819122" locus_tag="BLV47_RS25675" class="clusterblast-orf" id="dummy-1_h1_7_33"  />
</g>
<g id="a1_0034"  >
<polygon points="639,85 644,80 669,80 669,90 644,90 639,85 " style="fill:#5115d8; stroke-width:1; stroke:black; " description="&lt;b&gt;BLV47_RS25670&lt;/b&gt;&lt;br&gt;cell division protein&lt;br&gt;Location: 819025 - 817442&lt;br&gt;&lt;br&gt;&lt;b&gt;BlastP hit with ctg4_291&lt;/b&gt;&lt;br&gt;Percentage identity: 86&lt;br&gt;Percentage coverage: 100&lt;br&gt;BLAST bit score: 716&lt;br&gt;E-value: 2.7e-204" locus_tag="BLV47_RS25670" class="clusterblast-orf" id="dummy-1_h1_7_34"  />
</g>
<g id="a1_0035"  >
<polygon points="669,85 674,80 689,80 689,90 674,90 669,85 " style="fill:#d81533; stroke-width:1; stroke:black; " description="&lt;b&gt;BLV47_RS25665&lt;/b&gt;&lt;br&gt;3-dehydroquinate synthase&lt;br&gt;Location: 817431 - 816331&lt;br&gt;&lt;br&gt;&lt;b&gt;BlastP hit with ctg4_292&lt;/b&gt;&lt;br&gt;Percentage identity: 93&lt;br&gt;Percentage coverage: 100&lt;br&gt;BLAST bit score: 691&lt;br&gt;E-value: 4.9e-197" locus_tag="BLV47_RS25665" class="clusterblast-orf" id="dummy-1_h1_7_35"  />
</g>
<g id="a1_0036"  >
<polygon points="692,85 697,80 701,80 701,90 697,90 692,85 " style="fill:#8dd815; stroke-width:1; stroke:black; " description="&lt;b&gt;BLV47_RS25660&lt;/b&gt;&lt;br&gt;shikimate kinase&lt;br&gt;Location: 816184 - 815666&lt;br&gt;&lt;br&gt;&lt;b&gt;BlastP hit with ctg4_293&lt;/b&gt;&lt;br&gt;Percentage identity: 97&lt;br&gt;Percentage coverage: 100&lt;br&gt;BLAST bit score: 314&lt;br&gt;E-value: 7.2e-84" locus_tag="BLV47_RS25660" class="clusterblast-orf" id="dummy-1_h1_7_36"  />
</g>
<g id="a1_0037"  >
<polygon points="702,85 707,80 728,80 728,90 707,90 702,85 " style="fill:#15d8c9; stroke-width:1; stroke:black; " description="&lt;b&gt;BLV47_RS25655&lt;/b&gt;&lt;br&gt;type IV pilus secretin PilQ&lt;br&gt;Location: 815661 - 814228&lt;br&gt;&lt;br&gt;&lt;b&gt;BlastP hit with ctg4_294&lt;/b&gt;&lt;br&gt;Percentage identity: 86&lt;br&gt;Percentage coverage: 61&lt;br&gt;BLAST bit score: 682&lt;br&gt;E-value: 4.3e-194" locus_tag="BLV47_RS25655" class="clusterblast-orf" id="dummy-1_h1_7_37"  />
</g>
<g id="a1_0038"  >
<polygon points="728,85 733,80 738,80 738,90 733,90 728,85 " style="fill:#6f15d8; stroke-width:1; stroke:black; " description="&lt;b&gt;BLV47_RS25650&lt;/b&gt;&lt;br&gt;pilus assembly protein PilP&lt;br&gt;Location: 814213 - 813686&lt;br&gt;&lt;br&gt;&lt;b&gt;BlastP hit with ctg4_295&lt;/b&gt;&lt;br&gt;Percentage identity: 57&lt;br&gt;Percentage coverage: 92&lt;br&gt;BLAST bit score: 185&lt;br&gt;E-value: 5.4e-45" locus_tag="BLV47_RS25650" class="clusterblast-orf" id="dummy-1_h1_7_38"  />
</g>
<g id="a1_0039"  >
<polygon points="738,85 743,80 750,80 750,90 743,90 738,85 " style="fill:white; stroke-width:1; stroke:black; " description="&lt;b&gt;BLV47_RS25645&lt;/b&gt;&lt;br&gt;pilus assembly protein PilP&lt;br&gt;Location: 813689 - 813066" locus_tag="BLV47_RS25645" class="clusterblast-orf" id="dummy-1_h1_7_39"  />
</g>
<g id="a1_0040"  >
<polygon points="749,85 754,80 760,80 760,90 754,90 749,85 " style="fill:white; stroke-width:1; stroke:black; " description="&lt;b&gt;BLV47_RS25640&lt;/b&gt;&lt;br&gt;pilus assembly protein PilN&lt;br&gt;Location: 813069 - 812506" locus_tag="BLV47_RS25640" class="clusterblast-orf" id="dummy-1_h1_7_40"  />
</g>
<g id="a1_0041"  >
<polygon points="760,85 765,80 780,80 780,90 765,90 760,85 " style="fill:white; stroke-width:1; stroke:black; " description="&lt;b&gt;BLV47_RS25635&lt;/b&gt;&lt;br&gt;pilus assembly protein PilM&lt;br&gt;Location: 812506 - 811445" locus_tag="BLV47_RS25635" class="clusterblast-orf" id="dummy-1_h1_7_41"  />
</g>
</svg>
