<svg xmlns="http://www.w3.org/2000/svg" xmlns:xlink="http://www.w3.org/1999/xlink" version="1.1" x="0" y="0" height="230" width="800" viewBox="0 0 800 230" preserveAspectRatio="none"  >
<g label="Query sequence" class="clusterblast-cluster"  >
<text x="5" y="20" class="clusterblast-acc"  >
Query sequence</text>
<line x1="10" y1="35" x2="778.0" y2="35" style="stroke-width:1; stroke:grey; "  />
<polygon points="0,35 5,30 6,30 6,40 5,40 0,35 " style="fill:#d81515; stroke-width:1; stroke:black; " description="&lt;b&gt;ctg6_147&lt;/b&gt;&lt;br&gt;ctg6 147&lt;br&gt;Location: 179074 - 179695" locus_tag="ctg6_147" class="clusterblast-orf" id="dummy-1_q0_0_all"  />
<polygon points="10,35 15,30 37,30 37,40 15,40 10,35 " style="fill:#6dd815; stroke-width:1; stroke:black; " description="&lt;b&gt;ctg6_148&lt;/b&gt;&lt;br&gt;ctg6 148&lt;br&gt;Location: 180036 - 182742" locus_tag="ctg6_148" class="clusterblast-orf" id="dummy-1_q1_0_all"  />
<polygon points="43,35 48,30 56,30 56,40 48,40 43,35 " style="fill:#15c5d8; stroke-width:1; stroke:black; " description="&lt;b&gt;ctg6_149&lt;/b&gt;&lt;br&gt;ctg6 149&lt;br&gt;Location: 183246 - 184584" locus_tag="ctg6_149" class="clusterblast-orf" id="dummy-1_q2_0_all"  />
<polygon points="58,35 63,30 63,30 63,40 63,40 58,35 " style="fill:#9315d8; stroke-width:1; stroke:black; " description="&lt;b&gt;ctg6_150&lt;/b&gt;&lt;br&gt;ctg6 150&lt;br&gt;Location: 184716 - 185199" locus_tag="ctg6_150" class="clusterblast-orf" id="dummy-1_q3_0_all"  />
<polygon points="66,40 73,40 78,35 73,30 66,30 66,40 " style="fill:#d83b15; stroke-width:1; stroke:black; " description="&lt;b&gt;ctg6_151&lt;/b&gt;&lt;br&gt;ctg6 151&lt;br&gt;Location: 185519 - 186692" locus_tag="ctg6_151" class="clusterblast-orf" id="dummy-1_q4_0_all"  />
<polygon points="78,40 94,40 99,35 94,30 78,30 78,40 " style="fill:#48d815; stroke-width:1; stroke:black; " description="&lt;b&gt;ctg6_152&lt;/b&gt;&lt;br&gt;ctg6 152&lt;br&gt;Location: 186692 - 188666" locus_tag="ctg6_152" class="clusterblast-orf" id="dummy-1_q5_0_all"  />
<polygon points="99,40 108,40 113,35 108,30 99,30 99,40 " style="fill:#15a0d8; stroke-width:1; stroke:black; " description="&lt;b&gt;ctg6_153&lt;/b&gt;&lt;br&gt;ctg6 153&lt;br&gt;Location: 188673 - 190068" locus_tag="ctg6_153" class="clusterblast-orf" id="dummy-1_q6_0_all"  />
<polygon points="117,35 122,30 134,30 134,40 122,40 117,35 " style="fill:#b915d8; stroke-width:1; stroke:black; " description="&lt;b&gt;ctg6_154&lt;/b&gt;&lt;br&gt;ctg6 154&lt;br&gt;Location: 190471 - 192100" locus_tag="ctg6_154" class="clusterblast-orf" id="dummy-1_q7_0_all"  />
<polygon points="136,40 145,40 150,35 145,30 136,30 136,40 " style="fill:#d86115; stroke-width:1; stroke:black; " description="&lt;b&gt;ctg6_155&lt;/b&gt;&lt;br&gt;ctg6 155&lt;br&gt;Location: 192332 - 193703" locus_tag="ctg6_155" class="clusterblast-orf" id="dummy-1_q8_0_all"  />
<polygon points="150,40 159,40 164,35 159,30 150,30 150,40 " style="fill:#22d815; stroke-width:1; stroke:black; " description="&lt;b&gt;ctg6_156&lt;/b&gt;&lt;br&gt;ctg6 156&lt;br&gt;Location: 193699 - 194983" locus_tag="ctg6_156" class="clusterblast-orf" id="dummy-1_q9_0_all"  />
<polygon points="166,40 170,40 175,35 170,30 166,30 166,40 " style="fill:#157ad8; stroke-width:1; stroke:black; " description="&lt;b&gt;ctg6_157&lt;/b&gt;&lt;br&gt;ctg6 157&lt;br&gt;Location: 195221 - 196109" locus_tag="ctg6_157" class="clusterblast-orf" id="dummy-1_q10_0_all"  />
<polygon points="177,40 189,40 194,35 189,30 177,30 177,40 " style="fill:#d815d2; stroke-width:1; stroke:black; " description="&lt;b&gt;ctg6_158&lt;/b&gt;&lt;br&gt;ctg6 158&lt;br&gt;Location: 196239 - 197898" locus_tag="ctg6_158" class="clusterblast-orf" id="dummy-1_q11_0_all"  />
<polygon points="194,40 233,40 238,35 233,30 194,30 194,40 " style="fill:#d88615; stroke-width:1; stroke:black; " description="&lt;b&gt;ctg6_159&lt;/b&gt;&lt;br&gt;ctg6 159&lt;br&gt;Location: 197962 - 202165" locus_tag="ctg6_159" class="clusterblast-orf" id="dummy-1_q12_0_all"  />
<polygon points="243,35 246,30 246,40 243,35 " style="fill:#15d82e; stroke-width:1; stroke:black; " description="&lt;b&gt;ctg6_160&lt;/b&gt;&lt;br&gt;ctg6 160&lt;br&gt;Location: 202628 - 202997" locus_tag="ctg6_160" class="clusterblast-orf" id="dummy-1_q13_0_all"  />
<polygon points="254,35 259,30 280,30 280,40 259,40 254,35 " style="fill:#1554d8; stroke-width:1; stroke:black; " description="&lt;b&gt;ctg6_161&lt;/b&gt;&lt;br&gt;ctg6 161&lt;br&gt;Location: 203761 - 206242" locus_tag="ctg6_161" class="clusterblast-orf" id="dummy-1_q14_0_all"  />
<polygon points="286,35 291,30 319,30 319,40 291,40 286,35 " style="fill:#d88615; stroke-width:1; stroke:black; " description="&lt;b&gt;ctg6_162&lt;/b&gt;&lt;br&gt;ctg6 162&lt;br&gt;Location: 206833 - 210055" locus_tag="ctg6_162" class="clusterblast-orf" id="dummy-1_q15_0_all"  />
<polygon points="319,35 324,30 459,30 459,40 324,40 319,35 " style="fill:#d88615; stroke-width:1; stroke:black; " description="&lt;b&gt;ctg6_163&lt;/b&gt;&lt;br&gt;ctg6 163&lt;br&gt;Location: 210051 - 223575" locus_tag="ctg6_163" class="clusterblast-orf" id="dummy-1_q16_0_all"  />
<polygon points="459,35 464,30 586,30 586,40 464,40 459,35 " style="fill:#d88615; stroke-width:1; stroke:black; " description="&lt;b&gt;ctg6_164&lt;/b&gt;&lt;br&gt;ctg6 164&lt;br&gt;Location: 223592 - 235946" locus_tag="ctg6_164" class="clusterblast-orf" id="dummy-1_q17_0_all"  />
<polygon points="589,35 594,30 596,30 596,40 594,40 589,35 " style="fill:#d815ac; stroke-width:1; stroke:black; " description="&lt;b&gt;ctg6_165&lt;/b&gt;&lt;br&gt;ctg6 165&lt;br&gt;Location: 236194 - 236929" locus_tag="ctg6_165" class="clusterblast-orf" id="dummy-1_q18_0_all"  />
<polygon points="598,40 604,40 609,35 604,30 598,30 598,40 " style="fill:#d8ac15; stroke-width:1; stroke:black; " description="&lt;b&gt;ctg6_166&lt;/b&gt;&lt;br&gt;ctg6 166&lt;br&gt;Location: 237061 - 238195" locus_tag="ctg6_166" class="clusterblast-orf" id="dummy-1_q19_0_all"  />
<polygon points="611,35 616,30 623,30 623,40 616,40 611,35 " style="fill:#15d854; stroke-width:1; stroke:black; " description="&lt;b&gt;ctg6_167&lt;/b&gt;&lt;br&gt;ctg6 167&lt;br&gt;Location: 238308 - 239481" locus_tag="ctg6_167" class="clusterblast-orf" id="dummy-1_q20_0_all"  />
<polygon points="625,40 628,40 633,35 628,30 625,30 625,40 " style="fill:#152ed8; stroke-width:1; stroke:black; " description="&lt;b&gt;ctg6_168&lt;/b&gt;&lt;br&gt;ctg6 168&lt;br&gt;Location: 239709 - 240510" locus_tag="ctg6_168" class="clusterblast-orf" id="dummy-1_q21_0_all"  />
<polygon points="633,40 647,40 652,35 647,30 633,30 633,40 " style="fill:#d81586; stroke-width:1; stroke:black; " description="&lt;b&gt;ctg6_169&lt;/b&gt;&lt;br&gt;ctg6 169&lt;br&gt;Location: 240502 - 242329" locus_tag="ctg6_169" class="clusterblast-orf" id="dummy-1_q22_0_all"  />
<polygon points="658,40 662,35 658,30 658,40 " style="fill:#d8d215; stroke-width:1; stroke:black; " description="&lt;b&gt;ctg6_170&lt;/b&gt;&lt;br&gt;ctg6 170&lt;br&gt;Location: 242874 - 243264" locus_tag="ctg6_170" class="clusterblast-orf" id="dummy-1_q23_0_all"  />
<polygon points="663,40 671,40 676,35 671,30 663,30 663,40 " style="fill:white; stroke-width:1; stroke:black; " description="&lt;b&gt;ctg6_171&lt;/b&gt;&lt;br&gt;ctg6 171&lt;br&gt;Location: 243399 - 244644" locus_tag="ctg6_171" class="clusterblast-orf" id="dummy-1_q24_0_all"  />
<polygon points="677,40 681,40 686,35 681,30 677,30 677,40 " style="fill:#15d87a; stroke-width:1; stroke:black; " description="&lt;b&gt;ctg6_172&lt;/b&gt;&lt;br&gt;ctg6 172&lt;br&gt;Location: 244758 - 245664" locus_tag="ctg6_172" class="clusterblast-orf" id="dummy-1_q25_0_all"  />
<polygon points="686,35 691,30 696,30 696,40 691,40 686,35 " style="fill:#2215d8; stroke-width:1; stroke:black; " description="&lt;b&gt;ctg6_173&lt;/b&gt;&lt;br&gt;ctg6 173&lt;br&gt;Location: 245617 - 246616" locus_tag="ctg6_173" class="clusterblast-orf" id="dummy-1_q26_0_all"  />
<polygon points="697,40 699,40 704,35 699,30 697,30 697,40 " style="fill:#2215d8; stroke-width:1; stroke:black; " description="&lt;b&gt;ctg6_174&lt;/b&gt;&lt;br&gt;ctg6 174&lt;br&gt;Location: 246708 - 247395" locus_tag="ctg6_174" class="clusterblast-orf" id="dummy-1_q27_0_all"  />
<polygon points="705,35 710,30 712,30 712,40 710,40 705,35 " style="fill:white; stroke-width:1; stroke:black; " description="&lt;b&gt;ctg6_175&lt;/b&gt;&lt;br&gt;ctg6 175&lt;br&gt;Location: 247489 - 248107" locus_tag="ctg6_175" class="clusterblast-orf" id="dummy-1_q28_0_all"  />
<polygon points="715,35 720,30 723,30 723,40 720,40 715,35 " style="fill:#d81561; stroke-width:1; stroke:black; " description="&lt;b&gt;ctg6_176&lt;/b&gt;&lt;br&gt;ctg6 176&lt;br&gt;Location: 248451 - 249252" locus_tag="ctg6_176" class="clusterblast-orf" id="dummy-1_q29_0_all"  />
<polygon points="723,35 728,30 728,30 728,40 728,40 723,35 " style="fill:#b9d815; stroke-width:1; stroke:black; " description="&lt;b&gt;ctg6_177&lt;/b&gt;&lt;br&gt;ctg6 177&lt;br&gt;Location: 249252 - 249741" locus_tag="ctg6_177" class="clusterblast-orf" id="dummy-1_q30_0_all"  />
<polygon points="731,40 735,40 740,35 735,30 731,30 731,40 " style="fill:#15d8a0; stroke-width:1; stroke:black; " description="&lt;b&gt;ctg6_178&lt;/b&gt;&lt;br&gt;ctg6 178&lt;br&gt;Location: 249938 - 250883" locus_tag="ctg6_178" class="clusterblast-orf" id="dummy-1_q31_0_all"  />
<polygon points="740,40 744,35 740,30 740,40 " style="fill:#4815d8; stroke-width:1; stroke:black; " description="&lt;b&gt;ctg6_179&lt;/b&gt;&lt;br&gt;ctg6 179&lt;br&gt;Location: 250875 - 251274" locus_tag="ctg6_179" class="clusterblast-orf" id="dummy-1_q32_0_all"  />
<polygon points="746,40 749,35 746,30 746,40 " style="fill:#d8153b; stroke-width:1; stroke:black; " description="&lt;b&gt;ctg6_180&lt;/b&gt;&lt;br&gt;ctg6 180&lt;br&gt;Location: 251446 - 251749" locus_tag="ctg6_180" class="clusterblast-orf" id="dummy-1_q33_0_all"  />
<polygon points="751,40 753,40 758,35 753,30 751,30 751,40 " style="fill:white; stroke-width:1; stroke:black; " description="&lt;b&gt;ctg6_181&lt;/b&gt;&lt;br&gt;ctg6 181&lt;br&gt;Location: 251877 - 252582" locus_tag="ctg6_181" class="clusterblast-orf" id="dummy-1_q34_0_all"  />
<polygon points="759,40 763,35 759,30 759,40 " style="fill:#93d815; stroke-width:1; stroke:black; " description="&lt;b&gt;ctg6_182&lt;/b&gt;&lt;br&gt;ctg6 182&lt;br&gt;Location: 252704 - 253106" locus_tag="ctg6_182" class="clusterblast-orf" id="dummy-1_q35_0_all"  />
<polygon points="764,35 769,30 776,30 776,40 769,40 764,35 " style="fill:#15d8c5; stroke-width:1; stroke:black; " description="&lt;b&gt;ctg6_183&lt;/b&gt;&lt;br&gt;ctg6 183&lt;br&gt;Location: 253229 - 254348" locus_tag="ctg6_183" class="clusterblast-orf" id="dummy-1_q36_0_all"  />
<polygon points="776,35 780,30 780,40 776,35 " style="fill:#6d15d8; stroke-width:1; stroke:black; " description="&lt;b&gt;ctg6_184&lt;/b&gt;&lt;br&gt;ctg6 184&lt;br&gt;Location: 254372 - 254696" locus_tag="ctg6_184" class="clusterblast-orf" id="dummy-1_q37_0_all"  />
</g>
<g label="NZ_KB900108" description="NZ_KB900108_c1: Pseudomonas sp. 35MFCvi1.1 F571DRAFT scaffold00001.1, whole g... (66% of genes show similarity), nrps" class="clusterblast-cluster"  >
<text x="5" y="70" class="clusterblast-acc"  >
<a xlink:href="https://antismash-db.secondarymetabolites.org/go/NZ_KB900108/1" target="_blank">NZ_KB900108_c1</a>: Pseudomonas sp. 35MFCvi1.1 F571DRAFT scaffold00001.1, whole g... (66% of genes show similarity), nrps</text>
<line x1="10" y1="85" x2="778.0" y2="85" style="stroke-width:1; stroke:grey; "  />
</g>
<g id="a1_000"  >
<polygon points="2,85 7,80 9,80 9,90 7,90 2,85 " style="fill:#d81515; stroke-width:1; stroke:black; " description="&lt;b&gt;F571_RS0101625&lt;/b&gt;&lt;br&gt;DNA-binding response regulator&lt;br&gt;Location: 346114 - 346740&lt;br&gt;&lt;br&gt;&lt;b&gt;BlastP hit with ctg6_147&lt;/b&gt;&lt;br&gt;Percentage identity: 73&lt;br&gt;Percentage coverage: 100&lt;br&gt;BLAST bit score: 290&lt;br&gt;E-value: 1.1e-76" locus_tag="F571_RS0101625" class="clusterblast-orf" id="dummy-1_h1_7_0"  />
</g>
<g id="a1_001"  >
<polygon points="10,85 14,80 14,90 10,85 " style="fill:white; stroke-width:1; stroke:black; " description="&lt;b&gt;F571_RS0101630&lt;/b&gt;&lt;br&gt;hypothetical protein&lt;br&gt;Location: 346883 - 347260" locus_tag="F571_RS0101630" class="clusterblast-orf" id="dummy-1_h1_7_1"  />
</g>
<g id="a1_002"  >
<polygon points="16,85 21,80 44,80 44,90 21,90 16,85 " style="fill:#6dd815; stroke-width:1; stroke:black; " description="&lt;b&gt;F571_RS0101635&lt;/b&gt;&lt;br&gt;magnesium-translocating P-type ATPase&lt;br&gt;Location: 347435 - 350152&lt;br&gt;&lt;br&gt;&lt;b&gt;BlastP hit with ctg6_148&lt;/b&gt;&lt;br&gt;Percentage identity: 91&lt;br&gt;Percentage coverage: 101&lt;br&gt;BLAST bit score: 1562&lt;br&gt;E-value: 0.0" locus_tag="F571_RS0101635" class="clusterblast-orf" id="dummy-1_h1_7_2"  />
</g>
<g id="a1_003"  >
<polygon points="48,85 53,80 62,80 62,90 53,90 48,85 " style="fill:#15c5d8; stroke-width:1; stroke:black; " description="&lt;b&gt;F571_RS0101640&lt;/b&gt;&lt;br&gt;L-ornithine 5-monooxygenase&lt;br&gt;Location: 350590 - 351927&lt;br&gt;&lt;br&gt;&lt;b&gt;BlastP hit with ctg6_149&lt;/b&gt;&lt;br&gt;Percentage identity: 95&lt;br&gt;Percentage coverage: 100&lt;br&gt;BLAST bit score: 856&lt;br&gt;E-value: 1.1e-246" locus_tag="F571_RS0101640" class="clusterblast-orf" id="dummy-1_h1_7_3"  />
</g>
<g id="a1_004"  >
<polygon points="64,85 69,80 69,80 69,90 69,90 64,85 " style="fill:#9315d8; stroke-width:1; stroke:black; " description="&lt;b&gt;F571_RS0101645&lt;/b&gt;&lt;br&gt;RNA polymerase sigma factor&lt;br&gt;Location: 352059 - 352541&lt;br&gt;&lt;br&gt;&lt;b&gt;BlastP hit with ctg6_150&lt;/b&gt;&lt;br&gt;Percentage identity: 93&lt;br&gt;Percentage coverage: 99&lt;br&gt;BLAST bit score: 304&lt;br&gt;E-value: 9.6e-81" locus_tag="F571_RS0101645" class="clusterblast-orf" id="dummy-1_h1_7_4"  />
</g>
<g id="a1_005"  >
<polygon points="72,90 79,90 84,85 79,80 72,80 72,90 " style="fill:#d83b15; stroke-width:1; stroke:black; " description="&lt;b&gt;F571_RS0101650&lt;/b&gt;&lt;br&gt;efflux RND transporter periplasmic adaptor subunit&lt;br&gt;Location: 352875 - 354047&lt;br&gt;&lt;br&gt;&lt;b&gt;BlastP hit with ctg6_151&lt;/b&gt;&lt;br&gt;Percentage identity: 93&lt;br&gt;Percentage coverage: 100&lt;br&gt;BLAST bit score: 635&lt;br&gt;E-value: 4.4e-180" locus_tag="F571_RS0101650" class="clusterblast-orf" id="dummy-1_h1_7_5"  />
</g>
<g id="a1_006"  >
<polygon points="84,90 100,90 105,85 100,80 84,80 84,90 " style="fill:#48d815; stroke-width:1; stroke:black; " description="&lt;b&gt;F571_RS0101655&lt;/b&gt;&lt;br&gt;MacB family efflux pump subunit&lt;br&gt;Location: 354048 - 356021&lt;br&gt;&lt;br&gt;&lt;b&gt;BlastP hit with ctg6_152&lt;/b&gt;&lt;br&gt;Percentage identity: 94&lt;br&gt;Percentage coverage: 100&lt;br&gt;BLAST bit score: 1193&lt;br&gt;E-value: 0.0" locus_tag="F571_RS0101655" class="clusterblast-orf" id="dummy-1_h1_7_6"  />
</g>
<g id="a1_007"  >
<polygon points="105,90 114,90 119,85 114,80 105,80 105,90 " style="fill:#15a0d8; stroke-width:1; stroke:black; " description="&lt;b&gt;F571_RS0101660&lt;/b&gt;&lt;br&gt;RND transporter&lt;br&gt;Location: 356029 - 357423&lt;br&gt;&lt;br&gt;&lt;b&gt;BlastP hit with ctg6_153&lt;/b&gt;&lt;br&gt;Percentage identity: 85&lt;br&gt;Percentage coverage: 100&lt;br&gt;BLAST bit score: 745&lt;br&gt;E-value: 4.7e-213" locus_tag="F571_RS0101660" class="clusterblast-orf" id="dummy-1_h1_7_7"  />
</g>
<g id="a1_008"  >
<polygon points="120,85 125,80 136,80 136,90 125,90 120,85 " style="fill:#b915d8; stroke-width:1; stroke:black; " description="&lt;b&gt;F571_RS0101665&lt;/b&gt;&lt;br&gt;hypothetical protein&lt;br&gt;Location: 357490 - 359118&lt;br&gt;&lt;br&gt;&lt;b&gt;BlastP hit with ctg6_154&lt;/b&gt;&lt;br&gt;Percentage identity: 89&lt;br&gt;Percentage coverage: 99&lt;br&gt;BLAST bit score: 1048&lt;br&gt;E-value: 2.3e-304" locus_tag="F571_RS0101665" class="clusterblast-orf" id="dummy-1_h1_7_8"  />
</g>
<g id="a1_009"  >
<polygon points="136,85 139,80 139,90 136,85 " style="fill:white; stroke-width:1; stroke:black; " description="&lt;b&gt;F571_RS1000000130315&lt;/b&gt;&lt;br&gt;hypothetical protein&lt;br&gt;Location: 359115 - 359327" locus_tag="F571_RS1000000130315" class="clusterblast-orf" id="dummy-1_h1_7_9"  />
</g>
<g id="a1_0010"  >
<polygon points="140,90 149,90 154,85 149,80 140,80 140,90 " style="fill:#d86115; stroke-width:1; stroke:black; " description="&lt;b&gt;F571_RS0101670&lt;/b&gt;&lt;br&gt;membrane dipeptidase&lt;br&gt;Location: 359445 - 360815&lt;br&gt;&lt;br&gt;&lt;b&gt;BlastP hit with ctg6_155&lt;/b&gt;&lt;br&gt;Percentage identity: 91&lt;br&gt;Percentage coverage: 100&lt;br&gt;BLAST bit score: 862&lt;br&gt;E-value: 2.6e-248" locus_tag="F571_RS0101670" class="clusterblast-orf" id="dummy-1_h1_7_10"  />
</g>
<g id="a1_0011"  >
<polygon points="154,90 162,90 167,85 162,80 154,80 154,90 " style="fill:#22d815; stroke-width:1; stroke:black; " description="&lt;b&gt;F571_RS0101675&lt;/b&gt;&lt;br&gt;aminotransferase class V-fold PLP-dependent enzyme&lt;br&gt;Location: 360812 - 362092&lt;br&gt;&lt;br&gt;&lt;b&gt;BlastP hit with ctg6_156&lt;/b&gt;&lt;br&gt;Percentage identity: 90&lt;br&gt;Percentage coverage: 100&lt;br&gt;BLAST bit score: 782&lt;br&gt;E-value: 1.9e-224" locus_tag="F571_RS0101675" class="clusterblast-orf" id="dummy-1_h1_7_11"  />
</g>
<g id="a1_0012"  >
<polygon points="168,90 173,90 178,85 173,80 168,80 168,90 " style="fill:#157ad8; stroke-width:1; stroke:black; " description="&lt;b&gt;F571_RS0101680&lt;/b&gt;&lt;br&gt;formylglycine-generating enzyme family protein&lt;br&gt;Location: 362220 - 363107&lt;br&gt;&lt;br&gt;&lt;b&gt;BlastP hit with ctg6_157&lt;/b&gt;&lt;br&gt;Percentage identity: 89&lt;br&gt;Percentage coverage: 100&lt;br&gt;BLAST bit score: 556&lt;br&gt;E-value: 2e-156" locus_tag="F571_RS0101680" class="clusterblast-orf" id="dummy-1_h1_7_12"  />
</g>
<g id="a1_0013"  >
<polygon points="179,90 191,90 196,85 191,80 179,80 179,90 " style="fill:#d815d2; stroke-width:1; stroke:black; " description="&lt;b&gt;F571_RS0101685&lt;/b&gt;&lt;br&gt;cyclic peptide export ABC transporter&lt;br&gt;Location: 363239 - 364897&lt;br&gt;&lt;br&gt;&lt;b&gt;BlastP hit with ctg6_158&lt;/b&gt;&lt;br&gt;Percentage identity: 97&lt;br&gt;Percentage coverage: 99&lt;br&gt;BLAST bit score: 1025&lt;br&gt;E-value: 2.1e-297" locus_tag="F571_RS0101685" class="clusterblast-orf" id="dummy-1_h1_7_13"  />
</g>
<g id="a1_0014"  >
<polygon points="196,90 234,90 239,85 234,80 196,80 196,90 " style="fill:#d88615; stroke-width:1; stroke:black; " description="&lt;b&gt;F571_RS0101690&lt;/b&gt;&lt;br&gt;non-ribosomal peptide synthetase&lt;br&gt;Location: 364927 - 369102&lt;br&gt;&lt;br&gt;&lt;b&gt;BlastP hit with ctg6_159&lt;/b&gt;&lt;br&gt;Percentage identity: 69&lt;br&gt;Percentage coverage: 100&lt;br&gt;BLAST bit score: 1837&lt;br&gt;E-value: 0.0" locus_tag="F571_RS0101690" class="clusterblast-orf" id="dummy-1_h1_7_14"  />
</g>
<g id="a1_0015"  >
<polygon points="241,85 246,80 267,80 267,90 246,90 241,85 " style="fill:#1554d8; stroke-width:1; stroke:black; " description="&lt;b&gt;F571_RS0101695&lt;/b&gt;&lt;br&gt;TonB-dependent siderophore receptor&lt;br&gt;Location: 369259 - 371739&lt;br&gt;&lt;br&gt;&lt;b&gt;BlastP hit with ctg6_161&lt;/b&gt;&lt;br&gt;Percentage identity: 92&lt;br&gt;Percentage coverage: 100&lt;br&gt;BLAST bit score: 1570&lt;br&gt;E-value: 0.0" locus_tag="F571_RS0101695" class="clusterblast-orf" id="dummy-1_h1_7_15"  />
</g>
<g id="a1_0016"  >
<polygon points="270,85 275,80 304,80 304,90 275,90 270,85 " style="fill:#d88615; stroke-width:1; stroke:black; " description="&lt;b&gt;F571_RS0101700&lt;/b&gt;&lt;br&gt;non-ribosomal peptide synthetase&lt;br&gt;Location: 372082 - 375315&lt;br&gt;&lt;br&gt;&lt;b&gt;BlastP hit with ctg6_162&lt;/b&gt;&lt;br&gt;Percentage identity: 89&lt;br&gt;Percentage coverage: 100&lt;br&gt;BLAST bit score: 1879&lt;br&gt;E-value: 0.0" locus_tag="F571_RS0101700" class="clusterblast-orf" id="dummy-1_h1_7_16"  />
</g>
<g id="a1_0017"  >
<polygon points="303,85 308,80 443,80 443,90 308,90 303,85 " style="fill:#d88615; stroke-width:1; stroke:black; " description="&lt;b&gt;F571_RS0101705&lt;/b&gt;&lt;br&gt;non-ribosomal peptide synthetase&lt;br&gt;Location: 375312 - 388826&lt;br&gt;&lt;br&gt;&lt;b&gt;BlastP hit with ctg6_159&lt;/b&gt;&lt;br&gt;Percentage identity: 54&lt;br&gt;Percentage coverage: 75&lt;br&gt;BLAST bit score: 1072&lt;br&gt;E-value: 4.8e-311&lt;br&gt;&lt;br&gt;&lt;b&gt;BlastP hit with ctg6_163&lt;/b&gt;&lt;br&gt;Percentage identity: 75&lt;br&gt;Percentage coverage: 100&lt;br&gt;BLAST bit score: 6627&lt;br&gt;E-value: 0.0&lt;br&gt;&lt;br&gt;&lt;b&gt;BlastP hit with ctg6_164&lt;/b&gt;&lt;br&gt;Percentage identity: 44&lt;br&gt;Percentage coverage: 101&lt;br&gt;BLAST bit score: 3030&lt;br&gt;E-value: 0.0" locus_tag="F571_RS0101705" class="clusterblast-orf" id="dummy-1_h1_7_17"  />
</g>
<g id="a1_0018"  >
<polygon points="443,85 448,80 571,80 571,90 448,90 443,85 " style="fill:#d88615; stroke-width:1; stroke:black; " description="&lt;b&gt;F571_RS0101710&lt;/b&gt;&lt;br&gt;non-ribosomal peptide synthetase&lt;br&gt;Location: 388826 - 401206&lt;br&gt;&lt;br&gt;&lt;b&gt;BlastP hit with ctg6_159&lt;/b&gt;&lt;br&gt;Percentage identity: 44&lt;br&gt;Percentage coverage: 77&lt;br&gt;BLAST bit score: 828&lt;br&gt;E-value: 1.3e-237&lt;br&gt;&lt;br&gt;&lt;b&gt;BlastP hit with ctg6_163&lt;/b&gt;&lt;br&gt;Percentage identity: 44&lt;br&gt;Percentage coverage: 93&lt;br&gt;BLAST bit score: 2971&lt;br&gt;E-value: 0.0&lt;br&gt;&lt;br&gt;&lt;b&gt;BlastP hit with ctg6_164&lt;/b&gt;&lt;br&gt;Percentage identity: 80&lt;br&gt;Percentage coverage: 100&lt;br&gt;BLAST bit score: 6541&lt;br&gt;E-value: 0.0" locus_tag="F571_RS0101710" class="clusterblast-orf" id="dummy-1_h1_7_18"  />
</g>
<g id="a1_0019"  >
<polygon points="574,85 579,80 581,80 581,90 579,90 574,85 " style="fill:#d815ac; stroke-width:1; stroke:black; " description="&lt;b&gt;F571_RS0101715&lt;/b&gt;&lt;br&gt;thioesterase&lt;br&gt;Location: 401526 - 402263&lt;br&gt;&lt;br&gt;&lt;b&gt;BlastP hit with ctg6_165&lt;/b&gt;&lt;br&gt;Percentage identity: 95&lt;br&gt;Percentage coverage: 99&lt;br&gt;BLAST bit score: 465&lt;br&gt;E-value: 3.8e-129" locus_tag="F571_RS0101715" class="clusterblast-orf" id="dummy-1_h1_7_19"  />
</g>
<g id="a1_0020"  >
<polygon points="583,90 590,90 595,85 590,80 583,80 583,90 " style="fill:#d8ac15; stroke-width:1; stroke:black; " description="&lt;b&gt;F571_RS0101720&lt;/b&gt;&lt;br&gt;cupin&lt;br&gt;Location: 402422 - 403555&lt;br&gt;&lt;br&gt;&lt;b&gt;BlastP hit with ctg6_166&lt;/b&gt;&lt;br&gt;Percentage identity: 93&lt;br&gt;Percentage coverage: 100&lt;br&gt;BLAST bit score: 732&lt;br&gt;E-value: 2e-209" locus_tag="F571_RS0101720" class="clusterblast-orf" id="dummy-1_h1_7_20"  />
</g>
<g id="a1_0021"  >
<polygon points="595,85 600,80 607,80 607,90 600,90 595,85 " style="fill:#15d854; stroke-width:1; stroke:black; " description="&lt;b&gt;F571_RS0101725&lt;/b&gt;&lt;br&gt;MFS transporter&lt;br&gt;Location: 403576 - 404748&lt;br&gt;&lt;br&gt;&lt;b&gt;BlastP hit with ctg6_167&lt;/b&gt;&lt;br&gt;Percentage identity: 87&lt;br&gt;Percentage coverage: 100&lt;br&gt;BLAST bit score: 623&lt;br&gt;E-value: 1.3e-176" locus_tag="F571_RS0101725" class="clusterblast-orf" id="dummy-1_h1_7_21"  />
</g>
<g id="a1_0022"  >
<polygon points="609,90 623,90 628,85 623,80 609,80 609,90 " style="fill:#d81586; stroke-width:1; stroke:black; " description="&lt;b&gt;F571_RS0101730&lt;/b&gt;&lt;br&gt;glycoside hydrolase family 15 protein&lt;br&gt;Location: 404911 - 406734&lt;br&gt;&lt;br&gt;&lt;b&gt;BlastP hit with ctg6_169&lt;/b&gt;&lt;br&gt;Percentage identity: 89&lt;br&gt;Percentage coverage: 99&lt;br&gt;BLAST bit score: 1119&lt;br&gt;E-value: 0.0" locus_tag="F571_RS0101730" class="clusterblast-orf" id="dummy-1_h1_7_22"  />
</g>
<g id="a1_0023"  >
<polygon points="633,90 637,85 633,80 633,90 " style="fill:#d8d215; stroke-width:1; stroke:black; " description="&lt;b&gt;F571_RS0101735&lt;/b&gt;&lt;br&gt;hypothetical protein&lt;br&gt;Location: 407241 - 407630&lt;br&gt;&lt;br&gt;&lt;b&gt;BlastP hit with ctg6_170&lt;/b&gt;&lt;br&gt;Percentage identity: 86&lt;br&gt;Percentage coverage: 99&lt;br&gt;BLAST bit score: 235&lt;br&gt;E-value: 3.4e-60" locus_tag="F571_RS0101735" class="clusterblast-orf" id="dummy-1_h1_7_23"  />
</g>
<g id="a1_0024"  >
<polygon points="637,90 642,90 647,85 642,80 637,80 637,90 " style="fill:#15d87a; stroke-width:1; stroke:black; " description="&lt;b&gt;F571_RS0101740&lt;/b&gt;&lt;br&gt;alpha/beta hydrolase&lt;br&gt;Location: 407678 - 408580&lt;br&gt;&lt;br&gt;&lt;b&gt;BlastP hit with ctg6_172&lt;/b&gt;&lt;br&gt;Percentage identity: 86&lt;br&gt;Percentage coverage: 98&lt;br&gt;BLAST bit score: 537&lt;br&gt;E-value: 7.4e-151" locus_tag="F571_RS0101740" class="clusterblast-orf" id="dummy-1_h1_7_24"  />
</g>
<g id="a1_0025"  >
<polygon points="646,85 651,80 657,80 657,90 651,90 646,85 " style="fill:#2215d8; stroke-width:1; stroke:black; " description="&lt;b&gt;F571_RS0101745&lt;/b&gt;&lt;br&gt;GlxA family transcriptional regulator&lt;br&gt;Location: 408549 - 409541&lt;br&gt;&lt;br&gt;&lt;b&gt;BlastP hit with ctg6_173&lt;/b&gt;&lt;br&gt;Percentage identity: 88&lt;br&gt;Percentage coverage: 98&lt;br&gt;BLAST bit score: 566&lt;br&gt;E-value: 2.1e-159&lt;br&gt;&lt;br&gt;&lt;b&gt;BlastP hit with ctg6_174&lt;/b&gt;&lt;br&gt;Percentage identity: 34&lt;br&gt;Percentage coverage: 83&lt;br&gt;BLAST bit score: 86&lt;br&gt;E-value: 3.4e-15" locus_tag="F571_RS0101745" class="clusterblast-orf" id="dummy-1_h1_7_25"  />
</g>
<g id="a1_0026"  >
<polygon points="657,90 660,90 665,85 660,80 657,80 657,90 " style="fill:#2215d8; stroke-width:1; stroke:black; " description="&lt;b&gt;F571_RS0101750&lt;/b&gt;&lt;br&gt;DJ-1/PfpI family protein&lt;br&gt;Location: 409632 - 410318&lt;br&gt;&lt;br&gt;&lt;b&gt;BlastP hit with ctg6_173&lt;/b&gt;&lt;br&gt;Percentage identity: 33&lt;br&gt;Percentage coverage: 54&lt;br&gt;BLAST bit score: 76&lt;br&gt;E-value: 8.8e-12&lt;br&gt;&lt;br&gt;&lt;b&gt;BlastP hit with ctg6_174&lt;/b&gt;&lt;br&gt;Percentage identity: 87&lt;br&gt;Percentage coverage: 100&lt;br&gt;BLAST bit score: 391&lt;br&gt;E-value: 5e-107" locus_tag="F571_RS0101750" class="clusterblast-orf" id="dummy-1_h1_7_26"  />
</g>
<g id="a1_0027"  >
<polygon points="665,85 668,80 668,90 665,85 " style="fill:white; stroke-width:1; stroke:black; " description="&lt;b&gt;F571_RS0101755&lt;/b&gt;&lt;br&gt;antibiotic biosynthesis monooxygenase&lt;br&gt;Location: 410358 - 410687" locus_tag="F571_RS0101755" class="clusterblast-orf" id="dummy-1_h1_7_27"  />
</g>
<g id="a1_0028"  >
<polygon points="669,85 674,80 675,80 675,90 674,90 669,85 " style="fill:white; stroke-width:1; stroke:black; " description="&lt;b&gt;F571_RS0101760&lt;/b&gt;&lt;br&gt;LysE family translocator&lt;br&gt;Location: 410714 - 411343" locus_tag="F571_RS0101760" class="clusterblast-orf" id="dummy-1_h1_7_28"  />
</g>
<g id="a1_0029"  >
<polygon points="676,90 685,90 690,85 685,80 676,80 676,90 " style="fill:white; stroke-width:1; stroke:black; " description="&lt;b&gt;F571_RS0101765&lt;/b&gt;&lt;br&gt;PLP-dependent aminotransferase family protein&lt;br&gt;Location: 411433 - 412758" locus_tag="F571_RS0101765" class="clusterblast-orf" id="dummy-1_h1_7_29"  />
</g>
<g id="a1_0030"  >
<polygon points="696,85 701,80 701,80 701,90 701,90 696,85 " style="fill:#b9d815; stroke-width:1; stroke:black; " description="&lt;b&gt;F571_RS0101770&lt;/b&gt;&lt;br&gt;vanillate O-demethylase oxidoreductase VanB&lt;br&gt;Location: 413332 - 413820&lt;br&gt;&lt;br&gt;&lt;b&gt;BlastP hit with ctg6_177&lt;/b&gt;&lt;br&gt;Percentage identity: 92&lt;br&gt;Percentage coverage: 99&lt;br&gt;BLAST bit score: 313&lt;br&gt;E-value: 1.2e-83" locus_tag="F571_RS0101770" class="clusterblast-orf" id="dummy-1_h1_7_30"  />
</g>
<g id="a1_0031"  >
<polygon points="703,90 707,90 712,85 707,80 703,80 703,90 " style="fill:#15d8a0; stroke-width:1; stroke:black; " description="&lt;b&gt;F571_RS0101775&lt;/b&gt;&lt;br&gt;ADP-ribosylglycohydrolase family protein&lt;br&gt;Location: 414019 - 414939&lt;br&gt;&lt;br&gt;&lt;b&gt;BlastP hit with ctg6_178&lt;/b&gt;&lt;br&gt;Percentage identity: 83&lt;br&gt;Percentage coverage: 94&lt;br&gt;BLAST bit score: 517&lt;br&gt;E-value: 1.4e-144" locus_tag="F571_RS0101775" class="clusterblast-orf" id="dummy-1_h1_7_31"  />
</g>
<g id="a1_0032"  >
<polygon points="713,90 717,85 713,80 713,90 " style="fill:#93d815; stroke-width:1; stroke:black; " description="&lt;b&gt;F571_RS0101780&lt;/b&gt;&lt;br&gt;DUF1311 domain-containing protein&lt;br&gt;Location: 414999 - 415400&lt;br&gt;&lt;br&gt;&lt;b&gt;BlastP hit with ctg6_182&lt;/b&gt;&lt;br&gt;Percentage identity: 86&lt;br&gt;Percentage coverage: 100&lt;br&gt;BLAST bit score: 232&lt;br&gt;E-value: 3.8e-59" locus_tag="F571_RS0101780" class="clusterblast-orf" id="dummy-1_h1_7_32"  />
</g>
<g id="a1_0033"  >
<polygon points="720,90 723,85 720,80 720,90 " style="fill:white; stroke-width:1; stroke:black; " description="&lt;b&gt;F571_RS0101785&lt;/b&gt;&lt;br&gt;hypothetical protein&lt;br&gt;Location: 415650 - 416006" locus_tag="F571_RS0101785" class="clusterblast-orf" id="dummy-1_h1_7_33"  />
</g>
<g id="a1_0034"  >
<polygon points="724,85 726,80 726,90 724,85 " style="fill:white; stroke-width:1; stroke:black; " description="&lt;b&gt;F571_RS0101790&lt;/b&gt;&lt;br&gt;DUF1652 domain-containing protein&lt;br&gt;Location: 416055 - 416309" locus_tag="F571_RS0101790" class="clusterblast-orf" id="dummy-1_h1_7_34"  />
</g>
<g id="a1_0035"  >
<polygon points="730,85 732,80 732,90 730,85 " style="fill:white; stroke-width:1; stroke:black; " description="&lt;b&gt;F571_RS0101795&lt;/b&gt;&lt;br&gt;hypothetical protein&lt;br&gt;Location: 416656 - 416865" locus_tag="F571_RS0101795" class="clusterblast-orf" id="dummy-1_h1_7_35"  />
</g>
<g id="a1_0036"  >
<polygon points="733,85 738,80 740,80 740,90 738,90 733,85 " style="fill:white; stroke-width:1; stroke:black; " description="&lt;b&gt;F571_RS0101800&lt;/b&gt;&lt;br&gt;S-methyl-5'-thioinosine phosphorylase&lt;br&gt;Location: 416916 - 417653" locus_tag="F571_RS0101800" class="clusterblast-orf" id="dummy-1_h1_7_36"  />
</g>
<g id="a1_0037"  >
<polygon points="740,85 745,80 751,80 751,90 745,90 740,85 " style="fill:white; stroke-width:1; stroke:black; " description="&lt;b&gt;F571_RS0101805&lt;/b&gt;&lt;br&gt;beta-N-acetylhexosaminidase&lt;br&gt;Location: 417666 - 418676" locus_tag="F571_RS0101805" class="clusterblast-orf" id="dummy-1_h1_7_37"  />
</g>
<g id="a1_0038"  >
<polygon points="752,85 757,80 760,80 760,90 757,90 752,85 " style="fill:white; stroke-width:1; stroke:black; " description="&lt;b&gt;F571_RS0101810&lt;/b&gt;&lt;br&gt;TetR/AcrR family transcriptional regulator&lt;br&gt;Location: 418832 - 419539" locus_tag="F571_RS0101810" class="clusterblast-orf" id="dummy-1_h1_7_38"  />
</g>
<g id="a1_0039"  >
<polygon points="762,90 763,90 768,85 763,80 762,80 762,90 " style="fill:white; stroke-width:1; stroke:black; " description="&lt;b&gt;F571_RS0101815&lt;/b&gt;&lt;br&gt;repressor LexA&lt;br&gt;Location: 419770 - 420378" locus_tag="F571_RS0101815" class="clusterblast-orf" id="dummy-1_h1_7_39"  />
</g>
<g id="a1_0040"  >
<polygon points="768,90 768,90 773,85 768,80 768,80 768,90 " style="fill:white; stroke-width:1; stroke:black; " description="&lt;b&gt;F571_RS0101820&lt;/b&gt;&lt;br&gt;CDP-glycerol--UDP-pyrophosphoryl-N- acetylglucosaminyl-N-acetylmannosamine glycerophosphotransferase&lt;br&gt;Location: 420389 - 420862" locus_tag="F571_RS0101820" class="clusterblast-orf" id="dummy-1_h1_7_40"  />
</g>
<g id="a1_0041"  >
<polygon points="774,85 777,80 777,90 774,85 " style="fill:white; stroke-width:1; stroke:black; " description="&lt;b&gt;F571_RS0101825&lt;/b&gt;&lt;br&gt;hypothetical protein&lt;br&gt;Location: 420957 - 421190" locus_tag="F571_RS0101825" class="clusterblast-orf" id="dummy-1_h1_7_41"  />
</g>
</svg>
