<svg xmlns="http://www.w3.org/2000/svg" xmlns:xlink="http://www.w3.org/1999/xlink" version="1.1" x="0" y="0" height="230" width="800" viewBox="0 0 800 230" preserveAspectRatio="none"  >
<g label="Query sequence" class="clusterblast-cluster"  >
<text x="5" y="20" class="clusterblast-acc"  >
Query sequence</text>
<line x1="10" y1="35" x2="778.0" y2="35" style="stroke-width:1; stroke:grey; "  />
<polygon points="70,40 315,40 320,35 315,30 70,30 70,40 " style="fill:#d81515; stroke-width:1; stroke:black; " description="&lt;b&gt;ctg4_577&lt;/b&gt;&lt;br&gt;ctg4 577&lt;br&gt;Location: 680926 - 689050" locus_tag="ctg4_577" class="clusterblast-orf" id="dummy-2_q0_0_all"  />
<polygon points="324,40 330,40 335,35 330,30 324,30 324,40 " style="fill:#3cd815; stroke-width:1; stroke:black; " description="&lt;b&gt;ctg4_578&lt;/b&gt;&lt;br&gt;ctg4 578&lt;br&gt;Location: 689198 - 689537" locus_tag="ctg4_578" class="clusterblast-orf" id="dummy-2_q1_0_all"  />
<polygon points="339,35 344,30 399,30 399,40 344,40 339,35 " style="fill:#1563d8; stroke-width:1; stroke:black; " description="&lt;b&gt;ctg4_579&lt;/b&gt;&lt;br&gt;ctg4 579&lt;br&gt;Location: 689672 - 691619" locus_tag="ctg4_579" class="clusterblast-orf" id="dummy-2_q2_0_all"  />
<polygon points="399,35 404,30 420,30 420,40 404,40 399,35 " style="fill:#b115d8; stroke-width:1; stroke:black; " description="&lt;b&gt;ctg4_580&lt;/b&gt;&lt;br&gt;ctg4 580&lt;br&gt;Location: 691633 - 692326" locus_tag="ctg4_580" class="clusterblast-orf" id="dummy-2_q3_0_all"  />
<polygon points="429,40 446,40 451,35 446,30 429,30 429,40 " style="fill:#d88a15; stroke-width:1; stroke:black; " description="&lt;b&gt;ctg4_581&lt;/b&gt;&lt;br&gt;ctg4 581&lt;br&gt;Location: 692593 - 693304" locus_tag="ctg4_581" class="clusterblast-orf" id="dummy-2_q4_0_all"  />
<polygon points="475,40 494,40 499,35 494,30 475,30 475,40 " style="fill:#15d863; stroke-width:1; stroke:black; " description="&lt;b&gt;ctg4_582&lt;/b&gt;&lt;br&gt;ctg4 582&lt;br&gt;Location: 694088 - 694865" locus_tag="ctg4_582" class="clusterblast-orf" id="dummy-2_q5_0_all"  />
<polygon points="498,40 522,40 527,35 522,30 498,30 498,40 " style="fill:#3c15d8; stroke-width:1; stroke:black; " description="&lt;b&gt;ctg4_583&lt;/b&gt;&lt;br&gt;ctg4 583&lt;br&gt;Location: 694861 - 695791" locus_tag="ctg4_583" class="clusterblast-orf" id="dummy-2_q6_0_all"  />
<polygon points="528,40 627,40 632,35 627,30 528,30 528,40 " style="fill:#d8158a; stroke-width:1; stroke:black; " description="&lt;b&gt;ctg4_584&lt;/b&gt;&lt;br&gt;ctg4 584&lt;br&gt;Location: 695804 - 699215" locus_tag="ctg4_584" class="clusterblast-orf" id="dummy-2_q7_0_all"  />
<polygon points="633,40 643,40 648,35 643,30 633,30 633,40 " style="fill:#b1d815; stroke-width:1; stroke:black; " description="&lt;b&gt;ctg4_585&lt;/b&gt;&lt;br&gt;ctg4 585&lt;br&gt;Location: 699237 - 699705" locus_tag="ctg4_585" class="clusterblast-orf" id="dummy-2_q8_0_all"  />
<polygon points="652,35 657,30 710,30 710,40 657,40 652,35 " style="fill:#15d8d8; stroke-width:1; stroke:black; " description="&lt;b&gt;ctg4_586&lt;/b&gt;&lt;br&gt;ctg4 586&lt;br&gt;Location: 699851 - 701732" locus_tag="ctg4_586" class="clusterblast-orf" id="dummy-2_q9_0_all"  />
</g>
<g label="NZ_AKJP02000021" description="NZ_AKJP02000021_c6: Pseudomonas sp. GM30 ctg29, whole genome shotgun sequence (66% of genes show similarity), other" class="clusterblast-cluster"  >
<text x="5" y="70" class="clusterblast-acc"  >
<a xlink:href="https://antismash-db.secondarymetabolites.org/go/NZ_AKJP02000021/6" target="_blank">NZ_AKJP02000021_c6</a>: Pseudomonas sp. GM30 ctg29, whole genome shotgun sequence (66% of genes show similarity), other</text>
<line x1="10" y1="85" x2="778.0" y2="85" style="stroke-width:1; stroke:grey; "  />
</g>
<g id="a2_000"  >
<polygon points="0,90 36,90 41,85 36,80 0,80 0,90 " style="fill:white; stroke-width:1; stroke:black; " description="&lt;b&gt;PMI25_RS28110&lt;/b&gt;&lt;br&gt;hypothetical protein&lt;br&gt;Location: 1 - 1357" locus_tag="PMI25_RS28110" class="clusterblast-orf" id="dummy-2_h2_6_0"  />
</g>
<g id="a2_001"  >
<polygon points="59,90 211,90 216,85 211,80 59,80 59,90 " style="fill:#d81515; stroke-width:1; stroke:black; " description="&lt;b&gt;PMI25_RS13360&lt;/b&gt;&lt;br&gt;type I secretion C-terminal target domain-containing protein&lt;br&gt;Location: 1938 - 7031&lt;br&gt;&lt;br&gt;&lt;b&gt;BlastP hit with ctg4_577&lt;/b&gt;&lt;br&gt;Percentage identity: 85&lt;br&gt;Percentage coverage: 63&lt;br&gt;BLAST bit score: 2559&lt;br&gt;E-value: 0.0" locus_tag="PMI25_RS13360" class="clusterblast-orf" id="dummy-2_h2_6_1"  />
</g>
<g id="a2_002"  >
<polygon points="220,90 226,90 231,85 226,80 220,80 220,90 " style="fill:#3cd815; stroke-width:1; stroke:black; " description="&lt;b&gt;PMI25_RS13365&lt;/b&gt;&lt;br&gt;hypothetical protein&lt;br&gt;Location: 7180 - 7518&lt;br&gt;&lt;br&gt;&lt;b&gt;BlastP hit with ctg4_578&lt;/b&gt;&lt;br&gt;Percentage identity: 92&lt;br&gt;Percentage coverage: 100&lt;br&gt;BLAST bit score: 198&lt;br&gt;E-value: 5.2e-49" locus_tag="PMI25_RS13365" class="clusterblast-orf" id="dummy-2_h2_6_2"  />
</g>
<g id="a2_003"  >
<polygon points="237,85 242,80 297,80 297,90 242,90 237,85 " style="fill:#1563d8; stroke-width:1; stroke:black; " description="&lt;b&gt;PMI25_RS13370&lt;/b&gt;&lt;br&gt;GGDEF-domain containing protein&lt;br&gt;Location: 7733 - 9679&lt;br&gt;&lt;br&gt;&lt;b&gt;BlastP hit with ctg4_579&lt;/b&gt;&lt;br&gt;Percentage identity: 94&lt;br&gt;Percentage coverage: 100&lt;br&gt;BLAST bit score: 1173&lt;br&gt;E-value: 0.0" locus_tag="PMI25_RS13370" class="clusterblast-orf" id="dummy-2_h2_6_3"  />
</g>
<g id="a2_004"  >
<polygon points="298,85 303,80 319,80 319,90 303,90 298,85 " style="fill:#b115d8; stroke-width:1; stroke:black; " description="&lt;b&gt;PMI25_RS13375&lt;/b&gt;&lt;br&gt;hypothetical protein&lt;br&gt;Location: 9694 - 10386&lt;br&gt;&lt;br&gt;&lt;b&gt;BlastP hit with ctg4_580&lt;/b&gt;&lt;br&gt;Percentage identity: 90&lt;br&gt;Percentage coverage: 100&lt;br&gt;BLAST bit score: 425&lt;br&gt;E-value: 4.1e-117" locus_tag="PMI25_RS13375" class="clusterblast-orf" id="dummy-2_h2_6_4"  />
</g>
<g id="a2_005"  >
<polygon points="325,90 342,90 347,85 342,80 325,80 325,90 " style="fill:#d88a15; stroke-width:1; stroke:black; " description="&lt;b&gt;PMI25_RS13380&lt;/b&gt;&lt;br&gt;GntR family transcriptional regulator&lt;br&gt;Location: 10583 - 11293&lt;br&gt;&lt;br&gt;&lt;b&gt;BlastP hit with ctg4_581&lt;/b&gt;&lt;br&gt;Percentage identity: 81&lt;br&gt;Percentage coverage: 100&lt;br&gt;BLAST bit score: 374&lt;br&gt;E-value: 1.1e-101" locus_tag="PMI25_RS13380" class="clusterblast-orf" id="dummy-2_h2_6_5"  />
</g>
<g id="a2_006"  >
<polygon points="371,90 390,90 395,85 390,80 371,80 371,90 " style="fill:#15d863; stroke-width:1; stroke:black; " description="&lt;b&gt;PMI25_RS13385&lt;/b&gt;&lt;br&gt;DUF3050 domain-containing protein&lt;br&gt;Location: 12064 - 12840&lt;br&gt;&lt;br&gt;&lt;b&gt;BlastP hit with ctg4_582&lt;/b&gt;&lt;br&gt;Percentage identity: 86&lt;br&gt;Percentage coverage: 100&lt;br&gt;BLAST bit score: 450&lt;br&gt;E-value: 1.3e-124" locus_tag="PMI25_RS13385" class="clusterblast-orf" id="dummy-2_h2_6_6"  />
</g>
<g id="a2_007"  >
<polygon points="395,90 418,90 423,85 418,80 395,80 395,90 " style="fill:#3c15d8; stroke-width:1; stroke:black; " description="&lt;b&gt;PMI25_RS13390&lt;/b&gt;&lt;br&gt;P-aminobenzoate N-oxygenase AurF&lt;br&gt;Location: 12837 - 13766&lt;br&gt;&lt;br&gt;&lt;b&gt;BlastP hit with ctg4_583&lt;/b&gt;&lt;br&gt;Percentage identity: 90&lt;br&gt;Percentage coverage: 100&lt;br&gt;BLAST bit score: 557&lt;br&gt;E-value: 7.1e-157" locus_tag="PMI25_RS13390" class="clusterblast-orf" id="dummy-2_h2_6_7"  />
</g>
<g id="a2_008"  >
<polygon points="424,90 523,90 528,85 523,80 424,80 424,90 " style="fill:#d8158a; stroke-width:1; stroke:black; " description="&lt;b&gt;PMI25_RS13395&lt;/b&gt;&lt;br&gt;peptide transporter&lt;br&gt;Location: 13780 - 17172&lt;br&gt;&lt;br&gt;&lt;b&gt;BlastP hit with ctg4_584&lt;/b&gt;&lt;br&gt;Percentage identity: 80&lt;br&gt;Percentage coverage: 100&lt;br&gt;BLAST bit score: 1799&lt;br&gt;E-value: 0.0" locus_tag="PMI25_RS13395" class="clusterblast-orf" id="dummy-2_h2_6_8"  />
</g>
<g id="a2_009"  >
<polygon points="529,90 538,90 543,85 538,80 529,80 529,90 " style="fill:#b1d815; stroke-width:1; stroke:black; " description="&lt;b&gt;PMI25_RS13400&lt;/b&gt;&lt;br&gt;SRPBCC family protein&lt;br&gt;Location: 17195 - 17662&lt;br&gt;&lt;br&gt;&lt;b&gt;BlastP hit with ctg4_585&lt;/b&gt;&lt;br&gt;Percentage identity: 91&lt;br&gt;Percentage coverage: 99&lt;br&gt;BLAST bit score: 291&lt;br&gt;E-value: 4.8e-77" locus_tag="PMI25_RS13400" class="clusterblast-orf" id="dummy-2_h2_6_9"  />
</g>
<g id="a2_0010"  >
<polygon points="548,85 553,80 605,80 605,90 553,90 548,85 " style="fill:#15d8d8; stroke-width:1; stroke:black; " description="&lt;b&gt;PMI25_RS13405&lt;/b&gt;&lt;br&gt;methyl-accepting chemotaxis protein&lt;br&gt;Location: 17809 - 19689&lt;br&gt;&lt;br&gt;&lt;b&gt;BlastP hit with ctg4_586&lt;/b&gt;&lt;br&gt;Percentage identity: 90&lt;br&gt;Percentage coverage: 100&lt;br&gt;BLAST bit score: 911&lt;br&gt;E-value: 3.9e-263" locus_tag="PMI25_RS13405" class="clusterblast-orf" id="dummy-2_h2_6_10"  />
</g>
<g id="a2_0011"  >
<polygon points="615,90 625,90 630,85 625,80 615,80 615,90 " style="fill:white; stroke-width:1; stroke:black; " description="&lt;b&gt;PMI25_RS13410&lt;/b&gt;&lt;br&gt;RNA polymerase sigma factor&lt;br&gt;Location: 20001 - 20501" locus_tag="PMI25_RS13410" class="clusterblast-orf" id="dummy-2_h2_6_11"  />
</g>
<g id="a2_0012"  >
<polygon points="630,90 656,90 661,85 656,80 630,80 630,90 " style="fill:white; stroke-width:1; stroke:black; " description="&lt;b&gt;PMI25_RS13415&lt;/b&gt;&lt;br&gt;peptide ABC transporter substrate-binding protein&lt;br&gt;Location: 20501 - 21502" locus_tag="PMI25_RS13415" class="clusterblast-orf" id="dummy-2_h2_6_12"  />
</g>
<g id="a2_0013"  >
<polygon points="664,90 736,90 741,85 736,80 664,80 664,90 " style="fill:white; stroke-width:1; stroke:black; " description="&lt;b&gt;PMI25_RS13420&lt;/b&gt;&lt;br&gt;TonB-dependent siderophore receptor&lt;br&gt;Location: 21590 - 24091" locus_tag="PMI25_RS13420" class="clusterblast-orf" id="dummy-2_h2_6_13"  />
</g>
<g id="a2_0014"  >
<polygon points="743,90 775,90 780,85 775,80 743,80 743,90 " style="fill:white; stroke-width:1; stroke:black; " description="&lt;b&gt;PMI25_RS13425&lt;/b&gt;&lt;br&gt;PepSY domain-containing protein&lt;br&gt;Location: 24168 - 25346" locus_tag="PMI25_RS13425" class="clusterblast-orf" id="dummy-2_h2_6_14"  />
</g>
</svg>
