<svg xmlns="http://www.w3.org/2000/svg" xmlns:xlink="http://www.w3.org/1999/xlink" version="1.1" x="0" y="0" height="230" width="800" viewBox="0 0 800 230" preserveAspectRatio="none"  >
<g label="Query sequence" class="clusterblast-cluster"  >
<text x="5" y="20" class="clusterblast-acc"  >
Query sequence</text>
<line x1="10" y1="35" x2="778.0" y2="35" style="stroke-width:1; stroke:grey; "  />
<polygon points="222,35 227,30 230,30 230,40 227,40 222,35 " style="fill:#d81515; stroke-width:1; stroke:black; " description="&lt;b&gt;ctg5_984&lt;/b&gt;&lt;br&gt;ctg5 984&lt;br&gt;Location: 1078282 - 1078780" locus_tag="ctg5_984" class="clusterblast-orf" id="dummy-1_q0_0_all"  />
<polygon points="233,40 248,40 253,35 248,30 233,30 233,40 " style="fill:#4dd815; stroke-width:1; stroke:black; " description="&lt;b&gt;ctg5_985&lt;/b&gt;&lt;br&gt;ctg5 985&lt;br&gt;Location: 1078976 - 1080182" locus_tag="ctg5_985" class="clusterblast-orf" id="dummy-1_q1_0_all"  />
<polygon points="254,40 269,40 274,35 269,30 254,30 254,40 " style="fill:#15bcd8; stroke-width:1; stroke:black; " description="&lt;b&gt;ctg5_986&lt;/b&gt;&lt;br&gt;ctg5 986&lt;br&gt;Location: 1080254 - 1081529" locus_tag="ctg5_986" class="clusterblast-orf" id="dummy-1_q2_0_all"  />
<polygon points="275,40 284,40 289,35 284,30 275,30 275,40 " style="fill:#8515d8; stroke-width:1; stroke:black; " description="&lt;b&gt;ctg5_987&lt;/b&gt;&lt;br&gt;ctg5 987&lt;br&gt;Location: 1081540 - 1082422" locus_tag="ctg5_987" class="clusterblast-orf" id="dummy-1_q3_0_all"  />
<polygon points="289,40 301,40 306,35 301,30 289,30 289,40 " style="fill:#d84d15; stroke-width:1; stroke:black; " description="&lt;b&gt;ctg5_988&lt;/b&gt;&lt;br&gt;ctg5 988&lt;br&gt;Location: 1082438 - 1083488" locus_tag="ctg5_988" class="clusterblast-orf" id="dummy-1_q4_0_all"  />
<polygon points="307,40 313,40 318,35 313,30 307,30 307,40 " style="fill:#15d815; stroke-width:1; stroke:black; " description="&lt;b&gt;ctg5_989&lt;/b&gt;&lt;br&gt;ctg5 989&lt;br&gt;Location: 1083556 - 1084267" locus_tag="ctg5_989" class="clusterblast-orf" id="dummy-1_q5_0_all"  />
<polygon points="321,40 324,40 329,35 324,30 321,30 321,40 " style="fill:#1585d8; stroke-width:1; stroke:black; " description="&lt;b&gt;ctg5_990&lt;/b&gt;&lt;br&gt;ctg5 990&lt;br&gt;Location: 1084405 - 1084939" locus_tag="ctg5_990" class="clusterblast-orf" id="dummy-1_q6_0_all"  />
<polygon points="336,35 341,30 365,30 365,40 341,40 336,35 " style="fill:#bc15d8; stroke-width:1; stroke:black; " description="&lt;b&gt;ctg5_991&lt;/b&gt;&lt;br&gt;ctg5 991&lt;br&gt;Location: 1085357 - 1087193" locus_tag="ctg5_991" class="clusterblast-orf" id="dummy-1_q7_0_all"  />
<polygon points="365,35 370,30 378,30 378,40 370,40 365,35 " style="fill:#d88515; stroke-width:1; stroke:black; " description="&lt;b&gt;ctg5_992&lt;/b&gt;&lt;br&gt;ctg5 992&lt;br&gt;Location: 1087194 - 1087971" locus_tag="ctg5_992" class="clusterblast-orf" id="dummy-1_q8_0_all"  />
<polygon points="382,40 395,40 400,35 395,30 382,30 382,40 " style="fill:#15d84d; stroke-width:1; stroke:black; " description="&lt;b&gt;ctg5_993&lt;/b&gt;&lt;br&gt;ctg5 993&lt;br&gt;Location: 1088234 - 1089362" locus_tag="ctg5_993" class="clusterblast-orf" id="dummy-1_q9_0_all"  />
<polygon points="402,35 407,30 424,30 424,40 407,40 402,35 " style="fill:#154dd8; stroke-width:1; stroke:black; " description="&lt;b&gt;ctg5_994&lt;/b&gt;&lt;br&gt;ctg5 994&lt;br&gt;Location: 1089494 - 1090817" locus_tag="ctg5_994" class="clusterblast-orf" id="dummy-1_q10_0_all"  />
<polygon points="426,35 431,30 433,30 433,40 431,40 426,35 " style="fill:#d815bc; stroke-width:1; stroke:black; " description="&lt;b&gt;ctg5_995&lt;/b&gt;&lt;br&gt;ctg5 995&lt;br&gt;Location: 1090979 - 1091405" locus_tag="ctg5_995" class="clusterblast-orf" id="dummy-1_q11_0_all"  />
<polygon points="434,35 439,30 456,30 456,40 439,40 434,35 " style="fill:#d8bc15; stroke-width:1; stroke:black; " description="&lt;b&gt;ctg5_996&lt;/b&gt;&lt;br&gt;ctg5 996&lt;br&gt;Location: 1091450 - 1092830" locus_tag="ctg5_996" class="clusterblast-orf" id="dummy-1_q12_0_all"  />
<polygon points="456,35 461,30 470,30 470,40 461,40 456,35 " style="fill:#15d885; stroke-width:1; stroke:black; " description="&lt;b&gt;ctg5_997&lt;/b&gt;&lt;br&gt;ctg5 997&lt;br&gt;Location: 1092857 - 1093718" locus_tag="ctg5_997" class="clusterblast-orf" id="dummy-1_q13_0_all"  />
<polygon points="471,35 476,30 496,30 496,40 476,40 471,35 " style="fill:#1515d8; stroke-width:1; stroke:black; " description="&lt;b&gt;ctg5_998&lt;/b&gt;&lt;br&gt;ctg5 998&lt;br&gt;Location: 1093768 - 1095313" locus_tag="ctg5_998" class="clusterblast-orf" id="dummy-1_q14_0_all"  />
<polygon points="496,35 501,30 505,30 505,40 501,40 496,35 " style="fill:#d81585; stroke-width:1; stroke:black; " description="&lt;b&gt;ctg5_999&lt;/b&gt;&lt;br&gt;ctg5 999&lt;br&gt;Location: 1095334 - 1095871" locus_tag="ctg5_999" class="clusterblast-orf" id="dummy-1_q15_0_all"  />
<polygon points="505,35 510,30 513,30 513,40 510,40 505,35 " style="fill:#bcd815; stroke-width:1; stroke:black; " description="&lt;b&gt;ctg5_1000&lt;/b&gt;&lt;br&gt;ctg5 1000&lt;br&gt;Location: 1095883 - 1096354" locus_tag="ctg5_1000" class="clusterblast-orf" id="dummy-1_q16_0_all"  />
<polygon points="514,35 518,30 518,40 514,35 " style="fill:#15d8bc; stroke-width:1; stroke:black; " description="&lt;b&gt;ctg5_1001&lt;/b&gt;&lt;br&gt;ctg5 1001&lt;br&gt;Location: 1096410 - 1096668" locus_tag="ctg5_1001" class="clusterblast-orf" id="dummy-1_q17_0_all"  />
<polygon points="520,35 525,30 534,30 534,40 525,40 520,35 " style="fill:#4d15d8; stroke-width:1; stroke:black; " description="&lt;b&gt;ctg5_1002&lt;/b&gt;&lt;br&gt;ctg5 1002&lt;br&gt;Location: 1096802 - 1097672" locus_tag="ctg5_1002" class="clusterblast-orf" id="dummy-1_q18_0_all"  />
<polygon points="534,35 539,30 541,30 541,40 539,40 534,35 " style="fill:#d8154d; stroke-width:1; stroke:black; " description="&lt;b&gt;ctg5_1003&lt;/b&gt;&lt;br&gt;ctg5 1003&lt;br&gt;Location: 1097688 - 1098096" locus_tag="ctg5_1003" class="clusterblast-orf" id="dummy-1_q19_0_all"  />
<polygon points="543,35 548,30 557,30 557,40 548,40 543,35 " style="fill:#85d815; stroke-width:1; stroke:black; " description="&lt;b&gt;ctg5_1004&lt;/b&gt;&lt;br&gt;ctg5 1004&lt;br&gt;Location: 1098244 - 1099117" locus_tag="ctg5_1004" class="clusterblast-orf" id="dummy-1_q20_0_all"  />
</g>
<g label="NZ_AVEB02000356" description="NZ_AVEB02000356_c1: Pseudomonas syringae CC457 contig356.1, whole genome shot... (30% of genes show similarity), nrps" class="clusterblast-cluster"  >
<text x="5" y="70" class="clusterblast-acc"  >
<a xlink:href="https://antismash-db.secondarymetabolites.org/go/NZ_AVEB02000356/1" target="_blank">NZ_AVEB02000356_c1</a>: Pseudomonas syringae CC457 contig356.1, whole genome shot... (30% of genes show similarity), nrps</text>
<line x1="10" y1="85" x2="778.0" y2="85" style="stroke-width:1; stroke:grey; "  />
</g>
<g id="a1_000"  >
<polygon points="0,90 10,90 15,85 10,80 0,80 0,90 " style="fill:white; stroke-width:1; stroke:black; " description="&lt;b&gt;N024_RS0226560&lt;/b&gt;&lt;br&gt;methyltransferase domain-containing protein&lt;br&gt;Location: 79516 - 78572" locus_tag="N024_RS0226560" class="clusterblast-orf" id="dummy-1_h1_6_0"  />
</g>
<g id="a1_001"  >
<polygon points="16,85 21,80 46,80 46,90 21,90 16,85 " style="fill:white; stroke-width:1; stroke:black; " description="&lt;b&gt;N024_RS0226555&lt;/b&gt;&lt;br&gt;type VI secretion system tip protein VgrG&lt;br&gt;Location: 78479 - 76626" locus_tag="N024_RS0226555" class="clusterblast-orf" id="dummy-1_h1_6_1"  />
</g>
<g id="a1_002"  >
<polygon points="48,90 60,90 65,85 60,80 48,80 48,90 " style="fill:white; stroke-width:1; stroke:black; " description="&lt;b&gt;N024_RS0226550&lt;/b&gt;&lt;br&gt;hypothetical protein&lt;br&gt;Location: 76483 - 75419" locus_tag="N024_RS0226550" class="clusterblast-orf" id="dummy-1_h1_6_2"  />
</g>
<g id="a1_003"  >
<polygon points="65,90 69,90 74,85 69,80 65,80 65,90 " style="fill:white; stroke-width:1; stroke:black; " description="&lt;b&gt;N024_RS0226545&lt;/b&gt;&lt;br&gt;hypothetical protein&lt;br&gt;Location: 75422 - 74868" locus_tag="N024_RS0226545" class="clusterblast-orf" id="dummy-1_h1_6_3"  />
</g>
<g id="a1_004"  >
<polygon points="74,90 78,85 74,80 74,90 " style="fill:white; stroke-width:1; stroke:black; " description="&lt;b&gt;N024_RS2000000229020&lt;/b&gt;&lt;br&gt;hypothetical protein&lt;br&gt;Location: 74850 - 74628" locus_tag="N024_RS2000000229020" class="clusterblast-orf" id="dummy-1_h1_6_4"  />
</g>
<g id="a1_005"  >
<polygon points="81,90 81,90 86,85 81,80 81,80 81,90 " style="fill:white; stroke-width:1; stroke:black; " description="&lt;b&gt;N024_RS0226535&lt;/b&gt;&lt;br&gt;hypothetical protein&lt;br&gt;Location: 74455 - 74145" locus_tag="N024_RS0226535" class="clusterblast-orf" id="dummy-1_h1_6_5"  />
</g>
<g id="a1_006"  >
<polygon points="88,90 95,90 100,85 95,80 88,80 88,90 " style="fill:white; stroke-width:1; stroke:black; " description="&lt;b&gt;N024_RS0226530&lt;/b&gt;&lt;br&gt;ABC transporter ATP-binding protein&lt;br&gt;Location: 74037 - 73258" locus_tag="N024_RS0226530" class="clusterblast-orf" id="dummy-1_h1_6_6"  />
</g>
<g id="a1_007"  >
<polygon points="100,90 110,90 115,85 110,80 100,80 100,90 " style="fill:white; stroke-width:1; stroke:black; " description="&lt;b&gt;N024_RS0226525&lt;/b&gt;&lt;br&gt;iron ABC transporter substrate-binding protein&lt;br&gt;Location: 73256 - 72306" locus_tag="N024_RS0226525" class="clusterblast-orf" id="dummy-1_h1_6_7"  />
</g>
<g id="a1_008"  >
<polygon points="115,90 127,90 132,85 127,80 115,80 115,90 " style="fill:white; stroke-width:1; stroke:black; " description="&lt;b&gt;N024_RS0226520&lt;/b&gt;&lt;br&gt;iron ABC transporter permease&lt;br&gt;Location: 72309 - 71266" locus_tag="N024_RS0226520" class="clusterblast-orf" id="dummy-1_h1_6_8"  />
</g>
<g id="a1_009"  >
<polygon points="135,90 151,90 156,85 151,80 135,80 135,90 " style="fill:white; stroke-width:1; stroke:black; " description="&lt;b&gt;N024_RS0226515&lt;/b&gt;&lt;br&gt;UDP-glucose/GDP-mannose dehydrogenase family protein&lt;br&gt;Location: 71103 - 69754" locus_tag="N024_RS0226515" class="clusterblast-orf" id="dummy-1_h1_6_9"  />
</g>
<g id="a1_0010"  >
<polygon points="156,90 167,90 172,85 167,80 156,80 156,90 " style="fill:white; stroke-width:1; stroke:black; " description="&lt;b&gt;N024_RS0226510&lt;/b&gt;&lt;br&gt;NAD-dependent epimerase&lt;br&gt;Location: 69757 - 68762" locus_tag="N024_RS0226510" class="clusterblast-orf" id="dummy-1_h1_6_10"  />
</g>
<g id="a1_0011"  >
<polygon points="172,90 179,90 184,85 179,80 172,80 172,90 " style="fill:white; stroke-width:1; stroke:black; " description="&lt;b&gt;N024_RS0226505&lt;/b&gt;&lt;br&gt;glycosyltransferase family 2 protein&lt;br&gt;Location: 68750 - 68007" locus_tag="N024_RS0226505" class="clusterblast-orf" id="dummy-1_h1_6_11"  />
</g>
<g id="a1_0012"  >
<polygon points="184,90 184,90 189,85 184,80 184,80 184,90 " style="fill:white; stroke-width:1; stroke:black; " description="&lt;b&gt;N024_RS0226500&lt;/b&gt;&lt;br&gt;lipid A biosynthesis protein&lt;br&gt;Location: 68010 - 67726" locus_tag="N024_RS0226500" class="clusterblast-orf" id="dummy-1_h1_6_12"  />
</g>
<g id="a1_0013"  >
<polygon points="189,90 208,90 213,85 208,80 189,80 189,90 " style="fill:white; stroke-width:1; stroke:black; " description="&lt;b&gt;N024_RS0226495&lt;/b&gt;&lt;br&gt;dolichyl-phosphate-mannose--protein mannosyltransferase&lt;br&gt;Location: 67729 - 66200" locus_tag="N024_RS0226495" class="clusterblast-orf" id="dummy-1_h1_6_13"  />
</g>
<g id="a1_0014"  >
<polygon points="214,90 225,90 230,85 225,80 214,80 214,90 " style="fill:white; stroke-width:1; stroke:black; " description="&lt;b&gt;N024_RS0226490&lt;/b&gt;&lt;br&gt;SdiA-regulated&lt;br&gt;Location: 66158 - 65178" locus_tag="N024_RS0226490" class="clusterblast-orf" id="dummy-1_h1_6_14"  />
</g>
<g id="a1_0015"  >
<polygon points="232,90 233,90 238,85 233,80 232,80 232,90 " style="fill:white; stroke-width:1; stroke:black; " description="&lt;b&gt;N024_RS2000000229015&lt;/b&gt;&lt;br&gt;IS630 family transposase&lt;br&gt;Location: 65019 - 64685" locus_tag="N024_RS2000000229015" class="clusterblast-orf" id="dummy-1_h1_6_15"  />
</g>
<g id="a1_0016"  >
<polygon points="239,90 241,90 246,85 241,80 239,80 239,90 " style="fill:white; stroke-width:1; stroke:black; " description="&lt;b&gt;N024_RS0226485&lt;/b&gt;&lt;br&gt;DUF2087 domain-containing protein&lt;br&gt;Location: 64602 - 64171" locus_tag="N024_RS0226485" class="clusterblast-orf" id="dummy-1_h1_6_16"  />
</g>
<g id="a1_0017"  >
<polygon points="247,85 252,80 283,80 283,90 252,90 247,85 " style="fill:white; stroke-width:1; stroke:black; " description="&lt;b&gt;N024_RS02000000227860&lt;/b&gt;&lt;br&gt;PhpK family radical SAM P-methyltransferase&lt;br&gt;Location: 64128 - 61888" locus_tag="N024_RS02000000227860" class="clusterblast-orf" id="dummy-1_h1_6_17"  />
</g>
<g id="a1_0018"  >
<polygon points="284,85 289,80 301,80 301,90 289,90 284,85 " style="fill:white; stroke-width:1; stroke:black; " description="&lt;b&gt;N024_RS0226475&lt;/b&gt;&lt;br&gt;2,3-diaminopropionate biosynthesis protein SbnB&lt;br&gt;Location: 61827 - 60778" locus_tag="N024_RS0226475" class="clusterblast-orf" id="dummy-1_h1_6_18"  />
</g>
<g id="a1_0019"  >
<polygon points="301,85 306,80 321,80 321,90 306,90 301,85 " style="fill:white; stroke-width:1; stroke:black; " description="&lt;b&gt;N024_RS0226470&lt;/b&gt;&lt;br&gt;hypothetical protein&lt;br&gt;Location: 60769 - 59483" locus_tag="N024_RS0226470" class="clusterblast-orf" id="dummy-1_h1_6_19"  />
</g>
<g id="a1_0020"  >
<polygon points="321,85 326,80 348,80 348,90 326,90 321,85 " style="fill:white; stroke-width:1; stroke:black; " description="&lt;b&gt;N024_RS0226465&lt;/b&gt;&lt;br&gt;hypothetical protein&lt;br&gt;Location: 59479 - 57815" locus_tag="N024_RS0226465" class="clusterblast-orf" id="dummy-1_h1_6_20"  />
</g>
<g id="a1_0021"  >
<polygon points="351,85 356,80 366,80 366,90 356,90 351,85 " style="fill:white; stroke-width:1; stroke:black; " description="&lt;b&gt;N024_RS0226460&lt;/b&gt;&lt;br&gt;2,3-diaminopropionate biosynthesis protein SbnA&lt;br&gt;Location: 57665 - 56712" locus_tag="N024_RS0226460" class="clusterblast-orf" id="dummy-1_h1_6_21"  />
</g>
<g id="a1_0022"  >
<polygon points="365,85 370,80 463,80 463,90 370,90 365,85 " style="fill:white; stroke-width:1; stroke:black; " description="&lt;b&gt;N024_RS0226455&lt;/b&gt;&lt;br&gt;hypothetical protein&lt;br&gt;Location: 56755 - 50636" locus_tag="N024_RS0226455" class="clusterblast-orf" id="dummy-1_h1_6_22"  />
</g>
<g id="a1_0023"  >
<polygon points="464,85 469,80 477,80 477,90 469,90 464,85 " style="fill:white; stroke-width:1; stroke:black; " description="&lt;b&gt;N024_RS0226450&lt;/b&gt;&lt;br&gt;hypothetical protein&lt;br&gt;Location: 50602 - 49820" locus_tag="N024_RS0226450" class="clusterblast-orf" id="dummy-1_h1_6_23"  />
</g>
<g id="a1_0024"  >
<polygon points="477,85 482,80 489,80 489,90 482,90 477,85 " style="fill:white; stroke-width:1; stroke:black; " description="&lt;b&gt;N024_RS0226445&lt;/b&gt;&lt;br&gt;hypothetical protein&lt;br&gt;Location: 49820 - 49044" locus_tag="N024_RS0226445" class="clusterblast-orf" id="dummy-1_h1_6_24"  />
</g>
<g id="a1_0025"  >
<polygon points="489,85 494,80 506,80 506,90 494,90 489,85 " style="fill:white; stroke-width:1; stroke:black; " description="&lt;b&gt;N024_RS0226440&lt;/b&gt;&lt;br&gt;ABC transporter&lt;br&gt;Location: 49032 - 48007" locus_tag="N024_RS0226440" class="clusterblast-orf" id="dummy-1_h1_6_25"  />
</g>
<g id="a1_0026"  >
<polygon points="512,85 517,80 522,80 522,90 517,90 512,85 " style="fill:white; stroke-width:1; stroke:black; " description="&lt;b&gt;N024_RS02000000227855&lt;/b&gt;&lt;br&gt;IS30 family transposase&lt;br&gt;Location: 47592 - 46987" locus_tag="N024_RS02000000227855" class="clusterblast-orf" id="dummy-1_h1_6_26"  />
</g>
<g id="a1_0027"  >
<polygon points="524,85 529,80 553,80 553,90 529,90 524,85 " style="fill:#bc15d8; stroke-width:1; stroke:black; " description="&lt;b&gt;N024_RS0226420&lt;/b&gt;&lt;br&gt;glutamine--fructose-6-phosphate transaminase (isomerizing)&lt;br&gt;Location: 46899 - 45064&lt;br&gt;&lt;br&gt;&lt;b&gt;BlastP hit with ctg5_991&lt;/b&gt;&lt;br&gt;Percentage identity: 89&lt;br&gt;Percentage coverage: 100&lt;br&gt;BLAST bit score: 1057&lt;br&gt;E-value: 7.4e-307" locus_tag="N024_RS0226420" class="clusterblast-orf" id="dummy-1_h1_6_27"  />
</g>
<g id="a1_0028"  >
<polygon points="553,85 558,80 565,80 565,90 558,90 553,85 " style="fill:#d88515; stroke-width:1; stroke:black; " description="&lt;b&gt;N024_RS0226415&lt;/b&gt;&lt;br&gt;XRE family transcriptional regulator&lt;br&gt;Location: 45054 - 44287&lt;br&gt;&lt;br&gt;&lt;b&gt;BlastP hit with ctg5_992&lt;/b&gt;&lt;br&gt;Percentage identity: 91&lt;br&gt;Percentage coverage: 99&lt;br&gt;BLAST bit score: 462&lt;br&gt;E-value: 4.4e-128" locus_tag="N024_RS0226415" class="clusterblast-orf" id="dummy-1_h1_6_28"  />
</g>
<g id="a1_0029"  >
<polygon points="571,85 576,80 593,80 593,90 576,90 571,85 " style="fill:#154dd8; stroke-width:1; stroke:black; " description="&lt;b&gt;N024_RS0226410&lt;/b&gt;&lt;br&gt;UDP-N-acetylglucosamine diphosphorylase/glucosamine-1-phosphate N-acetyltransferase&lt;br&gt;Location: 43951 - 42584&lt;br&gt;&lt;br&gt;&lt;b&gt;BlastP hit with ctg5_994&lt;/b&gt;&lt;br&gt;Percentage identity: 83&lt;br&gt;Percentage coverage: 100&lt;br&gt;BLAST bit score: 623&lt;br&gt;E-value: 1.5e-176" locus_tag="N024_RS0226410" class="clusterblast-orf" id="dummy-1_h1_6_29"  />
</g>
<g id="a1_0030"  >
<polygon points="595,85 600,80 602,80 602,90 600,90 595,85 " style="fill:#d815bc; stroke-width:1; stroke:black; " description="&lt;b&gt;N024_RS0226405&lt;/b&gt;&lt;br&gt;ATP synthase epsilon chain&lt;br&gt;Location: 42458 - 42033&lt;br&gt;&lt;br&gt;&lt;b&gt;BlastP hit with ctg5_995&lt;/b&gt;&lt;br&gt;Percentage identity: 91&lt;br&gt;Percentage coverage: 100&lt;br&gt;BLAST bit score: 246&lt;br&gt;E-value: 2.1e-63" locus_tag="N024_RS0226405" class="clusterblast-orf" id="dummy-1_h1_6_30"  />
</g>
<g id="a1_0031"  >
<polygon points="602,85 607,80 625,80 625,90 607,90 602,85 " style="fill:#d8bc15; stroke-width:1; stroke:black; " description="&lt;b&gt;N024_RS0226400&lt;/b&gt;&lt;br&gt;ATP synthase subunit beta&lt;br&gt;Location: 41989 - 40610&lt;br&gt;&lt;br&gt;&lt;b&gt;BlastP hit with ctg5_996&lt;/b&gt;&lt;br&gt;Percentage identity: 99&lt;br&gt;Percentage coverage: 100&lt;br&gt;BLAST bit score: 889&lt;br&gt;E-value: 1.5e-256" locus_tag="N024_RS0226400" class="clusterblast-orf" id="dummy-1_h1_6_31"  />
</g>
<g id="a1_0032"  >
<polygon points="625,85 630,80 639,80 639,90 630,90 625,85 " style="fill:#15d885; stroke-width:1; stroke:black; " description="&lt;b&gt;N024_RS0226395&lt;/b&gt;&lt;br&gt;ATP synthase subunit gamma&lt;br&gt;Location: 40582 - 39722&lt;br&gt;&lt;br&gt;&lt;b&gt;BlastP hit with ctg5_997&lt;/b&gt;&lt;br&gt;Percentage identity: 98&lt;br&gt;Percentage coverage: 100&lt;br&gt;BLAST bit score: 535&lt;br&gt;E-value: 3.5e-150" locus_tag="N024_RS0226395" class="clusterblast-orf" id="dummy-1_h1_6_32"  />
</g>
<g id="a1_0033"  >
<polygon points="640,85 645,80 664,80 664,90 645,90 640,85 " style="fill:#1515d8; stroke-width:1; stroke:black; " description="&lt;b&gt;N024_RS0226390&lt;/b&gt;&lt;br&gt;ATP synthase subunit alpha&lt;br&gt;Location: 39671 - 38127&lt;br&gt;&lt;br&gt;&lt;b&gt;BlastP hit with ctg5_998&lt;/b&gt;&lt;br&gt;Percentage identity: 98&lt;br&gt;Percentage coverage: 100&lt;br&gt;BLAST bit score: 975&lt;br&gt;E-value: 1.8e-282" locus_tag="N024_RS0226390" class="clusterblast-orf" id="dummy-1_h1_6_33"  />
</g>
<g id="a1_0034"  >
<polygon points="665,85 670,80 673,80 673,90 670,90 665,85 " style="fill:#d81585; stroke-width:1; stroke:black; " description="&lt;b&gt;N024_RS0226385&lt;/b&gt;&lt;br&gt;ATP synthase subunit delta&lt;br&gt;Location: 38105 - 37569&lt;br&gt;&lt;br&gt;&lt;b&gt;BlastP hit with ctg5_999&lt;/b&gt;&lt;br&gt;Percentage identity: 89&lt;br&gt;Percentage coverage: 100&lt;br&gt;BLAST bit score: 301&lt;br&gt;E-value: 6.9e-80" locus_tag="N024_RS0226385" class="clusterblast-orf" id="dummy-1_h1_6_34"  />
</g>
<g id="a1_0035"  >
<polygon points="674,85 679,80 681,80 681,90 679,90 674,85 " style="fill:#bcd815; stroke-width:1; stroke:black; " description="&lt;b&gt;N024_RS0226380&lt;/b&gt;&lt;br&gt;F0F1 ATP synthase subunit B&lt;br&gt;Location: 37556 - 37086&lt;br&gt;&lt;br&gt;&lt;b&gt;BlastP hit with ctg5_1000&lt;/b&gt;&lt;br&gt;Percentage identity: 92&lt;br&gt;Percentage coverage: 100&lt;br&gt;BLAST bit score: 166&lt;br&gt;E-value: 3e-39" locus_tag="N024_RS0226380" class="clusterblast-orf" id="dummy-1_h1_6_35"  />
</g>
<g id="a1_0036"  >
<polygon points="682,85 686,80 686,90 682,85 " style="fill:#15d8bc; stroke-width:1; stroke:black; " description="&lt;b&gt;N024_RS0226375&lt;/b&gt;&lt;br&gt;ATP synthase subunit C&lt;br&gt;Location: 37028 - 36771&lt;br&gt;&lt;br&gt;&lt;b&gt;BlastP hit with ctg5_1001&lt;/b&gt;&lt;br&gt;Percentage identity: 100&lt;br&gt;Percentage coverage: 100&lt;br&gt;BLAST bit score: 155&lt;br&gt;E-value: 3.8e-36" locus_tag="N024_RS0226375" class="clusterblast-orf" id="dummy-1_h1_6_36"  />
</g>
<g id="a1_0037"  >
<polygon points="688,85 693,80 702,80 702,90 693,90 688,85 " style="fill:#4d15d8; stroke-width:1; stroke:black; " description="&lt;b&gt;N024_RS0226370&lt;/b&gt;&lt;br&gt;ATP synthase subunit A&lt;br&gt;Location: 36632 - 35763&lt;br&gt;&lt;br&gt;&lt;b&gt;BlastP hit with ctg5_1002&lt;/b&gt;&lt;br&gt;Percentage identity: 95&lt;br&gt;Percentage coverage: 100&lt;br&gt;BLAST bit score: 538&lt;br&gt;E-value: 4.2e-151" locus_tag="N024_RS0226370" class="clusterblast-orf" id="dummy-1_h1_6_37"  />
</g>
<g id="a1_0038"  >
<polygon points="703,85 708,80 709,80 709,90 708,90 703,85 " style="fill:#d8154d; stroke-width:1; stroke:black; " description="&lt;b&gt;N024_RS0226365&lt;/b&gt;&lt;br&gt;F0F1 ATP synthase subunit I&lt;br&gt;Location: 35746 - 35339&lt;br&gt;&lt;br&gt;&lt;b&gt;BlastP hit with ctg5_1003&lt;/b&gt;&lt;br&gt;Percentage identity: 86&lt;br&gt;Percentage coverage: 100&lt;br&gt;BLAST bit score: 225&lt;br&gt;E-value: 2.8e-57" locus_tag="N024_RS0226365" class="clusterblast-orf" id="dummy-1_h1_6_38"  />
</g>
<g id="a1_0039"  >
<polygon points="712,85 717,80 726,80 726,90 717,90 712,85 " style="fill:#85d815; stroke-width:1; stroke:black; " description="&lt;b&gt;N024_RS0226360&lt;/b&gt;&lt;br&gt;chromosome partitioning protein ParB&lt;br&gt;Location: 35192 - 34320&lt;br&gt;&lt;br&gt;&lt;b&gt;BlastP hit with ctg5_1004&lt;/b&gt;&lt;br&gt;Percentage identity: 91&lt;br&gt;Percentage coverage: 100&lt;br&gt;BLAST bit score: 500&lt;br&gt;E-value: 1.6e-139" locus_tag="N024_RS0226360" class="clusterblast-orf" id="dummy-1_h1_6_39"  />
</g>
<g id="a1_0040"  >
<polygon points="726,85 731,80 738,80 738,90 731,90 726,85 " style="fill:white; stroke-width:1; stroke:black; " description="&lt;b&gt;N024_RS0226355&lt;/b&gt;&lt;br&gt;ParA family protein&lt;br&gt;Location: 34310 - 33519" locus_tag="N024_RS0226355" class="clusterblast-orf" id="dummy-1_h1_6_40"  />
</g>
<g id="a1_0041"  >
<polygon points="739,85 744,80 749,80 749,90 744,90 739,85 " style="fill:white; stroke-width:1; stroke:black; " description="&lt;b&gt;N024_RS0226350&lt;/b&gt;&lt;br&gt;16S rRNA (guanine(527)-N(7))-methyltransferase RsmG&lt;br&gt;Location: 33500 - 32865" locus_tag="N024_RS0226350" class="clusterblast-orf" id="dummy-1_h1_6_41"  />
</g>
<g id="a1_0042"  >
<polygon points="749,85 754,80 780,80 780,90 754,90 749,85 " style="fill:white; stroke-width:1; stroke:black; " description="&lt;b&gt;N024_RS0226345&lt;/b&gt;&lt;br&gt;tRNA uridine-5-carboxymethylaminomethyl(34) synthesis enzyme MnmG&lt;br&gt;Location: 32859 - 30967" locus_tag="N024_RS0226345" class="clusterblast-orf" id="dummy-1_h1_6_42"  />
</g>
</svg>
