<svg xmlns="http://www.w3.org/2000/svg" xmlns:xlink="http://www.w3.org/1999/xlink" version="1.1" x="0" y="0" height="230" width="800" viewBox="0 0 800 230" preserveAspectRatio="none"  >
<g label="Query sequence" class="clusterblast-cluster"  >
<text x="5" y="20" class="clusterblast-acc"  >
Query sequence</text>
<line x1="10" y1="35" x2="778.0" y2="35" style="stroke-width:1; stroke:grey; "  />
<polygon points="300,40 303,35 300,30 300,40 " style="fill:white; stroke-width:1; stroke:black; " description="&lt;b&gt;ctg3_16&lt;/b&gt;&lt;br&gt;ctg3 16&lt;br&gt;Location: 14210 - 14657" locus_tag="ctg3_16" class="clusterblast-orf" id="dummy-1_q0_0_all"  />
<polygon points="303,35 308,30 313,30 313,40 308,40 303,35 " style="fill:white; stroke-width:1; stroke:black; " description="&lt;b&gt;ctg3_17&lt;/b&gt;&lt;br&gt;ctg3 17&lt;br&gt;Location: 14694 - 15846" locus_tag="ctg3_17" class="clusterblast-orf" id="dummy-1_q1_0_all"  />
<polygon points="316,35 319,30 319,40 316,35 " style="fill:white; stroke-width:1; stroke:black; " description="&lt;b&gt;ctg3_18&lt;/b&gt;&lt;br&gt;ctg3 18&lt;br&gt;Location: 16328 - 16670" locus_tag="ctg3_18" class="clusterblast-orf" id="dummy-1_q2_0_all"  />
<polygon points="320,40 320,40 325,35 320,30 320,30 320,40 " style="fill:white; stroke-width:1; stroke:black; " description="&lt;b&gt;ctg3_19&lt;/b&gt;&lt;br&gt;ctg3 19&lt;br&gt;Location: 16800 - 17451" locus_tag="ctg3_19" class="clusterblast-orf" id="dummy-1_q3_0_all"  />
<polygon points="326,35 331,30 341,30 341,40 331,40 326,35 " style="fill:#d81515; stroke-width:1; stroke:black; " description="&lt;b&gt;ctg3_20&lt;/b&gt;&lt;br&gt;ctg3 20&lt;br&gt;Location: 17490 - 19440" locus_tag="ctg3_20" class="clusterblast-orf" id="dummy-1_q4_0_all"  />
<polygon points="341,35 346,30 347,30 347,40 346,40 341,35 " style="fill:#77d815; stroke-width:1; stroke:black; " description="&lt;b&gt;ctg3_21&lt;/b&gt;&lt;br&gt;ctg3 21&lt;br&gt;Location: 19439 - 20252" locus_tag="ctg3_21" class="clusterblast-orf" id="dummy-1_q5_0_all"  />
<polygon points="348,35 353,30 361,30 361,40 353,40 348,35 " style="fill:#15d8d8; stroke-width:1; stroke:black; " description="&lt;b&gt;ctg3_22&lt;/b&gt;&lt;br&gt;ctg3 22&lt;br&gt;Location: 20357 - 21965" locus_tag="ctg3_22" class="clusterblast-orf" id="dummy-1_q6_0_all"  />
<polygon points="361,35 366,30 370,30 370,40 366,40 361,35 " style="fill:#7715d8; stroke-width:1; stroke:black; " description="&lt;b&gt;ctg3_23&lt;/b&gt;&lt;br&gt;ctg3 23&lt;br&gt;Location: 21977 - 23141" locus_tag="ctg3_23" class="clusterblast-orf" id="dummy-1_q7_0_all"  />
<polygon points="373,40 381,40 386,35 381,30 373,30 373,40 " style="fill:#d8a715; stroke-width:1; stroke:black; " description="&lt;b&gt;ctg3_24&lt;/b&gt;&lt;br&gt;ctg3 24&lt;br&gt;Location: 23480 - 25178" locus_tag="ctg3_24" class="clusterblast-orf" id="dummy-1_q8_0_all"  />
<polygon points="388,35 393,30 394,30 394,40 393,40 388,35 " style="fill:white; stroke-width:1; stroke:black; " description="&lt;b&gt;ctg3_25&lt;/b&gt;&lt;br&gt;ctg3 25&lt;br&gt;Location: 25316 - 26069" locus_tag="ctg3_25" class="clusterblast-orf" id="dummy-1_q9_0_all"  />
<polygon points="394,35 399,30 402,30 402,40 399,40 394,35 " style="fill:#15d846; stroke-width:1; stroke:black; " description="&lt;b&gt;ctg3_26&lt;/b&gt;&lt;br&gt;ctg3 26&lt;br&gt;Location: 26190 - 27093" locus_tag="ctg3_26" class="clusterblast-orf" id="dummy-1_q10_0_all"  />
<polygon points="407,35 412,30 414,30 414,40 412,40 407,35 " style="fill:#1546d8; stroke-width:1; stroke:black; " description="&lt;b&gt;ctg3_27&lt;/b&gt;&lt;br&gt;ctg3 27&lt;br&gt;Location: 27727 - 28627" locus_tag="ctg3_27" class="clusterblast-orf" id="dummy-1_q11_0_all"  />
<polygon points="415,35 418,30 418,40 415,35 " style="fill:#d815a7; stroke-width:1; stroke:black; " description="&lt;b&gt;ctg3_28&lt;/b&gt;&lt;br&gt;ctg3 28&lt;br&gt;Location: 28763 - 29165" locus_tag="ctg3_28" class="clusterblast-orf" id="dummy-1_q12_0_all"  />
<polygon points="420,35 425,30 427,30 427,40 425,40 420,35 " style="fill:white; stroke-width:1; stroke:black; " description="&lt;b&gt;ctg3_29&lt;/b&gt;&lt;br&gt;ctg3 29&lt;br&gt;Location: 29378 - 30308" locus_tag="ctg3_29" class="clusterblast-orf" id="dummy-1_q13_0_all"  />
<polygon points="428,40 433,40 438,35 433,30 428,30 428,40 " style="fill:#7715d8; stroke-width:1; stroke:black; " description="&lt;b&gt;ctg3_30&lt;/b&gt;&lt;br&gt;ctg3 30&lt;br&gt;Location: 30462 - 31692" locus_tag="ctg3_30" class="clusterblast-orf" id="dummy-1_q14_0_all"  />
<polygon points="439,35 444,30 450,30 450,40 444,40 439,35 " style="fill:white; stroke-width:1; stroke:black; " description="&lt;b&gt;ctg3_31&lt;/b&gt;&lt;br&gt;ctg3 31&lt;br&gt;Location: 31846 - 33187" locus_tag="ctg3_31" class="clusterblast-orf" id="dummy-1_q15_0_all"  />
<polygon points="451,35 456,30 458,30 458,40 456,40 451,35 " style="fill:white; stroke-width:1; stroke:black; " description="&lt;b&gt;ctg3_32&lt;/b&gt;&lt;br&gt;ctg3 32&lt;br&gt;Location: 33379 - 34192" locus_tag="ctg3_32" class="clusterblast-orf" id="dummy-1_q16_0_all"  />
<polygon points="460,40 460,40 465,35 460,30 460,30 460,40 " style="fill:white; stroke-width:1; stroke:black; " description="&lt;b&gt;ctg3_33&lt;/b&gt;&lt;br&gt;ctg3 33&lt;br&gt;Location: 34490 - 35141" locus_tag="ctg3_33" class="clusterblast-orf" id="dummy-1_q17_0_all"  />
<polygon points="466,40 475,40 480,35 475,30 466,30 466,40 " style="fill:white; stroke-width:1; stroke:black; " description="&lt;b&gt;ctg3_34&lt;/b&gt;&lt;br&gt;ctg3 34&lt;br&gt;Location: 35242 - 36934" locus_tag="ctg3_34" class="clusterblast-orf" id="dummy-1_q18_0_all"  />
</g>
<g label="NZ_LSAZ01000041" description="NZ_LSAZ01000041_c12: Bacillus nakamurai strain NRRL B-41091 Bacillus-sp-B-410... (8% of genes show similarity), transatpks-nrps" class="clusterblast-cluster"  >
<text x="5" y="70" class="clusterblast-acc"  >
<a xlink:href="https://antismash-db.secondarymetabolites.org/go/NZ_LSAZ01000041/12" target="_blank">NZ_LSAZ01000041_c12</a>: Bacillus nakamurai strain NRRL B-41091 Bacillus-sp-B-410... (8% of genes show similarity), transatpks-nrps</text>
<line x1="10" y1="85" x2="778.0" y2="85" style="stroke-width:1; stroke:grey; "  />
</g>
<g id="a1_000"  >
<polygon points="0,85 1,80 1,90 0,85 " style="fill:white; stroke-width:1; stroke:black; " description="&lt;b&gt;AXI59_RS19560&lt;/b&gt;&lt;br&gt;hypothetical protein&lt;br&gt;Location: 439120 - 439299" locus_tag="AXI59_RS19560" class="clusterblast-orf" id="dummy-1_h1_4_0"  />
</g>
<g id="a1_001"  >
<polygon points="1,90 4,85 1,80 1,90 " style="fill:white; stroke-width:1; stroke:black; " description="&lt;b&gt;AXI59_RS17070&lt;/b&gt;&lt;br&gt;sporulation inhibitor of replication protein SirA&lt;br&gt;Location: 439288 - 439734" locus_tag="AXI59_RS17070" class="clusterblast-orf" id="dummy-1_h1_4_1"  />
</g>
<g id="a1_002"  >
<polygon points="5,90 7,85 5,80 5,90 " style="fill:white; stroke-width:1; stroke:black; " description="&lt;b&gt;AXI59_RS17075&lt;/b&gt;&lt;br&gt;hypothetical protein&lt;br&gt;Location: 439820 - 440038" locus_tag="AXI59_RS17075" class="clusterblast-orf" id="dummy-1_h1_4_2"  />
</g>
<g id="a1_003"  >
<polygon points="7,85 9,80 9,90 7,85 " style="fill:white; stroke-width:1; stroke:black; " description="&lt;b&gt;AXI59_RS17080&lt;/b&gt;&lt;br&gt;aspartyl-phosphate phosphatase Spo0E family protein&lt;br&gt;Location: 440117 - 440302" locus_tag="AXI59_RS17080" class="clusterblast-orf" id="dummy-1_h1_4_3"  />
</g>
<g id="a1_004"  >
<polygon points="10,90 11,90 16,85 11,80 10,80 10,90 " style="fill:white; stroke-width:1; stroke:black; " description="&lt;b&gt;AXI59_RS17085&lt;/b&gt;&lt;br&gt;cytochrome c biogenesis protein CcdA&lt;br&gt;Location: 440487 - 441191" locus_tag="AXI59_RS17085" class="clusterblast-orf" id="dummy-1_h1_4_4"  />
</g>
<g id="a1_005"  >
<polygon points="17,90 19,85 17,80 17,90 " style="fill:white; stroke-width:1; stroke:black; " description="&lt;b&gt;AXI59_RS17090&lt;/b&gt;&lt;br&gt;response regulator&lt;br&gt;Location: 441276 - 441638" locus_tag="AXI59_RS17090" class="clusterblast-orf" id="dummy-1_h1_4_5"  />
</g>
<g id="a1_006"  >
<polygon points="20,90 24,85 20,80 20,90 " style="fill:white; stroke-width:1; stroke:black; " description="&lt;b&gt;AXI59_RS17095&lt;/b&gt;&lt;br&gt;DUF1453 domain-containing protein&lt;br&gt;Location: 441727 - 442209" locus_tag="AXI59_RS17095" class="clusterblast-orf" id="dummy-1_h1_4_6"  />
</g>
<g id="a1_007"  >
<polygon points="24,85 28,80 28,90 24,85 " style="fill:white; stroke-width:1; stroke:black; " description="&lt;b&gt;AXI59_RS17100&lt;/b&gt;&lt;br&gt;DUF2621 domain-containing protein&lt;br&gt;Location: 442237 - 442665" locus_tag="AXI59_RS17100" class="clusterblast-orf" id="dummy-1_h1_4_7"  />
</g>
<g id="a1_008"  >
<polygon points="29,85 32,80 32,90 29,85 " style="fill:white; stroke-width:1; stroke:black; " description="&lt;b&gt;AXI59_RS17105&lt;/b&gt;&lt;br&gt;Hsp20/alpha crystallin family protein&lt;br&gt;Location: 442900 - 443271" locus_tag="AXI59_RS17105" class="clusterblast-orf" id="dummy-1_h1_4_8"  />
</g>
<g id="a1_009"  >
<polygon points="33,85 34,80 34,90 33,85 " style="fill:white; stroke-width:1; stroke:black; " description="&lt;b&gt;AXI59_RS17110&lt;/b&gt;&lt;br&gt;small acid-soluble spore protein P&lt;br&gt;Location: 443366 - 443512" locus_tag="AXI59_RS17110" class="clusterblast-orf" id="dummy-1_h1_4_9"  />
</g>
<g id="a1_0010"  >
<polygon points="35,85 36,80 36,90 35,85 " style="fill:white; stroke-width:1; stroke:black; " description="&lt;b&gt;AXI59_RS17115&lt;/b&gt;&lt;br&gt;small acid-soluble spore protein O&lt;br&gt;Location: 443542 - 443688" locus_tag="AXI59_RS17115" class="clusterblast-orf" id="dummy-1_h1_4_10"  />
</g>
<g id="a1_0011"  >
<polygon points="37,90 54,90 59,85 54,80 37,80 37,90 " style="fill:white; stroke-width:1; stroke:black; " description="&lt;b&gt;AXI59_RS17120&lt;/b&gt;&lt;br&gt;aconitate hydratase AcnA&lt;br&gt;Location: 443918 - 446644" locus_tag="AXI59_RS17120" class="clusterblast-orf" id="dummy-1_h1_4_11"  />
</g>
<g id="a1_0012"  >
<polygon points="60,90 64,85 60,80 60,90 " style="fill:white; stroke-width:1; stroke:black; " description="&lt;b&gt;AXI59_RS17125&lt;/b&gt;&lt;br&gt;thiol:disulfide interchange protein&lt;br&gt;Location: 446706 - 447215" locus_tag="AXI59_RS17125" class="clusterblast-orf" id="dummy-1_h1_4_12"  />
</g>
<g id="a1_0013"  >
<polygon points="64,90 65,85 64,80 64,90 " style="fill:white; stroke-width:1; stroke:black; " description="&lt;b&gt;AXI59_RS17130&lt;/b&gt;&lt;br&gt;FbpB family small basic protein&lt;br&gt;Location: 447294 - 447419" locus_tag="AXI59_RS17130" class="clusterblast-orf" id="dummy-1_h1_4_13"  />
</g>
<g id="a1_0014"  >
<polygon points="66,90 67,85 66,80 66,90 " style="fill:white; stroke-width:1; stroke:black; " description="&lt;b&gt;AXI59_RS17135&lt;/b&gt;&lt;br&gt;small, acid-soluble spore protein N&lt;br&gt;Location: 447483 - 447629" locus_tag="AXI59_RS17135" class="clusterblast-orf" id="dummy-1_h1_4_14"  />
</g>
<g id="a1_0015"  >
<polygon points="67,90 69,85 67,80 67,90 " style="fill:white; stroke-width:1; stroke:black; " description="&lt;b&gt;AXI59_RS17140&lt;/b&gt;&lt;br&gt;small acid-soluble spore protein Tlp&lt;br&gt;Location: 447653 - 447895" locus_tag="AXI59_RS17140" class="clusterblast-orf" id="dummy-1_h1_4_15"  />
</g>
<g id="a1_0016"  >
<polygon points="70,90 73,85 70,80 70,90 " style="fill:white; stroke-width:1; stroke:black; " description="&lt;b&gt;AXI59_RS17145&lt;/b&gt;&lt;br&gt;hypothetical protein&lt;br&gt;Location: 447979 - 448395" locus_tag="AXI59_RS17145" class="clusterblast-orf" id="dummy-1_h1_4_16"  />
</g>
<g id="a1_0017"  >
<polygon points="73,90 75,85 73,80 73,90 " style="fill:white; stroke-width:1; stroke:black; " description="&lt;b&gt;AXI59_RS17150&lt;/b&gt;&lt;br&gt;hypothetical protein&lt;br&gt;Location: 448409 - 448708" locus_tag="AXI59_RS17150" class="clusterblast-orf" id="dummy-1_h1_4_17"  />
</g>
<g id="a1_0018"  >
<polygon points="76,85 78,80 78,90 76,85 " style="fill:white; stroke-width:1; stroke:black; " description="&lt;b&gt;AXI59_RS17155&lt;/b&gt;&lt;br&gt;hypothetical protein&lt;br&gt;Location: 448741 - 449028" locus_tag="AXI59_RS17155" class="clusterblast-orf" id="dummy-1_h1_4_18"  />
</g>
<g id="a1_0019"  >
<polygon points="79,85 83,80 83,90 79,85 " style="fill:white; stroke-width:1; stroke:black; " description="&lt;b&gt;AXI59_RS17160&lt;/b&gt;&lt;br&gt;glycerol-3-phosphate 1-O-acyltransferase PlsY&lt;br&gt;Location: 449115 - 449696" locus_tag="AXI59_RS17160" class="clusterblast-orf" id="dummy-1_h1_4_19"  />
</g>
<g id="a1_0020"  >
<polygon points="84,90 88,85 84,80 84,90 " style="fill:white; stroke-width:1; stroke:black; " description="&lt;b&gt;AXI59_RS17165&lt;/b&gt;&lt;br&gt;CoA-binding protein&lt;br&gt;Location: 449848 - 450255" locus_tag="AXI59_RS17165" class="clusterblast-orf" id="dummy-1_h1_4_20"  />
</g>
<g id="a1_0021"  >
<polygon points="91,90 102,90 107,85 102,80 91,80 91,90 " style="fill:white; stroke-width:1; stroke:black; " description="&lt;b&gt;AXI59_RS17170&lt;/b&gt;&lt;br&gt;DNA topoisomerase IV subunit B&lt;br&gt;Location: 450674 - 452641" locus_tag="AXI59_RS17170" class="clusterblast-orf" id="dummy-1_h1_4_21"  />
</g>
<g id="a1_0022"  >
<polygon points="107,90 121,90 126,85 121,80 107,80 107,90 " style="fill:white; stroke-width:1; stroke:black; " description="&lt;b&gt;AXI59_RS17175&lt;/b&gt;&lt;br&gt;DNA topoisomerase IV subunit A&lt;br&gt;Location: 452644 - 455073" locus_tag="AXI59_RS17175" class="clusterblast-orf" id="dummy-1_h1_4_22"  />
</g>
<g id="a1_0023"  >
<polygon points="127,85 130,80 130,90 127,85 " style="fill:white; stroke-width:1; stroke:black; " description="&lt;b&gt;AXI59_RS17180&lt;/b&gt;&lt;br&gt;hypothetical protein&lt;br&gt;Location: 455275 - 455628" locus_tag="AXI59_RS17180" class="clusterblast-orf" id="dummy-1_h1_4_23"  />
</g>
<g id="a1_0024"  >
<polygon points="133,90 140,90 145,85 140,80 133,80 133,90 " style="fill:white; stroke-width:1; stroke:black; " description="&lt;b&gt;AXI59_RS17185&lt;/b&gt;&lt;br&gt;alanine:cation symporter family protein&lt;br&gt;Location: 456027 - 457439" locus_tag="AXI59_RS17185" class="clusterblast-orf" id="dummy-1_h1_4_24"  />
</g>
<g id="a1_0025"  >
<polygon points="145,90 147,85 145,80 145,90 " style="fill:white; stroke-width:1; stroke:black; " description="&lt;b&gt;AXI59_RS17190&lt;/b&gt;&lt;br&gt;hypothetical protein&lt;br&gt;Location: 457487 - 457756" locus_tag="AXI59_RS17190" class="clusterblast-orf" id="dummy-1_h1_4_25"  />
</g>
<g id="a1_0026"  >
<polygon points="149,85 154,80 211,80 211,90 154,90 149,85 " style="fill:white; stroke-width:1; stroke:black; " description="&lt;b&gt;AXI59_RS17195&lt;/b&gt;&lt;br&gt;non-ribosomal peptide synthetase&lt;br&gt;Location: 458007 - 465854" locus_tag="AXI59_RS17195" class="clusterblast-orf" id="dummy-1_h1_4_26"  />
</g>
<g id="a1_0027"  >
<polygon points="212,85 217,80 339,80 339,90 217,90 212,85 " style="fill:white; stroke-width:1; stroke:black; " description="&lt;b&gt;AXI59_RS17200&lt;/b&gt;&lt;br&gt;non-ribosomal peptide synthetase&lt;br&gt;Location: 465938 - 482026" locus_tag="AXI59_RS17200" class="clusterblast-orf" id="dummy-1_h1_4_27"  />
</g>
<g id="a1_0028"  >
<polygon points="340,85 345,80 434,80 434,90 345,90 340,85 " style="fill:white; stroke-width:1; stroke:black; " description="&lt;b&gt;AXI59_RS17205&lt;/b&gt;&lt;br&gt;non-ribosomal peptide synthetase&lt;br&gt;Location: 482082 - 494027" locus_tag="AXI59_RS17205" class="clusterblast-orf" id="dummy-1_h1_4_28"  />
</g>
<g id="a1_0029"  >
<polygon points="434,85 439,80 444,80 444,90 439,90 434,85 " style="fill:white; stroke-width:1; stroke:black; " description="&lt;b&gt;AXI59_RS17210&lt;/b&gt;&lt;br&gt;[acyl-carrier-protein] S-malonyltransferase&lt;br&gt;Location: 494048 - 495250" locus_tag="AXI59_RS17210" class="clusterblast-orf" id="dummy-1_h1_4_29"  />
</g>
<g id="a1_0030"  >
<polygon points="457,85 462,80 463,80 463,90 462,90 457,85 " style="fill:white; stroke-width:1; stroke:black; " description="&lt;b&gt;AXI59_RS17215&lt;/b&gt;&lt;br&gt;3-hydroxybutyrate dehydrogenase&lt;br&gt;Location: 496872 - 497657" locus_tag="AXI59_RS17215" class="clusterblast-orf" id="dummy-1_h1_4_30"  />
</g>
<g id="a1_0031"  >
<polygon points="463,85 468,80 468,80 468,90 468,90 463,85 " style="fill:white; stroke-width:1; stroke:black; " description="&lt;b&gt;AXI59_RS17220&lt;/b&gt;&lt;br&gt;CoA transferase subunit B&lt;br&gt;Location: 497669 - 498331" locus_tag="AXI59_RS17220" class="clusterblast-orf" id="dummy-1_h1_4_31"  />
</g>
<g id="a1_0032"  >
<polygon points="468,85 473,80 474,80 474,90 473,90 468,85 " style="fill:white; stroke-width:1; stroke:black; " description="&lt;b&gt;AXI59_RS17225&lt;/b&gt;&lt;br&gt;CoA transferase subunit A&lt;br&gt;Location: 498349 - 499050" locus_tag="AXI59_RS17225" class="clusterblast-orf" id="dummy-1_h1_4_32"  />
</g>
<g id="a1_0033"  >
<polygon points="474,85 479,80 485,80 485,90 479,90 474,85 " style="fill:white; stroke-width:1; stroke:black; " description="&lt;b&gt;AXI59_RS17230&lt;/b&gt;&lt;br&gt;transporter&lt;br&gt;Location: 499078 - 500502" locus_tag="AXI59_RS17230" class="clusterblast-orf" id="dummy-1_h1_4_33"  />
</g>
<g id="a1_0034"  >
<polygon points="488,85 493,80 497,80 497,90 493,90 488,85 " style="fill:white; stroke-width:1; stroke:black; " description="&lt;b&gt;AXI59_RS17235&lt;/b&gt;&lt;br&gt;cytochrome P450&lt;br&gt;Location: 500781 - 501977" locus_tag="AXI59_RS17235" class="clusterblast-orf" id="dummy-1_h1_4_34"  />
</g>
<g id="a1_0035"  >
<polygon points="497,85 502,80 505,80 505,90 502,90 497,85 " style="fill:white; stroke-width:1; stroke:black; " description="&lt;b&gt;AXI59_RS17240&lt;/b&gt;&lt;br&gt;biotin synthase BioB&lt;br&gt;Location: 501979 - 502998" locus_tag="AXI59_RS17240" class="clusterblast-orf" id="dummy-1_h1_4_35"  />
</g>
<g id="a1_0036"  >
<polygon points="505,85 510,80 511,80 511,90 510,90 505,85 " style="fill:white; stroke-width:1; stroke:black; " description="&lt;b&gt;AXI59_RS17245&lt;/b&gt;&lt;br&gt;ATP-dependent dethiobiotin synthetase BioD&lt;br&gt;Location: 502995 - 503702" locus_tag="AXI59_RS17245" class="clusterblast-orf" id="dummy-1_h1_4_36"  />
</g>
<g id="a1_0037"  >
<polygon points="511,85 516,80 520,80 520,90 516,90 511,85 " style="fill:white; stroke-width:1; stroke:black; " description="&lt;b&gt;AXI59_RS17250&lt;/b&gt;&lt;br&gt;8-amino-7-oxononanoate synthase&lt;br&gt;Location: 503699 - 504811" locus_tag="AXI59_RS17250" class="clusterblast-orf" id="dummy-1_h1_4_37"  />
</g>
<g id="a1_0038"  >
<polygon points="520,85 525,80 530,80 530,90 525,90 520,85 " style="fill:white; stroke-width:1; stroke:black; " description="&lt;b&gt;AXI59_RS17255&lt;/b&gt;&lt;br&gt;adenosylmethionine--8-amino-7-oxononanoate transaminase&lt;br&gt;Location: 504837 - 506183" locus_tag="AXI59_RS17255" class="clusterblast-orf" id="dummy-1_h1_4_38"  />
</g>
<g id="a1_0039"  >
<polygon points="530,85 535,80 537,80 537,90 535,90 530,85 " style="fill:white; stroke-width:1; stroke:black; " description="&lt;b&gt;AXI59_RS17260&lt;/b&gt;&lt;br&gt;6-carboxyhexanoate--CoA ligase&lt;br&gt;Location: 506180 - 506950" locus_tag="AXI59_RS17260" class="clusterblast-orf" id="dummy-1_h1_4_39"  />
</g>
<g id="a1_0040"  >
<polygon points="538,85 540,80 540,90 538,85 " style="fill:white; stroke-width:1; stroke:black; " description="&lt;b&gt;AXI59_RS17265&lt;/b&gt;&lt;br&gt;hypothetical protein&lt;br&gt;Location: 507154 - 507384" locus_tag="AXI59_RS17265" class="clusterblast-orf" id="dummy-1_h1_4_40"  />
</g>
<g id="a1_0041"  >
<polygon points="541,90 543,85 541,80 541,90 " style="fill:white; stroke-width:1; stroke:black; " description="&lt;b&gt;AXI59_RS17270&lt;/b&gt;&lt;br&gt;GtrA family protein&lt;br&gt;Location: 507516 - 507755" locus_tag="AXI59_RS17270" class="clusterblast-orf" id="dummy-1_h1_4_41"  />
</g>
<g id="a1_0042"  >
<polygon points="543,90 545,90 550,85 545,80 543,80 543,90 " style="fill:white; stroke-width:1; stroke:black; " description="&lt;b&gt;AXI59_RS17275&lt;/b&gt;&lt;br&gt;UTP--glucose-1-phosphate uridylyltransferase&lt;br&gt;Location: 507737 - 508603" locus_tag="AXI59_RS17275" class="clusterblast-orf" id="dummy-1_h1_4_42"  />
</g>
<g id="a1_0043"  >
<polygon points="550,90 550,90 555,85 550,80 550,80 550,90 " style="fill:white; stroke-width:1; stroke:black; " description="&lt;b&gt;AXI59_RS17280&lt;/b&gt;&lt;br&gt;DedA family protein&lt;br&gt;Location: 508678 - 509268" locus_tag="AXI59_RS17280" class="clusterblast-orf" id="dummy-1_h1_4_43"  />
</g>
<g id="a1_0044"  >
<polygon points="555,85 560,80 568,80 568,90 560,90 555,85 " style="fill:#15d8d8; stroke-width:1; stroke:black; " description="&lt;b&gt;AXI59_RS17285&lt;/b&gt;&lt;br&gt;acyl-CoA carboxylase subunit beta&lt;br&gt;Location: 509341 - 510870&lt;br&gt;&lt;br&gt;&lt;b&gt;BlastP hit with ctg3_22&lt;/b&gt;&lt;br&gt;Percentage identity: 37&lt;br&gt;Percentage coverage: 93&lt;br&gt;BLAST bit score: 311&lt;br&gt;E-value: 2e-82" locus_tag="AXI59_RS17285" class="clusterblast-orf" id="dummy-1_h1_4_44"  />
</g>
<g id="a1_0045"  >
<polygon points="568,85 573,80 574,80 574,90 573,90 568,85 " style="fill:white; stroke-width:1; stroke:black; " description="&lt;b&gt;AXI59_RS17290&lt;/b&gt;&lt;br&gt;enoyl-CoA hydratase&lt;br&gt;Location: 510888 - 511667" locus_tag="AXI59_RS17290" class="clusterblast-orf" id="dummy-1_h1_4_45"  />
</g>
<g id="a1_0046"  >
<polygon points="574,85 579,80 581,80 581,90 579,90 574,85 " style="fill:#1546d8; stroke-width:1; stroke:black; " description="&lt;b&gt;AXI59_RS17295&lt;/b&gt;&lt;br&gt;hydroxymethylglutaryl-CoA lyase&lt;br&gt;Location: 511681 - 512580&lt;br&gt;&lt;br&gt;&lt;b&gt;BlastP hit with ctg3_27&lt;/b&gt;&lt;br&gt;Percentage identity: 44&lt;br&gt;Percentage coverage: 99&lt;br&gt;BLAST bit score: 248&lt;br&gt;E-value: 8.9e-64" locus_tag="AXI59_RS17295" class="clusterblast-orf" id="dummy-1_h1_4_46"  />
</g>
<g id="a1_0047"  >
<polygon points="581,85 583,80 583,90 581,85 " style="fill:white; stroke-width:1; stroke:black; " description="&lt;b&gt;AXI59_RS17300&lt;/b&gt;&lt;br&gt;acetyl-CoA carboxylase biotin carboxyl carrier protein subunit&lt;br&gt;Location: 512596 - 512808" locus_tag="AXI59_RS17300" class="clusterblast-orf" id="dummy-1_h1_4_47"  />
</g>
<g id="a1_0048"  >
<polygon points="583,85 588,80 594,80 594,90 588,90 583,85 " style="fill:#d81515; stroke-width:1; stroke:black; " description="&lt;b&gt;AXI59_RS17305&lt;/b&gt;&lt;br&gt;acetyl-CoA carboxylase biotin carboxylase subunit&lt;br&gt;Location: 512822 - 514156&lt;br&gt;&lt;br&gt;&lt;b&gt;BlastP hit with ctg3_20&lt;/b&gt;&lt;br&gt;Percentage identity: 50&lt;br&gt;Percentage coverage: 67&lt;br&gt;BLAST bit score: 419&lt;br&gt;E-value: 6.3e-115" locus_tag="AXI59_RS17305" class="clusterblast-orf" id="dummy-1_h1_4_48"  />
</g>
<g id="a1_0049"  >
<polygon points="594,85 599,80 607,80 607,90 599,90 594,85 " style="fill:#d8a715; stroke-width:1; stroke:black; " description="&lt;b&gt;AXI59_RS17310&lt;/b&gt;&lt;br&gt;AMP-binding protein&lt;br&gt;Location: 514178 - 515818&lt;br&gt;&lt;br&gt;&lt;b&gt;BlastP hit with ctg3_24&lt;/b&gt;&lt;br&gt;Percentage identity: 49&lt;br&gt;Percentage coverage: 96&lt;br&gt;BLAST bit score: 546&lt;br&gt;E-value: 3e-153" locus_tag="AXI59_RS17310" class="clusterblast-orf" id="dummy-1_h1_4_49"  />
</g>
<g id="a1_0050"  >
<polygon points="607,85 612,80 616,80 616,90 612,90 607,85 " style="fill:#7715d8; stroke-width:1; stroke:black; " description="&lt;b&gt;AXI59_RS17315&lt;/b&gt;&lt;br&gt;acyl-CoA dehydrogenase&lt;br&gt;Location: 515858 - 517000&lt;br&gt;&lt;br&gt;&lt;b&gt;BlastP hit with ctg3_23&lt;/b&gt;&lt;br&gt;Percentage identity: 41&lt;br&gt;Percentage coverage: 98&lt;br&gt;BLAST bit score: 297&lt;br&gt;E-value: 2.8e-78&lt;br&gt;&lt;br&gt;&lt;b&gt;BlastP hit with ctg3_30&lt;/b&gt;&lt;br&gt;Percentage identity: 31&lt;br&gt;Percentage coverage: 96&lt;br&gt;BLAST bit score: 158&lt;br&gt;E-value: 1.7e-36" locus_tag="AXI59_RS17315" class="clusterblast-orf" id="dummy-1_h1_4_50"  />
</g>
<g id="a1_0051"  >
<polygon points="617,85 622,80 629,80 629,90 622,90 617,85 " style="fill:white; stroke-width:1; stroke:black; " description="&lt;b&gt;AXI59_RS17320&lt;/b&gt;&lt;br&gt;hypothetical protein&lt;br&gt;Location: 517135 - 518676" locus_tag="AXI59_RS17320" class="clusterblast-orf" id="dummy-1_h1_4_51"  />
</g>
<g id="a1_0052"  >
<polygon points="630,85 633,80 633,90 630,85 " style="fill:white; stroke-width:1; stroke:black; " description="&lt;b&gt;AXI59_RS17325&lt;/b&gt;&lt;br&gt;DUF1360 domain-containing protein&lt;br&gt;Location: 518797 - 519177" locus_tag="AXI59_RS17325" class="clusterblast-orf" id="dummy-1_h1_4_52"  />
</g>
<g id="a1_0053"  >
<polygon points="634,85 639,80 645,80 645,90 639,90 634,85 " style="fill:white; stroke-width:1; stroke:black; " description="&lt;b&gt;AXI59_RS17330&lt;/b&gt;&lt;br&gt;non-ribosomal peptide synthase&lt;br&gt;Location: 519247 - 520677" locus_tag="AXI59_RS17330" class="clusterblast-orf" id="dummy-1_h1_4_53"  />
</g>
<g id="a1_0054"  >
<polygon points="647,85 652,80 658,80 658,90 652,90 647,85 " style="fill:white; stroke-width:1; stroke:black; " description="&lt;b&gt;AXI59_RS17335&lt;/b&gt;&lt;br&gt;D-alanyl-D-alanine carboxypeptidase/D-alanyl-D-alanine-endopeptidase&lt;br&gt;Location: 520860 - 522335" locus_tag="AXI59_RS17335" class="clusterblast-orf" id="dummy-1_h1_4_54"  />
</g>
<g id="a1_0055"  >
<polygon points="658,85 663,80 666,80 666,90 663,90 658,85 " style="fill:white; stroke-width:1; stroke:black; " description="&lt;b&gt;AXI59_RS17340&lt;/b&gt;&lt;br&gt;aldose 1-epimerase&lt;br&gt;Location: 522355 - 523323" locus_tag="AXI59_RS17340" class="clusterblast-orf" id="dummy-1_h1_4_55"  />
</g>
<g id="a1_0056"  >
<polygon points="667,85 672,80 678,80 678,90 672,90 667,85 " style="fill:white; stroke-width:1; stroke:black; " description="&lt;b&gt;AXI59_RS17345&lt;/b&gt;&lt;br&gt;MATE family efflux transporter&lt;br&gt;Location: 523437 - 524822" locus_tag="AXI59_RS17345" class="clusterblast-orf" id="dummy-1_h1_4_56"  />
</g>
<g id="a1_0057"  >
<polygon points="680,90 684,85 680,80 680,90 " style="fill:white; stroke-width:1; stroke:black; " description="&lt;b&gt;AXI59_RS17350&lt;/b&gt;&lt;br&gt;hypothetical protein&lt;br&gt;Location: 525053 - 525595" locus_tag="AXI59_RS17350" class="clusterblast-orf" id="dummy-1_h1_4_57"  />
</g>
<g id="a1_0058"  >
<polygon points="685,90 686,90 691,85 686,80 685,80 685,90 " style="fill:white; stroke-width:1; stroke:black; " description="&lt;b&gt;AXI59_RS17355&lt;/b&gt;&lt;br&gt;hypothetical protein&lt;br&gt;Location: 525724 - 526453" locus_tag="AXI59_RS17355" class="clusterblast-orf" id="dummy-1_h1_4_58"  />
</g>
<g id="a1_0059"  >
<polygon points="692,85 696,80 696,90 692,85 " style="fill:white; stroke-width:1; stroke:black; " description="&lt;b&gt;AXI59_RS17365&lt;/b&gt;&lt;br&gt;site-specific integrase&lt;br&gt;Location: 526611 - 527156" locus_tag="AXI59_RS17365" class="clusterblast-orf" id="dummy-1_h1_4_59"  />
</g>
<g id="a1_0060"  >
<polygon points="699,85 701,80 701,90 699,85 " style="fill:white; stroke-width:1; stroke:black; " description="&lt;b&gt;AXI59_RS17370&lt;/b&gt;&lt;br&gt;hypothetical protein&lt;br&gt;Location: 527472 - 527702" locus_tag="AXI59_RS17370" class="clusterblast-orf" id="dummy-1_h1_4_60"  />
</g>
<g id="a1_0061"  >
<polygon points="703,90 712,90 717,85 712,80 703,80 703,90 " style="fill:white; stroke-width:1; stroke:black; " description="&lt;b&gt;AXI59_RS17375&lt;/b&gt;&lt;br&gt;gamma-glutamyltransferase&lt;br&gt;Location: 527932 - 529701" locus_tag="AXI59_RS17375" class="clusterblast-orf" id="dummy-1_h1_4_61"  />
</g>
<g id="a1_0062"  >
<polygon points="717,85 722,80 726,80 726,90 722,90 717,85 " style="fill:white; stroke-width:1; stroke:black; " description="&lt;b&gt;AXI59_RS17380&lt;/b&gt;&lt;br&gt;MFS transporter&lt;br&gt;Location: 529742 - 530917" locus_tag="AXI59_RS17380" class="clusterblast-orf" id="dummy-1_h1_4_62"  />
</g>
<g id="a1_0063"  >
<polygon points="727,85 730,80 730,90 727,85 " style="fill:white; stroke-width:1; stroke:black; " description="&lt;b&gt;AXI59_RS17385&lt;/b&gt;&lt;br&gt;ArsR family transcriptional regulator&lt;br&gt;Location: 531052 - 531354" locus_tag="AXI59_RS17385" class="clusterblast-orf" id="dummy-1_h1_4_63"  />
</g>
<g id="a1_0064"  >
<polygon points="730,85 735,80 745,80 745,90 735,90 730,85 " style="fill:white; stroke-width:1; stroke:black; " description="&lt;b&gt;AXI59_RS17390&lt;/b&gt;&lt;br&gt;threonine--tRNA ligase&lt;br&gt;Location: 531391 - 533319" locus_tag="AXI59_RS17390" class="clusterblast-orf" id="dummy-1_h1_4_64"  />
</g>
<g id="a1_0065"  >
<polygon points="751,85 756,80 758,80 758,90 756,90 751,85 " style="fill:#15d846; stroke-width:1; stroke:black; " description="&lt;b&gt;AXI59_RS17395&lt;/b&gt;&lt;br&gt;LysR family transcriptional regulator&lt;br&gt;Location: 534056 - 534934&lt;br&gt;&lt;br&gt;&lt;b&gt;BlastP hit with ctg3_26&lt;/b&gt;&lt;br&gt;Percentage identity: 31&lt;br&gt;Percentage coverage: 41&lt;br&gt;BLAST bit score: 61&lt;br&gt;E-value: 2.6e-07" locus_tag="AXI59_RS17395" class="clusterblast-orf" id="dummy-1_h1_4_65"  />
</g>
<g id="a1_0066"  >
<polygon points="759,90 762,90 767,85 762,80 759,80 759,90 " style="fill:white; stroke-width:1; stroke:black; " description="&lt;b&gt;AXI59_RS17400&lt;/b&gt;&lt;br&gt;alcohol dehydrogenase&lt;br&gt;Location: 535053 - 536033" locus_tag="AXI59_RS17400" class="clusterblast-orf" id="dummy-1_h1_4_66"  />
</g>
<g id="a1_0067"  >
<polygon points="768,85 773,80 779,80 779,90 773,90 768,85 " style="fill:white; stroke-width:1; stroke:black; " description="&lt;b&gt;AXI59_RS17405&lt;/b&gt;&lt;br&gt;glutamate synthase&lt;br&gt;Location: 536162 - 537643" locus_tag="AXI59_RS17405" class="clusterblast-orf" id="dummy-1_h1_4_67"  />
</g>
</svg>
