<svg xmlns="http://www.w3.org/2000/svg" xmlns:xlink="http://www.w3.org/1999/xlink" version="1.1" x="0" y="0" height="230" width="800" viewBox="0 0 800 230" preserveAspectRatio="none"  >
<g label="Query sequence" class="clusterblast-cluster"  >
<text x="5" y="20" class="clusterblast-acc"  >
Query sequence</text>
<line x1="10" y1="35" x2="778.0" y2="35" style="stroke-width:1; stroke:grey; "  />
<polygon points="0,40 0,40 5,35 0,30 0,30 0,40 " style="fill:#d81515; stroke-width:1; stroke:black; " description="&lt;b&gt;ctg3_645&lt;/b&gt;&lt;br&gt;ctg3 645&lt;br&gt;Location: 683119 - 684538" locus_tag="ctg3_645" class="clusterblast-orf" id="dummy-2_q0_0_all"  />
<polygon points="5,40 8,35 5,30 5,40 " style="fill:#77d815; stroke-width:1; stroke:black; " description="&lt;b&gt;ctg3_646&lt;/b&gt;&lt;br&gt;ctg3 646&lt;br&gt;Location: 684534 - 685431" locus_tag="ctg3_646" class="clusterblast-orf" id="dummy-2_q1_0_all"  />
<polygon points="8,40 12,35 8,30 8,40 " style="fill:#15d8d8; stroke-width:1; stroke:black; " description="&lt;b&gt;ctg3_647&lt;/b&gt;&lt;br&gt;ctg3 647&lt;br&gt;Location: 685564 - 686662" locus_tag="ctg3_647" class="clusterblast-orf" id="dummy-2_q2_0_all"  />
<polygon points="13,40 16,35 13,30 13,40 " style="fill:#7715d8; stroke-width:1; stroke:black; " description="&lt;b&gt;ctg3_648&lt;/b&gt;&lt;br&gt;ctg3 648&lt;br&gt;Location: 686889 - 687681" locus_tag="ctg3_648" class="clusterblast-orf" id="dummy-2_q3_0_all"  />
<polygon points="16,40 20,35 16,30 16,40 " style="fill:#d82615; stroke-width:1; stroke:black; " description="&lt;b&gt;ctg3_649&lt;/b&gt;&lt;br&gt;ctg3 649&lt;br&gt;Location: 687704 - 688865" locus_tag="ctg3_649" class="clusterblast-orf" id="dummy-2_q4_0_all"  />
<polygon points="20,40 23,40 28,35 23,30 20,30 20,40 " style="fill:#65d815; stroke-width:1; stroke:black; " description="&lt;b&gt;ctg3_650&lt;/b&gt;&lt;br&gt;ctg3 650&lt;br&gt;Location: 688883 - 690971" locus_tag="ctg3_650" class="clusterblast-orf" id="dummy-2_q5_0_all"  />
<polygon points="28,40 30,35 28,30 28,40 " style="fill:#15c7d8; stroke-width:1; stroke:black; " description="&lt;b&gt;ctg3_651&lt;/b&gt;&lt;br&gt;ctg3 651&lt;br&gt;Location: 691009 - 691711" locus_tag="ctg3_651" class="clusterblast-orf" id="dummy-2_q6_0_all"  />
<polygon points="30,40 32,35 30,30 30,40 " style="fill:#8815d8; stroke-width:1; stroke:black; " description="&lt;b&gt;ctg3_652&lt;/b&gt;&lt;br&gt;ctg3 652&lt;br&gt;Location: 691732 - 692368" locus_tag="ctg3_652" class="clusterblast-orf" id="dummy-2_q7_0_all"  />
<polygon points="33,40 35,35 33,30 33,40 " style="fill:#d83815; stroke-width:1; stroke:black; " description="&lt;b&gt;ctg3_653&lt;/b&gt;&lt;br&gt;ctg3 653&lt;br&gt;Location: 692472 - 693186" locus_tag="ctg3_653" class="clusterblast-orf" id="dummy-2_q8_0_all"  />
<polygon points="36,40 37,40 42,35 37,30 36,30 36,40 " style="fill:#54d815; stroke-width:1; stroke:black; " description="&lt;b&gt;ctg3_654&lt;/b&gt;&lt;br&gt;ctg3 654&lt;br&gt;Location: 693384 - 695019" locus_tag="ctg3_654" class="clusterblast-orf" id="dummy-2_q9_0_all"  />
<polygon points="43,40 45,40 50,35 45,30 43,30 43,40 " style="fill:#15b6d8; stroke-width:1; stroke:black; " description="&lt;b&gt;ctg3_655&lt;/b&gt;&lt;br&gt;ctg3 655&lt;br&gt;Location: 695197 - 697201" locus_tag="ctg3_655" class="clusterblast-orf" id="dummy-2_q10_0_all"  />
<polygon points="50,40 53,35 50,30 50,40 " style="fill:#9915d8; stroke-width:1; stroke:black; " description="&lt;b&gt;ctg3_656&lt;/b&gt;&lt;br&gt;ctg3 656&lt;br&gt;Location: 697228 - 698011" locus_tag="ctg3_656" class="clusterblast-orf" id="dummy-2_q11_0_all"  />
<polygon points="53,40 56,35 53,30 53,40 " style="fill:#d84915; stroke-width:1; stroke:black; " description="&lt;b&gt;ctg3_657&lt;/b&gt;&lt;br&gt;ctg3 657&lt;br&gt;Location: 698163 - 698868" locus_tag="ctg3_657" class="clusterblast-orf" id="dummy-2_q12_0_all"  />
<polygon points="56,40 58,35 56,30 56,40 " style="fill:#43d815; stroke-width:1; stroke:black; " description="&lt;b&gt;ctg3_658&lt;/b&gt;&lt;br&gt;ctg3 658&lt;br&gt;Location: 698873 - 699572" locus_tag="ctg3_658" class="clusterblast-orf" id="dummy-2_q13_0_all"  />
<polygon points="58,40 62,35 58,30 58,40 " style="fill:#15a5d8; stroke-width:1; stroke:black; " description="&lt;b&gt;ctg3_659&lt;/b&gt;&lt;br&gt;ctg3 659&lt;br&gt;Location: 699571 - 700579" locus_tag="ctg3_659" class="clusterblast-orf" id="dummy-2_q14_0_all"  />
<polygon points="61,35 64,30 64,40 61,35 " style="fill:#8815d8; stroke-width:1; stroke:black; " description="&lt;b&gt;ctg3_660&lt;/b&gt;&lt;br&gt;ctg3 660&lt;br&gt;Location: 700438 - 701074" locus_tag="ctg3_660" class="clusterblast-orf" id="dummy-2_q15_0_all"  />
<polygon points="64,40 68,35 64,30 64,40 " style="fill:#aa15d8; stroke-width:1; stroke:black; " description="&lt;b&gt;ctg3_661&lt;/b&gt;&lt;br&gt;ctg3 661&lt;br&gt;Location: 701191 - 702208" locus_tag="ctg3_661" class="clusterblast-orf" id="dummy-2_q16_0_all"  />
<polygon points="70,40 99,40 104,35 99,30 70,30 70,40 " style="fill:#d85a15; stroke-width:1; stroke:black; " description="&lt;b&gt;ctg3_662&lt;/b&gt;&lt;br&gt;ctg3 662&lt;br&gt;Location: 702809 - 712511" locus_tag="ctg3_662" class="clusterblast-orf" id="dummy-2_q17_0_all"  />
<polygon points="104,40 114,40 119,35 114,30 104,30 104,40 " style="fill:#d85a15; stroke-width:1; stroke:black; " description="&lt;b&gt;ctg3_663&lt;/b&gt;&lt;br&gt;ctg3 663&lt;br&gt;Location: 712507 - 716722" locus_tag="ctg3_663" class="clusterblast-orf" id="dummy-2_q18_0_all"  />
<polygon points="119,40 147,40 152,35 147,30 119,30 119,40 " style="fill:#d85a15; stroke-width:1; stroke:black; " description="&lt;b&gt;ctg3_664&lt;/b&gt;&lt;br&gt;ctg3 664&lt;br&gt;Location: 716718 - 725811" locus_tag="ctg3_664" class="clusterblast-orf" id="dummy-2_q19_0_all"  />
<polygon points="152,40 152,35 152,30 152,40 " style="fill:#32d815; stroke-width:1; stroke:black; " description="&lt;b&gt;ctg3_665&lt;/b&gt;&lt;br&gt;ctg3 665&lt;br&gt;Location: 725803 - 725989" locus_tag="ctg3_665" class="clusterblast-orf" id="dummy-2_q20_0_all"  />
<polygon points="153,40 156,35 153,30 153,40 " style="fill:#1593d8; stroke-width:1; stroke:black; " description="&lt;b&gt;ctg3_666&lt;/b&gt;&lt;br&gt;ctg3 666&lt;br&gt;Location: 726133 - 727003" locus_tag="ctg3_666" class="clusterblast-orf" id="dummy-2_q21_0_all"  />
<polygon points="156,35 161,30 161,30 161,40 161,40 156,35 " style="fill:#bc15d8; stroke-width:1; stroke:black; " description="&lt;b&gt;ctg3_667&lt;/b&gt;&lt;br&gt;ctg3 667&lt;br&gt;Location: 727121 - 728366" locus_tag="ctg3_667" class="clusterblast-orf" id="dummy-2_q22_0_all"  />
<polygon points="161,35 163,30 163,40 161,35 " style="fill:#d86b15; stroke-width:1; stroke:black; " description="&lt;b&gt;ctg3_668&lt;/b&gt;&lt;br&gt;ctg3 668&lt;br&gt;Location: 728365 - 728881" locus_tag="ctg3_668" class="clusterblast-orf" id="dummy-2_q23_0_all"  />
<polygon points="163,35 166,30 166,40 163,35 " style="fill:#21d815; stroke-width:1; stroke:black; " description="&lt;b&gt;ctg3_669&lt;/b&gt;&lt;br&gt;ctg3 669&lt;br&gt;Location: 728973 - 729912" locus_tag="ctg3_669" class="clusterblast-orf" id="dummy-2_q24_0_all"  />
<polygon points="167,40 169,35 167,30 167,40 " style="fill:#1582d8; stroke-width:1; stroke:black; " description="&lt;b&gt;ctg3_670&lt;/b&gt;&lt;br&gt;ctg3 670&lt;br&gt;Location: 730094 - 730691" locus_tag="ctg3_670" class="clusterblast-orf" id="dummy-2_q25_0_all"  />
<polygon points="169,40 172,35 169,30 169,40 " style="fill:#cd15d8; stroke-width:1; stroke:black; " description="&lt;b&gt;ctg3_671&lt;/b&gt;&lt;br&gt;ctg3 671&lt;br&gt;Location: 730717 - 731395" locus_tag="ctg3_671" class="clusterblast-orf" id="dummy-2_q26_0_all"  />
<polygon points="172,40 172,40 177,35 172,30 172,30 172,40 " style="fill:#d87c15; stroke-width:1; stroke:black; " description="&lt;b&gt;ctg3_672&lt;/b&gt;&lt;br&gt;ctg3 672&lt;br&gt;Location: 731504 - 732959" locus_tag="ctg3_672" class="clusterblast-orf" id="dummy-2_q27_0_all"  />
<polygon points="178,35 181,30 181,40 178,35 " style="fill:#15d81b; stroke-width:1; stroke:black; " description="&lt;b&gt;ctg3_673&lt;/b&gt;&lt;br&gt;ctg3 673&lt;br&gt;Location: 733116 - 733956" locus_tag="ctg3_673" class="clusterblast-orf" id="dummy-2_q28_0_all"  />
<polygon points="181,35 185,30 185,40 181,35 " style="fill:#1571d8; stroke-width:1; stroke:black; " description="&lt;b&gt;ctg3_674&lt;/b&gt;&lt;br&gt;ctg3 674&lt;br&gt;Location: 734052 - 735204" locus_tag="ctg3_674" class="clusterblast-orf" id="dummy-2_q29_0_all"  />
<polygon points="185,35 190,30 190,30 190,40 190,40 185,35 " style="fill:#d815d3; stroke-width:1; stroke:black; " description="&lt;b&gt;ctg3_675&lt;/b&gt;&lt;br&gt;ctg3 675&lt;br&gt;Location: 735288 - 736560" locus_tag="ctg3_675" class="clusterblast-orf" id="dummy-2_q30_0_all"  />
<polygon points="190,35 193,30 193,40 190,35 " style="fill:#d88e15; stroke-width:1; stroke:black; " description="&lt;b&gt;ctg3_676&lt;/b&gt;&lt;br&gt;ctg3 676&lt;br&gt;Location: 736552 - 737500" locus_tag="ctg3_676" class="clusterblast-orf" id="dummy-2_q31_0_all"  />
<polygon points="193,35 197,30 197,40 193,35 " style="fill:#15d82c; stroke-width:1; stroke:black; " description="&lt;b&gt;ctg3_677&lt;/b&gt;&lt;br&gt;ctg3 677&lt;br&gt;Location: 737545 - 738472" locus_tag="ctg3_677" class="clusterblast-orf" id="dummy-2_q32_0_all"  />
<polygon points="197,40 200,35 197,30 197,40 " style="fill:#1560d8; stroke-width:1; stroke:black; " description="&lt;b&gt;ctg3_678&lt;/b&gt;&lt;br&gt;ctg3 678&lt;br&gt;Location: 738643 - 739417" locus_tag="ctg3_678" class="clusterblast-orf" id="dummy-2_q33_0_all"  />
<polygon points="200,35 203,30 203,40 200,35 " style="fill:#d815c1; stroke-width:1; stroke:black; " description="&lt;b&gt;ctg3_679&lt;/b&gt;&lt;br&gt;ctg3 679&lt;br&gt;Location: 739442 - 740150" locus_tag="ctg3_679" class="clusterblast-orf" id="dummy-2_q34_0_all"  />
<polygon points="203,35 205,30 205,40 203,35 " style="fill:#d89f15; stroke-width:1; stroke:black; " description="&lt;b&gt;ctg3_680&lt;/b&gt;&lt;br&gt;ctg3 680&lt;br&gt;Location: 740151 - 740697" locus_tag="ctg3_680" class="clusterblast-orf" id="dummy-2_q35_0_all"  />
<polygon points="205,40 208,35 205,30 205,40 " style="fill:#15d83d; stroke-width:1; stroke:black; " description="&lt;b&gt;ctg3_681&lt;/b&gt;&lt;br&gt;ctg3 681&lt;br&gt;Location: 740880 - 741528" locus_tag="ctg3_681" class="clusterblast-orf" id="dummy-2_q36_0_all"  />
<polygon points="208,40 212,35 208,30 208,40 " style="fill:#154fd8; stroke-width:1; stroke:black; " description="&lt;b&gt;ctg3_682&lt;/b&gt;&lt;br&gt;ctg3 682&lt;br&gt;Location: 741538 - 742768" locus_tag="ctg3_682" class="clusterblast-orf" id="dummy-2_q37_0_all"  />
<polygon points="212,40 215,35 212,30 212,40 " style="fill:#d815b0; stroke-width:1; stroke:black; " description="&lt;b&gt;ctg3_683&lt;/b&gt;&lt;br&gt;ctg3 683&lt;br&gt;Location: 742769 - 743627" locus_tag="ctg3_683" class="clusterblast-orf" id="dummy-2_q38_0_all"  />
<polygon points="215,40 218,35 215,30 215,40 " style="fill:#d8b015; stroke-width:1; stroke:black; " description="&lt;b&gt;ctg3_684&lt;/b&gt;&lt;br&gt;ctg3 684&lt;br&gt;Location: 743719 - 744373" locus_tag="ctg3_684" class="clusterblast-orf" id="dummy-2_q39_0_all"  />
<polygon points="219,40 219,40 224,35 219,30 219,30 219,40 " style="fill:#15d84f; stroke-width:1; stroke:black; " description="&lt;b&gt;ctg3_685&lt;/b&gt;&lt;br&gt;ctg3 685&lt;br&gt;Location: 744818 - 746189" locus_tag="ctg3_685" class="clusterblast-orf" id="dummy-2_q40_0_all"  />
<polygon points="224,35 227,30 227,40 224,35 " style="fill:#153dd8; stroke-width:1; stroke:black; " description="&lt;b&gt;ctg3_686&lt;/b&gt;&lt;br&gt;ctg3 686&lt;br&gt;Location: 746211 - 746955" locus_tag="ctg3_686" class="clusterblast-orf" id="dummy-2_q41_0_all"  />
<polygon points="228,40 231,35 228,30 228,40 " style="fill:#d8159f; stroke-width:1; stroke:black; " description="&lt;b&gt;ctg3_687&lt;/b&gt;&lt;br&gt;ctg3 687&lt;br&gt;Location: 747265 - 748105" locus_tag="ctg3_687" class="clusterblast-orf" id="dummy-2_q42_0_all"  />
<polygon points="231,40 235,35 231,30 231,40 " style="fill:#d8c115; stroke-width:1; stroke:black; " description="&lt;b&gt;ctg3_688&lt;/b&gt;&lt;br&gt;ctg3 688&lt;br&gt;Location: 748101 - 749103" locus_tag="ctg3_688" class="clusterblast-orf" id="dummy-2_q43_0_all"  />
<polygon points="235,40 237,35 235,30 235,40 " style="fill:#15d860; stroke-width:1; stroke:black; " description="&lt;b&gt;ctg3_689&lt;/b&gt;&lt;br&gt;ctg3 689&lt;br&gt;Location: 749116 - 749866" locus_tag="ctg3_689" class="clusterblast-orf" id="dummy-2_q44_0_all"  />
<polygon points="238,40 241,40 246,35 241,30 238,30 238,40 " style="fill:#152cd8; stroke-width:1; stroke:black; " description="&lt;b&gt;ctg3_690&lt;/b&gt;&lt;br&gt;ctg3 690&lt;br&gt;Location: 750052 - 752425" locus_tag="ctg3_690" class="clusterblast-orf" id="dummy-2_q45_0_all"  />
<polygon points="246,35 251,30 253,30 253,40 251,40 246,35 " style="fill:#d8158e; stroke-width:1; stroke:black; " description="&lt;b&gt;ctg3_691&lt;/b&gt;&lt;br&gt;ctg3 691&lt;br&gt;Location: 752439 - 754272" locus_tag="ctg3_691" class="clusterblast-orf" id="dummy-2_q46_0_all"  />
<polygon points="254,35 258,30 258,40 254,35 " style="fill:#d8d315; stroke-width:1; stroke:black; " description="&lt;b&gt;ctg3_692&lt;/b&gt;&lt;br&gt;ctg3 692&lt;br&gt;Location: 754546 - 755707" locus_tag="ctg3_692" class="clusterblast-orf" id="dummy-2_q47_0_all"  />
<polygon points="258,35 263,30 284,30 284,40 263,40 258,35 " style="fill:#d85a15; stroke-width:1; stroke:black; " description="&lt;b&gt;ctg3_693&lt;/b&gt;&lt;br&gt;ctg3 693&lt;br&gt;Location: 755768 - 763007" locus_tag="ctg3_693" class="clusterblast-orf" id="dummy-2_q48_0_all"  />
<polygon points="285,35 289,30 289,40 285,35 " style="fill:#15d871; stroke-width:1; stroke:black; " description="&lt;b&gt;ctg3_694&lt;/b&gt;&lt;br&gt;ctg3 694&lt;br&gt;Location: 763141 - 764410" locus_tag="ctg3_694" class="clusterblast-orf" id="dummy-2_q49_0_all"  />
<polygon points="289,35 290,30 290,40 289,35 " style="fill:#151bd8; stroke-width:1; stroke:black; " description="&lt;b&gt;ctg3_695&lt;/b&gt;&lt;br&gt;ctg3 695&lt;br&gt;Location: 764447 - 764633" locus_tag="ctg3_695" class="clusterblast-orf" id="dummy-2_q50_0_all"  />
<polygon points="290,35 295,30 295,30 295,40 295,40 290,35 " style="fill:#d8157c; stroke-width:1; stroke:black; " description="&lt;b&gt;ctg3_696&lt;/b&gt;&lt;br&gt;ctg3 696&lt;br&gt;Location: 764644 - 766063" locus_tag="ctg3_696" class="clusterblast-orf" id="dummy-2_q51_0_all"  />
<polygon points="295,35 299,30 299,40 295,35 " style="fill:#cdd815; stroke-width:1; stroke:black; " description="&lt;b&gt;ctg3_697&lt;/b&gt;&lt;br&gt;ctg3 697&lt;br&gt;Location: 766120 - 767050" locus_tag="ctg3_697" class="clusterblast-orf" id="dummy-2_q52_0_all"  />
<polygon points="299,35 299,30 299,40 299,35 " style="fill:white; stroke-width:1; stroke:black; " description="&lt;b&gt;ctg3_698&lt;/b&gt;&lt;br&gt;ctg3 698&lt;br&gt;Location: 767046 - 767169" locus_tag="ctg3_698" class="clusterblast-orf" id="dummy-2_q53_0_all"  />
<polygon points="300,35 305,30 348,30 348,40 305,40 300,35 " style="fill:#d85a15; stroke-width:1; stroke:black; " description="&lt;b&gt;ctg3_699&lt;/b&gt;&lt;br&gt;ctg3 699&lt;br&gt;Location: 767365 - 780931" locus_tag="ctg3_699" class="clusterblast-orf" id="dummy-2_q54_0_all"  />
<polygon points="348,35 353,30 401,30 401,40 353,40 348,35 " style="fill:#d85a15; stroke-width:1; stroke:black; " description="&lt;b&gt;ctg3_700&lt;/b&gt;&lt;br&gt;ctg3 700&lt;br&gt;Location: 780934 - 795787" locus_tag="ctg3_700" class="clusterblast-orf" id="dummy-2_q55_0_all"  />
<polygon points="402,40 406,35 402,30 402,40 " style="fill:#15d882; stroke-width:1; stroke:black; " description="&lt;b&gt;ctg3_701&lt;/b&gt;&lt;br&gt;ctg3 701&lt;br&gt;Location: 796179 - 797169" locus_tag="ctg3_701" class="clusterblast-orf" id="dummy-2_q56_0_all"  />
<polygon points="406,40 406,40 411,35 406,30 406,30 406,40 " style="fill:#2115d8; stroke-width:1; stroke:black; " description="&lt;b&gt;ctg3_702&lt;/b&gt;&lt;br&gt;ctg3 702&lt;br&gt;Location: 797165 - 798530" locus_tag="ctg3_702" class="clusterblast-orf" id="dummy-2_q57_0_all"  />
<polygon points="412,35 416,30 416,40 412,35 " style="fill:#d8156b; stroke-width:1; stroke:black; " description="&lt;b&gt;ctg3_703&lt;/b&gt;&lt;br&gt;ctg3 703&lt;br&gt;Location: 798918 - 800121" locus_tag="ctg3_703" class="clusterblast-orf" id="dummy-2_q58_0_all"  />
<polygon points="417,35 420,30 420,40 417,35 " style="fill:#bcd815; stroke-width:1; stroke:black; " description="&lt;b&gt;ctg3_704&lt;/b&gt;&lt;br&gt;ctg3 704&lt;br&gt;Location: 800162 - 801107" locus_tag="ctg3_704" class="clusterblast-orf" id="dummy-2_q59_0_all"  />
<polygon points="420,35 425,30 426,30 426,40 425,40 420,35 " style="fill:#d85a15; stroke-width:1; stroke:black; " description="&lt;b&gt;ctg3_705&lt;/b&gt;&lt;br&gt;ctg3 705&lt;br&gt;Location: 801099 - 802959" locus_tag="ctg3_705" class="clusterblast-orf" id="dummy-2_q60_0_all"  />
<polygon points="428,40 432,35 428,30 428,40 " style="fill:#15d893; stroke-width:1; stroke:black; " description="&lt;b&gt;ctg3_706&lt;/b&gt;&lt;br&gt;ctg3 706&lt;br&gt;Location: 803416 - 804442" locus_tag="ctg3_706" class="clusterblast-orf" id="dummy-2_q61_0_all"  />
<polygon points="432,40 433,40 438,35 433,30 432,30 432,40 " style="fill:#15b6d8; stroke-width:1; stroke:black; " description="&lt;b&gt;ctg3_707&lt;/b&gt;&lt;br&gt;ctg3 707&lt;br&gt;Location: 804556 - 806287" locus_tag="ctg3_707" class="clusterblast-orf" id="dummy-2_q62_0_all"  />
<polygon points="439,40 537,40 542,35 537,30 439,30 439,40 " style="fill:#d85a15; stroke-width:1; stroke:black; " description="&lt;b&gt;ctg3_708&lt;/b&gt;&lt;br&gt;ctg3 708&lt;br&gt;Location: 806511 - 835419" locus_tag="ctg3_708" class="clusterblast-orf" id="dummy-2_q63_0_all"  />
<polygon points="542,40 584,40 589,35 584,30 542,30 542,40 " style="fill:#d85a15; stroke-width:1; stroke:black; " description="&lt;b&gt;ctg3_709&lt;/b&gt;&lt;br&gt;ctg3 709&lt;br&gt;Location: 835415 - 848543" locus_tag="ctg3_709" class="clusterblast-orf" id="dummy-2_q64_0_all"  />
<polygon points="590,40 695,40 700,35 695,30 590,30 590,40 " style="fill:#d85a15; stroke-width:1; stroke:black; " description="&lt;b&gt;ctg3_710&lt;/b&gt;&lt;br&gt;ctg3 710&lt;br&gt;Location: 848881 - 879715" locus_tag="ctg3_710" class="clusterblast-orf" id="dummy-2_q65_0_all"  />
<polygon points="701,40 705,35 701,30 701,40 " style="fill:#3215d8; stroke-width:1; stroke:black; " description="&lt;b&gt;ctg3_711&lt;/b&gt;&lt;br&gt;ctg3 711&lt;br&gt;Location: 879882 - 881034" locus_tag="ctg3_711" class="clusterblast-orf" id="dummy-2_q66_0_all"  />
<polygon points="705,40 707,40 712,35 707,30 705,30 705,40 " style="fill:#15b6d8; stroke-width:1; stroke:black; " description="&lt;b&gt;ctg3_712&lt;/b&gt;&lt;br&gt;ctg3 712&lt;br&gt;Location: 881036 - 882998" locus_tag="ctg3_712" class="clusterblast-orf" id="dummy-2_q67_0_all"  />
<polygon points="713,35 717,30 717,40 713,35 " style="fill:#d8155a; stroke-width:1; stroke:black; " description="&lt;b&gt;ctg3_713&lt;/b&gt;&lt;br&gt;ctg3 713&lt;br&gt;Location: 883276 - 884617" locus_tag="ctg3_713" class="clusterblast-orf" id="dummy-2_q68_0_all"  />
<polygon points="719,40 719,40 724,35 719,30 719,30 719,40 " style="fill:#d8157c; stroke-width:1; stroke:black; " description="&lt;b&gt;ctg3_714&lt;/b&gt;&lt;br&gt;ctg3 714&lt;br&gt;Location: 885153 - 886575" locus_tag="ctg3_714" class="clusterblast-orf" id="dummy-2_q69_0_all"  />
<polygon points="724,40 728,35 724,30 724,40 " style="fill:#aad815; stroke-width:1; stroke:black; " description="&lt;b&gt;ctg3_715&lt;/b&gt;&lt;br&gt;ctg3 715&lt;br&gt;Location: 886571 - 887687" locus_tag="ctg3_715" class="clusterblast-orf" id="dummy-2_q70_0_all"  />
<polygon points="728,40 734,40 739,35 734,30 728,30 728,40 " style="fill:#15d8a5; stroke-width:1; stroke:black; " description="&lt;b&gt;ctg3_716&lt;/b&gt;&lt;br&gt;ctg3 716&lt;br&gt;Location: 887683 - 890758" locus_tag="ctg3_716" class="clusterblast-orf" id="dummy-2_q71_0_all"  />
<polygon points="739,35 743,30 743,40 739,35 " style="fill:#cdd815; stroke-width:1; stroke:black; " description="&lt;b&gt;ctg3_717&lt;/b&gt;&lt;br&gt;ctg3 717&lt;br&gt;Location: 890819 - 891668" locus_tag="ctg3_717" class="clusterblast-orf" id="dummy-2_q72_0_all"  />
<polygon points="743,35 745,30 745,40 743,35 " style="fill:#4315d8; stroke-width:1; stroke:black; " description="&lt;b&gt;ctg3_718&lt;/b&gt;&lt;br&gt;ctg3 718&lt;br&gt;Location: 891803 - 892490" locus_tag="ctg3_718" class="clusterblast-orf" id="dummy-2_q73_0_all"  />
<polygon points="747,40 750,35 747,30 747,40 " style="fill:#d81549; stroke-width:1; stroke:black; " description="&lt;b&gt;ctg3_719&lt;/b&gt;&lt;br&gt;ctg3 719&lt;br&gt;Location: 893032 - 893632" locus_tag="ctg3_719" class="clusterblast-orf" id="dummy-2_q74_0_all"  />
<polygon points="750,35 753,30 753,40 750,35 " style="fill:#99d815; stroke-width:1; stroke:black; " description="&lt;b&gt;ctg3_720&lt;/b&gt;&lt;br&gt;ctg3 720&lt;br&gt;Location: 893751 - 894477" locus_tag="ctg3_720" class="clusterblast-orf" id="dummy-2_q75_0_all"  />
<polygon points="754,35 755,30 755,40 754,35 " style="fill:#15d8b6; stroke-width:1; stroke:black; " description="&lt;b&gt;ctg3_721&lt;/b&gt;&lt;br&gt;ctg3 721&lt;br&gt;Location: 894760 - 895201" locus_tag="ctg3_721" class="clusterblast-orf" id="dummy-2_q76_0_all"  />
<polygon points="756,35 758,30 758,40 756,35 " style="fill:#5415d8; stroke-width:1; stroke:black; " description="&lt;b&gt;ctg3_722&lt;/b&gt;&lt;br&gt;ctg3 722&lt;br&gt;Location: 895336 - 896110" locus_tag="ctg3_722" class="clusterblast-orf" id="dummy-2_q77_0_all"  />
<polygon points="759,35 764,30 764,30 764,40 764,40 759,35 " style="fill:#d81538; stroke-width:1; stroke:black; " description="&lt;b&gt;ctg3_723&lt;/b&gt;&lt;br&gt;ctg3 723&lt;br&gt;Location: 896261 - 897572" locus_tag="ctg3_723" class="clusterblast-orf" id="dummy-2_q78_0_all"  />
<polygon points="764,40 768,35 764,30 764,40 " style="fill:#88d815; stroke-width:1; stroke:black; " description="&lt;b&gt;ctg3_724&lt;/b&gt;&lt;br&gt;ctg3 724&lt;br&gt;Location: 897816 - 898707" locus_tag="ctg3_724" class="clusterblast-orf" id="dummy-2_q79_0_all"  />
<polygon points="768,35 770,30 770,40 768,35 " style="fill:#15d8c7; stroke-width:1; stroke:black; " description="&lt;b&gt;ctg3_725&lt;/b&gt;&lt;br&gt;ctg3 725&lt;br&gt;Location: 898711 - 899515" locus_tag="ctg3_725" class="clusterblast-orf" id="dummy-2_q80_0_all"  />
<polygon points="771,35 774,30 774,40 771,35 " style="fill:#6615d8; stroke-width:1; stroke:black; " description="&lt;b&gt;ctg3_726&lt;/b&gt;&lt;br&gt;ctg3 726&lt;br&gt;Location: 899606 - 900554" locus_tag="ctg3_726" class="clusterblast-orf" id="dummy-2_q81_0_all"  />
<polygon points="775,40 775,40 780,35 775,30 775,30 775,40 " style="fill:#d81526; stroke-width:1; stroke:black; " description="&lt;b&gt;ctg3_727&lt;/b&gt;&lt;br&gt;ctg3 727&lt;br&gt;Location: 900815 - 902057" locus_tag="ctg3_727" class="clusterblast-orf" id="dummy-2_q82_0_all"  />
</g>
<g label="NZ_LIUV01000015" description="NZ_LIUV01000015_c3: Pseudomonas sp. 655 contig 15, whole genome shotgun sequence (89% of genes show similarity), nrps" class="clusterblast-cluster"  >
<text x="5" y="70" class="clusterblast-acc"  >
<a xlink:href="https://antismash-db.secondarymetabolites.org/go/NZ_LIUV01000015/3" target="_blank">NZ_LIUV01000015_c3</a>: Pseudomonas sp. 655 contig 15, whole genome shotgun sequence (89% of genes show similarity), nrps</text>
<line x1="10" y1="85" x2="778.0" y2="85" style="stroke-width:1; stroke:grey; "  />
</g>
<g id="a2_000"  >
<polygon points="278,90 278,90 283,85 278,80 278,80 278,90 " style="fill:#d81515; stroke-width:1; stroke:black; " description="&lt;b&gt;AM274_RS19275&lt;/b&gt;&lt;br&gt;aspartate aminotransferase family protein&lt;br&gt;Location: 91133 - 92551&lt;br&gt;&lt;br&gt;&lt;b&gt;BlastP hit with ctg3_645&lt;/b&gt;&lt;br&gt;Percentage identity: 99&lt;br&gt;Percentage coverage: 100&lt;br&gt;BLAST bit score: 968&lt;br&gt;E-value: 2.7e-280" locus_tag="AM274_RS19275" class="clusterblast-orf" id="dummy-2_h2_2_0"  />
</g>
<g id="a2_001"  >
<polygon points="283,90 286,85 283,80 283,90 " style="fill:#77d815; stroke-width:1; stroke:black; " description="&lt;b&gt;AM274_RS19280&lt;/b&gt;&lt;br&gt;LuxR family transcriptional regulator&lt;br&gt;Location: 92548 - 93444&lt;br&gt;&lt;br&gt;&lt;b&gt;BlastP hit with ctg3_646&lt;/b&gt;&lt;br&gt;Percentage identity: 100&lt;br&gt;Percentage coverage: 100&lt;br&gt;BLAST bit score: 592&lt;br&gt;E-value: 1.9e-167" locus_tag="AM274_RS19280" class="clusterblast-orf" id="dummy-2_h2_2_1"  />
</g>
<g id="a2_002"  >
<polygon points="287,90 291,85 287,80 287,90 " style="fill:#15d8d8; stroke-width:1; stroke:black; " description="&lt;b&gt;AM274_RS19285&lt;/b&gt;&lt;br&gt;polyamine ABC transporter substrate-binding protein&lt;br&gt;Location: 93578 - 94675&lt;br&gt;&lt;br&gt;&lt;b&gt;BlastP hit with ctg3_647&lt;/b&gt;&lt;br&gt;Percentage identity: 100&lt;br&gt;Percentage coverage: 100&lt;br&gt;BLAST bit score: 732&lt;br&gt;E-value: 1.9e-209" locus_tag="AM274_RS19285" class="clusterblast-orf" id="dummy-2_h2_2_2"  />
</g>
<g id="a2_003"  >
<polygon points="291,90 294,85 291,80 291,90 " style="fill:#7715d8; stroke-width:1; stroke:black; " description="&lt;b&gt;AM274_RS19290&lt;/b&gt;&lt;br&gt;enoyl-CoA hydratase&lt;br&gt;Location: 94906 - 95697&lt;br&gt;&lt;br&gt;&lt;b&gt;BlastP hit with ctg3_648&lt;/b&gt;&lt;br&gt;Percentage identity: 99&lt;br&gt;Percentage coverage: 100&lt;br&gt;BLAST bit score: 517&lt;br&gt;E-value: 1.2e-144" locus_tag="AM274_RS19290" class="clusterblast-orf" id="dummy-2_h2_2_3"  />
</g>
<g id="a2_004"  >
<polygon points="294,90 298,85 294,80 294,90 " style="fill:#d82615; stroke-width:1; stroke:black; " description="&lt;b&gt;AM274_RS19295&lt;/b&gt;&lt;br&gt;acyl-CoA dehydrogenase&lt;br&gt;Location: 95721 - 96881&lt;br&gt;&lt;br&gt;&lt;b&gt;BlastP hit with ctg3_649&lt;/b&gt;&lt;br&gt;Percentage identity: 100&lt;br&gt;Percentage coverage: 100&lt;br&gt;BLAST bit score: 774&lt;br&gt;E-value: 4.6e-222" locus_tag="AM274_RS19295" class="clusterblast-orf" id="dummy-2_h2_2_4"  />
</g>
<g id="a2_005"  >
<polygon points="298,90 301,90 306,85 301,80 298,80 298,90 " style="fill:#65d815; stroke-width:1; stroke:black; " description="&lt;b&gt;AM274_RS19300&lt;/b&gt;&lt;br&gt;CoA-binding protein&lt;br&gt;Location: 96900 - 98987&lt;br&gt;&lt;br&gt;&lt;b&gt;BlastP hit with ctg3_650&lt;/b&gt;&lt;br&gt;Percentage identity: 97&lt;br&gt;Percentage coverage: 100&lt;br&gt;BLAST bit score: 1326&lt;br&gt;E-value: 0.0" locus_tag="AM274_RS19300" class="clusterblast-orf" id="dummy-2_h2_2_5"  />
</g>
<g id="a2_006"  >
<polygon points="306,90 309,85 306,80 306,90 " style="fill:#15c7d8; stroke-width:1; stroke:black; " description="&lt;b&gt;AM274_RS19305&lt;/b&gt;&lt;br&gt;flavodoxin family protein&lt;br&gt;Location: 99026 - 99727&lt;br&gt;&lt;br&gt;&lt;b&gt;BlastP hit with ctg3_651&lt;/b&gt;&lt;br&gt;Percentage identity: 100&lt;br&gt;Percentage coverage: 100&lt;br&gt;BLAST bit score: 483&lt;br&gt;E-value: 1.3e-134" locus_tag="AM274_RS19305" class="clusterblast-orf" id="dummy-2_h2_2_6"  />
</g>
<g id="a2_007"  >
<polygon points="309,90 311,85 309,80 309,90 " style="fill:#8815d8; stroke-width:1; stroke:black; " description="&lt;b&gt;AM274_RS19310&lt;/b&gt;&lt;br&gt;TetR family transcriptional regulator&lt;br&gt;Location: 99749 - 100384&lt;br&gt;&lt;br&gt;&lt;b&gt;BlastP hit with ctg3_652&lt;/b&gt;&lt;br&gt;Percentage identity: 99&lt;br&gt;Percentage coverage: 100&lt;br&gt;BLAST bit score: 429&lt;br&gt;E-value: 2.6e-118&lt;br&gt;&lt;br&gt;&lt;b&gt;BlastP hit with ctg3_660&lt;/b&gt;&lt;br&gt;Percentage identity: 40&lt;br&gt;Percentage coverage: 96&lt;br&gt;BLAST bit score: 176&lt;br&gt;E-value: 2.3e-42" locus_tag="AM274_RS19310" class="clusterblast-orf" id="dummy-2_h2_2_7"  />
</g>
<g id="a2_008"  >
<polygon points="311,90 314,85 311,80 311,90 " style="fill:#d83815; stroke-width:1; stroke:black; " description="&lt;b&gt;AM274_RS19315&lt;/b&gt;&lt;br&gt;DNA-binding response regulator&lt;br&gt;Location: 100495 - 101202&lt;br&gt;&lt;br&gt;&lt;b&gt;BlastP hit with ctg3_653&lt;/b&gt;&lt;br&gt;Percentage identity: 98&lt;br&gt;Percentage coverage: 99&lt;br&gt;BLAST bit score: 467&lt;br&gt;E-value: 7.4e-130" locus_tag="AM274_RS19315" class="clusterblast-orf" id="dummy-2_h2_2_8"  />
</g>
<g id="a2_009"  >
<polygon points="315,90 315,90 320,85 315,80 315,80 315,90 " style="fill:#54d815; stroke-width:1; stroke:black; " description="&lt;b&gt;AM274_RS19320&lt;/b&gt;&lt;br&gt;5-guanidino-2-oxopentanoate decarboxylase&lt;br&gt;Location: 101401 - 103035&lt;br&gt;&lt;br&gt;&lt;b&gt;BlastP hit with ctg3_654&lt;/b&gt;&lt;br&gt;Percentage identity: 97&lt;br&gt;Percentage coverage: 100&lt;br&gt;BLAST bit score: 1054&lt;br&gt;E-value: 5.5e-306" locus_tag="AM274_RS19320" class="clusterblast-orf" id="dummy-2_h2_2_9"  />
</g>
<g id="a2_0010"  >
<polygon points="321,90 323,90 328,85 323,80 321,80 321,90 " style="fill:#15b6d8; stroke-width:1; stroke:black; " description="&lt;b&gt;AM274_RS19325&lt;/b&gt;&lt;br&gt;arginine aminotransferase&lt;br&gt;Location: 103213 - 105216&lt;br&gt;&lt;br&gt;&lt;b&gt;BlastP hit with ctg3_655&lt;/b&gt;&lt;br&gt;Percentage identity: 99&lt;br&gt;Percentage coverage: 100&lt;br&gt;BLAST bit score: 1300&lt;br&gt;E-value: 0.0&lt;br&gt;&lt;br&gt;&lt;b&gt;BlastP hit with ctg3_712&lt;/b&gt;&lt;br&gt;Percentage identity: 36&lt;br&gt;Percentage coverage: 33&lt;br&gt;BLAST bit score: 126&lt;br&gt;E-value: 1.5e-26" locus_tag="AM274_RS19325" class="clusterblast-orf" id="dummy-2_h2_2_10"  />
</g>
<g id="a2_0011"  >
<polygon points="328,90 331,85 328,80 328,90 " style="fill:#9915d8; stroke-width:1; stroke:black; " description="&lt;b&gt;AM274_RS19330&lt;/b&gt;&lt;br&gt;amino acid ABC transporter substrate-binding protein&lt;br&gt;Location: 105244 - 106026&lt;br&gt;&lt;br&gt;&lt;b&gt;BlastP hit with ctg3_656&lt;/b&gt;&lt;br&gt;Percentage identity: 100&lt;br&gt;Percentage coverage: 100&lt;br&gt;BLAST bit score: 515&lt;br&gt;E-value: 4.4e-144" locus_tag="AM274_RS19330" class="clusterblast-orf" id="dummy-2_h2_2_11"  />
</g>
<g id="a2_0012"  >
<polygon points="332,90 334,85 332,80 332,90 " style="fill:#d84915; stroke-width:1; stroke:black; " description="&lt;b&gt;AM274_RS19335&lt;/b&gt;&lt;br&gt;ABC transporter permease&lt;br&gt;Location: 106179 - 106883&lt;br&gt;&lt;br&gt;&lt;b&gt;BlastP hit with ctg3_657&lt;/b&gt;&lt;br&gt;Percentage identity: 100&lt;br&gt;Percentage coverage: 100&lt;br&gt;BLAST bit score: 439&lt;br&gt;E-value: 2.8e-121" locus_tag="AM274_RS19335" class="clusterblast-orf" id="dummy-2_h2_2_12"  />
</g>
<g id="a2_0013"  >
<polygon points="334,90 337,85 334,80 334,90 " style="fill:#43d815; stroke-width:1; stroke:black; " description="&lt;b&gt;AM274_RS19340&lt;/b&gt;&lt;br&gt;nickel permease&lt;br&gt;Location: 106889 - 107587&lt;br&gt;&lt;br&gt;&lt;b&gt;BlastP hit with ctg3_658&lt;/b&gt;&lt;br&gt;Percentage identity: 100&lt;br&gt;Percentage coverage: 100&lt;br&gt;BLAST bit score: 424&lt;br&gt;E-value: 7e-117" locus_tag="AM274_RS19340" class="clusterblast-orf" id="dummy-2_h2_2_13"  />
</g>
<g id="a2_0014"  >
<polygon points="337,90 340,85 337,80 337,90 " style="fill:#15a5d8; stroke-width:1; stroke:black; " description="&lt;b&gt;AM274_RS19345&lt;/b&gt;&lt;br&gt;EamA/RhaT family transporter&lt;br&gt;Location: 107587 - 108594&lt;br&gt;&lt;br&gt;&lt;b&gt;BlastP hit with ctg3_659&lt;/b&gt;&lt;br&gt;Percentage identity: 100&lt;br&gt;Percentage coverage: 100&lt;br&gt;BLAST bit score: 644&lt;br&gt;E-value: 4.8e-183" locus_tag="AM274_RS19345" class="clusterblast-orf" id="dummy-2_h2_2_14"  />
</g>
<g id="a2_0015"  >
<polygon points="340,85 342,80 342,90 340,85 " style="fill:#8815d8; stroke-width:1; stroke:black; " description="&lt;b&gt;AM274_RS32070&lt;/b&gt;&lt;br&gt;TetR family transcriptional regulator&lt;br&gt;Location: 108454 - 109089&lt;br&gt;&lt;br&gt;&lt;b&gt;BlastP hit with ctg3_652&lt;/b&gt;&lt;br&gt;Percentage identity: 40&lt;br&gt;Percentage coverage: 96&lt;br&gt;BLAST bit score: 178&lt;br&gt;E-value: 6.1e-43&lt;br&gt;&lt;br&gt;&lt;b&gt;BlastP hit with ctg3_660&lt;/b&gt;&lt;br&gt;Percentage identity: 100&lt;br&gt;Percentage coverage: 100&lt;br&gt;BLAST bit score: 428&lt;br&gt;E-value: 4.4e-118" locus_tag="AM274_RS32070" class="clusterblast-orf" id="dummy-2_h2_2_15"  />
</g>
<g id="a2_0016"  >
<polygon points="342,90 346,85 342,80 342,90 " style="fill:#aa15d8; stroke-width:1; stroke:black; " description="&lt;b&gt;AM274_RS19355&lt;/b&gt;&lt;br&gt;succinylglutamate desuccinylase&lt;br&gt;Location: 109207 - 110223&lt;br&gt;&lt;br&gt;&lt;b&gt;BlastP hit with ctg3_661&lt;/b&gt;&lt;br&gt;Percentage identity: 100&lt;br&gt;Percentage coverage: 100&lt;br&gt;BLAST bit score: 690&lt;br&gt;E-value: 1.3e-196" locus_tag="AM274_RS19355" class="clusterblast-orf" id="dummy-2_h2_2_16"  />
</g>
<g id="a2_0017"  >
<polygon points="348,90 378,90 383,85 378,80 348,80 348,90 " style="fill:#d85a15; stroke-width:1; stroke:black; " description="&lt;b&gt;AM274_RS19360&lt;/b&gt;&lt;br&gt;non-ribosomal peptide synthetase&lt;br&gt;Location: 110825 - 120526&lt;br&gt;&lt;br&gt;&lt;b&gt;BlastP hit with ctg3_662&lt;/b&gt;&lt;br&gt;Percentage identity: 98&lt;br&gt;Percentage coverage: 100&lt;br&gt;BLAST bit score: 6278&lt;br&gt;E-value: 0.0&lt;br&gt;&lt;br&gt;&lt;b&gt;BlastP hit with ctg3_663&lt;/b&gt;&lt;br&gt;Percentage identity: 40&lt;br&gt;Percentage coverage: 81&lt;br&gt;BLAST bit score: 744&lt;br&gt;E-value: 1.9e-212&lt;br&gt;&lt;br&gt;&lt;b&gt;BlastP hit with ctg3_664&lt;/b&gt;&lt;br&gt;Percentage identity: 33&lt;br&gt;Percentage coverage: 55&lt;br&gt;BLAST bit score: 683&lt;br&gt;E-value: 8.4e-194&lt;br&gt;&lt;br&gt;&lt;b&gt;BlastP hit with ctg3_693&lt;/b&gt;&lt;br&gt;Percentage identity: 35&lt;br&gt;Percentage coverage: 82&lt;br&gt;BLAST bit score: 987&lt;br&gt;E-value: 2.2e-285&lt;br&gt;&lt;br&gt;&lt;b&gt;BlastP hit with ctg3_699&lt;/b&gt;&lt;br&gt;Percentage identity: 36&lt;br&gt;Percentage coverage: 68&lt;br&gt;BLAST bit score: 1535&lt;br&gt;E-value: 0.0&lt;br&gt;&lt;br&gt;&lt;b&gt;BlastP hit with ctg3_700&lt;/b&gt;&lt;br&gt;Percentage identity: 39&lt;br&gt;Percentage coverage: 62&lt;br&gt;BLAST bit score: 1737&lt;br&gt;E-value: 0.0&lt;br&gt;&lt;br&gt;&lt;b&gt;BlastP hit with ctg3_708&lt;/b&gt;&lt;br&gt;Percentage identity: 34&lt;br&gt;Percentage coverage: 32&lt;br&gt;BLAST bit score: 1423&lt;br&gt;E-value: 0.0&lt;br&gt;&lt;br&gt;&lt;b&gt;BlastP hit with ctg3_709&lt;/b&gt;&lt;br&gt;Percentage identity: 34&lt;br&gt;Percentage coverage: 71&lt;br&gt;BLAST bit score: 1332&lt;br&gt;E-value: 0.0&lt;br&gt;&lt;br&gt;&lt;b&gt;BlastP hit with ctg3_710&lt;/b&gt;&lt;br&gt;Percentage identity: 41&lt;br&gt;Percentage coverage: 29&lt;br&gt;BLAST bit score: 1911&lt;br&gt;E-value: 0.0" locus_tag="AM274_RS19360" class="clusterblast-orf" id="dummy-2_h2_2_17"  />
</g>
<g id="a2_0018"  >
<polygon points="383,90 393,90 398,85 393,80 383,80 383,90 " style="fill:#d85a15; stroke-width:1; stroke:black; " description="&lt;b&gt;AM274_RS19365&lt;/b&gt;&lt;br&gt;non-ribosomal peptide synthetase&lt;br&gt;Location: 120523 - 124737&lt;br&gt;&lt;br&gt;&lt;b&gt;BlastP hit with ctg3_663&lt;/b&gt;&lt;br&gt;Percentage identity: 98&lt;br&gt;Percentage coverage: 100&lt;br&gt;BLAST bit score: 2770&lt;br&gt;E-value: 0.0" locus_tag="AM274_RS19365" class="clusterblast-orf" id="dummy-2_h2_2_18"  />
</g>
<g id="a2_0019"  >
<polygon points="398,90 425,90 430,85 425,80 398,80 398,90 " style="fill:#d85a15; stroke-width:1; stroke:black; " description="&lt;b&gt;AM274_RS19370&lt;/b&gt;&lt;br&gt;non-ribosomal peptide synthetase&lt;br&gt;Location: 124734 - 133826&lt;br&gt;&lt;br&gt;&lt;b&gt;BlastP hit with ctg3_664&lt;/b&gt;&lt;br&gt;Percentage identity: 98&lt;br&gt;Percentage coverage: 100&lt;br&gt;BLAST bit score: 5942&lt;br&gt;E-value: 0.0" locus_tag="AM274_RS19370" class="clusterblast-orf" id="dummy-2_h2_2_19"  />
</g>
<g id="a2_0020"  >
<polygon points="430,90 431,85 430,80 430,90 " style="fill:#32d815; stroke-width:1; stroke:black; " description="&lt;b&gt;AM274_RS19375&lt;/b&gt;&lt;br&gt;antibiotic synthesis protein MbtH&lt;br&gt;Location: 133819 - 134004&lt;br&gt;&lt;br&gt;&lt;b&gt;BlastP hit with ctg3_665&lt;/b&gt;&lt;br&gt;Percentage identity: 98&lt;br&gt;Percentage coverage: 100&lt;br&gt;BLAST bit score: 135&lt;br&gt;E-value: 2.2e-30" locus_tag="AM274_RS19375" class="clusterblast-orf" id="dummy-2_h2_2_20"  />
</g>
<g id="a2_0021"  >
<polygon points="431,90 434,85 431,80 431,90 " style="fill:#1593d8; stroke-width:1; stroke:black; " description="&lt;b&gt;AM274_RS19380&lt;/b&gt;&lt;br&gt;taurine dioxygenase&lt;br&gt;Location: 134149 - 135018&lt;br&gt;&lt;br&gt;&lt;b&gt;BlastP hit with ctg3_666&lt;/b&gt;&lt;br&gt;Percentage identity: 99&lt;br&gt;Percentage coverage: 100&lt;br&gt;BLAST bit score: 597&lt;br&gt;E-value: 9.9e-169" locus_tag="AM274_RS19380" class="clusterblast-orf" id="dummy-2_h2_2_21"  />
</g>
<g id="a2_0022"  >
<polygon points="435,85 439,80 439,90 435,85 " style="fill:#bc15d8; stroke-width:1; stroke:black; " description="&lt;b&gt;AM274_RS19385&lt;/b&gt;&lt;br&gt;MFS transporter&lt;br&gt;Location: 135137 - 136381&lt;br&gt;&lt;br&gt;&lt;b&gt;BlastP hit with ctg3_667&lt;/b&gt;&lt;br&gt;Percentage identity: 100&lt;br&gt;Percentage coverage: 100&lt;br&gt;BLAST bit score: 785&lt;br&gt;E-value: 2.1e-225" locus_tag="AM274_RS19385" class="clusterblast-orf" id="dummy-2_h2_2_22"  />
</g>
<g id="a2_0023"  >
<polygon points="439,85 441,80 441,90 439,85 " style="fill:#d86b15; stroke-width:1; stroke:black; " description="&lt;b&gt;AM274_RS19390&lt;/b&gt;&lt;br&gt;N-acetyltransferase&lt;br&gt;Location: 136381 - 136896&lt;br&gt;&lt;br&gt;&lt;b&gt;BlastP hit with ctg3_668&lt;/b&gt;&lt;br&gt;Percentage identity: 99&lt;br&gt;Percentage coverage: 100&lt;br&gt;BLAST bit score: 358&lt;br&gt;E-value: 3.5e-97" locus_tag="AM274_RS19390" class="clusterblast-orf" id="dummy-2_h2_2_23"  />
</g>
<g id="a2_0024"  >
<polygon points="441,85 445,80 445,90 441,85 " style="fill:#21d815; stroke-width:1; stroke:black; " description="&lt;b&gt;AM274_RS19395&lt;/b&gt;&lt;br&gt;GlxA family transcriptional regulator&lt;br&gt;Location: 136989 - 137927&lt;br&gt;&lt;br&gt;&lt;b&gt;BlastP hit with ctg3_669&lt;/b&gt;&lt;br&gt;Percentage identity: 99&lt;br&gt;Percentage coverage: 100&lt;br&gt;BLAST bit score: 600&lt;br&gt;E-value: 1.3e-169" locus_tag="AM274_RS19395" class="clusterblast-orf" id="dummy-2_h2_2_24"  />
</g>
<g id="a2_0025"  >
<polygon points="445,90 447,85 445,80 445,90 " style="fill:#1582d8; stroke-width:1; stroke:black; " description="&lt;b&gt;AM274_RS19400&lt;/b&gt;&lt;br&gt;TetR/AcrR family transcriptional regulator&lt;br&gt;Location: 138110 - 138706&lt;br&gt;&lt;br&gt;&lt;b&gt;BlastP hit with ctg3_670&lt;/b&gt;&lt;br&gt;Percentage identity: 99&lt;br&gt;Percentage coverage: 100&lt;br&gt;BLAST bit score: 382&lt;br&gt;E-value: 2.6e-104" locus_tag="AM274_RS19400" class="clusterblast-orf" id="dummy-2_h2_2_25"  />
</g>
<g id="a2_0026"  >
<polygon points="448,90 450,85 448,80 448,90 " style="fill:#cd15d8; stroke-width:1; stroke:black; " description="&lt;b&gt;AM274_RS19405&lt;/b&gt;&lt;br&gt;type 1 glutamine amidotransferase domain-containing protein&lt;br&gt;Location: 138733 - 139410&lt;br&gt;&lt;br&gt;&lt;b&gt;BlastP hit with ctg3_671&lt;/b&gt;&lt;br&gt;Percentage identity: 98&lt;br&gt;Percentage coverage: 100&lt;br&gt;BLAST bit score: 446&lt;br&gt;E-value: 1.7e-123" locus_tag="AM274_RS19405" class="clusterblast-orf" id="dummy-2_h2_2_26"  />
</g>
<g id="a2_0027"  >
<polygon points="450,90 450,90 455,85 450,80 450,80 450,90 " style="fill:#d87c15; stroke-width:1; stroke:black; " description="&lt;b&gt;AM274_RS19410&lt;/b&gt;&lt;br&gt;aldehyde dehydrogenase&lt;br&gt;Location: 139520 - 140974&lt;br&gt;&lt;br&gt;&lt;b&gt;BlastP hit with ctg3_672&lt;/b&gt;&lt;br&gt;Percentage identity: 99&lt;br&gt;Percentage coverage: 100&lt;br&gt;BLAST bit score: 963&lt;br&gt;E-value: 1.1e-278" locus_tag="AM274_RS19410" class="clusterblast-orf" id="dummy-2_h2_2_27"  />
</g>
<g id="a2_0028"  >
<polygon points="456,85 459,80 459,90 456,85 " style="fill:#15d81b; stroke-width:1; stroke:black; " description="&lt;b&gt;AM274_RS19415&lt;/b&gt;&lt;br&gt;glutathione-dependent disulfide-bond oxidoreductase&lt;br&gt;Location: 141133 - 141972&lt;br&gt;&lt;br&gt;&lt;b&gt;BlastP hit with ctg3_673&lt;/b&gt;&lt;br&gt;Percentage identity: 99&lt;br&gt;Percentage coverage: 100&lt;br&gt;BLAST bit score: 571&lt;br&gt;E-value: 7.3e-161" locus_tag="AM274_RS19415" class="clusterblast-orf" id="dummy-2_h2_2_28"  />
</g>
<g id="a2_0029"  >
<polygon points="459,85 463,80 463,90 459,85 " style="fill:#1571d8; stroke-width:1; stroke:black; " description="&lt;b&gt;AM274_RS19420&lt;/b&gt;&lt;br&gt;multidrug MFS transporter&lt;br&gt;Location: 142070 - 143221&lt;br&gt;&lt;br&gt;&lt;b&gt;BlastP hit with ctg3_674&lt;/b&gt;&lt;br&gt;Percentage identity: 97&lt;br&gt;Percentage coverage: 100&lt;br&gt;BLAST bit score: 704&lt;br&gt;E-value: 7.6e-201" locus_tag="AM274_RS19420" class="clusterblast-orf" id="dummy-2_h2_2_29"  />
</g>
<g id="a2_0030"  >
<polygon points="464,85 468,80 468,90 464,85 " style="fill:#d815d3; stroke-width:1; stroke:black; " description="&lt;b&gt;AM274_RS19425&lt;/b&gt;&lt;br&gt;FAD-binding oxidoreductase&lt;br&gt;Location: 143303 - 144574&lt;br&gt;&lt;br&gt;&lt;b&gt;BlastP hit with ctg3_675&lt;/b&gt;&lt;br&gt;Percentage identity: 98&lt;br&gt;Percentage coverage: 100&lt;br&gt;BLAST bit score: 830&lt;br&gt;E-value: 1e-238" locus_tag="AM274_RS19425" class="clusterblast-orf" id="dummy-2_h2_2_30"  />
</g>
<g id="a2_0031"  >
<polygon points="468,85 472,80 472,90 468,85 " style="fill:#d88e15; stroke-width:1; stroke:black; " description="&lt;b&gt;AM274_RS19430&lt;/b&gt;&lt;br&gt;dihydrodipicolinate synthase family protein&lt;br&gt;Location: 144567 - 145514&lt;br&gt;&lt;br&gt;&lt;b&gt;BlastP hit with ctg3_676&lt;/b&gt;&lt;br&gt;Percentage identity: 100&lt;br&gt;Percentage coverage: 100&lt;br&gt;BLAST bit score: 625&lt;br&gt;E-value: 3.7e-177" locus_tag="AM274_RS19430" class="clusterblast-orf" id="dummy-2_h2_2_31"  />
</g>
<g id="a2_0032"  >
<polygon points="472,85 475,80 475,90 472,85 " style="fill:#15d82c; stroke-width:1; stroke:black; " description="&lt;b&gt;AM274_RS19435&lt;/b&gt;&lt;br&gt;hydroxyproline-2-epimerase&lt;br&gt;Location: 145560 - 146486&lt;br&gt;&lt;br&gt;&lt;b&gt;BlastP hit with ctg3_677&lt;/b&gt;&lt;br&gt;Percentage identity: 99&lt;br&gt;Percentage coverage: 100&lt;br&gt;BLAST bit score: 649&lt;br&gt;E-value: 2.3e-184" locus_tag="AM274_RS19435" class="clusterblast-orf" id="dummy-2_h2_2_32"  />
</g>
<g id="a2_0033"  >
<polygon points="476,90 478,85 476,80 476,90 " style="fill:#1560d8; stroke-width:1; stroke:black; " description="&lt;b&gt;AM274_RS19440&lt;/b&gt;&lt;br&gt;AraC family transcriptional regulator&lt;br&gt;Location: 146658 - 147431&lt;br&gt;&lt;br&gt;&lt;b&gt;BlastP hit with ctg3_678&lt;/b&gt;&lt;br&gt;Percentage identity: 99&lt;br&gt;Percentage coverage: 100&lt;br&gt;BLAST bit score: 515&lt;br&gt;E-value: 4.4e-144" locus_tag="AM274_RS19440" class="clusterblast-orf" id="dummy-2_h2_2_33"  />
</g>
<g id="a2_0034"  >
<polygon points="479,90 481,90 486,85 481,80 479,80 479,90 " style="fill:white; stroke-width:1; stroke:black; " description="&lt;b&gt;AM274_RS19445&lt;/b&gt;&lt;br&gt;DUF1302 domain-containing protein&lt;br&gt;Location: 147624 - 149489" locus_tag="AM274_RS19445" class="clusterblast-orf" id="dummy-2_h2_2_34"  />
</g>
<g id="a2_0035"  >
<polygon points="486,90 486,90 491,85 486,80 486,80 486,90 " style="fill:white; stroke-width:1; stroke:black; " description="&lt;b&gt;AM274_RS19450&lt;/b&gt;&lt;br&gt;DUF1329 domain-containing protein&lt;br&gt;Location: 149521 - 150888" locus_tag="AM274_RS19450" class="clusterblast-orf" id="dummy-2_h2_2_35"  />
</g>
<g id="a2_0036"  >
<polygon points="491,85 495,80 495,90 491,85 " style="fill:white; stroke-width:1; stroke:black; " description="&lt;b&gt;AM274_RS19455&lt;/b&gt;&lt;br&gt;AraC family transcriptional regulator&lt;br&gt;Location: 150932 - 151933" locus_tag="AM274_RS19455" class="clusterblast-orf" id="dummy-2_h2_2_36"  />
</g>
<g id="a2_0037"  >
<polygon points="496,90 496,90 501,85 496,80 496,80 496,90 " style="fill:white; stroke-width:1; stroke:black; " description="&lt;b&gt;AM274_RS19460&lt;/b&gt;&lt;br&gt;fatty-acid--CoA ligase&lt;br&gt;Location: 152209 - 153771" locus_tag="AM274_RS19460" class="clusterblast-orf" id="dummy-2_h2_2_37"  />
</g>
</svg>
