<svg xmlns="http://www.w3.org/2000/svg" xmlns:xlink="http://www.w3.org/1999/xlink" version="1.1" x="0" y="0" height="230" width="800" viewBox="0 0 800 230" preserveAspectRatio="none"  >
<g label="Query sequence" class="clusterblast-cluster"  >
<text x="5" y="20" class="clusterblast-acc"  >
Query sequence</text>
<line x1="10" y1="35" x2="778.0" y2="35" style="stroke-width:1; stroke:grey; "  />
<polygon points="6,35 11,30 19,30 19,40 11,40 6,35 " style="fill:#d81515; stroke-width:1; stroke:black; " description="&lt;b&gt;ctg1_947&lt;/b&gt;&lt;br&gt;ctg1 947&lt;br&gt;Location: 1045973 - 1046867" locus_tag="ctg1_947" class="clusterblast-orf" id="dummy-2_q0_0_all"  />
<polygon points="20,40 22,35 20,30 20,40 " style="fill:white; stroke-width:1; stroke:black; " description="&lt;b&gt;ctg1_948&lt;/b&gt;&lt;br&gt;ctg1 948&lt;br&gt;Location: 1046885 - 1047053" locus_tag="ctg1_948" class="clusterblast-orf" id="dummy-2_q1_0_all"  />
<polygon points="27,35 32,30 34,30 34,40 32,40 27,35 " style="fill:#67d815; stroke-width:1; stroke:black; " description="&lt;b&gt;ctg1_949&lt;/b&gt;&lt;br&gt;ctg1 949&lt;br&gt;Location: 1047381 - 1047852" locus_tag="ctg1_949" class="clusterblast-orf" id="dummy-2_q2_0_all"  />
<polygon points="41,40 49,40 54,35 49,30 41,30 41,40 " style="fill:#15b9d8; stroke-width:1; stroke:black; " description="&lt;b&gt;ctg1_950&lt;/b&gt;&lt;br&gt;ctg1 950&lt;br&gt;Location: 1048295 - 1049231" locus_tag="ctg1_950" class="clusterblast-orf" id="dummy-2_q3_0_all"  />
<polygon points="57,40 64,40 69,35 64,30 57,30 57,40 " style="fill:#8615d8; stroke-width:1; stroke:black; " description="&lt;b&gt;ctg1_951&lt;/b&gt;&lt;br&gt;ctg1 951&lt;br&gt;Location: 1049408 - 1050215" locus_tag="ctg1_951" class="clusterblast-orf" id="dummy-2_q4_0_all"  />
<polygon points="70,35 74,30 74,40 70,35 " style="fill:#d83415; stroke-width:1; stroke:black; " description="&lt;b&gt;ctg1_952&lt;/b&gt;&lt;br&gt;ctg1 952&lt;br&gt;Location: 1050289 - 1050574" locus_tag="ctg1_952" class="clusterblast-orf" id="dummy-2_q5_0_all"  />
<polygon points="75,35 80,30 83,30 83,40 80,40 75,35 " style="fill:#49d815; stroke-width:1; stroke:black; " description="&lt;b&gt;ctg1_953&lt;/b&gt;&lt;br&gt;ctg1 953&lt;br&gt;Location: 1050644 - 1051187" locus_tag="ctg1_953" class="clusterblast-orf" id="dummy-2_q6_0_all"  />
<polygon points="84,35 89,30 114,30 114,40 89,40 84,35 " style="fill:#159bd8; stroke-width:1; stroke:black; " description="&lt;b&gt;ctg1_954&lt;/b&gt;&lt;br&gt;ctg1 954&lt;br&gt;Location: 1051258 - 1053220" locus_tag="ctg1_954" class="clusterblast-orf" id="dummy-2_q7_0_all"  />
<polygon points="115,35 120,30 127,30 127,40 120,40 115,35 " style="fill:#a515d8; stroke-width:1; stroke:black; " description="&lt;b&gt;ctg1_955&lt;/b&gt;&lt;br&gt;ctg1 955&lt;br&gt;Location: 1053329 - 1054127" locus_tag="ctg1_955" class="clusterblast-orf" id="dummy-2_q8_0_all"  />
<polygon points="127,35 132,30 144,30 144,40 132,40 127,35 " style="fill:#d85315; stroke-width:1; stroke:black; " description="&lt;b&gt;ctg1_956&lt;/b&gt;&lt;br&gt;ctg1 956&lt;br&gt;Location: 1054123 - 1055281" locus_tag="ctg1_956" class="clusterblast-orf" id="dummy-2_q9_0_all"  />
<polygon points="144,35 149,30 168,30 168,40 149,40 144,35 " style="fill:#2ad815; stroke-width:1; stroke:black; " description="&lt;b&gt;ctg1_957&lt;/b&gt;&lt;br&gt;ctg1 957&lt;br&gt;Location: 1055304 - 1056921" locus_tag="ctg1_957" class="clusterblast-orf" id="dummy-2_q10_0_all"  />
<polygon points="169,35 174,30 182,30 182,40 174,40 169,35 " style="fill:#157cd8; stroke-width:1; stroke:black; " description="&lt;b&gt;ctg1_958&lt;/b&gt;&lt;br&gt;ctg1 958&lt;br&gt;Location: 1056924 - 1057809" locus_tag="ctg1_958" class="clusterblast-orf" id="dummy-2_q11_0_all"  />
<polygon points="182,35 187,30 209,30 209,40 187,40 182,35 " style="fill:#c415d8; stroke-width:1; stroke:black; " description="&lt;b&gt;ctg1_959&lt;/b&gt;&lt;br&gt;ctg1 959&lt;br&gt;Location: 1057821 - 1059624" locus_tag="ctg1_959" class="clusterblast-orf" id="dummy-2_q12_0_all"  />
<polygon points="211,40 215,40 220,35 215,30 211,30 211,40 " style="fill:#d87215; stroke-width:1; stroke:black; " description="&lt;b&gt;ctg1_960&lt;/b&gt;&lt;br&gt;ctg1 960&lt;br&gt;Location: 1059802 - 1060429" locus_tag="ctg1_960" class="clusterblast-orf" id="dummy-2_q13_0_all"  />
<polygon points="222,40 229,40 234,35 229,30 222,30 222,40 " style="fill:#15d81f; stroke-width:1; stroke:black; " description="&lt;b&gt;ctg1_961&lt;/b&gt;&lt;br&gt;ctg1 961&lt;br&gt;Location: 1060521 - 1061316" locus_tag="ctg1_961" class="clusterblast-orf" id="dummy-2_q14_0_all"  />
<polygon points="236,40 243,40 248,35 243,30 236,30 236,40 " style="fill:#155dd8; stroke-width:1; stroke:black; " description="&lt;b&gt;ctg1_962&lt;/b&gt;&lt;br&gt;ctg1 962&lt;br&gt;Location: 1061450 - 1062287" locus_tag="ctg1_962" class="clusterblast-orf" id="dummy-2_q15_0_all"  />
<polygon points="248,40 250,35 248,30 248,40 " style="fill:#15d81f; stroke-width:1; stroke:black; " description="&lt;b&gt;ctg1_963&lt;/b&gt;&lt;br&gt;ctg1 963&lt;br&gt;Location: 1062293 - 1062425" locus_tag="ctg1_963" class="clusterblast-orf" id="dummy-2_q16_0_all"  />
<polygon points="252,40 259,40 264,35 259,30 252,30 252,40 " style="fill:#155dd8; stroke-width:1; stroke:black; " description="&lt;b&gt;ctg1_964&lt;/b&gt;&lt;br&gt;ctg1 964&lt;br&gt;Location: 1062559 - 1063393" locus_tag="ctg1_964" class="clusterblast-orf" id="dummy-2_q17_0_all"  />
<polygon points="267,40 277,40 282,35 277,30 267,30 267,40 " style="fill:#d815ce; stroke-width:1; stroke:black; " description="&lt;b&gt;ctg1_965&lt;/b&gt;&lt;br&gt;ctg1 965&lt;br&gt;Location: 1063545 - 1064559" locus_tag="ctg1_965" class="clusterblast-orf" id="dummy-2_q18_0_all"  />
<polygon points="284,35 289,30 292,30 292,40 289,40 284,35 " style="fill:#d89015; stroke-width:1; stroke:black; " description="&lt;b&gt;ctg1_966&lt;/b&gt;&lt;br&gt;ctg1 966&lt;br&gt;Location: 1064693 - 1065242" locus_tag="ctg1_966" class="clusterblast-orf" id="dummy-2_q19_0_all"  />
<polygon points="297,40 485,40 490,35 485,30 297,30 297,40 " style="fill:#15d83e; stroke-width:1; stroke:black; " description="&lt;b&gt;ctg1_967&lt;/b&gt;&lt;br&gt;ctg1 967&lt;br&gt;Location: 1065614 - 1078598" locus_tag="ctg1_967" class="clusterblast-orf" id="dummy-2_q20_0_all"  />
<polygon points="492,40 499,40 504,35 499,30 492,30 492,40 " style="fill:#153ed8; stroke-width:1; stroke:black; " description="&lt;b&gt;ctg1_968&lt;/b&gt;&lt;br&gt;ctg1 968&lt;br&gt;Location: 1078770 - 1079583" locus_tag="ctg1_968" class="clusterblast-orf" id="dummy-2_q21_0_all"  />
<polygon points="506,35 511,30 517,30 517,40 511,40 506,35 " style="fill:#d815af; stroke-width:1; stroke:black; " description="&lt;b&gt;ctg1_969&lt;/b&gt;&lt;br&gt;ctg1 969&lt;br&gt;Location: 1079675 - 1080446" locus_tag="ctg1_969" class="clusterblast-orf" id="dummy-2_q22_0_all"  />
<polygon points="517,35 522,30 530,30 530,40 522,40 517,35 " style="fill:#d8af15; stroke-width:1; stroke:black; " description="&lt;b&gt;ctg1_970&lt;/b&gt;&lt;br&gt;ctg1 970&lt;br&gt;Location: 1080421 - 1081288" locus_tag="ctg1_970" class="clusterblast-orf" id="dummy-2_q23_0_all"  />
<polygon points="530,35 535,30 556,30 556,40 535,40 530,35 " style="fill:#15d85d; stroke-width:1; stroke:black; " description="&lt;b&gt;ctg1_971&lt;/b&gt;&lt;br&gt;ctg1 971&lt;br&gt;Location: 1081287 - 1083027" locus_tag="ctg1_971" class="clusterblast-orf" id="dummy-2_q24_0_all"  />
<polygon points="558,40 563,40 568,35 563,30 558,30 558,40 " style="fill:#151fd8; stroke-width:1; stroke:black; " description="&lt;b&gt;ctg1_972&lt;/b&gt;&lt;br&gt;ctg1 972&lt;br&gt;Location: 1083180 - 1083861" locus_tag="ctg1_972" class="clusterblast-orf" id="dummy-2_q25_0_all"  />
<polygon points="568,40 583,40 588,35 583,30 568,30 568,40 " style="fill:#d81590; stroke-width:1; stroke:black; " description="&lt;b&gt;ctg1_973&lt;/b&gt;&lt;br&gt;ctg1 973&lt;br&gt;Location: 1083857 - 1085183" locus_tag="ctg1_973" class="clusterblast-orf" id="dummy-2_q26_0_all"  />
<polygon points="591,40 593,40 598,35 593,30 591,30 591,40 " style="fill:#d8ce15; stroke-width:1; stroke:black; " description="&lt;b&gt;ctg1_974&lt;/b&gt;&lt;br&gt;ctg1 974&lt;br&gt;Location: 1085400 - 1085886" locus_tag="ctg1_974" class="clusterblast-orf" id="dummy-2_q27_0_all"  />
<polygon points="600,40 616,40 621,35 616,30 600,30 600,40 " style="fill:#15d87c; stroke-width:1; stroke:black; " description="&lt;b&gt;ctg1_975&lt;/b&gt;&lt;br&gt;ctg1 975&lt;br&gt;Location: 1086029 - 1087442" locus_tag="ctg1_975" class="clusterblast-orf" id="dummy-2_q28_0_all"  />
<polygon points="622,40 626,35 622,30 622,40 " style="fill:#2a15d8; stroke-width:1; stroke:black; " description="&lt;b&gt;ctg1_976&lt;/b&gt;&lt;br&gt;ctg1 976&lt;br&gt;Location: 1087524 - 1087752" locus_tag="ctg1_976" class="clusterblast-orf" id="dummy-2_q29_0_all"  />
<polygon points="628,35 633,30 643,30 643,40 633,40 628,35 " style="fill:#d81572; stroke-width:1; stroke:black; " description="&lt;b&gt;ctg1_977&lt;/b&gt;&lt;br&gt;ctg1 977&lt;br&gt;Location: 1087926 - 1088898" locus_tag="ctg1_977" class="clusterblast-orf" id="dummy-2_q30_0_all"  />
<polygon points="643,35 648,30 656,30 656,40 648,40 643,35 " style="fill:#c4d815; stroke-width:1; stroke:black; " description="&lt;b&gt;ctg1_978&lt;/b&gt;&lt;br&gt;ctg1 978&lt;br&gt;Location: 1088898 - 1089798" locus_tag="ctg1_978" class="clusterblast-orf" id="dummy-2_q31_0_all"  />
<polygon points="656,35 661,30 669,30 669,40 661,40 656,35 " style="fill:#15d89b; stroke-width:1; stroke:black; " description="&lt;b&gt;ctg1_979&lt;/b&gt;&lt;br&gt;ctg1 979&lt;br&gt;Location: 1089797 - 1090661" locus_tag="ctg1_979" class="clusterblast-orf" id="dummy-2_q32_0_all"  />
<polygon points="669,35 674,30 682,30 682,40 674,40 669,35 " style="fill:#4915d8; stroke-width:1; stroke:black; " description="&lt;b&gt;ctg1_980&lt;/b&gt;&lt;br&gt;ctg1 980&lt;br&gt;Location: 1090657 - 1091584" locus_tag="ctg1_980" class="clusterblast-orf" id="dummy-2_q33_0_all"  />
<polygon points="683,35 688,30 691,30 691,40 688,40 683,35 " style="fill:#d81553; stroke-width:1; stroke:black; " description="&lt;b&gt;ctg1_981&lt;/b&gt;&lt;br&gt;ctg1 981&lt;br&gt;Location: 1091619 - 1092192" locus_tag="ctg1_981" class="clusterblast-orf" id="dummy-2_q34_0_all"  />
<polygon points="691,35 696,30 696,30 696,40 696,40 691,35 " style="fill:#a5d815; stroke-width:1; stroke:black; " description="&lt;b&gt;ctg1_982&lt;/b&gt;&lt;br&gt;ctg1 982&lt;br&gt;Location: 1092194 - 1092524" locus_tag="ctg1_982" class="clusterblast-orf" id="dummy-2_q35_0_all"  />
<polygon points="696,35 701,30 704,30 704,40 701,40 696,35 " style="fill:#15d8b9; stroke-width:1; stroke:black; " description="&lt;b&gt;ctg1_983&lt;/b&gt;&lt;br&gt;ctg1 983&lt;br&gt;Location: 1092520 - 1093063" locus_tag="ctg1_983" class="clusterblast-orf" id="dummy-2_q36_0_all"  />
<polygon points="704,35 709,30 722,30 722,40 709,40 704,35 " style="fill:#6715d8; stroke-width:1; stroke:black; " description="&lt;b&gt;ctg1_984&lt;/b&gt;&lt;br&gt;ctg1 984&lt;br&gt;Location: 1093059 - 1094262" locus_tag="ctg1_984" class="clusterblast-orf" id="dummy-2_q37_0_all"  />
<polygon points="728,40 744,40 749,35 744,30 728,30 728,40 " style="fill:#d81534; stroke-width:1; stroke:black; " description="&lt;b&gt;ctg1_985&lt;/b&gt;&lt;br&gt;ctg1 985&lt;br&gt;Location: 1094682 - 1096104" locus_tag="ctg1_985" class="clusterblast-orf" id="dummy-2_q38_0_all"  />
<polygon points="749,40 753,40 758,35 753,30 749,30 749,40 " style="fill:#86d815; stroke-width:1; stroke:black; " description="&lt;b&gt;ctg1_986&lt;/b&gt;&lt;br&gt;ctg1 986&lt;br&gt;Location: 1096100 - 1096712" locus_tag="ctg1_986" class="clusterblast-orf" id="dummy-2_q39_0_all"  />
<polygon points="760,35 765,30 773,30 773,40 765,40 760,35 " style="fill:#15d8d8; stroke-width:1; stroke:black; " description="&lt;b&gt;ctg1_987&lt;/b&gt;&lt;br&gt;ctg1 987&lt;br&gt;Location: 1096837 - 1097704" locus_tag="ctg1_987" class="clusterblast-orf" id="dummy-2_q40_0_all"  />
</g>
<g label="NZ_LIGE01000036" description="NZ_LIGE01000036_c5: Pseudomonas sp. RIT-PI-r contig 4, whole genome shotgun s... (90% of genes show similarity), nrps" class="clusterblast-cluster"  >
<text x="5" y="70" class="clusterblast-acc"  >
<a xlink:href="https://antismash-db.secondarymetabolites.org/go/NZ_LIGE01000036/5" target="_blank">NZ_LIGE01000036_c5</a>: Pseudomonas sp. RIT-PI-r contig 4, whole genome shotgun s... (90% of genes show similarity), nrps</text>
<line x1="10" y1="85" x2="778.0" y2="85" style="stroke-width:1; stroke:grey; "  />
</g>
<g id="a2_000"  >
<polygon points="0,85 2,80 2,90 0,85 " style="fill:white; stroke-width:1; stroke:black; " description="&lt;b&gt;AK821_RS20685&lt;/b&gt;&lt;br&gt;hypothetical protein&lt;br&gt;Location: 66810 - 66619" locus_tag="AK821_RS20685" class="clusterblast-orf" id="dummy-2_h2_5_0"  />
</g>
<g id="a2_001"  >
<polygon points="9,90 17,90 22,85 17,80 9,80 9,90 " style="fill:white; stroke-width:1; stroke:black; " description="&lt;b&gt;AK821_RS20680&lt;/b&gt;&lt;br&gt;lipid kinase YegS&lt;br&gt;Location: 66185 - 65268" locus_tag="AK821_RS20680" class="clusterblast-orf" id="dummy-2_h2_5_1"  />
</g>
<g id="a2_002"  >
<polygon points="22,85 27,80 32,80 32,90 27,90 22,85 " style="fill:white; stroke-width:1; stroke:black; " description="&lt;b&gt;AK821_RS20675&lt;/b&gt;&lt;br&gt;DNA-binding response regulator&lt;br&gt;Location: 65284 - 64625" locus_tag="AK821_RS20675" class="clusterblast-orf" id="dummy-2_h2_5_2"  />
</g>
<g id="a2_003"  >
<polygon points="32,85 37,80 45,80 45,90 37,90 32,85 " style="fill:#d81515; stroke-width:1; stroke:black; " description="&lt;b&gt;AK821_RS20670&lt;/b&gt;&lt;br&gt;sensor histidine kinase&lt;br&gt;Location: 64628 - 63735&lt;br&gt;&lt;br&gt;&lt;b&gt;BlastP hit with ctg1_947&lt;/b&gt;&lt;br&gt;Percentage identity: 84&lt;br&gt;Percentage coverage: 100&lt;br&gt;BLAST bit score: 486&lt;br&gt;E-value: 1.9e-135" locus_tag="AK821_RS20670" class="clusterblast-orf" id="dummy-2_h2_5_3"  />
</g>
<g id="a2_004"  >
<polygon points="52,85 57,80 59,80 59,90 57,90 52,85 " style="fill:#67d815; stroke-width:1; stroke:black; " description="&lt;b&gt;AK821_RS20665&lt;/b&gt;&lt;br&gt;hypothetical protein&lt;br&gt;Location: 63280 - 62810&lt;br&gt;&lt;br&gt;&lt;b&gt;BlastP hit with ctg1_949&lt;/b&gt;&lt;br&gt;Percentage identity: 75&lt;br&gt;Percentage coverage: 100&lt;br&gt;BLAST bit score: 227&lt;br&gt;E-value: 8.5e-58" locus_tag="AK821_RS20665" class="clusterblast-orf" id="dummy-2_h2_5_4"  />
</g>
<g id="a2_005"  >
<polygon points="66,90 74,90 79,85 74,80 66,80 66,90 " style="fill:#15b9d8; stroke-width:1; stroke:black; " description="&lt;b&gt;AK821_RS20660&lt;/b&gt;&lt;br&gt;chemotaxis protein CheV&lt;br&gt;Location: 62356 - 61421&lt;br&gt;&lt;br&gt;&lt;b&gt;BlastP hit with ctg1_950&lt;/b&gt;&lt;br&gt;Percentage identity: 98&lt;br&gt;Percentage coverage: 100&lt;br&gt;BLAST bit score: 599&lt;br&gt;E-value: 1.6e-169" locus_tag="AK821_RS20660" class="clusterblast-orf" id="dummy-2_h2_5_5"  />
</g>
<g id="a2_006"  >
<polygon points="82,90 89,90 94,85 89,80 82,80 82,90 " style="fill:#8615d8; stroke-width:1; stroke:black; " description="&lt;b&gt;AK821_RS20655&lt;/b&gt;&lt;br&gt;MOSC domain-containing protein&lt;br&gt;Location: 61253 - 60447&lt;br&gt;&lt;br&gt;&lt;b&gt;BlastP hit with ctg1_951&lt;/b&gt;&lt;br&gt;Percentage identity: 87&lt;br&gt;Percentage coverage: 100&lt;br&gt;BLAST bit score: 468&lt;br&gt;E-value: 4.9e-130" locus_tag="AK821_RS20655" class="clusterblast-orf" id="dummy-2_h2_5_6"  />
</g>
<g id="a2_007"  >
<polygon points="95,85 99,80 99,90 95,85 " style="fill:#d83415; stroke-width:1; stroke:black; " description="&lt;b&gt;AK821_RS20650&lt;/b&gt;&lt;br&gt;DUF1255 domain-containing protein&lt;br&gt;Location: 60360 - 60076&lt;br&gt;&lt;br&gt;&lt;b&gt;BlastP hit with ctg1_952&lt;/b&gt;&lt;br&gt;Percentage identity: 97&lt;br&gt;Percentage coverage: 100&lt;br&gt;BLAST bit score: 191&lt;br&gt;E-value: 3.1e-47" locus_tag="AK821_RS20650" class="clusterblast-orf" id="dummy-2_h2_5_7"  />
</g>
<g id="a2_008"  >
<polygon points="101,85 106,80 109,80 109,90 106,90 101,85 " style="fill:#49d815; stroke-width:1; stroke:black; " description="&lt;b&gt;AK821_RS20645&lt;/b&gt;&lt;br&gt;exonuclease&lt;br&gt;Location: 59970 - 59428&lt;br&gt;&lt;br&gt;&lt;b&gt;BlastP hit with ctg1_953&lt;/b&gt;&lt;br&gt;Percentage identity: 92&lt;br&gt;Percentage coverage: 100&lt;br&gt;BLAST bit score: 351&lt;br&gt;E-value: 7.7e-95" locus_tag="AK821_RS20645" class="clusterblast-orf" id="dummy-2_h2_5_8"  />
</g>
<g id="a2_009"  >
<polygon points="110,85 115,80 139,80 139,90 115,90 110,85 " style="fill:#159bd8; stroke-width:1; stroke:black; " description="&lt;b&gt;AK821_RS20640&lt;/b&gt;&lt;br&gt;acetyl/propionyl/methylcrotonyl-CoA carboxylase subunit alpha&lt;br&gt;Location: 59357 - 57396&lt;br&gt;&lt;br&gt;&lt;b&gt;BlastP hit with ctg1_954&lt;/b&gt;&lt;br&gt;Percentage identity: 77&lt;br&gt;Percentage coverage: 100&lt;br&gt;BLAST bit score: 1008&lt;br&gt;E-value: 2.5e-292" locus_tag="AK821_RS20640" class="clusterblast-orf" id="dummy-2_h2_5_9"  />
</g>
<g id="a2_0010"  >
<polygon points="141,85 146,80 153,80 153,90 146,90 141,85 " style="fill:#a515d8; stroke-width:1; stroke:black; " description="&lt;b&gt;AK821_RS20635&lt;/b&gt;&lt;br&gt;enoyl-CoA hydratase&lt;br&gt;Location: 57285 - 56488&lt;br&gt;&lt;br&gt;&lt;b&gt;BlastP hit with ctg1_955&lt;/b&gt;&lt;br&gt;Percentage identity: 80&lt;br&gt;Percentage coverage: 100&lt;br&gt;BLAST bit score: 415&lt;br&gt;E-value: 4.9e-114" locus_tag="AK821_RS20635" class="clusterblast-orf" id="dummy-2_h2_5_10"  />
</g>
<g id="a2_0011"  >
<polygon points="153,85 158,80 170,80 170,90 158,90 153,85 " style="fill:#d85315; stroke-width:1; stroke:black; " description="&lt;b&gt;AK821_RS20630&lt;/b&gt;&lt;br&gt;acyl-CoA dehydrogenase&lt;br&gt;Location: 56491 - 55334&lt;br&gt;&lt;br&gt;&lt;b&gt;BlastP hit with ctg1_956&lt;/b&gt;&lt;br&gt;Percentage identity: 97&lt;br&gt;Percentage coverage: 100&lt;br&gt;BLAST bit score: 771&lt;br&gt;E-value: 3.9e-221" locus_tag="AK821_RS20630" class="clusterblast-orf" id="dummy-2_h2_5_11"  />
</g>
<g id="a2_0012"  >
<polygon points="170,85 175,80 194,80 194,90 175,90 170,85 " style="fill:#2ad815; stroke-width:1; stroke:black; " description="&lt;b&gt;AK821_RS20625&lt;/b&gt;&lt;br&gt;acyl-CoA carboxylase subunit beta&lt;br&gt;Location: 55303 - 53687&lt;br&gt;&lt;br&gt;&lt;b&gt;BlastP hit with ctg1_957&lt;/b&gt;&lt;br&gt;Percentage identity: 92&lt;br&gt;Percentage coverage: 100&lt;br&gt;BLAST bit score: 996&lt;br&gt;E-value: 1e-288" locus_tag="AK821_RS20625" class="clusterblast-orf" id="dummy-2_h2_5_12"  />
</g>
<g id="a2_0013"  >
<polygon points="194,85 199,80 207,80 207,90 199,90 194,85 " style="fill:#157cd8; stroke-width:1; stroke:black; " description="&lt;b&gt;AK821_RS20620&lt;/b&gt;&lt;br&gt;2,4-dienoyl-CoA reductase&lt;br&gt;Location: 53683 - 52814&lt;br&gt;&lt;br&gt;&lt;b&gt;BlastP hit with ctg1_958&lt;/b&gt;&lt;br&gt;Percentage identity: 87&lt;br&gt;Percentage coverage: 100&lt;br&gt;BLAST bit score: 516&lt;br&gt;E-value: 1.7e-144" locus_tag="AK821_RS20620" class="clusterblast-orf" id="dummy-2_h2_5_13"  />
</g>
<g id="a2_0014"  >
<polygon points="207,85 212,80 234,80 234,90 212,90 207,85 " style="fill:#c415d8; stroke-width:1; stroke:black; " description="&lt;b&gt;AK821_RS20615&lt;/b&gt;&lt;br&gt;DUF1446 domain-containing protein&lt;br&gt;Location: 52801 - 51017&lt;br&gt;&lt;br&gt;&lt;b&gt;BlastP hit with ctg1_959&lt;/b&gt;&lt;br&gt;Percentage identity: 86&lt;br&gt;Percentage coverage: 99&lt;br&gt;BLAST bit score: 1056&lt;br&gt;E-value: 9.4e-307" locus_tag="AK821_RS20615" class="clusterblast-orf" id="dummy-2_h2_5_14"  />
</g>
<g id="a2_0015"  >
<polygon points="236,90 241,90 246,85 241,80 236,80 236,90 " style="fill:#d87215; stroke-width:1; stroke:black; " description="&lt;b&gt;AK821_RS20610&lt;/b&gt;&lt;br&gt;TetR/AcrR family transcriptional regulator&lt;br&gt;Location: 50832 - 50209&lt;br&gt;&lt;br&gt;&lt;b&gt;BlastP hit with ctg1_960&lt;/b&gt;&lt;br&gt;Percentage identity: 91&lt;br&gt;Percentage coverage: 100&lt;br&gt;BLAST bit score: 370&lt;br&gt;E-value: 1.4e-100" locus_tag="AK821_RS20610" class="clusterblast-orf" id="dummy-2_h2_5_15"  />
</g>
<g id="a2_0016"  >
<polygon points="247,90 254,90 259,85 254,80 247,80 247,90 " style="fill:#15d81f; stroke-width:1; stroke:black; " description="&lt;b&gt;AK821_RS20605&lt;/b&gt;&lt;br&gt;amino acid ABC transporter substrate-binding protein&lt;br&gt;Location: 50116 - 49319&lt;br&gt;&lt;br&gt;&lt;b&gt;BlastP hit with ctg1_961&lt;/b&gt;&lt;br&gt;Percentage identity: 87&lt;br&gt;Percentage coverage: 99&lt;br&gt;BLAST bit score: 458&lt;br&gt;E-value: 6.5e-127&lt;br&gt;&lt;br&gt;&lt;b&gt;BlastP hit with ctg1_963&lt;/b&gt;&lt;br&gt;Percentage identity: 83&lt;br&gt;Percentage coverage: 93&lt;br&gt;BLAST bit score: 72&lt;br&gt;E-value: 1.6e-11" locus_tag="AK821_RS20605" class="clusterblast-orf" id="dummy-2_h2_5_16"  />
</g>
<g id="a2_0017"  >
<polygon points="260,90 270,90 275,85 270,80 260,80 260,90 " style="fill:#d815ce; stroke-width:1; stroke:black; " description="&lt;b&gt;AK821_RS20600&lt;/b&gt;&lt;br&gt;N-acetyltransferase&lt;br&gt;Location: 49231 - 48218&lt;br&gt;&lt;br&gt;&lt;b&gt;BlastP hit with ctg1_965&lt;/b&gt;&lt;br&gt;Percentage identity: 87&lt;br&gt;Percentage coverage: 100&lt;br&gt;BLAST bit score: 630&lt;br&gt;E-value: 1.2e-178" locus_tag="AK821_RS20600" class="clusterblast-orf" id="dummy-2_h2_5_17"  />
</g>
<g id="a2_0018"  >
<polygon points="277,85 282,80 285,80 285,90 282,90 277,85 " style="fill:#d89015; stroke-width:1; stroke:black; " description="&lt;b&gt;AK821_RS20595&lt;/b&gt;&lt;br&gt;RNA polymerase factor sigma-70&lt;br&gt;Location: 48108 - 47554&lt;br&gt;&lt;br&gt;&lt;b&gt;BlastP hit with ctg1_966&lt;/b&gt;&lt;br&gt;Percentage identity: 98&lt;br&gt;Percentage coverage: 97&lt;br&gt;BLAST bit score: 343&lt;br&gt;E-value: 1.2e-92" locus_tag="AK821_RS20595" class="clusterblast-orf" id="dummy-2_h2_5_18"  />
</g>
<g id="a2_0019"  >
<polygon points="291,90 478,90 483,85 478,80 291,80 291,90 " style="fill:#15d83e; stroke-width:1; stroke:black; " description="&lt;b&gt;AK821_RS20590&lt;/b&gt;&lt;br&gt;non-ribosomal peptide synthase/polyketide synthase&lt;br&gt;Location: 47183 - 34185&lt;br&gt;&lt;br&gt;&lt;b&gt;BlastP hit with ctg1_967&lt;/b&gt;&lt;br&gt;Percentage identity: 90&lt;br&gt;Percentage coverage: 100&lt;br&gt;BLAST bit score: 7901&lt;br&gt;E-value: 0.0" locus_tag="AK821_RS20590" class="clusterblast-orf" id="dummy-2_h2_5_19"  />
</g>
<g id="a2_0020"  >
<polygon points="487,90 494,90 499,85 494,80 487,80 487,90 " style="fill:#153ed8; stroke-width:1; stroke:black; " description="&lt;b&gt;AK821_RS20585&lt;/b&gt;&lt;br&gt;2-succinyl-6-hydroxy-2, 4-cyclohexadiene-1-carboxylate synthase&lt;br&gt;Location: 33955 - 33140&lt;br&gt;&lt;br&gt;&lt;b&gt;BlastP hit with ctg1_968&lt;/b&gt;&lt;br&gt;Percentage identity: 87&lt;br&gt;Percentage coverage: 100&lt;br&gt;BLAST bit score: 489&lt;br&gt;E-value: 2.1e-136" locus_tag="AK821_RS20585" class="clusterblast-orf" id="dummy-2_h2_5_20"  />
</g>
<g id="a2_0021"  >
<polygon points="500,85 505,80 512,80 512,90 505,90 500,85 " style="fill:#d815af; stroke-width:1; stroke:black; " description="&lt;b&gt;AK821_RS20580&lt;/b&gt;&lt;br&gt;thiol:disulfide interchange protein DsbG&lt;br&gt;Location: 33036 - 32266&lt;br&gt;&lt;br&gt;&lt;b&gt;BlastP hit with ctg1_969&lt;/b&gt;&lt;br&gt;Percentage identity: 90&lt;br&gt;Percentage coverage: 100&lt;br&gt;BLAST bit score: 474&lt;br&gt;E-value: 8.5e-132" locus_tag="AK821_RS20580" class="clusterblast-orf" id="dummy-2_h2_5_21"  />
</g>
<g id="a2_0022"  >
<polygon points="511,85 516,80 524,80 524,90 516,90 511,85 " style="fill:#d8af15; stroke-width:1; stroke:black; " description="&lt;b&gt;AK821_RS20575&lt;/b&gt;&lt;br&gt;peroxiredoxin&lt;br&gt;Location: 32290 - 31409&lt;br&gt;&lt;br&gt;&lt;b&gt;BlastP hit with ctg1_970&lt;/b&gt;&lt;br&gt;Percentage identity: 88&lt;br&gt;Percentage coverage: 102&lt;br&gt;BLAST bit score: 525&lt;br&gt;E-value: 3.6e-147" locus_tag="AK821_RS20575" class="clusterblast-orf" id="dummy-2_h2_5_22"  />
</g>
<g id="a2_0023"  >
<polygon points="524,85 529,80 550,80 550,90 529,90 524,85 " style="fill:#15d85d; stroke-width:1; stroke:black; " description="&lt;b&gt;AK821_RS20570&lt;/b&gt;&lt;br&gt;protein-disulfide reductase DsbD&lt;br&gt;Location: 31409 - 29676&lt;br&gt;&lt;br&gt;&lt;b&gt;BlastP hit with ctg1_971&lt;/b&gt;&lt;br&gt;Percentage identity: 83&lt;br&gt;Percentage coverage: 100&lt;br&gt;BLAST bit score: 961&lt;br&gt;E-value: 3.1e-278" locus_tag="AK821_RS20570" class="clusterblast-orf" id="dummy-2_h2_5_23"  />
</g>
<g id="a2_0024"  >
<polygon points="552,90 557,90 562,85 557,80 552,80 552,90 " style="fill:#151fd8; stroke-width:1; stroke:black; " description="&lt;b&gt;AK821_RS20565&lt;/b&gt;&lt;br&gt;DNA-binding response regulator&lt;br&gt;Location: 29522 - 28842&lt;br&gt;&lt;br&gt;&lt;b&gt;BlastP hit with ctg1_972&lt;/b&gt;&lt;br&gt;Percentage identity: 95&lt;br&gt;Percentage coverage: 100&lt;br&gt;BLAST bit score: 414&lt;br&gt;E-value: 7.1e-114" locus_tag="AK821_RS20565" class="clusterblast-orf" id="dummy-2_h2_5_24"  />
</g>
<g id="a2_0025"  >
<polygon points="562,90 577,90 582,85 577,80 562,80 562,90 " style="fill:#d81590; stroke-width:1; stroke:black; " description="&lt;b&gt;AK821_RS20560&lt;/b&gt;&lt;br&gt;histidine kinase&lt;br&gt;Location: 28842 - 27520&lt;br&gt;&lt;br&gt;&lt;b&gt;BlastP hit with ctg1_973&lt;/b&gt;&lt;br&gt;Percentage identity: 91&lt;br&gt;Percentage coverage: 100&lt;br&gt;BLAST bit score: 780&lt;br&gt;E-value: 1.3e-223" locus_tag="AK821_RS20560" class="clusterblast-orf" id="dummy-2_h2_5_25"  />
</g>
<g id="a2_0026"  >
<polygon points="584,90 586,90 591,85 586,80 584,80 584,90 " style="fill:#d8ce15; stroke-width:1; stroke:black; " description="&lt;b&gt;AK821_RS20555&lt;/b&gt;&lt;br&gt;N-acetyltransferase&lt;br&gt;Location: 27405 - 26920&lt;br&gt;&lt;br&gt;&lt;b&gt;BlastP hit with ctg1_974&lt;/b&gt;&lt;br&gt;Percentage identity: 64&lt;br&gt;Percentage coverage: 99&lt;br&gt;BLAST bit score: 216&lt;br&gt;E-value: 2.6e-54" locus_tag="AK821_RS20555" class="clusterblast-orf" id="dummy-2_h2_5_26"  />
</g>
<g id="a2_0027"  >
<polygon points="593,90 609,90 614,85 609,80 593,80 593,90 " style="fill:#15d87c; stroke-width:1; stroke:black; " description="&lt;b&gt;AK821_RS20550&lt;/b&gt;&lt;br&gt;diaminobutyrate--2-oxoglutarate transaminase&lt;br&gt;Location: 26776 - 25364&lt;br&gt;&lt;br&gt;&lt;b&gt;BlastP hit with ctg1_975&lt;/b&gt;&lt;br&gt;Percentage identity: 92&lt;br&gt;Percentage coverage: 100&lt;br&gt;BLAST bit score: 849&lt;br&gt;E-value: 1.4e-244" locus_tag="AK821_RS20550" class="clusterblast-orf" id="dummy-2_h2_5_27"  />
</g>
<g id="a2_0028"  >
<polygon points="615,90 619,85 615,80 615,90 " style="fill:#2a15d8; stroke-width:1; stroke:black; " description="&lt;b&gt;AK821_RS20545&lt;/b&gt;&lt;br&gt;MbtH family protein&lt;br&gt;Location: 25280 - 25056&lt;br&gt;&lt;br&gt;&lt;b&gt;BlastP hit with ctg1_976&lt;/b&gt;&lt;br&gt;Percentage identity: 97&lt;br&gt;Percentage coverage: 96&lt;br&gt;BLAST bit score: 150&lt;br&gt;E-value: 8.3e-35" locus_tag="AK821_RS20545" class="clusterblast-orf" id="dummy-2_h2_5_28"  />
</g>
<g id="a2_0029"  >
<polygon points="621,85 626,80 635,80 635,90 626,90 621,85 " style="fill:#d81572; stroke-width:1; stroke:black; " description="&lt;b&gt;AK821_RS20540&lt;/b&gt;&lt;br&gt;metal ABC transporter substrate-binding protein&lt;br&gt;Location: 24877 - 23972&lt;br&gt;&lt;br&gt;&lt;b&gt;BlastP hit with ctg1_977&lt;/b&gt;&lt;br&gt;Percentage identity: 73&lt;br&gt;Percentage coverage: 100&lt;br&gt;BLAST bit score: 451&lt;br&gt;E-value: 5.7e-125" locus_tag="AK821_RS20540" class="clusterblast-orf" id="dummy-2_h2_5_29"  />
</g>
<g id="a2_0030"  >
<polygon points="635,85 640,80 648,80 648,90 640,90 635,85 " style="fill:#c4d815; stroke-width:1; stroke:black; " description="&lt;b&gt;AK821_RS20535&lt;/b&gt;&lt;br&gt;metal ABC transporter permease&lt;br&gt;Location: 23971 - 23072&lt;br&gt;&lt;br&gt;&lt;b&gt;BlastP hit with ctg1_978&lt;/b&gt;&lt;br&gt;Percentage identity: 99&lt;br&gt;Percentage coverage: 100&lt;br&gt;BLAST bit score: 481&lt;br&gt;E-value: 8.2e-134" locus_tag="AK821_RS20535" class="clusterblast-orf" id="dummy-2_h2_5_30"  />
</g>
<g id="a2_0031"  >
<polygon points="648,85 653,80 661,80 661,90 653,90 648,85 " style="fill:#15d89b; stroke-width:1; stroke:black; " description="&lt;b&gt;AK821_RS20530&lt;/b&gt;&lt;br&gt;metal ABC transporter ATP-binding protein&lt;br&gt;Location: 23072 - 22218&lt;br&gt;&lt;br&gt;&lt;b&gt;BlastP hit with ctg1_979&lt;/b&gt;&lt;br&gt;Percentage identity: 85&lt;br&gt;Percentage coverage: 101&lt;br&gt;BLAST bit score: 464&lt;br&gt;E-value: 7.6e-129" locus_tag="AK821_RS20530" class="clusterblast-orf" id="dummy-2_h2_5_31"  />
</g>
<g id="a2_0032"  >
<polygon points="661,85 666,80 674,80 674,90 666,90 661,85 " style="fill:#4915d8; stroke-width:1; stroke:black; " description="&lt;b&gt;AK821_RS20525&lt;/b&gt;&lt;br&gt;ABC transporter substrate-binding protein&lt;br&gt;Location: 22221 - 21292&lt;br&gt;&lt;br&gt;&lt;b&gt;BlastP hit with ctg1_980&lt;/b&gt;&lt;br&gt;Percentage identity: 95&lt;br&gt;Percentage coverage: 100&lt;br&gt;BLAST bit score: 569&lt;br&gt;E-value: 1.8e-160" locus_tag="AK821_RS20525" class="clusterblast-orf" id="dummy-2_h2_5_32"  />
</g>
<g id="a2_0033"  >
<polygon points="675,85 680,80 683,80 683,90 680,90 675,85 " style="fill:#d81553; stroke-width:1; stroke:black; " description="&lt;b&gt;AK821_RS20520&lt;/b&gt;&lt;br&gt;hypothetical protein&lt;br&gt;Location: 21256 - 20681&lt;br&gt;&lt;br&gt;&lt;b&gt;BlastP hit with ctg1_981&lt;/b&gt;&lt;br&gt;Percentage identity: 75&lt;br&gt;Percentage coverage: 101&lt;br&gt;BLAST bit score: 280&lt;br&gt;E-value: 1e-73" locus_tag="AK821_RS20520" class="clusterblast-orf" id="dummy-2_h2_5_33"  />
</g>
<g id="a2_0034"  >
<polygon points="683,85 688,80 688,80 688,90 688,90 683,85 " style="fill:#a5d815; stroke-width:1; stroke:black; " description="&lt;b&gt;AK821_RS20515&lt;/b&gt;&lt;br&gt;hypothetical protein&lt;br&gt;Location: 20684 - 20343&lt;br&gt;&lt;br&gt;&lt;b&gt;BlastP hit with ctg1_982&lt;/b&gt;&lt;br&gt;Percentage identity: 94&lt;br&gt;Percentage coverage: 94&lt;br&gt;BLAST bit score: 198&lt;br&gt;E-value: 5e-49" locus_tag="AK821_RS20515" class="clusterblast-orf" id="dummy-2_h2_5_34"  />
</g>
<g id="a2_0035"  >
<polygon points="688,85 693,80 696,80 696,90 693,90 688,85 " style="fill:#15d8b9; stroke-width:1; stroke:black; " description="&lt;b&gt;AK821_RS20510&lt;/b&gt;&lt;br&gt;hypothetical protein&lt;br&gt;Location: 20346 - 19807&lt;br&gt;&lt;br&gt;&lt;b&gt;BlastP hit with ctg1_983&lt;/b&gt;&lt;br&gt;Percentage identity: 78&lt;br&gt;Percentage coverage: 100&lt;br&gt;BLAST bit score: 303&lt;br&gt;E-value: 1.4e-80" locus_tag="AK821_RS20510" class="clusterblast-orf" id="dummy-2_h2_5_35"  />
</g>
<g id="a2_0036"  >
<polygon points="696,85 701,80 714,80 714,90 701,90 696,85 " style="fill:#6715d8; stroke-width:1; stroke:black; " description="&lt;b&gt;AK821_RS20505&lt;/b&gt;&lt;br&gt;PepSY domain-containing protein&lt;br&gt;Location: 19810 - 18608&lt;br&gt;&lt;br&gt;&lt;b&gt;BlastP hit with ctg1_984&lt;/b&gt;&lt;br&gt;Percentage identity: 83&lt;br&gt;Percentage coverage: 100&lt;br&gt;BLAST bit score: 682&lt;br&gt;E-value: 3.2e-194" locus_tag="AK821_RS20505" class="clusterblast-orf" id="dummy-2_h2_5_36"  />
</g>
<g id="a2_0037"  >
<polygon points="720,90 736,90 741,85 736,80 720,80 720,90 " style="fill:#d81534; stroke-width:1; stroke:black; " description="&lt;b&gt;AK821_RS20500&lt;/b&gt;&lt;br&gt;3-isopropylmalate dehydratase large subunit&lt;br&gt;Location: 18209 - 16791&lt;br&gt;&lt;br&gt;&lt;b&gt;BlastP hit with ctg1_985&lt;/b&gt;&lt;br&gt;Percentage identity: 91&lt;br&gt;Percentage coverage: 99&lt;br&gt;BLAST bit score: 851&lt;br&gt;E-value: 4.7e-245" locus_tag="AK821_RS20500" class="clusterblast-orf" id="dummy-2_h2_5_37"  />
</g>
<g id="a2_0038"  >
<polygon points="741,90 745,90 750,85 745,80 741,80 741,90 " style="fill:#86d815; stroke-width:1; stroke:black; " description="&lt;b&gt;AK821_RS20495&lt;/b&gt;&lt;br&gt;3-isopropylmalate dehydratase small subunit&lt;br&gt;Location: 16794 - 16180&lt;br&gt;&lt;br&gt;&lt;b&gt;BlastP hit with ctg1_986&lt;/b&gt;&lt;br&gt;Percentage identity: 79&lt;br&gt;Percentage coverage: 100&lt;br&gt;BLAST bit score: 337&lt;br&gt;E-value: 7.6e-91" locus_tag="AK821_RS20495" class="clusterblast-orf" id="dummy-2_h2_5_38"  />
</g>
<g id="a2_0039"  >
<polygon points="752,85 757,80 766,80 766,90 757,90 752,85 " style="fill:#15d8d8; stroke-width:1; stroke:black; " description="&lt;b&gt;AK821_RS20490&lt;/b&gt;&lt;br&gt;LysR family transcriptional regulator&lt;br&gt;Location: 16053 - 15103&lt;br&gt;&lt;br&gt;&lt;b&gt;BlastP hit with ctg1_987&lt;/b&gt;&lt;br&gt;Percentage identity: 92&lt;br&gt;Percentage coverage: 100&lt;br&gt;BLAST bit score: 548&lt;br&gt;E-value: 5.2e-154" locus_tag="AK821_RS20490" class="clusterblast-orf" id="dummy-2_h2_5_39"  />
</g>
<g id="a2_0040"  >
<polygon points="767,85 772,80 780,80 780,90 772,90 767,85 " style="fill:white; stroke-width:1; stroke:black; " description="&lt;b&gt;AK821_RS20485&lt;/b&gt;&lt;br&gt;alpha/beta hydrolase&lt;br&gt;Location: 15079 - 14204" locus_tag="AK821_RS20485" class="clusterblast-orf" id="dummy-2_h2_5_40"  />
</g>
</svg>
