<svg xmlns="http://www.w3.org/2000/svg" xmlns:xlink="http://www.w3.org/1999/xlink" version="1.1" x="0" y="0" height="230" width="800" viewBox="0 0 800 230" preserveAspectRatio="none"  >
<g label="Query sequence" class="clusterblast-cluster"  >
<text x="5" y="20" class="clusterblast-acc"  >
Query sequence</text>
<line x1="10" y1="35" x2="778.0" y2="35" style="stroke-width:1; stroke:grey; "  />
<polygon points="0,35 5,30 35,30 35,40 5,40 0,35 " style="fill:#d81515; stroke-width:1; stroke:black; " description="&lt;b&gt;ctg3_2058&lt;/b&gt;&lt;br&gt;ctg3 2058&lt;br&gt;Location: 2447924 - 2448710" locus_tag="ctg3_2058" class="clusterblast-orf" id="dummy-4_q0_0_all"  />
<polygon points="35,35 40,30 69,30 69,40 40,40 35,35 " style="fill:#77d815; stroke-width:1; stroke:black; " description="&lt;b&gt;ctg3_2059&lt;/b&gt;&lt;br&gt;ctg3 2059&lt;br&gt;Location: 2448706 - 2449498" locus_tag="ctg3_2059" class="clusterblast-orf" id="dummy-4_q1_0_all"  />
<polygon points="70,35 75,30 115,30 115,40 75,40 70,35 " style="fill:#15d8d8; stroke-width:1; stroke:black; " description="&lt;b&gt;ctg3_2060&lt;/b&gt;&lt;br&gt;ctg3 2060&lt;br&gt;Location: 2449510 - 2450542" locus_tag="ctg3_2060" class="clusterblast-orf" id="dummy-4_q2_0_all"  />
<polygon points="115,35 120,30 158,30 158,40 120,40 115,35 " style="fill:#15d8d8; stroke-width:1; stroke:black; " description="&lt;b&gt;ctg3_2061&lt;/b&gt;&lt;br&gt;ctg3 2061&lt;br&gt;Location: 2450534 - 2451524" locus_tag="ctg3_2061" class="clusterblast-orf" id="dummy-4_q3_0_all"  />
<polygon points="158,35 163,30 197,30 197,40 163,40 158,35 " style="fill:#7715d8; stroke-width:1; stroke:black; " description="&lt;b&gt;ctg3_2062&lt;/b&gt;&lt;br&gt;ctg3 2062&lt;br&gt;Location: 2451520 - 2452393" locus_tag="ctg3_2062" class="clusterblast-orf" id="dummy-4_q4_0_all"  />
<polygon points="198,35 203,30 279,30 279,40 203,40 198,35 " style="fill:#d87715; stroke-width:1; stroke:black; " description="&lt;b&gt;ctg3_2063&lt;/b&gt;&lt;br&gt;ctg3 2063&lt;br&gt;Location: 2452424 - 2454254" locus_tag="ctg3_2063" class="clusterblast-orf" id="dummy-4_q5_0_all"  />
<polygon points="279,35 284,30 313,30 313,40 284,40 279,35 " style="fill:#15d815; stroke-width:1; stroke:black; " description="&lt;b&gt;ctg3_2064&lt;/b&gt;&lt;br&gt;ctg3 2064&lt;br&gt;Location: 2454258 - 2455032" locus_tag="ctg3_2064" class="clusterblast-orf" id="dummy-4_q6_0_all"  />
<polygon points="312,35 317,30 394,30 394,40 317,40 312,35 " style="fill:#1577d8; stroke-width:1; stroke:black; " description="&lt;b&gt;ctg3_2065&lt;/b&gt;&lt;br&gt;ctg3 2065&lt;br&gt;Location: 2455025 - 2456879" locus_tag="ctg3_2065" class="clusterblast-orf" id="dummy-4_q7_0_all"  />
<polygon points="395,35 400,30 458,30 458,40 400,40 395,35 " style="fill:#d815d8; stroke-width:1; stroke:black; " description="&lt;b&gt;ctg3_2066&lt;/b&gt;&lt;br&gt;ctg3 2066&lt;br&gt;Location: 2456903 - 2458325" locus_tag="ctg3_2066" class="clusterblast-orf" id="dummy-4_q8_0_all"  />
<polygon points="457,35 462,30 510,30 510,40 462,40 457,35 " style="fill:#d8d815; stroke-width:1; stroke:black; " description="&lt;b&gt;ctg3_2067&lt;/b&gt;&lt;br&gt;ctg3 2067&lt;br&gt;Location: 2458315 - 2459527" locus_tag="ctg3_2067" class="clusterblast-orf" id="dummy-4_q9_0_all"  />
<polygon points="510,35 515,30 588,30 588,40 515,40 510,35 " style="fill:#15d877; stroke-width:1; stroke:black; " description="&lt;b&gt;ctg3_2068&lt;/b&gt;&lt;br&gt;ctg3 2068&lt;br&gt;Location: 2459519 - 2461301" locus_tag="ctg3_2068" class="clusterblast-orf" id="dummy-4_q10_0_all"  />
<polygon points="597,35 602,30 658,30 658,40 602,40 597,35 " style="fill:#1515d8; stroke-width:1; stroke:black; " description="&lt;b&gt;ctg3_2069&lt;/b&gt;&lt;br&gt;ctg3 2069&lt;br&gt;Location: 2461498 - 2462875" locus_tag="ctg3_2069" class="clusterblast-orf" id="dummy-4_q11_0_all"  />
<polygon points="673,35 678,30 780,30 780,40 678,40 673,35 " style="fill:#d81577; stroke-width:1; stroke:black; " description="&lt;b&gt;ctg3_2070&lt;/b&gt;&lt;br&gt;ctg3 2070&lt;br&gt;Location: 2463226 - 2465650" locus_tag="ctg3_2070" class="clusterblast-orf" id="dummy-4_q12_0_all"  />
</g>
<g label="NZ_LT629705" description="NZ_LT629705_c5: Pseudomonas arsenicoxydans strain CECT 7543 genome assembly, ... (100% of genes show similarity), siderophore" class="clusterblast-cluster"  >
<text x="5" y="70" class="clusterblast-acc"  >
<a xlink:href="https://antismash-db.secondarymetabolites.org/go/NZ_LT629705/5" target="_blank">NZ_LT629705_c5</a>: Pseudomonas arsenicoxydans strain CECT 7543 genome assembly, ... (100% of genes show similarity), siderophore</text>
<line x1="10" y1="85" x2="778.0" y2="85" style="stroke-width:1; stroke:grey; "  />
</g>
<g id="a4_000"  >
<polygon points="0,85 5,80 34,80 34,90 5,90 0,85 " style="fill:#d81515; stroke-width:1; stroke:black; " description="&lt;b&gt;BLQ41_RS15900&lt;/b&gt;&lt;br&gt;siderophore-iron reductase, Fe-S cluster protein&lt;br&gt;Location: 3412582 - 3411797&lt;br&gt;&lt;br&gt;&lt;b&gt;BlastP hit with ctg3_2058&lt;/b&gt;&lt;br&gt;Percentage identity: 94&lt;br&gt;Percentage coverage: 100&lt;br&gt;BLAST bit score: 510&lt;br&gt;E-value: 1.4e-142" locus_tag="BLQ41_RS15900" class="clusterblast-orf" id="dummy-4_h4_3_0"  />
</g>
<g id="a4_001"  >
<polygon points="34,85 39,80 69,80 69,90 39,90 34,85 " style="fill:#77d815; stroke-width:1; stroke:black; " description="&lt;b&gt;BLQ41_RS15895&lt;/b&gt;&lt;br&gt;ABC transporter ATP-binding protein&lt;br&gt;Location: 3411800 - 3411009&lt;br&gt;&lt;br&gt;&lt;b&gt;BlastP hit with ctg3_2059&lt;/b&gt;&lt;br&gt;Percentage identity: 100&lt;br&gt;Percentage coverage: 100&lt;br&gt;BLAST bit score: 517&lt;br&gt;E-value: 9e-145" locus_tag="BLQ41_RS15895" class="clusterblast-orf" id="dummy-4_h4_3_1"  />
</g>
<g id="a4_002"  >
<polygon points="69,85 74,80 115,80 115,90 74,90 69,85 " style="fill:#15d8d8; stroke-width:1; stroke:black; " description="&lt;b&gt;BLQ41_RS15890&lt;/b&gt;&lt;br&gt;iron ABC transporter permease&lt;br&gt;Location: 3410996 - 3409965&lt;br&gt;&lt;br&gt;&lt;b&gt;BlastP hit with ctg3_2060&lt;/b&gt;&lt;br&gt;Percentage identity: 97&lt;br&gt;Percentage coverage: 100&lt;br&gt;BLAST bit score: 607&lt;br&gt;E-value: 6.6e-172&lt;br&gt;&lt;br&gt;&lt;b&gt;BlastP hit with ctg3_2061&lt;/b&gt;&lt;br&gt;Percentage identity: 34&lt;br&gt;Percentage coverage: 101&lt;br&gt;BLAST bit score: 134&lt;br&gt;E-value: 2.7e-29" locus_tag="BLQ41_RS15890" class="clusterblast-orf" id="dummy-4_h4_3_2"  />
</g>
<g id="a4_003"  >
<polygon points="114,85 119,80 158,80 158,90 119,90 114,85 " style="fill:#15d8d8; stroke-width:1; stroke:black; " description="&lt;b&gt;BLQ41_RS15885&lt;/b&gt;&lt;br&gt;iron ABC transporter permease&lt;br&gt;Location: 3409972 - 3408983&lt;br&gt;&lt;br&gt;&lt;b&gt;BlastP hit with ctg3_2060&lt;/b&gt;&lt;br&gt;Percentage identity: 35&lt;br&gt;Percentage coverage: 96&lt;br&gt;BLAST bit score: 124&lt;br&gt;E-value: 1.7e-26&lt;br&gt;&lt;br&gt;&lt;b&gt;BlastP hit with ctg3_2061&lt;/b&gt;&lt;br&gt;Percentage identity: 97&lt;br&gt;Percentage coverage: 100&lt;br&gt;BLAST bit score: 584&lt;br&gt;E-value: 9.8e-165" locus_tag="BLQ41_RS15885" class="clusterblast-orf" id="dummy-4_h4_3_3"  />
</g>
<g id="a4_004"  >
<polygon points="158,85 163,80 198,80 198,90 163,90 158,85 " style="fill:#7715d8; stroke-width:1; stroke:black; " description="&lt;b&gt;BLQ41_RS15880&lt;/b&gt;&lt;br&gt;iron-siderophore ABC transporter substrate-binding protein&lt;br&gt;Location: 3408986 - 3408072&lt;br&gt;&lt;br&gt;&lt;b&gt;BlastP hit with ctg3_2062&lt;/b&gt;&lt;br&gt;Percentage identity: 95&lt;br&gt;Percentage coverage: 100&lt;br&gt;BLAST bit score: 543&lt;br&gt;E-value: 1.7e-152" locus_tag="BLQ41_RS15880" class="clusterblast-orf" id="dummy-4_h4_3_4"  />
</g>
<g id="a4_005"  >
<polygon points="197,85 202,80 278,80 278,90 202,90 197,85 " style="fill:#d87715; stroke-width:1; stroke:black; " description="&lt;b&gt;BLQ41_RS15875&lt;/b&gt;&lt;br&gt;AcsA protein&lt;br&gt;Location: 3408082 - 3406253&lt;br&gt;&lt;br&gt;&lt;b&gt;BlastP hit with ctg3_2063&lt;/b&gt;&lt;br&gt;Percentage identity: 94&lt;br&gt;Percentage coverage: 100&lt;br&gt;BLAST bit score: 1200&lt;br&gt;E-value: 0.0" locus_tag="BLQ41_RS15875" class="clusterblast-orf" id="dummy-4_h4_3_5"  />
</g>
<g id="a4_006"  >
<polygon points="278,85 283,80 312,80 312,90 283,90 278,85 " style="fill:#15d815; stroke-width:1; stroke:black; " description="&lt;b&gt;BLQ41_RS15870&lt;/b&gt;&lt;br&gt;siderophore biosynthesis protein SbnG&lt;br&gt;Location: 3406248 - 3405472&lt;br&gt;&lt;br&gt;&lt;b&gt;BlastP hit with ctg3_2064&lt;/b&gt;&lt;br&gt;Percentage identity: 93&lt;br&gt;Percentage coverage: 100&lt;br&gt;BLAST bit score: 468&lt;br&gt;E-value: 4.7e-130" locus_tag="BLQ41_RS15870" class="clusterblast-orf" id="dummy-4_h4_3_6"  />
</g>
<g id="a4_007"  >
<polygon points="312,85 317,80 393,80 393,90 317,90 312,85 " style="fill:#1577d8; stroke-width:1; stroke:black; " description="&lt;b&gt;BLQ41_RS15865&lt;/b&gt;&lt;br&gt;AcsC protein&lt;br&gt;Location: 3405481 - 3403628&lt;br&gt;&lt;br&gt;&lt;b&gt;BlastP hit with ctg3_2065&lt;/b&gt;&lt;br&gt;Percentage identity: 95&lt;br&gt;Percentage coverage: 100&lt;br&gt;BLAST bit score: 1207&lt;br&gt;E-value: 0.0" locus_tag="BLQ41_RS15865" class="clusterblast-orf" id="dummy-4_h4_3_7"  />
</g>
<g id="a4_008"  >
<polygon points="394,85 399,80 457,80 457,90 399,90 394,85 " style="fill:#d815d8; stroke-width:1; stroke:black; " description="&lt;b&gt;BLQ41_RS15860&lt;/b&gt;&lt;br&gt;MFS transporter&lt;br&gt;Location: 3403603 - 3402188&lt;br&gt;&lt;br&gt;&lt;b&gt;BlastP hit with ctg3_2066&lt;/b&gt;&lt;br&gt;Percentage identity: 96&lt;br&gt;Percentage coverage: 100&lt;br&gt;BLAST bit score: 857&lt;br&gt;E-value: 8.7e-247" locus_tag="BLQ41_RS15860" class="clusterblast-orf" id="dummy-4_h4_3_8"  />
</g>
<g id="a4_009"  >
<polygon points="457,85 462,80 510,80 510,90 462,90 457,85 " style="fill:#d8d815; stroke-width:1; stroke:black; " description="&lt;b&gt;BLQ41_RS15855&lt;/b&gt;&lt;br&gt;type III PLP-dependent enzyme&lt;br&gt;Location: 3402191 - 3400980&lt;br&gt;&lt;br&gt;&lt;b&gt;BlastP hit with ctg3_2067&lt;/b&gt;&lt;br&gt;Percentage identity: 96&lt;br&gt;Percentage coverage: 100&lt;br&gt;BLAST bit score: 806&lt;br&gt;E-value: 1.5e-231" locus_tag="BLQ41_RS15855" class="clusterblast-orf" id="dummy-4_h4_3_9"  />
</g>
<g id="a4_0010"  >
<polygon points="509,85 514,80 588,80 588,90 514,90 509,85 " style="fill:#15d877; stroke-width:1; stroke:black; " description="&lt;b&gt;BLQ41_RS15850&lt;/b&gt;&lt;br&gt;AcsD protein&lt;br&gt;Location: 3400987 - 3399206&lt;br&gt;&lt;br&gt;&lt;b&gt;BlastP hit with ctg3_2068&lt;/b&gt;&lt;br&gt;Percentage identity: 96&lt;br&gt;Percentage coverage: 100&lt;br&gt;BLAST bit score: 1179&lt;br&gt;E-value: 0.0" locus_tag="BLQ41_RS15850" class="clusterblast-orf" id="dummy-4_h4_3_10"  />
</g>
<g id="a4_0011"  >
<polygon points="597,85 602,80 657,80 657,90 602,90 597,85 " style="fill:#1515d8; stroke-width:1; stroke:black; " description="&lt;b&gt;BLQ41_RS15845&lt;/b&gt;&lt;br&gt;diaminobutyrate--2-oxoglutarate transaminase&lt;br&gt;Location: 3399005 - 3397629&lt;br&gt;&lt;br&gt;&lt;b&gt;BlastP hit with ctg3_2069&lt;/b&gt;&lt;br&gt;Percentage identity: 96&lt;br&gt;Percentage coverage: 100&lt;br&gt;BLAST bit score: 896&lt;br&gt;E-value: 9.5e-259" locus_tag="BLQ41_RS15845" class="clusterblast-orf" id="dummy-4_h4_3_11"  />
</g>
<g id="a4_0012"  >
<polygon points="673,85 678,80 780,80 780,90 678,90 673,85 " style="fill:#d81577; stroke-width:1; stroke:black; " description="&lt;b&gt;BLQ41_RS15840&lt;/b&gt;&lt;br&gt;TonB-dependent receptor&lt;br&gt;Location: 3397270 - 3394847&lt;br&gt;&lt;br&gt;&lt;b&gt;BlastP hit with ctg3_2070&lt;/b&gt;&lt;br&gt;Percentage identity: 95&lt;br&gt;Percentage coverage: 100&lt;br&gt;BLAST bit score: 1543&lt;br&gt;E-value: 0.0" locus_tag="BLQ41_RS15840" class="clusterblast-orf" id="dummy-4_h4_3_12"  />
</g>
</svg>
