<svg xmlns="http://www.w3.org/2000/svg" xmlns:xlink="http://www.w3.org/1999/xlink" version="1.1" x="0" y="0" height="230" width="800" viewBox="0 0 800 230" preserveAspectRatio="none"  >
<g label="Query sequence" class="clusterblast-cluster"  >
<text x="5" y="20" class="clusterblast-acc"  >
Query sequence</text>
<line x1="10" y1="35" x2="778.0" y2="35" style="stroke-width:1; stroke:grey; "  />
<polygon points="0,40 22,40 27,35 22,30 0,30 0,40 " style="fill:#d81515; stroke-width:1; stroke:black; " description="&lt;b&gt;ctg4_256&lt;/b&gt;&lt;br&gt;ctg4 256&lt;br&gt;Location: 315122 - 316586" locus_tag="ctg4_256" class="clusterblast-orf" id="dummy-1_q0_0_all"  />
<polygon points="27,35 31,30 31,40 27,35 " style="fill:#6fd815; stroke-width:1; stroke:black; " description="&lt;b&gt;ctg4_257&lt;/b&gt;&lt;br&gt;ctg4 257&lt;br&gt;Location: 316588 - 316825" locus_tag="ctg4_257" class="clusterblast-orf" id="dummy-1_q1_0_all"  />
<polygon points="35,40 38,40 43,35 38,30 35,30 35,40 " style="fill:#15c9d8; stroke-width:1; stroke:black; " description="&lt;b&gt;ctg4_258&lt;/b&gt;&lt;br&gt;ctg4 258&lt;br&gt;Location: 317041 - 317476" locus_tag="ctg4_258" class="clusterblast-orf" id="dummy-1_q2_0_all"  />
<polygon points="46,35 51,30 60,30 60,40 51,40 46,35 " style="fill:#8d15d8; stroke-width:1; stroke:black; " description="&lt;b&gt;ctg4_259&lt;/b&gt;&lt;br&gt;ctg4 259&lt;br&gt;Location: 317609 - 318380" locus_tag="ctg4_259" class="clusterblast-orf" id="dummy-1_q3_0_all"  />
<polygon points="67,40 75,40 80,35 75,30 67,30 67,40 " style="fill:#d83315; stroke-width:1; stroke:black; " description="&lt;b&gt;ctg4_260&lt;/b&gt;&lt;br&gt;ctg4 260&lt;br&gt;Location: 318743 - 319463" locus_tag="ctg4_260" class="clusterblast-orf" id="dummy-1_q4_0_all"  />
<polygon points="80,40 90,40 95,35 90,30 80,30 80,40 " style="fill:#51d815; stroke-width:1; stroke:black; " description="&lt;b&gt;ctg4_261&lt;/b&gt;&lt;br&gt;ctg4 261&lt;br&gt;Location: 319438 - 320248" locus_tag="ctg4_261" class="clusterblast-orf" id="dummy-1_q5_0_all"  />
<polygon points="95,40 99,35 95,30 95,40 " style="fill:#15abd8; stroke-width:1; stroke:black; " description="&lt;b&gt;ctg4_262&lt;/b&gt;&lt;br&gt;ctg4 262&lt;br&gt;Location: 320228 - 320489" locus_tag="ctg4_262" class="clusterblast-orf" id="dummy-1_q6_0_all"  />
<polygon points="100,40 104,35 100,30 100,40 " style="fill:#ab15d8; stroke-width:1; stroke:black; " description="&lt;b&gt;ctg4_263&lt;/b&gt;&lt;br&gt;ctg4 263&lt;br&gt;Location: 320498 - 320753" locus_tag="ctg4_263" class="clusterblast-orf" id="dummy-1_q7_0_all"  />
<polygon points="104,40 109,40 114,35 109,30 104,30 104,40 " style="fill:#d85115; stroke-width:1; stroke:black; " description="&lt;b&gt;ctg4_264&lt;/b&gt;&lt;br&gt;ctg4 264&lt;br&gt;Location: 320749 - 321295" locus_tag="ctg4_264" class="clusterblast-orf" id="dummy-1_q8_0_all"  />
<polygon points="114,40 141,40 146,35 141,30 114,30 114,40 " style="fill:#33d815; stroke-width:1; stroke:black; " description="&lt;b&gt;ctg4_265&lt;/b&gt;&lt;br&gt;ctg4 265&lt;br&gt;Location: 321291 - 322971" locus_tag="ctg4_265" class="clusterblast-orf" id="dummy-1_q9_0_all"  />
<polygon points="147,40 157,40 162,35 157,30 147,30 147,40 " style="fill:#158dd8; stroke-width:1; stroke:black; " description="&lt;b&gt;ctg4_266&lt;/b&gt;&lt;br&gt;ctg4 266&lt;br&gt;Location: 323060 - 323870" locus_tag="ctg4_266" class="clusterblast-orf" id="dummy-1_q10_0_all"  />
<polygon points="162,40 175,40 180,35 175,30 162,30 162,40 " style="fill:#c915d8; stroke-width:1; stroke:black; " description="&lt;b&gt;ctg4_267&lt;/b&gt;&lt;br&gt;ctg4 267&lt;br&gt;Location: 323866 - 324814" locus_tag="ctg4_267" class="clusterblast-orf" id="dummy-1_q11_0_all"  />
<polygon points="179,40 203,40 208,35 203,30 179,30 179,40 " style="fill:#d86f15; stroke-width:1; stroke:black; " description="&lt;b&gt;ctg4_268&lt;/b&gt;&lt;br&gt;ctg4 268&lt;br&gt;Location: 324794 - 326339" locus_tag="ctg4_268" class="clusterblast-orf" id="dummy-1_q12_0_all"  />
<polygon points="208,40 211,40 216,35 211,30 208,30 208,40 " style="fill:#15d815; stroke-width:1; stroke:black; " description="&lt;b&gt;ctg4_269&lt;/b&gt;&lt;br&gt;ctg4 269&lt;br&gt;Location: 326331 - 326757" locus_tag="ctg4_269" class="clusterblast-orf" id="dummy-1_q13_0_all"  />
<polygon points="216,40 224,40 229,35 224,30 216,30 216,40 " style="fill:#156fd8; stroke-width:1; stroke:black; " description="&lt;b&gt;ctg4_270&lt;/b&gt;&lt;br&gt;ctg4 270&lt;br&gt;Location: 326753 - 327488" locus_tag="ctg4_270" class="clusterblast-orf" id="dummy-1_q14_0_all"  />
<polygon points="229,40 268,40 273,35 268,30 229,30 229,40 " style="fill:#d815c9; stroke-width:1; stroke:black; " description="&lt;b&gt;ctg4_271&lt;/b&gt;&lt;br&gt;ctg4 271&lt;br&gt;Location: 327471 - 329814" locus_tag="ctg4_271" class="clusterblast-orf" id="dummy-1_q15_0_all"  />
<polygon points="273,40 289,40 294,35 289,30 273,30 273,40 " style="fill:#d88d15; stroke-width:1; stroke:black; " description="&lt;b&gt;ctg4_272&lt;/b&gt;&lt;br&gt;ctg4 272&lt;br&gt;Location: 329810 - 330971" locus_tag="ctg4_272" class="clusterblast-orf" id="dummy-1_q16_0_all"  />
<polygon points="294,40 312,40 317,35 312,30 294,30 294,40 " style="fill:#15d833; stroke-width:1; stroke:black; " description="&lt;b&gt;ctg4_273&lt;/b&gt;&lt;br&gt;ctg4 273&lt;br&gt;Location: 330957 - 332205" locus_tag="ctg4_273" class="clusterblast-orf" id="dummy-1_q17_0_all"  />
<polygon points="317,40 325,40 330,35 325,30 317,30 317,40 " style="fill:#1551d8; stroke-width:1; stroke:black; " description="&lt;b&gt;ctg4_274&lt;/b&gt;&lt;br&gt;ctg4 274&lt;br&gt;Location: 332201 - 332927" locus_tag="ctg4_274" class="clusterblast-orf" id="dummy-1_q18_0_all"  />
<polygon points="330,40 337,40 342,35 337,30 330,30 330,40 " style="fill:#d815ab; stroke-width:1; stroke:black; " description="&lt;b&gt;ctg4_275&lt;/b&gt;&lt;br&gt;ctg4 275&lt;br&gt;Location: 332926 - 333547" locus_tag="ctg4_275" class="clusterblast-orf" id="dummy-1_q19_0_all"  />
<polygon points="342,40 359,40 364,35 359,30 342,30 342,40 " style="fill:#d8ab15; stroke-width:1; stroke:black; " description="&lt;b&gt;ctg4_276&lt;/b&gt;&lt;br&gt;ctg4 276&lt;br&gt;Location: 333543 - 334740" locus_tag="ctg4_276" class="clusterblast-orf" id="dummy-1_q20_0_all"  />
<polygon points="364,40 368,40 373,35 368,30 364,30 364,40 " style="fill:#15d851; stroke-width:1; stroke:black; " description="&lt;b&gt;ctg4_277&lt;/b&gt;&lt;br&gt;ctg4 277&lt;br&gt;Location: 334736 - 335195" locus_tag="ctg4_277" class="clusterblast-orf" id="dummy-1_q21_0_all"  />
<polygon points="373,40 381,40 386,35 381,30 373,30 373,40 " style="fill:#1533d8; stroke-width:1; stroke:black; " description="&lt;b&gt;ctg4_278&lt;/b&gt;&lt;br&gt;ctg4 278&lt;br&gt;Location: 335194 - 335923" locus_tag="ctg4_278" class="clusterblast-orf" id="dummy-1_q22_0_all"  />
<polygon points="386,40 404,40 409,35 404,30 386,30 386,40 " style="fill:#d8ab15; stroke-width:1; stroke:black; " description="&lt;b&gt;ctg4_279&lt;/b&gt;&lt;br&gt;ctg4 279&lt;br&gt;Location: 335922 - 337149" locus_tag="ctg4_279" class="clusterblast-orf" id="dummy-1_q23_0_all"  />
<polygon points="409,40 413,40 418,35 413,30 409,30 409,40 " style="fill:#d8158d; stroke-width:1; stroke:black; " description="&lt;b&gt;ctg4_280&lt;/b&gt;&lt;br&gt;ctg4 280&lt;br&gt;Location: 337178 - 337625" locus_tag="ctg4_280" class="clusterblast-orf" id="dummy-1_q24_0_all"  />
<polygon points="423,35 428,30 440,30 440,40 428,40 423,35 " style="fill:#d8c915; stroke-width:1; stroke:black; " description="&lt;b&gt;ctg4_281&lt;/b&gt;&lt;br&gt;ctg4 281&lt;br&gt;Location: 337929 - 338808" locus_tag="ctg4_281" class="clusterblast-orf" id="dummy-1_q25_0_all"  />
<polygon points="440,35 445,30 451,30 451,40 445,40 440,35 " style="fill:#15d86f; stroke-width:1; stroke:black; " description="&lt;b&gt;ctg4_282&lt;/b&gt;&lt;br&gt;ctg4 282&lt;br&gt;Location: 338800 - 339397" locus_tag="ctg4_282" class="clusterblast-orf" id="dummy-1_q26_0_all"  />
<polygon points="459,40 461,40 466,35 461,30 459,30 459,40 " style="fill:#1515d8; stroke-width:1; stroke:black; " description="&lt;b&gt;ctg4_283&lt;/b&gt;&lt;br&gt;ctg4 283&lt;br&gt;Location: 339852 - 340236" locus_tag="ctg4_283" class="clusterblast-orf" id="dummy-1_q27_0_all"  />
<polygon points="467,40 467,40 472,35 467,30 467,30 467,40 " style="fill:#d8156f; stroke-width:1; stroke:black; " description="&lt;b&gt;ctg4_284&lt;/b&gt;&lt;br&gt;ctg4 284&lt;br&gt;Location: 340273 - 340528" locus_tag="ctg4_284" class="clusterblast-orf" id="dummy-1_q28_0_all"  />
<polygon points="475,35 479,30 479,40 475,35 " style="fill:#c9d815; stroke-width:1; stroke:black; " description="&lt;b&gt;ctg4_285&lt;/b&gt;&lt;br&gt;ctg4 285&lt;br&gt;Location: 340717 - 340909" locus_tag="ctg4_285" class="clusterblast-orf" id="dummy-1_q29_0_all"  />
<polygon points="482,35 487,30 498,30 498,40 487,40 482,35 " style="fill:#15d88d; stroke-width:1; stroke:black; " description="&lt;b&gt;ctg4_286&lt;/b&gt;&lt;br&gt;ctg4 286&lt;br&gt;Location: 341059 - 341962" locus_tag="ctg4_286" class="clusterblast-orf" id="dummy-1_q30_0_all"  />
<polygon points="500,40 519,40 524,35 519,30 500,30 500,40 " style="fill:#3315d8; stroke-width:1; stroke:black; " description="&lt;b&gt;ctg4_287&lt;/b&gt;&lt;br&gt;ctg4 287&lt;br&gt;Location: 342035 - 343355" locus_tag="ctg4_287" class="clusterblast-orf" id="dummy-1_q31_0_all"  />
<polygon points="528,35 533,30 547,30 547,40 533,40 528,35 " style="fill:#d81551; stroke-width:1; stroke:black; " description="&lt;b&gt;ctg4_288&lt;/b&gt;&lt;br&gt;ctg4 288&lt;br&gt;Location: 343531 - 344599" locus_tag="ctg4_288" class="clusterblast-orf" id="dummy-1_q32_0_all"  />
<polygon points="552,35 557,30 578,30 578,40 557,40 552,35 " style="fill:#abd815; stroke-width:1; stroke:black; " description="&lt;b&gt;ctg4_289&lt;/b&gt;&lt;br&gt;ctg4 289&lt;br&gt;Location: 344851 - 346270" locus_tag="ctg4_289" class="clusterblast-orf" id="dummy-1_q33_0_all"  />
<polygon points="579,35 584,30 662,30 662,40 584,40 579,35 " style="fill:#15d8ab; stroke-width:1; stroke:black; " description="&lt;b&gt;ctg4_290&lt;/b&gt;&lt;br&gt;ctg4 290&lt;br&gt;Location: 346303 - 350749" locus_tag="ctg4_290" class="clusterblast-orf" id="dummy-1_q34_0_all"  />
<polygon points="668,35 673,30 698,30 698,40 673,40 668,35 " style="fill:#5115d8; stroke-width:1; stroke:black; " description="&lt;b&gt;ctg4_291&lt;/b&gt;&lt;br&gt;ctg4 291&lt;br&gt;Location: 351099 - 352689" locus_tag="ctg4_291" class="clusterblast-orf" id="dummy-1_q35_0_all"  />
<polygon points="698,35 703,30 718,30 718,40 703,40 698,35 " style="fill:#d81533; stroke-width:1; stroke:black; " description="&lt;b&gt;ctg4_292&lt;/b&gt;&lt;br&gt;ctg4 292&lt;br&gt;Location: 352699 - 353800" locus_tag="ctg4_292" class="clusterblast-orf" id="dummy-1_q36_0_all"  />
<polygon points="721,35 726,30 730,30 730,40 726,40 721,35 " style="fill:#8dd815; stroke-width:1; stroke:black; " description="&lt;b&gt;ctg4_293&lt;/b&gt;&lt;br&gt;ctg4 293&lt;br&gt;Location: 353951 - 354443" locus_tag="ctg4_293" class="clusterblast-orf" id="dummy-1_q37_0_all"  />
<polygon points="731,35 736,30 770,30 770,40 736,40 731,35 " style="fill:#15d8c9; stroke-width:1; stroke:black; " description="&lt;b&gt;ctg4_294&lt;/b&gt;&lt;br&gt;ctg4 294&lt;br&gt;Location: 354474 - 356562" locus_tag="ctg4_294" class="clusterblast-orf" id="dummy-1_q38_0_all"  />
<polygon points="770,35 775,30 780,30 780,40 775,40 770,35 " style="fill:#6f15d8; stroke-width:1; stroke:black; " description="&lt;b&gt;ctg4_295&lt;/b&gt;&lt;br&gt;ctg4 295&lt;br&gt;Location: 356575 - 357103" locus_tag="ctg4_295" class="clusterblast-orf" id="dummy-1_q39_0_all"  />
</g>
<g label="NZ_JHVR01000007" description="NZ_JHVR01000007_c1: Pseudomonas sp. URHB0015 N526DRAFT scaffold00005.5 C, who... (85% of genes show similarity), arylpolyene" class="clusterblast-cluster"  >
<text x="5" y="70" class="clusterblast-acc"  >
<a xlink:href="https://antismash-db.secondarymetabolites.org/go/NZ_JHVR01000007/1" target="_blank">NZ_JHVR01000007_c1</a>: Pseudomonas sp. URHB0015 N526DRAFT scaffold00005.5 C, who... (85% of genes show similarity), arylpolyene</text>
<line x1="10" y1="85" x2="778.0" y2="85" style="stroke-width:1; stroke:grey; "  />
</g>
<g id="a1_000"  >
<polygon points="7,90 29,90 34,85 29,80 7,80 7,90 " style="fill:#d81515; stroke-width:1; stroke:black; " description="&lt;b&gt;N526_RS0108060&lt;/b&gt;&lt;br&gt;YdiU family protein&lt;br&gt;Location: 290203 - 288740&lt;br&gt;&lt;br&gt;&lt;b&gt;BlastP hit with ctg4_256&lt;/b&gt;&lt;br&gt;Percentage identity: 90&lt;br&gt;Percentage coverage: 100&lt;br&gt;BLAST bit score: 908&lt;br&gt;E-value: 4.4e-262" locus_tag="N526_RS0108060" class="clusterblast-orf" id="dummy-1_h1_6_0"  />
</g>
<g id="a1_001"  >
<polygon points="35,85 40,80 42,80 42,90 40,90 35,85 " style="fill:#6fd815; stroke-width:1; stroke:black; " description="&lt;b&gt;N526_RS0108055&lt;/b&gt;&lt;br&gt;transcriptional regulator&lt;br&gt;Location: 288733 - 288332&lt;br&gt;&lt;br&gt;&lt;b&gt;BlastP hit with ctg4_257&lt;/b&gt;&lt;br&gt;Percentage identity: 44&lt;br&gt;Percentage coverage: 91&lt;br&gt;BLAST bit score: 64&lt;br&gt;E-value: 8.1e-09" locus_tag="N526_RS0108055" class="clusterblast-orf" id="dummy-1_h1_6_1"  />
</g>
<g id="a1_002"  >
<polygon points="42,85 47,80 47,80 47,90 47,90 42,85 " style="fill:white; stroke-width:1; stroke:black; " description="&lt;b&gt;N526_RS0108050&lt;/b&gt;&lt;br&gt;type II toxin-antitoxin system HigB family toxin&lt;br&gt;Location: 288335 - 288039" locus_tag="N526_RS0108050" class="clusterblast-orf" id="dummy-1_h1_6_2"  />
</g>
<g id="a1_003"  >
<polygon points="51,90 54,90 59,85 54,80 51,80 51,90 " style="fill:#15c9d8; stroke-width:1; stroke:black; " description="&lt;b&gt;N526_RS0108045&lt;/b&gt;&lt;br&gt;thioredoxin TrxC&lt;br&gt;Location: 287842 - 287408&lt;br&gt;&lt;br&gt;&lt;b&gt;BlastP hit with ctg4_258&lt;/b&gt;&lt;br&gt;Percentage identity: 88&lt;br&gt;Percentage coverage: 100&lt;br&gt;BLAST bit score: 277&lt;br&gt;E-value: 8.6e-73" locus_tag="N526_RS0108045" class="clusterblast-orf" id="dummy-1_h1_6_3"  />
</g>
<g id="a1_004"  >
<polygon points="59,85 64,80 74,80 74,90 64,90 59,85 " style="fill:#8d15d8; stroke-width:1; stroke:black; " description="&lt;b&gt;N526_RS0108040&lt;/b&gt;&lt;br&gt;ParA family protein&lt;br&gt;Location: 287393 - 286623&lt;br&gt;&lt;br&gt;&lt;b&gt;BlastP hit with ctg4_259&lt;/b&gt;&lt;br&gt;Percentage identity: 96&lt;br&gt;Percentage coverage: 100&lt;br&gt;BLAST bit score: 489&lt;br&gt;E-value: 2.6e-136" locus_tag="N526_RS0108040" class="clusterblast-orf" id="dummy-1_h1_6_4"  />
</g>
<g id="a1_005"  >
<polygon points="79,90 89,90 94,85 89,80 79,80 79,90 " style="fill:#d83315; stroke-width:1; stroke:black; " description="&lt;b&gt;N526_RS0108035&lt;/b&gt;&lt;br&gt;3-oxoacyl-ACP synthase&lt;br&gt;Location: 286362 - 285547&lt;br&gt;&lt;br&gt;&lt;b&gt;BlastP hit with ctg4_260&lt;/b&gt;&lt;br&gt;Percentage identity: 89&lt;br&gt;Percentage coverage: 100&lt;br&gt;BLAST bit score: 451&lt;br&gt;E-value: 4.2e-125" locus_tag="N526_RS0108035" class="clusterblast-orf" id="dummy-1_h1_6_5"  />
</g>
<g id="a1_006"  >
<polygon points="93,90 103,90 108,85 103,80 93,80 93,90 " style="fill:#51d815; stroke-width:1; stroke:black; " description="&lt;b&gt;N526_RS0108030&lt;/b&gt;&lt;br&gt;1-acyl-sn-glycerol-3-phosphate acyltransferase&lt;br&gt;Location: 285571 - 284762&lt;br&gt;&lt;br&gt;&lt;b&gt;BlastP hit with ctg4_261&lt;/b&gt;&lt;br&gt;Percentage identity: 86&lt;br&gt;Percentage coverage: 100&lt;br&gt;BLAST bit score: 482&lt;br&gt;E-value: 4.3e-134" locus_tag="N526_RS0108030" class="clusterblast-orf" id="dummy-1_h1_6_6"  />
</g>
<g id="a1_007"  >
<polygon points="108,90 108,90 113,85 108,80 108,80 108,90 " style="fill:#15abd8; stroke-width:1; stroke:black; " description="&lt;b&gt;N526_RS0108025&lt;/b&gt;&lt;br&gt;acyl carrier protein&lt;br&gt;Location: 284781 - 284521&lt;br&gt;&lt;br&gt;&lt;b&gt;BlastP hit with ctg4_262&lt;/b&gt;&lt;br&gt;Percentage identity: 85&lt;br&gt;Percentage coverage: 100&lt;br&gt;BLAST bit score: 144&lt;br&gt;E-value: 5.2e-33" locus_tag="N526_RS0108025" class="clusterblast-orf" id="dummy-1_h1_6_7"  />
</g>
<g id="a1_008"  >
<polygon points="113,90 113,90 118,85 113,80 113,80 113,90 " style="fill:#ab15d8; stroke-width:1; stroke:black; " description="&lt;b&gt;N526_RS0108020&lt;/b&gt;&lt;br&gt;acyl carrier protein&lt;br&gt;Location: 284511 - 284257&lt;br&gt;&lt;br&gt;&lt;b&gt;BlastP hit with ctg4_263&lt;/b&gt;&lt;br&gt;Percentage identity: 98&lt;br&gt;Percentage coverage: 100&lt;br&gt;BLAST bit score: 157&lt;br&gt;E-value: 7.6e-37" locus_tag="N526_RS0108020" class="clusterblast-orf" id="dummy-1_h1_6_8"  />
</g>
<g id="a1_009"  >
<polygon points="118,90 123,90 128,85 123,80 118,80 118,90 " style="fill:#d85115; stroke-width:1; stroke:black; " description="&lt;b&gt;N526_RS0108015&lt;/b&gt;&lt;br&gt;membrane protein&lt;br&gt;Location: 284260 - 283715&lt;br&gt;&lt;br&gt;&lt;b&gt;BlastP hit with ctg4_264&lt;/b&gt;&lt;br&gt;Percentage identity: 82&lt;br&gt;Percentage coverage: 100&lt;br&gt;BLAST bit score: 302&lt;br&gt;E-value: 2.4e-80" locus_tag="N526_RS0108015" class="clusterblast-orf" id="dummy-1_h1_6_9"  />
</g>
<g id="a1_0010"  >
<polygon points="128,90 154,90 159,85 154,80 128,80 128,90 " style="fill:#33d815; stroke-width:1; stroke:black; " description="&lt;b&gt;N526_RS0108010&lt;/b&gt;&lt;br&gt;AMP-binding protein&lt;br&gt;Location: 283718 - 282036&lt;br&gt;&lt;br&gt;&lt;b&gt;BlastP hit with ctg4_265&lt;/b&gt;&lt;br&gt;Percentage identity: 84&lt;br&gt;Percentage coverage: 99&lt;br&gt;BLAST bit score: 935&lt;br&gt;E-value: 3e-270" locus_tag="N526_RS0108010" class="clusterblast-orf" id="dummy-1_h1_6_10"  />
</g>
<g id="a1_0011"  >
<polygon points="159,90 167,90 172,85 167,80 159,80 159,90 " style="fill:#158dd8; stroke-width:1; stroke:black; " description="&lt;b&gt;N526_RS0108005&lt;/b&gt;&lt;br&gt;glycosyltransferase family 2 protein&lt;br&gt;Location: 282043 - 281309&lt;br&gt;&lt;br&gt;&lt;b&gt;BlastP hit with ctg4_266&lt;/b&gt;&lt;br&gt;Percentage identity: 84&lt;br&gt;Percentage coverage: 90&lt;br&gt;BLAST bit score: 420&lt;br&gt;E-value: 1.2e-115" locus_tag="N526_RS0108005" class="clusterblast-orf" id="dummy-1_h1_6_11"  />
</g>
<g id="a1_0012"  >
<polygon points="172,90 185,90 190,85 185,80 172,80 172,90 " style="fill:#c915d8; stroke-width:1; stroke:black; " description="&lt;b&gt;N526_RS0108000&lt;/b&gt;&lt;br&gt;glycosyl transferase&lt;br&gt;Location: 281312 - 280365&lt;br&gt;&lt;br&gt;&lt;b&gt;BlastP hit with ctg4_267&lt;/b&gt;&lt;br&gt;Percentage identity: 90&lt;br&gt;Percentage coverage: 100&lt;br&gt;BLAST bit score: 602&lt;br&gt;E-value: 2.6e-170" locus_tag="N526_RS0108000" class="clusterblast-orf" id="dummy-1_h1_6_12"  />
</g>
<g id="a1_0013"  >
<polygon points="190,90 213,90 218,85 213,80 190,80 190,90 " style="fill:#d86f15; stroke-width:1; stroke:black; " description="&lt;b&gt;N526_RS0107995&lt;/b&gt;&lt;br&gt;aromatic amino acid lyase&lt;br&gt;Location: 280384 - 278840&lt;br&gt;&lt;br&gt;&lt;b&gt;BlastP hit with ctg4_268&lt;/b&gt;&lt;br&gt;Percentage identity: 93&lt;br&gt;Percentage coverage: 100&lt;br&gt;BLAST bit score: 957&lt;br&gt;E-value: 5.1e-277" locus_tag="N526_RS0107995" class="clusterblast-orf" id="dummy-1_h1_6_13"  />
</g>
<g id="a1_0014"  >
<polygon points="218,90 221,90 226,85 221,80 218,80 218,90 " style="fill:#15d815; stroke-width:1; stroke:black; " description="&lt;b&gt;N526_RS0107990&lt;/b&gt;&lt;br&gt;acyl-CoA thioesterase&lt;br&gt;Location: 278847 - 278419&lt;br&gt;&lt;br&gt;&lt;b&gt;BlastP hit with ctg4_269&lt;/b&gt;&lt;br&gt;Percentage identity: 86&lt;br&gt;Percentage coverage: 99&lt;br&gt;BLAST bit score: 247&lt;br&gt;E-value: 9.4e-64" locus_tag="N526_RS0107990" class="clusterblast-orf" id="dummy-1_h1_6_14"  />
</g>
<g id="a1_0015"  >
<polygon points="226,90 233,90 238,85 233,80 226,80 226,90 " style="fill:#156fd8; stroke-width:1; stroke:black; " description="&lt;b&gt;N526_RS0107985&lt;/b&gt;&lt;br&gt;outer membrane lipoprotein carrier protein LolA&lt;br&gt;Location: 278425 - 277769&lt;br&gt;&lt;br&gt;&lt;b&gt;BlastP hit with ctg4_270&lt;/b&gt;&lt;br&gt;Percentage identity: 80&lt;br&gt;Percentage coverage: 78&lt;br&gt;BLAST bit score: 305&lt;br&gt;E-value: 3.8e-81" locus_tag="N526_RS0107985" class="clusterblast-orf" id="dummy-1_h1_6_15"  />
</g>
<g id="a1_0016"  >
<polygon points="238,90 276,90 281,85 276,80 238,80 238,90 " style="fill:#d815c9; stroke-width:1; stroke:black; " description="&lt;b&gt;N526_RS0107980&lt;/b&gt;&lt;br&gt;membrane protein&lt;br&gt;Location: 277785 - 275446&lt;br&gt;&lt;br&gt;&lt;b&gt;BlastP hit with ctg4_271&lt;/b&gt;&lt;br&gt;Percentage identity: 83&lt;br&gt;Percentage coverage: 100&lt;br&gt;BLAST bit score: 1228&lt;br&gt;E-value: 0.0" locus_tag="N526_RS0107980" class="clusterblast-orf" id="dummy-1_h1_6_16"  />
</g>
<g id="a1_0017"  >
<polygon points="281,90 298,90 303,85 298,80 281,80 281,90 " style="fill:#d88d15; stroke-width:1; stroke:black; " description="&lt;b&gt;N526_RS0107975&lt;/b&gt;&lt;br&gt;hypothetical protein&lt;br&gt;Location: 275449 - 274289&lt;br&gt;&lt;br&gt;&lt;b&gt;BlastP hit with ctg4_272&lt;/b&gt;&lt;br&gt;Percentage identity: 82&lt;br&gt;Percentage coverage: 99&lt;br&gt;BLAST bit score: 596&lt;br&gt;E-value: 1.7e-168" locus_tag="N526_RS0107975" class="clusterblast-orf" id="dummy-1_h1_6_17"  />
</g>
<g id="a1_0018"  >
<polygon points="303,90 321,90 326,85 321,80 303,80 303,90 " style="fill:#15d833; stroke-width:1; stroke:black; " description="&lt;b&gt;N526_RS0107970&lt;/b&gt;&lt;br&gt;NAD(P)/FAD-dependent oxidoreductase&lt;br&gt;Location: 274287 - 273055&lt;br&gt;&lt;br&gt;&lt;b&gt;BlastP hit with ctg4_273&lt;/b&gt;&lt;br&gt;Percentage identity: 86&lt;br&gt;Percentage coverage: 99&lt;br&gt;BLAST bit score: 733&lt;br&gt;E-value: 1.3e-209" locus_tag="N526_RS0107970" class="clusterblast-orf" id="dummy-1_h1_6_18"  />
</g>
<g id="a1_0019"  >
<polygon points="326,90 330,90 335,85 330,80 326,80 326,90 " style="fill:#d815ab; stroke-width:1; stroke:black; " description="&lt;b&gt;N526_RS0107965&lt;/b&gt;&lt;br&gt;hypothetical protein&lt;br&gt;Location: 273052 - 272570&lt;br&gt;&lt;br&gt;&lt;b&gt;BlastP hit with ctg4_275&lt;/b&gt;&lt;br&gt;Percentage identity: 77&lt;br&gt;Percentage coverage: 77&lt;br&gt;BLAST bit score: 258&lt;br&gt;E-value: 5.9e-67" locus_tag="N526_RS0107965" class="clusterblast-orf" id="dummy-1_h1_6_19"  />
</g>
<g id="a1_0020"  >
<polygon points="335,90 352,90 357,85 352,80 335,80 335,90 " style="fill:#d8ab15; stroke-width:1; stroke:black; " description="&lt;b&gt;N526_RS0107960&lt;/b&gt;&lt;br&gt;beta-ketoacyl-[acyl-carrier-protein] synthase II&lt;br&gt;Location: 272573 - 271380&lt;br&gt;&lt;br&gt;&lt;b&gt;BlastP hit with ctg4_276&lt;/b&gt;&lt;br&gt;Percentage identity: 80&lt;br&gt;Percentage coverage: 100&lt;br&gt;BLAST bit score: 622&lt;br&gt;E-value: 3e-176&lt;br&gt;&lt;br&gt;&lt;b&gt;BlastP hit with ctg4_279&lt;/b&gt;&lt;br&gt;Percentage identity: 36&lt;br&gt;Percentage coverage: 64&lt;br&gt;BLAST bit score: 138&lt;br&gt;E-value: 2.3e-30" locus_tag="N526_RS0107960" class="clusterblast-orf" id="dummy-1_h1_6_20"  />
</g>
<g id="a1_0021"  >
<polygon points="357,90 361,90 366,85 361,80 357,80 357,90 " style="fill:#15d851; stroke-width:1; stroke:black; " description="&lt;b&gt;N526_RS0107955&lt;/b&gt;&lt;br&gt;3-hydroxylacyl-ACP dehydratase&lt;br&gt;Location: 271383 - 270919&lt;br&gt;&lt;br&gt;&lt;b&gt;BlastP hit with ctg4_277&lt;/b&gt;&lt;br&gt;Percentage identity: 83&lt;br&gt;Percentage coverage: 95&lt;br&gt;BLAST bit score: 267&lt;br&gt;E-value: 9.4e-70" locus_tag="N526_RS0107955" class="clusterblast-orf" id="dummy-1_h1_6_21"  />
</g>
<g id="a1_0022"  >
<polygon points="365,90 374,90 379,85 374,80 365,80 365,90 " style="fill:#1533d8; stroke-width:1; stroke:black; " description="&lt;b&gt;N526_RS0107950&lt;/b&gt;&lt;br&gt;3-oxoacyl-ACP reductase FabG&lt;br&gt;Location: 270926 - 270198&lt;br&gt;&lt;br&gt;&lt;b&gt;BlastP hit with ctg4_278&lt;/b&gt;&lt;br&gt;Percentage identity: 95&lt;br&gt;Percentage coverage: 100&lt;br&gt;BLAST bit score: 451&lt;br&gt;E-value: 5.6e-125" locus_tag="N526_RS0107950" class="clusterblast-orf" id="dummy-1_h1_6_22"  />
</g>
<g id="a1_0023"  >
<polygon points="379,90 397,90 402,85 397,80 379,80 379,90 " style="fill:#d8ab15; stroke-width:1; stroke:black; " description="&lt;b&gt;N526_RS0107945&lt;/b&gt;&lt;br&gt;beta-ketoacyl-ACP synthase II&lt;br&gt;Location: 270198 - 268975&lt;br&gt;&lt;br&gt;&lt;b&gt;BlastP hit with ctg4_276&lt;/b&gt;&lt;br&gt;Percentage identity: 35&lt;br&gt;Percentage coverage: 79&lt;br&gt;BLAST bit score: 139&lt;br&gt;E-value: 1e-30&lt;br&gt;&lt;br&gt;&lt;b&gt;BlastP hit with ctg4_279&lt;/b&gt;&lt;br&gt;Percentage identity: 93&lt;br&gt;Percentage coverage: 100&lt;br&gt;BLAST bit score: 770&lt;br&gt;E-value: 1.2e-220" locus_tag="N526_RS0107945" class="clusterblast-orf" id="dummy-1_h1_6_23"  />
</g>
<g id="a1_0024"  >
<polygon points="404,90 412,90 417,85 412,80 404,80 404,90 " style="fill:white; stroke-width:1; stroke:black; " description="&lt;b&gt;N526_RS0107940&lt;/b&gt;&lt;br&gt;7-cyano-7-deazaguanine synthase QueC&lt;br&gt;Location: 268844 - 268146" locus_tag="N526_RS0107940" class="clusterblast-orf" id="dummy-1_h1_6_24"  />
</g>
<g id="a1_0025"  >
<polygon points="418,85 423,80 434,80 434,90 423,90 418,85 " style="fill:#d8c915; stroke-width:1; stroke:black; " description="&lt;b&gt;N526_RS0107935&lt;/b&gt;&lt;br&gt;membrane protein&lt;br&gt;Location: 268097 - 267225&lt;br&gt;&lt;br&gt;&lt;b&gt;BlastP hit with ctg4_281&lt;/b&gt;&lt;br&gt;Percentage identity: 70&lt;br&gt;Percentage coverage: 96&lt;br&gt;BLAST bit score: 377&lt;br&gt;E-value: 1.6e-102" locus_tag="N526_RS0107935" class="clusterblast-orf" id="dummy-1_h1_6_25"  />
</g>
<g id="a1_0026"  >
<polygon points="434,85 439,80 445,80 445,90 439,90 434,85 " style="fill:#15d86f; stroke-width:1; stroke:black; " description="&lt;b&gt;N526_RS0107930&lt;/b&gt;&lt;br&gt;XRE family transcriptional regulator&lt;br&gt;Location: 267235 - 266636&lt;br&gt;&lt;br&gt;&lt;b&gt;BlastP hit with ctg4_282&lt;/b&gt;&lt;br&gt;Percentage identity: 65&lt;br&gt;Percentage coverage: 100&lt;br&gt;BLAST bit score: 251&lt;br&gt;E-value: 9.1e-65" locus_tag="N526_RS0107930" class="clusterblast-orf" id="dummy-1_h1_6_26"  />
</g>
<g id="a1_0027"  >
<polygon points="453,90 455,90 460,85 455,80 453,80 453,90 " style="fill:#1515d8; stroke-width:1; stroke:black; " description="&lt;b&gt;N526_RS0107925&lt;/b&gt;&lt;br&gt;hypothetical protein&lt;br&gt;Location: 266204 - 265845&lt;br&gt;&lt;br&gt;&lt;b&gt;BlastP hit with ctg4_283&lt;/b&gt;&lt;br&gt;Percentage identity: 63&lt;br&gt;Percentage coverage: 92&lt;br&gt;BLAST bit score: 134&lt;br&gt;E-value: 1e-29" locus_tag="N526_RS0107925" class="clusterblast-orf" id="dummy-1_h1_6_27"  />
</g>
<g id="a1_0028"  >
<polygon points="460,85 465,80 477,80 477,90 465,90 460,85 " style="fill:#15d88d; stroke-width:1; stroke:black; " description="&lt;b&gt;N526_RS0107920&lt;/b&gt;&lt;br&gt;LysR family transcriptional regulator&lt;br&gt;Location: 265834 - 264947&lt;br&gt;&lt;br&gt;&lt;b&gt;BlastP hit with ctg4_286&lt;/b&gt;&lt;br&gt;Percentage identity: 94&lt;br&gt;Percentage coverage: 98&lt;br&gt;BLAST bit score: 521&lt;br&gt;E-value: 7.1e-146" locus_tag="N526_RS0107920" class="clusterblast-orf" id="dummy-1_h1_6_28"  />
</g>
<g id="a1_0029"  >
<polygon points="479,90 497,90 502,85 497,80 479,80 479,90 " style="fill:#3315d8; stroke-width:1; stroke:black; " description="&lt;b&gt;N526_RS0107915&lt;/b&gt;&lt;br&gt;MFS transporter&lt;br&gt;Location: 264828 - 263551&lt;br&gt;&lt;br&gt;&lt;b&gt;BlastP hit with ctg4_287&lt;/b&gt;&lt;br&gt;Percentage identity: 89&lt;br&gt;Percentage coverage: 95&lt;br&gt;BLAST bit score: 719&lt;br&gt;E-value: 2e-205" locus_tag="N526_RS0107915" class="clusterblast-orf" id="dummy-1_h1_6_29"  />
</g>
<g id="a1_0030"  >
<polygon points="503,85 508,80 510,80 510,90 508,90 503,85 " style="fill:white; stroke-width:1; stroke:black; " description="&lt;b&gt;N526_RS0107910&lt;/b&gt;&lt;br&gt;stress-induced protein YgiW&lt;br&gt;Location: 263506 - 263159" locus_tag="N526_RS0107910" class="clusterblast-orf" id="dummy-1_h1_6_30"  />
</g>
<g id="a1_0031"  >
<polygon points="512,85 517,80 532,80 532,90 517,90 512,85 " style="fill:#d81551; stroke-width:1; stroke:black; " description="&lt;b&gt;N526_RS0107905&lt;/b&gt;&lt;br&gt;uroporphyrinogen decarboxylase&lt;br&gt;Location: 263040 - 261973&lt;br&gt;&lt;br&gt;&lt;b&gt;BlastP hit with ctg4_288&lt;/b&gt;&lt;br&gt;Percentage identity: 97&lt;br&gt;Percentage coverage: 100&lt;br&gt;BLAST bit score: 708&lt;br&gt;E-value: 3.7e-202" locus_tag="N526_RS0107905" class="clusterblast-orf" id="dummy-1_h1_6_31"  />
</g>
<g id="a1_0032"  >
<polygon points="536,85 541,80 563,80 563,90 541,90 536,85 " style="fill:#abd815; stroke-width:1; stroke:black; " description="&lt;b&gt;N526_RS0107900&lt;/b&gt;&lt;br&gt;glutamate synthase&lt;br&gt;Location: 261720 - 260302&lt;br&gt;&lt;br&gt;&lt;b&gt;BlastP hit with ctg4_289&lt;/b&gt;&lt;br&gt;Percentage identity: 98&lt;br&gt;Percentage coverage: 100&lt;br&gt;BLAST bit score: 954&lt;br&gt;E-value: 5.2e-276" locus_tag="N526_RS0107900" class="clusterblast-orf" id="dummy-1_h1_6_32"  />
</g>
<g id="a1_0033"  >
<polygon points="563,85 568,80 646,80 646,90 568,90 563,85 " style="fill:#15d8ab; stroke-width:1; stroke:black; " description="&lt;b&gt;N526_RS0107895&lt;/b&gt;&lt;br&gt;glutamate synthase large subunit&lt;br&gt;Location: 260268 - 255823&lt;br&gt;&lt;br&gt;&lt;b&gt;BlastP hit with ctg4_290&lt;/b&gt;&lt;br&gt;Percentage identity: 97&lt;br&gt;Percentage coverage: 100&lt;br&gt;BLAST bit score: 2794&lt;br&gt;E-value: 0.0" locus_tag="N526_RS0107895" class="clusterblast-orf" id="dummy-1_h1_6_33"  />
</g>
<g id="a1_0034"  >
<polygon points="644,90 646,90 651,85 646,80 644,80 644,90 " style="fill:white; stroke-width:1; stroke:black; " description="&lt;b&gt;N526_RS29980&lt;/b&gt;&lt;br&gt;hypothetical protein&lt;br&gt;Location: 255909 - 255570" locus_tag="N526_RS29980" class="clusterblast-orf" id="dummy-1_h1_6_34"  />
</g>
<g id="a1_0035"  >
<polygon points="653,85 658,80 682,80 682,90 658,90 653,85 " style="fill:#5115d8; stroke-width:1; stroke:black; " description="&lt;b&gt;N526_RS0107890&lt;/b&gt;&lt;br&gt;cell division protein&lt;br&gt;Location: 255474 - 253885&lt;br&gt;&lt;br&gt;&lt;b&gt;BlastP hit with ctg4_291&lt;/b&gt;&lt;br&gt;Percentage identity: 88&lt;br&gt;Percentage coverage: 101&lt;br&gt;BLAST bit score: 749&lt;br&gt;E-value: 2.2e-214" locus_tag="N526_RS0107890" class="clusterblast-orf" id="dummy-1_h1_6_35"  />
</g>
<g id="a1_0036"  >
<polygon points="682,85 687,80 703,80 703,90 687,90 682,85 " style="fill:#d81533; stroke-width:1; stroke:black; " description="&lt;b&gt;N526_RS0107885&lt;/b&gt;&lt;br&gt;3-dehydroquinate synthase&lt;br&gt;Location: 253874 - 252774&lt;br&gt;&lt;br&gt;&lt;b&gt;BlastP hit with ctg4_292&lt;/b&gt;&lt;br&gt;Percentage identity: 94&lt;br&gt;Percentage coverage: 100&lt;br&gt;BLAST bit score: 694&lt;br&gt;E-value: 5.7e-198" locus_tag="N526_RS0107885" class="clusterblast-orf" id="dummy-1_h1_6_36"  />
</g>
<g id="a1_0037"  >
<polygon points="705,85 710,80 715,80 715,90 710,90 705,85 " style="fill:#8dd815; stroke-width:1; stroke:black; " description="&lt;b&gt;N526_RS0107880&lt;/b&gt;&lt;br&gt;shikimate kinase AroK&lt;br&gt;Location: 252625 - 252107&lt;br&gt;&lt;br&gt;&lt;b&gt;BlastP hit with ctg4_293&lt;/b&gt;&lt;br&gt;Percentage identity: 95&lt;br&gt;Percentage coverage: 100&lt;br&gt;BLAST bit score: 308&lt;br&gt;E-value: 5.2e-82" locus_tag="N526_RS0107880" class="clusterblast-orf" id="dummy-1_h1_6_37"  />
</g>
<g id="a1_0038"  >
<polygon points="715,85 720,80 740,80 740,90 720,90 715,85 " style="fill:#15d8c9; stroke-width:1; stroke:black; " description="&lt;b&gt;N526_RS28915&lt;/b&gt;&lt;br&gt;type IV pilus secretin PilQ&lt;br&gt;Location: 252102 - 250771&lt;br&gt;&lt;br&gt;&lt;b&gt;BlastP hit with ctg4_294&lt;/b&gt;&lt;br&gt;Percentage identity: 82&lt;br&gt;Percentage coverage: 60&lt;br&gt;BLAST bit score: 646&lt;br&gt;E-value: 2.6e-183" locus_tag="N526_RS28915" class="clusterblast-orf" id="dummy-1_h1_6_38"  />
</g>
<g id="a1_0039"  >
<polygon points="740,85 745,80 750,80 750,90 745,90 740,85 " style="fill:#6f15d8; stroke-width:1; stroke:black; " description="&lt;b&gt;N526_RS0107870&lt;/b&gt;&lt;br&gt;pilus assembly protein PilP&lt;br&gt;Location: 250757 - 250230&lt;br&gt;&lt;br&gt;&lt;b&gt;BlastP hit with ctg4_295&lt;/b&gt;&lt;br&gt;Percentage identity: 55&lt;br&gt;Percentage coverage: 100&lt;br&gt;BLAST bit score: 192&lt;br&gt;E-value: 4.4e-47" locus_tag="N526_RS0107870" class="clusterblast-orf" id="dummy-1_h1_6_39"  />
</g>
<g id="a1_0040"  >
<polygon points="750,85 755,80 761,80 761,90 755,90 750,85 " style="fill:white; stroke-width:1; stroke:black; " description="&lt;b&gt;N526_RS0107865&lt;/b&gt;&lt;br&gt;pilus assembly protein PilP&lt;br&gt;Location: 250233 - 249622" locus_tag="N526_RS0107865" class="clusterblast-orf" id="dummy-1_h1_6_40"  />
</g>
<g id="a1_0041"  >
<polygon points="761,85 766,80 772,80 772,90 766,90 761,85 " style="fill:white; stroke-width:1; stroke:black; " description="&lt;b&gt;N526_RS0107860&lt;/b&gt;&lt;br&gt;pilus assembly protein PilN&lt;br&gt;Location: 249625 - 249056" locus_tag="N526_RS0107860" class="clusterblast-orf" id="dummy-1_h1_6_41"  />
</g>
</svg>
