<svg xmlns="http://www.w3.org/2000/svg" xmlns:xlink="http://www.w3.org/1999/xlink" version="1.1" x="0" y="0" height="230" width="800" viewBox="0 0 800 230" preserveAspectRatio="none"  >
<g label="Query sequence" class="clusterblast-cluster"  >
<text x="5" y="20" class="clusterblast-acc"  >
Query sequence</text>
<line x1="10" y1="35" x2="778.0" y2="35" style="stroke-width:1; stroke:grey; "  />
<polygon points="67,40 314,40 319,35 314,30 67,30 67,40 " style="fill:#d81515; stroke-width:1; stroke:black; " description="&lt;b&gt;ctg4_577&lt;/b&gt;&lt;br&gt;ctg4 577&lt;br&gt;Location: 680926 - 689050" locus_tag="ctg4_577" class="clusterblast-orf" id="dummy-2_q0_0_all"  />
<polygon points="324,40 329,40 334,35 329,30 324,30 324,40 " style="fill:#3cd815; stroke-width:1; stroke:black; " description="&lt;b&gt;ctg4_578&lt;/b&gt;&lt;br&gt;ctg4 578&lt;br&gt;Location: 689198 - 689537" locus_tag="ctg4_578" class="clusterblast-orf" id="dummy-2_q1_0_all"  />
<polygon points="338,35 343,30 399,30 399,40 343,40 338,35 " style="fill:#1563d8; stroke-width:1; stroke:black; " description="&lt;b&gt;ctg4_579&lt;/b&gt;&lt;br&gt;ctg4 579&lt;br&gt;Location: 689672 - 691619" locus_tag="ctg4_579" class="clusterblast-orf" id="dummy-2_q2_0_all"  />
<polygon points="399,35 404,30 421,30 421,40 404,40 399,35 " style="fill:#b115d8; stroke-width:1; stroke:black; " description="&lt;b&gt;ctg4_580&lt;/b&gt;&lt;br&gt;ctg4 580&lt;br&gt;Location: 691633 - 692326" locus_tag="ctg4_580" class="clusterblast-orf" id="dummy-2_q3_0_all"  />
<polygon points="429,40 446,40 451,35 446,30 429,30 429,40 " style="fill:#d88a15; stroke-width:1; stroke:black; " description="&lt;b&gt;ctg4_581&lt;/b&gt;&lt;br&gt;ctg4 581&lt;br&gt;Location: 692593 - 693304" locus_tag="ctg4_581" class="clusterblast-orf" id="dummy-2_q4_0_all"  />
<polygon points="475,40 495,40 500,35 495,30 475,30 475,40 " style="fill:#15d863; stroke-width:1; stroke:black; " description="&lt;b&gt;ctg4_582&lt;/b&gt;&lt;br&gt;ctg4 582&lt;br&gt;Location: 694088 - 694865" locus_tag="ctg4_582" class="clusterblast-orf" id="dummy-2_q5_0_all"  />
<polygon points="499,40 523,40 528,35 523,30 499,30 499,40 " style="fill:#3c15d8; stroke-width:1; stroke:black; " description="&lt;b&gt;ctg4_583&lt;/b&gt;&lt;br&gt;ctg4 583&lt;br&gt;Location: 694861 - 695791" locus_tag="ctg4_583" class="clusterblast-orf" id="dummy-2_q6_0_all"  />
<polygon points="529,40 630,40 635,35 630,30 529,30 529,40 " style="fill:#d8158a; stroke-width:1; stroke:black; " description="&lt;b&gt;ctg4_584&lt;/b&gt;&lt;br&gt;ctg4 584&lt;br&gt;Location: 695804 - 699215" locus_tag="ctg4_584" class="clusterblast-orf" id="dummy-2_q7_0_all"  />
<polygon points="635,40 645,40 650,35 645,30 635,30 635,40 " style="fill:#b1d815; stroke-width:1; stroke:black; " description="&lt;b&gt;ctg4_585&lt;/b&gt;&lt;br&gt;ctg4 585&lt;br&gt;Location: 699237 - 699705" locus_tag="ctg4_585" class="clusterblast-orf" id="dummy-2_q8_0_all"  />
<polygon points="654,35 659,30 713,30 713,40 659,40 654,35 " style="fill:#15d8d8; stroke-width:1; stroke:black; " description="&lt;b&gt;ctg4_586&lt;/b&gt;&lt;br&gt;ctg4 586&lt;br&gt;Location: 699851 - 701732" locus_tag="ctg4_586" class="clusterblast-orf" id="dummy-2_q9_0_all"  />
</g>
<g label="NZ_JFYN01000026" description="NZ_JFYN01000026_c6: Pseudomonas sp. RIT288 contigs32, whole genome shotgun se... (71% of genes show similarity), other" class="clusterblast-cluster"  >
<text x="5" y="70" class="clusterblast-acc"  >
<a xlink:href="https://antismash-db.secondarymetabolites.org/go/NZ_JFYN01000026/6" target="_blank">NZ_JFYN01000026_c6</a>: Pseudomonas sp. RIT288 contigs32, whole genome shotgun se... (71% of genes show similarity), other</text>
<line x1="10" y1="85" x2="778.0" y2="85" style="stroke-width:1; stroke:grey; "  />
</g>
<g id="a2_000"  >
<polygon points="0,90 207,90 212,85 207,80 0,80 0,90 " style="fill:#d81515; stroke-width:1; stroke:black; " description="&lt;b&gt;BW33_RS18400&lt;/b&gt;&lt;br&gt;type I secretion protein&lt;br&gt;Location: 1656 - 8492&lt;br&gt;&lt;br&gt;&lt;b&gt;BlastP hit with ctg4_577&lt;/b&gt;&lt;br&gt;Percentage identity: 81&lt;br&gt;Percentage coverage: 84&lt;br&gt;BLAST bit score: 3169&lt;br&gt;E-value: 0.0" locus_tag="BW33_RS18400" class="clusterblast-orf" id="dummy-2_h2_3_0"  />
</g>
<g id="a2_001"  >
<polygon points="216,90 222,90 227,85 222,80 216,80 216,90 " style="fill:#3cd815; stroke-width:1; stroke:black; " description="&lt;b&gt;BW33_RS18405&lt;/b&gt;&lt;br&gt;hypothetical protein&lt;br&gt;Location: 8640 - 8978&lt;br&gt;&lt;br&gt;&lt;b&gt;BlastP hit with ctg4_578&lt;/b&gt;&lt;br&gt;Percentage identity: 88&lt;br&gt;Percentage coverage: 100&lt;br&gt;BLAST bit score: 192&lt;br&gt;E-value: 2.8e-47" locus_tag="BW33_RS18405" class="clusterblast-orf" id="dummy-2_h2_3_1"  />
</g>
<g id="a2_002"  >
<polygon points="233,85 238,80 293,80 293,90 238,90 233,85 " style="fill:#1563d8; stroke-width:1; stroke:black; " description="&lt;b&gt;BW33_RS18410&lt;/b&gt;&lt;br&gt;GGDEF-domain containing protein&lt;br&gt;Location: 9172 - 11118&lt;br&gt;&lt;br&gt;&lt;b&gt;BlastP hit with ctg4_579&lt;/b&gt;&lt;br&gt;Percentage identity: 94&lt;br&gt;Percentage coverage: 100&lt;br&gt;BLAST bit score: 1168&lt;br&gt;E-value: 0.0" locus_tag="BW33_RS18410" class="clusterblast-orf" id="dummy-2_h2_3_2"  />
</g>
<g id="a2_003"  >
<polygon points="294,85 299,80 315,80 315,90 299,90 294,85 " style="fill:#b115d8; stroke-width:1; stroke:black; " description="&lt;b&gt;BW33_RS18415&lt;/b&gt;&lt;br&gt;hypothetical protein&lt;br&gt;Location: 11133 - 11825&lt;br&gt;&lt;br&gt;&lt;b&gt;BlastP hit with ctg4_580&lt;/b&gt;&lt;br&gt;Percentage identity: 90&lt;br&gt;Percentage coverage: 100&lt;br&gt;BLAST bit score: 425&lt;br&gt;E-value: 4.1e-117" locus_tag="BW33_RS18415" class="clusterblast-orf" id="dummy-2_h2_3_3"  />
</g>
<g id="a2_004"  >
<polygon points="321,90 338,90 343,85 338,80 321,80 321,90 " style="fill:#d88a15; stroke-width:1; stroke:black; " description="&lt;b&gt;BW33_RS18420&lt;/b&gt;&lt;br&gt;GntR family transcriptional regulator&lt;br&gt;Location: 12023 - 12733&lt;br&gt;&lt;br&gt;&lt;b&gt;BlastP hit with ctg4_581&lt;/b&gt;&lt;br&gt;Percentage identity: 82&lt;br&gt;Percentage coverage: 100&lt;br&gt;BLAST bit score: 381&lt;br&gt;E-value: 6.9e-104" locus_tag="BW33_RS18420" class="clusterblast-orf" id="dummy-2_h2_3_4"  />
</g>
<g id="a2_005"  >
<polygon points="367,90 386,90 391,85 386,80 367,80 367,90 " style="fill:#15d863; stroke-width:1; stroke:black; " description="&lt;b&gt;BW33_RS18425&lt;/b&gt;&lt;br&gt;DUF3050 domain-containing protein&lt;br&gt;Location: 13503 - 14279&lt;br&gt;&lt;br&gt;&lt;b&gt;BlastP hit with ctg4_582&lt;/b&gt;&lt;br&gt;Percentage identity: 85&lt;br&gt;Percentage coverage: 100&lt;br&gt;BLAST bit score: 450&lt;br&gt;E-value: 1.7e-124" locus_tag="BW33_RS18425" class="clusterblast-orf" id="dummy-2_h2_3_5"  />
</g>
<g id="a2_006"  >
<polygon points="391,90 415,90 420,85 415,80 391,80 391,90 " style="fill:#3c15d8; stroke-width:1; stroke:black; " description="&lt;b&gt;BW33_RS18430&lt;/b&gt;&lt;br&gt;aminobenzoate oxygenase&lt;br&gt;Location: 14276 - 15205&lt;br&gt;&lt;br&gt;&lt;b&gt;BlastP hit with ctg4_583&lt;/b&gt;&lt;br&gt;Percentage identity: 90&lt;br&gt;Percentage coverage: 100&lt;br&gt;BLAST bit score: 560&lt;br&gt;E-value: 1.1e-157" locus_tag="BW33_RS18430" class="clusterblast-orf" id="dummy-2_h2_3_6"  />
</g>
<g id="a2_007"  >
<polygon points="420,90 521,90 526,85 521,80 420,80 420,90 " style="fill:#d8158a; stroke-width:1; stroke:black; " description="&lt;b&gt;BW33_RS18435&lt;/b&gt;&lt;br&gt;peptide transporter&lt;br&gt;Location: 15219 - 18611&lt;br&gt;&lt;br&gt;&lt;b&gt;BlastP hit with ctg4_584&lt;/b&gt;&lt;br&gt;Percentage identity: 80&lt;br&gt;Percentage coverage: 100&lt;br&gt;BLAST bit score: 1780&lt;br&gt;E-value: 0.0" locus_tag="BW33_RS18435" class="clusterblast-orf" id="dummy-2_h2_3_7"  />
</g>
<g id="a2_008"  >
<polygon points="526,90 536,90 541,85 536,80 526,80 526,90 " style="fill:#b1d815; stroke-width:1; stroke:black; " description="&lt;b&gt;BW33_RS18440&lt;/b&gt;&lt;br&gt;SRPBCC family protein&lt;br&gt;Location: 18634 - 19101&lt;br&gt;&lt;br&gt;&lt;b&gt;BlastP hit with ctg4_585&lt;/b&gt;&lt;br&gt;Percentage identity: 90&lt;br&gt;Percentage coverage: 99&lt;br&gt;BLAST bit score: 289&lt;br&gt;E-value: 2.4e-76" locus_tag="BW33_RS18440" class="clusterblast-orf" id="dummy-2_h2_3_8"  />
</g>
<g id="a2_009"  >
<polygon points="546,85 551,80 604,80 604,90 551,90 546,85 " style="fill:#15d8d8; stroke-width:1; stroke:black; " description="&lt;b&gt;BW33_RS18445&lt;/b&gt;&lt;br&gt;methyl-accepting chemotaxis protein&lt;br&gt;Location: 19248 - 21128&lt;br&gt;&lt;br&gt;&lt;b&gt;BlastP hit with ctg4_586&lt;/b&gt;&lt;br&gt;Percentage identity: 89&lt;br&gt;Percentage coverage: 100&lt;br&gt;BLAST bit score: 915&lt;br&gt;E-value: 3.5e-264" locus_tag="BW33_RS18445" class="clusterblast-orf" id="dummy-2_h2_3_9"  />
</g>
<g id="a2_0010"  >
<polygon points="614,90 624,90 629,85 624,80 614,80 614,90 " style="fill:white; stroke-width:1; stroke:black; " description="&lt;b&gt;BW33_RS18450&lt;/b&gt;&lt;br&gt;RNA polymerase sigma factor&lt;br&gt;Location: 21440 - 21940" locus_tag="BW33_RS18450" class="clusterblast-orf" id="dummy-2_h2_3_10"  />
</g>
<g id="a2_0011"  >
<polygon points="629,90 655,90 660,85 655,80 629,80 629,90 " style="fill:white; stroke-width:1; stroke:black; " description="&lt;b&gt;BW33_RS18455&lt;/b&gt;&lt;br&gt;peptide ABC transporter substrate-binding protein&lt;br&gt;Location: 21940 - 22941" locus_tag="BW33_RS18455" class="clusterblast-orf" id="dummy-2_h2_3_11"  />
</g>
<g id="a2_0012"  >
<polygon points="663,90 736,90 741,85 736,80 663,80 663,90 " style="fill:white; stroke-width:1; stroke:black; " description="&lt;b&gt;BW33_RS18460&lt;/b&gt;&lt;br&gt;TonB-dependent siderophore receptor&lt;br&gt;Location: 23029 - 25530" locus_tag="BW33_RS18460" class="clusterblast-orf" id="dummy-2_h2_3_12"  />
</g>
<g id="a2_0013"  >
<polygon points="743,90 775,90 780,85 775,80 743,80 743,90 " style="fill:white; stroke-width:1; stroke:black; " description="&lt;b&gt;BW33_RS18465&lt;/b&gt;&lt;br&gt;PepSY domain-containing protein&lt;br&gt;Location: 25608 - 26786" locus_tag="BW33_RS18465" class="clusterblast-orf" id="dummy-2_h2_3_13"  />
</g>
</svg>
