<svg xmlns="http://www.w3.org/2000/svg" xmlns:xlink="http://www.w3.org/1999/xlink" version="1.1" x="0" y="0" height="230" width="800" viewBox="0 0 800 230" preserveAspectRatio="none"  >
<g label="Query sequence" class="clusterblast-cluster"  >
<text x="5" y="20" class="clusterblast-acc"  >
Query sequence</text>
<line x1="10" y1="35" x2="778.0" y2="35" style="stroke-width:1; stroke:grey; "  />
<polygon points="286,40 313,40 318,35 313,30 286,30 286,40 " style="fill:white; stroke-width:1; stroke:black; " description="&lt;b&gt;ctg1_736&lt;/b&gt;&lt;br&gt;ctg1 736&lt;br&gt;Location: 811806 - 813900" locus_tag="ctg1_736" class="clusterblast-orf" id="dummy-1_q0_0_all"  />
<polygon points="319,35 321,30 321,40 319,35 " style="fill:white; stroke-width:1; stroke:black; " description="&lt;b&gt;ctg1_737&lt;/b&gt;&lt;br&gt;ctg1 737&lt;br&gt;Location: 813962 - 814115" locus_tag="ctg1_737" class="clusterblast-orf" id="dummy-1_q1_0_all"  />
<polygon points="327,40 335,40 340,35 335,30 327,30 327,40 " style="fill:#d81515; stroke-width:1; stroke:black; " description="&lt;b&gt;ctg1_738&lt;/b&gt;&lt;br&gt;ctg1 738&lt;br&gt;Location: 814519 - 815335" locus_tag="ctg1_738" class="clusterblast-orf" id="dummy-1_q2_0_all"  />
<polygon points="341,40 341,40 346,35 341,30 341,30 341,40 " style="fill:white; stroke-width:1; stroke:black; " description="&lt;b&gt;ctg1_739&lt;/b&gt;&lt;br&gt;ctg1 739&lt;br&gt;Location: 815399 - 815732" locus_tag="ctg1_739" class="clusterblast-orf" id="dummy-1_q3_0_all"  />
<polygon points="348,40 351,35 348,30 348,40 " style="fill:#77d815; stroke-width:1; stroke:black; " description="&lt;b&gt;ctg1_740&lt;/b&gt;&lt;br&gt;ctg1 740&lt;br&gt;Location: 815885 - 816071" locus_tag="ctg1_740" class="clusterblast-orf" id="dummy-1_q4_0_all"  />
<polygon points="351,35 355,30 355,40 351,35 " style="fill:#15d8d8; stroke-width:1; stroke:black; " description="&lt;b&gt;ctg1_741&lt;/b&gt;&lt;br&gt;ctg1 741&lt;br&gt;Location: 816076 - 816304" locus_tag="ctg1_741" class="clusterblast-orf" id="dummy-1_q5_0_all"  />
<polygon points="358,35 363,30 376,30 376,40 363,40 358,35 " style="fill:#7715d8; stroke-width:1; stroke:black; " description="&lt;b&gt;ctg1_742&lt;/b&gt;&lt;br&gt;ctg1 742&lt;br&gt;Location: 816493 - 817684" locus_tag="ctg1_742" class="clusterblast-orf" id="dummy-1_q6_0_all"  />
<polygon points="378,35 383,30 405,30 405,40 383,40 378,35 " style="fill:#d8a715; stroke-width:1; stroke:black; " description="&lt;b&gt;ctg1_743&lt;/b&gt;&lt;br&gt;ctg1 743&lt;br&gt;Location: 817849 - 819598" locus_tag="ctg1_743" class="clusterblast-orf" id="dummy-1_q7_0_all"  />
<polygon points="405,35 410,30 432,30 432,40 410,40 405,35 " style="fill:#15d846; stroke-width:1; stroke:black; " description="&lt;b&gt;ctg1_744&lt;/b&gt;&lt;br&gt;ctg1 744&lt;br&gt;Location: 819601 - 821374" locus_tag="ctg1_744" class="clusterblast-orf" id="dummy-1_q8_0_all"  />
<polygon points="436,35 441,30 466,30 466,40 441,40 436,35 " style="fill:#1546d8; stroke-width:1; stroke:black; " description="&lt;b&gt;ctg1_745&lt;/b&gt;&lt;br&gt;ctg1 745&lt;br&gt;Location: 821636 - 823616" locus_tag="ctg1_745" class="clusterblast-orf" id="dummy-1_q9_0_all"  />
<polygon points="470,40 488,40 493,35 488,30 470,30 470,40 " style="fill:#d815a7; stroke-width:1; stroke:black; " description="&lt;b&gt;ctg1_746&lt;/b&gt;&lt;br&gt;ctg1 746&lt;br&gt;Location: 823868 - 825383" locus_tag="ctg1_746" class="clusterblast-orf" id="dummy-1_q10_0_all"  />
</g>
<g label="NZ_JGYI01000016" description="NZ_JGYI01000016_c6: Pseudomonas veronii 1YB2 Contig16, whole genome shotgun s... (22% of genes show similarity), nrps" class="clusterblast-cluster"  >
<text x="5" y="70" class="clusterblast-acc"  >
<a xlink:href="https://antismash-db.secondarymetabolites.org/go/NZ_JGYI01000016/6" target="_blank">NZ_JGYI01000016_c6</a>: Pseudomonas veronii 1YB2 Contig16, whole genome shotgun s... (22% of genes show similarity), nrps</text>
<line x1="10" y1="85" x2="778.0" y2="85" style="stroke-width:1; stroke:grey; "  />
</g>
<g id="a1_000"  >
<polygon points="0,90 7,90 12,85 7,80 0,80 0,90 " style="fill:#d81515; stroke-width:1; stroke:black; " description="&lt;b&gt;Y055_RS06880&lt;/b&gt;&lt;br&gt;short chain dehydrogenase&lt;br&gt;Location: 125999 - 125184&lt;br&gt;&lt;br&gt;&lt;b&gt;BlastP hit with ctg1_738&lt;/b&gt;&lt;br&gt;Percentage identity: 94&lt;br&gt;Percentage coverage: 99&lt;br&gt;BLAST bit score: 508&lt;br&gt;E-value: 5.6e-142" locus_tag="Y055_RS06880" class="clusterblast-orf" id="dummy-1_h1_1_0"  />
</g>
<g id="a1_001"  >
<polygon points="15,90 18,85 15,80 15,90 " style="fill:#77d815; stroke-width:1; stroke:black; " description="&lt;b&gt;Y055_RS06875&lt;/b&gt;&lt;br&gt;carbon storage regulator&lt;br&gt;Location: 125014 - 124817&lt;br&gt;&lt;br&gt;&lt;b&gt;BlastP hit with ctg1_740&lt;/b&gt;&lt;br&gt;Percentage identity: 66&lt;br&gt;Percentage coverage: 90&lt;br&gt;BLAST bit score: 73&lt;br&gt;E-value: 1e-11" locus_tag="Y055_RS06875" class="clusterblast-orf" id="dummy-1_h1_1_1"  />
</g>
<g id="a1_002"  >
<polygon points="18,85 21,80 21,90 18,85 " style="fill:#15d8d8; stroke-width:1; stroke:black; " description="&lt;b&gt;Y055_RS06870&lt;/b&gt;&lt;br&gt;hypothetical protein&lt;br&gt;Location: 124807 - 124580&lt;br&gt;&lt;br&gt;&lt;b&gt;BlastP hit with ctg1_741&lt;/b&gt;&lt;br&gt;Percentage identity: 99&lt;br&gt;Percentage coverage: 100&lt;br&gt;BLAST bit score: 153&lt;br&gt;E-value: 1.3e-35" locus_tag="Y055_RS06870" class="clusterblast-orf" id="dummy-1_h1_1_2"  />
</g>
<g id="a1_003"  >
<polygon points="22,85 27,80 40,80 40,90 27,90 22,85 " style="fill:#7715d8; stroke-width:1; stroke:black; " description="&lt;b&gt;Y055_RS06865&lt;/b&gt;&lt;br&gt;osmoprotectant NAGGN system M42 family peptidase&lt;br&gt;Location: 124520 - 123336&lt;br&gt;&lt;br&gt;&lt;b&gt;BlastP hit with ctg1_742&lt;/b&gt;&lt;br&gt;Percentage identity: 95&lt;br&gt;Percentage coverage: 99&lt;br&gt;BLAST bit score: 764&lt;br&gt;E-value: 4.9e-219" locus_tag="Y055_RS06865" class="clusterblast-orf" id="dummy-1_h1_1_3"  />
</g>
<g id="a1_004"  >
<polygon points="41,85 46,80 68,80 68,90 46,90 41,85 " style="fill:#d8a715; stroke-width:1; stroke:black; " description="&lt;b&gt;Y055_RS06860&lt;/b&gt;&lt;br&gt;N-acetylglutaminylglutamine synthetase&lt;br&gt;Location: 123260 - 121515&lt;br&gt;&lt;br&gt;&lt;b&gt;BlastP hit with ctg1_743&lt;/b&gt;&lt;br&gt;Percentage identity: 88&lt;br&gt;Percentage coverage: 100&lt;br&gt;BLAST bit score: 1039&lt;br&gt;E-value: 2e-301" locus_tag="Y055_RS06860" class="clusterblast-orf" id="dummy-1_h1_1_4"  />
</g>
<g id="a1_005"  >
<polygon points="68,85 73,80 95,80 95,90 73,90 68,85 " style="fill:#15d846; stroke-width:1; stroke:black; " description="&lt;b&gt;Y055_RS06855&lt;/b&gt;&lt;br&gt;N-acetylglutaminylglutamine amidotransferase&lt;br&gt;Location: 121511 - 119739&lt;br&gt;&lt;br&gt;&lt;b&gt;BlastP hit with ctg1_744&lt;/b&gt;&lt;br&gt;Percentage identity: 93&lt;br&gt;Percentage coverage: 100&lt;br&gt;BLAST bit score: 1142&lt;br&gt;E-value: 0.0" locus_tag="Y055_RS06855" class="clusterblast-orf" id="dummy-1_h1_1_5"  />
</g>
<g id="a1_006"  >
<polygon points="100,85 105,80 130,80 130,90 105,90 100,85 " style="fill:#1546d8; stroke-width:1; stroke:black; " description="&lt;b&gt;Y055_RS06850&lt;/b&gt;&lt;br&gt;bifunctional tRNA (5-methylaminomethyl-2-thiouridine)(34)-methyltransferase MnmD/FAD-dependent 5-carboxymethylaminomethyl-2-thiouridine(34) oxidoreductase MnmC&lt;br&gt;Location: 119454 - 117469&lt;br&gt;&lt;br&gt;&lt;b&gt;BlastP hit with ctg1_745&lt;/b&gt;&lt;br&gt;Percentage identity: 82&lt;br&gt;Percentage coverage: 100&lt;br&gt;BLAST bit score: 1115&lt;br&gt;E-value: 0.0" locus_tag="Y055_RS06850" class="clusterblast-orf" id="dummy-1_h1_1_6"  />
</g>
<g id="a1_007"  >
<polygon points="132,90 150,90 155,85 150,80 132,80 132,90 " style="fill:#d815a7; stroke-width:1; stroke:black; " description="&lt;b&gt;Y055_RS06845&lt;/b&gt;&lt;br&gt;polyphosphate:AMP phosphotransferase&lt;br&gt;Location: 117327 - 115810&lt;br&gt;&lt;br&gt;&lt;b&gt;BlastP hit with ctg1_746&lt;/b&gt;&lt;br&gt;Percentage identity: 84&lt;br&gt;Percentage coverage: 100&lt;br&gt;BLAST bit score: 879&lt;br&gt;E-value: 2.3e-253" locus_tag="Y055_RS06845" class="clusterblast-orf" id="dummy-1_h1_1_7"  />
</g>
<g id="a1_008"  >
<polygon points="157,90 170,90 175,85 170,80 157,80 157,90 " style="fill:white; stroke-width:1; stroke:black; " description="&lt;b&gt;Y055_RS06840&lt;/b&gt;&lt;br&gt;acetyl-CoA C-acyltransferase&lt;br&gt;Location: 115717 - 114533" locus_tag="Y055_RS06840" class="clusterblast-orf" id="dummy-1_h1_1_8"  />
</g>
<g id="a1_009"  >
<polygon points="176,90 186,90 191,85 186,80 176,80 176,90 " style="fill:white; stroke-width:1; stroke:black; " description="&lt;b&gt;Y055_RS06835&lt;/b&gt;&lt;br&gt;EamA/RhaT family transporter&lt;br&gt;Location: 114424 - 113468" locus_tag="Y055_RS06835" class="clusterblast-orf" id="dummy-1_h1_1_9"  />
</g>
<g id="a1_0010"  >
<polygon points="194,85 198,80 198,90 194,85 " style="fill:white; stroke-width:1; stroke:black; " description="&lt;b&gt;Y055_RS35600&lt;/b&gt;&lt;br&gt;hypothetical protein&lt;br&gt;Location: 113244 - 113007" locus_tag="Y055_RS35600" class="clusterblast-orf" id="dummy-1_h1_1_10"  />
</g>
<g id="a1_0011"  >
<polygon points="199,85 204,80 223,80 223,90 204,90 199,85 " style="fill:white; stroke-width:1; stroke:black; " description="&lt;b&gt;Y055_RS06830&lt;/b&gt;&lt;br&gt;acyl-CoA carboxylase subunit beta&lt;br&gt;Location: 112975 - 111359" locus_tag="Y055_RS06830" class="clusterblast-orf" id="dummy-1_h1_1_11"  />
</g>
<g id="a1_0012"  >
<polygon points="224,85 229,80 252,80 252,90 229,90 224,85 " style="fill:white; stroke-width:1; stroke:black; " description="&lt;b&gt;Y055_RS06825&lt;/b&gt;&lt;br&gt;DUF1446 domain-containing protein&lt;br&gt;Location: 111283 - 109505" locus_tag="Y055_RS06825" class="clusterblast-orf" id="dummy-1_h1_1_12"  />
</g>
<g id="a1_0013"  >
<polygon points="254,90 258,90 263,85 258,80 254,80 254,90 " style="fill:white; stroke-width:1; stroke:black; " description="&lt;b&gt;Y055_RS06820&lt;/b&gt;&lt;br&gt;TetR/AcrR family transcriptional regulator&lt;br&gt;Location: 109350 - 108727" locus_tag="Y055_RS06820" class="clusterblast-orf" id="dummy-1_h1_1_13"  />
</g>
<g id="a1_0014"  >
<polygon points="265,90 272,90 277,85 272,80 265,80 265,90 " style="fill:white; stroke-width:1; stroke:black; " description="&lt;b&gt;Y055_RS06815&lt;/b&gt;&lt;br&gt;amino acid ABC transporter substrate-binding protein&lt;br&gt;Location: 108634 - 107846" locus_tag="Y055_RS06815" class="clusterblast-orf" id="dummy-1_h1_1_14"  />
</g>
<g id="a1_0015"  >
<polygon points="278,85 283,80 286,80 286,90 283,90 278,85 " style="fill:white; stroke-width:1; stroke:black; " description="&lt;b&gt;Y055_RS06810&lt;/b&gt;&lt;br&gt;RNA polymerase factor sigma-70&lt;br&gt;Location: 107809 - 107258" locus_tag="Y055_RS06810" class="clusterblast-orf" id="dummy-1_h1_1_15"  />
</g>
<g id="a1_0016"  >
<polygon points="291,90 297,90 302,85 297,80 291,80 291,90 " style="fill:white; stroke-width:1; stroke:black; " description="&lt;b&gt;Y055_RS06805&lt;/b&gt;&lt;br&gt;thioesterase&lt;br&gt;Location: 106954 - 106202" locus_tag="Y055_RS06805" class="clusterblast-orf" id="dummy-1_h1_1_16"  />
</g>
<g id="a1_0017"  >
<polygon points="303,90 495,90 500,85 495,80 303,80 303,90 " style="fill:white; stroke-width:1; stroke:black; " description="&lt;b&gt;Y055_RS06800&lt;/b&gt;&lt;br&gt;non-ribosomal peptide synthetase&lt;br&gt;Location: 106156 - 93260" locus_tag="Y055_RS06800" class="clusterblast-orf" id="dummy-1_h1_1_17"  />
</g>
<g id="a1_0018"  >
<polygon points="502,85 507,80 513,80 513,90 507,90 502,85 " style="fill:white; stroke-width:1; stroke:black; " description="&lt;b&gt;Y055_RS06795&lt;/b&gt;&lt;br&gt;thiol:disulfide interchange protein DsbG&lt;br&gt;Location: 93145 - 92384" locus_tag="Y055_RS06795" class="clusterblast-orf" id="dummy-1_h1_1_18"  />
</g>
<g id="a1_0019"  >
<polygon points="513,85 518,80 526,80 526,90 518,90 513,85 " style="fill:white; stroke-width:1; stroke:black; " description="&lt;b&gt;Y055_RS06790&lt;/b&gt;&lt;br&gt;peroxiredoxin&lt;br&gt;Location: 92408 - 91548" locus_tag="Y055_RS06790" class="clusterblast-orf" id="dummy-1_h1_1_19"  />
</g>
<g id="a1_0020"  >
<polygon points="526,85 531,80 552,80 552,90 531,90 526,85 " style="fill:white; stroke-width:1; stroke:black; " description="&lt;b&gt;Y055_RS06785&lt;/b&gt;&lt;br&gt;protein-disulfide reductase DsbD&lt;br&gt;Location: 91548 - 89821" locus_tag="Y055_RS06785" class="clusterblast-orf" id="dummy-1_h1_1_20"  />
</g>
<g id="a1_0021"  >
<polygon points="555,90 561,90 566,85 561,80 555,80 555,90 " style="fill:white; stroke-width:1; stroke:black; " description="&lt;b&gt;Y055_RS06780&lt;/b&gt;&lt;br&gt;DNA-binding response regulator&lt;br&gt;Location: 89643 - 88963" locus_tag="Y055_RS06780" class="clusterblast-orf" id="dummy-1_h1_1_21"  />
</g>
<g id="a1_0022"  >
<polygon points="566,90 581,90 586,85 581,80 566,80 566,90 " style="fill:white; stroke-width:1; stroke:black; " description="&lt;b&gt;Y055_RS06775&lt;/b&gt;&lt;br&gt;two-component sensor histidine kinase&lt;br&gt;Location: 88963 - 87644" locus_tag="Y055_RS06775" class="clusterblast-orf" id="dummy-1_h1_1_22"  />
</g>
<g id="a1_0023"  >
<polygon points="588,90 594,90 599,85 594,80 588,80 588,90 " style="fill:white; stroke-width:1; stroke:black; " description="&lt;b&gt;Y055_RS06770&lt;/b&gt;&lt;br&gt;N-acetylmuramoyl-L-alanine amidase&lt;br&gt;Location: 87519 - 86752" locus_tag="Y055_RS06770" class="clusterblast-orf" id="dummy-1_h1_1_23"  />
</g>
<g id="a1_0024"  >
<polygon points="602,90 619,90 624,85 619,80 602,80 602,90 " style="fill:white; stroke-width:1; stroke:black; " description="&lt;b&gt;Y055_RS06765&lt;/b&gt;&lt;br&gt;diaminobutyrate--2-oxoglutarate transaminase&lt;br&gt;Location: 86578 - 85166" locus_tag="Y055_RS06765" class="clusterblast-orf" id="dummy-1_h1_1_24"  />
</g>
<g id="a1_0025"  >
<polygon points="625,90 628,85 625,80 625,90 " style="fill:white; stroke-width:1; stroke:black; " description="&lt;b&gt;Y055_RS06760&lt;/b&gt;&lt;br&gt;MbtH family protein&lt;br&gt;Location: 85083 - 84862" locus_tag="Y055_RS06760" class="clusterblast-orf" id="dummy-1_h1_1_25"  />
</g>
<g id="a1_0026"  >
<polygon points="629,85 634,80 662,80 662,90 634,90 629,85 " style="fill:white; stroke-width:1; stroke:black; " description="&lt;b&gt;Y055_RS06755&lt;/b&gt;&lt;br&gt;mechanosensitive ion channel family protein&lt;br&gt;Location: 84789 - 82621" locus_tag="Y055_RS06755" class="clusterblast-orf" id="dummy-1_h1_1_26"  />
</g>
<g id="a1_0027"  >
<polygon points="668,85 673,80 688,80 688,90 673,90 668,85 " style="fill:white; stroke-width:1; stroke:black; " description="&lt;b&gt;Y055_RS06750&lt;/b&gt;&lt;br&gt;M18 family aminopeptidase&lt;br&gt;Location: 82228 - 80939" locus_tag="Y055_RS06750" class="clusterblast-orf" id="dummy-1_h1_1_27"  />
</g>
<g id="a1_0028"  >
<polygon points="691,85 696,80 700,80 700,90 696,90 691,85 " style="fill:white; stroke-width:1; stroke:black; " description="&lt;b&gt;Y055_RS06745&lt;/b&gt;&lt;br&gt;RluA family pseudouridine synthase&lt;br&gt;Location: 80777 - 80142" locus_tag="Y055_RS06745" class="clusterblast-orf" id="dummy-1_h1_1_28"  />
</g>
<g id="a1_0029"  >
<polygon points="702,85 706,80 706,90 702,85 " style="fill:white; stroke-width:1; stroke:black; " description="&lt;b&gt;Y055_RS06740&lt;/b&gt;&lt;br&gt;cell division topological specificity factor&lt;br&gt;Location: 80045 - 79791" locus_tag="Y055_RS06740" class="clusterblast-orf" id="dummy-1_h1_1_29"  />
</g>
<g id="a1_0030"  >
<polygon points="706,85 711,80 718,80 718,90 711,90 706,85 " style="fill:white; stroke-width:1; stroke:black; " description="&lt;b&gt;Y055_RS06735&lt;/b&gt;&lt;br&gt;septum site-determining protein MinD&lt;br&gt;Location: 79787 - 78975" locus_tag="Y055_RS06735" class="clusterblast-orf" id="dummy-1_h1_1_30"  />
</g>
<g id="a1_0031"  >
<polygon points="721,85 726,80 733,80 733,90 726,90 721,85 " style="fill:white; stroke-width:1; stroke:black; " description="&lt;b&gt;Y055_RS06730&lt;/b&gt;&lt;br&gt;septum site-determining protein MinC&lt;br&gt;Location: 78774 - 78037" locus_tag="Y055_RS06730" class="clusterblast-orf" id="dummy-1_h1_1_31"  />
</g>
<g id="a1_0032"  >
<polygon points="734,90 744,90 749,85 744,80 734,80 734,90 " style="fill:white; stroke-width:1; stroke:black; " description="&lt;b&gt;Y055_RS06725&lt;/b&gt;&lt;br&gt;lipid A biosynthesis lauroyl acyltransferase&lt;br&gt;Location: 77917 - 76982" locus_tag="Y055_RS06725" class="clusterblast-orf" id="dummy-1_h1_1_32"  />
</g>
<g id="a1_0033"  >
<polygon points="749,90 762,90 767,85 762,80 749,80 749,90 " style="fill:white; stroke-width:1; stroke:black; " description="&lt;b&gt;Y055_RS06720&lt;/b&gt;&lt;br&gt;patatin&lt;br&gt;Location: 76951 - 75797" locus_tag="Y055_RS06720" class="clusterblast-orf" id="dummy-1_h1_1_33"  />
</g>
<g id="a1_0034"  >
<polygon points="768,85 773,80 780,80 780,90 773,90 768,85 " style="fill:white; stroke-width:1; stroke:black; " description="&lt;b&gt;Y055_RS06715&lt;/b&gt;&lt;br&gt;membrane protein&lt;br&gt;Location: 75750 - 74965" locus_tag="Y055_RS06715" class="clusterblast-orf" id="dummy-1_h1_1_34"  />
</g>
</svg>
