<svg xmlns="http://www.w3.org/2000/svg" xmlns:xlink="http://www.w3.org/1999/xlink" version="1.1" x="0" y="0" height="230" width="800" viewBox="0 0 800 230" preserveAspectRatio="none"  >
<g label="Query sequence" class="clusterblast-cluster"  >
<text x="5" y="20" class="clusterblast-acc"  >
Query sequence</text>
<line x1="10" y1="35" x2="778.0" y2="35" style="stroke-width:1; stroke:grey; "  />
<polygon points="0,35 5,30 14,30 14,40 5,40 0,35 " style="fill:#d81515; stroke-width:1; stroke:black; " description="&lt;b&gt;ctg1_947&lt;/b&gt;&lt;br&gt;ctg1 947&lt;br&gt;Location: 1045973 - 1046867" locus_tag="ctg1_947" class="clusterblast-orf" id="dummy-2_q0_0_all"  />
<polygon points="14,40 17,35 14,30 14,40 " style="fill:white; stroke-width:1; stroke:black; " description="&lt;b&gt;ctg1_948&lt;/b&gt;&lt;br&gt;ctg1 948&lt;br&gt;Location: 1046885 - 1047053" locus_tag="ctg1_948" class="clusterblast-orf" id="dummy-2_q1_0_all"  />
<polygon points="22,35 27,30 29,30 29,40 27,40 22,35 " style="fill:#67d815; stroke-width:1; stroke:black; " description="&lt;b&gt;ctg1_949&lt;/b&gt;&lt;br&gt;ctg1 949&lt;br&gt;Location: 1047381 - 1047852" locus_tag="ctg1_949" class="clusterblast-orf" id="dummy-2_q2_0_all"  />
<polygon points="35,40 44,40 49,35 44,30 35,30 35,40 " style="fill:#15b9d8; stroke-width:1; stroke:black; " description="&lt;b&gt;ctg1_950&lt;/b&gt;&lt;br&gt;ctg1 950&lt;br&gt;Location: 1048295 - 1049231" locus_tag="ctg1_950" class="clusterblast-orf" id="dummy-2_q3_0_all"  />
<polygon points="52,40 59,40 64,35 59,30 52,30 52,40 " style="fill:#8615d8; stroke-width:1; stroke:black; " description="&lt;b&gt;ctg1_951&lt;/b&gt;&lt;br&gt;ctg1 951&lt;br&gt;Location: 1049408 - 1050215" locus_tag="ctg1_951" class="clusterblast-orf" id="dummy-2_q4_0_all"  />
<polygon points="65,35 70,30 70,30 70,40 70,40 65,35 " style="fill:#d83415; stroke-width:1; stroke:black; " description="&lt;b&gt;ctg1_952&lt;/b&gt;&lt;br&gt;ctg1 952&lt;br&gt;Location: 1050289 - 1050574" locus_tag="ctg1_952" class="clusterblast-orf" id="dummy-2_q5_0_all"  />
<polygon points="71,35 76,30 79,30 79,40 76,40 71,35 " style="fill:#49d815; stroke-width:1; stroke:black; " description="&lt;b&gt;ctg1_953&lt;/b&gt;&lt;br&gt;ctg1 953&lt;br&gt;Location: 1050644 - 1051187" locus_tag="ctg1_953" class="clusterblast-orf" id="dummy-2_q6_0_all"  />
<polygon points="80,35 85,30 109,30 109,40 85,40 80,35 " style="fill:#159bd8; stroke-width:1; stroke:black; " description="&lt;b&gt;ctg1_954&lt;/b&gt;&lt;br&gt;ctg1 954&lt;br&gt;Location: 1051258 - 1053220" locus_tag="ctg1_954" class="clusterblast-orf" id="dummy-2_q7_0_all"  />
<polygon points="111,35 116,30 123,30 123,40 116,40 111,35 " style="fill:#a515d8; stroke-width:1; stroke:black; " description="&lt;b&gt;ctg1_955&lt;/b&gt;&lt;br&gt;ctg1 955&lt;br&gt;Location: 1053329 - 1054127" locus_tag="ctg1_955" class="clusterblast-orf" id="dummy-2_q8_0_all"  />
<polygon points="123,35 128,30 140,30 140,40 128,40 123,35 " style="fill:#d85315; stroke-width:1; stroke:black; " description="&lt;b&gt;ctg1_956&lt;/b&gt;&lt;br&gt;ctg1 956&lt;br&gt;Location: 1054123 - 1055281" locus_tag="ctg1_956" class="clusterblast-orf" id="dummy-2_q9_0_all"  />
<polygon points="141,35 146,30 165,30 165,40 146,40 141,35 " style="fill:#2ad815; stroke-width:1; stroke:black; " description="&lt;b&gt;ctg1_957&lt;/b&gt;&lt;br&gt;ctg1 957&lt;br&gt;Location: 1055304 - 1056921" locus_tag="ctg1_957" class="clusterblast-orf" id="dummy-2_q10_0_all"  />
<polygon points="165,35 170,30 178,30 178,40 170,40 165,35 " style="fill:#157cd8; stroke-width:1; stroke:black; " description="&lt;b&gt;ctg1_958&lt;/b&gt;&lt;br&gt;ctg1 958&lt;br&gt;Location: 1056924 - 1057809" locus_tag="ctg1_958" class="clusterblast-orf" id="dummy-2_q11_0_all"  />
<polygon points="179,35 184,30 206,30 206,40 184,40 179,35 " style="fill:#c415d8; stroke-width:1; stroke:black; " description="&lt;b&gt;ctg1_959&lt;/b&gt;&lt;br&gt;ctg1 959&lt;br&gt;Location: 1057821 - 1059624" locus_tag="ctg1_959" class="clusterblast-orf" id="dummy-2_q12_0_all"  />
<polygon points="208,40 213,40 218,35 213,30 208,30 208,40 " style="fill:#d87215; stroke-width:1; stroke:black; " description="&lt;b&gt;ctg1_960&lt;/b&gt;&lt;br&gt;ctg1 960&lt;br&gt;Location: 1059802 - 1060429" locus_tag="ctg1_960" class="clusterblast-orf" id="dummy-2_q13_0_all"  />
<polygon points="219,40 226,40 231,35 226,30 219,30 219,40 " style="fill:#15d81f; stroke-width:1; stroke:black; " description="&lt;b&gt;ctg1_961&lt;/b&gt;&lt;br&gt;ctg1 961&lt;br&gt;Location: 1060521 - 1061316" locus_tag="ctg1_961" class="clusterblast-orf" id="dummy-2_q14_0_all"  />
<polygon points="233,40 241,40 246,35 241,30 233,30 233,40 " style="fill:#155dd8; stroke-width:1; stroke:black; " description="&lt;b&gt;ctg1_962&lt;/b&gt;&lt;br&gt;ctg1 962&lt;br&gt;Location: 1061450 - 1062287" locus_tag="ctg1_962" class="clusterblast-orf" id="dummy-2_q15_0_all"  />
<polygon points="246,40 248,35 246,30 246,40 " style="fill:#15d81f; stroke-width:1; stroke:black; " description="&lt;b&gt;ctg1_963&lt;/b&gt;&lt;br&gt;ctg1 963&lt;br&gt;Location: 1062293 - 1062425" locus_tag="ctg1_963" class="clusterblast-orf" id="dummy-2_q16_0_all"  />
<polygon points="250,40 258,40 263,35 258,30 250,30 250,40 " style="fill:#155dd8; stroke-width:1; stroke:black; " description="&lt;b&gt;ctg1_964&lt;/b&gt;&lt;br&gt;ctg1 964&lt;br&gt;Location: 1062559 - 1063393" locus_tag="ctg1_964" class="clusterblast-orf" id="dummy-2_q17_0_all"  />
<polygon points="265,40 275,40 280,35 275,30 265,30 265,40 " style="fill:#d815ce; stroke-width:1; stroke:black; " description="&lt;b&gt;ctg1_965&lt;/b&gt;&lt;br&gt;ctg1 965&lt;br&gt;Location: 1063545 - 1064559" locus_tag="ctg1_965" class="clusterblast-orf" id="dummy-2_q18_0_all"  />
<polygon points="282,35 287,30 290,30 290,40 287,40 282,35 " style="fill:#d89015; stroke-width:1; stroke:black; " description="&lt;b&gt;ctg1_966&lt;/b&gt;&lt;br&gt;ctg1 966&lt;br&gt;Location: 1064693 - 1065242" locus_tag="ctg1_966" class="clusterblast-orf" id="dummy-2_q19_0_all"  />
<polygon points="296,40 486,40 491,35 486,30 296,30 296,40 " style="fill:#15d83e; stroke-width:1; stroke:black; " description="&lt;b&gt;ctg1_967&lt;/b&gt;&lt;br&gt;ctg1 967&lt;br&gt;Location: 1065614 - 1078598" locus_tag="ctg1_967" class="clusterblast-orf" id="dummy-2_q20_0_all"  />
<polygon points="494,40 501,40 506,35 501,30 494,30 494,40 " style="fill:#153ed8; stroke-width:1; stroke:black; " description="&lt;b&gt;ctg1_968&lt;/b&gt;&lt;br&gt;ctg1 968&lt;br&gt;Location: 1078770 - 1079583" locus_tag="ctg1_968" class="clusterblast-orf" id="dummy-2_q21_0_all"  />
<polygon points="508,35 513,30 519,30 519,40 513,40 508,35 " style="fill:#d815af; stroke-width:1; stroke:black; " description="&lt;b&gt;ctg1_969&lt;/b&gt;&lt;br&gt;ctg1 969&lt;br&gt;Location: 1079675 - 1080446" locus_tag="ctg1_969" class="clusterblast-orf" id="dummy-2_q22_0_all"  />
<polygon points="519,35 524,30 532,30 532,40 524,40 519,35 " style="fill:#d8af15; stroke-width:1; stroke:black; " description="&lt;b&gt;ctg1_970&lt;/b&gt;&lt;br&gt;ctg1 970&lt;br&gt;Location: 1080421 - 1081288" locus_tag="ctg1_970" class="clusterblast-orf" id="dummy-2_q23_0_all"  />
<polygon points="532,35 537,30 558,30 558,40 537,40 532,35 " style="fill:#15d85d; stroke-width:1; stroke:black; " description="&lt;b&gt;ctg1_971&lt;/b&gt;&lt;br&gt;ctg1 971&lt;br&gt;Location: 1081287 - 1083027" locus_tag="ctg1_971" class="clusterblast-orf" id="dummy-2_q24_0_all"  />
<polygon points="560,40 566,40 571,35 566,30 560,30 560,40 " style="fill:#151fd8; stroke-width:1; stroke:black; " description="&lt;b&gt;ctg1_972&lt;/b&gt;&lt;br&gt;ctg1 972&lt;br&gt;Location: 1083180 - 1083861" locus_tag="ctg1_972" class="clusterblast-orf" id="dummy-2_q25_0_all"  />
<polygon points="571,40 585,40 590,35 585,30 571,30 571,40 " style="fill:#d81590; stroke-width:1; stroke:black; " description="&lt;b&gt;ctg1_973&lt;/b&gt;&lt;br&gt;ctg1 973&lt;br&gt;Location: 1083857 - 1085183" locus_tag="ctg1_973" class="clusterblast-orf" id="dummy-2_q26_0_all"  />
<polygon points="594,40 596,40 601,35 596,30 594,30 594,40 " style="fill:#d8ce15; stroke-width:1; stroke:black; " description="&lt;b&gt;ctg1_974&lt;/b&gt;&lt;br&gt;ctg1 974&lt;br&gt;Location: 1085400 - 1085886" locus_tag="ctg1_974" class="clusterblast-orf" id="dummy-2_q27_0_all"  />
<polygon points="603,40 619,40 624,35 619,30 603,30 603,40 " style="fill:#15d87c; stroke-width:1; stroke:black; " description="&lt;b&gt;ctg1_975&lt;/b&gt;&lt;br&gt;ctg1 975&lt;br&gt;Location: 1086029 - 1087442" locus_tag="ctg1_975" class="clusterblast-orf" id="dummy-2_q28_0_all"  />
<polygon points="626,40 629,35 626,30 626,40 " style="fill:#2a15d8; stroke-width:1; stroke:black; " description="&lt;b&gt;ctg1_976&lt;/b&gt;&lt;br&gt;ctg1 976&lt;br&gt;Location: 1087524 - 1087752" locus_tag="ctg1_976" class="clusterblast-orf" id="dummy-2_q29_0_all"  />
<polygon points="632,35 637,30 646,30 646,40 637,40 632,35 " style="fill:#d81572; stroke-width:1; stroke:black; " description="&lt;b&gt;ctg1_977&lt;/b&gt;&lt;br&gt;ctg1 977&lt;br&gt;Location: 1087926 - 1088898" locus_tag="ctg1_977" class="clusterblast-orf" id="dummy-2_q30_0_all"  />
<polygon points="646,35 651,30 660,30 660,40 651,40 646,35 " style="fill:#c4d815; stroke-width:1; stroke:black; " description="&lt;b&gt;ctg1_978&lt;/b&gt;&lt;br&gt;ctg1 978&lt;br&gt;Location: 1088898 - 1089798" locus_tag="ctg1_978" class="clusterblast-orf" id="dummy-2_q31_0_all"  />
<polygon points="660,35 665,30 673,30 673,40 665,40 660,35 " style="fill:#15d89b; stroke-width:1; stroke:black; " description="&lt;b&gt;ctg1_979&lt;/b&gt;&lt;br&gt;ctg1 979&lt;br&gt;Location: 1089797 - 1090661" locus_tag="ctg1_979" class="clusterblast-orf" id="dummy-2_q32_0_all"  />
<polygon points="673,35 678,30 687,30 687,40 678,40 673,35 " style="fill:#4915d8; stroke-width:1; stroke:black; " description="&lt;b&gt;ctg1_980&lt;/b&gt;&lt;br&gt;ctg1 980&lt;br&gt;Location: 1090657 - 1091584" locus_tag="ctg1_980" class="clusterblast-orf" id="dummy-2_q33_0_all"  />
<polygon points="687,35 692,30 696,30 696,40 692,40 687,35 " style="fill:#d81553; stroke-width:1; stroke:black; " description="&lt;b&gt;ctg1_981&lt;/b&gt;&lt;br&gt;ctg1 981&lt;br&gt;Location: 1091619 - 1092192" locus_tag="ctg1_981" class="clusterblast-orf" id="dummy-2_q34_0_all"  />
<polygon points="696,35 701,30 701,30 701,40 701,40 696,35 " style="fill:#a5d815; stroke-width:1; stroke:black; " description="&lt;b&gt;ctg1_982&lt;/b&gt;&lt;br&gt;ctg1 982&lt;br&gt;Location: 1092194 - 1092524" locus_tag="ctg1_982" class="clusterblast-orf" id="dummy-2_q35_0_all"  />
<polygon points="701,35 706,30 709,30 709,40 706,40 701,35 " style="fill:#15d8b9; stroke-width:1; stroke:black; " description="&lt;b&gt;ctg1_983&lt;/b&gt;&lt;br&gt;ctg1 983&lt;br&gt;Location: 1092520 - 1093063" locus_tag="ctg1_983" class="clusterblast-orf" id="dummy-2_q36_0_all"  />
<polygon points="709,35 714,30 727,30 727,40 714,40 709,35 " style="fill:#6715d8; stroke-width:1; stroke:black; " description="&lt;b&gt;ctg1_984&lt;/b&gt;&lt;br&gt;ctg1 984&lt;br&gt;Location: 1093059 - 1094262" locus_tag="ctg1_984" class="clusterblast-orf" id="dummy-2_q37_0_all"  />
<polygon points="733,40 750,40 755,35 750,30 733,30 733,40 " style="fill:#d81534; stroke-width:1; stroke:black; " description="&lt;b&gt;ctg1_985&lt;/b&gt;&lt;br&gt;ctg1 985&lt;br&gt;Location: 1094682 - 1096104" locus_tag="ctg1_985" class="clusterblast-orf" id="dummy-2_q38_0_all"  />
<polygon points="755,40 759,40 764,35 759,30 755,30 755,40 " style="fill:#86d815; stroke-width:1; stroke:black; " description="&lt;b&gt;ctg1_986&lt;/b&gt;&lt;br&gt;ctg1 986&lt;br&gt;Location: 1096100 - 1096712" locus_tag="ctg1_986" class="clusterblast-orf" id="dummy-2_q39_0_all"  />
<polygon points="766,35 771,30 779,30 779,40 771,40 766,35 " style="fill:#15d8d8; stroke-width:1; stroke:black; " description="&lt;b&gt;ctg1_987&lt;/b&gt;&lt;br&gt;ctg1 987&lt;br&gt;Location: 1096837 - 1097704" locus_tag="ctg1_987" class="clusterblast-orf" id="dummy-2_q40_0_all"  />
</g>
<g label="NZ_AZVL01000018" description="NZ_AZVL01000018_c7: Pseudomonas sp. URIL14HWK12:I6 H043DRAFT scaffold00016.16... (90% of genes show similarity), nrps" class="clusterblast-cluster"  >
<text x="5" y="70" class="clusterblast-acc"  >
<a xlink:href="https://antismash-db.secondarymetabolites.org/go/NZ_AZVL01000018/7" target="_blank">NZ_AZVL01000018_c7</a>: Pseudomonas sp. URIL14HWK12:I6 H043DRAFT scaffold00016.16... (90% of genes show similarity), nrps</text>
<line x1="10" y1="85" x2="778.0" y2="85" style="stroke-width:1; stroke:grey; "  />
</g>
<g id="a2_000"  >
<polygon points="0,85 2,80 2,90 0,85 " style="fill:white; stroke-width:1; stroke:black; " description="&lt;b&gt;H043_RS0120530&lt;/b&gt;&lt;br&gt;hypothetical protein&lt;br&gt;Location: 67040 - 66846" locus_tag="H043_RS0120530" class="clusterblast-orf" id="dummy-2_h2_9_0"  />
</g>
<g id="a2_001"  >
<polygon points="9,90 18,90 23,85 18,80 9,80 9,90 " style="fill:white; stroke-width:1; stroke:black; " description="&lt;b&gt;H043_RS0120520&lt;/b&gt;&lt;br&gt;lipid kinase YegS&lt;br&gt;Location: 66413 - 65496" locus_tag="H043_RS0120520" class="clusterblast-orf" id="dummy-2_h2_9_1"  />
</g>
<g id="a2_002"  >
<polygon points="22,85 27,80 32,80 32,90 27,90 22,85 " style="fill:white; stroke-width:1; stroke:black; " description="&lt;b&gt;H043_RS0120515&lt;/b&gt;&lt;br&gt;DNA-binding response regulator&lt;br&gt;Location: 65512 - 64853" locus_tag="H043_RS0120515" class="clusterblast-orf" id="dummy-2_h2_9_2"  />
</g>
<g id="a2_003"  >
<polygon points="32,85 37,80 46,80 46,90 37,90 32,85 " style="fill:#d81515; stroke-width:1; stroke:black; " description="&lt;b&gt;H043_RS0120510&lt;/b&gt;&lt;br&gt;sensor histidine kinase&lt;br&gt;Location: 64856 - 63963&lt;br&gt;&lt;br&gt;&lt;b&gt;BlastP hit with ctg1_947&lt;/b&gt;&lt;br&gt;Percentage identity: 82&lt;br&gt;Percentage coverage: 100&lt;br&gt;BLAST bit score: 462&lt;br&gt;E-value: 5.1e-128" locus_tag="H043_RS0120510" class="clusterblast-orf" id="dummy-2_h2_9_3"  />
</g>
<g id="a2_004"  >
<polygon points="53,85 58,80 60,80 60,90 58,90 53,85 " style="fill:#67d815; stroke-width:1; stroke:black; " description="&lt;b&gt;H043_RS0120500&lt;/b&gt;&lt;br&gt;hypothetical protein&lt;br&gt;Location: 63471 - 63001&lt;br&gt;&lt;br&gt;&lt;b&gt;BlastP hit with ctg1_949&lt;/b&gt;&lt;br&gt;Percentage identity: 70&lt;br&gt;Percentage coverage: 100&lt;br&gt;BLAST bit score: 218&lt;br&gt;E-value: 5.1e-55" locus_tag="H043_RS0120500" class="clusterblast-orf" id="dummy-2_h2_9_4"  />
</g>
<g id="a2_005"  >
<polygon points="67,90 76,90 81,85 76,80 67,80 67,90 " style="fill:#15b9d8; stroke-width:1; stroke:black; " description="&lt;b&gt;H043_RS0120495&lt;/b&gt;&lt;br&gt;chemotaxis protein CheV&lt;br&gt;Location: 62544 - 61609&lt;br&gt;&lt;br&gt;&lt;b&gt;BlastP hit with ctg1_950&lt;/b&gt;&lt;br&gt;Percentage identity: 98&lt;br&gt;Percentage coverage: 100&lt;br&gt;BLAST bit score: 601&lt;br&gt;E-value: 7.3e-170" locus_tag="H043_RS0120495" class="clusterblast-orf" id="dummy-2_h2_9_5"  />
</g>
<g id="a2_006"  >
<polygon points="84,90 91,90 96,85 91,80 84,80 84,90 " style="fill:#8615d8; stroke-width:1; stroke:black; " description="&lt;b&gt;H043_RS0120490&lt;/b&gt;&lt;br&gt;MOSC domain-containing protein&lt;br&gt;Location: 61419 - 60613&lt;br&gt;&lt;br&gt;&lt;b&gt;BlastP hit with ctg1_951&lt;/b&gt;&lt;br&gt;Percentage identity: 85&lt;br&gt;Percentage coverage: 100&lt;br&gt;BLAST bit score: 463&lt;br&gt;E-value: 1.6e-128" locus_tag="H043_RS0120490" class="clusterblast-orf" id="dummy-2_h2_9_6"  />
</g>
<g id="a2_007"  >
<polygon points="97,85 102,80 102,80 102,90 102,90 97,85 " style="fill:#d83415; stroke-width:1; stroke:black; " description="&lt;b&gt;H043_RS0120485&lt;/b&gt;&lt;br&gt;DUF1255 domain-containing protein&lt;br&gt;Location: 60541 - 60257&lt;br&gt;&lt;br&gt;&lt;b&gt;BlastP hit with ctg1_952&lt;/b&gt;&lt;br&gt;Percentage identity: 98&lt;br&gt;Percentage coverage: 100&lt;br&gt;BLAST bit score: 193&lt;br&gt;E-value: 1.1e-47" locus_tag="H043_RS0120485" class="clusterblast-orf" id="dummy-2_h2_9_7"  />
</g>
<g id="a2_008"  >
<polygon points="103,85 108,80 111,80 111,90 108,90 103,85 " style="fill:#49d815; stroke-width:1; stroke:black; " description="&lt;b&gt;H043_RS0120480&lt;/b&gt;&lt;br&gt;exonuclease&lt;br&gt;Location: 60143 - 59601&lt;br&gt;&lt;br&gt;&lt;b&gt;BlastP hit with ctg1_953&lt;/b&gt;&lt;br&gt;Percentage identity: 93&lt;br&gt;Percentage coverage: 100&lt;br&gt;BLAST bit score: 354&lt;br&gt;E-value: 9.1e-96" locus_tag="H043_RS0120480" class="clusterblast-orf" id="dummy-2_h2_9_8"  />
</g>
<g id="a2_009"  >
<polygon points="113,85 118,80 142,80 142,90 118,90 113,85 " style="fill:#159bd8; stroke-width:1; stroke:black; " description="&lt;b&gt;H043_RS0120475&lt;/b&gt;&lt;br&gt;acetyl/propionyl/methylcrotonyl-CoA carboxylase subunit alpha&lt;br&gt;Location: 59530 - 57569&lt;br&gt;&lt;br&gt;&lt;b&gt;BlastP hit with ctg1_954&lt;/b&gt;&lt;br&gt;Percentage identity: 77&lt;br&gt;Percentage coverage: 100&lt;br&gt;BLAST bit score: 1012&lt;br&gt;E-value: 2.9e-293" locus_tag="H043_RS0120475" class="clusterblast-orf" id="dummy-2_h2_9_9"  />
</g>
<g id="a2_0010"  >
<polygon points="144,85 149,80 156,80 156,90 149,90 144,85 " style="fill:#a515d8; stroke-width:1; stroke:black; " description="&lt;b&gt;H043_RS0120470&lt;/b&gt;&lt;br&gt;enoyl-CoA hydratase&lt;br&gt;Location: 57458 - 56661&lt;br&gt;&lt;br&gt;&lt;b&gt;BlastP hit with ctg1_955&lt;/b&gt;&lt;br&gt;Percentage identity: 82&lt;br&gt;Percentage coverage: 100&lt;br&gt;BLAST bit score: 419&lt;br&gt;E-value: 3.4e-115" locus_tag="H043_RS0120470" class="clusterblast-orf" id="dummy-2_h2_9_10"  />
</g>
<g id="a2_0011"  >
<polygon points="156,85 161,80 173,80 173,90 161,90 156,85 " style="fill:#d85315; stroke-width:1; stroke:black; " description="&lt;b&gt;H043_RS0120465&lt;/b&gt;&lt;br&gt;acyl-CoA dehydrogenase&lt;br&gt;Location: 56664 - 55507&lt;br&gt;&lt;br&gt;&lt;b&gt;BlastP hit with ctg1_956&lt;/b&gt;&lt;br&gt;Percentage identity: 97&lt;br&gt;Percentage coverage: 100&lt;br&gt;BLAST bit score: 772&lt;br&gt;E-value: 2.3e-221" locus_tag="H043_RS0120465" class="clusterblast-orf" id="dummy-2_h2_9_11"  />
</g>
<g id="a2_0012"  >
<polygon points="174,85 179,80 198,80 198,90 179,90 174,85 " style="fill:#2ad815; stroke-width:1; stroke:black; " description="&lt;b&gt;H043_RS0120460&lt;/b&gt;&lt;br&gt;acyl-CoA carboxylase subunit beta&lt;br&gt;Location: 55476 - 53860&lt;br&gt;&lt;br&gt;&lt;b&gt;BlastP hit with ctg1_957&lt;/b&gt;&lt;br&gt;Percentage identity: 92&lt;br&gt;Percentage coverage: 100&lt;br&gt;BLAST bit score: 993&lt;br&gt;E-value: 6.7e-288" locus_tag="H043_RS0120460" class="clusterblast-orf" id="dummy-2_h2_9_12"  />
</g>
<g id="a2_0013"  >
<polygon points="198,85 203,80 211,80 211,90 203,90 198,85 " style="fill:#157cd8; stroke-width:1; stroke:black; " description="&lt;b&gt;H043_RS0120455&lt;/b&gt;&lt;br&gt;KR domain-containing protein&lt;br&gt;Location: 53856 - 52987&lt;br&gt;&lt;br&gt;&lt;b&gt;BlastP hit with ctg1_958&lt;/b&gt;&lt;br&gt;Percentage identity: 86&lt;br&gt;Percentage coverage: 100&lt;br&gt;BLAST bit score: 513&lt;br&gt;E-value: 1.9e-143" locus_tag="H043_RS0120455" class="clusterblast-orf" id="dummy-2_h2_9_13"  />
</g>
<g id="a2_0014"  >
<polygon points="211,85 216,80 238,80 238,90 216,90 211,85 " style="fill:#c415d8; stroke-width:1; stroke:black; " description="&lt;b&gt;H043_RS0120450&lt;/b&gt;&lt;br&gt;DUF1446 domain-containing protein&lt;br&gt;Location: 52974 - 51184&lt;br&gt;&lt;br&gt;&lt;b&gt;BlastP hit with ctg1_959&lt;/b&gt;&lt;br&gt;Percentage identity: 88&lt;br&gt;Percentage coverage: 99&lt;br&gt;BLAST bit score: 1083&lt;br&gt;E-value: 0.0" locus_tag="H043_RS0120450" class="clusterblast-orf" id="dummy-2_h2_9_14"  />
</g>
<g id="a2_0015"  >
<polygon points="241,90 245,90 250,85 245,80 241,80 241,90 " style="fill:#d87215; stroke-width:1; stroke:black; " description="&lt;b&gt;H043_RS0120445&lt;/b&gt;&lt;br&gt;TetR/AcrR family transcriptional regulator&lt;br&gt;Location: 51000 - 50377&lt;br&gt;&lt;br&gt;&lt;b&gt;BlastP hit with ctg1_960&lt;/b&gt;&lt;br&gt;Percentage identity: 94&lt;br&gt;Percentage coverage: 100&lt;br&gt;BLAST bit score: 383&lt;br&gt;E-value: 2.1e-104" locus_tag="H043_RS0120445" class="clusterblast-orf" id="dummy-2_h2_9_15"  />
</g>
<g id="a2_0016"  >
<polygon points="252,90 259,90 264,85 259,80 252,80 252,90 " style="fill:#15d81f; stroke-width:1; stroke:black; " description="&lt;b&gt;H043_RS0120440&lt;/b&gt;&lt;br&gt;amino acid ABC transporter substrate-binding protein&lt;br&gt;Location: 50284 - 49487&lt;br&gt;&lt;br&gt;&lt;b&gt;BlastP hit with ctg1_961&lt;/b&gt;&lt;br&gt;Percentage identity: 81&lt;br&gt;Percentage coverage: 99&lt;br&gt;BLAST bit score: 433&lt;br&gt;E-value: 1.3e-119&lt;br&gt;&lt;br&gt;&lt;b&gt;BlastP hit with ctg1_963&lt;/b&gt;&lt;br&gt;Percentage identity: 80&lt;br&gt;Percentage coverage: 93&lt;br&gt;BLAST bit score: 69&lt;br&gt;E-value: 1.4e-10" locus_tag="H043_RS0120440" class="clusterblast-orf" id="dummy-2_h2_9_16"  />
</g>
<g id="a2_0017"  >
<polygon points="265,90 275,90 280,85 275,80 265,80 265,90 " style="fill:#d815ce; stroke-width:1; stroke:black; " description="&lt;b&gt;H043_RS0120435&lt;/b&gt;&lt;br&gt;N-acetyltransferase&lt;br&gt;Location: 49407 - 48394&lt;br&gt;&lt;br&gt;&lt;b&gt;BlastP hit with ctg1_965&lt;/b&gt;&lt;br&gt;Percentage identity: 85&lt;br&gt;Percentage coverage: 100&lt;br&gt;BLAST bit score: 618&lt;br&gt;E-value: 4.8e-175" locus_tag="H043_RS0120435" class="clusterblast-orf" id="dummy-2_h2_9_17"  />
</g>
<g id="a2_0018"  >
<polygon points="282,85 287,80 291,80 291,90 287,90 282,85 " style="fill:#d89015; stroke-width:1; stroke:black; " description="&lt;b&gt;H043_RS0120430&lt;/b&gt;&lt;br&gt;RNA polymerase factor sigma-70&lt;br&gt;Location: 48259 - 47705&lt;br&gt;&lt;br&gt;&lt;b&gt;BlastP hit with ctg1_966&lt;/b&gt;&lt;br&gt;Percentage identity: 98&lt;br&gt;Percentage coverage: 97&lt;br&gt;BLAST bit score: 344&lt;br&gt;E-value: 9.5e-93" locus_tag="H043_RS0120430" class="clusterblast-orf" id="dummy-2_h2_9_18"  />
</g>
<g id="a2_0019"  >
<polygon points="296,90 487,90 492,85 487,80 296,80 296,90 " style="fill:#15d83e; stroke-width:1; stroke:black; " description="&lt;b&gt;H043_RS0120425&lt;/b&gt;&lt;br&gt;non-ribosomal peptide synthetase&lt;br&gt;Location: 47334 - 34336&lt;br&gt;&lt;br&gt;&lt;b&gt;BlastP hit with ctg1_967&lt;/b&gt;&lt;br&gt;Percentage identity: 91&lt;br&gt;Percentage coverage: 100&lt;br&gt;BLAST bit score: 7920&lt;br&gt;E-value: 0.0" locus_tag="H043_RS0120425" class="clusterblast-orf" id="dummy-2_h2_9_19"  />
</g>
<g id="a2_0020"  >
<polygon points="495,90 502,90 507,85 502,80 495,80 495,90 " style="fill:#153ed8; stroke-width:1; stroke:black; " description="&lt;b&gt;H043_RS0120420&lt;/b&gt;&lt;br&gt;2-succinyl-6-hydroxy-2, 4-cyclohexadiene-1-carboxylate synthase&lt;br&gt;Location: 34145 - 33330&lt;br&gt;&lt;br&gt;&lt;b&gt;BlastP hit with ctg1_968&lt;/b&gt;&lt;br&gt;Percentage identity: 86&lt;br&gt;Percentage coverage: 100&lt;br&gt;BLAST bit score: 487&lt;br&gt;E-value: 1.3e-135" locus_tag="H043_RS0120420" class="clusterblast-orf" id="dummy-2_h2_9_20"  />
</g>
<g id="a2_0021"  >
<polygon points="509,85 514,80 520,80 520,90 514,90 509,85 " style="fill:#d815af; stroke-width:1; stroke:black; " description="&lt;b&gt;H043_RS0120415&lt;/b&gt;&lt;br&gt;thiol:disulfide interchange protein DsbG&lt;br&gt;Location: 33216 - 32446&lt;br&gt;&lt;br&gt;&lt;b&gt;BlastP hit with ctg1_969&lt;/b&gt;&lt;br&gt;Percentage identity: 90&lt;br&gt;Percentage coverage: 100&lt;br&gt;BLAST bit score: 473&lt;br&gt;E-value: 1.9e-131" locus_tag="H043_RS0120415" class="clusterblast-orf" id="dummy-2_h2_9_21"  />
</g>
<g id="a2_0022"  >
<polygon points="520,85 525,80 533,80 533,90 525,90 520,85 " style="fill:#d8af15; stroke-width:1; stroke:black; " description="&lt;b&gt;H043_RS0120410&lt;/b&gt;&lt;br&gt;peroxiredoxin&lt;br&gt;Location: 32470 - 31601&lt;br&gt;&lt;br&gt;&lt;b&gt;BlastP hit with ctg1_970&lt;/b&gt;&lt;br&gt;Percentage identity: 91&lt;br&gt;Percentage coverage: 100&lt;br&gt;BLAST bit score: 532&lt;br&gt;E-value: 2.3e-149" locus_tag="H043_RS0120410" class="clusterblast-orf" id="dummy-2_h2_9_22"  />
</g>
<g id="a2_0023"  >
<polygon points="533,85 538,80 559,80 559,90 538,90 533,85 " style="fill:#15d85d; stroke-width:1; stroke:black; " description="&lt;b&gt;H043_RS0120405&lt;/b&gt;&lt;br&gt;protein-disulfide reductase DsbD&lt;br&gt;Location: 31600 - 29867&lt;br&gt;&lt;br&gt;&lt;b&gt;BlastP hit with ctg1_971&lt;/b&gt;&lt;br&gt;Percentage identity: 83&lt;br&gt;Percentage coverage: 100&lt;br&gt;BLAST bit score: 949&lt;br&gt;E-value: 2e-274" locus_tag="H043_RS0120405" class="clusterblast-orf" id="dummy-2_h2_9_23"  />
</g>
<g id="a2_0024"  >
<polygon points="561,90 567,90 572,85 567,80 561,80 561,90 " style="fill:#151fd8; stroke-width:1; stroke:black; " description="&lt;b&gt;H043_RS0120400&lt;/b&gt;&lt;br&gt;DNA-binding response regulator&lt;br&gt;Location: 29713 - 29033&lt;br&gt;&lt;br&gt;&lt;b&gt;BlastP hit with ctg1_972&lt;/b&gt;&lt;br&gt;Percentage identity: 95&lt;br&gt;Percentage coverage: 100&lt;br&gt;BLAST bit score: 412&lt;br&gt;E-value: 2.7e-113" locus_tag="H043_RS0120400" class="clusterblast-orf" id="dummy-2_h2_9_24"  />
</g>
<g id="a2_0025"  >
<polygon points="572,90 586,90 591,85 586,80 572,80 572,90 " style="fill:#d81590; stroke-width:1; stroke:black; " description="&lt;b&gt;H043_RS0120395&lt;/b&gt;&lt;br&gt;two-component sensor histidine kinase&lt;br&gt;Location: 29033 - 27711&lt;br&gt;&lt;br&gt;&lt;b&gt;BlastP hit with ctg1_973&lt;/b&gt;&lt;br&gt;Percentage identity: 92&lt;br&gt;Percentage coverage: 100&lt;br&gt;BLAST bit score: 793&lt;br&gt;E-value: 1.1e-227" locus_tag="H043_RS0120395" class="clusterblast-orf" id="dummy-2_h2_9_25"  />
</g>
<g id="a2_0026"  >
<polygon points="595,90 597,90 602,85 597,80 595,80 595,90 " style="fill:#d8ce15; stroke-width:1; stroke:black; " description="&lt;b&gt;H043_RS0120390&lt;/b&gt;&lt;br&gt;N-acetyltransferase&lt;br&gt;Location: 27493 - 27008&lt;br&gt;&lt;br&gt;&lt;b&gt;BlastP hit with ctg1_974&lt;/b&gt;&lt;br&gt;Percentage identity: 61&lt;br&gt;Percentage coverage: 99&lt;br&gt;BLAST bit score: 205&lt;br&gt;E-value: 3.6e-51" locus_tag="H043_RS0120390" class="clusterblast-orf" id="dummy-2_h2_9_26"  />
</g>
<g id="a2_0027"  >
<polygon points="604,90 620,90 625,85 620,80 604,80 604,90 " style="fill:#15d87c; stroke-width:1; stroke:black; " description="&lt;b&gt;H043_RS0120385&lt;/b&gt;&lt;br&gt;diaminobutyrate--2-oxoglutarate transaminase&lt;br&gt;Location: 26864 - 25452&lt;br&gt;&lt;br&gt;&lt;b&gt;BlastP hit with ctg1_975&lt;/b&gt;&lt;br&gt;Percentage identity: 93&lt;br&gt;Percentage coverage: 100&lt;br&gt;BLAST bit score: 865&lt;br&gt;E-value: 3.2e-249" locus_tag="H043_RS0120385" class="clusterblast-orf" id="dummy-2_h2_9_27"  />
</g>
<g id="a2_0028"  >
<polygon points="627,90 630,85 627,80 627,90 " style="fill:#2a15d8; stroke-width:1; stroke:black; " description="&lt;b&gt;H043_RS0120380&lt;/b&gt;&lt;br&gt;MbtH family protein&lt;br&gt;Location: 25368 - 25144&lt;br&gt;&lt;br&gt;&lt;b&gt;BlastP hit with ctg1_976&lt;/b&gt;&lt;br&gt;Percentage identity: 96&lt;br&gt;Percentage coverage: 96&lt;br&gt;BLAST bit score: 148&lt;br&gt;E-value: 3.1e-34" locus_tag="H043_RS0120380" class="clusterblast-orf" id="dummy-2_h2_9_28"  />
</g>
<g id="a2_0029"  >
<polygon points="633,85 638,80 647,80 647,90 638,90 633,85 " style="fill:#d81572; stroke-width:1; stroke:black; " description="&lt;b&gt;H043_RS0120375&lt;/b&gt;&lt;br&gt;metal ABC transporter substrate-binding protein&lt;br&gt;Location: 24958 - 24053&lt;br&gt;&lt;br&gt;&lt;b&gt;BlastP hit with ctg1_977&lt;/b&gt;&lt;br&gt;Percentage identity: 73&lt;br&gt;Percentage coverage: 100&lt;br&gt;BLAST bit score: 457&lt;br&gt;E-value: 1.4e-126" locus_tag="H043_RS0120375" class="clusterblast-orf" id="dummy-2_h2_9_29"  />
</g>
<g id="a2_0030"  >
<polygon points="647,85 652,80 660,80 660,90 652,90 647,85 " style="fill:#c4d815; stroke-width:1; stroke:black; " description="&lt;b&gt;H043_RS0120370&lt;/b&gt;&lt;br&gt;metal ABC transporter permease&lt;br&gt;Location: 24052 - 23153&lt;br&gt;&lt;br&gt;&lt;b&gt;BlastP hit with ctg1_978&lt;/b&gt;&lt;br&gt;Percentage identity: 99&lt;br&gt;Percentage coverage: 100&lt;br&gt;BLAST bit score: 483&lt;br&gt;E-value: 2.1e-134" locus_tag="H043_RS0120370" class="clusterblast-orf" id="dummy-2_h2_9_30"  />
</g>
<g id="a2_0031"  >
<polygon points="660,85 665,80 673,80 673,90 665,90 660,85 " style="fill:#15d89b; stroke-width:1; stroke:black; " description="&lt;b&gt;H043_RS0120365&lt;/b&gt;&lt;br&gt;metal ABC transporter ATP-binding protein&lt;br&gt;Location: 23153 - 22305&lt;br&gt;&lt;br&gt;&lt;b&gt;BlastP hit with ctg1_979&lt;/b&gt;&lt;br&gt;Percentage identity: 87&lt;br&gt;Percentage coverage: 100&lt;br&gt;BLAST bit score: 474&lt;br&gt;E-value: 7.3e-132" locus_tag="H043_RS0120365" class="clusterblast-orf" id="dummy-2_h2_9_31"  />
</g>
<g id="a2_0032"  >
<polygon points="673,85 678,80 687,80 687,90 678,90 673,85 " style="fill:#4915d8; stroke-width:1; stroke:black; " description="&lt;b&gt;H043_RS0120360&lt;/b&gt;&lt;br&gt;ABC transporter substrate-binding protein&lt;br&gt;Location: 22308 - 21379&lt;br&gt;&lt;br&gt;&lt;b&gt;BlastP hit with ctg1_980&lt;/b&gt;&lt;br&gt;Percentage identity: 94&lt;br&gt;Percentage coverage: 99&lt;br&gt;BLAST bit score: 561&lt;br&gt;E-value: 4.9e-158" locus_tag="H043_RS0120360" class="clusterblast-orf" id="dummy-2_h2_9_32"  />
</g>
<g id="a2_0033"  >
<polygon points="687,85 692,80 696,80 696,90 692,90 687,85 " style="fill:#d81553; stroke-width:1; stroke:black; " description="&lt;b&gt;H043_RS0120355&lt;/b&gt;&lt;br&gt;hypothetical protein&lt;br&gt;Location: 21343 - 20768&lt;br&gt;&lt;br&gt;&lt;b&gt;BlastP hit with ctg1_981&lt;/b&gt;&lt;br&gt;Percentage identity: 79&lt;br&gt;Percentage coverage: 101&lt;br&gt;BLAST bit score: 295&lt;br&gt;E-value: 4e-78" locus_tag="H043_RS0120355" class="clusterblast-orf" id="dummy-2_h2_9_33"  />
</g>
<g id="a2_0034"  >
<polygon points="696,85 701,80 701,80 701,90 701,90 696,85 " style="fill:#a5d815; stroke-width:1; stroke:black; " description="&lt;b&gt;H043_RS0120350&lt;/b&gt;&lt;br&gt;hypothetical protein&lt;br&gt;Location: 20771 - 20430&lt;br&gt;&lt;br&gt;&lt;b&gt;BlastP hit with ctg1_982&lt;/b&gt;&lt;br&gt;Percentage identity: 92&lt;br&gt;Percentage coverage: 94&lt;br&gt;BLAST bit score: 194&lt;br&gt;E-value: 5.6e-48" locus_tag="H043_RS0120350" class="clusterblast-orf" id="dummy-2_h2_9_34"  />
</g>
<g id="a2_0035"  >
<polygon points="701,85 706,80 709,80 709,90 706,90 701,85 " style="fill:#15d8b9; stroke-width:1; stroke:black; " description="&lt;b&gt;H043_RS0120345&lt;/b&gt;&lt;br&gt;hypothetical protein&lt;br&gt;Location: 20433 - 19891&lt;br&gt;&lt;br&gt;&lt;b&gt;BlastP hit with ctg1_983&lt;/b&gt;&lt;br&gt;Percentage identity: 83&lt;br&gt;Percentage coverage: 96&lt;br&gt;BLAST bit score: 305&lt;br&gt;E-value: 3.7e-81" locus_tag="H043_RS0120345" class="clusterblast-orf" id="dummy-2_h2_9_35"  />
</g>
<g id="a2_0036"  >
<polygon points="709,85 714,80 727,80 727,90 714,90 709,85 " style="fill:#6715d8; stroke-width:1; stroke:black; " description="&lt;b&gt;H043_RS0120340&lt;/b&gt;&lt;br&gt;PepSY domain-containing protein&lt;br&gt;Location: 19894 - 18704&lt;br&gt;&lt;br&gt;&lt;b&gt;BlastP hit with ctg1_984&lt;/b&gt;&lt;br&gt;Percentage identity: 86&lt;br&gt;Percentage coverage: 100&lt;br&gt;BLAST bit score: 706&lt;br&gt;E-value: 2.1e-201" locus_tag="H043_RS0120340" class="clusterblast-orf" id="dummy-2_h2_9_36"  />
</g>
<g id="a2_0037"  >
<polygon points="729,85 731,80 731,90 729,85 " style="fill:white; stroke-width:1; stroke:black; " description="&lt;b&gt;H043_RS29895&lt;/b&gt;&lt;br&gt;alpha-2 type XI collagen&lt;br&gt;Location: 18556 - 18422" locus_tag="H043_RS29895" class="clusterblast-orf" id="dummy-2_h2_9_37"  />
</g>
<g id="a2_0038"  >
<polygon points="733,90 749,90 754,85 749,80 733,80 733,90 " style="fill:#d81534; stroke-width:1; stroke:black; " description="&lt;b&gt;H043_RS0120335&lt;/b&gt;&lt;br&gt;3-isopropylmalate dehydratase large subunit&lt;br&gt;Location: 18312 - 16894&lt;br&gt;&lt;br&gt;&lt;b&gt;BlastP hit with ctg1_985&lt;/b&gt;&lt;br&gt;Percentage identity: 89&lt;br&gt;Percentage coverage: 100&lt;br&gt;BLAST bit score: 836&lt;br&gt;E-value: 1.6e-240" locus_tag="H043_RS0120335" class="clusterblast-orf" id="dummy-2_h2_9_38"  />
</g>
<g id="a2_0039"  >
<polygon points="754,90 758,90 763,85 758,80 754,80 754,90 " style="fill:#86d815; stroke-width:1; stroke:black; " description="&lt;b&gt;H043_RS0120330&lt;/b&gt;&lt;br&gt;3-isopropylmalate dehydratase small subunit&lt;br&gt;Location: 16897 - 16283&lt;br&gt;&lt;br&gt;&lt;b&gt;BlastP hit with ctg1_986&lt;/b&gt;&lt;br&gt;Percentage identity: 85&lt;br&gt;Percentage coverage: 100&lt;br&gt;BLAST bit score: 359&lt;br&gt;E-value: 2.4e-97" locus_tag="H043_RS0120330" class="clusterblast-orf" id="dummy-2_h2_9_39"  />
</g>
<g id="a2_0040"  >
<polygon points="765,85 770,80 780,80 780,90 770,90 765,85 " style="fill:#15d8d8; stroke-width:1; stroke:black; " description="&lt;b&gt;H043_RS0120325&lt;/b&gt;&lt;br&gt;LysR family transcriptional regulator&lt;br&gt;Location: 16168 - 15218&lt;br&gt;&lt;br&gt;&lt;b&gt;BlastP hit with ctg1_987&lt;/b&gt;&lt;br&gt;Percentage identity: 89&lt;br&gt;Percentage coverage: 100&lt;br&gt;BLAST bit score: 529&lt;br&gt;E-value: 1.9e-148" locus_tag="H043_RS0120325" class="clusterblast-orf" id="dummy-2_h2_9_40"  />
</g>
</svg>
