<svg xmlns="http://www.w3.org/2000/svg" xmlns:xlink="http://www.w3.org/1999/xlink" version="1.1" x="0" y="0" height="230" width="800" viewBox="0 0 800 230" preserveAspectRatio="none"  >
<g label="Query sequence" class="clusterblast-cluster"  >
<text x="5" y="20" class="clusterblast-acc"  >
Query sequence</text>
<line x1="10" y1="35" x2="778.0" y2="35" style="stroke-width:1; stroke:grey; "  />
<polygon points="212,40 214,40 219,35 214,30 212,30 212,40 " style="fill:white; stroke-width:1; stroke:black; " description="&lt;b&gt;ctg3_16&lt;/b&gt;&lt;br&gt;ctg3 16&lt;br&gt;Location: 14210 - 14657" locus_tag="ctg3_16" class="clusterblast-orf" id="dummy-1_q0_0_all"  />
<polygon points="220,35 225,30 238,30 238,40 225,40 220,35 " style="fill:white; stroke-width:1; stroke:black; " description="&lt;b&gt;ctg3_17&lt;/b&gt;&lt;br&gt;ctg3 17&lt;br&gt;Location: 14694 - 15846" locus_tag="ctg3_17" class="clusterblast-orf" id="dummy-1_q1_0_all"  />
<polygon points="245,35 250,30 251,30 251,40 250,40 245,35 " style="fill:white; stroke-width:1; stroke:black; " description="&lt;b&gt;ctg3_18&lt;/b&gt;&lt;br&gt;ctg3 18&lt;br&gt;Location: 16328 - 16670" locus_tag="ctg3_18" class="clusterblast-orf" id="dummy-1_q2_0_all"  />
<polygon points="253,40 258,40 263,35 258,30 253,30 253,40 " style="fill:white; stroke-width:1; stroke:black; " description="&lt;b&gt;ctg3_19&lt;/b&gt;&lt;br&gt;ctg3 19&lt;br&gt;Location: 16800 - 17451" locus_tag="ctg3_19" class="clusterblast-orf" id="dummy-1_q3_0_all"  />
<polygon points="264,35 269,30 294,30 294,40 269,40 264,35 " style="fill:#d81515; stroke-width:1; stroke:black; " description="&lt;b&gt;ctg3_20&lt;/b&gt;&lt;br&gt;ctg3 20&lt;br&gt;Location: 17490 - 19440" locus_tag="ctg3_20" class="clusterblast-orf" id="dummy-1_q4_0_all"  />
<polygon points="294,35 299,30 307,30 307,40 299,40 294,35 " style="fill:#77d815; stroke-width:1; stroke:black; " description="&lt;b&gt;ctg3_21&lt;/b&gt;&lt;br&gt;ctg3 21&lt;br&gt;Location: 19439 - 20252" locus_tag="ctg3_21" class="clusterblast-orf" id="dummy-1_q5_0_all"  />
<polygon points="308,35 313,30 333,30 333,40 313,40 308,35 " style="fill:#15d8d8; stroke-width:1; stroke:black; " description="&lt;b&gt;ctg3_22&lt;/b&gt;&lt;br&gt;ctg3 22&lt;br&gt;Location: 20357 - 21965" locus_tag="ctg3_22" class="clusterblast-orf" id="dummy-1_q6_0_all"  />
<polygon points="334,35 339,30 352,30 352,40 339,40 334,35 " style="fill:#7715d8; stroke-width:1; stroke:black; " description="&lt;b&gt;ctg3_23&lt;/b&gt;&lt;br&gt;ctg3 23&lt;br&gt;Location: 21977 - 23141" locus_tag="ctg3_23" class="clusterblast-orf" id="dummy-1_q7_0_all"  />
<polygon points="357,40 379,40 384,35 379,30 357,30 357,40 " style="fill:#d8a715; stroke-width:1; stroke:black; " description="&lt;b&gt;ctg3_24&lt;/b&gt;&lt;br&gt;ctg3 24&lt;br&gt;Location: 23480 - 25178" locus_tag="ctg3_24" class="clusterblast-orf" id="dummy-1_q8_0_all"  />
<polygon points="386,35 391,30 397,30 397,40 391,40 386,35 " style="fill:white; stroke-width:1; stroke:black; " description="&lt;b&gt;ctg3_25&lt;/b&gt;&lt;br&gt;ctg3 25&lt;br&gt;Location: 25316 - 26069" locus_tag="ctg3_25" class="clusterblast-orf" id="dummy-1_q9_0_all"  />
<polygon points="399,35 404,30 413,30 413,40 404,40 399,35 " style="fill:#15d846; stroke-width:1; stroke:black; " description="&lt;b&gt;ctg3_26&lt;/b&gt;&lt;br&gt;ctg3 26&lt;br&gt;Location: 26190 - 27093" locus_tag="ctg3_26" class="clusterblast-orf" id="dummy-1_q10_0_all"  />
<polygon points="423,35 428,30 437,30 437,40 428,40 423,35 " style="fill:#1546d8; stroke-width:1; stroke:black; " description="&lt;b&gt;ctg3_27&lt;/b&gt;&lt;br&gt;ctg3 27&lt;br&gt;Location: 27727 - 28627" locus_tag="ctg3_27" class="clusterblast-orf" id="dummy-1_q11_0_all"  />
<polygon points="439,35 444,30 446,30 446,40 444,40 439,35 " style="fill:#d815a7; stroke-width:1; stroke:black; " description="&lt;b&gt;ctg3_28&lt;/b&gt;&lt;br&gt;ctg3 28&lt;br&gt;Location: 28763 - 29165" locus_tag="ctg3_28" class="clusterblast-orf" id="dummy-1_q12_0_all"  />
<polygon points="449,35 454,30 464,30 464,40 454,40 449,35 " style="fill:white; stroke-width:1; stroke:black; " description="&lt;b&gt;ctg3_29&lt;/b&gt;&lt;br&gt;ctg3 29&lt;br&gt;Location: 29378 - 30308" locus_tag="ctg3_29" class="clusterblast-orf" id="dummy-1_q13_0_all"  />
<polygon points="466,40 480,40 485,35 480,30 466,30 466,40 " style="fill:#7715d8; stroke-width:1; stroke:black; " description="&lt;b&gt;ctg3_30&lt;/b&gt;&lt;br&gt;ctg3 30&lt;br&gt;Location: 30462 - 31692" locus_tag="ctg3_30" class="clusterblast-orf" id="dummy-1_q14_0_all"  />
<polygon points="488,35 493,30 509,30 509,40 493,40 488,35 " style="fill:white; stroke-width:1; stroke:black; " description="&lt;b&gt;ctg3_31&lt;/b&gt;&lt;br&gt;ctg3 31&lt;br&gt;Location: 31846 - 33187" locus_tag="ctg3_31" class="clusterblast-orf" id="dummy-1_q15_0_all"  />
<polygon points="512,35 517,30 524,30 524,40 517,40 512,35 " style="fill:white; stroke-width:1; stroke:black; " description="&lt;b&gt;ctg3_32&lt;/b&gt;&lt;br&gt;ctg3 32&lt;br&gt;Location: 33379 - 34192" locus_tag="ctg3_32" class="clusterblast-orf" id="dummy-1_q16_0_all"  />
<polygon points="529,40 534,40 539,35 534,30 529,30 529,40 " style="fill:white; stroke-width:1; stroke:black; " description="&lt;b&gt;ctg3_33&lt;/b&gt;&lt;br&gt;ctg3 33&lt;br&gt;Location: 34490 - 35141" locus_tag="ctg3_33" class="clusterblast-orf" id="dummy-1_q17_0_all"  />
<polygon points="541,40 562,40 567,35 562,30 541,30 541,40 " style="fill:white; stroke-width:1; stroke:black; " description="&lt;b&gt;ctg3_34&lt;/b&gt;&lt;br&gt;ctg3 34&lt;br&gt;Location: 35242 - 36934" locus_tag="ctg3_34" class="clusterblast-orf" id="dummy-1_q18_0_all"  />
</g>
<g label="NZ_FOKT01000004" description="NZ_FOKT01000004_c3: Microbulbifer thermotolerans strain DSM 19189, whole geno... (14% of genes show similarity), nrps" class="clusterblast-cluster"  >
<text x="5" y="70" class="clusterblast-acc"  >
<a xlink:href="https://antismash-db.secondarymetabolites.org/go/NZ_FOKT01000004/3" target="_blank">NZ_FOKT01000004_c3</a>: Microbulbifer thermotolerans strain DSM 19189, whole geno... (14% of genes show similarity), nrps</text>
<line x1="10" y1="85" x2="778.0" y2="85" style="stroke-width:1; stroke:grey; "  />
</g>
<g id="a1_000"  >
<polygon points="0,90 0,90 5,85 0,80 0,80 0,90 " style="fill:white; stroke-width:1; stroke:black; " description="&lt;b&gt;BM155_RS08200&lt;/b&gt;&lt;br&gt;hypothetical protein&lt;br&gt;Location: 285664 - 285311" locus_tag="BM155_RS08200" class="clusterblast-orf" id="dummy-1_h1_9_0"  />
</g>
<g id="a1_001"  >
<polygon points="10,85 15,80 29,80 29,90 15,90 10,85 " style="fill:white; stroke-width:1; stroke:black; " description="&lt;b&gt;BM155_RS08195&lt;/b&gt;&lt;br&gt;DUF945 domain-containing protein&lt;br&gt;Location: 285010 - 283775" locus_tag="BM155_RS08195" class="clusterblast-orf" id="dummy-1_h1_9_1"  />
</g>
<g id="a1_002"  >
<polygon points="31,85 36,80 45,80 45,90 36,90 31,85 " style="fill:#1546d8; stroke-width:1; stroke:black; " description="&lt;b&gt;BM155_RS08190&lt;/b&gt;&lt;br&gt;hydroxymethylglutaryl-CoA lyase&lt;br&gt;Location: 283615 - 282719&lt;br&gt;&lt;br&gt;&lt;b&gt;BlastP hit with ctg3_27&lt;/b&gt;&lt;br&gt;Percentage identity: 68&lt;br&gt;Percentage coverage: 99&lt;br&gt;BLAST bit score: 399&lt;br&gt;E-value: 4.1e-109" locus_tag="BM155_RS08190" class="clusterblast-orf" id="dummy-1_h1_9_2"  />
</g>
<g id="a1_003"  >
<polygon points="46,85 51,80 77,80 77,90 51,90 46,85 " style="fill:#d81515; stroke-width:1; stroke:black; " description="&lt;b&gt;BM155_RS08185&lt;/b&gt;&lt;br&gt;acetyl/propionyl/methylcrotonyl-CoA carboxylase subunit alpha&lt;br&gt;Location: 282716 - 280719&lt;br&gt;&lt;br&gt;&lt;b&gt;BlastP hit with ctg3_20&lt;/b&gt;&lt;br&gt;Percentage identity: 51&lt;br&gt;Percentage coverage: 103&lt;br&gt;BLAST bit score: 611&lt;br&gt;E-value: 1.5e-172" locus_tag="BM155_RS08185" class="clusterblast-orf" id="dummy-1_h1_9_3"  />
</g>
<g id="a1_004"  >
<polygon points="77,85 82,80 89,80 89,90 82,90 77,85 " style="fill:#77d815; stroke-width:1; stroke:black; " description="&lt;b&gt;BM155_RS08180&lt;/b&gt;&lt;br&gt;gamma-carboxygeranoyl-CoA hydratase&lt;br&gt;Location: 280708 - 279911&lt;br&gt;&lt;br&gt;&lt;b&gt;BlastP hit with ctg3_21&lt;/b&gt;&lt;br&gt;Percentage identity: 49&lt;br&gt;Percentage coverage: 96&lt;br&gt;BLAST bit score: 241&lt;br&gt;E-value: 9.8e-62" locus_tag="BM155_RS08180" class="clusterblast-orf" id="dummy-1_h1_9_4"  />
</g>
<g id="a1_005"  >
<polygon points="91,85 96,80 116,80 116,90 96,90 91,85 " style="fill:#15d8d8; stroke-width:1; stroke:black; " description="&lt;b&gt;BM155_RS08175&lt;/b&gt;&lt;br&gt;methylcrotonoyl-CoA carboxylase&lt;br&gt;Location: 279827 - 278220&lt;br&gt;&lt;br&gt;&lt;b&gt;BlastP hit with ctg3_22&lt;/b&gt;&lt;br&gt;Percentage identity: 73&lt;br&gt;Percentage coverage: 99&lt;br&gt;BLAST bit score: 790&lt;br&gt;E-value: 1.5e-226" locus_tag="BM155_RS08175" class="clusterblast-orf" id="dummy-1_h1_9_5"  />
</g>
<g id="a1_006"  >
<polygon points="116,85 121,80 134,80 134,90 121,90 116,85 " style="fill:#7715d8; stroke-width:1; stroke:black; " description="&lt;b&gt;BM155_RS08170&lt;/b&gt;&lt;br&gt;isovaleryl-CoA dehydrogenase&lt;br&gt;Location: 278184 - 277015&lt;br&gt;&lt;br&gt;&lt;b&gt;BlastP hit with ctg3_23&lt;/b&gt;&lt;br&gt;Percentage identity: 76&lt;br&gt;Percentage coverage: 99&lt;br&gt;BLAST bit score: 618&lt;br&gt;E-value: 7.2e-175" locus_tag="BM155_RS08170" class="clusterblast-orf" id="dummy-1_h1_9_6"  />
</g>
<g id="a1_007"  >
<polygon points="135,85 140,80 141,80 141,90 140,90 135,85 " style="fill:#d815a7; stroke-width:1; stroke:black; " description="&lt;b&gt;BM155_RS08165&lt;/b&gt;&lt;br&gt;MerR family DNA-binding transcriptional regulator&lt;br&gt;Location: 276990 - 276586&lt;br&gt;&lt;br&gt;&lt;b&gt;BlastP hit with ctg3_28&lt;/b&gt;&lt;br&gt;Percentage identity: 63&lt;br&gt;Percentage coverage: 90&lt;br&gt;BLAST bit score: 148&lt;br&gt;E-value: 7.3e-34" locus_tag="BM155_RS08165" class="clusterblast-orf" id="dummy-1_h1_9_7"  />
</g>
<g id="a1_008"  >
<polygon points="145,85 150,80 161,80 161,90 150,90 145,85 " style="fill:white; stroke-width:1; stroke:black; " description="&lt;b&gt;BM155_RS08160&lt;/b&gt;&lt;br&gt;hypothetical protein&lt;br&gt;Location: 276356 - 275286" locus_tag="BM155_RS08160" class="clusterblast-orf" id="dummy-1_h1_9_8"  />
</g>
<g id="a1_009"  >
<polygon points="163,90 176,90 181,85 176,80 163,80 163,90 " style="fill:white; stroke-width:1; stroke:black; " description="&lt;b&gt;BM155_RS08155&lt;/b&gt;&lt;br&gt;phosphoserine phosphatase SerB&lt;br&gt;Location: 275183 - 274062" locus_tag="BM155_RS08155" class="clusterblast-orf" id="dummy-1_h1_9_9"  />
</g>
<g id="a1_0010"  >
<polygon points="184,85 189,80 215,80 215,90 189,90 184,85 " style="fill:white; stroke-width:1; stroke:black; " description="&lt;b&gt;BM155_RS08150&lt;/b&gt;&lt;br&gt;M1 family peptidase&lt;br&gt;Location: 273820 - 271868" locus_tag="BM155_RS08150" class="clusterblast-orf" id="dummy-1_h1_9_10"  />
</g>
<g id="a1_0011"  >
<polygon points="216,85 221,80 249,80 249,90 221,90 216,85 " style="fill:white; stroke-width:1; stroke:black; " description="&lt;b&gt;BM155_RS08145&lt;/b&gt;&lt;br&gt;PAS domain S-box protein&lt;br&gt;Location: 271771 - 269684" locus_tag="BM155_RS08145" class="clusterblast-orf" id="dummy-1_h1_9_11"  />
</g>
<g id="a1_0012"  >
<polygon points="251,85 256,80 267,80 267,90 256,90 251,85 " style="fill:white; stroke-width:1; stroke:black; " description="&lt;b&gt;BM155_RS08140&lt;/b&gt;&lt;br&gt;EF-P beta-lysylation protein EpmB&lt;br&gt;Location: 269532 - 268516" locus_tag="BM155_RS08140" class="clusterblast-orf" id="dummy-1_h1_9_12"  />
</g>
<g id="a1_0013"  >
<polygon points="275,90 288,90 293,85 288,80 275,80 275,90 " style="fill:white; stroke-width:1; stroke:black; " description="&lt;b&gt;BM155_RS08135&lt;/b&gt;&lt;br&gt;3-dehydroquinate synthase&lt;br&gt;Location: 267994 - 266885" locus_tag="BM155_RS08135" class="clusterblast-orf" id="dummy-1_h1_9_13"  />
</g>
<g id="a1_0014"  >
<polygon points="294,90 306,90 311,85 306,80 294,80 294,90 " style="fill:white; stroke-width:1; stroke:black; " description="&lt;b&gt;BM155_RS08130&lt;/b&gt;&lt;br&gt;hypothetical protein&lt;br&gt;Location: 266811 - 265702" locus_tag="BM155_RS08130" class="clusterblast-orf" id="dummy-1_h1_9_14"  />
</g>
<g id="a1_0015"  >
<polygon points="311,90 328,90 333,85 328,80 311,80 311,90 " style="fill:white; stroke-width:1; stroke:black; " description="&lt;b&gt;BM155_RS08125&lt;/b&gt;&lt;br&gt;hypothetical protein&lt;br&gt;Location: 265691 - 264282" locus_tag="BM155_RS08125" class="clusterblast-orf" id="dummy-1_h1_9_15"  />
</g>
<g id="a1_0016"  >
<polygon points="333,90 356,90 361,85 356,80 333,80 333,90 " style="fill:white; stroke-width:1; stroke:black; " description="&lt;b&gt;BM155_RS08120&lt;/b&gt;&lt;br&gt;long-chain fatty acid--CoA ligase&lt;br&gt;Location: 264274 - 262496" locus_tag="BM155_RS08120" class="clusterblast-orf" id="dummy-1_h1_9_16"  />
</g>
<g id="a1_0017"  >
<polygon points="361,90 375,90 380,85 375,80 361,80 361,90 " style="fill:white; stroke-width:1; stroke:black; " description="&lt;b&gt;BM155_RS08115&lt;/b&gt;&lt;br&gt;hypothetical protein&lt;br&gt;Location: 262526 - 261255" locus_tag="BM155_RS08115" class="clusterblast-orf" id="dummy-1_h1_9_17"  />
</g>
<g id="a1_0018"  >
<polygon points="381,90 388,90 393,85 388,80 381,80 381,90 " style="fill:white; stroke-width:1; stroke:black; " description="&lt;b&gt;BM155_RS08110&lt;/b&gt;&lt;br&gt;ABC transporter ATP-binding protein&lt;br&gt;Location: 261218 - 260481" locus_tag="BM155_RS08110" class="clusterblast-orf" id="dummy-1_h1_9_18"  />
</g>
<g id="a1_0019"  >
<polygon points="393,90 418,90 423,85 418,80 393,80 393,90 " style="fill:white; stroke-width:1; stroke:black; " description="&lt;b&gt;BM155_RS08105&lt;/b&gt;&lt;br&gt;outer membrane lipoprotein-sorting protein&lt;br&gt;Location: 260481 - 258505" locus_tag="BM155_RS08105" class="clusterblast-orf" id="dummy-1_h1_9_19"  />
</g>
<g id="a1_0020"  >
<polygon points="424,90 439,90 444,85 439,80 424,80 424,90 " style="fill:white; stroke-width:1; stroke:black; " description="&lt;b&gt;BM155_RS08100&lt;/b&gt;&lt;br&gt;hypothetical protein&lt;br&gt;Location: 258470 - 257172" locus_tag="BM155_RS08100" class="clusterblast-orf" id="dummy-1_h1_9_20"  />
</g>
<g id="a1_0021"  >
<polygon points="445,90 453,90 458,85 453,80 445,80 445,90 " style="fill:white; stroke-width:1; stroke:black; " description="&lt;b&gt;BM155_RS08095&lt;/b&gt;&lt;br&gt;aldolase&lt;br&gt;Location: 257138 - 256317" locus_tag="BM155_RS08095" class="clusterblast-orf" id="dummy-1_h1_9_21"  />
</g>
<g id="a1_0022"  >
<polygon points="458,90 477,90 482,85 477,80 458,80 458,90 " style="fill:white; stroke-width:1; stroke:black; " description="&lt;b&gt;BM155_RS08090&lt;/b&gt;&lt;br&gt;hypothetical protein&lt;br&gt;Location: 256258 - 254720" locus_tag="BM155_RS08090" class="clusterblast-orf" id="dummy-1_h1_9_22"  />
</g>
<g id="a1_0023"  >
<polygon points="482,85 487,80 494,80 494,90 487,90 482,85 " style="fill:white; stroke-width:1; stroke:black; " description="&lt;b&gt;BM155_RS08085&lt;/b&gt;&lt;br&gt;LuxR family transcriptional regulator&lt;br&gt;Location: 254723 - 253995" locus_tag="BM155_RS08085" class="clusterblast-orf" id="dummy-1_h1_9_23"  />
</g>
<g id="a1_0024"  >
<polygon points="497,90 503,90 508,85 503,80 497,80 497,90 " style="fill:white; stroke-width:1; stroke:black; " description="&lt;b&gt;BM155_RS08080&lt;/b&gt;&lt;br&gt;iron-containing redox enzyme family protein&lt;br&gt;Location: 253808 - 253080" locus_tag="BM155_RS08080" class="clusterblast-orf" id="dummy-1_h1_9_24"  />
</g>
<g id="a1_0025"  >
<polygon points="509,90 516,90 521,85 516,80 509,80 509,90 " style="fill:white; stroke-width:1; stroke:black; " description="&lt;b&gt;BM155_RS08075&lt;/b&gt;&lt;br&gt;aldolase&lt;br&gt;Location: 253045 - 252248" locus_tag="BM155_RS08075" class="clusterblast-orf" id="dummy-1_h1_9_25"  />
</g>
<g id="a1_0026"  >
<polygon points="522,90 526,90 531,85 526,80 522,80 522,90 " style="fill:white; stroke-width:1; stroke:black; " description="&lt;b&gt;BM155_RS08070&lt;/b&gt;&lt;br&gt;hypothetical protein&lt;br&gt;Location: 252192 - 251581" locus_tag="BM155_RS08070" class="clusterblast-orf" id="dummy-1_h1_9_26"  />
</g>
<g id="a1_0027"  >
<polygon points="533,90 537,90 542,85 537,80 533,80 533,90 " style="fill:white; stroke-width:1; stroke:black; " description="&lt;b&gt;BM155_RS08065&lt;/b&gt;&lt;br&gt;elongation factor P&lt;br&gt;Location: 251502 - 250930" locus_tag="BM155_RS08065" class="clusterblast-orf" id="dummy-1_h1_9_27"  />
</g>
<g id="a1_0028"  >
<polygon points="543,90 553,90 558,85 553,80 543,80 543,90 " style="fill:white; stroke-width:1; stroke:black; " description="&lt;b&gt;BM155_RS08060&lt;/b&gt;&lt;br&gt;EF-P lysine aminoacylase GenX&lt;br&gt;Location: 250824 - 249871" locus_tag="BM155_RS08060" class="clusterblast-orf" id="dummy-1_h1_9_28"  />
</g>
<g id="a1_0029"  >
<polygon points="559,85 564,80 572,80 572,90 564,90 559,85 " style="fill:white; stroke-width:1; stroke:black; " description="&lt;b&gt;BM155_RS08055&lt;/b&gt;&lt;br&gt;N-acetyltransferase&lt;br&gt;Location: 249805 - 249005" locus_tag="BM155_RS08055" class="clusterblast-orf" id="dummy-1_h1_9_29"  />
</g>
<g id="a1_0030"  >
<polygon points="573,85 578,80 585,80 585,90 578,90 573,85 " style="fill:white; stroke-width:1; stroke:black; " description="&lt;b&gt;BM155_RS08050&lt;/b&gt;&lt;br&gt;serine O-acetyltransferase&lt;br&gt;Location: 248950 - 248129" locus_tag="BM155_RS08050" class="clusterblast-orf" id="dummy-1_h1_9_30"  />
</g>
<g id="a1_0031"  >
<polygon points="590,85 595,80 605,80 605,90 595,90 590,85 " style="fill:white; stroke-width:1; stroke:black; " description="&lt;b&gt;BM155_RS08045&lt;/b&gt;&lt;br&gt;serine/threonine protein kinase&lt;br&gt;Location: 247826 - 246840" locus_tag="BM155_RS08045" class="clusterblast-orf" id="dummy-1_h1_9_31"  />
</g>
<g id="a1_0032"  >
<polygon points="608,85 613,80 642,80 642,90 613,90 608,85 " style="fill:white; stroke-width:1; stroke:black; " description="&lt;b&gt;BM155_RS08040&lt;/b&gt;&lt;br&gt;catalase/peroxidase HPI&lt;br&gt;Location: 246701 - 244467" locus_tag="BM155_RS08040" class="clusterblast-orf" id="dummy-1_h1_9_32"  />
</g>
<g id="a1_0033"  >
<polygon points="645,85 650,80 651,80 651,90 650,90 645,85 " style="fill:white; stroke-width:1; stroke:black; " description="&lt;b&gt;BM155_RS08035&lt;/b&gt;&lt;br&gt;hypothetical protein&lt;br&gt;Location: 244324 - 243944" locus_tag="BM155_RS08035" class="clusterblast-orf" id="dummy-1_h1_9_33"  />
</g>
<g id="a1_0034"  >
<polygon points="652,85 657,80 658,80 658,90 657,90 652,85 " style="fill:white; stroke-width:1; stroke:black; " description="&lt;b&gt;BM155_RS08030&lt;/b&gt;&lt;br&gt;VOC family protein&lt;br&gt;Location: 243862 - 243485" locus_tag="BM155_RS08030" class="clusterblast-orf" id="dummy-1_h1_9_34"  />
</g>
<g id="a1_0035"  >
<polygon points="661,85 666,80 667,80 667,90 666,90 661,85 " style="fill:white; stroke-width:1; stroke:black; " description="&lt;b&gt;BM155_RS08025&lt;/b&gt;&lt;br&gt;hypothetical protein&lt;br&gt;Location: 243306 - 242893" locus_tag="BM155_RS08025" class="clusterblast-orf" id="dummy-1_h1_9_35"  />
</g>
<g id="a1_0036"  >
<polygon points="674,85 679,80 704,80 704,90 679,90 674,85 " style="fill:white; stroke-width:1; stroke:black; " description="&lt;b&gt;BM155_RS08020&lt;/b&gt;&lt;br&gt;acetate--CoA ligase&lt;br&gt;Location: 242451 - 240514" locus_tag="BM155_RS08020" class="clusterblast-orf" id="dummy-1_h1_9_36"  />
</g>
<g id="a1_0037"  >
<polygon points="709,85 714,80 715,80 715,90 714,90 709,85 " style="fill:white; stroke-width:1; stroke:black; " description="&lt;b&gt;BM155_RS08015&lt;/b&gt;&lt;br&gt;aspartate 1-decarboxylase&lt;br&gt;Location: 240188 - 239802" locus_tag="BM155_RS08015" class="clusterblast-orf" id="dummy-1_h1_9_37"  />
</g>
<g id="a1_0038"  >
<polygon points="716,85 721,80 729,80 729,90 721,90 716,85 " style="fill:white; stroke-width:1; stroke:black; " description="&lt;b&gt;BM155_RS08010&lt;/b&gt;&lt;br&gt;pantoate--beta-alanine ligase&lt;br&gt;Location: 239779 - 238931" locus_tag="BM155_RS08010" class="clusterblast-orf" id="dummy-1_h1_9_38"  />
</g>
<g id="a1_0039"  >
<polygon points="735,90 741,90 746,85 741,80 735,80 735,90 " style="fill:white; stroke-width:1; stroke:black; " description="&lt;b&gt;BM155_RS08005&lt;/b&gt;&lt;br&gt;hypothetical protein&lt;br&gt;Location: 238528 - 237863" locus_tag="BM155_RS08005" class="clusterblast-orf" id="dummy-1_h1_9_39"  />
</g>
<g id="a1_0040"  >
<polygon points="750,90 775,90 780,85 775,80 750,80 750,90 " style="fill:white; stroke-width:1; stroke:black; " description="&lt;b&gt;BM155_RS08000&lt;/b&gt;&lt;br&gt;biosynthetic arginine decarboxylase&lt;br&gt;Location: 237610 - 235688" locus_tag="BM155_RS08000" class="clusterblast-orf" id="dummy-1_h1_9_40"  />
</g>
</svg>
