<svg xmlns="http://www.w3.org/2000/svg" xmlns:xlink="http://www.w3.org/1999/xlink" version="1.1" x="0" y="0" height="230" width="800" viewBox="0 0 800 230" preserveAspectRatio="none"  >
<g label="Query sequence" class="clusterblast-cluster"  >
<text x="5" y="20" class="clusterblast-acc"  >
Query sequence</text>
<line x1="10" y1="35" x2="778.0" y2="35" style="stroke-width:1; stroke:grey; "  />
<polygon points="192,35 197,30 201,30 201,40 197,40 192,35 " style="fill:#d81515; stroke-width:1; stroke:black; " description="&lt;b&gt;ctg5_984&lt;/b&gt;&lt;br&gt;ctg5 984&lt;br&gt;Location: 1078282 - 1078780" locus_tag="ctg5_984" class="clusterblast-orf" id="dummy-1_q0_0_all"  />
<polygon points="205,40 223,40 228,35 223,30 205,30 205,40 " style="fill:#4dd815; stroke-width:1; stroke:black; " description="&lt;b&gt;ctg5_985&lt;/b&gt;&lt;br&gt;ctg5 985&lt;br&gt;Location: 1078976 - 1080182" locus_tag="ctg5_985" class="clusterblast-orf" id="dummy-1_q1_0_all"  />
<polygon points="229,40 249,40 254,35 249,30 229,30 229,40 " style="fill:#15bcd8; stroke-width:1; stroke:black; " description="&lt;b&gt;ctg5_986&lt;/b&gt;&lt;br&gt;ctg5 986&lt;br&gt;Location: 1080254 - 1081529" locus_tag="ctg5_986" class="clusterblast-orf" id="dummy-1_q2_0_all"  />
<polygon points="254,40 265,40 270,35 265,30 254,30 254,40 " style="fill:#8515d8; stroke-width:1; stroke:black; " description="&lt;b&gt;ctg5_987&lt;/b&gt;&lt;br&gt;ctg5 987&lt;br&gt;Location: 1081540 - 1082422" locus_tag="ctg5_987" class="clusterblast-orf" id="dummy-1_q3_0_all"  />
<polygon points="271,40 286,40 291,35 286,30 271,30 271,40 " style="fill:#d84d15; stroke-width:1; stroke:black; " description="&lt;b&gt;ctg5_988&lt;/b&gt;&lt;br&gt;ctg5 988&lt;br&gt;Location: 1082438 - 1083488" locus_tag="ctg5_988" class="clusterblast-orf" id="dummy-1_q4_0_all"  />
<polygon points="292,40 301,40 306,35 301,30 292,30 292,40 " style="fill:#15d815; stroke-width:1; stroke:black; " description="&lt;b&gt;ctg5_989&lt;/b&gt;&lt;br&gt;ctg5 989&lt;br&gt;Location: 1083556 - 1084267" locus_tag="ctg5_989" class="clusterblast-orf" id="dummy-1_q5_0_all"  />
<polygon points="308,40 313,40 318,35 313,30 308,30 308,40 " style="fill:#1585d8; stroke-width:1; stroke:black; " description="&lt;b&gt;ctg5_990&lt;/b&gt;&lt;br&gt;ctg5 990&lt;br&gt;Location: 1084405 - 1084939" locus_tag="ctg5_990" class="clusterblast-orf" id="dummy-1_q6_0_all"  />
<polygon points="326,35 331,30 361,30 361,40 331,40 326,35 " style="fill:#bc15d8; stroke-width:1; stroke:black; " description="&lt;b&gt;ctg5_991&lt;/b&gt;&lt;br&gt;ctg5 991&lt;br&gt;Location: 1085357 - 1087193" locus_tag="ctg5_991" class="clusterblast-orf" id="dummy-1_q7_0_all"  />
<polygon points="361,35 366,30 376,30 376,40 366,40 361,35 " style="fill:#d88515; stroke-width:1; stroke:black; " description="&lt;b&gt;ctg5_992&lt;/b&gt;&lt;br&gt;ctg5 992&lt;br&gt;Location: 1087194 - 1087971" locus_tag="ctg5_992" class="clusterblast-orf" id="dummy-1_q8_0_all"  />
<polygon points="381,40 397,40 402,35 397,30 381,30 381,40 " style="fill:#15d84d; stroke-width:1; stroke:black; " description="&lt;b&gt;ctg5_993&lt;/b&gt;&lt;br&gt;ctg5 993&lt;br&gt;Location: 1088234 - 1089362" locus_tag="ctg5_993" class="clusterblast-orf" id="dummy-1_q9_0_all"  />
<polygon points="405,35 410,30 430,30 430,40 410,40 405,35 " style="fill:#154dd8; stroke-width:1; stroke:black; " description="&lt;b&gt;ctg5_994&lt;/b&gt;&lt;br&gt;ctg5 994&lt;br&gt;Location: 1089494 - 1090817" locus_tag="ctg5_994" class="clusterblast-orf" id="dummy-1_q10_0_all"  />
<polygon points="433,35 438,30 441,30 441,40 438,40 433,35 " style="fill:#d815bc; stroke-width:1; stroke:black; " description="&lt;b&gt;ctg5_995&lt;/b&gt;&lt;br&gt;ctg5 995&lt;br&gt;Location: 1090979 - 1091405" locus_tag="ctg5_995" class="clusterblast-orf" id="dummy-1_q11_0_all"  />
<polygon points="442,35 447,30 468,30 468,40 447,40 442,35 " style="fill:#d8bc15; stroke-width:1; stroke:black; " description="&lt;b&gt;ctg5_996&lt;/b&gt;&lt;br&gt;ctg5 996&lt;br&gt;Location: 1091450 - 1092830" locus_tag="ctg5_996" class="clusterblast-orf" id="dummy-1_q12_0_all"  />
<polygon points="469,35 474,30 485,30 485,40 474,40 469,35 " style="fill:#15d885; stroke-width:1; stroke:black; " description="&lt;b&gt;ctg5_997&lt;/b&gt;&lt;br&gt;ctg5 997&lt;br&gt;Location: 1092857 - 1093718" locus_tag="ctg5_997" class="clusterblast-orf" id="dummy-1_q13_0_all"  />
<polygon points="486,35 491,30 515,30 515,40 491,40 486,35 " style="fill:#1515d8; stroke-width:1; stroke:black; " description="&lt;b&gt;ctg5_998&lt;/b&gt;&lt;br&gt;ctg5 998&lt;br&gt;Location: 1093768 - 1095313" locus_tag="ctg5_998" class="clusterblast-orf" id="dummy-1_q14_0_all"  />
<polygon points="516,35 521,30 526,30 526,40 521,40 516,35 " style="fill:#d81585; stroke-width:1; stroke:black; " description="&lt;b&gt;ctg5_999&lt;/b&gt;&lt;br&gt;ctg5 999&lt;br&gt;Location: 1095334 - 1095871" locus_tag="ctg5_999" class="clusterblast-orf" id="dummy-1_q15_0_all"  />
<polygon points="526,35 531,30 535,30 535,40 531,40 526,35 " style="fill:#bcd815; stroke-width:1; stroke:black; " description="&lt;b&gt;ctg5_1000&lt;/b&gt;&lt;br&gt;ctg5 1000&lt;br&gt;Location: 1095883 - 1096354" locus_tag="ctg5_1000" class="clusterblast-orf" id="dummy-1_q16_0_all"  />
<polygon points="536,35 541,30 541,30 541,40 541,40 536,35 " style="fill:#15d8bc; stroke-width:1; stroke:black; " description="&lt;b&gt;ctg5_1001&lt;/b&gt;&lt;br&gt;ctg5 1001&lt;br&gt;Location: 1096410 - 1096668" locus_tag="ctg5_1001" class="clusterblast-orf" id="dummy-1_q17_0_all"  />
<polygon points="544,35 549,30 560,30 560,40 549,40 544,35 " style="fill:#4d15d8; stroke-width:1; stroke:black; " description="&lt;b&gt;ctg5_1002&lt;/b&gt;&lt;br&gt;ctg5 1002&lt;br&gt;Location: 1096802 - 1097672" locus_tag="ctg5_1002" class="clusterblast-orf" id="dummy-1_q18_0_all"  />
<polygon points="560,35 565,30 568,30 568,40 565,40 560,35 " style="fill:#d8154d; stroke-width:1; stroke:black; " description="&lt;b&gt;ctg5_1003&lt;/b&gt;&lt;br&gt;ctg5 1003&lt;br&gt;Location: 1097688 - 1098096" locus_tag="ctg5_1003" class="clusterblast-orf" id="dummy-1_q19_0_all"  />
<polygon points="571,35 576,30 587,30 587,40 576,40 571,35 " style="fill:#85d815; stroke-width:1; stroke:black; " description="&lt;b&gt;ctg5_1004&lt;/b&gt;&lt;br&gt;ctg5 1004&lt;br&gt;Location: 1098244 - 1099117" locus_tag="ctg5_1004" class="clusterblast-orf" id="dummy-1_q20_0_all"  />
</g>
<g label="NZ_FOWT01000009" description="NZ_FOWT01000009_c2: Pseudomonas sp. NFPP28, whole genome shotgun sequence (37% of genes show similarity), t1pks" class="clusterblast-cluster"  >
<text x="5" y="70" class="clusterblast-acc"  >
<a xlink:href="https://antismash-db.secondarymetabolites.org/go/NZ_FOWT01000009/2" target="_blank">NZ_FOWT01000009_c2</a>: Pseudomonas sp. NFPP28, whole genome shotgun sequence (37% of genes show similarity), t1pks</text>
<line x1="10" y1="85" x2="778.0" y2="85" style="stroke-width:1; stroke:grey; "  />
</g>
<g id="a1_000"  >
<polygon points="0,85 5,80 14,80 14,90 5,90 0,85 " style="fill:#d88515; stroke-width:1; stroke:black; " description="&lt;b&gt;BM110_RS23205&lt;/b&gt;&lt;br&gt;HTH domain-containing protein&lt;br&gt;Location: 217715 - 218482&lt;br&gt;&lt;br&gt;&lt;b&gt;BlastP hit with ctg5_992&lt;/b&gt;&lt;br&gt;Percentage identity: 93&lt;br&gt;Percentage coverage: 98&lt;br&gt;BLAST bit score: 463&lt;br&gt;E-value: 1.5e-128" locus_tag="BM110_RS23205" class="clusterblast-orf" id="dummy-1_h1_10_0"  />
</g>
<g id="a1_001"  >
<polygon points="17,85 22,80 29,80 29,90 22,90 17,85 " style="fill:white; stroke-width:1; stroke:black; " description="&lt;b&gt;BM110_RS23210&lt;/b&gt;&lt;br&gt;adenylyl-sulfate kinase&lt;br&gt;Location: 218614 - 219243" locus_tag="BM110_RS23210" class="clusterblast-orf" id="dummy-1_h1_10_1"  />
</g>
<g id="a1_002"  >
<polygon points="29,85 34,80 50,80 50,90 34,90 29,85 " style="fill:white; stroke-width:1; stroke:black; " description="&lt;b&gt;BM110_RS23215&lt;/b&gt;&lt;br&gt;hypothetical protein&lt;br&gt;Location: 219272 - 220387" locus_tag="BM110_RS23215" class="clusterblast-orf" id="dummy-1_h1_10_2"  />
</g>
<g id="a1_003"  >
<polygon points="51,85 56,80 87,80 87,90 56,90 51,85 " style="fill:white; stroke-width:1; stroke:black; " description="&lt;b&gt;BM110_RS23220&lt;/b&gt;&lt;br&gt;asparagine synthase (glutamine-hydrolyzing)&lt;br&gt;Location: 220406 - 222334" locus_tag="BM110_RS23220" class="clusterblast-orf" id="dummy-1_h1_10_3"  />
</g>
<g id="a1_004"  >
<polygon points="88,85 93,80 107,80 107,90 93,90 88,85 " style="fill:white; stroke-width:1; stroke:black; " description="&lt;b&gt;BM110_RS23225&lt;/b&gt;&lt;br&gt;acyl-CoA desaturase&lt;br&gt;Location: 222370 - 223362" locus_tag="BM110_RS23225" class="clusterblast-orf" id="dummy-1_h1_10_4"  />
</g>
<g id="a1_005"  >
<polygon points="107,85 112,80 175,80 175,90 112,90 107,85 " style="fill:white; stroke-width:1; stroke:black; " description="&lt;b&gt;BM110_RS23230&lt;/b&gt;&lt;br&gt;KR domain-containing protein&lt;br&gt;Location: 223366 - 226974" locus_tag="BM110_RS23230" class="clusterblast-orf" id="dummy-1_h1_10_5"  />
</g>
<g id="a1_006"  >
<polygon points="177,85 182,80 204,80 204,90 182,90 177,85 " style="fill:white; stroke-width:1; stroke:black; " description="&lt;b&gt;BM110_RS23235&lt;/b&gt;&lt;br&gt;cytochrome P450&lt;br&gt;Location: 227049 - 228488" locus_tag="BM110_RS23235" class="clusterblast-orf" id="dummy-1_h1_10_6"  />
</g>
<g id="a1_007"  >
<polygon points="204,85 209,80 243,80 243,90 209,90 204,85 " style="fill:white; stroke-width:1; stroke:black; " description="&lt;b&gt;BM110_RS23240&lt;/b&gt;&lt;br&gt;hypothetical protein&lt;br&gt;Location: 228508 - 230556" locus_tag="BM110_RS23240" class="clusterblast-orf" id="dummy-1_h1_10_7"  />
</g>
<g id="a1_008"  >
<polygon points="244,85 249,80 284,80 284,90 249,90 244,85 " style="fill:white; stroke-width:1; stroke:black; " description="&lt;b&gt;BM110_RS23245&lt;/b&gt;&lt;br&gt;polyketide synthase&lt;br&gt;Location: 230614 - 232707" locus_tag="BM110_RS23245" class="clusterblast-orf" id="dummy-1_h1_10_8"  />
</g>
<g id="a1_009"  >
<polygon points="285,85 290,80 302,80 302,90 290,90 285,85 " style="fill:white; stroke-width:1; stroke:black; " description="&lt;b&gt;BM110_RS23250&lt;/b&gt;&lt;br&gt;methyltransferase domain-containing protein&lt;br&gt;Location: 232733 - 233620" locus_tag="BM110_RS23250" class="clusterblast-orf" id="dummy-1_h1_10_9"  />
</g>
<g id="a1_0010"  >
<polygon points="302,85 307,80 307,80 307,90 307,90 302,85 " style="fill:white; stroke-width:1; stroke:black; " description="&lt;b&gt;BM110_RS23255&lt;/b&gt;&lt;br&gt;acyl carrier protein&lt;br&gt;Location: 233641 - 233895" locus_tag="BM110_RS23255" class="clusterblast-orf" id="dummy-1_h1_10_10"  />
</g>
<g id="a1_0011"  >
<polygon points="307,85 312,80 325,80 325,90 312,90 307,85 " style="fill:white; stroke-width:1; stroke:black; " description="&lt;b&gt;BM110_RS23260&lt;/b&gt;&lt;br&gt;acyl-CoA desaturase&lt;br&gt;Location: 233885 - 234841" locus_tag="BM110_RS23260" class="clusterblast-orf" id="dummy-1_h1_10_11"  />
</g>
<g id="a1_0012"  >
<polygon points="325,85 330,80 358,80 358,90 330,90 325,85 " style="fill:white; stroke-width:1; stroke:black; " description="&lt;b&gt;BM110_RS23265&lt;/b&gt;&lt;br&gt;hypothetical protein&lt;br&gt;Location: 234875 - 236578" locus_tag="BM110_RS23265" class="clusterblast-orf" id="dummy-1_h1_10_12"  />
</g>
<g id="a1_0013"  >
<polygon points="358,85 363,80 411,80 411,90 363,90 358,85 " style="fill:white; stroke-width:1; stroke:black; " description="&lt;b&gt;BM110_RS23270&lt;/b&gt;&lt;br&gt;polyketide synthase&lt;br&gt;Location: 236621 - 239386" locus_tag="BM110_RS23270" class="clusterblast-orf" id="dummy-1_h1_10_13"  />
</g>
<g id="a1_0014"  >
<polygon points="420,85 425,80 446,80 446,90 425,90 420,85 " style="fill:#154dd8; stroke-width:1; stroke:black; " description="&lt;b&gt;BM110_RS23275&lt;/b&gt;&lt;br&gt;UDP-N-acetylglucosamine diphosphorylase/glucosamine-1-phosphate N-acetyltransferase&lt;br&gt;Location: 239884 - 241251&lt;br&gt;&lt;br&gt;&lt;b&gt;BlastP hit with ctg5_994&lt;/b&gt;&lt;br&gt;Percentage identity: 89&lt;br&gt;Percentage coverage: 100&lt;br&gt;BLAST bit score: 688&lt;br&gt;E-value: 5e-196" locus_tag="BM110_RS23275" class="clusterblast-orf" id="dummy-1_h1_10_14"  />
</g>
<g id="a1_0015"  >
<polygon points="449,85 454,80 457,80 457,90 454,90 449,85 " style="fill:#d815bc; stroke-width:1; stroke:black; " description="&lt;b&gt;BM110_RS23280&lt;/b&gt;&lt;br&gt;ATP synthase F0F1 subunit epsilon&lt;br&gt;Location: 241375 - 241791&lt;br&gt;&lt;br&gt;&lt;b&gt;BlastP hit with ctg5_995&lt;/b&gt;&lt;br&gt;Percentage identity: 88&lt;br&gt;Percentage coverage: 98&lt;br&gt;BLAST bit score: 236&lt;br&gt;E-value: 1.7e-60" locus_tag="BM110_RS23280" class="clusterblast-orf" id="dummy-1_h1_10_15"  />
</g>
<g id="a1_0016"  >
<polygon points="458,85 463,80 484,80 484,90 463,90 458,85 " style="fill:#d8bc15; stroke-width:1; stroke:black; " description="&lt;b&gt;BM110_RS23285&lt;/b&gt;&lt;br&gt;ATP synthase subunit beta&lt;br&gt;Location: 241836 - 243212&lt;br&gt;&lt;br&gt;&lt;b&gt;BlastP hit with ctg5_996&lt;/b&gt;&lt;br&gt;Percentage identity: 97&lt;br&gt;Percentage coverage: 100&lt;br&gt;BLAST bit score: 879&lt;br&gt;E-value: 1.2e-253" locus_tag="BM110_RS23285" class="clusterblast-orf" id="dummy-1_h1_10_16"  />
</g>
<g id="a1_0017"  >
<polygon points="484,85 489,80 501,80 501,90 489,90 484,85 " style="fill:#15d885; stroke-width:1; stroke:black; " description="&lt;b&gt;BM110_RS23290&lt;/b&gt;&lt;br&gt;ATP synthase subunit gamma&lt;br&gt;Location: 243240 - 244100&lt;br&gt;&lt;br&gt;&lt;b&gt;BlastP hit with ctg5_997&lt;/b&gt;&lt;br&gt;Percentage identity: 99&lt;br&gt;Percentage coverage: 100&lt;br&gt;BLAST bit score: 539&lt;br&gt;E-value: 1.8e-151" locus_tag="BM110_RS23290" class="clusterblast-orf" id="dummy-1_h1_10_17"  />
</g>
<g id="a1_0018"  >
<polygon points="501,85 506,80 531,80 531,90 506,90 501,85 " style="fill:#1515d8; stroke-width:1; stroke:black; " description="&lt;b&gt;BM110_RS23295&lt;/b&gt;&lt;br&gt;ATP synthase subunit alpha&lt;br&gt;Location: 244151 - 245695&lt;br&gt;&lt;br&gt;&lt;b&gt;BlastP hit with ctg5_998&lt;/b&gt;&lt;br&gt;Percentage identity: 98&lt;br&gt;Percentage coverage: 100&lt;br&gt;BLAST bit score: 972&lt;br&gt;E-value: 2.6e-281" locus_tag="BM110_RS23295" class="clusterblast-orf" id="dummy-1_h1_10_18"  />
</g>
<g id="a1_0019"  >
<polygon points="531,85 536,80 541,80 541,90 536,90 531,85 " style="fill:#d81585; stroke-width:1; stroke:black; " description="&lt;b&gt;BM110_RS23300&lt;/b&gt;&lt;br&gt;F0F1 ATP synthase subunit delta&lt;br&gt;Location: 245717 - 246253&lt;br&gt;&lt;br&gt;&lt;b&gt;BlastP hit with ctg5_999&lt;/b&gt;&lt;br&gt;Percentage identity: 94&lt;br&gt;Percentage coverage: 100&lt;br&gt;BLAST bit score: 313&lt;br&gt;E-value: 1.3e-83" locus_tag="BM110_RS23300" class="clusterblast-orf" id="dummy-1_h1_10_19"  />
</g>
<g id="a1_0020"  >
<polygon points="542,85 547,80 551,80 551,90 547,90 542,85 " style="fill:#bcd815; stroke-width:1; stroke:black; " description="&lt;b&gt;BM110_RS23305&lt;/b&gt;&lt;br&gt;F0F1 ATP synthase subunit B&lt;br&gt;Location: 246266 - 246736&lt;br&gt;&lt;br&gt;&lt;b&gt;BlastP hit with ctg5_1000&lt;/b&gt;&lt;br&gt;Percentage identity: 87&lt;br&gt;Percentage coverage: 100&lt;br&gt;BLAST bit score: 171&lt;br&gt;E-value: 9.4e-41" locus_tag="BM110_RS23305" class="clusterblast-orf" id="dummy-1_h1_10_20"  />
</g>
<g id="a1_0021"  >
<polygon points="552,85 557,80 557,80 557,90 557,90 552,85 " style="fill:#15d8bc; stroke-width:1; stroke:black; " description="&lt;b&gt;BM110_RS23310&lt;/b&gt;&lt;br&gt;ATP synthase subunit C&lt;br&gt;Location: 246794 - 247051&lt;br&gt;&lt;br&gt;&lt;b&gt;BlastP hit with ctg5_1001&lt;/b&gt;&lt;br&gt;Percentage identity: 100&lt;br&gt;Percentage coverage: 100&lt;br&gt;BLAST bit score: 155&lt;br&gt;E-value: 3.8e-36" locus_tag="BM110_RS23310" class="clusterblast-orf" id="dummy-1_h1_10_21"  />
</g>
<g id="a1_0022"  >
<polygon points="559,85 564,80 576,80 576,90 564,90 559,85 " style="fill:#4d15d8; stroke-width:1; stroke:black; " description="&lt;b&gt;BM110_RS23315&lt;/b&gt;&lt;br&gt;F0F1 ATP synthase subunit A&lt;br&gt;Location: 247185 - 248054&lt;br&gt;&lt;br&gt;&lt;b&gt;BlastP hit with ctg5_1002&lt;/b&gt;&lt;br&gt;Percentage identity: 84&lt;br&gt;Percentage coverage: 100&lt;br&gt;BLAST bit score: 485&lt;br&gt;E-value: 4.2e-135" locus_tag="BM110_RS23315" class="clusterblast-orf" id="dummy-1_h1_10_22"  />
</g>
<g id="a1_0023"  >
<polygon points="576,85 581,80 584,80 584,90 581,90 576,85 " style="fill:#d8154d; stroke-width:1; stroke:black; " description="&lt;b&gt;BM110_RS23320&lt;/b&gt;&lt;br&gt;F0F1 ATP synthase subunit I&lt;br&gt;Location: 248071 - 248478&lt;br&gt;&lt;br&gt;&lt;b&gt;BlastP hit with ctg5_1003&lt;/b&gt;&lt;br&gt;Percentage identity: 93&lt;br&gt;Percentage coverage: 100&lt;br&gt;BLAST bit score: 246&lt;br&gt;E-value: 1.5e-63" locus_tag="BM110_RS23320" class="clusterblast-orf" id="dummy-1_h1_10_23"  />
</g>
<g id="a1_0024"  >
<polygon points="586,85 591,80 603,80 603,90 591,90 586,85 " style="fill:#85d815; stroke-width:1; stroke:black; " description="&lt;b&gt;BM110_RS23325&lt;/b&gt;&lt;br&gt;chromosome partitioning protein ParB&lt;br&gt;Location: 248627 - 249499&lt;br&gt;&lt;br&gt;&lt;b&gt;BlastP hit with ctg5_1004&lt;/b&gt;&lt;br&gt;Percentage identity: 97&lt;br&gt;Percentage coverage: 100&lt;br&gt;BLAST bit score: 537&lt;br&gt;E-value: 9.3e-151" locus_tag="BM110_RS23325" class="clusterblast-orf" id="dummy-1_h1_10_24"  />
</g>
<g id="a1_0025"  >
<polygon points="603,85 608,80 618,80 618,90 608,90 603,85 " style="fill:white; stroke-width:1; stroke:black; " description="&lt;b&gt;BM110_RS23330&lt;/b&gt;&lt;br&gt;ParA family protein&lt;br&gt;Location: 249509 - 250306" locus_tag="BM110_RS23330" class="clusterblast-orf" id="dummy-1_h1_10_25"  />
</g>
<g id="a1_0026"  >
<polygon points="619,85 624,80 631,80 631,90 624,90 619,85 " style="fill:white; stroke-width:1; stroke:black; " description="&lt;b&gt;BM110_RS23335&lt;/b&gt;&lt;br&gt;16S rRNA (guanine(527)-N(7))-methyltransferase RsmG&lt;br&gt;Location: 250325 - 250969" locus_tag="BM110_RS23335" class="clusterblast-orf" id="dummy-1_h1_10_26"  />
</g>
<g id="a1_0027"  >
<polygon points="631,85 636,80 667,80 667,90 636,90 631,85 " style="fill:white; stroke-width:1; stroke:black; " description="&lt;b&gt;BM110_RS23340&lt;/b&gt;&lt;br&gt;tRNA uridine-5-carboxymethylaminomethyl(34) synthesis enzyme MnmG&lt;br&gt;Location: 250966 - 252858" locus_tag="BM110_RS23340" class="clusterblast-orf" id="dummy-1_h1_10_27"  />
</g>
<g id="a1_0028"  >
<polygon points="678,90 682,90 687,85 682,80 678,80 678,90 " style="fill:white; stroke-width:1; stroke:black; " description="&lt;b&gt;BM110_RS23345&lt;/b&gt;&lt;br&gt;RNA polymerase subunit sigma&lt;br&gt;Location: 253423 - 253929" locus_tag="BM110_RS23345" class="clusterblast-orf" id="dummy-1_h1_10_28"  />
</g>
<g id="a1_0029"  >
<polygon points="687,90 700,90 705,85 700,80 687,80 687,90 " style="fill:white; stroke-width:1; stroke:black; " description="&lt;b&gt;BM110_RS23350&lt;/b&gt;&lt;br&gt;DUF4880 domain-containing protein&lt;br&gt;Location: 253929 - 254873" locus_tag="BM110_RS23350" class="clusterblast-orf" id="dummy-1_h1_10_29"  />
</g>
<g id="a1_0030"  >
<polygon points="707,90 748,90 753,85 748,80 707,80 707,90 " style="fill:white; stroke-width:1; stroke:black; " description="&lt;b&gt;BM110_RS23355&lt;/b&gt;&lt;br&gt;TonB-dependent siderophore receptor&lt;br&gt;Location: 254965 - 257403" locus_tag="BM110_RS23355" class="clusterblast-orf" id="dummy-1_h1_10_30"  />
</g>
<g id="a1_0031"  >
<polygon points="753,85 758,80 780,80 780,90 758,90 753,85 " style="fill:white; stroke-width:1; stroke:black; " description="&lt;b&gt;BM110_RS23360&lt;/b&gt;&lt;br&gt;tRNA uridine-5-carboxymethylaminomethyl(34) synthesis GTPase MnmE&lt;br&gt;Location: 257423 - 258793" locus_tag="BM110_RS23360" class="clusterblast-orf" id="dummy-1_h1_10_31"  />
</g>
</svg>
