<svg xmlns="http://www.w3.org/2000/svg" xmlns:xlink="http://www.w3.org/1999/xlink" version="1.1" x="0" y="0" height="230" width="800" viewBox="0 0 800 230" preserveAspectRatio="none"  >
<g label="Query sequence" class="clusterblast-cluster"  >
<text x="5" y="20" class="clusterblast-acc"  >
Query sequence</text>
<line x1="10" y1="35" x2="778.0" y2="35" style="stroke-width:1; stroke:grey; "  />
<polygon points="0,35 5,30 19,30 19,40 5,40 0,35 " style="fill:#d81515; stroke-width:1; stroke:black; " description="&lt;b&gt;ctg5_984&lt;/b&gt;&lt;br&gt;ctg5 984&lt;br&gt;Location: 1078282 - 1078780" locus_tag="ctg5_984" class="clusterblast-orf" id="dummy-1_q0_0_all"  />
<polygon points="26,40 66,40 71,35 66,30 26,30 26,40 " style="fill:#4dd815; stroke-width:1; stroke:black; " description="&lt;b&gt;ctg5_985&lt;/b&gt;&lt;br&gt;ctg5 985&lt;br&gt;Location: 1078976 - 1080182" locus_tag="ctg5_985" class="clusterblast-orf" id="dummy-1_q1_0_all"  />
<polygon points="74,40 116,40 121,35 116,30 74,30 74,40 " style="fill:#15bcd8; stroke-width:1; stroke:black; " description="&lt;b&gt;ctg5_986&lt;/b&gt;&lt;br&gt;ctg5 986&lt;br&gt;Location: 1080254 - 1081529" locus_tag="ctg5_986" class="clusterblast-orf" id="dummy-1_q2_0_all"  />
<polygon points="122,40 150,40 155,35 150,30 122,30 122,40 " style="fill:#8515d8; stroke-width:1; stroke:black; " description="&lt;b&gt;ctg5_987&lt;/b&gt;&lt;br&gt;ctg5 987&lt;br&gt;Location: 1081540 - 1082422" locus_tag="ctg5_987" class="clusterblast-orf" id="dummy-1_q3_0_all"  />
<polygon points="155,40 190,40 195,35 190,30 155,30 155,40 " style="fill:#d84d15; stroke-width:1; stroke:black; " description="&lt;b&gt;ctg5_988&lt;/b&gt;&lt;br&gt;ctg5 988&lt;br&gt;Location: 1082438 - 1083488" locus_tag="ctg5_988" class="clusterblast-orf" id="dummy-1_q4_0_all"  />
<polygon points="197,40 219,40 224,35 219,30 197,30 197,40 " style="fill:#15d815; stroke-width:1; stroke:black; " description="&lt;b&gt;ctg5_989&lt;/b&gt;&lt;br&gt;ctg5 989&lt;br&gt;Location: 1083556 - 1084267" locus_tag="ctg5_989" class="clusterblast-orf" id="dummy-1_q5_0_all"  />
<polygon points="229,40 244,40 249,35 244,30 229,30 229,40 " style="fill:#1585d8; stroke-width:1; stroke:black; " description="&lt;b&gt;ctg5_990&lt;/b&gt;&lt;br&gt;ctg5 990&lt;br&gt;Location: 1084405 - 1084939" locus_tag="ctg5_990" class="clusterblast-orf" id="dummy-1_q6_0_all"  />
<polygon points="265,35 270,30 333,30 333,40 270,40 265,35 " style="fill:#bc15d8; stroke-width:1; stroke:black; " description="&lt;b&gt;ctg5_991&lt;/b&gt;&lt;br&gt;ctg5 991&lt;br&gt;Location: 1085357 - 1087193" locus_tag="ctg5_991" class="clusterblast-orf" id="dummy-1_q7_0_all"  />
<polygon points="334,35 339,30 363,30 363,40 339,40 334,35 " style="fill:#d88515; stroke-width:1; stroke:black; " description="&lt;b&gt;ctg5_992&lt;/b&gt;&lt;br&gt;ctg5 992&lt;br&gt;Location: 1087194 - 1087971" locus_tag="ctg5_992" class="clusterblast-orf" id="dummy-1_q8_0_all"  />
<polygon points="372,40 410,40 415,35 410,30 372,30 372,40 " style="fill:#15d84d; stroke-width:1; stroke:black; " description="&lt;b&gt;ctg5_993&lt;/b&gt;&lt;br&gt;ctg5 993&lt;br&gt;Location: 1088234 - 1089362" locus_tag="ctg5_993" class="clusterblast-orf" id="dummy-1_q9_0_all"  />
<polygon points="420,35 425,30 469,30 469,40 425,40 420,35 " style="fill:#154dd8; stroke-width:1; stroke:black; " description="&lt;b&gt;ctg5_994&lt;/b&gt;&lt;br&gt;ctg5 994&lt;br&gt;Location: 1089494 - 1090817" locus_tag="ctg5_994" class="clusterblast-orf" id="dummy-1_q10_0_all"  />
<polygon points="475,35 480,30 491,30 491,40 480,40 475,35 " style="fill:#d815bc; stroke-width:1; stroke:black; " description="&lt;b&gt;ctg5_995&lt;/b&gt;&lt;br&gt;ctg5 995&lt;br&gt;Location: 1090979 - 1091405" locus_tag="ctg5_995" class="clusterblast-orf" id="dummy-1_q11_0_all"  />
<polygon points="493,35 498,30 545,30 545,40 498,40 493,35 " style="fill:#d8bc15; stroke-width:1; stroke:black; " description="&lt;b&gt;ctg5_996&lt;/b&gt;&lt;br&gt;ctg5 996&lt;br&gt;Location: 1091450 - 1092830" locus_tag="ctg5_996" class="clusterblast-orf" id="dummy-1_q12_0_all"  />
<polygon points="546,35 551,30 578,30 578,40 551,40 546,35 " style="fill:#15d885; stroke-width:1; stroke:black; " description="&lt;b&gt;ctg5_997&lt;/b&gt;&lt;br&gt;ctg5 997&lt;br&gt;Location: 1092857 - 1093718" locus_tag="ctg5_997" class="clusterblast-orf" id="dummy-1_q13_0_all"  />
<polygon points="580,35 585,30 637,30 637,40 585,40 580,35 " style="fill:#1515d8; stroke-width:1; stroke:black; " description="&lt;b&gt;ctg5_998&lt;/b&gt;&lt;br&gt;ctg5 998&lt;br&gt;Location: 1093768 - 1095313" locus_tag="ctg5_998" class="clusterblast-orf" id="dummy-1_q14_0_all"  />
<polygon points="638,35 643,30 658,30 658,40 643,40 638,35 " style="fill:#d81585; stroke-width:1; stroke:black; " description="&lt;b&gt;ctg5_999&lt;/b&gt;&lt;br&gt;ctg5 999&lt;br&gt;Location: 1095334 - 1095871" locus_tag="ctg5_999" class="clusterblast-orf" id="dummy-1_q15_0_all"  />
<polygon points="659,35 664,30 676,30 676,40 664,40 659,35 " style="fill:#bcd815; stroke-width:1; stroke:black; " description="&lt;b&gt;ctg5_1000&lt;/b&gt;&lt;br&gt;ctg5 1000&lt;br&gt;Location: 1095883 - 1096354" locus_tag="ctg5_1000" class="clusterblast-orf" id="dummy-1_q16_0_all"  />
<polygon points="679,35 684,30 688,30 688,40 684,40 679,35 " style="fill:#15d8bc; stroke-width:1; stroke:black; " description="&lt;b&gt;ctg5_1001&lt;/b&gt;&lt;br&gt;ctg5 1001&lt;br&gt;Location: 1096410 - 1096668" locus_tag="ctg5_1001" class="clusterblast-orf" id="dummy-1_q17_0_all"  />
<polygon points="693,35 698,30 726,30 726,40 698,40 693,35 " style="fill:#4d15d8; stroke-width:1; stroke:black; " description="&lt;b&gt;ctg5_1002&lt;/b&gt;&lt;br&gt;ctg5 1002&lt;br&gt;Location: 1096802 - 1097672" locus_tag="ctg5_1002" class="clusterblast-orf" id="dummy-1_q18_0_all"  />
<polygon points="726,35 731,30 742,30 742,40 731,40 726,35 " style="fill:#d8154d; stroke-width:1; stroke:black; " description="&lt;b&gt;ctg5_1003&lt;/b&gt;&lt;br&gt;ctg5 1003&lt;br&gt;Location: 1097688 - 1098096" locus_tag="ctg5_1003" class="clusterblast-orf" id="dummy-1_q19_0_all"  />
<polygon points="747,35 752,30 780,30 780,40 752,40 747,35 " style="fill:#85d815; stroke-width:1; stroke:black; " description="&lt;b&gt;ctg5_1004&lt;/b&gt;&lt;br&gt;ctg5 1004&lt;br&gt;Location: 1098244 - 1099117" locus_tag="ctg5_1004" class="clusterblast-orf" id="dummy-1_q20_0_all"  />
</g>
<g label="NZ_LIRD01000004" description="NZ_LIRD01000004_c7: Pseudomonas sp. In5 P.sp In5 contig 4, whole genome shotg... (100% of genes show similarity), terpene" class="clusterblast-cluster"  >
<text x="5" y="70" class="clusterblast-acc"  >
<a xlink:href="https://antismash-db.secondarymetabolites.org/go/NZ_LIRD01000004/7" target="_blank">NZ_LIRD01000004_c7</a>: Pseudomonas sp. In5 P.sp In5 contig 4, whole genome shotg... (100% of genes show similarity), terpene</text>
<line x1="10" y1="85" x2="778.0" y2="85" style="stroke-width:1; stroke:grey; "  />
</g>
<g id="a1_000"  >
<polygon points="0,85 5,80 18,80 18,90 5,90 0,85 " style="fill:#d81515; stroke-width:1; stroke:black; " description="&lt;b&gt;AL066_RS30035&lt;/b&gt;&lt;br&gt;MarR family transcriptional regulator&lt;br&gt;Location: 1078283 - 1078780&lt;br&gt;&lt;br&gt;&lt;b&gt;BlastP hit with ctg5_984&lt;/b&gt;&lt;br&gt;Percentage identity: 100&lt;br&gt;Percentage coverage: 100&lt;br&gt;BLAST bit score: 328&lt;br&gt;E-value: 3.7e-88" locus_tag="AL066_RS30035" class="clusterblast-orf" id="dummy-1_h1_1_0"  />
</g>
<g id="a1_001"  >
<polygon points="25,90 66,90 71,85 66,80 25,80 25,90 " style="fill:#4dd815; stroke-width:1; stroke:black; " description="&lt;b&gt;AL066_RS30040&lt;/b&gt;&lt;br&gt;permease&lt;br&gt;Location: 1078977 - 1080182&lt;br&gt;&lt;br&gt;&lt;b&gt;BlastP hit with ctg5_985&lt;/b&gt;&lt;br&gt;Percentage identity: 100&lt;br&gt;Percentage coverage: 100&lt;br&gt;BLAST bit score: 760&lt;br&gt;E-value: 7.2e-218" locus_tag="AL066_RS30040" class="clusterblast-orf" id="dummy-1_h1_1_1"  />
</g>
<g id="a1_002"  >
<polygon points="73,90 116,90 121,85 116,80 73,80 73,90 " style="fill:#15bcd8; stroke-width:1; stroke:black; " description="&lt;b&gt;AL066_RS30045&lt;/b&gt;&lt;br&gt;radical SAM protein&lt;br&gt;Location: 1080255 - 1081529&lt;br&gt;&lt;br&gt;&lt;b&gt;BlastP hit with ctg5_986&lt;/b&gt;&lt;br&gt;Percentage identity: 100&lt;br&gt;Percentage coverage: 100&lt;br&gt;BLAST bit score: 861&lt;br&gt;E-value: 5.4e-248" locus_tag="AL066_RS30045" class="clusterblast-orf" id="dummy-1_h1_1_2"  />
</g>
<g id="a1_003"  >
<polygon points="121,90 149,90 154,85 149,80 121,80 121,90 " style="fill:#8515d8; stroke-width:1; stroke:black; " description="&lt;b&gt;AL066_RS30050&lt;/b&gt;&lt;br&gt;hypothetical protein&lt;br&gt;Location: 1081541 - 1082422&lt;br&gt;&lt;br&gt;&lt;b&gt;BlastP hit with ctg5_987&lt;/b&gt;&lt;br&gt;Percentage identity: 100&lt;br&gt;Percentage coverage: 100&lt;br&gt;BLAST bit score: 603&lt;br&gt;E-value: 1.4e-170" locus_tag="AL066_RS30050" class="clusterblast-orf" id="dummy-1_h1_1_3"  />
</g>
<g id="a1_004"  >
<polygon points="155,90 189,90 194,85 189,80 155,80 155,90 " style="fill:#d84d15; stroke-width:1; stroke:black; " description="&lt;b&gt;AL066_RS30055&lt;/b&gt;&lt;br&gt;methyltransferase domain-containing protein&lt;br&gt;Location: 1082439 - 1083488&lt;br&gt;&lt;br&gt;&lt;b&gt;BlastP hit with ctg5_988&lt;/b&gt;&lt;br&gt;Percentage identity: 100&lt;br&gt;Percentage coverage: 100&lt;br&gt;BLAST bit score: 694&lt;br&gt;E-value: 5.5e-198" locus_tag="AL066_RS30055" class="clusterblast-orf" id="dummy-1_h1_1_4"  />
</g>
<g id="a1_005"  >
<polygon points="197,90 219,90 224,85 219,80 197,80 197,90 " style="fill:#15d815; stroke-width:1; stroke:black; " description="&lt;b&gt;AL066_RS30060&lt;/b&gt;&lt;br&gt;aquaporin family protein&lt;br&gt;Location: 1083557 - 1084267&lt;br&gt;&lt;br&gt;&lt;b&gt;BlastP hit with ctg5_989&lt;/b&gt;&lt;br&gt;Percentage identity: 100&lt;br&gt;Percentage coverage: 100&lt;br&gt;BLAST bit score: 461&lt;br&gt;E-value: 6.9e-128" locus_tag="AL066_RS30060" class="clusterblast-orf" id="dummy-1_h1_1_5"  />
</g>
<g id="a1_006"  >
<polygon points="229,90 244,90 249,85 244,80 229,80 229,90 " style="fill:#1585d8; stroke-width:1; stroke:black; " description="&lt;b&gt;AL066_RS30065&lt;/b&gt;&lt;br&gt;N-acetyltransferase&lt;br&gt;Location: 1084406 - 1084939&lt;br&gt;&lt;br&gt;&lt;b&gt;BlastP hit with ctg5_990&lt;/b&gt;&lt;br&gt;Percentage identity: 100&lt;br&gt;Percentage coverage: 100&lt;br&gt;BLAST bit score: 368&lt;br&gt;E-value: 4.6e-100" locus_tag="AL066_RS30065" class="clusterblast-orf" id="dummy-1_h1_1_6"  />
</g>
<g id="a1_007"  >
<polygon points="264,85 269,80 333,80 333,90 269,90 264,85 " style="fill:#bc15d8; stroke-width:1; stroke:black; " description="&lt;b&gt;AL066_RS30070&lt;/b&gt;&lt;br&gt;glutamine--fructose-6-phosphate transaminase (isomerizing)&lt;br&gt;Location: 1085358 - 1087193&lt;br&gt;&lt;br&gt;&lt;b&gt;BlastP hit with ctg5_991&lt;/b&gt;&lt;br&gt;Percentage identity: 100&lt;br&gt;Percentage coverage: 100&lt;br&gt;BLAST bit score: 1186&lt;br&gt;E-value: 0.0" locus_tag="AL066_RS30070" class="clusterblast-orf" id="dummy-1_h1_1_7"  />
</g>
<g id="a1_008"  >
<polygon points="333,85 338,80 362,80 362,90 338,90 333,85 " style="fill:#d88515; stroke-width:1; stroke:black; " description="&lt;b&gt;AL066_RS30075&lt;/b&gt;&lt;br&gt;XRE family transcriptional regulator&lt;br&gt;Location: 1087195 - 1087971&lt;br&gt;&lt;br&gt;&lt;b&gt;BlastP hit with ctg5_992&lt;/b&gt;&lt;br&gt;Percentage identity: 100&lt;br&gt;Percentage coverage: 100&lt;br&gt;BLAST bit score: 499&lt;br&gt;E-value: 1.9e-139" locus_tag="AL066_RS30075" class="clusterblast-orf" id="dummy-1_h1_1_8"  />
</g>
<g id="a1_009"  >
<polygon points="372,90 409,90 414,85 409,80 372,80 372,90 " style="fill:#15d84d; stroke-width:1; stroke:black; " description="&lt;b&gt;AL066_RS30080&lt;/b&gt;&lt;br&gt;phytoene/squalene synthase family protein&lt;br&gt;Location: 1088235 - 1089362&lt;br&gt;&lt;br&gt;&lt;b&gt;BlastP hit with ctg5_993&lt;/b&gt;&lt;br&gt;Percentage identity: 100&lt;br&gt;Percentage coverage: 100&lt;br&gt;BLAST bit score: 751&lt;br&gt;E-value: 5.3e-215" locus_tag="AL066_RS30080" class="clusterblast-orf" id="dummy-1_h1_1_9"  />
</g>
<g id="a1_0010"  >
<polygon points="419,85 424,80 470,80 470,90 424,90 419,85 " style="fill:#154dd8; stroke-width:1; stroke:black; " description="&lt;b&gt;AL066_RS30085&lt;/b&gt;&lt;br&gt;UDP-N-acetylglucosamine diphosphorylase/glucosamine-1-phosphate N-acetyltransferase&lt;br&gt;Location: 1089495 - 1090862&lt;br&gt;&lt;br&gt;&lt;b&gt;BlastP hit with ctg5_994&lt;/b&gt;&lt;br&gt;Percentage identity: 100&lt;br&gt;Percentage coverage: 100&lt;br&gt;BLAST bit score: 769&lt;br&gt;E-value: 2.9e-220" locus_tag="AL066_RS30085" class="clusterblast-orf" id="dummy-1_h1_1_10"  />
</g>
<g id="a1_0011"  >
<polygon points="475,85 480,80 491,80 491,90 480,90 475,85 " style="fill:#d815bc; stroke-width:1; stroke:black; " description="&lt;b&gt;AL066_RS30090&lt;/b&gt;&lt;br&gt;F0F1 ATP synthase subunit epsilon&lt;br&gt;Location: 1090980 - 1091405&lt;br&gt;&lt;br&gt;&lt;b&gt;BlastP hit with ctg5_995&lt;/b&gt;&lt;br&gt;Percentage identity: 100&lt;br&gt;Percentage coverage: 100&lt;br&gt;BLAST bit score: 270&lt;br&gt;E-value: 7.9e-71" locus_tag="AL066_RS30090" class="clusterblast-orf" id="dummy-1_h1_1_11"  />
</g>
<g id="a1_0012"  >
<polygon points="492,85 497,80 544,80 544,90 497,90 492,85 " style="fill:#d8bc15; stroke-width:1; stroke:black; " description="&lt;b&gt;AL066_RS30095&lt;/b&gt;&lt;br&gt;F0F1 ATP synthase subunit beta&lt;br&gt;Location: 1091451 - 1092830&lt;br&gt;&lt;br&gt;&lt;b&gt;BlastP hit with ctg5_996&lt;/b&gt;&lt;br&gt;Percentage identity: 100&lt;br&gt;Percentage coverage: 100&lt;br&gt;BLAST bit score: 903&lt;br&gt;E-value: 7.8e-261" locus_tag="AL066_RS30095" class="clusterblast-orf" id="dummy-1_h1_1_12"  />
</g>
<g id="a1_0013"  >
<polygon points="545,85 550,80 577,80 577,90 550,90 545,85 " style="fill:#15d885; stroke-width:1; stroke:black; " description="&lt;b&gt;AL066_RS30100&lt;/b&gt;&lt;br&gt;F0F1 ATP synthase subunit gamma&lt;br&gt;Location: 1092858 - 1093718&lt;br&gt;&lt;br&gt;&lt;b&gt;BlastP hit with ctg5_997&lt;/b&gt;&lt;br&gt;Percentage identity: 100&lt;br&gt;Percentage coverage: 100&lt;br&gt;BLAST bit score: 546&lt;br&gt;E-value: 1.5e-153" locus_tag="AL066_RS30100" class="clusterblast-orf" id="dummy-1_h1_1_13"  />
</g>
<g id="a1_0014"  >
<polygon points="579,85 584,80 637,80 637,90 584,90 579,85 " style="fill:#1515d8; stroke-width:1; stroke:black; " description="&lt;b&gt;AL066_RS30105&lt;/b&gt;&lt;br&gt;F0F1 ATP synthase subunit alpha&lt;br&gt;Location: 1093769 - 1095313&lt;br&gt;&lt;br&gt;&lt;b&gt;BlastP hit with ctg5_998&lt;/b&gt;&lt;br&gt;Percentage identity: 100&lt;br&gt;Percentage coverage: 100&lt;br&gt;BLAST bit score: 987&lt;br&gt;E-value: 4.6e-286" locus_tag="AL066_RS30105" class="clusterblast-orf" id="dummy-1_h1_1_14"  />
</g>
<g id="a1_0015"  >
<polygon points="638,85 643,80 658,80 658,90 643,90 638,85 " style="fill:#d81585; stroke-width:1; stroke:black; " description="&lt;b&gt;AL066_RS30110&lt;/b&gt;&lt;br&gt;F0F1 ATP synthase subunit delta&lt;br&gt;Location: 1095335 - 1095871&lt;br&gt;&lt;br&gt;&lt;b&gt;BlastP hit with ctg5_999&lt;/b&gt;&lt;br&gt;Percentage identity: 100&lt;br&gt;Percentage coverage: 100&lt;br&gt;BLAST bit score: 331&lt;br&gt;E-value: 8.1e-89" locus_tag="AL066_RS30110" class="clusterblast-orf" id="dummy-1_h1_1_15"  />
</g>
<g id="a1_0016"  >
<polygon points="658,85 663,80 676,80 676,90 663,90 658,85 " style="fill:#bcd815; stroke-width:1; stroke:black; " description="&lt;b&gt;AL066_RS30115&lt;/b&gt;&lt;br&gt;F0F1 ATP synthase subunit B&lt;br&gt;Location: 1095884 - 1096354&lt;br&gt;&lt;br&gt;&lt;b&gt;BlastP hit with ctg5_1000&lt;/b&gt;&lt;br&gt;Percentage identity: 99&lt;br&gt;Percentage coverage: 100&lt;br&gt;BLAST bit score: 184&lt;br&gt;E-value: 8.2e-45" locus_tag="AL066_RS30115" class="clusterblast-orf" id="dummy-1_h1_1_16"  />
</g>
<g id="a1_0017"  >
<polygon points="678,85 683,80 688,80 688,90 683,90 678,85 " style="fill:#15d8bc; stroke-width:1; stroke:black; " description="&lt;b&gt;AL066_RS30120&lt;/b&gt;&lt;br&gt;ATP synthase subunit C&lt;br&gt;Location: 1096411 - 1096668&lt;br&gt;&lt;br&gt;&lt;b&gt;BlastP hit with ctg5_1001&lt;/b&gt;&lt;br&gt;Percentage identity: 100&lt;br&gt;Percentage coverage: 100&lt;br&gt;BLAST bit score: 155&lt;br&gt;E-value: 3.8e-36" locus_tag="AL066_RS30120" class="clusterblast-orf" id="dummy-1_h1_1_17"  />
</g>
<g id="a1_0018"  >
<polygon points="693,85 698,80 725,80 725,90 698,90 693,85 " style="fill:#4d15d8; stroke-width:1; stroke:black; " description="&lt;b&gt;AL066_RS30125&lt;/b&gt;&lt;br&gt;F0F1 ATP synthase subunit A&lt;br&gt;Location: 1096803 - 1097672&lt;br&gt;&lt;br&gt;&lt;b&gt;BlastP hit with ctg5_1002&lt;/b&gt;&lt;br&gt;Percentage identity: 100&lt;br&gt;Percentage coverage: 100&lt;br&gt;BLAST bit score: 564&lt;br&gt;E-value: 7.1e-159" locus_tag="AL066_RS30125" class="clusterblast-orf" id="dummy-1_h1_1_18"  />
</g>
<g id="a1_0019"  >
<polygon points="726,85 731,80 741,80 741,90 731,90 726,85 " style="fill:#d8154d; stroke-width:1; stroke:black; " description="&lt;b&gt;AL066_RS30130&lt;/b&gt;&lt;br&gt;ATP synthase F0F1 subunit I&lt;br&gt;Location: 1097689 - 1098096&lt;br&gt;&lt;br&gt;&lt;b&gt;BlastP hit with ctg5_1003&lt;/b&gt;&lt;br&gt;Percentage identity: 100&lt;br&gt;Percentage coverage: 100&lt;br&gt;BLAST bit score: 258&lt;br&gt;E-value: 3.9e-67" locus_tag="AL066_RS30130" class="clusterblast-orf" id="dummy-1_h1_1_19"  />
</g>
<g id="a1_0020"  >
<polygon points="747,85 752,80 779,80 779,90 752,90 747,85 " style="fill:#85d815; stroke-width:1; stroke:black; " description="&lt;b&gt;AL066_RS30135&lt;/b&gt;&lt;br&gt;chromosome partitioning protein ParB&lt;br&gt;Location: 1098245 - 1099117&lt;br&gt;&lt;br&gt;&lt;b&gt;BlastP hit with ctg5_1004&lt;/b&gt;&lt;br&gt;Percentage identity: 100&lt;br&gt;Percentage coverage: 100&lt;br&gt;BLAST bit score: 552&lt;br&gt;E-value: 2.8e-155" locus_tag="AL066_RS30135" class="clusterblast-orf" id="dummy-1_h1_1_20"  />
</g>
</svg>
