<svg xmlns="http://www.w3.org/2000/svg" xmlns:xlink="http://www.w3.org/1999/xlink" version="1.1" x="0" y="0" height="230" width="800" viewBox="0 0 800 230" preserveAspectRatio="none"  >
<g label="Query sequence" class="clusterblast-cluster"  >
<text x="5" y="20" class="clusterblast-acc"  >
Query sequence</text>
<line x1="10" y1="35" x2="778.0" y2="35" style="stroke-width:1; stroke:grey; "  />
<polygon points="0,40 29,40 34,35 29,30 0,30 0,40 " style="fill:#d81515; stroke-width:1; stroke:black; " description="&lt;b&gt;ctg3_1885&lt;/b&gt;&lt;br&gt;ctg3 1885&lt;br&gt;Location: 2244699 - 2245152" locus_tag="ctg3_1885" class="clusterblast-orf" id="dummy-3_q0_0_all"  />
<polygon points="41,40 70,40 75,35 70,30 41,30 41,40 " style="fill:#d81515; stroke-width:1; stroke:black; " description="&lt;b&gt;ctg3_1886&lt;/b&gt;&lt;br&gt;ctg3 1886&lt;br&gt;Location: 2245255 - 2245708" locus_tag="ctg3_1886" class="clusterblast-orf" id="dummy-3_q1_0_all"  />
<polygon points="86,40 115,40 120,35 115,30 86,30 86,40 " style="fill:#77d815; stroke-width:1; stroke:black; " description="&lt;b&gt;ctg3_1887&lt;/b&gt;&lt;br&gt;ctg3 1887&lt;br&gt;Location: 2245857 - 2246316" locus_tag="ctg3_1887" class="clusterblast-orf" id="dummy-3_q2_0_all"  />
<polygon points="120,40 140,40 145,35 140,30 120,30 120,40 " style="fill:#15d8d8; stroke-width:1; stroke:black; " description="&lt;b&gt;ctg3_1888&lt;/b&gt;&lt;br&gt;ctg3 1888&lt;br&gt;Location: 2246312 - 2246654" locus_tag="ctg3_1888" class="clusterblast-orf" id="dummy-3_q3_0_all"  />
<polygon points="143,35 148,30 213,30 213,40 148,40 143,35 " style="fill:#7715d8; stroke-width:1; stroke:black; " description="&lt;b&gt;ctg3_1889&lt;/b&gt;&lt;br&gt;ctg3 1889&lt;br&gt;Location: 2246623 - 2247562" locus_tag="ctg3_1889" class="clusterblast-orf" id="dummy-3_q4_0_all"  />
<polygon points="218,40 279,40 284,35 279,30 218,30 218,40 " style="fill:#d87715; stroke-width:1; stroke:black; " description="&lt;b&gt;ctg3_1890&lt;/b&gt;&lt;br&gt;ctg3 1890&lt;br&gt;Location: 2247630 - 2248518" locus_tag="ctg3_1890" class="clusterblast-orf" id="dummy-3_q5_0_all"  />
<polygon points="293,35 298,30 349,30 349,40 298,40 293,35 " style="fill:#15d815; stroke-width:1; stroke:black; " description="&lt;b&gt;ctg3_1891&lt;/b&gt;&lt;br&gt;ctg3 1891&lt;br&gt;Location: 2248647 - 2249406" locus_tag="ctg3_1891" class="clusterblast-orf" id="dummy-3_q6_0_all"  />
<polygon points="349,35 354,30 411,30 411,40 354,40 349,35 " style="fill:#1577d8; stroke-width:1; stroke:black; " description="&lt;b&gt;ctg3_1892&lt;/b&gt;&lt;br&gt;ctg3 1892&lt;br&gt;Location: 2249398 - 2250238" locus_tag="ctg3_1892" class="clusterblast-orf" id="dummy-3_q7_0_all"  />
<polygon points="416,35 421,30 431,30 431,40 421,40 416,35 " style="fill:#d815d8; stroke-width:1; stroke:black; " description="&lt;b&gt;ctg3_1893&lt;/b&gt;&lt;br&gt;ctg3 1893&lt;br&gt;Location: 2250300 - 2250507" locus_tag="ctg3_1893" class="clusterblast-orf" id="dummy-3_q8_0_all"  />
<polygon points="445,35 450,30 544,30 544,40 450,40 445,35 " style="fill:#d8d815; stroke-width:1; stroke:black; " description="&lt;b&gt;ctg3_1894&lt;/b&gt;&lt;br&gt;ctg3 1894&lt;br&gt;Location: 2250689 - 2252024" locus_tag="ctg3_1894" class="clusterblast-orf" id="dummy-3_q9_0_all"  />
<polygon points="568,35 573,30 637,30 637,40 573,40 568,35 " style="fill:#15d877; stroke-width:1; stroke:black; " description="&lt;b&gt;ctg3_1895&lt;/b&gt;&lt;br&gt;ctg3 1895&lt;br&gt;Location: 2252354 - 2253278" locus_tag="ctg3_1895" class="clusterblast-orf" id="dummy-3_q10_0_all"  />
<polygon points="653,35 658,30 731,30 731,40 658,40 653,35 " style="fill:#1515d8; stroke-width:1; stroke:black; " description="&lt;b&gt;ctg3_1896&lt;/b&gt;&lt;br&gt;ctg3 1896&lt;br&gt;Location: 2253502 - 2254546" locus_tag="ctg3_1896" class="clusterblast-orf" id="dummy-3_q11_0_all"  />
<polygon points="747,40 775,40 780,35 775,30 747,30 747,40 " style="fill:#d81577; stroke-width:1; stroke:black; " description="&lt;b&gt;ctg3_1897&lt;/b&gt;&lt;br&gt;ctg3 1897&lt;br&gt;Location: 2254762 - 2255212" locus_tag="ctg3_1897" class="clusterblast-orf" id="dummy-3_q12_0_all"  />
</g>
<g label="NZ_LIUV01000007" description="NZ_LIUV01000007_c10: Pseudomonas sp. 655 contig 7, whole genome shotgun sequence (100% of genes show similarity), bacteriocin" class="clusterblast-cluster"  >
<text x="5" y="70" class="clusterblast-acc"  >
<a xlink:href="https://antismash-db.secondarymetabolites.org/go/NZ_LIUV01000007/10" target="_blank">NZ_LIUV01000007_c10</a>: Pseudomonas sp. 655 contig 7, whole genome shotgun sequence (100% of genes show similarity), bacteriocin</text>
<line x1="10" y1="85" x2="778.0" y2="85" style="stroke-width:1; stroke:grey; "  />
</g>
<g id="a3_000"  >
<polygon points="0,90 28,90 33,85 28,80 0,80 0,90 " style="fill:#d81515; stroke-width:1; stroke:black; " description="&lt;b&gt;AM274_RS14185&lt;/b&gt;&lt;br&gt;peroxiredoxin&lt;br&gt;Location: 80433 - 80885&lt;br&gt;&lt;br&gt;&lt;b&gt;BlastP hit with ctg3_1885&lt;/b&gt;&lt;br&gt;Percentage identity: 100&lt;br&gt;Percentage coverage: 100&lt;br&gt;BLAST bit score: 293&lt;br&gt;E-value: 1.6e-77&lt;br&gt;&lt;br&gt;&lt;b&gt;BlastP hit with ctg3_1886&lt;/b&gt;&lt;br&gt;Percentage identity: 79&lt;br&gt;Percentage coverage: 100&lt;br&gt;BLAST bit score: 238&lt;br&gt;E-value: 3.5e-61" locus_tag="AM274_RS14185" class="clusterblast-orf" id="dummy-3_h3_2_0"  />
</g>
<g id="a3_001"  >
<polygon points="41,90 69,90 74,85 69,80 41,80 41,90 " style="fill:#d81515; stroke-width:1; stroke:black; " description="&lt;b&gt;AM274_RS14190&lt;/b&gt;&lt;br&gt;peroxiredoxin&lt;br&gt;Location: 80989 - 81441&lt;br&gt;&lt;br&gt;&lt;b&gt;BlastP hit with ctg3_1885&lt;/b&gt;&lt;br&gt;Percentage identity: 79&lt;br&gt;Percentage coverage: 100&lt;br&gt;BLAST bit score: 240&lt;br&gt;E-value: 1.6e-61&lt;br&gt;&lt;br&gt;&lt;b&gt;BlastP hit with ctg3_1886&lt;/b&gt;&lt;br&gt;Percentage identity: 100&lt;br&gt;Percentage coverage: 100&lt;br&gt;BLAST bit score: 296&lt;br&gt;E-value: 1.4e-78" locus_tag="AM274_RS14190" class="clusterblast-orf" id="dummy-3_h3_2_1"  />
</g>
<g id="a3_002"  >
<polygon points="85,90 114,90 119,85 114,80 85,80 85,90 " style="fill:#77d815; stroke-width:1; stroke:black; " description="&lt;b&gt;AM274_RS14195&lt;/b&gt;&lt;br&gt;MarR family transcriptional regulator&lt;br&gt;Location: 81591 - 82049&lt;br&gt;&lt;br&gt;&lt;b&gt;BlastP hit with ctg3_1887&lt;/b&gt;&lt;br&gt;Percentage identity: 100&lt;br&gt;Percentage coverage: 100&lt;br&gt;BLAST bit score: 303&lt;br&gt;E-value: 1.5e-80" locus_tag="AM274_RS14195" class="clusterblast-orf" id="dummy-3_h3_2_2"  />
</g>
<g id="a3_003"  >
<polygon points="119,90 140,90 145,85 140,80 119,80 119,90 " style="fill:#15d8d8; stroke-width:1; stroke:black; " description="&lt;b&gt;AM274_RS14200&lt;/b&gt;&lt;br&gt;hypothetical protein&lt;br&gt;Location: 82046 - 82387&lt;br&gt;&lt;br&gt;&lt;b&gt;BlastP hit with ctg3_1888&lt;/b&gt;&lt;br&gt;Percentage identity: 96&lt;br&gt;Percentage coverage: 100&lt;br&gt;BLAST bit score: 226&lt;br&gt;E-value: 1.4e-57" locus_tag="AM274_RS14200" class="clusterblast-orf" id="dummy-3_h3_2_3"  />
</g>
<g id="a3_004"  >
<polygon points="142,85 147,80 209,80 209,90 147,90 142,85 " style="fill:#7715d8; stroke-width:1; stroke:black; " description="&lt;b&gt;AM274_RS14205&lt;/b&gt;&lt;br&gt;LysR family transcriptional regulator&lt;br&gt;Location: 82357 - 83255&lt;br&gt;&lt;br&gt;&lt;b&gt;BlastP hit with ctg3_1889&lt;/b&gt;&lt;br&gt;Percentage identity: 96&lt;br&gt;Percentage coverage: 28&lt;br&gt;BLAST bit score: 159&lt;br&gt;E-value: 7.4e-37" locus_tag="AM274_RS14205" class="clusterblast-orf" id="dummy-3_h3_2_4"  />
</g>
<g id="a3_005"  >
<polygon points="224,90 278,90 283,85 278,80 224,80 224,90 " style="fill:#d87715; stroke-width:1; stroke:black; " description="&lt;b&gt;AM274_RS14210&lt;/b&gt;&lt;br&gt;hypothetical protein&lt;br&gt;Location: 83453 - 84250&lt;br&gt;&lt;br&gt;&lt;b&gt;BlastP hit with ctg3_1890&lt;/b&gt;&lt;br&gt;Percentage identity: 98&lt;br&gt;Percentage coverage: 90&lt;br&gt;BLAST bit score: 530&lt;br&gt;E-value: 1.2e-148" locus_tag="AM274_RS14210" class="clusterblast-orf" id="dummy-3_h3_2_5"  />
</g>
<g id="a3_006"  >
<polygon points="292,85 297,80 349,80 349,90 297,90 292,85 " style="fill:#15d815; stroke-width:1; stroke:black; " description="&lt;b&gt;AM274_RS14215&lt;/b&gt;&lt;br&gt;DUF2063 domain-containing protein&lt;br&gt;Location: 84380 - 85138&lt;br&gt;&lt;br&gt;&lt;b&gt;BlastP hit with ctg3_1891&lt;/b&gt;&lt;br&gt;Percentage identity: 98&lt;br&gt;Percentage coverage: 100&lt;br&gt;BLAST bit score: 507&lt;br&gt;E-value: 6.9e-142" locus_tag="AM274_RS14215" class="clusterblast-orf" id="dummy-3_h3_2_6"  />
</g>
<g id="a3_007"  >
<polygon points="348,85 353,80 410,80 410,90 353,90 348,85 " style="fill:#1577d8; stroke-width:1; stroke:black; " description="&lt;b&gt;AM274_RS14220&lt;/b&gt;&lt;br&gt;DUF692 domain-containing protein&lt;br&gt;Location: 85131 - 85970&lt;br&gt;&lt;br&gt;&lt;b&gt;BlastP hit with ctg3_1892&lt;/b&gt;&lt;br&gt;Percentage identity: 97&lt;br&gt;Percentage coverage: 100&lt;br&gt;BLAST bit score: 553&lt;br&gt;E-value: 1.6e-155" locus_tag="AM274_RS14220" class="clusterblast-orf" id="dummy-3_h3_2_7"  />
</g>
<g id="a3_008"  >
<polygon points="415,85 420,80 430,80 430,90 420,90 415,85 " style="fill:#d815d8; stroke-width:1; stroke:black; " description="&lt;b&gt;AM274_RS14225&lt;/b&gt;&lt;br&gt;hypothetical protein&lt;br&gt;Location: 86033 - 86239&lt;br&gt;&lt;br&gt;&lt;b&gt;BlastP hit with ctg3_1893&lt;/b&gt;&lt;br&gt;Percentage identity: 99&lt;br&gt;Percentage coverage: 100&lt;br&gt;BLAST bit score: 91&lt;br&gt;E-value: 4.1e-17" locus_tag="AM274_RS14225" class="clusterblast-orf" id="dummy-3_h3_2_8"  />
</g>
<g id="a3_009"  >
<polygon points="444,85 449,80 543,80 543,90 449,90 444,85 " style="fill:#d8d815; stroke-width:1; stroke:black; " description="&lt;b&gt;AM274_RS14230&lt;/b&gt;&lt;br&gt;acetamidase&lt;br&gt;Location: 86422 - 87756&lt;br&gt;&lt;br&gt;&lt;b&gt;BlastP hit with ctg3_1894&lt;/b&gt;&lt;br&gt;Percentage identity: 99&lt;br&gt;Percentage coverage: 100&lt;br&gt;BLAST bit score: 907&lt;br&gt;E-value: 6.8e-262" locus_tag="AM274_RS14230" class="clusterblast-orf" id="dummy-3_h3_2_9"  />
</g>
<g id="a3_0010"  >
<polygon points="567,85 572,80 636,80 636,90 572,90 567,85 " style="fill:#15d877; stroke-width:1; stroke:black; " description="&lt;b&gt;AM274_RS14235&lt;/b&gt;&lt;br&gt;LysR family transcriptional regulator&lt;br&gt;Location: 88087 - 89010&lt;br&gt;&lt;br&gt;&lt;b&gt;BlastP hit with ctg3_1895&lt;/b&gt;&lt;br&gt;Percentage identity: 100&lt;br&gt;Percentage coverage: 100&lt;br&gt;BLAST bit score: 608&lt;br&gt;E-value: 4.5e-172" locus_tag="AM274_RS14235" class="clusterblast-orf" id="dummy-3_h3_2_10"  />
</g>
<g id="a3_0011"  >
<polygon points="653,85 658,80 726,80 726,90 658,90 653,85 " style="fill:#1515d8; stroke-width:1; stroke:black; " description="&lt;b&gt;AM274_RS14240&lt;/b&gt;&lt;br&gt;MBL fold metallo-hydrolase&lt;br&gt;Location: 89235 - 90218&lt;br&gt;&lt;br&gt;&lt;b&gt;BlastP hit with ctg3_1896&lt;/b&gt;&lt;br&gt;Percentage identity: 100&lt;br&gt;Percentage coverage: 94&lt;br&gt;BLAST bit score: 653&lt;br&gt;E-value: 1.1e-185" locus_tag="AM274_RS14240" class="clusterblast-orf" id="dummy-3_h3_2_11"  />
</g>
<g id="a3_0012"  >
<polygon points="746,90 774,90 779,85 774,80 746,80 746,90 " style="fill:#d81577; stroke-width:1; stroke:black; " description="&lt;b&gt;AM274_RS14245&lt;/b&gt;&lt;br&gt;AraC family transcriptional regulator&lt;br&gt;Location: 90495 - 90944&lt;br&gt;&lt;br&gt;&lt;b&gt;BlastP hit with ctg3_1897&lt;/b&gt;&lt;br&gt;Percentage identity: 100&lt;br&gt;Percentage coverage: 100&lt;br&gt;BLAST bit score: 311&lt;br&gt;E-value: 7.3e-83" locus_tag="AM274_RS14245" class="clusterblast-orf" id="dummy-3_h3_2_12"  />
</g>
</svg>
