<svg xmlns="http://www.w3.org/2000/svg" xmlns:xlink="http://www.w3.org/1999/xlink" version="1.1" x="0" y="0" height="230" width="800" viewBox="0 0 800 230" preserveAspectRatio="none"  >
<g label="Query sequence" class="clusterblast-cluster"  >
<text x="5" y="20" class="clusterblast-acc"  >
Query sequence</text>
<line x1="10" y1="35" x2="778.0" y2="35" style="stroke-width:1; stroke:grey; "  />
<polygon points="0,35 5,30 35,30 35,40 5,40 0,35 " style="fill:#d81515; stroke-width:1; stroke:black; " description="&lt;b&gt;ctg3_2058&lt;/b&gt;&lt;br&gt;ctg3 2058&lt;br&gt;Location: 2447924 - 2448710" locus_tag="ctg3_2058" class="clusterblast-orf" id="dummy-4_q0_0_all"  />
<polygon points="34,35 39,30 69,30 69,40 39,40 34,35 " style="fill:#77d815; stroke-width:1; stroke:black; " description="&lt;b&gt;ctg3_2059&lt;/b&gt;&lt;br&gt;ctg3 2059&lt;br&gt;Location: 2448706 - 2449498" locus_tag="ctg3_2059" class="clusterblast-orf" id="dummy-4_q1_0_all"  />
<polygon points="70,35 75,30 115,30 115,40 75,40 70,35 " style="fill:#15d8d8; stroke-width:1; stroke:black; " description="&lt;b&gt;ctg3_2060&lt;/b&gt;&lt;br&gt;ctg3 2060&lt;br&gt;Location: 2449510 - 2450542" locus_tag="ctg3_2060" class="clusterblast-orf" id="dummy-4_q2_0_all"  />
<polygon points="115,35 120,30 158,30 158,40 120,40 115,35 " style="fill:#15d8d8; stroke-width:1; stroke:black; " description="&lt;b&gt;ctg3_2061&lt;/b&gt;&lt;br&gt;ctg3 2061&lt;br&gt;Location: 2450534 - 2451524" locus_tag="ctg3_2061" class="clusterblast-orf" id="dummy-4_q3_0_all"  />
<polygon points="158,35 163,30 197,30 197,40 163,40 158,35 " style="fill:#7715d8; stroke-width:1; stroke:black; " description="&lt;b&gt;ctg3_2062&lt;/b&gt;&lt;br&gt;ctg3 2062&lt;br&gt;Location: 2451520 - 2452393" locus_tag="ctg3_2062" class="clusterblast-orf" id="dummy-4_q4_0_all"  />
<polygon points="198,35 203,30 278,30 278,40 203,40 198,35 " style="fill:#d87715; stroke-width:1; stroke:black; " description="&lt;b&gt;ctg3_2063&lt;/b&gt;&lt;br&gt;ctg3 2063&lt;br&gt;Location: 2452424 - 2454254" locus_tag="ctg3_2063" class="clusterblast-orf" id="dummy-4_q5_0_all"  />
<polygon points="279,35 284,30 313,30 313,40 284,40 279,35 " style="fill:#15d815; stroke-width:1; stroke:black; " description="&lt;b&gt;ctg3_2064&lt;/b&gt;&lt;br&gt;ctg3 2064&lt;br&gt;Location: 2454258 - 2455032" locus_tag="ctg3_2064" class="clusterblast-orf" id="dummy-4_q6_0_all"  />
<polygon points="312,35 317,30 394,30 394,40 317,40 312,35 " style="fill:#1577d8; stroke-width:1; stroke:black; " description="&lt;b&gt;ctg3_2065&lt;/b&gt;&lt;br&gt;ctg3 2065&lt;br&gt;Location: 2455025 - 2456879" locus_tag="ctg3_2065" class="clusterblast-orf" id="dummy-4_q7_0_all"  />
<polygon points="395,35 400,30 458,30 458,40 400,40 395,35 " style="fill:#d815d8; stroke-width:1; stroke:black; " description="&lt;b&gt;ctg3_2066&lt;/b&gt;&lt;br&gt;ctg3 2066&lt;br&gt;Location: 2456903 - 2458325" locus_tag="ctg3_2066" class="clusterblast-orf" id="dummy-4_q8_0_all"  />
<polygon points="457,35 462,30 511,30 511,40 462,40 457,35 " style="fill:#d8d815; stroke-width:1; stroke:black; " description="&lt;b&gt;ctg3_2067&lt;/b&gt;&lt;br&gt;ctg3 2067&lt;br&gt;Location: 2458315 - 2459527" locus_tag="ctg3_2067" class="clusterblast-orf" id="dummy-4_q9_0_all"  />
<polygon points="510,35 515,30 589,30 589,40 515,40 510,35 " style="fill:#15d877; stroke-width:1; stroke:black; " description="&lt;b&gt;ctg3_2068&lt;/b&gt;&lt;br&gt;ctg3 2068&lt;br&gt;Location: 2459519 - 2461301" locus_tag="ctg3_2068" class="clusterblast-orf" id="dummy-4_q10_0_all"  />
<polygon points="597,35 602,30 658,30 658,40 602,40 597,35 " style="fill:#1515d8; stroke-width:1; stroke:black; " description="&lt;b&gt;ctg3_2069&lt;/b&gt;&lt;br&gt;ctg3 2069&lt;br&gt;Location: 2461498 - 2462875" locus_tag="ctg3_2069" class="clusterblast-orf" id="dummy-4_q11_0_all"  />
<polygon points="673,35 678,30 780,30 780,40 678,40 673,35 " style="fill:#d81577; stroke-width:1; stroke:black; " description="&lt;b&gt;ctg3_2070&lt;/b&gt;&lt;br&gt;ctg3 2070&lt;br&gt;Location: 2463226 - 2465650" locus_tag="ctg3_2070" class="clusterblast-orf" id="dummy-4_q12_0_all"  />
</g>
<g label="NZ_LIUV01000024" description="NZ_LIUV01000024_c6: Pseudomonas sp. 655 contig 24, whole genome shotgun sequence (100% of genes show similarity), siderophore" class="clusterblast-cluster"  >
<text x="5" y="70" class="clusterblast-acc"  >
<a xlink:href="https://antismash-db.secondarymetabolites.org/go/NZ_LIUV01000024/6" target="_blank">NZ_LIUV01000024_c6</a>: Pseudomonas sp. 655 contig 24, whole genome shotgun sequence (100% of genes show similarity), siderophore</text>
<line x1="10" y1="85" x2="778.0" y2="85" style="stroke-width:1; stroke:grey; "  />
</g>
<g id="a4_000"  >
<polygon points="0,85 5,80 34,80 34,90 5,90 0,85 " style="fill:#d81515; stroke-width:1; stroke:black; " description="&lt;b&gt;AM274_RS25190&lt;/b&gt;&lt;br&gt;siderophore-iron reductase, Fe-S cluster protein&lt;br&gt;Location: 44262 - 43477&lt;br&gt;&lt;br&gt;&lt;b&gt;BlastP hit with ctg3_2058&lt;/b&gt;&lt;br&gt;Percentage identity: 96&lt;br&gt;Percentage coverage: 100&lt;br&gt;BLAST bit score: 522&lt;br&gt;E-value: 3.6e-146" locus_tag="AM274_RS25190" class="clusterblast-orf" id="dummy-4_h4_2_0"  />
</g>
<g id="a4_001"  >
<polygon points="34,85 39,80 69,80 69,90 39,90 34,85 " style="fill:#77d815; stroke-width:1; stroke:black; " description="&lt;b&gt;AM274_RS25185&lt;/b&gt;&lt;br&gt;ABC transporter ATP-binding protein&lt;br&gt;Location: 43480 - 42689&lt;br&gt;&lt;br&gt;&lt;b&gt;BlastP hit with ctg3_2059&lt;/b&gt;&lt;br&gt;Percentage identity: 100&lt;br&gt;Percentage coverage: 100&lt;br&gt;BLAST bit score: 515&lt;br&gt;E-value: 2.6e-144" locus_tag="AM274_RS25185" class="clusterblast-orf" id="dummy-4_h4_2_1"  />
</g>
<g id="a4_002"  >
<polygon points="69,85 74,80 115,80 115,90 74,90 69,85 " style="fill:#15d8d8; stroke-width:1; stroke:black; " description="&lt;b&gt;AM274_RS25180&lt;/b&gt;&lt;br&gt;iron ABC transporter permease&lt;br&gt;Location: 42676 - 41645&lt;br&gt;&lt;br&gt;&lt;b&gt;BlastP hit with ctg3_2060&lt;/b&gt;&lt;br&gt;Percentage identity: 99&lt;br&gt;Percentage coverage: 100&lt;br&gt;BLAST bit score: 614&lt;br&gt;E-value: 5.4e-174&lt;br&gt;&lt;br&gt;&lt;b&gt;BlastP hit with ctg3_2061&lt;/b&gt;&lt;br&gt;Percentage identity: 34&lt;br&gt;Percentage coverage: 100&lt;br&gt;BLAST bit score: 132&lt;br&gt;E-value: 7.8e-29" locus_tag="AM274_RS25180" class="clusterblast-orf" id="dummy-4_h4_2_2"  />
</g>
<g id="a4_003"  >
<polygon points="114,85 119,80 158,80 158,90 119,90 114,85 " style="fill:#15d8d8; stroke-width:1; stroke:black; " description="&lt;b&gt;AM274_RS25175&lt;/b&gt;&lt;br&gt;iron ABC transporter permease&lt;br&gt;Location: 41652 - 40663&lt;br&gt;&lt;br&gt;&lt;b&gt;BlastP hit with ctg3_2060&lt;/b&gt;&lt;br&gt;Percentage identity: 35&lt;br&gt;Percentage coverage: 96&lt;br&gt;BLAST bit score: 125&lt;br&gt;E-value: 1.3e-26&lt;br&gt;&lt;br&gt;&lt;b&gt;BlastP hit with ctg3_2061&lt;/b&gt;&lt;br&gt;Percentage identity: 99&lt;br&gt;Percentage coverage: 100&lt;br&gt;BLAST bit score: 600&lt;br&gt;E-value: 1e-169" locus_tag="AM274_RS25175" class="clusterblast-orf" id="dummy-4_h4_2_3"  />
</g>
<g id="a4_004"  >
<polygon points="158,85 163,80 198,80 198,90 163,90 158,85 " style="fill:#7715d8; stroke-width:1; stroke:black; " description="&lt;b&gt;AM274_RS25170&lt;/b&gt;&lt;br&gt;iron-siderophore ABC transporter substrate-binding protein&lt;br&gt;Location: 40666 - 39752&lt;br&gt;&lt;br&gt;&lt;b&gt;BlastP hit with ctg3_2062&lt;/b&gt;&lt;br&gt;Percentage identity: 100&lt;br&gt;Percentage coverage: 100&lt;br&gt;BLAST bit score: 569&lt;br&gt;E-value: 1.7e-160" locus_tag="AM274_RS25170" class="clusterblast-orf" id="dummy-4_h4_2_4"  />
</g>
<g id="a4_005"  >
<polygon points="198,85 203,80 278,80 278,90 203,90 198,85 " style="fill:#d87715; stroke-width:1; stroke:black; " description="&lt;b&gt;AM274_RS25165&lt;/b&gt;&lt;br&gt;AcsA protein&lt;br&gt;Location: 39762 - 37933&lt;br&gt;&lt;br&gt;&lt;b&gt;BlastP hit with ctg3_2063&lt;/b&gt;&lt;br&gt;Percentage identity: 100&lt;br&gt;Percentage coverage: 100&lt;br&gt;BLAST bit score: 1259&lt;br&gt;E-value: 0.0" locus_tag="AM274_RS25165" class="clusterblast-orf" id="dummy-4_h4_2_5"  />
</g>
<g id="a4_006"  >
<polygon points="278,85 283,80 312,80 312,90 283,90 278,85 " style="fill:#15d815; stroke-width:1; stroke:black; " description="&lt;b&gt;AM274_RS25160&lt;/b&gt;&lt;br&gt;siderophore biosynthesis protein SbnG&lt;br&gt;Location: 37928 - 37155&lt;br&gt;&lt;br&gt;&lt;b&gt;BlastP hit with ctg3_2064&lt;/b&gt;&lt;br&gt;Percentage identity: 98&lt;br&gt;Percentage coverage: 100&lt;br&gt;BLAST bit score: 492&lt;br&gt;E-value: 4e-137" locus_tag="AM274_RS25160" class="clusterblast-orf" id="dummy-4_h4_2_6"  />
</g>
<g id="a4_007"  >
<polygon points="312,85 317,80 394,80 394,90 317,90 312,85 " style="fill:#1577d8; stroke-width:1; stroke:black; " description="&lt;b&gt;AM274_RS25155&lt;/b&gt;&lt;br&gt;AcsC protein&lt;br&gt;Location: 37161 - 35308&lt;br&gt;&lt;br&gt;&lt;b&gt;BlastP hit with ctg3_2065&lt;/b&gt;&lt;br&gt;Percentage identity: 98&lt;br&gt;Percentage coverage: 100&lt;br&gt;BLAST bit score: 1243&lt;br&gt;E-value: 0.0" locus_tag="AM274_RS25155" class="clusterblast-orf" id="dummy-4_h4_2_7"  />
</g>
<g id="a4_008"  >
<polygon points="395,85 400,80 457,80 457,90 400,90 395,85 " style="fill:#d815d8; stroke-width:1; stroke:black; " description="&lt;b&gt;AM274_RS25150&lt;/b&gt;&lt;br&gt;MFS transporter&lt;br&gt;Location: 35283 - 33868&lt;br&gt;&lt;br&gt;&lt;b&gt;BlastP hit with ctg3_2066&lt;/b&gt;&lt;br&gt;Percentage identity: 99&lt;br&gt;Percentage coverage: 100&lt;br&gt;BLAST bit score: 876&lt;br&gt;E-value: 1.1e-252" locus_tag="AM274_RS25150" class="clusterblast-orf" id="dummy-4_h4_2_8"  />
</g>
<g id="a4_009"  >
<polygon points="457,85 462,80 510,80 510,90 462,90 457,85 " style="fill:#d8d815; stroke-width:1; stroke:black; " description="&lt;b&gt;AM274_RS25145&lt;/b&gt;&lt;br&gt;diaminopimelate decarboxylase&lt;br&gt;Location: 33871 - 32660&lt;br&gt;&lt;br&gt;&lt;b&gt;BlastP hit with ctg3_2067&lt;/b&gt;&lt;br&gt;Percentage identity: 100&lt;br&gt;Percentage coverage: 100&lt;br&gt;BLAST bit score: 832&lt;br&gt;E-value: 1.5e-239" locus_tag="AM274_RS25145" class="clusterblast-orf" id="dummy-4_h4_2_9"  />
</g>
<g id="a4_0010"  >
<polygon points="510,85 515,80 588,80 588,90 515,90 510,85 " style="fill:#15d877; stroke-width:1; stroke:black; " description="&lt;b&gt;AM274_RS25140&lt;/b&gt;&lt;br&gt;AcsD protein&lt;br&gt;Location: 32667 - 30886&lt;br&gt;&lt;br&gt;&lt;b&gt;BlastP hit with ctg3_2068&lt;/b&gt;&lt;br&gt;Percentage identity: 99&lt;br&gt;Percentage coverage: 100&lt;br&gt;BLAST bit score: 1219&lt;br&gt;E-value: 0.0" locus_tag="AM274_RS25140" class="clusterblast-orf" id="dummy-4_h4_2_10"  />
</g>
<g id="a4_0011"  >
<polygon points="597,85 602,80 657,80 657,90 602,90 597,85 " style="fill:#1515d8; stroke-width:1; stroke:black; " description="&lt;b&gt;AM274_RS25135&lt;/b&gt;&lt;br&gt;diaminobutyrate--2-oxoglutarate transaminase&lt;br&gt;Location: 30688 - 29312&lt;br&gt;&lt;br&gt;&lt;b&gt;BlastP hit with ctg3_2069&lt;/b&gt;&lt;br&gt;Percentage identity: 100&lt;br&gt;Percentage coverage: 100&lt;br&gt;BLAST bit score: 935&lt;br&gt;E-value: 3.2e-270" locus_tag="AM274_RS25135" class="clusterblast-orf" id="dummy-4_h4_2_11"  />
</g>
<g id="a4_0012"  >
<polygon points="673,85 678,80 779,80 779,90 678,90 673,85 " style="fill:#d81577; stroke-width:1; stroke:black; " description="&lt;b&gt;AM274_RS25130&lt;/b&gt;&lt;br&gt;TonB-dependent siderophore receptor&lt;br&gt;Location: 28960 - 26537&lt;br&gt;&lt;br&gt;&lt;b&gt;BlastP hit with ctg3_2070&lt;/b&gt;&lt;br&gt;Percentage identity: 100&lt;br&gt;Percentage coverage: 100&lt;br&gt;BLAST bit score: 1604&lt;br&gt;E-value: 0.0" locus_tag="AM274_RS25130" class="clusterblast-orf" id="dummy-4_h4_2_12"  />
</g>
</svg>
