<svg xmlns="http://www.w3.org/2000/svg" xmlns:xlink="http://www.w3.org/1999/xlink" version="1.1" x="0" y="0" height="230" width="800" viewBox="0 0 800 230" preserveAspectRatio="none"  >
<g label="Query sequence" class="clusterblast-cluster"  >
<text x="5" y="20" class="clusterblast-acc"  >
Query sequence</text>
<line x1="10" y1="35" x2="778.0" y2="35" style="stroke-width:1; stroke:grey; "  />
<polygon points="0,35 5,30 6,30 6,40 5,40 0,35 " style="fill:#d81515; stroke-width:1; stroke:black; " description="&lt;b&gt;ctg6_147&lt;/b&gt;&lt;br&gt;ctg6 147&lt;br&gt;Location: 179074 - 179695" locus_tag="ctg6_147" class="clusterblast-orf" id="dummy-1_q0_0_all"  />
<polygon points="10,35 15,30 37,30 37,40 15,40 10,35 " style="fill:#6dd815; stroke-width:1; stroke:black; " description="&lt;b&gt;ctg6_148&lt;/b&gt;&lt;br&gt;ctg6 148&lt;br&gt;Location: 180036 - 182742" locus_tag="ctg6_148" class="clusterblast-orf" id="dummy-1_q1_0_all"  />
<polygon points="43,35 48,30 56,30 56,40 48,40 43,35 " style="fill:#15c5d8; stroke-width:1; stroke:black; " description="&lt;b&gt;ctg6_149&lt;/b&gt;&lt;br&gt;ctg6 149&lt;br&gt;Location: 183246 - 184584" locus_tag="ctg6_149" class="clusterblast-orf" id="dummy-1_q2_0_all"  />
<polygon points="58,35 63,30 63,30 63,40 63,40 58,35 " style="fill:#9315d8; stroke-width:1; stroke:black; " description="&lt;b&gt;ctg6_150&lt;/b&gt;&lt;br&gt;ctg6 150&lt;br&gt;Location: 184716 - 185199" locus_tag="ctg6_150" class="clusterblast-orf" id="dummy-1_q3_0_all"  />
<polygon points="66,40 73,40 78,35 73,30 66,30 66,40 " style="fill:#d83b15; stroke-width:1; stroke:black; " description="&lt;b&gt;ctg6_151&lt;/b&gt;&lt;br&gt;ctg6 151&lt;br&gt;Location: 185519 - 186692" locus_tag="ctg6_151" class="clusterblast-orf" id="dummy-1_q4_0_all"  />
<polygon points="78,40 94,40 99,35 94,30 78,30 78,40 " style="fill:#48d815; stroke-width:1; stroke:black; " description="&lt;b&gt;ctg6_152&lt;/b&gt;&lt;br&gt;ctg6 152&lt;br&gt;Location: 186692 - 188666" locus_tag="ctg6_152" class="clusterblast-orf" id="dummy-1_q5_0_all"  />
<polygon points="99,40 108,40 113,35 108,30 99,30 99,40 " style="fill:#15a0d8; stroke-width:1; stroke:black; " description="&lt;b&gt;ctg6_153&lt;/b&gt;&lt;br&gt;ctg6 153&lt;br&gt;Location: 188673 - 190068" locus_tag="ctg6_153" class="clusterblast-orf" id="dummy-1_q6_0_all"  />
<polygon points="117,35 122,30 134,30 134,40 122,40 117,35 " style="fill:#b915d8; stroke-width:1; stroke:black; " description="&lt;b&gt;ctg6_154&lt;/b&gt;&lt;br&gt;ctg6 154&lt;br&gt;Location: 190471 - 192100" locus_tag="ctg6_154" class="clusterblast-orf" id="dummy-1_q7_0_all"  />
<polygon points="136,40 145,40 150,35 145,30 136,30 136,40 " style="fill:#d86115; stroke-width:1; stroke:black; " description="&lt;b&gt;ctg6_155&lt;/b&gt;&lt;br&gt;ctg6 155&lt;br&gt;Location: 192332 - 193703" locus_tag="ctg6_155" class="clusterblast-orf" id="dummy-1_q8_0_all"  />
<polygon points="150,40 159,40 164,35 159,30 150,30 150,40 " style="fill:#22d815; stroke-width:1; stroke:black; " description="&lt;b&gt;ctg6_156&lt;/b&gt;&lt;br&gt;ctg6 156&lt;br&gt;Location: 193699 - 194983" locus_tag="ctg6_156" class="clusterblast-orf" id="dummy-1_q9_0_all"  />
<polygon points="166,40 170,40 175,35 170,30 166,30 166,40 " style="fill:#157ad8; stroke-width:1; stroke:black; " description="&lt;b&gt;ctg6_157&lt;/b&gt;&lt;br&gt;ctg6 157&lt;br&gt;Location: 195221 - 196109" locus_tag="ctg6_157" class="clusterblast-orf" id="dummy-1_q10_0_all"  />
<polygon points="177,40 189,40 194,35 189,30 177,30 177,40 " style="fill:#d815d2; stroke-width:1; stroke:black; " description="&lt;b&gt;ctg6_158&lt;/b&gt;&lt;br&gt;ctg6 158&lt;br&gt;Location: 196239 - 197898" locus_tag="ctg6_158" class="clusterblast-orf" id="dummy-1_q11_0_all"  />
<polygon points="194,40 233,40 238,35 233,30 194,30 194,40 " style="fill:#d88615; stroke-width:1; stroke:black; " description="&lt;b&gt;ctg6_159&lt;/b&gt;&lt;br&gt;ctg6 159&lt;br&gt;Location: 197962 - 202165" locus_tag="ctg6_159" class="clusterblast-orf" id="dummy-1_q12_0_all"  />
<polygon points="243,35 246,30 246,40 243,35 " style="fill:#15d82e; stroke-width:1; stroke:black; " description="&lt;b&gt;ctg6_160&lt;/b&gt;&lt;br&gt;ctg6 160&lt;br&gt;Location: 202628 - 202997" locus_tag="ctg6_160" class="clusterblast-orf" id="dummy-1_q13_0_all"  />
<polygon points="254,35 259,30 280,30 280,40 259,40 254,35 " style="fill:#1554d8; stroke-width:1; stroke:black; " description="&lt;b&gt;ctg6_161&lt;/b&gt;&lt;br&gt;ctg6 161&lt;br&gt;Location: 203761 - 206242" locus_tag="ctg6_161" class="clusterblast-orf" id="dummy-1_q14_0_all"  />
<polygon points="286,35 291,30 319,30 319,40 291,40 286,35 " style="fill:#d88615; stroke-width:1; stroke:black; " description="&lt;b&gt;ctg6_162&lt;/b&gt;&lt;br&gt;ctg6 162&lt;br&gt;Location: 206833 - 210055" locus_tag="ctg6_162" class="clusterblast-orf" id="dummy-1_q15_0_all"  />
<polygon points="319,35 324,30 459,30 459,40 324,40 319,35 " style="fill:#d88615; stroke-width:1; stroke:black; " description="&lt;b&gt;ctg6_163&lt;/b&gt;&lt;br&gt;ctg6 163&lt;br&gt;Location: 210051 - 223575" locus_tag="ctg6_163" class="clusterblast-orf" id="dummy-1_q16_0_all"  />
<polygon points="459,35 464,30 586,30 586,40 464,40 459,35 " style="fill:#d88615; stroke-width:1; stroke:black; " description="&lt;b&gt;ctg6_164&lt;/b&gt;&lt;br&gt;ctg6 164&lt;br&gt;Location: 223592 - 235946" locus_tag="ctg6_164" class="clusterblast-orf" id="dummy-1_q17_0_all"  />
<polygon points="589,35 594,30 596,30 596,40 594,40 589,35 " style="fill:#d815ac; stroke-width:1; stroke:black; " description="&lt;b&gt;ctg6_165&lt;/b&gt;&lt;br&gt;ctg6 165&lt;br&gt;Location: 236194 - 236929" locus_tag="ctg6_165" class="clusterblast-orf" id="dummy-1_q18_0_all"  />
<polygon points="598,40 604,40 609,35 604,30 598,30 598,40 " style="fill:#d8ac15; stroke-width:1; stroke:black; " description="&lt;b&gt;ctg6_166&lt;/b&gt;&lt;br&gt;ctg6 166&lt;br&gt;Location: 237061 - 238195" locus_tag="ctg6_166" class="clusterblast-orf" id="dummy-1_q19_0_all"  />
<polygon points="611,35 616,30 623,30 623,40 616,40 611,35 " style="fill:#15d854; stroke-width:1; stroke:black; " description="&lt;b&gt;ctg6_167&lt;/b&gt;&lt;br&gt;ctg6 167&lt;br&gt;Location: 238308 - 239481" locus_tag="ctg6_167" class="clusterblast-orf" id="dummy-1_q20_0_all"  />
<polygon points="625,40 628,40 633,35 628,30 625,30 625,40 " style="fill:#152ed8; stroke-width:1; stroke:black; " description="&lt;b&gt;ctg6_168&lt;/b&gt;&lt;br&gt;ctg6 168&lt;br&gt;Location: 239709 - 240510" locus_tag="ctg6_168" class="clusterblast-orf" id="dummy-1_q21_0_all"  />
<polygon points="633,40 647,40 652,35 647,30 633,30 633,40 " style="fill:#d81586; stroke-width:1; stroke:black; " description="&lt;b&gt;ctg6_169&lt;/b&gt;&lt;br&gt;ctg6 169&lt;br&gt;Location: 240502 - 242329" locus_tag="ctg6_169" class="clusterblast-orf" id="dummy-1_q22_0_all"  />
<polygon points="658,40 662,35 658,30 658,40 " style="fill:#d8d215; stroke-width:1; stroke:black; " description="&lt;b&gt;ctg6_170&lt;/b&gt;&lt;br&gt;ctg6 170&lt;br&gt;Location: 242874 - 243264" locus_tag="ctg6_170" class="clusterblast-orf" id="dummy-1_q23_0_all"  />
<polygon points="663,40 671,40 676,35 671,30 663,30 663,40 " style="fill:white; stroke-width:1; stroke:black; " description="&lt;b&gt;ctg6_171&lt;/b&gt;&lt;br&gt;ctg6 171&lt;br&gt;Location: 243399 - 244644" locus_tag="ctg6_171" class="clusterblast-orf" id="dummy-1_q24_0_all"  />
<polygon points="677,40 681,40 686,35 681,30 677,30 677,40 " style="fill:#15d87a; stroke-width:1; stroke:black; " description="&lt;b&gt;ctg6_172&lt;/b&gt;&lt;br&gt;ctg6 172&lt;br&gt;Location: 244758 - 245664" locus_tag="ctg6_172" class="clusterblast-orf" id="dummy-1_q25_0_all"  />
<polygon points="686,35 691,30 696,30 696,40 691,40 686,35 " style="fill:#2215d8; stroke-width:1; stroke:black; " description="&lt;b&gt;ctg6_173&lt;/b&gt;&lt;br&gt;ctg6 173&lt;br&gt;Location: 245617 - 246616" locus_tag="ctg6_173" class="clusterblast-orf" id="dummy-1_q26_0_all"  />
<polygon points="697,40 699,40 704,35 699,30 697,30 697,40 " style="fill:#2215d8; stroke-width:1; stroke:black; " description="&lt;b&gt;ctg6_174&lt;/b&gt;&lt;br&gt;ctg6 174&lt;br&gt;Location: 246708 - 247395" locus_tag="ctg6_174" class="clusterblast-orf" id="dummy-1_q27_0_all"  />
<polygon points="705,35 710,30 712,30 712,40 710,40 705,35 " style="fill:white; stroke-width:1; stroke:black; " description="&lt;b&gt;ctg6_175&lt;/b&gt;&lt;br&gt;ctg6 175&lt;br&gt;Location: 247489 - 248107" locus_tag="ctg6_175" class="clusterblast-orf" id="dummy-1_q28_0_all"  />
<polygon points="715,35 720,30 723,30 723,40 720,40 715,35 " style="fill:#d81561; stroke-width:1; stroke:black; " description="&lt;b&gt;ctg6_176&lt;/b&gt;&lt;br&gt;ctg6 176&lt;br&gt;Location: 248451 - 249252" locus_tag="ctg6_176" class="clusterblast-orf" id="dummy-1_q29_0_all"  />
<polygon points="723,35 728,30 728,30 728,40 728,40 723,35 " style="fill:#b9d815; stroke-width:1; stroke:black; " description="&lt;b&gt;ctg6_177&lt;/b&gt;&lt;br&gt;ctg6 177&lt;br&gt;Location: 249252 - 249741" locus_tag="ctg6_177" class="clusterblast-orf" id="dummy-1_q30_0_all"  />
<polygon points="731,40 735,40 740,35 735,30 731,30 731,40 " style="fill:#15d8a0; stroke-width:1; stroke:black; " description="&lt;b&gt;ctg6_178&lt;/b&gt;&lt;br&gt;ctg6 178&lt;br&gt;Location: 249938 - 250883" locus_tag="ctg6_178" class="clusterblast-orf" id="dummy-1_q31_0_all"  />
<polygon points="740,40 744,35 740,30 740,40 " style="fill:#4815d8; stroke-width:1; stroke:black; " description="&lt;b&gt;ctg6_179&lt;/b&gt;&lt;br&gt;ctg6 179&lt;br&gt;Location: 250875 - 251274" locus_tag="ctg6_179" class="clusterblast-orf" id="dummy-1_q32_0_all"  />
<polygon points="746,40 749,35 746,30 746,40 " style="fill:#d8153b; stroke-width:1; stroke:black; " description="&lt;b&gt;ctg6_180&lt;/b&gt;&lt;br&gt;ctg6 180&lt;br&gt;Location: 251446 - 251749" locus_tag="ctg6_180" class="clusterblast-orf" id="dummy-1_q33_0_all"  />
<polygon points="751,40 753,40 758,35 753,30 751,30 751,40 " style="fill:white; stroke-width:1; stroke:black; " description="&lt;b&gt;ctg6_181&lt;/b&gt;&lt;br&gt;ctg6 181&lt;br&gt;Location: 251877 - 252582" locus_tag="ctg6_181" class="clusterblast-orf" id="dummy-1_q34_0_all"  />
<polygon points="759,40 763,35 759,30 759,40 " style="fill:#93d815; stroke-width:1; stroke:black; " description="&lt;b&gt;ctg6_182&lt;/b&gt;&lt;br&gt;ctg6 182&lt;br&gt;Location: 252704 - 253106" locus_tag="ctg6_182" class="clusterblast-orf" id="dummy-1_q35_0_all"  />
<polygon points="764,35 769,30 776,30 776,40 769,40 764,35 " style="fill:#15d8c5; stroke-width:1; stroke:black; " description="&lt;b&gt;ctg6_183&lt;/b&gt;&lt;br&gt;ctg6 183&lt;br&gt;Location: 253229 - 254348" locus_tag="ctg6_183" class="clusterblast-orf" id="dummy-1_q36_0_all"  />
<polygon points="776,35 780,30 780,40 776,35 " style="fill:#6d15d8; stroke-width:1; stroke:black; " description="&lt;b&gt;ctg6_184&lt;/b&gt;&lt;br&gt;ctg6 184&lt;br&gt;Location: 254372 - 254696" locus_tag="ctg6_184" class="clusterblast-orf" id="dummy-1_q37_0_all"  />
</g>
<g label="NZ_CP023466" description="NZ_CP023466_c5: Pseudomonas frederiksbergensis strain KNU-15 chromosome, comp... (68% of genes show similarity), nrps" class="clusterblast-cluster"  >
<text x="5" y="70" class="clusterblast-acc"  >
<a xlink:href="https://antismash-db.secondarymetabolites.org/go/NZ_CP023466/5" target="_blank">NZ_CP023466_c5</a>: Pseudomonas frederiksbergensis strain KNU-15 chromosome, comp... (68% of genes show similarity), nrps</text>
<line x1="10" y1="85" x2="778.0" y2="85" style="stroke-width:1; stroke:grey; "  />
</g>
<g id="a1_000"  >
<polygon points="2,85 7,80 9,80 9,90 7,90 2,85 " style="fill:#d81515; stroke-width:1; stroke:black; " description="&lt;b&gt;CNN82_RS10405&lt;/b&gt;&lt;br&gt;DNA-binding response regulator&lt;br&gt;Location: 2223366 - 2222746&lt;br&gt;&lt;br&gt;&lt;b&gt;BlastP hit with ctg6_147&lt;/b&gt;&lt;br&gt;Percentage identity: 62&lt;br&gt;Percentage coverage: 100&lt;br&gt;BLAST bit score: 241&lt;br&gt;E-value: 9.8e-62" locus_tag="CNN82_RS10405" class="clusterblast-orf" id="dummy-1_h1_5_0"  />
</g>
<g id="a1_001"  >
<polygon points="10,85 14,80 14,90 10,85 " style="fill:white; stroke-width:1; stroke:black; " description="&lt;b&gt;CNN82_RS10400&lt;/b&gt;&lt;br&gt;hypothetical protein&lt;br&gt;Location: 2222647 - 2222240" locus_tag="CNN82_RS10400" class="clusterblast-orf" id="dummy-1_h1_5_1"  />
</g>
<g id="a1_002"  >
<polygon points="15,85 20,80 43,80 43,90 20,90 15,85 " style="fill:#6dd815; stroke-width:1; stroke:black; " description="&lt;b&gt;CNN82_RS10395&lt;/b&gt;&lt;br&gt;magnesium-translocating P-type ATPase&lt;br&gt;Location: 2222098 - 2219381&lt;br&gt;&lt;br&gt;&lt;b&gt;BlastP hit with ctg6_148&lt;/b&gt;&lt;br&gt;Percentage identity: 91&lt;br&gt;Percentage coverage: 101&lt;br&gt;BLAST bit score: 1564&lt;br&gt;E-value: 0.0" locus_tag="CNN82_RS10395" class="clusterblast-orf" id="dummy-1_h1_5_2"  />
</g>
<g id="a1_003"  >
<polygon points="49,85 54,80 63,80 63,90 54,90 49,85 " style="fill:#15c5d8; stroke-width:1; stroke:black; " description="&lt;b&gt;CNN82_RS10390&lt;/b&gt;&lt;br&gt;ornithine monooxygenase&lt;br&gt;Location: 2218841 - 2217504&lt;br&gt;&lt;br&gt;&lt;b&gt;BlastP hit with ctg6_149&lt;/b&gt;&lt;br&gt;Percentage identity: 96&lt;br&gt;Percentage coverage: 100&lt;br&gt;BLAST bit score: 858&lt;br&gt;E-value: 2.8e-247" locus_tag="CNN82_RS10390" class="clusterblast-orf" id="dummy-1_h1_5_3"  />
</g>
<g id="a1_004"  >
<polygon points="64,85 69,80 69,80 69,90 69,90 64,85 " style="fill:#9315d8; stroke-width:1; stroke:black; " description="&lt;b&gt;CNN82_RS10385&lt;/b&gt;&lt;br&gt;RNA polymerase sigma factor&lt;br&gt;Location: 2217372 - 2216890&lt;br&gt;&lt;br&gt;&lt;b&gt;BlastP hit with ctg6_150&lt;/b&gt;&lt;br&gt;Percentage identity: 94&lt;br&gt;Percentage coverage: 99&lt;br&gt;BLAST bit score: 305&lt;br&gt;E-value: 4.3e-81" locus_tag="CNN82_RS10385" class="clusterblast-orf" id="dummy-1_h1_5_4"  />
</g>
<g id="a1_005"  >
<polygon points="72,90 79,90 84,85 79,80 72,80 72,90 " style="fill:#d83b15; stroke-width:1; stroke:black; " description="&lt;b&gt;CNN82_RS10380&lt;/b&gt;&lt;br&gt;efflux RND transporter periplasmic adaptor subunit&lt;br&gt;Location: 2216564 - 2215392&lt;br&gt;&lt;br&gt;&lt;b&gt;BlastP hit with ctg6_151&lt;/b&gt;&lt;br&gt;Percentage identity: 92&lt;br&gt;Percentage coverage: 100&lt;br&gt;BLAST bit score: 627&lt;br&gt;E-value: 1.2e-177" locus_tag="CNN82_RS10380" class="clusterblast-orf" id="dummy-1_h1_5_5"  />
</g>
<g id="a1_006"  >
<polygon points="84,90 100,90 105,85 100,80 84,80 84,90 " style="fill:#48d815; stroke-width:1; stroke:black; " description="&lt;b&gt;CNN82_RS10375&lt;/b&gt;&lt;br&gt;MacB family efflux pump subunit&lt;br&gt;Location: 2215391 - 2213418&lt;br&gt;&lt;br&gt;&lt;b&gt;BlastP hit with ctg6_152&lt;/b&gt;&lt;br&gt;Percentage identity: 94&lt;br&gt;Percentage coverage: 100&lt;br&gt;BLAST bit score: 1191&lt;br&gt;E-value: 0.0" locus_tag="CNN82_RS10375" class="clusterblast-orf" id="dummy-1_h1_5_6"  />
</g>
<g id="a1_007"  >
<polygon points="105,90 114,90 119,85 114,80 105,80 105,90 " style="fill:#15a0d8; stroke-width:1; stroke:black; " description="&lt;b&gt;CNN82_RS10370&lt;/b&gt;&lt;br&gt;RND transporter&lt;br&gt;Location: 2213410 - 2212016&lt;br&gt;&lt;br&gt;&lt;b&gt;BlastP hit with ctg6_153&lt;/b&gt;&lt;br&gt;Percentage identity: 83&lt;br&gt;Percentage coverage: 100&lt;br&gt;BLAST bit score: 726&lt;br&gt;E-value: 1.7e-207" locus_tag="CNN82_RS10370" class="clusterblast-orf" id="dummy-1_h1_5_7"  />
</g>
<g id="a1_008"  >
<polygon points="120,85 125,80 137,80 137,90 125,90 120,85 " style="fill:#b915d8; stroke-width:1; stroke:black; " description="&lt;b&gt;CNN82_RS10365&lt;/b&gt;&lt;br&gt;PvdJ/PvdD/PvdP-like protein&lt;br&gt;Location: 2211949 - 2210321&lt;br&gt;&lt;br&gt;&lt;b&gt;BlastP hit with ctg6_154&lt;/b&gt;&lt;br&gt;Percentage identity: 90&lt;br&gt;Percentage coverage: 99&lt;br&gt;BLAST bit score: 1057&lt;br&gt;E-value: 6.5e-307" locus_tag="CNN82_RS10365" class="clusterblast-orf" id="dummy-1_h1_5_8"  />
</g>
<g id="a1_009"  >
<polygon points="140,90 149,90 154,85 149,80 140,80 140,90 " style="fill:#d86115; stroke-width:1; stroke:black; " description="&lt;b&gt;CNN82_RS10360&lt;/b&gt;&lt;br&gt;membrane dipeptidase&lt;br&gt;Location: 2209994 - 2208624&lt;br&gt;&lt;br&gt;&lt;b&gt;BlastP hit with ctg6_155&lt;/b&gt;&lt;br&gt;Percentage identity: 92&lt;br&gt;Percentage coverage: 100&lt;br&gt;BLAST bit score: 870&lt;br&gt;E-value: 9.5e-251" locus_tag="CNN82_RS10360" class="clusterblast-orf" id="dummy-1_h1_5_9"  />
</g>
<g id="a1_0010"  >
<polygon points="154,90 162,90 167,85 162,80 154,80 154,90 " style="fill:#22d815; stroke-width:1; stroke:black; " description="&lt;b&gt;CNN82_RS10355&lt;/b&gt;&lt;br&gt;aminotransferase class V-fold PLP-dependent enzyme&lt;br&gt;Location: 2208627 - 2207347&lt;br&gt;&lt;br&gt;&lt;b&gt;BlastP hit with ctg6_156&lt;/b&gt;&lt;br&gt;Percentage identity: 89&lt;br&gt;Percentage coverage: 100&lt;br&gt;BLAST bit score: 778&lt;br&gt;E-value: 4.6e-223" locus_tag="CNN82_RS10355" class="clusterblast-orf" id="dummy-1_h1_5_10"  />
</g>
<g id="a1_0011"  >
<polygon points="170,90 174,90 179,85 174,80 170,80 170,90 " style="fill:#157ad8; stroke-width:1; stroke:black; " description="&lt;b&gt;CNN82_RS10350&lt;/b&gt;&lt;br&gt;formylglycine-generating enzyme family protein&lt;br&gt;Location: 2207084 - 2206197&lt;br&gt;&lt;br&gt;&lt;b&gt;BlastP hit with ctg6_157&lt;/b&gt;&lt;br&gt;Percentage identity: 87&lt;br&gt;Percentage coverage: 100&lt;br&gt;BLAST bit score: 541&lt;br&gt;E-value: 5e-152" locus_tag="CNN82_RS10350" class="clusterblast-orf" id="dummy-1_h1_5_11"  />
</g>
<g id="a1_0012"  >
<polygon points="181,90 193,90 198,85 193,80 181,80 181,90 " style="fill:#d815d2; stroke-width:1; stroke:black; " description="&lt;b&gt;CNN82_RS10345&lt;/b&gt;&lt;br&gt;cyclic peptide export ABC transporter&lt;br&gt;Location: 2206065 - 2204407&lt;br&gt;&lt;br&gt;&lt;b&gt;BlastP hit with ctg6_158&lt;/b&gt;&lt;br&gt;Percentage identity: 97&lt;br&gt;Percentage coverage: 99&lt;br&gt;BLAST bit score: 1022&lt;br&gt;E-value: 2.4e-296" locus_tag="CNN82_RS10345" class="clusterblast-orf" id="dummy-1_h1_5_12"  />
</g>
<g id="a1_0013"  >
<polygon points="198,90 236,90 241,85 236,80 198,80 198,90 " style="fill:#d88615; stroke-width:1; stroke:black; " description="&lt;b&gt;CNN82_RS10340&lt;/b&gt;&lt;br&gt;non-ribosomal peptide synthetase&lt;br&gt;Location: 2204377 - 2200202&lt;br&gt;&lt;br&gt;&lt;b&gt;BlastP hit with ctg6_159&lt;/b&gt;&lt;br&gt;Percentage identity: 70&lt;br&gt;Percentage coverage: 100&lt;br&gt;BLAST bit score: 1858&lt;br&gt;E-value: 0.0" locus_tag="CNN82_RS10340" class="clusterblast-orf" id="dummy-1_h1_5_13"  />
</g>
<g id="a1_0014"  >
<polygon points="244,85 249,80 270,80 270,90 249,90 244,85 " style="fill:#1554d8; stroke-width:1; stroke:black; " description="&lt;b&gt;CNN82_RS10335&lt;/b&gt;&lt;br&gt;TonB-dependent siderophore receptor&lt;br&gt;Location: 2199911 - 2197431&lt;br&gt;&lt;br&gt;&lt;b&gt;BlastP hit with ctg6_161&lt;/b&gt;&lt;br&gt;Percentage identity: 93&lt;br&gt;Percentage coverage: 100&lt;br&gt;BLAST bit score: 1578&lt;br&gt;E-value: 0.0" locus_tag="CNN82_RS10335" class="clusterblast-orf" id="dummy-1_h1_5_14"  />
</g>
<g id="a1_0015"  >
<polygon points="273,85 278,80 307,80 307,90 278,90 273,85 " style="fill:#d88615; stroke-width:1; stroke:black; " description="&lt;b&gt;CNN82_RS10330&lt;/b&gt;&lt;br&gt;non-ribosomal peptide synthetase&lt;br&gt;Location: 2197090 - 2193854&lt;br&gt;&lt;br&gt;&lt;b&gt;BlastP hit with ctg6_162&lt;/b&gt;&lt;br&gt;Percentage identity: 90&lt;br&gt;Percentage coverage: 100&lt;br&gt;BLAST bit score: 1897&lt;br&gt;E-value: 0.0" locus_tag="CNN82_RS10330" class="clusterblast-orf" id="dummy-1_h1_5_15"  />
</g>
<g id="a1_0016"  >
<polygon points="307,85 312,80 446,80 446,90 312,90 307,85 " style="fill:#d88615; stroke-width:1; stroke:black; " description="&lt;b&gt;CNN82_RS10325&lt;/b&gt;&lt;br&gt;non-ribosomal peptide synthase/polyketide synthase&lt;br&gt;Location: 2193857 - 2180337&lt;br&gt;&lt;br&gt;&lt;b&gt;BlastP hit with ctg6_159&lt;/b&gt;&lt;br&gt;Percentage identity: 54&lt;br&gt;Percentage coverage: 76&lt;br&gt;BLAST bit score: 1074&lt;br&gt;E-value: 9.7e-312&lt;br&gt;&lt;br&gt;&lt;b&gt;BlastP hit with ctg6_163&lt;/b&gt;&lt;br&gt;Percentage identity: 75&lt;br&gt;Percentage coverage: 100&lt;br&gt;BLAST bit score: 6639&lt;br&gt;E-value: 0.0&lt;br&gt;&lt;br&gt;&lt;b&gt;BlastP hit with ctg6_164&lt;/b&gt;&lt;br&gt;Percentage identity: 44&lt;br&gt;Percentage coverage: 101&lt;br&gt;BLAST bit score: 3032&lt;br&gt;E-value: 0.0" locus_tag="CNN82_RS10325" class="clusterblast-orf" id="dummy-1_h1_5_16"  />
</g>
<g id="a1_0017"  >
<polygon points="446,85 451,80 574,80 574,90 451,90 446,85 " style="fill:#d88615; stroke-width:1; stroke:black; " description="&lt;b&gt;CNN82_RS10320&lt;/b&gt;&lt;br&gt;non-ribosomal peptide synthase/polyketide synthase&lt;br&gt;Location: 2180337 - 2167957&lt;br&gt;&lt;br&gt;&lt;b&gt;BlastP hit with ctg6_159&lt;/b&gt;&lt;br&gt;Percentage identity: 44&lt;br&gt;Percentage coverage: 76&lt;br&gt;BLAST bit score: 829&lt;br&gt;E-value: 4.4e-238&lt;br&gt;&lt;br&gt;&lt;b&gt;BlastP hit with ctg6_163&lt;/b&gt;&lt;br&gt;Percentage identity: 44&lt;br&gt;Percentage coverage: 93&lt;br&gt;BLAST bit score: 2973&lt;br&gt;E-value: 0.0&lt;br&gt;&lt;br&gt;&lt;b&gt;BlastP hit with ctg6_164&lt;/b&gt;&lt;br&gt;Percentage identity: 80&lt;br&gt;Percentage coverage: 101&lt;br&gt;BLAST bit score: 6468&lt;br&gt;E-value: 0.0" locus_tag="CNN82_RS10320" class="clusterblast-orf" id="dummy-1_h1_5_17"  />
</g>
<g id="a1_0018"  >
<polygon points="575,90 577,85 575,80 575,90 " style="fill:white; stroke-width:1; stroke:black; " description="&lt;b&gt;CNN82_RS10315&lt;/b&gt;&lt;br&gt;aldo/keto reductase&lt;br&gt;Location: 2167795 - 2167664" locus_tag="CNN82_RS10315" class="clusterblast-orf" id="dummy-1_h1_5_18"  />
</g>
<g id="a1_0019"  >
<polygon points="577,85 582,80 585,80 585,90 582,90 577,85 " style="fill:#d815ac; stroke-width:1; stroke:black; " description="&lt;b&gt;CNN82_RS10310&lt;/b&gt;&lt;br&gt;thioesterase&lt;br&gt;Location: 2167637 - 2166900&lt;br&gt;&lt;br&gt;&lt;b&gt;BlastP hit with ctg6_165&lt;/b&gt;&lt;br&gt;Percentage identity: 94&lt;br&gt;Percentage coverage: 99&lt;br&gt;BLAST bit score: 463&lt;br&gt;E-value: 1.4e-128" locus_tag="CNN82_RS10310" class="clusterblast-orf" id="dummy-1_h1_5_19"  />
</g>
<g id="a1_0020"  >
<polygon points="586,90 593,90 598,85 593,80 586,80 586,90 " style="fill:#d8ac15; stroke-width:1; stroke:black; " description="&lt;b&gt;CNN82_RS10305&lt;/b&gt;&lt;br&gt;cupin&lt;br&gt;Location: 2166741 - 2165608&lt;br&gt;&lt;br&gt;&lt;b&gt;BlastP hit with ctg6_166&lt;/b&gt;&lt;br&gt;Percentage identity: 93&lt;br&gt;Percentage coverage: 100&lt;br&gt;BLAST bit score: 736&lt;br&gt;E-value: 1.4e-210" locus_tag="CNN82_RS10305" class="clusterblast-orf" id="dummy-1_h1_5_20"  />
</g>
<g id="a1_0021"  >
<polygon points="598,85 603,80 610,80 610,90 603,90 598,85 " style="fill:#15d854; stroke-width:1; stroke:black; " description="&lt;b&gt;CNN82_RS10300&lt;/b&gt;&lt;br&gt;MFS transporter&lt;br&gt;Location: 2165587 - 2164415&lt;br&gt;&lt;br&gt;&lt;b&gt;BlastP hit with ctg6_167&lt;/b&gt;&lt;br&gt;Percentage identity: 87&lt;br&gt;Percentage coverage: 100&lt;br&gt;BLAST bit score: 624&lt;br&gt;E-value: 6e-177" locus_tag="CNN82_RS10300" class="clusterblast-orf" id="dummy-1_h1_5_21"  />
</g>
<g id="a1_0022"  >
<polygon points="612,90 626,90 631,85 626,80 612,80 612,90 " style="fill:#d81586; stroke-width:1; stroke:black; " description="&lt;b&gt;CNN82_RS10295&lt;/b&gt;&lt;br&gt;glycoside hydrolase family 15 protein&lt;br&gt;Location: 2164252 - 2162429&lt;br&gt;&lt;br&gt;&lt;b&gt;BlastP hit with ctg6_169&lt;/b&gt;&lt;br&gt;Percentage identity: 88&lt;br&gt;Percentage coverage: 100&lt;br&gt;BLAST bit score: 1123&lt;br&gt;E-value: 0.0" locus_tag="CNN82_RS10295" class="clusterblast-orf" id="dummy-1_h1_5_22"  />
</g>
<g id="a1_0023"  >
<polygon points="636,90 640,85 636,80 636,90 " style="fill:#d8d215; stroke-width:1; stroke:black; " description="&lt;b&gt;CNN82_RS10290&lt;/b&gt;&lt;br&gt;hypothetical protein&lt;br&gt;Location: 2161921 - 2161535&lt;br&gt;&lt;br&gt;&lt;b&gt;BlastP hit with ctg6_170&lt;/b&gt;&lt;br&gt;Percentage identity: 86&lt;br&gt;Percentage coverage: 96&lt;br&gt;BLAST bit score: 231&lt;br&gt;E-value: 4.9e-59" locus_tag="CNN82_RS10290" class="clusterblast-orf" id="dummy-1_h1_5_23"  />
</g>
<g id="a1_0024"  >
<polygon points="641,90 645,90 650,85 645,80 641,80 641,90 " style="fill:#15d87a; stroke-width:1; stroke:black; " description="&lt;b&gt;CNN82_RS10285&lt;/b&gt;&lt;br&gt;alpha/beta hydrolase&lt;br&gt;Location: 2161477 - 2160587&lt;br&gt;&lt;br&gt;&lt;b&gt;BlastP hit with ctg6_172&lt;/b&gt;&lt;br&gt;Percentage identity: 86&lt;br&gt;Percentage coverage: 98&lt;br&gt;BLAST bit score: 539&lt;br&gt;E-value: 1.9e-151" locus_tag="CNN82_RS10285" class="clusterblast-orf" id="dummy-1_h1_5_24"  />
</g>
<g id="a1_0025"  >
<polygon points="649,85 654,80 660,80 660,90 654,90 649,85 " style="fill:#2215d8; stroke-width:1; stroke:black; " description="&lt;b&gt;CNN82_RS10280&lt;/b&gt;&lt;br&gt;GlxA family transcriptional regulator&lt;br&gt;Location: 2160618 - 2159626&lt;br&gt;&lt;br&gt;&lt;b&gt;BlastP hit with ctg6_173&lt;/b&gt;&lt;br&gt;Percentage identity: 87&lt;br&gt;Percentage coverage: 98&lt;br&gt;BLAST bit score: 563&lt;br&gt;E-value: 1.4e-158&lt;br&gt;&lt;br&gt;&lt;b&gt;BlastP hit with ctg6_174&lt;/b&gt;&lt;br&gt;Percentage identity: 34&lt;br&gt;Percentage coverage: 83&lt;br&gt;BLAST bit score: 87&lt;br&gt;E-value: 2.6e-15" locus_tag="CNN82_RS10280" class="clusterblast-orf" id="dummy-1_h1_5_25"  />
</g>
<g id="a1_0026"  >
<polygon points="661,90 663,90 668,85 663,80 661,80 661,90 " style="fill:#2215d8; stroke-width:1; stroke:black; " description="&lt;b&gt;CNN82_RS10275&lt;/b&gt;&lt;br&gt;DJ-1/PfpI family protein&lt;br&gt;Location: 2159535 - 2158849&lt;br&gt;&lt;br&gt;&lt;b&gt;BlastP hit with ctg6_173&lt;/b&gt;&lt;br&gt;Percentage identity: 32&lt;br&gt;Percentage coverage: 58&lt;br&gt;BLAST bit score: 76&lt;br&gt;E-value: 6.7e-12&lt;br&gt;&lt;br&gt;&lt;b&gt;BlastP hit with ctg6_174&lt;/b&gt;&lt;br&gt;Percentage identity: 88&lt;br&gt;Percentage coverage: 100&lt;br&gt;BLAST bit score: 394&lt;br&gt;E-value: 7.7e-108" locus_tag="CNN82_RS10275" class="clusterblast-orf" id="dummy-1_h1_5_26"  />
</g>
<g id="a1_0027"  >
<polygon points="668,85 672,80 672,90 668,85 " style="fill:white; stroke-width:1; stroke:black; " description="&lt;b&gt;CNN82_RS10270&lt;/b&gt;&lt;br&gt;antibiotic biosynthesis monooxygenase&lt;br&gt;Location: 2158775 - 2158437" locus_tag="CNN82_RS10270" class="clusterblast-orf" id="dummy-1_h1_5_27"  />
</g>
<g id="a1_0028"  >
<polygon points="672,85 677,80 679,80 679,90 677,90 672,85 " style="fill:white; stroke-width:1; stroke:black; " description="&lt;b&gt;CNN82_RS10265&lt;/b&gt;&lt;br&gt;LysE family translocator&lt;br&gt;Location: 2158410 - 2157781" locus_tag="CNN82_RS10265" class="clusterblast-orf" id="dummy-1_h1_5_28"  />
</g>
<g id="a1_0029"  >
<polygon points="680,90 688,90 693,85 688,80 680,80 680,90 " style="fill:white; stroke-width:1; stroke:black; " description="&lt;b&gt;CNN82_RS10260&lt;/b&gt;&lt;br&gt;PLP-dependent aminotransferase family protein&lt;br&gt;Location: 2157691 - 2156366" locus_tag="CNN82_RS10260" class="clusterblast-orf" id="dummy-1_h1_5_29"  />
</g>
<g id="a1_0030"  >
<polygon points="699,85 704,80 704,80 704,90 704,90 699,85 " style="fill:#b9d815; stroke-width:1; stroke:black; " description="&lt;b&gt;CNN82_RS10255&lt;/b&gt;&lt;br&gt;vanillate O-demethylase oxidoreductase VanB&lt;br&gt;Location: 2155792 - 2155304&lt;br&gt;&lt;br&gt;&lt;b&gt;BlastP hit with ctg6_177&lt;/b&gt;&lt;br&gt;Percentage identity: 92&lt;br&gt;Percentage coverage: 99&lt;br&gt;BLAST bit score: 313&lt;br&gt;E-value: 1.2e-83" locus_tag="CNN82_RS10255" class="clusterblast-orf" id="dummy-1_h1_5_30"  />
</g>
<g id="a1_0031"  >
<polygon points="706,90 711,90 716,85 711,80 706,80 706,90 " style="fill:#15d8a0; stroke-width:1; stroke:black; " description="&lt;b&gt;CNN82_RS10250&lt;/b&gt;&lt;br&gt;ADP-ribosylglycohydrolase family protein&lt;br&gt;Location: 2155105 - 2154185&lt;br&gt;&lt;br&gt;&lt;b&gt;BlastP hit with ctg6_178&lt;/b&gt;&lt;br&gt;Percentage identity: 83&lt;br&gt;Percentage coverage: 94&lt;br&gt;BLAST bit score: 514&lt;br&gt;E-value: 7e-144" locus_tag="CNN82_RS10250" class="clusterblast-orf" id="dummy-1_h1_5_31"  />
</g>
<g id="a1_0032"  >
<polygon points="716,90 720,85 716,80 716,90 " style="fill:#93d815; stroke-width:1; stroke:black; " description="&lt;b&gt;CNN82_RS10245&lt;/b&gt;&lt;br&gt;DUF1311 domain-containing protein&lt;br&gt;Location: 2154125 - 2153724&lt;br&gt;&lt;br&gt;&lt;b&gt;BlastP hit with ctg6_182&lt;/b&gt;&lt;br&gt;Percentage identity: 86&lt;br&gt;Percentage coverage: 100&lt;br&gt;BLAST bit score: 232&lt;br&gt;E-value: 3.8e-59" locus_tag="CNN82_RS10245" class="clusterblast-orf" id="dummy-1_h1_5_32"  />
</g>
<g id="a1_0033"  >
<polygon points="723,90 727,85 723,80 723,90 " style="fill:white; stroke-width:1; stroke:black; " description="&lt;b&gt;CNN82_RS10240&lt;/b&gt;&lt;br&gt;hypothetical protein&lt;br&gt;Location: 2153474 - 2153118" locus_tag="CNN82_RS10240" class="clusterblast-orf" id="dummy-1_h1_5_33"  />
</g>
<g id="a1_0034"  >
<polygon points="727,85 730,80 730,90 727,85 " style="fill:white; stroke-width:1; stroke:black; " description="&lt;b&gt;CNN82_RS10235&lt;/b&gt;&lt;br&gt;DUF1652 domain-containing protein&lt;br&gt;Location: 2153069 - 2152815" locus_tag="CNN82_RS10235" class="clusterblast-orf" id="dummy-1_h1_5_34"  />
</g>
<g id="a1_0035"  >
<polygon points="733,85 736,80 736,90 733,85 " style="fill:white; stroke-width:1; stroke:black; " description="&lt;b&gt;CNN82_RS10230&lt;/b&gt;&lt;br&gt;hypothetical protein&lt;br&gt;Location: 2152468 - 2152259" locus_tag="CNN82_RS10230" class="clusterblast-orf" id="dummy-1_h1_5_35"  />
</g>
<g id="a1_0036"  >
<polygon points="736,85 741,80 744,80 744,90 741,90 736,85 " style="fill:white; stroke-width:1; stroke:black; " description="&lt;b&gt;CNN82_RS10225&lt;/b&gt;&lt;br&gt;S-methyl-5'-thioinosine phosphorylase&lt;br&gt;Location: 2152208 - 2151471" locus_tag="CNN82_RS10225" class="clusterblast-orf" id="dummy-1_h1_5_36"  />
</g>
<g id="a1_0037"  >
<polygon points="744,85 749,80 754,80 754,90 749,90 744,85 " style="fill:white; stroke-width:1; stroke:black; " description="&lt;b&gt;CNN82_RS10220&lt;/b&gt;&lt;br&gt;beta-N-acetylhexosaminidase&lt;br&gt;Location: 2151458 - 2150448" locus_tag="CNN82_RS10220" class="clusterblast-orf" id="dummy-1_h1_5_37"  />
</g>
<g id="a1_0038"  >
<polygon points="756,85 761,80 763,80 763,90 761,90 756,85 " style="fill:white; stroke-width:1; stroke:black; " description="&lt;b&gt;CNN82_RS10215&lt;/b&gt;&lt;br&gt;TetR/AcrR family transcriptional regulator&lt;br&gt;Location: 2150292 - 2149585" locus_tag="CNN82_RS10215" class="clusterblast-orf" id="dummy-1_h1_5_38"  />
</g>
<g id="a1_0039"  >
<polygon points="766,90 767,90 772,85 767,80 766,80 766,90 " style="fill:white; stroke-width:1; stroke:black; " description="&lt;b&gt;CNN82_RS10210&lt;/b&gt;&lt;br&gt;repressor LexA&lt;br&gt;Location: 2149354 - 2148746" locus_tag="CNN82_RS10210" class="clusterblast-orf" id="dummy-1_h1_5_39"  />
</g>
<g id="a1_0040"  >
<polygon points="772,90 772,90 777,85 772,80 772,80 772,90 " style="fill:white; stroke-width:1; stroke:black; " description="&lt;b&gt;CNN82_RS10205&lt;/b&gt;&lt;br&gt;CDP-glycerol--UDP-pyrophosphoryl-N- acetylglucosaminyl-N-acetylmannosamine glycerophosphotransferase&lt;br&gt;Location: 2148735 - 2148262" locus_tag="CNN82_RS10205" class="clusterblast-orf" id="dummy-1_h1_5_40"  />
</g>
</svg>
