<svg xmlns="http://www.w3.org/2000/svg" xmlns:xlink="http://www.w3.org/1999/xlink" version="1.1" x="0" y="0" height="230" width="800" viewBox="0 0 800 230" preserveAspectRatio="none"  >
<g label="Query sequence" class="clusterblast-cluster"  >
<text x="5" y="20" class="clusterblast-acc"  >
Query sequence</text>
<line x1="10" y1="35" x2="778.0" y2="35" style="stroke-width:1; stroke:grey; "  />
<polygon points="0,35 5,30 14,30 14,40 5,40 0,35 " style="fill:#d81515; stroke-width:1; stroke:black; " description="&lt;b&gt;ctg1_947&lt;/b&gt;&lt;br&gt;ctg1 947&lt;br&gt;Location: 1045973 - 1046867" locus_tag="ctg1_947" class="clusterblast-orf" id="dummy-2_q0_0_all"  />
<polygon points="14,40 17,35 14,30 14,40 " style="fill:white; stroke-width:1; stroke:black; " description="&lt;b&gt;ctg1_948&lt;/b&gt;&lt;br&gt;ctg1 948&lt;br&gt;Location: 1046885 - 1047053" locus_tag="ctg1_948" class="clusterblast-orf" id="dummy-2_q1_0_all"  />
<polygon points="21,35 26,30 29,30 29,40 26,40 21,35 " style="fill:#67d815; stroke-width:1; stroke:black; " description="&lt;b&gt;ctg1_949&lt;/b&gt;&lt;br&gt;ctg1 949&lt;br&gt;Location: 1047381 - 1047852" locus_tag="ctg1_949" class="clusterblast-orf" id="dummy-2_q2_0_all"  />
<polygon points="35,40 44,40 49,35 44,30 35,30 35,40 " style="fill:#15b9d8; stroke-width:1; stroke:black; " description="&lt;b&gt;ctg1_950&lt;/b&gt;&lt;br&gt;ctg1 950&lt;br&gt;Location: 1048295 - 1049231" locus_tag="ctg1_950" class="clusterblast-orf" id="dummy-2_q3_0_all"  />
<polygon points="52,40 59,40 64,35 59,30 52,30 52,40 " style="fill:#8615d8; stroke-width:1; stroke:black; " description="&lt;b&gt;ctg1_951&lt;/b&gt;&lt;br&gt;ctg1 951&lt;br&gt;Location: 1049408 - 1050215" locus_tag="ctg1_951" class="clusterblast-orf" id="dummy-2_q4_0_all"  />
<polygon points="65,35 70,30 70,30 70,40 70,40 65,35 " style="fill:#d83415; stroke-width:1; stroke:black; " description="&lt;b&gt;ctg1_952&lt;/b&gt;&lt;br&gt;ctg1 952&lt;br&gt;Location: 1050289 - 1050574" locus_tag="ctg1_952" class="clusterblast-orf" id="dummy-2_q5_0_all"  />
<polygon points="71,35 76,30 79,30 79,40 76,40 71,35 " style="fill:#49d815; stroke-width:1; stroke:black; " description="&lt;b&gt;ctg1_953&lt;/b&gt;&lt;br&gt;ctg1 953&lt;br&gt;Location: 1050644 - 1051187" locus_tag="ctg1_953" class="clusterblast-orf" id="dummy-2_q6_0_all"  />
<polygon points="80,35 85,30 109,30 109,40 85,40 80,35 " style="fill:#159bd8; stroke-width:1; stroke:black; " description="&lt;b&gt;ctg1_954&lt;/b&gt;&lt;br&gt;ctg1 954&lt;br&gt;Location: 1051258 - 1053220" locus_tag="ctg1_954" class="clusterblast-orf" id="dummy-2_q7_0_all"  />
<polygon points="111,35 116,30 123,30 123,40 116,40 111,35 " style="fill:#a515d8; stroke-width:1; stroke:black; " description="&lt;b&gt;ctg1_955&lt;/b&gt;&lt;br&gt;ctg1 955&lt;br&gt;Location: 1053329 - 1054127" locus_tag="ctg1_955" class="clusterblast-orf" id="dummy-2_q8_0_all"  />
<polygon points="123,35 128,30 140,30 140,40 128,40 123,35 " style="fill:#d85315; stroke-width:1; stroke:black; " description="&lt;b&gt;ctg1_956&lt;/b&gt;&lt;br&gt;ctg1 956&lt;br&gt;Location: 1054123 - 1055281" locus_tag="ctg1_956" class="clusterblast-orf" id="dummy-2_q9_0_all"  />
<polygon points="141,35 146,30 165,30 165,40 146,40 141,35 " style="fill:#2ad815; stroke-width:1; stroke:black; " description="&lt;b&gt;ctg1_957&lt;/b&gt;&lt;br&gt;ctg1 957&lt;br&gt;Location: 1055304 - 1056921" locus_tag="ctg1_957" class="clusterblast-orf" id="dummy-2_q10_0_all"  />
<polygon points="165,35 170,30 178,30 178,40 170,40 165,35 " style="fill:#157cd8; stroke-width:1; stroke:black; " description="&lt;b&gt;ctg1_958&lt;/b&gt;&lt;br&gt;ctg1 958&lt;br&gt;Location: 1056924 - 1057809" locus_tag="ctg1_958" class="clusterblast-orf" id="dummy-2_q11_0_all"  />
<polygon points="179,35 184,30 206,30 206,40 184,40 179,35 " style="fill:#c415d8; stroke-width:1; stroke:black; " description="&lt;b&gt;ctg1_959&lt;/b&gt;&lt;br&gt;ctg1 959&lt;br&gt;Location: 1057821 - 1059624" locus_tag="ctg1_959" class="clusterblast-orf" id="dummy-2_q12_0_all"  />
<polygon points="208,40 213,40 218,35 213,30 208,30 208,40 " style="fill:#d87215; stroke-width:1; stroke:black; " description="&lt;b&gt;ctg1_960&lt;/b&gt;&lt;br&gt;ctg1 960&lt;br&gt;Location: 1059802 - 1060429" locus_tag="ctg1_960" class="clusterblast-orf" id="dummy-2_q13_0_all"  />
<polygon points="219,40 226,40 231,35 226,30 219,30 219,40 " style="fill:#15d81f; stroke-width:1; stroke:black; " description="&lt;b&gt;ctg1_961&lt;/b&gt;&lt;br&gt;ctg1 961&lt;br&gt;Location: 1060521 - 1061316" locus_tag="ctg1_961" class="clusterblast-orf" id="dummy-2_q14_0_all"  />
<polygon points="233,40 241,40 246,35 241,30 233,30 233,40 " style="fill:#155dd8; stroke-width:1; stroke:black; " description="&lt;b&gt;ctg1_962&lt;/b&gt;&lt;br&gt;ctg1 962&lt;br&gt;Location: 1061450 - 1062287" locus_tag="ctg1_962" class="clusterblast-orf" id="dummy-2_q15_0_all"  />
<polygon points="246,40 248,35 246,30 246,40 " style="fill:#15d81f; stroke-width:1; stroke:black; " description="&lt;b&gt;ctg1_963&lt;/b&gt;&lt;br&gt;ctg1 963&lt;br&gt;Location: 1062293 - 1062425" locus_tag="ctg1_963" class="clusterblast-orf" id="dummy-2_q16_0_all"  />
<polygon points="250,40 258,40 263,35 258,30 250,30 250,40 " style="fill:#155dd8; stroke-width:1; stroke:black; " description="&lt;b&gt;ctg1_964&lt;/b&gt;&lt;br&gt;ctg1 964&lt;br&gt;Location: 1062559 - 1063393" locus_tag="ctg1_964" class="clusterblast-orf" id="dummy-2_q17_0_all"  />
<polygon points="265,40 275,40 280,35 275,30 265,30 265,40 " style="fill:#d815ce; stroke-width:1; stroke:black; " description="&lt;b&gt;ctg1_965&lt;/b&gt;&lt;br&gt;ctg1 965&lt;br&gt;Location: 1063545 - 1064559" locus_tag="ctg1_965" class="clusterblast-orf" id="dummy-2_q18_0_all"  />
<polygon points="282,35 287,30 290,30 290,40 287,40 282,35 " style="fill:#d89015; stroke-width:1; stroke:black; " description="&lt;b&gt;ctg1_966&lt;/b&gt;&lt;br&gt;ctg1 966&lt;br&gt;Location: 1064693 - 1065242" locus_tag="ctg1_966" class="clusterblast-orf" id="dummy-2_q19_0_all"  />
<polygon points="296,40 486,40 491,35 486,30 296,30 296,40 " style="fill:#15d83e; stroke-width:1; stroke:black; " description="&lt;b&gt;ctg1_967&lt;/b&gt;&lt;br&gt;ctg1 967&lt;br&gt;Location: 1065614 - 1078598" locus_tag="ctg1_967" class="clusterblast-orf" id="dummy-2_q20_0_all"  />
<polygon points="494,40 501,40 506,35 501,30 494,30 494,40 " style="fill:#153ed8; stroke-width:1; stroke:black; " description="&lt;b&gt;ctg1_968&lt;/b&gt;&lt;br&gt;ctg1 968&lt;br&gt;Location: 1078770 - 1079583" locus_tag="ctg1_968" class="clusterblast-orf" id="dummy-2_q21_0_all"  />
<polygon points="508,35 513,30 519,30 519,40 513,40 508,35 " style="fill:#d815af; stroke-width:1; stroke:black; " description="&lt;b&gt;ctg1_969&lt;/b&gt;&lt;br&gt;ctg1 969&lt;br&gt;Location: 1079675 - 1080446" locus_tag="ctg1_969" class="clusterblast-orf" id="dummy-2_q22_0_all"  />
<polygon points="519,35 524,30 532,30 532,40 524,40 519,35 " style="fill:#d8af15; stroke-width:1; stroke:black; " description="&lt;b&gt;ctg1_970&lt;/b&gt;&lt;br&gt;ctg1 970&lt;br&gt;Location: 1080421 - 1081288" locus_tag="ctg1_970" class="clusterblast-orf" id="dummy-2_q23_0_all"  />
<polygon points="532,35 537,30 558,30 558,40 537,40 532,35 " style="fill:#15d85d; stroke-width:1; stroke:black; " description="&lt;b&gt;ctg1_971&lt;/b&gt;&lt;br&gt;ctg1 971&lt;br&gt;Location: 1081287 - 1083027" locus_tag="ctg1_971" class="clusterblast-orf" id="dummy-2_q24_0_all"  />
<polygon points="560,40 566,40 571,35 566,30 560,30 560,40 " style="fill:#151fd8; stroke-width:1; stroke:black; " description="&lt;b&gt;ctg1_972&lt;/b&gt;&lt;br&gt;ctg1 972&lt;br&gt;Location: 1083180 - 1083861" locus_tag="ctg1_972" class="clusterblast-orf" id="dummy-2_q25_0_all"  />
<polygon points="571,40 586,40 591,35 586,30 571,30 571,40 " style="fill:#d81590; stroke-width:1; stroke:black; " description="&lt;b&gt;ctg1_973&lt;/b&gt;&lt;br&gt;ctg1 973&lt;br&gt;Location: 1083857 - 1085183" locus_tag="ctg1_973" class="clusterblast-orf" id="dummy-2_q26_0_all"  />
<polygon points="594,40 596,40 601,35 596,30 594,30 594,40 " style="fill:#d8ce15; stroke-width:1; stroke:black; " description="&lt;b&gt;ctg1_974&lt;/b&gt;&lt;br&gt;ctg1 974&lt;br&gt;Location: 1085400 - 1085886" locus_tag="ctg1_974" class="clusterblast-orf" id="dummy-2_q27_0_all"  />
<polygon points="603,40 620,40 625,35 620,30 603,30 603,40 " style="fill:#15d87c; stroke-width:1; stroke:black; " description="&lt;b&gt;ctg1_975&lt;/b&gt;&lt;br&gt;ctg1 975&lt;br&gt;Location: 1086029 - 1087442" locus_tag="ctg1_975" class="clusterblast-orf" id="dummy-2_q28_0_all"  />
<polygon points="626,40 629,35 626,30 626,40 " style="fill:#2a15d8; stroke-width:1; stroke:black; " description="&lt;b&gt;ctg1_976&lt;/b&gt;&lt;br&gt;ctg1 976&lt;br&gt;Location: 1087524 - 1087752" locus_tag="ctg1_976" class="clusterblast-orf" id="dummy-2_q29_0_all"  />
<polygon points="632,35 637,30 646,30 646,40 637,40 632,35 " style="fill:#d81572; stroke-width:1; stroke:black; " description="&lt;b&gt;ctg1_977&lt;/b&gt;&lt;br&gt;ctg1 977&lt;br&gt;Location: 1087926 - 1088898" locus_tag="ctg1_977" class="clusterblast-orf" id="dummy-2_q30_0_all"  />
<polygon points="646,35 651,30 660,30 660,40 651,40 646,35 " style="fill:#c4d815; stroke-width:1; stroke:black; " description="&lt;b&gt;ctg1_978&lt;/b&gt;&lt;br&gt;ctg1 978&lt;br&gt;Location: 1088898 - 1089798" locus_tag="ctg1_978" class="clusterblast-orf" id="dummy-2_q31_0_all"  />
<polygon points="660,35 665,30 673,30 673,40 665,40 660,35 " style="fill:#15d89b; stroke-width:1; stroke:black; " description="&lt;b&gt;ctg1_979&lt;/b&gt;&lt;br&gt;ctg1 979&lt;br&gt;Location: 1089797 - 1090661" locus_tag="ctg1_979" class="clusterblast-orf" id="dummy-2_q32_0_all"  />
<polygon points="673,35 678,30 687,30 687,40 678,40 673,35 " style="fill:#4915d8; stroke-width:1; stroke:black; " description="&lt;b&gt;ctg1_980&lt;/b&gt;&lt;br&gt;ctg1 980&lt;br&gt;Location: 1090657 - 1091584" locus_tag="ctg1_980" class="clusterblast-orf" id="dummy-2_q33_0_all"  />
<polygon points="687,35 692,30 696,30 696,40 692,40 687,35 " style="fill:#d81553; stroke-width:1; stroke:black; " description="&lt;b&gt;ctg1_981&lt;/b&gt;&lt;br&gt;ctg1 981&lt;br&gt;Location: 1091619 - 1092192" locus_tag="ctg1_981" class="clusterblast-orf" id="dummy-2_q34_0_all"  />
<polygon points="696,35 701,30 701,30 701,40 701,40 696,35 " style="fill:#a5d815; stroke-width:1; stroke:black; " description="&lt;b&gt;ctg1_982&lt;/b&gt;&lt;br&gt;ctg1 982&lt;br&gt;Location: 1092194 - 1092524" locus_tag="ctg1_982" class="clusterblast-orf" id="dummy-2_q35_0_all"  />
<polygon points="701,35 706,30 709,30 709,40 706,40 701,35 " style="fill:#15d8b9; stroke-width:1; stroke:black; " description="&lt;b&gt;ctg1_983&lt;/b&gt;&lt;br&gt;ctg1 983&lt;br&gt;Location: 1092520 - 1093063" locus_tag="ctg1_983" class="clusterblast-orf" id="dummy-2_q36_0_all"  />
<polygon points="709,35 714,30 727,30 727,40 714,40 709,35 " style="fill:#6715d8; stroke-width:1; stroke:black; " description="&lt;b&gt;ctg1_984&lt;/b&gt;&lt;br&gt;ctg1 984&lt;br&gt;Location: 1093059 - 1094262" locus_tag="ctg1_984" class="clusterblast-orf" id="dummy-2_q37_0_all"  />
<polygon points="734,40 750,40 755,35 750,30 734,30 734,40 " style="fill:#d81534; stroke-width:1; stroke:black; " description="&lt;b&gt;ctg1_985&lt;/b&gt;&lt;br&gt;ctg1 985&lt;br&gt;Location: 1094682 - 1096104" locus_tag="ctg1_985" class="clusterblast-orf" id="dummy-2_q38_0_all"  />
<polygon points="755,40 759,40 764,35 759,30 755,30 755,40 " style="fill:#86d815; stroke-width:1; stroke:black; " description="&lt;b&gt;ctg1_986&lt;/b&gt;&lt;br&gt;ctg1 986&lt;br&gt;Location: 1096100 - 1096712" locus_tag="ctg1_986" class="clusterblast-orf" id="dummy-2_q39_0_all"  />
<polygon points="766,35 771,30 779,30 779,40 771,40 766,35 " style="fill:#15d8d8; stroke-width:1; stroke:black; " description="&lt;b&gt;ctg1_987&lt;/b&gt;&lt;br&gt;ctg1 987&lt;br&gt;Location: 1096837 - 1097704" locus_tag="ctg1_987" class="clusterblast-orf" id="dummy-2_q40_0_all"  />
</g>
<g label="NZ_LIUV01000021" description="NZ_LIUV01000021_c5: Pseudomonas sp. 655 contig 21, whole genome shotgun sequence (100% of genes show similarity), nrps" class="clusterblast-cluster"  >
<text x="5" y="70" class="clusterblast-acc"  >
<a xlink:href="https://antismash-db.secondarymetabolites.org/go/NZ_LIUV01000021/5" target="_blank">NZ_LIUV01000021_c5</a>: Pseudomonas sp. 655 contig 21, whole genome shotgun sequence (100% of genes show similarity), nrps</text>
<line x1="10" y1="85" x2="778.0" y2="85" style="stroke-width:1; stroke:grey; "  />
</g>
<g id="a2_000"  >
<polygon points="0,85 5,80 13,80 13,90 5,90 0,85 " style="fill:#d81515; stroke-width:1; stroke:black; " description="&lt;b&gt;AM274_RS22725&lt;/b&gt;&lt;br&gt;sensor histidine kinase&lt;br&gt;Location: 236076 - 236969&lt;br&gt;&lt;br&gt;&lt;b&gt;BlastP hit with ctg1_947&lt;/b&gt;&lt;br&gt;Percentage identity: 99&lt;br&gt;Percentage coverage: 100&lt;br&gt;BLAST bit score: 576&lt;br&gt;E-value: 2.4e-162" locus_tag="AM274_RS22725" class="clusterblast-orf" id="dummy-2_h2_2_0"  />
</g>
<g id="a2_001"  >
<polygon points="21,85 26,80 28,80 28,90 26,90 21,85 " style="fill:#67d815; stroke-width:1; stroke:black; " description="&lt;b&gt;AM274_RS22730&lt;/b&gt;&lt;br&gt;hypothetical protein&lt;br&gt;Location: 237484 - 237954&lt;br&gt;&lt;br&gt;&lt;b&gt;BlastP hit with ctg1_949&lt;/b&gt;&lt;br&gt;Percentage identity: 100&lt;br&gt;Percentage coverage: 100&lt;br&gt;BLAST bit score: 310&lt;br&gt;E-value: 1.3e-82" locus_tag="AM274_RS22730" class="clusterblast-orf" id="dummy-2_h2_2_1"  />
</g>
<g id="a2_002"  >
<polygon points="34,90 44,90 49,85 44,80 34,80 34,90 " style="fill:#15b9d8; stroke-width:1; stroke:black; " description="&lt;b&gt;AM274_RS22735&lt;/b&gt;&lt;br&gt;chemotaxis protein CheV&lt;br&gt;Location: 238398 - 239333&lt;br&gt;&lt;br&gt;&lt;b&gt;BlastP hit with ctg1_950&lt;/b&gt;&lt;br&gt;Percentage identity: 100&lt;br&gt;Percentage coverage: 100&lt;br&gt;BLAST bit score: 608&lt;br&gt;E-value: 3.5e-172" locus_tag="AM274_RS22735" class="clusterblast-orf" id="dummy-2_h2_2_2"  />
</g>
<g id="a2_003"  >
<polygon points="51,90 58,90 63,85 58,80 51,80 51,90 " style="fill:#8615d8; stroke-width:1; stroke:black; " description="&lt;b&gt;AM274_RS22740&lt;/b&gt;&lt;br&gt;MOSC domain-containing protein&lt;br&gt;Location: 239511 - 240317&lt;br&gt;&lt;br&gt;&lt;b&gt;BlastP hit with ctg1_951&lt;/b&gt;&lt;br&gt;Percentage identity: 100&lt;br&gt;Percentage coverage: 100&lt;br&gt;BLAST bit score: 539&lt;br&gt;E-value: 1.7e-151" locus_tag="AM274_RS22740" class="clusterblast-orf" id="dummy-2_h2_2_3"  />
</g>
<g id="a2_004"  >
<polygon points="64,85 69,80 69,80 69,90 69,90 64,85 " style="fill:#d83415; stroke-width:1; stroke:black; " description="&lt;b&gt;AM274_RS22745&lt;/b&gt;&lt;br&gt;DUF1255 domain-containing protein&lt;br&gt;Location: 240391 - 240675&lt;br&gt;&lt;br&gt;&lt;b&gt;BlastP hit with ctg1_952&lt;/b&gt;&lt;br&gt;Percentage identity: 99&lt;br&gt;Percentage coverage: 100&lt;br&gt;BLAST bit score: 194&lt;br&gt;E-value: 4.8e-48" locus_tag="AM274_RS22745" class="clusterblast-orf" id="dummy-2_h2_2_4"  />
</g>
<g id="a2_005"  >
<polygon points="70,85 75,80 78,80 78,90 75,90 70,85 " style="fill:#49d815; stroke-width:1; stroke:black; " description="&lt;b&gt;AM274_RS22750&lt;/b&gt;&lt;br&gt;exonuclease&lt;br&gt;Location: 240746 - 241288&lt;br&gt;&lt;br&gt;&lt;b&gt;BlastP hit with ctg1_953&lt;/b&gt;&lt;br&gt;Percentage identity: 99&lt;br&gt;Percentage coverage: 100&lt;br&gt;BLAST bit score: 376&lt;br&gt;E-value: 1.3e-102" locus_tag="AM274_RS22750" class="clusterblast-orf" id="dummy-2_h2_2_5"  />
</g>
<g id="a2_006"  >
<polygon points="79,85 84,80 109,80 109,90 84,90 79,85 " style="fill:#159bd8; stroke-width:1; stroke:black; " description="&lt;b&gt;AM274_RS22755&lt;/b&gt;&lt;br&gt;acetyl/propionyl/methylcrotonyl-CoA carboxylase subunit alpha&lt;br&gt;Location: 241360 - 243321&lt;br&gt;&lt;br&gt;&lt;b&gt;BlastP hit with ctg1_954&lt;/b&gt;&lt;br&gt;Percentage identity: 99&lt;br&gt;Percentage coverage: 100&lt;br&gt;BLAST bit score: 1221&lt;br&gt;E-value: 0.0" locus_tag="AM274_RS22755" class="clusterblast-orf" id="dummy-2_h2_2_6"  />
</g>
<g id="a2_007"  >
<polygon points="110,85 115,80 122,80 122,90 115,90 110,85 " style="fill:#a515d8; stroke-width:1; stroke:black; " description="&lt;b&gt;AM274_RS22760&lt;/b&gt;&lt;br&gt;enoyl-CoA hydratase&lt;br&gt;Location: 243448 - 244245&lt;br&gt;&lt;br&gt;&lt;b&gt;BlastP hit with ctg1_955&lt;/b&gt;&lt;br&gt;Percentage identity: 97&lt;br&gt;Percentage coverage: 100&lt;br&gt;BLAST bit score: 462&lt;br&gt;E-value: 3.5e-128" locus_tag="AM274_RS22760" class="clusterblast-orf" id="dummy-2_h2_2_7"  />
</g>
<g id="a2_008"  >
<polygon points="122,85 127,80 140,80 140,90 127,90 122,85 " style="fill:#d85315; stroke-width:1; stroke:black; " description="&lt;b&gt;AM274_RS22765&lt;/b&gt;&lt;br&gt;acyl-CoA dehydrogenase&lt;br&gt;Location: 244242 - 245399&lt;br&gt;&lt;br&gt;&lt;b&gt;BlastP hit with ctg1_956&lt;/b&gt;&lt;br&gt;Percentage identity: 100&lt;br&gt;Percentage coverage: 100&lt;br&gt;BLAST bit score: 779&lt;br&gt;E-value: 1.9e-223" locus_tag="AM274_RS22765" class="clusterblast-orf" id="dummy-2_h2_2_8"  />
</g>
<g id="a2_009"  >
<polygon points="140,85 145,80 165,80 165,90 145,90 140,85 " style="fill:#2ad815; stroke-width:1; stroke:black; " description="&lt;b&gt;AM274_RS22770&lt;/b&gt;&lt;br&gt;acyl-CoA carboxylase subunit beta&lt;br&gt;Location: 245423 - 247039&lt;br&gt;&lt;br&gt;&lt;b&gt;BlastP hit with ctg1_957&lt;/b&gt;&lt;br&gt;Percentage identity: 100&lt;br&gt;Percentage coverage: 100&lt;br&gt;BLAST bit score: 1064&lt;br&gt;E-value: 5.3e-309" locus_tag="AM274_RS22770" class="clusterblast-orf" id="dummy-2_h2_2_9"  />
</g>
<g id="a2_0010"  >
<polygon points="165,85 170,80 178,80 178,90 170,90 165,85 " style="fill:#157cd8; stroke-width:1; stroke:black; " description="&lt;b&gt;AM274_RS22775&lt;/b&gt;&lt;br&gt;2,4-dienoyl-CoA reductase&lt;br&gt;Location: 247043 - 247927&lt;br&gt;&lt;br&gt;&lt;b&gt;BlastP hit with ctg1_958&lt;/b&gt;&lt;br&gt;Percentage identity: 100&lt;br&gt;Percentage coverage: 100&lt;br&gt;BLAST bit score: 592&lt;br&gt;E-value: 1.9e-167" locus_tag="AM274_RS22775" class="clusterblast-orf" id="dummy-2_h2_2_10"  />
</g>
<g id="a2_0011"  >
<polygon points="178,85 183,80 205,80 205,90 183,90 178,85 " style="fill:#c415d8; stroke-width:1; stroke:black; " description="&lt;b&gt;AM274_RS22780&lt;/b&gt;&lt;br&gt;DUF1446 domain-containing protein&lt;br&gt;Location: 247940 - 249742&lt;br&gt;&lt;br&gt;&lt;b&gt;BlastP hit with ctg1_959&lt;/b&gt;&lt;br&gt;Percentage identity: 99&lt;br&gt;Percentage coverage: 100&lt;br&gt;BLAST bit score: 1198&lt;br&gt;E-value: 0.0" locus_tag="AM274_RS22780" class="clusterblast-orf" id="dummy-2_h2_2_11"  />
</g>
<g id="a2_0012"  >
<polygon points="208,90 212,90 217,85 212,80 208,80 208,90 " style="fill:#d87215; stroke-width:1; stroke:black; " description="&lt;b&gt;AM274_RS22785&lt;/b&gt;&lt;br&gt;TetR/AcrR family transcriptional regulator&lt;br&gt;Location: 249921 - 250547&lt;br&gt;&lt;br&gt;&lt;b&gt;BlastP hit with ctg1_960&lt;/b&gt;&lt;br&gt;Percentage identity: 100&lt;br&gt;Percentage coverage: 100&lt;br&gt;BLAST bit score: 403&lt;br&gt;E-value: 2e-110" locus_tag="AM274_RS22785" class="clusterblast-orf" id="dummy-2_h2_2_12"  />
</g>
<g id="a2_0013"  >
<polygon points="219,90 226,90 231,85 226,80 219,80 219,90 " style="fill:#15d81f; stroke-width:1; stroke:black; " description="&lt;b&gt;AM274_RS22790&lt;/b&gt;&lt;br&gt;amino acid ABC transporter substrate-binding protein&lt;br&gt;Location: 250640 - 251434&lt;br&gt;&lt;br&gt;&lt;b&gt;BlastP hit with ctg1_961&lt;/b&gt;&lt;br&gt;Percentage identity: 100&lt;br&gt;Percentage coverage: 100&lt;br&gt;BLAST bit score: 534&lt;br&gt;E-value: 9.4e-150&lt;br&gt;&lt;br&gt;&lt;b&gt;BlastP hit with ctg1_963&lt;/b&gt;&lt;br&gt;Percentage identity: 91&lt;br&gt;Percentage coverage: 98&lt;br&gt;BLAST bit score: 81&lt;br&gt;E-value: 3.5e-14" locus_tag="AM274_RS22790" class="clusterblast-orf" id="dummy-2_h2_2_13"  />
</g>
<g id="a2_0014"  >
<polygon points="235,90 240,90 245,85 240,80 235,80 235,90 " style="fill:#155dd8; stroke-width:1; stroke:black; " description="&lt;b&gt;AM274_RS22795&lt;/b&gt;&lt;br&gt;hypothetical protein&lt;br&gt;Location: 251707 - 252405&lt;br&gt;&lt;br&gt;&lt;b&gt;BlastP hit with ctg1_962&lt;/b&gt;&lt;br&gt;Percentage identity: 100&lt;br&gt;Percentage coverage: 83&lt;br&gt;BLAST bit score: 495&lt;br&gt;E-value: 3e-138&lt;br&gt;&lt;br&gt;&lt;b&gt;BlastP hit with ctg1_964&lt;/b&gt;&lt;br&gt;Percentage identity: 55&lt;br&gt;Percentage coverage: 83&lt;br&gt;BLAST bit score: 262&lt;br&gt;E-value: 5.5e-68" locus_tag="AM274_RS22795" class="clusterblast-orf" id="dummy-2_h2_2_14"  />
</g>
<g id="a2_0015"  >
<polygon points="251,90 257,90 262,85 257,80 251,80 251,90 " style="fill:#155dd8; stroke-width:1; stroke:black; " description="&lt;b&gt;AM274_RS22800&lt;/b&gt;&lt;br&gt;hypothetical protein&lt;br&gt;Location: 252792 - 253511&lt;br&gt;&lt;br&gt;&lt;b&gt;BlastP hit with ctg1_962&lt;/b&gt;&lt;br&gt;Percentage identity: 57&lt;br&gt;Percentage coverage: 85&lt;br&gt;BLAST bit score: 281&lt;br&gt;E-value: 1.2e-73&lt;br&gt;&lt;br&gt;&lt;b&gt;BlastP hit with ctg1_964&lt;/b&gt;&lt;br&gt;Percentage identity: 100&lt;br&gt;Percentage coverage: 86&lt;br&gt;BLAST bit score: 504&lt;br&gt;E-value: 8.3e-141" locus_tag="AM274_RS22800" class="clusterblast-orf" id="dummy-2_h2_2_15"  />
</g>
<g id="a2_0016"  >
<polygon points="264,90 275,90 280,85 275,80 264,80 264,90 " style="fill:#d815ce; stroke-width:1; stroke:black; " description="&lt;b&gt;AM274_RS22805&lt;/b&gt;&lt;br&gt;N-acetyltransferase&lt;br&gt;Location: 253664 - 254677&lt;br&gt;&lt;br&gt;&lt;b&gt;BlastP hit with ctg1_965&lt;/b&gt;&lt;br&gt;Percentage identity: 99&lt;br&gt;Percentage coverage: 100&lt;br&gt;BLAST bit score: 708&lt;br&gt;E-value: 2.7e-202" locus_tag="AM274_RS22805" class="clusterblast-orf" id="dummy-2_h2_2_16"  />
</g>
<g id="a2_0017"  >
<polygon points="282,85 287,80 290,80 290,90 287,90 282,85 " style="fill:#d89015; stroke-width:1; stroke:black; " description="&lt;b&gt;AM274_RS22810&lt;/b&gt;&lt;br&gt;RNA polymerase factor sigma-70&lt;br&gt;Location: 254812 - 255360&lt;br&gt;&lt;br&gt;&lt;b&gt;BlastP hit with ctg1_966&lt;/b&gt;&lt;br&gt;Percentage identity: 100&lt;br&gt;Percentage coverage: 100&lt;br&gt;BLAST bit score: 357&lt;br&gt;E-value: 8.3e-97" locus_tag="AM274_RS22810" class="clusterblast-orf" id="dummy-2_h2_2_17"  />
</g>
<g id="a2_0018"  >
<polygon points="295,90 486,90 491,85 486,80 295,80 295,90 " style="fill:#15d83e; stroke-width:1; stroke:black; " description="&lt;b&gt;AM274_RS22815&lt;/b&gt;&lt;br&gt;non-ribosomal peptide synthase/polyketide synthase&lt;br&gt;Location: 255733 - 268716&lt;br&gt;&lt;br&gt;&lt;b&gt;BlastP hit with ctg1_967&lt;/b&gt;&lt;br&gt;Percentage identity: 99&lt;br&gt;Percentage coverage: 100&lt;br&gt;BLAST bit score: 8564&lt;br&gt;E-value: 0.0" locus_tag="AM274_RS22815" class="clusterblast-orf" id="dummy-2_h2_2_18"  />
</g>
<g id="a2_0019"  >
<polygon points="493,90 501,90 506,85 501,80 493,80 493,90 " style="fill:#153ed8; stroke-width:1; stroke:black; " description="&lt;b&gt;AM274_RS22820&lt;/b&gt;&lt;br&gt;2-succinyl-6-hydroxy-2, 4-cyclohexadiene-1-carboxylate synthase&lt;br&gt;Location: 268889 - 269695&lt;br&gt;&lt;br&gt;&lt;b&gt;BlastP hit with ctg1_968&lt;/b&gt;&lt;br&gt;Percentage identity: 98&lt;br&gt;Percentage coverage: 99&lt;br&gt;BLAST bit score: 537&lt;br&gt;E-value: 1.1e-150" locus_tag="AM274_RS22820" class="clusterblast-orf" id="dummy-2_h2_2_19"  />
</g>
<g id="a2_0020"  >
<polygon points="507,85 512,80 519,80 519,90 512,90 507,85 " style="fill:#d815af; stroke-width:1; stroke:black; " description="&lt;b&gt;AM274_RS22825&lt;/b&gt;&lt;br&gt;thiol:disulfide interchange protein DsbG&lt;br&gt;Location: 269788 - 270558&lt;br&gt;&lt;br&gt;&lt;b&gt;BlastP hit with ctg1_969&lt;/b&gt;&lt;br&gt;Percentage identity: 100&lt;br&gt;Percentage coverage: 100&lt;br&gt;BLAST bit score: 515&lt;br&gt;E-value: 2.6e-144" locus_tag="AM274_RS22825" class="clusterblast-orf" id="dummy-2_h2_2_20"  />
</g>
<g id="a2_0021"  >
<polygon points="518,85 523,80 531,80 531,90 523,90 518,85 " style="fill:#d8af15; stroke-width:1; stroke:black; " description="&lt;b&gt;AM274_RS22830&lt;/b&gt;&lt;br&gt;peroxiredoxin&lt;br&gt;Location: 270534 - 271400&lt;br&gt;&lt;br&gt;&lt;b&gt;BlastP hit with ctg1_970&lt;/b&gt;&lt;br&gt;Percentage identity: 100&lt;br&gt;Percentage coverage: 100&lt;br&gt;BLAST bit score: 578&lt;br&gt;E-value: 3.6e-163" locus_tag="AM274_RS22830" class="clusterblast-orf" id="dummy-2_h2_2_21"  />
</g>
<g id="a2_0022"  >
<polygon points="531,85 536,80 557,80 557,90 536,90 531,85 " style="fill:#15d85d; stroke-width:1; stroke:black; " description="&lt;b&gt;AM274_RS22835&lt;/b&gt;&lt;br&gt;protein-disulfide reductase DsbD&lt;br&gt;Location: 271400 - 273133&lt;br&gt;&lt;br&gt;&lt;b&gt;BlastP hit with ctg1_971&lt;/b&gt;&lt;br&gt;Percentage identity: 98&lt;br&gt;Percentage coverage: 100&lt;br&gt;BLAST bit score: 1110&lt;br&gt;E-value: 0.0" locus_tag="AM274_RS22835" class="clusterblast-orf" id="dummy-2_h2_2_22"  />
</g>
<g id="a2_0023"  >
<polygon points="560,90 565,90 570,85 565,80 560,80 560,90 " style="fill:#151fd8; stroke-width:1; stroke:black; " description="&lt;b&gt;AM274_RS22840&lt;/b&gt;&lt;br&gt;DNA-binding response regulator&lt;br&gt;Location: 273287 - 273967&lt;br&gt;&lt;br&gt;&lt;b&gt;BlastP hit with ctg1_972&lt;/b&gt;&lt;br&gt;Percentage identity: 100&lt;br&gt;Percentage coverage: 100&lt;br&gt;BLAST bit score: 440&lt;br&gt;E-value: 1.6e-121" locus_tag="AM274_RS22840" class="clusterblast-orf" id="dummy-2_h2_2_23"  />
</g>
<g id="a2_0024"  >
<polygon points="570,90 585,90 590,85 585,80 570,80 570,90 " style="fill:#d81590; stroke-width:1; stroke:black; " description="&lt;b&gt;AM274_RS22845&lt;/b&gt;&lt;br&gt;two-component sensor histidine kinase&lt;br&gt;Location: 273964 - 275289&lt;br&gt;&lt;br&gt;&lt;b&gt;BlastP hit with ctg1_973&lt;/b&gt;&lt;br&gt;Percentage identity: 100&lt;br&gt;Percentage coverage: 100&lt;br&gt;BLAST bit score: 853&lt;br&gt;E-value: 8.9e-246" locus_tag="AM274_RS22845" class="clusterblast-orf" id="dummy-2_h2_2_24"  />
</g>
<g id="a2_0025"  >
<polygon points="593,90 595,90 600,85 595,80 593,80 593,90 " style="fill:#d8ce15; stroke-width:1; stroke:black; " description="&lt;b&gt;AM274_RS22850&lt;/b&gt;&lt;br&gt;N-acetyltransferase&lt;br&gt;Location: 275507 - 275992&lt;br&gt;&lt;br&gt;&lt;b&gt;BlastP hit with ctg1_974&lt;/b&gt;&lt;br&gt;Percentage identity: 100&lt;br&gt;Percentage coverage: 100&lt;br&gt;BLAST bit score: 333&lt;br&gt;E-value: 1.5e-89" locus_tag="AM274_RS22850" class="clusterblast-orf" id="dummy-2_h2_2_25"  />
</g>
<g id="a2_0026"  >
<polygon points="603,90 619,90 624,85 619,80 603,80 603,90 " style="fill:#15d87c; stroke-width:1; stroke:black; " description="&lt;b&gt;AM274_RS22855&lt;/b&gt;&lt;br&gt;diaminobutyrate--2-oxoglutarate transaminase&lt;br&gt;Location: 276136 - 277548&lt;br&gt;&lt;br&gt;&lt;b&gt;BlastP hit with ctg1_975&lt;/b&gt;&lt;br&gt;Percentage identity: 100&lt;br&gt;Percentage coverage: 100&lt;br&gt;BLAST bit score: 925&lt;br&gt;E-value: 2.6e-267" locus_tag="AM274_RS22855" class="clusterblast-orf" id="dummy-2_h2_2_26"  />
</g>
<g id="a2_0027"  >
<polygon points="625,90 628,85 625,80 625,90 " style="fill:#2a15d8; stroke-width:1; stroke:black; " description="&lt;b&gt;AM274_RS22860&lt;/b&gt;&lt;br&gt;MbtH family protein&lt;br&gt;Location: 277631 - 277858&lt;br&gt;&lt;br&gt;&lt;b&gt;BlastP hit with ctg1_976&lt;/b&gt;&lt;br&gt;Percentage identity: 100&lt;br&gt;Percentage coverage: 100&lt;br&gt;BLAST bit score: 160&lt;br&gt;E-value: 8e-38" locus_tag="AM274_RS22860" class="clusterblast-orf" id="dummy-2_h2_2_27"  />
</g>
<g id="a2_0028"  >
<polygon points="631,85 636,80 646,80 646,90 636,90 631,85 " style="fill:#d81572; stroke-width:1; stroke:black; " description="&lt;b&gt;AM274_RS22865&lt;/b&gt;&lt;br&gt;metal ABC transporter substrate-binding protein&lt;br&gt;Location: 278029 - 279000&lt;br&gt;&lt;br&gt;&lt;b&gt;BlastP hit with ctg1_977&lt;/b&gt;&lt;br&gt;Percentage identity: 99&lt;br&gt;Percentage coverage: 100&lt;br&gt;BLAST bit score: 616&lt;br&gt;E-value: 1.8e-174" locus_tag="AM274_RS22865" class="clusterblast-orf" id="dummy-2_h2_2_28"  />
</g>
<g id="a2_0029"  >
<polygon points="646,85 651,80 659,80 659,90 651,90 646,85 " style="fill:#c4d815; stroke-width:1; stroke:black; " description="&lt;b&gt;AM274_RS22870&lt;/b&gt;&lt;br&gt;metal ABC transporter permease&lt;br&gt;Location: 279001 - 279900&lt;br&gt;&lt;br&gt;&lt;b&gt;BlastP hit with ctg1_978&lt;/b&gt;&lt;br&gt;Percentage identity: 100&lt;br&gt;Percentage coverage: 100&lt;br&gt;BLAST bit score: 486&lt;br&gt;E-value: 2.5e-135" locus_tag="AM274_RS22870" class="clusterblast-orf" id="dummy-2_h2_2_29"  />
</g>
<g id="a2_0030"  >
<polygon points="659,85 664,80 672,80 672,90 664,90 659,85 " style="fill:#15d89b; stroke-width:1; stroke:black; " description="&lt;b&gt;AM274_RS22875&lt;/b&gt;&lt;br&gt;metal ABC transporter ATP-binding protein&lt;br&gt;Location: 279900 - 280763&lt;br&gt;&lt;br&gt;&lt;b&gt;BlastP hit with ctg1_979&lt;/b&gt;&lt;br&gt;Percentage identity: 99&lt;br&gt;Percentage coverage: 100&lt;br&gt;BLAST bit score: 562&lt;br&gt;E-value: 2e-158" locus_tag="AM274_RS22875" class="clusterblast-orf" id="dummy-2_h2_2_30"  />
</g>
<g id="a2_0031"  >
<polygon points="672,85 677,80 686,80 686,90 677,90 672,85 " style="fill:#4915d8; stroke-width:1; stroke:black; " description="&lt;b&gt;AM274_RS22880&lt;/b&gt;&lt;br&gt;ABC transporter substrate-binding protein&lt;br&gt;Location: 280760 - 281686&lt;br&gt;&lt;br&gt;&lt;b&gt;BlastP hit with ctg1_980&lt;/b&gt;&lt;br&gt;Percentage identity: 100&lt;br&gt;Percentage coverage: 100&lt;br&gt;BLAST bit score: 601&lt;br&gt;E-value: 5.6e-170" locus_tag="AM274_RS22880" class="clusterblast-orf" id="dummy-2_h2_2_31"  />
</g>
<g id="a2_0032"  >
<polygon points="687,85 692,80 695,80 695,90 692,90 687,85 " style="fill:#d81553; stroke-width:1; stroke:black; " description="&lt;b&gt;AM274_RS22885&lt;/b&gt;&lt;br&gt;hypothetical protein&lt;br&gt;Location: 281722 - 282294&lt;br&gt;&lt;br&gt;&lt;b&gt;BlastP hit with ctg1_981&lt;/b&gt;&lt;br&gt;Percentage identity: 99&lt;br&gt;Percentage coverage: 100&lt;br&gt;BLAST bit score: 369&lt;br&gt;E-value: 1.7e-100" locus_tag="AM274_RS22885" class="clusterblast-orf" id="dummy-2_h2_2_32"  />
</g>
<g id="a2_0033"  >
<polygon points="695,85 700,80 700,80 700,90 700,90 695,85 " style="fill:#a5d815; stroke-width:1; stroke:black; " description="&lt;b&gt;AM274_RS22890&lt;/b&gt;&lt;br&gt;hypothetical protein&lt;br&gt;Location: 282297 - 282626&lt;br&gt;&lt;br&gt;&lt;b&gt;BlastP hit with ctg1_982&lt;/b&gt;&lt;br&gt;Percentage identity: 98&lt;br&gt;Percentage coverage: 100&lt;br&gt;BLAST bit score: 217&lt;br&gt;E-value: 8e-55" locus_tag="AM274_RS22890" class="clusterblast-orf" id="dummy-2_h2_2_33"  />
</g>
<g id="a2_0034"  >
<polygon points="700,85 705,80 708,80 708,90 705,90 700,85 " style="fill:#15d8b9; stroke-width:1; stroke:black; " description="&lt;b&gt;AM274_RS22895&lt;/b&gt;&lt;br&gt;hypothetical protein&lt;br&gt;Location: 282623 - 283165&lt;br&gt;&lt;br&gt;&lt;b&gt;BlastP hit with ctg1_983&lt;/b&gt;&lt;br&gt;Percentage identity: 97&lt;br&gt;Percentage coverage: 100&lt;br&gt;BLAST bit score: 368&lt;br&gt;E-value: 4.6e-100" locus_tag="AM274_RS22895" class="clusterblast-orf" id="dummy-2_h2_2_34"  />
</g>
<g id="a2_0035"  >
<polygon points="708,85 713,80 726,80 726,90 713,90 708,85 " style="fill:#6715d8; stroke-width:1; stroke:black; " description="&lt;b&gt;AM274_RS22900&lt;/b&gt;&lt;br&gt;PepSY domain-containing protein&lt;br&gt;Location: 283162 - 284364&lt;br&gt;&lt;br&gt;&lt;b&gt;BlastP hit with ctg1_984&lt;/b&gt;&lt;br&gt;Percentage identity: 100&lt;br&gt;Percentage coverage: 100&lt;br&gt;BLAST bit score: 795&lt;br&gt;E-value: 2e-228" locus_tag="AM274_RS22900" class="clusterblast-orf" id="dummy-2_h2_2_35"  />
</g>
<g id="a2_0036"  >
<polygon points="733,90 749,90 754,85 749,80 733,80 733,90 " style="fill:#d81534; stroke-width:1; stroke:black; " description="&lt;b&gt;AM274_RS22905&lt;/b&gt;&lt;br&gt;3-isopropylmalate dehydratase large subunit&lt;br&gt;Location: 284785 - 286206&lt;br&gt;&lt;br&gt;&lt;b&gt;BlastP hit with ctg1_985&lt;/b&gt;&lt;br&gt;Percentage identity: 99&lt;br&gt;Percentage coverage: 100&lt;br&gt;BLAST bit score: 938&lt;br&gt;E-value: 3.9e-271" locus_tag="AM274_RS22905" class="clusterblast-orf" id="dummy-2_h2_2_36"  />
</g>
<g id="a2_0037"  >
<polygon points="754,90 758,90 763,85 758,80 754,80 754,90 " style="fill:#86d815; stroke-width:1; stroke:black; " description="&lt;b&gt;AM274_RS22910&lt;/b&gt;&lt;br&gt;3-isopropylmalate dehydratase small subunit&lt;br&gt;Location: 286203 - 286814&lt;br&gt;&lt;br&gt;&lt;b&gt;BlastP hit with ctg1_986&lt;/b&gt;&lt;br&gt;Percentage identity: 97&lt;br&gt;Percentage coverage: 100&lt;br&gt;BLAST bit score: 397&lt;br&gt;E-value: 8.1e-109" locus_tag="AM274_RS22910" class="clusterblast-orf" id="dummy-2_h2_2_37"  />
</g>
<g id="a2_0038"  >
<polygon points="765,85 770,80 780,80 780,90 770,90 765,85 " style="fill:#15d8d8; stroke-width:1; stroke:black; " description="&lt;b&gt;AM274_RS22915&lt;/b&gt;&lt;br&gt;LysR family transcriptional regulator&lt;br&gt;Location: 286940 - 287890&lt;br&gt;&lt;br&gt;&lt;b&gt;BlastP hit with ctg1_987&lt;/b&gt;&lt;br&gt;Percentage identity: 100&lt;br&gt;Percentage coverage: 100&lt;br&gt;BLAST bit score: 584&lt;br&gt;E-value: 8.6e-165" locus_tag="AM274_RS22915" class="clusterblast-orf" id="dummy-2_h2_2_38"  />
</g>
</svg>
