<svg xmlns="http://www.w3.org/2000/svg" xmlns:xlink="http://www.w3.org/1999/xlink" version="1.1" x="0" y="0" height="230" width="800" viewBox="0 0 800 230" preserveAspectRatio="none"  >
<g label="Query sequence" class="clusterblast-cluster"  >
<text x="5" y="20" class="clusterblast-acc"  >
Query sequence</text>
<line x1="10" y1="35" x2="778.0" y2="35" style="stroke-width:1; stroke:grey; "  />
<polygon points="0,40 299,40 304,35 299,30 0,30 0,40 " style="fill:#d81515; stroke-width:1; stroke:black; " description="&lt;b&gt;ctg4_577&lt;/b&gt;&lt;br&gt;ctg4 577&lt;br&gt;Location: 680926 - 689050" locus_tag="ctg4_577" class="clusterblast-orf" id="dummy-2_q0_0_all"  />
<polygon points="310,40 318,40 323,35 318,30 310,30 310,40 " style="fill:#3cd815; stroke-width:1; stroke:black; " description="&lt;b&gt;ctg4_578&lt;/b&gt;&lt;br&gt;ctg4 578&lt;br&gt;Location: 689198 - 689537" locus_tag="ctg4_578" class="clusterblast-orf" id="dummy-2_q1_0_all"  />
<polygon points="328,35 333,30 401,30 401,40 333,40 328,35 " style="fill:#1563d8; stroke-width:1; stroke:black; " description="&lt;b&gt;ctg4_579&lt;/b&gt;&lt;br&gt;ctg4 579&lt;br&gt;Location: 689672 - 691619" locus_tag="ctg4_579" class="clusterblast-orf" id="dummy-2_q2_0_all"  />
<polygon points="401,35 406,30 427,30 427,40 406,40 401,35 " style="fill:#b115d8; stroke-width:1; stroke:black; " description="&lt;b&gt;ctg4_580&lt;/b&gt;&lt;br&gt;ctg4 580&lt;br&gt;Location: 691633 - 692326" locus_tag="ctg4_580" class="clusterblast-orf" id="dummy-2_q3_0_all"  />
<polygon points="437,40 459,40 464,35 459,30 437,30 437,40 " style="fill:#d88a15; stroke-width:1; stroke:black; " description="&lt;b&gt;ctg4_581&lt;/b&gt;&lt;br&gt;ctg4 581&lt;br&gt;Location: 692593 - 693304" locus_tag="ctg4_581" class="clusterblast-orf" id="dummy-2_q4_0_all"  />
<polygon points="493,40 517,40 522,35 517,30 493,30 493,40 " style="fill:#15d863; stroke-width:1; stroke:black; " description="&lt;b&gt;ctg4_582&lt;/b&gt;&lt;br&gt;ctg4 582&lt;br&gt;Location: 694088 - 694865" locus_tag="ctg4_582" class="clusterblast-orf" id="dummy-2_q5_0_all"  />
<polygon points="522,40 552,40 557,35 552,30 522,30 522,40 " style="fill:#3c15d8; stroke-width:1; stroke:black; " description="&lt;b&gt;ctg4_583&lt;/b&gt;&lt;br&gt;ctg4 583&lt;br&gt;Location: 694861 - 695791" locus_tag="ctg4_583" class="clusterblast-orf" id="dummy-2_q6_0_all"  />
<polygon points="558,40 681,40 686,35 681,30 558,30 558,40 " style="fill:#d8158a; stroke-width:1; stroke:black; " description="&lt;b&gt;ctg4_584&lt;/b&gt;&lt;br&gt;ctg4 584&lt;br&gt;Location: 695804 - 699215" locus_tag="ctg4_584" class="clusterblast-orf" id="dummy-2_q7_0_all"  />
<polygon points="686,40 699,40 704,35 699,30 686,30 686,40 " style="fill:#b1d815; stroke-width:1; stroke:black; " description="&lt;b&gt;ctg4_585&lt;/b&gt;&lt;br&gt;ctg4 585&lt;br&gt;Location: 699237 - 699705" locus_tag="ctg4_585" class="clusterblast-orf" id="dummy-2_q8_0_all"  />
<polygon points="709,35 714,30 780,30 780,40 714,40 709,35 " style="fill:#15d8d8; stroke-width:1; stroke:black; " description="&lt;b&gt;ctg4_586&lt;/b&gt;&lt;br&gt;ctg4 586&lt;br&gt;Location: 699851 - 701732" locus_tag="ctg4_586" class="clusterblast-orf" id="dummy-2_q9_0_all"  />
</g>
<g label="NZ_LIRD01000003" description="NZ_LIRD01000003_c6: Pseudomonas sp. In5 P.sp In5 contig 3, whole genome shotg... (100% of genes show similarity), other" class="clusterblast-cluster"  >
<text x="5" y="70" class="clusterblast-acc"  >
<a xlink:href="https://antismash-db.secondarymetabolites.org/go/NZ_LIRD01000003/6" target="_blank">NZ_LIRD01000003_c6</a>: Pseudomonas sp. In5 P.sp In5 contig 3, whole genome shotg... (100% of genes show similarity), other</text>
<line x1="10" y1="85" x2="778.0" y2="85" style="stroke-width:1; stroke:grey; "  />
</g>
<g id="a2_000"  >
<polygon points="23,90 275,90 280,85 275,80 23,80 23,90 " style="fill:#d81515; stroke-width:1; stroke:black; " description="&lt;b&gt;AL066_RS25040&lt;/b&gt;&lt;br&gt;type I secretion protein&lt;br&gt;Location: 682190 - 689050&lt;br&gt;&lt;br&gt;&lt;b&gt;BlastP hit with ctg4_577&lt;/b&gt;&lt;br&gt;Percentage identity: 100&lt;br&gt;Percentage coverage: 84&lt;br&gt;BLAST bit score: 3713&lt;br&gt;E-value: 0.0" locus_tag="AL066_RS25040" class="clusterblast-orf" id="dummy-2_h2_1_0"  />
</g>
<g id="a2_001"  >
<polygon points="286,90 294,90 299,85 294,80 286,80 286,90 " style="fill:#3cd815; stroke-width:1; stroke:black; " description="&lt;b&gt;AL066_RS25045&lt;/b&gt;&lt;br&gt;hypothetical protein&lt;br&gt;Location: 689199 - 689537&lt;br&gt;&lt;br&gt;&lt;b&gt;BlastP hit with ctg4_578&lt;/b&gt;&lt;br&gt;Percentage identity: 100&lt;br&gt;Percentage coverage: 100&lt;br&gt;BLAST bit score: 214&lt;br&gt;E-value: 7e-54" locus_tag="AL066_RS25045" class="clusterblast-orf" id="dummy-2_h2_1_1"  />
</g>
<g id="a2_002"  >
<polygon points="304,85 309,80 377,80 377,90 309,90 304,85 " style="fill:#1563d8; stroke-width:1; stroke:black; " description="&lt;b&gt;AL066_RS25050&lt;/b&gt;&lt;br&gt;GGDEF domain-containing protein&lt;br&gt;Location: 689673 - 691619&lt;br&gt;&lt;br&gt;&lt;b&gt;BlastP hit with ctg4_579&lt;/b&gt;&lt;br&gt;Percentage identity: 100&lt;br&gt;Percentage coverage: 100&lt;br&gt;BLAST bit score: 1238&lt;br&gt;E-value: 0.0" locus_tag="AL066_RS25050" class="clusterblast-orf" id="dummy-2_h2_1_2"  />
</g>
<g id="a2_003"  >
<polygon points="377,85 382,80 403,80 403,90 382,90 377,85 " style="fill:#b115d8; stroke-width:1; stroke:black; " description="&lt;b&gt;AL066_RS25055&lt;/b&gt;&lt;br&gt;hypothetical protein&lt;br&gt;Location: 691634 - 692326&lt;br&gt;&lt;br&gt;&lt;b&gt;BlastP hit with ctg4_580&lt;/b&gt;&lt;br&gt;Percentage identity: 100&lt;br&gt;Percentage coverage: 100&lt;br&gt;BLAST bit score: 469&lt;br&gt;E-value: 1.9e-130" locus_tag="AL066_RS25055" class="clusterblast-orf" id="dummy-2_h2_1_3"  />
</g>
<g id="a2_004"  >
<polygon points="413,90 435,90 440,85 435,80 413,80 413,90 " style="fill:#d88a15; stroke-width:1; stroke:black; " description="&lt;b&gt;AL066_RS25060&lt;/b&gt;&lt;br&gt;GntR family transcriptional regulator&lt;br&gt;Location: 692594 - 693304&lt;br&gt;&lt;br&gt;&lt;b&gt;BlastP hit with ctg4_581&lt;/b&gt;&lt;br&gt;Percentage identity: 100&lt;br&gt;Percentage coverage: 100&lt;br&gt;BLAST bit score: 453&lt;br&gt;E-value: 1.1e-125" locus_tag="AL066_RS25060" class="clusterblast-orf" id="dummy-2_h2_1_4"  />
</g>
<g id="a2_005"  >
<polygon points="469,90 493,90 498,85 493,80 469,80 469,90 " style="fill:#15d863; stroke-width:1; stroke:black; " description="&lt;b&gt;AL066_RS25065&lt;/b&gt;&lt;br&gt;DUF3050 domain-containing protein&lt;br&gt;Location: 694089 - 694865&lt;br&gt;&lt;br&gt;&lt;b&gt;BlastP hit with ctg4_582&lt;/b&gt;&lt;br&gt;Percentage identity: 100&lt;br&gt;Percentage coverage: 100&lt;br&gt;BLAST bit score: 517&lt;br&gt;E-value: 6.8e-145" locus_tag="AL066_RS25065" class="clusterblast-orf" id="dummy-2_h2_1_5"  />
</g>
<g id="a2_006"  >
<polygon points="498,90 528,90 533,85 528,80 498,80 498,90 " style="fill:#3c15d8; stroke-width:1; stroke:black; " description="&lt;b&gt;AL066_RS25070&lt;/b&gt;&lt;br&gt;aminobenzoate oxygenase&lt;br&gt;Location: 694862 - 695791&lt;br&gt;&lt;br&gt;&lt;b&gt;BlastP hit with ctg4_583&lt;/b&gt;&lt;br&gt;Percentage identity: 100&lt;br&gt;Percentage coverage: 100&lt;br&gt;BLAST bit score: 610&lt;br&gt;E-value: 1.2e-172" locus_tag="AL066_RS25070" class="clusterblast-orf" id="dummy-2_h2_1_6"  />
</g>
<g id="a2_007"  >
<polygon points="534,90 656,90 661,85 656,80 534,80 534,90 " style="fill:#d8158a; stroke-width:1; stroke:black; " description="&lt;b&gt;AL066_RS25075&lt;/b&gt;&lt;br&gt;peptide transporter&lt;br&gt;Location: 695805 - 699215&lt;br&gt;&lt;br&gt;&lt;b&gt;BlastP hit with ctg4_584&lt;/b&gt;&lt;br&gt;Percentage identity: 100&lt;br&gt;Percentage coverage: 100&lt;br&gt;BLAST bit score: 2245&lt;br&gt;E-value: 0.0" locus_tag="AL066_RS25075" class="clusterblast-orf" id="dummy-2_h2_1_7"  />
</g>
<g id="a2_008"  >
<polygon points="662,90 675,90 680,85 675,80 662,80 662,90 " style="fill:#b1d815; stroke-width:1; stroke:black; " description="&lt;b&gt;AL066_RS25080&lt;/b&gt;&lt;br&gt;SRPBCC family protein&lt;br&gt;Location: 699238 - 699705&lt;br&gt;&lt;br&gt;&lt;b&gt;BlastP hit with ctg4_585&lt;/b&gt;&lt;br&gt;Percentage identity: 100&lt;br&gt;Percentage coverage: 100&lt;br&gt;BLAST bit score: 316&lt;br&gt;E-value: 1.8e-84" locus_tag="AL066_RS25080" class="clusterblast-orf" id="dummy-2_h2_1_8"  />
</g>
<g id="a2_009"  >
<polygon points="685,85 690,80 756,80 756,90 690,90 685,85 " style="fill:#15d8d8; stroke-width:1; stroke:black; " description="&lt;b&gt;AL066_RS25085&lt;/b&gt;&lt;br&gt;methyl-accepting chemotaxis protein&lt;br&gt;Location: 699852 - 701732&lt;br&gt;&lt;br&gt;&lt;b&gt;BlastP hit with ctg4_586&lt;/b&gt;&lt;br&gt;Percentage identity: 100&lt;br&gt;Percentage coverage: 100&lt;br&gt;BLAST bit score: 988&lt;br&gt;E-value: 2.5e-286" locus_tag="AL066_RS25085" class="clusterblast-orf" id="dummy-2_h2_1_9"  />
</g>
</svg>
