<svg xmlns="http://www.w3.org/2000/svg" xmlns:xlink="http://www.w3.org/1999/xlink" version="1.1" x="0" y="0" height="230" width="800" viewBox="0 0 800 230" preserveAspectRatio="none"  >
<g label="Query sequence" class="clusterblast-cluster"  >
<text x="5" y="20" class="clusterblast-acc"  >
Query sequence</text>
<line x1="10" y1="35" x2="778.0" y2="35" style="stroke-width:1; stroke:grey; "  />
<polygon points="284,40 288,35 284,30 284,40 " style="fill:white; stroke-width:1; stroke:black; " description="&lt;b&gt;ctg3_16&lt;/b&gt;&lt;br&gt;ctg3 16&lt;br&gt;Location: 14210 - 14657" locus_tag="ctg3_16" class="clusterblast-orf" id="dummy-1_q0_0_all"  />
<polygon points="288,35 293,30 299,30 299,40 293,40 288,35 " style="fill:white; stroke-width:1; stroke:black; " description="&lt;b&gt;ctg3_17&lt;/b&gt;&lt;br&gt;ctg3 17&lt;br&gt;Location: 14694 - 15846" locus_tag="ctg3_17" class="clusterblast-orf" id="dummy-1_q1_0_all"  />
<polygon points="304,35 307,30 307,40 304,35 " style="fill:white; stroke-width:1; stroke:black; " description="&lt;b&gt;ctg3_18&lt;/b&gt;&lt;br&gt;ctg3 18&lt;br&gt;Location: 16328 - 16670" locus_tag="ctg3_18" class="clusterblast-orf" id="dummy-1_q2_0_all"  />
<polygon points="308,40 309,40 314,35 309,30 308,30 308,40 " style="fill:white; stroke-width:1; stroke:black; " description="&lt;b&gt;ctg3_19&lt;/b&gt;&lt;br&gt;ctg3 19&lt;br&gt;Location: 16800 - 17451" locus_tag="ctg3_19" class="clusterblast-orf" id="dummy-1_q3_0_all"  />
<polygon points="314,35 319,30 333,30 333,40 319,40 314,35 " style="fill:#d81515; stroke-width:1; stroke:black; " description="&lt;b&gt;ctg3_20&lt;/b&gt;&lt;br&gt;ctg3 20&lt;br&gt;Location: 17490 - 19440" locus_tag="ctg3_20" class="clusterblast-orf" id="dummy-1_q4_0_all"  />
<polygon points="333,35 338,30 340,30 340,40 338,40 333,35 " style="fill:#77d815; stroke-width:1; stroke:black; " description="&lt;b&gt;ctg3_21&lt;/b&gt;&lt;br&gt;ctg3 21&lt;br&gt;Location: 19439 - 20252" locus_tag="ctg3_21" class="clusterblast-orf" id="dummy-1_q5_0_all"  />
<polygon points="341,35 346,30 356,30 356,40 346,40 341,35 " style="fill:#15d8d8; stroke-width:1; stroke:black; " description="&lt;b&gt;ctg3_22&lt;/b&gt;&lt;br&gt;ctg3 22&lt;br&gt;Location: 20357 - 21965" locus_tag="ctg3_22" class="clusterblast-orf" id="dummy-1_q6_0_all"  />
<polygon points="356,35 361,30 367,30 367,40 361,40 356,35 " style="fill:#7715d8; stroke-width:1; stroke:black; " description="&lt;b&gt;ctg3_23&lt;/b&gt;&lt;br&gt;ctg3 23&lt;br&gt;Location: 21977 - 23141" locus_tag="ctg3_23" class="clusterblast-orf" id="dummy-1_q7_0_all"  />
<polygon points="370,40 381,40 386,35 381,30 370,30 370,40 " style="fill:#d8a715; stroke-width:1; stroke:black; " description="&lt;b&gt;ctg3_24&lt;/b&gt;&lt;br&gt;ctg3 24&lt;br&gt;Location: 23480 - 25178" locus_tag="ctg3_24" class="clusterblast-orf" id="dummy-1_q8_0_all"  />
<polygon points="387,35 392,30 394,30 394,40 392,40 387,35 " style="fill:white; stroke-width:1; stroke:black; " description="&lt;b&gt;ctg3_25&lt;/b&gt;&lt;br&gt;ctg3 25&lt;br&gt;Location: 25316 - 26069" locus_tag="ctg3_25" class="clusterblast-orf" id="dummy-1_q9_0_all"  />
<polygon points="395,35 400,30 404,30 404,40 400,40 395,35 " style="fill:#15d846; stroke-width:1; stroke:black; " description="&lt;b&gt;ctg3_26&lt;/b&gt;&lt;br&gt;ctg3 26&lt;br&gt;Location: 26190 - 27093" locus_tag="ctg3_26" class="clusterblast-orf" id="dummy-1_q10_0_all"  />
<polygon points="410,35 415,30 418,30 418,40 415,40 410,35 " style="fill:#1546d8; stroke-width:1; stroke:black; " description="&lt;b&gt;ctg3_27&lt;/b&gt;&lt;br&gt;ctg3 27&lt;br&gt;Location: 27727 - 28627" locus_tag="ctg3_27" class="clusterblast-orf" id="dummy-1_q11_0_all"  />
<polygon points="419,35 423,30 423,40 419,35 " style="fill:#d815a7; stroke-width:1; stroke:black; " description="&lt;b&gt;ctg3_28&lt;/b&gt;&lt;br&gt;ctg3 28&lt;br&gt;Location: 28763 - 29165" locus_tag="ctg3_28" class="clusterblast-orf" id="dummy-1_q12_0_all"  />
<polygon points="425,35 430,30 434,30 434,40 430,40 425,35 " style="fill:white; stroke-width:1; stroke:black; " description="&lt;b&gt;ctg3_29&lt;/b&gt;&lt;br&gt;ctg3 29&lt;br&gt;Location: 29378 - 30308" locus_tag="ctg3_29" class="clusterblast-orf" id="dummy-1_q13_0_all"  />
<polygon points="435,40 441,40 446,35 441,30 435,30 435,40 " style="fill:#7715d8; stroke-width:1; stroke:black; " description="&lt;b&gt;ctg3_30&lt;/b&gt;&lt;br&gt;ctg3 30&lt;br&gt;Location: 30462 - 31692" locus_tag="ctg3_30" class="clusterblast-orf" id="dummy-1_q14_0_all"  />
<polygon points="448,35 453,30 460,30 460,40 453,40 448,35 " style="fill:white; stroke-width:1; stroke:black; " description="&lt;b&gt;ctg3_31&lt;/b&gt;&lt;br&gt;ctg3 31&lt;br&gt;Location: 31846 - 33187" locus_tag="ctg3_31" class="clusterblast-orf" id="dummy-1_q15_0_all"  />
<polygon points="462,35 467,30 470,30 470,40 467,40 462,35 " style="fill:white; stroke-width:1; stroke:black; " description="&lt;b&gt;ctg3_32&lt;/b&gt;&lt;br&gt;ctg3 32&lt;br&gt;Location: 33379 - 34192" locus_tag="ctg3_32" class="clusterblast-orf" id="dummy-1_q16_0_all"  />
<polygon points="472,40 474,40 479,35 474,30 472,30 472,40 " style="fill:white; stroke-width:1; stroke:black; " description="&lt;b&gt;ctg3_33&lt;/b&gt;&lt;br&gt;ctg3 33&lt;br&gt;Location: 34490 - 35141" locus_tag="ctg3_33" class="clusterblast-orf" id="dummy-1_q17_0_all"  />
<polygon points="479,40 490,40 495,35 490,30 479,30 479,40 " style="fill:white; stroke-width:1; stroke:black; " description="&lt;b&gt;ctg3_34&lt;/b&gt;&lt;br&gt;ctg3 34&lt;br&gt;Location: 35242 - 36934" locus_tag="ctg3_34" class="clusterblast-orf" id="dummy-1_q18_0_all"  />
</g>
<g label="NZ_MSXV01000050" description="NZ_MSXV01000050_c1: Pseudomonas sp. PA15(2017) strain PA15 NODE 128 length 35... (14% of genes show similarity), nrps" class="clusterblast-cluster"  >
<text x="5" y="70" class="clusterblast-acc"  >
<a xlink:href="https://antismash-db.secondarymetabolites.org/go/NZ_MSXV01000050/1" target="_blank">NZ_MSXV01000050_c1</a>: Pseudomonas sp. PA15(2017) strain PA15 NODE 128 length 35... (14% of genes show similarity), nrps</text>
<line x1="10" y1="85" x2="778.0" y2="85" style="stroke-width:1; stroke:grey; "  />
</g>
<g id="a1_000"  >
<polygon points="0,85 5,80 5,80 5,90 5,90 0,85 " style="fill:white; stroke-width:1; stroke:black; " description="&lt;b&gt;BVH03_RS16510&lt;/b&gt;&lt;br&gt;RNA polymerase subunit sigma&lt;br&gt;Location: 187586 - 188204" locus_tag="BVH03_RS16510" class="clusterblast-orf" id="dummy-1_h1_6_0"  />
</g>
<g id="a1_001"  >
<polygon points="6,90 10,90 15,85 10,80 6,80 6,90 " style="fill:white; stroke-width:1; stroke:black; " description="&lt;b&gt;BVH03_RS16515&lt;/b&gt;&lt;br&gt;FecR family protein&lt;br&gt;Location: 188258 - 189220" locus_tag="BVH03_RS16515" class="clusterblast-orf" id="dummy-1_h1_6_1"  />
</g>
<g id="a1_002"  >
<polygon points="17,85 22,80 30,80 30,90 22,90 17,85 " style="fill:white; stroke-width:1; stroke:black; " description="&lt;b&gt;BVH03_RS16520&lt;/b&gt;&lt;br&gt;PvdJ/PvdD/PvdP-like protein&lt;br&gt;Location: 189451 - 190908" locus_tag="BVH03_RS16520" class="clusterblast-orf" id="dummy-1_h1_6_2"  />
</g>
<g id="a1_003"  >
<polygon points="34,90 38,85 34,80 34,90 " style="fill:white; stroke-width:1; stroke:black; " description="&lt;b&gt;BVH03_RS16525&lt;/b&gt;&lt;br&gt;azurin&lt;br&gt;Location: 191279 - 191728" locus_tag="BVH03_RS16525" class="clusterblast-orf" id="dummy-1_h1_6_3"  />
</g>
<g id="a1_004"  >
<polygon points="43,90 49,90 54,85 49,80 43,80 43,90 " style="fill:white; stroke-width:1; stroke:black; " description="&lt;b&gt;BVH03_RS16535&lt;/b&gt;&lt;br&gt;membrane dipeptidase&lt;br&gt;Location: 192222 - 193439" locus_tag="BVH03_RS16535" class="clusterblast-orf" id="dummy-1_h1_6_4"  />
</g>
<g id="a1_005"  >
<polygon points="54,90 57,90 62,85 57,80 54,80 54,90 " style="fill:white; stroke-width:1; stroke:black; " description="&lt;b&gt;BVH03_RS16540&lt;/b&gt;&lt;br&gt;formylglycine-generating enzyme family protein&lt;br&gt;Location: 193498 - 194361" locus_tag="BVH03_RS16540" class="clusterblast-orf" id="dummy-1_h1_6_5"  />
</g>
<g id="a1_006"  >
<polygon points="67,90 72,90 77,85 72,80 67,80 67,90 " style="fill:white; stroke-width:1; stroke:black; " description="&lt;b&gt;BVH03_RS16545&lt;/b&gt;&lt;br&gt;N-acetyltransferase&lt;br&gt;Location: 194846 - 195922" locus_tag="BVH03_RS16545" class="clusterblast-orf" id="dummy-1_h1_6_6"  />
</g>
<g id="a1_007"  >
<polygon points="77,90 84,90 89,85 84,80 77,80 77,90 " style="fill:white; stroke-width:1; stroke:black; " description="&lt;b&gt;BVH03_RS16550&lt;/b&gt;&lt;br&gt;ornithine monooxygenase&lt;br&gt;Location: 195919 - 197244" locus_tag="BVH03_RS16550" class="clusterblast-orf" id="dummy-1_h1_6_7"  />
</g>
<g id="a1_008"  >
<polygon points="89,90 100,90 105,85 100,80 89,80 89,90 " style="fill:white; stroke-width:1; stroke:black; " description="&lt;b&gt;BVH03_RS16555&lt;/b&gt;&lt;br&gt;cyclic peptide export ABC transporter&lt;br&gt;Location: 197263 - 198912" locus_tag="BVH03_RS16555" class="clusterblast-orf" id="dummy-1_h1_6_8"  />
</g>
<g id="a1_009"  >
<polygon points="106,90 124,90 129,85 124,80 106,80 106,90 " style="fill:white; stroke-width:1; stroke:black; " description="&lt;b&gt;BVH03_RS16560&lt;/b&gt;&lt;br&gt;TonB-dependent siderophore receptor&lt;br&gt;Location: 199015 - 201477" locus_tag="BVH03_RS16560" class="clusterblast-orf" id="dummy-1_h1_6_9"  />
</g>
<g id="a1_0010"  >
<polygon points="141,90 155,90 160,85 155,80 141,80 141,90 " style="fill:white; stroke-width:1; stroke:black; " description="&lt;b&gt;BVH03_RS16565&lt;/b&gt;&lt;br&gt;TonB-dependent siderophore receptor&lt;br&gt;Location: 202841 - 204862" locus_tag="BVH03_RS16565" class="clusterblast-orf" id="dummy-1_h1_6_10"  />
</g>
<g id="a1_0011"  >
<polygon points="165,85 170,80 174,80 174,90 170,90 165,85 " style="fill:white; stroke-width:1; stroke:black; " description="&lt;b&gt;BVH03_RS16570&lt;/b&gt;&lt;br&gt;alpha/beta hydrolase&lt;br&gt;Location: 205393 - 206352" locus_tag="BVH03_RS16570" class="clusterblast-orf" id="dummy-1_h1_6_11"  />
</g>
<g id="a1_0012"  >
<polygon points="175,85 180,80 314,80 314,90 180,90 175,85 " style="fill:white; stroke-width:1; stroke:black; " description="&lt;b&gt;BVH03_RS16580&lt;/b&gt;&lt;br&gt;non-ribosomal peptide synthase/polyketide synthase&lt;br&gt;Location: 206419 - 221472" locus_tag="BVH03_RS16580" class="clusterblast-orf" id="dummy-1_h1_6_12"  />
</g>
<g id="a1_0013"  >
<polygon points="314,85 319,80 429,80 429,90 319,90 314,85 " style="fill:white; stroke-width:1; stroke:black; " description="&lt;b&gt;BVH03_RS16585&lt;/b&gt;&lt;br&gt;non-ribosomal peptide synthase/polyketide synthase&lt;br&gt;Location: 221472 - 233825" locus_tag="BVH03_RS16585" class="clusterblast-orf" id="dummy-1_h1_6_13"  />
</g>
<g id="a1_0014"  >
<polygon points="436,90 440,90 445,85 440,80 436,80 436,90 " style="fill:white; stroke-width:1; stroke:black; " description="&lt;b&gt;BVH03_RS16590&lt;/b&gt;&lt;br&gt;siderophore-interacting protein&lt;br&gt;Location: 234554 - 235519" locus_tag="BVH03_RS16590" class="clusterblast-orf" id="dummy-1_h1_6_14"  />
</g>
<g id="a1_0015"  >
<polygon points="447,85 452,80 455,80 455,90 452,90 447,85 " style="fill:white; stroke-width:1; stroke:black; " description="&lt;b&gt;BVH03_RS16595&lt;/b&gt;&lt;br&gt;thioesterase&lt;br&gt;Location: 235785 - 236549" locus_tag="BVH03_RS16595" class="clusterblast-orf" id="dummy-1_h1_6_15"  />
</g>
<g id="a1_0016"  >
<polygon points="455,85 457,80 457,90 455,85 " style="fill:white; stroke-width:1; stroke:black; " description="&lt;b&gt;BVH03_RS16600&lt;/b&gt;&lt;br&gt;MbtH family protein&lt;br&gt;Location: 236560 - 236805" locus_tag="BVH03_RS16600" class="clusterblast-orf" id="dummy-1_h1_6_16"  />
</g>
<g id="a1_0017"  >
<polygon points="459,85 464,80 472,80 472,90 464,90 459,85 " style="fill:white; stroke-width:1; stroke:black; " description="&lt;b&gt;BVH03_RS16605&lt;/b&gt;&lt;br&gt;aspartate aminotransferase family protein&lt;br&gt;Location: 237030 - 238433" locus_tag="BVH03_RS16605" class="clusterblast-orf" id="dummy-1_h1_6_17"  />
</g>
<g id="a1_0018"  >
<polygon points="474,85 479,80 594,80 594,90 479,90 474,85 " style="fill:white; stroke-width:1; stroke:black; " description="&lt;b&gt;BVH03_RS16610&lt;/b&gt;&lt;br&gt;non-ribosomal peptide synthase/polyketide synthase&lt;br&gt;Location: 238638 - 251525" locus_tag="BVH03_RS16610" class="clusterblast-orf" id="dummy-1_h1_6_18"  />
</g>
<g id="a1_0019"  >
<polygon points="597,90 597,90 602,85 597,80 597,80 597,90 " style="fill:white; stroke-width:1; stroke:black; " description="&lt;b&gt;BVH03_RS16615&lt;/b&gt;&lt;br&gt;RNA polymerase factor sigma-70&lt;br&gt;Location: 251871 - 252413" locus_tag="BVH03_RS16615" class="clusterblast-orf" id="dummy-1_h1_6_19"  />
</g>
<g id="a1_0020"  >
<polygon points="606,90 609,85 606,80 606,90 " style="fill:white; stroke-width:1; stroke:black; " description="&lt;b&gt;BVH03_RS16620&lt;/b&gt;&lt;br&gt;hypothetical protein&lt;br&gt;Location: 252795 - 253130" locus_tag="BVH03_RS16620" class="clusterblast-orf" id="dummy-1_h1_6_20"  />
</g>
<g id="a1_0021"  >
<polygon points="609,90 610,85 609,80 609,90 " style="fill:white; stroke-width:1; stroke:black; " description="&lt;b&gt;BVH03_RS16625&lt;/b&gt;&lt;br&gt;transcriptional regulator&lt;br&gt;Location: 253127 - 253324" locus_tag="BVH03_RS16625" class="clusterblast-orf" id="dummy-1_h1_6_21"  />
</g>
<g id="a1_0022"  >
<polygon points="610,90 616,90 621,85 616,80 610,80 610,90 " style="fill:white; stroke-width:1; stroke:black; " description="&lt;b&gt;BVH03_RS16630&lt;/b&gt;&lt;br&gt;cell division protein ZapE&lt;br&gt;Location: 253321 - 254436" locus_tag="BVH03_RS16630" class="clusterblast-orf" id="dummy-1_h1_6_22"  />
</g>
<g id="a1_0023"  >
<polygon points="621,85 626,80 632,80 632,90 626,90 621,85 " style="fill:white; stroke-width:1; stroke:black; " description="&lt;b&gt;BVH03_RS16635&lt;/b&gt;&lt;br&gt;Patatin&lt;br&gt;Location: 254497 - 255681" locus_tag="BVH03_RS16635" class="clusterblast-orf" id="dummy-1_h1_6_23"  />
</g>
<g id="a1_0024"  >
<polygon points="633,85 638,80 641,80 641,90 638,90 633,85 " style="fill:white; stroke-width:1; stroke:black; " description="&lt;b&gt;BVH03_RS16640&lt;/b&gt;&lt;br&gt;lipid A biosynthesis lauroyl acyltransferase&lt;br&gt;Location: 255705 - 256625" locus_tag="BVH03_RS16640" class="clusterblast-orf" id="dummy-1_h1_6_24"  />
</g>
<g id="a1_0025"  >
<polygon points="642,85 644,80 644,90 642,85 " style="fill:white; stroke-width:1; stroke:black; " description="&lt;b&gt;BVH03_RS16645&lt;/b&gt;&lt;br&gt;DUF2218 domain-containing protein&lt;br&gt;Location: 256704 - 256985" locus_tag="BVH03_RS16645" class="clusterblast-orf" id="dummy-1_h1_6_25"  />
</g>
<g id="a1_0026"  >
<polygon points="646,90 652,90 657,85 652,80 646,80 646,90 " style="fill:white; stroke-width:1; stroke:black; " description="&lt;b&gt;BVH03_RS16650&lt;/b&gt;&lt;br&gt;acetyl-CoA C-acyltransferase&lt;br&gt;Location: 257161 - 258342" locus_tag="BVH03_RS16650" class="clusterblast-orf" id="dummy-1_h1_6_26"  />
</g>
<g id="a1_0027"  >
<polygon points="658,90 661,85 658,80 658,90 " style="fill:white; stroke-width:1; stroke:black; " description="&lt;b&gt;BVH03_RS16655&lt;/b&gt;&lt;br&gt;hypothetical protein&lt;br&gt;Location: 258417 - 258722" locus_tag="BVH03_RS16655" class="clusterblast-orf" id="dummy-1_h1_6_27"  />
</g>
<g id="a1_0028"  >
<polygon points="661,85 666,80 666,80 666,90 666,90 661,85 " style="fill:white; stroke-width:1; stroke:black; " description="&lt;b&gt;BVH03_RS16660&lt;/b&gt;&lt;br&gt;TetR/AcrR family transcriptional regulator&lt;br&gt;Location: 258745 - 259350" locus_tag="BVH03_RS16660" class="clusterblast-orf" id="dummy-1_h1_6_28"  />
</g>
<g id="a1_0029"  >
<polygon points="667,90 674,90 679,85 674,80 667,80 667,90 " style="fill:white; stroke-width:1; stroke:black; " description="&lt;b&gt;BVH03_RS16665&lt;/b&gt;&lt;br&gt;MFS transporter&lt;br&gt;Location: 259462 - 260664" locus_tag="BVH03_RS16665" class="clusterblast-orf" id="dummy-1_h1_6_29"  />
</g>
<g id="a1_0030"  >
<polygon points="679,90 681,90 686,85 681,80 679,80 679,90 " style="fill:white; stroke-width:1; stroke:black; " description="&lt;b&gt;BVH03_RS16670&lt;/b&gt;&lt;br&gt;oxidoreductase&lt;br&gt;Location: 260693 - 261406" locus_tag="BVH03_RS16670" class="clusterblast-orf" id="dummy-1_h1_6_30"  />
</g>
<g id="a1_0031"  >
<polygon points="686,85 690,80 690,90 686,85 " style="fill:white; stroke-width:1; stroke:black; " description="&lt;b&gt;BVH03_RS16675&lt;/b&gt;&lt;br&gt;DUF1232 domain-containing protein&lt;br&gt;Location: 261420 - 261851" locus_tag="BVH03_RS16675" class="clusterblast-orf" id="dummy-1_h1_6_31"  />
</g>
<g id="a1_0032"  >
<polygon points="693,85 698,80 700,80 700,90 698,90 693,85 " style="fill:white; stroke-width:1; stroke:black; " description="&lt;b&gt;BVH03_RS16680&lt;/b&gt;&lt;br&gt;FKBP-type peptidyl-prolyl cis-trans isomerase&lt;br&gt;Location: 262195 - 262941" locus_tag="BVH03_RS16680" class="clusterblast-orf" id="dummy-1_h1_6_32"  />
</g>
<g id="a1_0033"  >
<polygon points="702,85 707,80 710,80 710,90 707,90 702,85 " style="fill:#1546d8; stroke-width:1; stroke:black; " description="&lt;b&gt;BVH03_RS16685&lt;/b&gt;&lt;br&gt;hydroxymethylglutaryl-CoA lyase&lt;br&gt;Location: 263177 - 264085&lt;br&gt;&lt;br&gt;&lt;b&gt;BlastP hit with ctg3_27&lt;/b&gt;&lt;br&gt;Percentage identity: 79&lt;br&gt;Percentage coverage: 99&lt;br&gt;BLAST bit score: 468&lt;br&gt;E-value: 5.5e-130" locus_tag="BVH03_RS16685" class="clusterblast-orf" id="dummy-1_h1_6_33"  />
</g>
<g id="a1_0034"  >
<polygon points="710,85 715,80 728,80 728,90 715,90 710,85 " style="fill:#d81515; stroke-width:1; stroke:black; " description="&lt;b&gt;BVH03_RS16690&lt;/b&gt;&lt;br&gt;acetyl/propionyl/methylcrotonyl-CoA carboxylase subunit alpha&lt;br&gt;Location: 264082 - 265977&lt;br&gt;&lt;br&gt;&lt;b&gt;BlastP hit with ctg3_20&lt;/b&gt;&lt;br&gt;Percentage identity: 72&lt;br&gt;Percentage coverage: 94&lt;br&gt;BLAST bit score: 848&lt;br&gt;E-value: 5.5e-244" locus_tag="BVH03_RS16690" class="clusterblast-orf" id="dummy-1_h1_6_34"  />
</g>
<g id="a1_0035"  >
<polygon points="728,85 733,80 735,80 735,90 733,90 728,85 " style="fill:#77d815; stroke-width:1; stroke:black; " description="&lt;b&gt;BVH03_RS16695&lt;/b&gt;&lt;br&gt;gamma-carboxygeranoyl-CoA hydratase&lt;br&gt;Location: 265953 - 266771&lt;br&gt;&lt;br&gt;&lt;b&gt;BlastP hit with ctg3_21&lt;/b&gt;&lt;br&gt;Percentage identity: 70&lt;br&gt;Percentage coverage: 99&lt;br&gt;BLAST bit score: 359&lt;br&gt;E-value: 4.2e-97" locus_tag="BVH03_RS16695" class="clusterblast-orf" id="dummy-1_h1_6_35"  />
</g>
<g id="a1_0036"  >
<polygon points="736,85 741,80 751,80 751,90 741,90 736,85 " style="fill:#15d8d8; stroke-width:1; stroke:black; " description="&lt;b&gt;BVH03_RS16700&lt;/b&gt;&lt;br&gt;methylcrotonoyl-CoA carboxylase&lt;br&gt;Location: 266865 - 268472&lt;br&gt;&lt;br&gt;&lt;b&gt;BlastP hit with ctg3_22&lt;/b&gt;&lt;br&gt;Percentage identity: 85&lt;br&gt;Percentage coverage: 100&lt;br&gt;BLAST bit score: 935&lt;br&gt;E-value: 2.2e-270" locus_tag="BVH03_RS16700" class="clusterblast-orf" id="dummy-1_h1_6_36"  />
</g>
<g id="a1_0037"  >
<polygon points="752,85 757,80 763,80 763,90 757,90 752,85 " style="fill:#7715d8; stroke-width:1; stroke:black; " description="&lt;b&gt;BVH03_RS16705&lt;/b&gt;&lt;br&gt;isovaleryl-CoA dehydrogenase&lt;br&gt;Location: 268554 - 269735&lt;br&gt;&lt;br&gt;&lt;b&gt;BlastP hit with ctg3_23&lt;/b&gt;&lt;br&gt;Percentage identity: 74&lt;br&gt;Percentage coverage: 100&lt;br&gt;BLAST bit score: 576&lt;br&gt;E-value: 1.8e-162" locus_tag="BVH03_RS16705" class="clusterblast-orf" id="dummy-1_h1_6_37"  />
</g>
<g id="a1_0038"  >
<polygon points="763,85 767,80 767,90 763,85 " style="fill:#d815a7; stroke-width:1; stroke:black; " description="&lt;b&gt;BVH03_RS16710&lt;/b&gt;&lt;br&gt;MerR family DNA-binding transcriptional regulator&lt;br&gt;Location: 269785 - 270171&lt;br&gt;&lt;br&gt;&lt;b&gt;BlastP hit with ctg3_28&lt;/b&gt;&lt;br&gt;Percentage identity: 73&lt;br&gt;Percentage coverage: 91&lt;br&gt;BLAST bit score: 173&lt;br&gt;E-value: 1.2e-41" locus_tag="BVH03_RS16710" class="clusterblast-orf" id="dummy-1_h1_6_38"  />
</g>
<g id="a1_0039"  >
<polygon points="768,85 772,80 772,90 768,85 " style="fill:white; stroke-width:1; stroke:black; " description="&lt;b&gt;BVH03_RS16715&lt;/b&gt;&lt;br&gt;phosphotransferase system, HPr-related protein&lt;br&gt;Location: 270301 - 270738" locus_tag="BVH03_RS16715" class="clusterblast-orf" id="dummy-1_h1_6_39"  />
</g>
<g id="a1_0040"  >
<polygon points="773,85 776,80 776,90 773,85 " style="fill:white; stroke-width:1; stroke:black; " description="&lt;b&gt;BVH03_RS16720&lt;/b&gt;&lt;br&gt;thioredoxin&lt;br&gt;Location: 270809 - 271135" locus_tag="BVH03_RS16720" class="clusterblast-orf" id="dummy-1_h1_6_40"  />
</g>
<g id="a1_0041"  >
<polygon points="777,85 780,80 780,90 777,85 " style="fill:white; stroke-width:1; stroke:black; " description="&lt;b&gt;BVH03_RS16725&lt;/b&gt;&lt;br&gt;DUF2892 domain-containing protein&lt;br&gt;Location: 271205 - 271516" locus_tag="BVH03_RS16725" class="clusterblast-orf" id="dummy-1_h1_6_41"  />
</g>
</svg>
