<svg xmlns="http://www.w3.org/2000/svg" xmlns:xlink="http://www.w3.org/1999/xlink" version="1.1" x="0" y="0" height="230" width="800" viewBox="0 0 800 230" preserveAspectRatio="none"  >
<g label="Query sequence" class="clusterblast-cluster"  >
<text x="5" y="20" class="clusterblast-acc"  >
Query sequence</text>
<line x1="10" y1="35" x2="778.0" y2="35" style="stroke-width:1; stroke:grey; "  />
<polygon points="171,40 175,40 180,35 175,30 171,30 171,40 " style="fill:white; stroke-width:1; stroke:black; " description="&lt;b&gt;ctg3_16&lt;/b&gt;&lt;br&gt;ctg3 16&lt;br&gt;Location: 14210 - 14657" locus_tag="ctg3_16" class="clusterblast-orf" id="dummy-1_q0_0_all"  />
<polygon points="180,35 185,30 203,30 203,40 185,40 180,35 " style="fill:white; stroke-width:1; stroke:black; " description="&lt;b&gt;ctg3_17&lt;/b&gt;&lt;br&gt;ctg3 17&lt;br&gt;Location: 14694 - 15846" locus_tag="ctg3_17" class="clusterblast-orf" id="dummy-1_q1_0_all"  />
<polygon points="212,35 217,30 218,30 218,40 217,40 212,35 " style="fill:white; stroke-width:1; stroke:black; " description="&lt;b&gt;ctg3_18&lt;/b&gt;&lt;br&gt;ctg3 18&lt;br&gt;Location: 16328 - 16670" locus_tag="ctg3_18" class="clusterblast-orf" id="dummy-1_q2_0_all"  />
<polygon points="221,40 228,40 233,35 228,30 221,30 221,40 " style="fill:white; stroke-width:1; stroke:black; " description="&lt;b&gt;ctg3_19&lt;/b&gt;&lt;br&gt;ctg3 19&lt;br&gt;Location: 16800 - 17451" locus_tag="ctg3_19" class="clusterblast-orf" id="dummy-1_q3_0_all"  />
<polygon points="234,35 239,30 272,30 272,40 239,40 234,35 " style="fill:#d81515; stroke-width:1; stroke:black; " description="&lt;b&gt;ctg3_20&lt;/b&gt;&lt;br&gt;ctg3 20&lt;br&gt;Location: 17490 - 19440" locus_tag="ctg3_20" class="clusterblast-orf" id="dummy-1_q4_0_all"  />
<polygon points="272,35 277,30 287,30 287,40 277,40 272,35 " style="fill:#77d815; stroke-width:1; stroke:black; " description="&lt;b&gt;ctg3_21&lt;/b&gt;&lt;br&gt;ctg3 21&lt;br&gt;Location: 19439 - 20252" locus_tag="ctg3_21" class="clusterblast-orf" id="dummy-1_q5_0_all"  />
<polygon points="289,35 294,30 320,30 320,40 294,40 289,35 " style="fill:#15d8d8; stroke-width:1; stroke:black; " description="&lt;b&gt;ctg3_22&lt;/b&gt;&lt;br&gt;ctg3 22&lt;br&gt;Location: 20357 - 21965" locus_tag="ctg3_22" class="clusterblast-orf" id="dummy-1_q6_0_all"  />
<polygon points="321,35 326,30 343,30 343,40 326,40 321,35 " style="fill:#7715d8; stroke-width:1; stroke:black; " description="&lt;b&gt;ctg3_23&lt;/b&gt;&lt;br&gt;ctg3 23&lt;br&gt;Location: 21977 - 23141" locus_tag="ctg3_23" class="clusterblast-orf" id="dummy-1_q7_0_all"  />
<polygon points="349,40 377,40 382,35 377,30 349,30 349,40 " style="fill:#d8a715; stroke-width:1; stroke:black; " description="&lt;b&gt;ctg3_24&lt;/b&gt;&lt;br&gt;ctg3 24&lt;br&gt;Location: 23480 - 25178" locus_tag="ctg3_24" class="clusterblast-orf" id="dummy-1_q8_0_all"  />
<polygon points="385,35 390,30 399,30 399,40 390,40 385,35 " style="fill:white; stroke-width:1; stroke:black; " description="&lt;b&gt;ctg3_25&lt;/b&gt;&lt;br&gt;ctg3 25&lt;br&gt;Location: 25316 - 26069" locus_tag="ctg3_25" class="clusterblast-orf" id="dummy-1_q9_0_all"  />
<polygon points="402,35 407,30 419,30 419,40 407,40 402,35 " style="fill:#15d846; stroke-width:1; stroke:black; " description="&lt;b&gt;ctg3_26&lt;/b&gt;&lt;br&gt;ctg3 26&lt;br&gt;Location: 26190 - 27093" locus_tag="ctg3_26" class="clusterblast-orf" id="dummy-1_q10_0_all"  />
<polygon points="431,35 436,30 448,30 448,40 436,40 431,35 " style="fill:#1546d8; stroke-width:1; stroke:black; " description="&lt;b&gt;ctg3_27&lt;/b&gt;&lt;br&gt;ctg3 27&lt;br&gt;Location: 27727 - 28627" locus_tag="ctg3_27" class="clusterblast-orf" id="dummy-1_q11_0_all"  />
<polygon points="451,35 456,30 459,30 459,40 456,40 451,35 " style="fill:#d815a7; stroke-width:1; stroke:black; " description="&lt;b&gt;ctg3_28&lt;/b&gt;&lt;br&gt;ctg3 28&lt;br&gt;Location: 28763 - 29165" locus_tag="ctg3_28" class="clusterblast-orf" id="dummy-1_q12_0_all"  />
<polygon points="463,35 468,30 481,30 481,40 468,40 463,35 " style="fill:white; stroke-width:1; stroke:black; " description="&lt;b&gt;ctg3_29&lt;/b&gt;&lt;br&gt;ctg3 29&lt;br&gt;Location: 29378 - 30308" locus_tag="ctg3_29" class="clusterblast-orf" id="dummy-1_q13_0_all"  />
<polygon points="484,40 502,40 507,35 502,30 484,30 484,40 " style="fill:#7715d8; stroke-width:1; stroke:black; " description="&lt;b&gt;ctg3_30&lt;/b&gt;&lt;br&gt;ctg3 30&lt;br&gt;Location: 30462 - 31692" locus_tag="ctg3_30" class="clusterblast-orf" id="dummy-1_q14_0_all"  />
<polygon points="510,35 515,30 536,30 536,40 515,40 510,35 " style="fill:white; stroke-width:1; stroke:black; " description="&lt;b&gt;ctg3_31&lt;/b&gt;&lt;br&gt;ctg3 31&lt;br&gt;Location: 31846 - 33187" locus_tag="ctg3_31" class="clusterblast-orf" id="dummy-1_q15_0_all"  />
<polygon points="540,35 545,30 555,30 555,40 545,40 540,35 " style="fill:white; stroke-width:1; stroke:black; " description="&lt;b&gt;ctg3_32&lt;/b&gt;&lt;br&gt;ctg3 32&lt;br&gt;Location: 33379 - 34192" locus_tag="ctg3_32" class="clusterblast-orf" id="dummy-1_q16_0_all"  />
<polygon points="561,40 569,40 574,35 569,30 561,30 561,40 " style="fill:white; stroke-width:1; stroke:black; " description="&lt;b&gt;ctg3_33&lt;/b&gt;&lt;br&gt;ctg3 33&lt;br&gt;Location: 34490 - 35141" locus_tag="ctg3_33" class="clusterblast-orf" id="dummy-1_q17_0_all"  />
<polygon points="576,40 603,40 608,35 603,30 576,30 576,40 " style="fill:white; stroke-width:1; stroke:black; " description="&lt;b&gt;ctg3_34&lt;/b&gt;&lt;br&gt;ctg3 34&lt;br&gt;Location: 35242 - 36934" locus_tag="ctg3_34" class="clusterblast-orf" id="dummy-1_q18_0_all"  />
</g>
<g label="NZ_LFBU01000001" description="NZ_LFBU01000001_c1: Marinobacter subterrani strain JG233 contig1, whole genom... (17% of genes show similarity), t3pks" class="clusterblast-cluster"  >
<text x="5" y="70" class="clusterblast-acc"  >
<a xlink:href="https://antismash-db.secondarymetabolites.org/go/NZ_LFBU01000001/1" target="_blank">NZ_LFBU01000001_c1</a>: Marinobacter subterrani strain JG233 contig1, whole genom... (17% of genes show similarity), t3pks</text>
<line x1="10" y1="85" x2="778.0" y2="85" style="stroke-width:1; stroke:grey; "  />
</g>
<g id="a1_000"  >
<polygon points="0,90 1,90 6,85 1,80 0,80 0,90 " style="fill:white; stroke-width:1; stroke:black; " description="&lt;b&gt;msub_RS08685&lt;/b&gt;&lt;br&gt;RidA family protein&lt;br&gt;Location: 1845177 - 1844824" locus_tag="msub_RS08685" class="clusterblast-orf" id="dummy-1_h1_1_0"  />
</g>
<g id="a1_001"  >
<polygon points="9,85 14,80 15,80 15,90 14,90 9,85 " style="fill:white; stroke-width:1; stroke:black; " description="&lt;b&gt;msub_RS08680&lt;/b&gt;&lt;br&gt;hypothetical protein&lt;br&gt;Location: 1844664 - 1844392" locus_tag="msub_RS08680" class="clusterblast-orf" id="dummy-1_h1_1_1"  />
</g>
<g id="a1_002"  >
<polygon points="14,85 19,80 20,80 20,90 19,90 14,85 " style="fill:white; stroke-width:1; stroke:black; " description="&lt;b&gt;msub_RS08675&lt;/b&gt;&lt;br&gt;BrnT family toxin&lt;br&gt;Location: 1844417 - 1844106" locus_tag="msub_RS08675" class="clusterblast-orf" id="dummy-1_h1_1_2"  />
</g>
<g id="a1_003"  >
<polygon points="24,85 29,80 54,80 54,90 29,90 24,85 " style="fill:white; stroke-width:1; stroke:black; " description="&lt;b&gt;msub_RS08670&lt;/b&gt;&lt;br&gt;IS3 family transposase&lt;br&gt;Location: 1843918 - 1842366" locus_tag="msub_RS08670" class="clusterblast-orf" id="dummy-1_h1_1_3"  />
</g>
<g id="a1_004"  >
<polygon points="58,90 58,90 63,85 58,80 58,80 58,90 " style="fill:white; stroke-width:1; stroke:black; " description="&lt;b&gt;msub_RS08660&lt;/b&gt;&lt;br&gt;prevent-host-death family protein&lt;br&gt;Location: 1842123 - 1841866" locus_tag="msub_RS08660" class="clusterblast-orf" id="dummy-1_h1_1_4"  />
</g>
<g id="a1_005"  >
<polygon points="63,90 64,90 69,85 64,80 63,80 63,90 " style="fill:white; stroke-width:1; stroke:black; " description="&lt;b&gt;msub_RS08655&lt;/b&gt;&lt;br&gt;type II toxin-antitoxin system RelE/ParE family toxin&lt;br&gt;Location: 1841878 - 1841576" locus_tag="msub_RS08655" class="clusterblast-orf" id="dummy-1_h1_1_5"  />
</g>
<g id="a1_006"  >
<polygon points="70,90 71,90 76,85 71,80 70,80 70,90 " style="fill:white; stroke-width:1; stroke:black; " description="&lt;b&gt;msub_RS21045&lt;/b&gt;&lt;br&gt;hypothetical protein&lt;br&gt;Location: 1841490 - 1841175" locus_tag="msub_RS21045" class="clusterblast-orf" id="dummy-1_h1_1_6"  />
</g>
<g id="a1_007"  >
<polygon points="76,90 78,85 76,80 76,90 " style="fill:white; stroke-width:1; stroke:black; " description="&lt;b&gt;msub_RS21040&lt;/b&gt;&lt;br&gt;glyoxalase&lt;br&gt;Location: 1841190 - 1841095" locus_tag="msub_RS21040" class="clusterblast-orf" id="dummy-1_h1_1_7"  />
</g>
<g id="a1_008"  >
<polygon points="79,90 92,90 97,85 92,80 79,80 79,90 " style="fill:white; stroke-width:1; stroke:black; " description="&lt;b&gt;msub_RS08650&lt;/b&gt;&lt;br&gt;peptidase&lt;br&gt;Location: 1841066 - 1840131" locus_tag="msub_RS08650" class="clusterblast-orf" id="dummy-1_h1_1_8"  />
</g>
<g id="a1_009"  >
<polygon points="97,85 101,80 101,90 97,85 " style="fill:white; stroke-width:1; stroke:black; " description="&lt;b&gt;msub_RS08645&lt;/b&gt;&lt;br&gt;hypothetical protein&lt;br&gt;Location: 1840125 - 1839916" locus_tag="msub_RS08645" class="clusterblast-orf" id="dummy-1_h1_1_9"  />
</g>
<g id="a1_0010"  >
<polygon points="105,90 109,85 105,80 105,90 " style="fill:white; stroke-width:1; stroke:black; " description="&lt;b&gt;msub_RS08640&lt;/b&gt;&lt;br&gt;hypothetical protein&lt;br&gt;Location: 1839713 - 1839489" locus_tag="msub_RS08640" class="clusterblast-orf" id="dummy-1_h1_1_10"  />
</g>
<g id="a1_0011"  >
<polygon points="109,85 114,80 130,80 130,90 114,90 109,85 " style="fill:white; stroke-width:1; stroke:black; " description="&lt;b&gt;msub_RS08635&lt;/b&gt;&lt;br&gt;taurine dioxygenase&lt;br&gt;Location: 1839463 - 1838387" locus_tag="msub_RS08635" class="clusterblast-orf" id="dummy-1_h1_1_11"  />
</g>
<g id="a1_0012"  >
<polygon points="134,90 147,90 152,85 147,80 134,80 134,90 " style="fill:white; stroke-width:1; stroke:black; " description="&lt;b&gt;msub_RS08630&lt;/b&gt;&lt;br&gt;ABC transporter substrate-binding protein&lt;br&gt;Location: 1838191 - 1837274" locus_tag="msub_RS08630" class="clusterblast-orf" id="dummy-1_h1_1_12"  />
</g>
<g id="a1_0013"  >
<polygon points="152,90 169,90 174,85 169,80 152,80 152,90 " style="fill:white; stroke-width:1; stroke:black; " description="&lt;b&gt;msub_RS08625&lt;/b&gt;&lt;br&gt;ABC transporter permease&lt;br&gt;Location: 1837270 - 1836083" locus_tag="msub_RS08625" class="clusterblast-orf" id="dummy-1_h1_1_13"  />
</g>
<g id="a1_0014"  >
<polygon points="175,90 188,90 193,85 188,80 175,80 175,90 " style="fill:white; stroke-width:1; stroke:black; " description="&lt;b&gt;msub_RS08620&lt;/b&gt;&lt;br&gt;ABC transporter&lt;br&gt;Location: 1836062 - 1835115" locus_tag="msub_RS08620" class="clusterblast-orf" id="dummy-1_h1_1_14"  />
</g>
<g id="a1_0015"  >
<polygon points="193,90 202,90 207,85 202,80 193,80 193,90 " style="fill:white; stroke-width:1; stroke:black; " description="&lt;b&gt;msub_RS08615&lt;/b&gt;&lt;br&gt;ABC transporter permease&lt;br&gt;Location: 1835115 - 1834372" locus_tag="msub_RS08615" class="clusterblast-orf" id="dummy-1_h1_1_15"  />
</g>
<g id="a1_0016"  >
<polygon points="209,90 228,90 233,85 228,80 209,80 209,90 " style="fill:white; stroke-width:1; stroke:black; " description="&lt;b&gt;msub_RS08610&lt;/b&gt;&lt;br&gt;MFS transporter&lt;br&gt;Location: 1834283 - 1833012" locus_tag="msub_RS08610" class="clusterblast-orf" id="dummy-1_h1_1_16"  />
</g>
<g id="a1_0017"  >
<polygon points="234,85 239,80 272,80 272,90 239,90 234,85 " style="fill:white; stroke-width:1; stroke:black; " description="&lt;b&gt;msub_RS08605&lt;/b&gt;&lt;br&gt;hypothetical protein&lt;br&gt;Location: 1832976 - 1830991" locus_tag="msub_RS08605" class="clusterblast-orf" id="dummy-1_h1_1_17"  />
</g>
<g id="a1_0018"  >
<polygon points="275,85 280,80 287,80 287,90 280,90 275,85 " style="fill:white; stroke-width:1; stroke:black; " description="&lt;b&gt;msub_RS08600&lt;/b&gt;&lt;br&gt;membrane protein&lt;br&gt;Location: 1830872 - 1830255" locus_tag="msub_RS08600" class="clusterblast-orf" id="dummy-1_h1_1_18"  />
</g>
<g id="a1_0019"  >
<polygon points="288,85 293,80 302,80 302,90 293,90 288,85 " style="fill:white; stroke-width:1; stroke:black; " description="&lt;b&gt;msub_RS08595&lt;/b&gt;&lt;br&gt;TPM domain-containing protein&lt;br&gt;Location: 1830196 - 1829432" locus_tag="msub_RS08595" class="clusterblast-orf" id="dummy-1_h1_1_19"  />
</g>
<g id="a1_0020"  >
<polygon points="302,85 307,80 314,80 314,90 307,90 302,85 " style="fill:white; stroke-width:1; stroke:black; " description="&lt;b&gt;msub_RS08590&lt;/b&gt;&lt;br&gt;LemA family protein&lt;br&gt;Location: 1829432 - 1828815" locus_tag="msub_RS08590" class="clusterblast-orf" id="dummy-1_h1_1_20"  />
</g>
<g id="a1_0021"  >
<polygon points="316,85 321,80 336,80 336,90 321,90 316,85 " style="fill:white; stroke-width:1; stroke:black; " description="&lt;b&gt;msub_RS08585&lt;/b&gt;&lt;br&gt;hypothetical protein&lt;br&gt;Location: 1828701 - 1827664" locus_tag="msub_RS08585" class="clusterblast-orf" id="dummy-1_h1_1_21"  />
</g>
<g id="a1_0022"  >
<polygon points="338,85 343,80 361,80 361,90 343,90 338,85 " style="fill:white; stroke-width:1; stroke:black; " description="&lt;b&gt;msub_RS08580&lt;/b&gt;&lt;br&gt;hypothetical protein&lt;br&gt;Location: 1827567 - 1826392" locus_tag="msub_RS08580" class="clusterblast-orf" id="dummy-1_h1_1_22"  />
</g>
<g id="a1_0023"  >
<polygon points="361,85 366,80 374,80 374,90 366,90 361,85 " style="fill:white; stroke-width:1; stroke:black; " description="&lt;b&gt;msub_RS08575&lt;/b&gt;&lt;br&gt;methyltransferase domain-containing protein&lt;br&gt;Location: 1826386 - 1825685" locus_tag="msub_RS08575" class="clusterblast-orf" id="dummy-1_h1_1_23"  />
</g>
<g id="a1_0024"  >
<polygon points="375,85 380,80 396,80 396,90 380,90 375,85 " style="fill:white; stroke-width:1; stroke:black; " description="&lt;b&gt;msub_RS08570&lt;/b&gt;&lt;br&gt;type III polyketide synthase&lt;br&gt;Location: 1825680 - 1824568" locus_tag="msub_RS08570" class="clusterblast-orf" id="dummy-1_h1_1_24"  />
</g>
<g id="a1_0025"  >
<polygon points="398,90 398,90 403,85 398,80 398,80 398,90 " style="fill:white; stroke-width:1; stroke:black; " description="&lt;b&gt;msub_RS08565&lt;/b&gt;&lt;br&gt;hypothetical protein&lt;br&gt;Location: 1824447 - 1824181" locus_tag="msub_RS08565" class="clusterblast-orf" id="dummy-1_h1_1_25"  />
</g>
<g id="a1_0026"  >
<polygon points="407,90 408,90 413,85 408,80 407,80 407,90 " style="fill:white; stroke-width:1; stroke:black; " description="&lt;b&gt;msub_RS08560&lt;/b&gt;&lt;br&gt;DksA/TraR family C4-type zinc finger protein&lt;br&gt;Location: 1823969 - 1823703" locus_tag="msub_RS08560" class="clusterblast-orf" id="dummy-1_h1_1_26"  />
</g>
<g id="a1_0027"  >
<polygon points="415,90 417,90 422,85 417,80 415,80 415,90 " style="fill:white; stroke-width:1; stroke:black; " description="&lt;b&gt;msub_RS08555&lt;/b&gt;&lt;br&gt;nuclear transport factor 2 family protein&lt;br&gt;Location: 1823563 - 1823186" locus_tag="msub_RS08555" class="clusterblast-orf" id="dummy-1_h1_1_27"  />
</g>
<g id="a1_0028"  >
<polygon points="425,85 430,80 430,80 430,90 430,90 425,85 " style="fill:white; stroke-width:1; stroke:black; " description="&lt;b&gt;msub_RS21035&lt;/b&gt;&lt;br&gt;hypothetical protein&lt;br&gt;Location: 1823060 - 1822818" locus_tag="msub_RS21035" class="clusterblast-orf" id="dummy-1_h1_1_28"  />
</g>
<g id="a1_0029"  >
<polygon points="432,85 437,80 450,80 450,90 437,90 432,85 " style="fill:white; stroke-width:1; stroke:black; " description="&lt;b&gt;msub_RS08550&lt;/b&gt;&lt;br&gt;serine protease&lt;br&gt;Location: 1822677 - 1821732" locus_tag="msub_RS08550" class="clusterblast-orf" id="dummy-1_h1_1_29"  />
</g>
<g id="a1_0030"  >
<polygon points="458,90 469,90 474,85 469,80 458,80 458,90 " style="fill:white; stroke-width:1; stroke:black; " description="&lt;b&gt;msub_RS08545&lt;/b&gt;&lt;br&gt;DUF2914 domain-containing protein&lt;br&gt;Location: 1821354 - 1820533" locus_tag="msub_RS08545" class="clusterblast-orf" id="dummy-1_h1_1_30"  />
</g>
<g id="a1_0031"  >
<polygon points="477,85 482,80 483,80 483,90 482,90 477,85 " style="fill:white; stroke-width:1; stroke:black; " description="&lt;b&gt;msub_RS08540&lt;/b&gt;&lt;br&gt;addiction module antidote protein, HigA family&lt;br&gt;Location: 1820331 - 1820038" locus_tag="msub_RS08540" class="clusterblast-orf" id="dummy-1_h1_1_31"  />
</g>
<g id="a1_0032"  >
<polygon points="483,85 488,80 488,80 488,90 488,90 483,85 " style="fill:white; stroke-width:1; stroke:black; " description="&lt;b&gt;msub_RS08535&lt;/b&gt;&lt;br&gt;Killer protein&lt;br&gt;Location: 1820038 - 1819760" locus_tag="msub_RS08535" class="clusterblast-orf" id="dummy-1_h1_1_32"  />
</g>
<g id="a1_0033"  >
<polygon points="492,85 497,80 525,80 525,90 497,90 492,85 " style="fill:#d8a715; stroke-width:1; stroke:black; " description="&lt;b&gt;msub_RS08530&lt;/b&gt;&lt;br&gt;AMP-binding protein&lt;br&gt;Location: 1819574 - 1817874&lt;br&gt;&lt;br&gt;&lt;b&gt;BlastP hit with ctg3_24&lt;/b&gt;&lt;br&gt;Percentage identity: 61&lt;br&gt;Percentage coverage: 99&lt;br&gt;BLAST bit score: 711&lt;br&gt;E-value: 9.2e-203" locus_tag="msub_RS08530" class="clusterblast-orf" id="dummy-1_h1_1_33"  />
</g>
<g id="a1_0034"  >
<polygon points="526,85 531,80 537,80 537,90 531,90 526,85 " style="fill:white; stroke-width:1; stroke:black; " description="&lt;b&gt;msub_RS08525&lt;/b&gt;&lt;br&gt;alkylhydroperoxidase&lt;br&gt;Location: 1817823 - 1817245" locus_tag="msub_RS08525" class="clusterblast-orf" id="dummy-1_h1_1_34"  />
</g>
<g id="a1_0035"  >
<polygon points="540,85 545,80 557,80 557,90 545,90 540,85 " style="fill:#1546d8; stroke-width:1; stroke:black; " description="&lt;b&gt;msub_RS08520&lt;/b&gt;&lt;br&gt;hydroxymethylglutaryl-CoA lyase&lt;br&gt;Location: 1817099 - 1816191&lt;br&gt;&lt;br&gt;&lt;b&gt;BlastP hit with ctg3_27&lt;/b&gt;&lt;br&gt;Percentage identity: 66&lt;br&gt;Percentage coverage: 99&lt;br&gt;BLAST bit score: 395&lt;br&gt;E-value: 4.5e-108" locus_tag="msub_RS08520" class="clusterblast-orf" id="dummy-1_h1_1_35"  />
</g>
<g id="a1_0036"  >
<polygon points="557,85 562,80 595,80 595,90 562,90 557,85 " style="fill:#d81515; stroke-width:1; stroke:black; " description="&lt;b&gt;msub_RS08515&lt;/b&gt;&lt;br&gt;acetyl/propionyl/methylcrotonyl-CoA carboxylase subunit alpha&lt;br&gt;Location: 1816191 - 1814197&lt;br&gt;&lt;br&gt;&lt;b&gt;BlastP hit with ctg3_20&lt;/b&gt;&lt;br&gt;Percentage identity: 50&lt;br&gt;Percentage coverage: 96&lt;br&gt;BLAST bit score: 560&lt;br&gt;E-value: 3e-157" locus_tag="msub_RS08515" class="clusterblast-orf" id="dummy-1_h1_1_36"  />
</g>
<g id="a1_0037"  >
<polygon points="595,85 600,80 611,80 611,90 600,90 595,85 " style="fill:#77d815; stroke-width:1; stroke:black; " description="&lt;b&gt;msub_RS08510&lt;/b&gt;&lt;br&gt;gamma-carboxygeranoyl-CoA hydratase&lt;br&gt;Location: 1814195 - 1813389&lt;br&gt;&lt;br&gt;&lt;b&gt;BlastP hit with ctg3_21&lt;/b&gt;&lt;br&gt;Percentage identity: 47&lt;br&gt;Percentage coverage: 97&lt;br&gt;BLAST bit score: 230&lt;br&gt;E-value: 2.3e-58" locus_tag="msub_RS08510" class="clusterblast-orf" id="dummy-1_h1_1_37"  />
</g>
<g id="a1_0038"  >
<polygon points="611,85 616,80 642,80 642,90 616,90 611,85 " style="fill:#15d8d8; stroke-width:1; stroke:black; " description="&lt;b&gt;msub_RS08505&lt;/b&gt;&lt;br&gt;methylcrotonoyl-CoA carboxylase&lt;br&gt;Location: 1813374 - 1811767&lt;br&gt;&lt;br&gt;&lt;b&gt;BlastP hit with ctg3_22&lt;/b&gt;&lt;br&gt;Percentage identity: 76&lt;br&gt;Percentage coverage: 100&lt;br&gt;BLAST bit score: 841&lt;br&gt;E-value: 5.6e-242" locus_tag="msub_RS08505" class="clusterblast-orf" id="dummy-1_h1_1_38"  />
</g>
<g id="a1_0039"  >
<polygon points="646,85 651,80 669,80 669,90 651,90 646,85 " style="fill:#7715d8; stroke-width:1; stroke:black; " description="&lt;b&gt;msub_RS08500&lt;/b&gt;&lt;br&gt;isovaleryl-CoA dehydrogenase&lt;br&gt;Location: 1811559 - 1810390&lt;br&gt;&lt;br&gt;&lt;b&gt;BlastP hit with ctg3_23&lt;/b&gt;&lt;br&gt;Percentage identity: 76&lt;br&gt;Percentage coverage: 99&lt;br&gt;BLAST bit score: 602&lt;br&gt;E-value: 3.1e-170" locus_tag="msub_RS08500" class="clusterblast-orf" id="dummy-1_h1_1_39"  />
</g>
<g id="a1_0040"  >
<polygon points="669,85 674,80 678,80 678,90 674,90 669,85 " style="fill:#d815a7; stroke-width:1; stroke:black; " description="&lt;b&gt;msub_RS08495&lt;/b&gt;&lt;br&gt;MerR family transcriptional regulator&lt;br&gt;Location: 1810363 - 1809920&lt;br&gt;&lt;br&gt;&lt;b&gt;BlastP hit with ctg3_28&lt;/b&gt;&lt;br&gt;Percentage identity: 55&lt;br&gt;Percentage coverage: 98&lt;br&gt;BLAST bit score: 137&lt;br&gt;E-value: 9.8e-31" locus_tag="msub_RS08495" class="clusterblast-orf" id="dummy-1_h1_1_40"  />
</g>
<g id="a1_0041"  >
<polygon points="680,90 689,90 694,85 689,80 680,80 680,90 " style="fill:white; stroke-width:1; stroke:black; " description="&lt;b&gt;msub_RS08490&lt;/b&gt;&lt;br&gt;3-hydroxy-2-methylbutyryl-CoA dehydrogenase&lt;br&gt;Location: 1809815 - 1809054" locus_tag="msub_RS08490" class="clusterblast-orf" id="dummy-1_h1_1_41"  />
</g>
<g id="a1_0042"  >
<polygon points="695,90 712,90 717,85 712,80 695,80 695,90 " style="fill:#7715d8; stroke-width:1; stroke:black; " description="&lt;b&gt;msub_RS08485&lt;/b&gt;&lt;br&gt;acyl-CoA dehydrogenase&lt;br&gt;Location: 1809029 - 1807878&lt;br&gt;&lt;br&gt;&lt;b&gt;BlastP hit with ctg3_23&lt;/b&gt;&lt;br&gt;Percentage identity: 35&lt;br&gt;Percentage coverage: 97&lt;br&gt;BLAST bit score: 253&lt;br&gt;E-value: 2.7e-65" locus_tag="msub_RS08485" class="clusterblast-orf" id="dummy-1_h1_1_42"  />
</g>
<g id="a1_0043"  >
<polygon points="720,90 738,90 743,85 738,80 720,80 720,90 " style="fill:white; stroke-width:1; stroke:black; " description="&lt;b&gt;msub_RS08480&lt;/b&gt;&lt;br&gt;acetyl-CoA C-acyltransferase&lt;br&gt;Location: 1807715 - 1806534" locus_tag="msub_RS08480" class="clusterblast-orf" id="dummy-1_h1_1_43"  />
</g>
<g id="a1_0044"  >
<polygon points="754,90 774,90 779,85 774,80 754,80 754,90 " style="fill:white; stroke-width:1; stroke:black; " description="&lt;b&gt;msub_RS08475&lt;/b&gt;&lt;br&gt;UDP-glucose/GDP-mannose dehydrogenase family protein&lt;br&gt;Location: 1805935 - 1804625" locus_tag="msub_RS08475" class="clusterblast-orf" id="dummy-1_h1_1_44"  />
</g>
</svg>
