<svg xmlns="http://www.w3.org/2000/svg" xmlns:xlink="http://www.w3.org/1999/xlink" version="1.1" x="0" y="0" height="230" width="800" viewBox="0 0 800 230" preserveAspectRatio="none"  >
<g label="Query sequence" class="clusterblast-cluster"  >
<text x="5" y="20" class="clusterblast-acc"  >
Query sequence</text>
<line x1="10" y1="35" x2="778.0" y2="35" style="stroke-width:1; stroke:grey; "  />
<polygon points="98,40 321,40 326,35 321,30 98,30 98,40 " style="fill:#d81515; stroke-width:1; stroke:black; " description="&lt;b&gt;ctg4_577&lt;/b&gt;&lt;br&gt;ctg4 577&lt;br&gt;Location: 680926 - 689050" locus_tag="ctg4_577" class="clusterblast-orf" id="dummy-2_q0_0_all"  />
<polygon points="330,40 335,40 340,35 335,30 330,30 330,40 " style="fill:#3cd815; stroke-width:1; stroke:black; " description="&lt;b&gt;ctg4_578&lt;/b&gt;&lt;br&gt;ctg4 578&lt;br&gt;Location: 689198 - 689537" locus_tag="ctg4_578" class="clusterblast-orf" id="dummy-2_q1_0_all"  />
<polygon points="343,35 348,30 398,30 398,40 348,40 343,35 " style="fill:#1563d8; stroke-width:1; stroke:black; " description="&lt;b&gt;ctg4_579&lt;/b&gt;&lt;br&gt;ctg4 579&lt;br&gt;Location: 689672 - 691619" locus_tag="ctg4_579" class="clusterblast-orf" id="dummy-2_q2_0_all"  />
<polygon points="398,35 403,30 418,30 418,40 403,40 398,35 " style="fill:#b115d8; stroke-width:1; stroke:black; " description="&lt;b&gt;ctg4_580&lt;/b&gt;&lt;br&gt;ctg4 580&lt;br&gt;Location: 691633 - 692326" locus_tag="ctg4_580" class="clusterblast-orf" id="dummy-2_q3_0_all"  />
<polygon points="425,40 440,40 445,35 440,30 425,30 425,40 " style="fill:#d88a15; stroke-width:1; stroke:black; " description="&lt;b&gt;ctg4_581&lt;/b&gt;&lt;br&gt;ctg4 581&lt;br&gt;Location: 692593 - 693304" locus_tag="ctg4_581" class="clusterblast-orf" id="dummy-2_q4_0_all"  />
<polygon points="467,40 484,40 489,35 484,30 467,30 467,40 " style="fill:#15d863; stroke-width:1; stroke:black; " description="&lt;b&gt;ctg4_582&lt;/b&gt;&lt;br&gt;ctg4 582&lt;br&gt;Location: 694088 - 694865" locus_tag="ctg4_582" class="clusterblast-orf" id="dummy-2_q5_0_all"  />
<polygon points="489,40 510,40 515,35 510,30 489,30 489,40 " style="fill:#3c15d8; stroke-width:1; stroke:black; " description="&lt;b&gt;ctg4_583&lt;/b&gt;&lt;br&gt;ctg4 583&lt;br&gt;Location: 694861 - 695791" locus_tag="ctg4_583" class="clusterblast-orf" id="dummy-2_q6_0_all"  />
<polygon points="515,40 606,40 611,35 606,30 515,30 515,40 " style="fill:#d8158a; stroke-width:1; stroke:black; " description="&lt;b&gt;ctg4_584&lt;/b&gt;&lt;br&gt;ctg4 584&lt;br&gt;Location: 695804 - 699215" locus_tag="ctg4_584" class="clusterblast-orf" id="dummy-2_q7_0_all"  />
<polygon points="612,40 620,40 625,35 620,30 612,30 612,40 " style="fill:#b1d815; stroke-width:1; stroke:black; " description="&lt;b&gt;ctg4_585&lt;/b&gt;&lt;br&gt;ctg4 585&lt;br&gt;Location: 699237 - 699705" locus_tag="ctg4_585" class="clusterblast-orf" id="dummy-2_q8_0_all"  />
<polygon points="629,35 634,30 682,30 682,40 634,40 629,35 " style="fill:#15d8d8; stroke-width:1; stroke:black; " description="&lt;b&gt;ctg4_586&lt;/b&gt;&lt;br&gt;ctg4 586&lt;br&gt;Location: 699851 - 701732" locus_tag="ctg4_586" class="clusterblast-orf" id="dummy-2_q9_0_all"  />
</g>
<g label="NZ_LMQZ01000002" description="NZ_LMQZ01000002_c4: Pseudomonas sp. Leaf434 contig 10, whole genome shotgun s... (71% of genes show similarity), other" class="clusterblast-cluster"  >
<text x="5" y="70" class="clusterblast-acc"  >
<a xlink:href="https://antismash-db.secondarymetabolites.org/go/NZ_LMQZ01000002/4" target="_blank">NZ_LMQZ01000002_c4</a>: Pseudomonas sp. Leaf434 contig 10, whole genome shotgun s... (71% of genes show similarity), other</text>
<line x1="10" y1="85" x2="778.0" y2="85" style="stroke-width:1; stroke:grey; "  />
</g>
<g id="a2_000"  >
<polygon points="0,90 263,90 268,85 263,80 0,80 0,90 " style="fill:#d81515; stroke-width:1; stroke:black; " description="&lt;b&gt;ASG55_RS12075&lt;/b&gt;&lt;br&gt;large adhesive protein&lt;br&gt;Location: 31083 - 21499&lt;br&gt;&lt;br&gt;&lt;b&gt;BlastP hit with ctg4_577&lt;/b&gt;&lt;br&gt;Percentage identity: 59&lt;br&gt;Percentage coverage: 107&lt;br&gt;BLAST bit score: 2564&lt;br&gt;E-value: 0.0" locus_tag="ASG55_RS12075" class="clusterblast-orf" id="dummy-2_h2_8_0"  />
</g>
<g id="a2_001"  >
<polygon points="273,90 277,90 282,85 277,80 273,80 273,90 " style="fill:#3cd815; stroke-width:1; stroke:black; " description="&lt;b&gt;ASG55_RS12070&lt;/b&gt;&lt;br&gt;hypothetical protein&lt;br&gt;Location: 21349 - 21011&lt;br&gt;&lt;br&gt;&lt;b&gt;BlastP hit with ctg4_578&lt;/b&gt;&lt;br&gt;Percentage identity: 92&lt;br&gt;Percentage coverage: 100&lt;br&gt;BLAST bit score: 198&lt;br&gt;E-value: 4e-49" locus_tag="ASG55_RS12070" class="clusterblast-orf" id="dummy-2_h2_8_1"  />
</g>
<g id="a2_002"  >
<polygon points="288,85 293,80 343,80 343,90 293,90 288,85 " style="fill:#1563d8; stroke-width:1; stroke:black; " description="&lt;b&gt;ASG55_RS12065&lt;/b&gt;&lt;br&gt;GGDEF domain-containing protein&lt;br&gt;Location: 20801 - 18855&lt;br&gt;&lt;br&gt;&lt;b&gt;BlastP hit with ctg4_579&lt;/b&gt;&lt;br&gt;Percentage identity: 93&lt;br&gt;Percentage coverage: 100&lt;br&gt;BLAST bit score: 1160&lt;br&gt;E-value: 0.0" locus_tag="ASG55_RS12065" class="clusterblast-orf" id="dummy-2_h2_8_2"  />
</g>
<g id="a2_003"  >
<polygon points="343,85 348,80 362,80 362,90 348,90 343,85 " style="fill:#b115d8; stroke-width:1; stroke:black; " description="&lt;b&gt;ASG55_RS12060&lt;/b&gt;&lt;br&gt;hypothetical protein&lt;br&gt;Location: 18840 - 18148&lt;br&gt;&lt;br&gt;&lt;b&gt;BlastP hit with ctg4_580&lt;/b&gt;&lt;br&gt;Percentage identity: 90&lt;br&gt;Percentage coverage: 100&lt;br&gt;BLAST bit score: 423&lt;br&gt;E-value: 1.6e-116" locus_tag="ASG55_RS12060" class="clusterblast-orf" id="dummy-2_h2_8_3"  />
</g>
<g id="a2_004"  >
<polygon points="368,90 383,90 388,85 383,80 368,80 368,90 " style="fill:#d88a15; stroke-width:1; stroke:black; " description="&lt;b&gt;ASG55_RS12055&lt;/b&gt;&lt;br&gt;GntR family transcriptional regulator&lt;br&gt;Location: 17951 - 17241&lt;br&gt;&lt;br&gt;&lt;b&gt;BlastP hit with ctg4_581&lt;/b&gt;&lt;br&gt;Percentage identity: 80&lt;br&gt;Percentage coverage: 100&lt;br&gt;BLAST bit score: 369&lt;br&gt;E-value: 2.1e-100" locus_tag="ASG55_RS12055" class="clusterblast-orf" id="dummy-2_h2_8_4"  />
</g>
<g id="a2_005"  >
<polygon points="408,90 424,90 429,85 424,80 408,80 408,90 " style="fill:#15d863; stroke-width:1; stroke:black; " description="&lt;b&gt;ASG55_RS12050&lt;/b&gt;&lt;br&gt;DUF3050 domain-containing protein&lt;br&gt;Location: 16540 - 15764&lt;br&gt;&lt;br&gt;&lt;b&gt;BlastP hit with ctg4_582&lt;/b&gt;&lt;br&gt;Percentage identity: 84&lt;br&gt;Percentage coverage: 100&lt;br&gt;BLAST bit score: 435&lt;br&gt;E-value: 5.8e-120" locus_tag="ASG55_RS12050" class="clusterblast-orf" id="dummy-2_h2_8_5"  />
</g>
<g id="a2_006"  >
<polygon points="429,90 450,90 455,85 450,80 429,80 429,90 " style="fill:#3c15d8; stroke-width:1; stroke:black; " description="&lt;b&gt;ASG55_RS12045&lt;/b&gt;&lt;br&gt;aminobenzoate oxygenase&lt;br&gt;Location: 15767 - 14838&lt;br&gt;&lt;br&gt;&lt;b&gt;BlastP hit with ctg4_583&lt;/b&gt;&lt;br&gt;Percentage identity: 89&lt;br&gt;Percentage coverage: 100&lt;br&gt;BLAST bit score: 555&lt;br&gt;E-value: 4.6e-156" locus_tag="ASG55_RS12045" class="clusterblast-orf" id="dummy-2_h2_8_6"  />
</g>
<g id="a2_007"  >
<polygon points="456,90 546,90 551,85 546,80 456,80 456,90 " style="fill:#d8158a; stroke-width:1; stroke:black; " description="&lt;b&gt;ASG55_RS12040&lt;/b&gt;&lt;br&gt;peptide transporter&lt;br&gt;Location: 14827 - 11435&lt;br&gt;&lt;br&gt;&lt;b&gt;BlastP hit with ctg4_584&lt;/b&gt;&lt;br&gt;Percentage identity: 78&lt;br&gt;Percentage coverage: 100&lt;br&gt;BLAST bit score: 1762&lt;br&gt;E-value: 0.0" locus_tag="ASG55_RS12040" class="clusterblast-orf" id="dummy-2_h2_8_7"  />
</g>
<g id="a2_008"  >
<polygon points="551,90 559,90 564,85 559,80 551,80 551,90 " style="fill:#b1d815; stroke-width:1; stroke:black; " description="&lt;b&gt;ASG55_RS12035&lt;/b&gt;&lt;br&gt;SRPBCC family protein&lt;br&gt;Location: 11412 - 10945&lt;br&gt;&lt;br&gt;&lt;b&gt;BlastP hit with ctg4_585&lt;/b&gt;&lt;br&gt;Percentage identity: 86&lt;br&gt;Percentage coverage: 99&lt;br&gt;BLAST bit score: 273&lt;br&gt;E-value: 1.3e-71" locus_tag="ASG55_RS12035" class="clusterblast-orf" id="dummy-2_h2_8_8"  />
</g>
<g id="a2_009"  >
<polygon points="568,85 573,80 621,80 621,90 573,90 568,85 " style="fill:#15d8d8; stroke-width:1; stroke:black; " description="&lt;b&gt;ASG55_RS12030&lt;/b&gt;&lt;br&gt;methyl-accepting chemotaxis protein&lt;br&gt;Location: 10817 - 8937&lt;br&gt;&lt;br&gt;&lt;b&gt;BlastP hit with ctg4_586&lt;/b&gt;&lt;br&gt;Percentage identity: 91&lt;br&gt;Percentage coverage: 100&lt;br&gt;BLAST bit score: 920&lt;br&gt;E-value: 1.1e-265" locus_tag="ASG55_RS12030" class="clusterblast-orf" id="dummy-2_h2_8_9"  />
</g>
<g id="a2_0010"  >
<polygon points="630,90 639,90 644,85 639,80 630,80 630,90 " style="fill:white; stroke-width:1; stroke:black; " description="&lt;b&gt;ASG55_RS12025&lt;/b&gt;&lt;br&gt;RNA polymerase sigma factor&lt;br&gt;Location: 8625 - 8125" locus_tag="ASG55_RS12025" class="clusterblast-orf" id="dummy-2_h2_8_10"  />
</g>
<g id="a2_0011"  >
<polygon points="644,90 667,90 672,85 667,80 644,80 644,90 " style="fill:white; stroke-width:1; stroke:black; " description="&lt;b&gt;ASG55_RS12020&lt;/b&gt;&lt;br&gt;peptide ABC transporter substrate-binding protein&lt;br&gt;Location: 8125 - 7124" locus_tag="ASG55_RS12020" class="clusterblast-orf" id="dummy-2_h2_8_11"  />
</g>
<g id="a2_0012"  >
<polygon points="674,90 739,90 744,85 739,80 674,80 674,90 " style="fill:white; stroke-width:1; stroke:black; " description="&lt;b&gt;ASG55_RS12015&lt;/b&gt;&lt;br&gt;TonB-dependent siderophore receptor&lt;br&gt;Location: 7036 - 4535" locus_tag="ASG55_RS12015" class="clusterblast-orf" id="dummy-2_h2_8_12"  />
</g>
<g id="a2_0013"  >
<polygon points="746,90 775,90 780,85 775,80 746,80 746,90 " style="fill:white; stroke-width:1; stroke:black; " description="&lt;b&gt;ASG55_RS12010&lt;/b&gt;&lt;br&gt;PepSY domain-containing protein&lt;br&gt;Location: 4459 - 3281" locus_tag="ASG55_RS12010" class="clusterblast-orf" id="dummy-2_h2_8_13"  />
</g>
</svg>
