<svg xmlns="http://www.w3.org/2000/svg" xmlns:xlink="http://www.w3.org/1999/xlink" version="1.1" x="0" y="0" height="230" width="800" viewBox="0 0 800 230" preserveAspectRatio="none"  >
<g label="Query sequence" class="clusterblast-cluster"  >
<text x="5" y="20" class="clusterblast-acc"  >
Query sequence</text>
<line x1="10" y1="35" x2="778.0" y2="35" style="stroke-width:1; stroke:grey; "  />
<polygon points="65,40 314,40 319,35 314,30 65,30 65,40 " style="fill:#d81515; stroke-width:1; stroke:black; " description="&lt;b&gt;ctg4_577&lt;/b&gt;&lt;br&gt;ctg4 577&lt;br&gt;Location: 680926 - 689050" locus_tag="ctg4_577" class="clusterblast-orf" id="dummy-2_q0_0_all"  />
<polygon points="323,40 329,40 334,35 329,30 323,30 323,40 " style="fill:#3cd815; stroke-width:1; stroke:black; " description="&lt;b&gt;ctg4_578&lt;/b&gt;&lt;br&gt;ctg4 578&lt;br&gt;Location: 689198 - 689537" locus_tag="ctg4_578" class="clusterblast-orf" id="dummy-2_q1_0_all"  />
<polygon points="338,35 343,30 399,30 399,40 343,40 338,35 " style="fill:#1563d8; stroke-width:1; stroke:black; " description="&lt;b&gt;ctg4_579&lt;/b&gt;&lt;br&gt;ctg4 579&lt;br&gt;Location: 689672 - 691619" locus_tag="ctg4_579" class="clusterblast-orf" id="dummy-2_q2_0_all"  />
<polygon points="399,35 404,30 421,30 421,40 404,40 399,35 " style="fill:#b115d8; stroke-width:1; stroke:black; " description="&lt;b&gt;ctg4_580&lt;/b&gt;&lt;br&gt;ctg4 580&lt;br&gt;Location: 691633 - 692326" locus_tag="ctg4_580" class="clusterblast-orf" id="dummy-2_q3_0_all"  />
<polygon points="429,40 446,40 451,35 446,30 429,30 429,40 " style="fill:#d88a15; stroke-width:1; stroke:black; " description="&lt;b&gt;ctg4_581&lt;/b&gt;&lt;br&gt;ctg4 581&lt;br&gt;Location: 692593 - 693304" locus_tag="ctg4_581" class="clusterblast-orf" id="dummy-2_q4_0_all"  />
<polygon points="476,40 495,40 500,35 495,30 476,30 476,40 " style="fill:#15d863; stroke-width:1; stroke:black; " description="&lt;b&gt;ctg4_582&lt;/b&gt;&lt;br&gt;ctg4 582&lt;br&gt;Location: 694088 - 694865" locus_tag="ctg4_582" class="clusterblast-orf" id="dummy-2_q5_0_all"  />
<polygon points="500,40 524,40 529,35 524,30 500,30 500,40 " style="fill:#3c15d8; stroke-width:1; stroke:black; " description="&lt;b&gt;ctg4_583&lt;/b&gt;&lt;br&gt;ctg4 583&lt;br&gt;Location: 694861 - 695791" locus_tag="ctg4_583" class="clusterblast-orf" id="dummy-2_q6_0_all"  />
<polygon points="529,40 631,40 636,35 631,30 529,30 529,40 " style="fill:#d8158a; stroke-width:1; stroke:black; " description="&lt;b&gt;ctg4_584&lt;/b&gt;&lt;br&gt;ctg4 584&lt;br&gt;Location: 695804 - 699215" locus_tag="ctg4_584" class="clusterblast-orf" id="dummy-2_q7_0_all"  />
<polygon points="636,40 646,40 651,35 646,30 636,30 636,40 " style="fill:#b1d815; stroke-width:1; stroke:black; " description="&lt;b&gt;ctg4_585&lt;/b&gt;&lt;br&gt;ctg4 585&lt;br&gt;Location: 699237 - 699705" locus_tag="ctg4_585" class="clusterblast-orf" id="dummy-2_q8_0_all"  />
<polygon points="656,35 661,30 714,30 714,40 661,40 656,35 " style="fill:#15d8d8; stroke-width:1; stroke:black; " description="&lt;b&gt;ctg4_586&lt;/b&gt;&lt;br&gt;ctg4 586&lt;br&gt;Location: 699851 - 701732" locus_tag="ctg4_586" class="clusterblast-orf" id="dummy-2_q9_0_all"  />
</g>
<g label="NZ_FOYE01000004" description="NZ_FOYE01000004_c5: Pseudomonas sp. NFIX49, whole genome shotgun sequence (71% of genes show similarity), other" class="clusterblast-cluster"  >
<text x="5" y="70" class="clusterblast-acc"  >
<a xlink:href="https://antismash-db.secondarymetabolites.org/go/NZ_FOYE01000004/5" target="_blank">NZ_FOYE01000004_c5</a>: Pseudomonas sp. NFIX49, whole genome shotgun sequence (71% of genes show similarity), other</text>
<line x1="10" y1="85" x2="778.0" y2="85" style="stroke-width:1; stroke:grey; "  />
</g>
<g id="a2_000"  >
<polygon points="0,90 208,90 213,85 208,80 0,80 0,90 " style="fill:#d81515; stroke-width:1; stroke:black; " description="&lt;b&gt;BMZ46_RS12075&lt;/b&gt;&lt;br&gt;type I secretion C-terminal target domain-containing protein&lt;br&gt;Location: 25172 - 18315&lt;br&gt;&lt;br&gt;&lt;b&gt;BlastP hit with ctg4_577&lt;/b&gt;&lt;br&gt;Percentage identity: 79&lt;br&gt;Percentage coverage: 84&lt;br&gt;BLAST bit score: 2943&lt;br&gt;E-value: 0.0" locus_tag="BMZ46_RS12075" class="clusterblast-orf" id="dummy-2_h2_4_0"  />
</g>
<g id="a2_001"  >
<polygon points="218,90 224,90 229,85 224,80 218,80 218,90 " style="fill:#3cd815; stroke-width:1; stroke:black; " description="&lt;b&gt;BMZ46_RS12070&lt;/b&gt;&lt;br&gt;hypothetical protein&lt;br&gt;Location: 18168 - 17830&lt;br&gt;&lt;br&gt;&lt;b&gt;BlastP hit with ctg4_578&lt;/b&gt;&lt;br&gt;Percentage identity: 91&lt;br&gt;Percentage coverage: 100&lt;br&gt;BLAST bit score: 196&lt;br&gt;E-value: 2e-48" locus_tag="BMZ46_RS12070" class="clusterblast-orf" id="dummy-2_h2_4_1"  />
</g>
<g id="a2_002"  >
<polygon points="234,85 239,80 294,80 294,90 239,90 234,85 " style="fill:#1563d8; stroke-width:1; stroke:black; " description="&lt;b&gt;BMZ46_RS12065&lt;/b&gt;&lt;br&gt;HAMP domain-containing protein&lt;br&gt;Location: 17670 - 15724&lt;br&gt;&lt;br&gt;&lt;b&gt;BlastP hit with ctg4_579&lt;/b&gt;&lt;br&gt;Percentage identity: 95&lt;br&gt;Percentage coverage: 100&lt;br&gt;BLAST bit score: 1175&lt;br&gt;E-value: 0.0" locus_tag="BMZ46_RS12065" class="clusterblast-orf" id="dummy-2_h2_4_2"  />
</g>
<g id="a2_003"  >
<polygon points="295,85 300,80 316,80 316,90 300,90 295,85 " style="fill:#b115d8; stroke-width:1; stroke:black; " description="&lt;b&gt;BMZ46_RS12060&lt;/b&gt;&lt;br&gt;periplasmic protein&lt;br&gt;Location: 15709 - 15017&lt;br&gt;&lt;br&gt;&lt;b&gt;BlastP hit with ctg4_580&lt;/b&gt;&lt;br&gt;Percentage identity: 89&lt;br&gt;Percentage coverage: 100&lt;br&gt;BLAST bit score: 421&lt;br&gt;E-value: 4.5e-116" locus_tag="BMZ46_RS12060" class="clusterblast-orf" id="dummy-2_h2_4_3"  />
</g>
<g id="a2_004"  >
<polygon points="322,90 339,90 344,85 339,80 322,80 322,90 " style="fill:#d88a15; stroke-width:1; stroke:black; " description="&lt;b&gt;BMZ46_RS12055&lt;/b&gt;&lt;br&gt;GntR family transcriptional regulator&lt;br&gt;Location: 14823 - 14113&lt;br&gt;&lt;br&gt;&lt;b&gt;BlastP hit with ctg4_581&lt;/b&gt;&lt;br&gt;Percentage identity: 82&lt;br&gt;Percentage coverage: 99&lt;br&gt;BLAST bit score: 373&lt;br&gt;E-value: 1.9e-101" locus_tag="BMZ46_RS12055" class="clusterblast-orf" id="dummy-2_h2_4_4"  />
</g>
<g id="a2_005"  >
<polygon points="368,90 387,90 392,85 387,80 368,80 368,90 " style="fill:#15d863; stroke-width:1; stroke:black; " description="&lt;b&gt;BMZ46_RS12050&lt;/b&gt;&lt;br&gt;DUF3050 domain-containing protein&lt;br&gt;Location: 13357 - 12584&lt;br&gt;&lt;br&gt;&lt;b&gt;BlastP hit with ctg4_582&lt;/b&gt;&lt;br&gt;Percentage identity: 84&lt;br&gt;Percentage coverage: 99&lt;br&gt;BLAST bit score: 434&lt;br&gt;E-value: 7.6e-120" locus_tag="BMZ46_RS12050" class="clusterblast-orf" id="dummy-2_h2_4_5"  />
</g>
<g id="a2_006"  >
<polygon points="392,90 416,90 421,85 416,80 392,80 392,90 " style="fill:#3c15d8; stroke-width:1; stroke:black; " description="&lt;b&gt;BMZ46_RS12045&lt;/b&gt;&lt;br&gt;aminobenzoate oxygenase&lt;br&gt;Location: 12587 - 11658&lt;br&gt;&lt;br&gt;&lt;b&gt;BlastP hit with ctg4_583&lt;/b&gt;&lt;br&gt;Percentage identity: 92&lt;br&gt;Percentage coverage: 100&lt;br&gt;BLAST bit score: 567&lt;br&gt;E-value: 1.2e-159" locus_tag="BMZ46_RS12045" class="clusterblast-orf" id="dummy-2_h2_4_6"  />
</g>
<g id="a2_007"  >
<polygon points="421,90 522,90 527,85 522,80 421,80 421,90 " style="fill:#d8158a; stroke-width:1; stroke:black; " description="&lt;b&gt;BMZ46_RS12040&lt;/b&gt;&lt;br&gt;peptide transporter&lt;br&gt;Location: 11644 - 8255&lt;br&gt;&lt;br&gt;&lt;b&gt;BlastP hit with ctg4_584&lt;/b&gt;&lt;br&gt;Percentage identity: 81&lt;br&gt;Percentage coverage: 100&lt;br&gt;BLAST bit score: 1822&lt;br&gt;E-value: 0.0" locus_tag="BMZ46_RS12040" class="clusterblast-orf" id="dummy-2_h2_4_7"  />
</g>
<g id="a2_008"  >
<polygon points="528,90 538,90 543,85 538,80 528,80 528,90 " style="fill:#b1d815; stroke-width:1; stroke:black; " description="&lt;b&gt;BMZ46_RS12035&lt;/b&gt;&lt;br&gt;SRPBCC family protein&lt;br&gt;Location: 8231 - 7764&lt;br&gt;&lt;br&gt;&lt;b&gt;BlastP hit with ctg4_585&lt;/b&gt;&lt;br&gt;Percentage identity: 90&lt;br&gt;Percentage coverage: 99&lt;br&gt;BLAST bit score: 288&lt;br&gt;E-value: 4e-76" locus_tag="BMZ46_RS12035" class="clusterblast-orf" id="dummy-2_h2_4_8"  />
</g>
<g id="a2_009"  >
<polygon points="544,85 549,80 603,80 603,90 549,90 544,85 " style="fill:#15d8d8; stroke-width:1; stroke:black; " description="&lt;b&gt;BMZ46_RS12030&lt;/b&gt;&lt;br&gt;HAMP domain-containing protein&lt;br&gt;Location: 7705 - 5825&lt;br&gt;&lt;br&gt;&lt;b&gt;BlastP hit with ctg4_586&lt;/b&gt;&lt;br&gt;Percentage identity: 90&lt;br&gt;Percentage coverage: 100&lt;br&gt;BLAST bit score: 914&lt;br&gt;E-value: 6e-264" locus_tag="BMZ46_RS12030" class="clusterblast-orf" id="dummy-2_h2_4_9"  />
</g>
<g id="a2_0010"  >
<polygon points="613,90 623,90 628,85 623,80 613,80 613,90 " style="fill:white; stroke-width:1; stroke:black; " description="&lt;b&gt;BMZ46_RS12025&lt;/b&gt;&lt;br&gt;RNA polymerase subunit sigma&lt;br&gt;Location: 5513 - 5013" locus_tag="BMZ46_RS12025" class="clusterblast-orf" id="dummy-2_h2_4_10"  />
</g>
<g id="a2_0011"  >
<polygon points="628,90 655,90 660,85 655,80 628,80 628,90 " style="fill:white; stroke-width:1; stroke:black; " description="&lt;b&gt;BMZ46_RS12020&lt;/b&gt;&lt;br&gt;FecR family protein&lt;br&gt;Location: 5013 - 4012" locus_tag="BMZ46_RS12020" class="clusterblast-orf" id="dummy-2_h2_4_11"  />
</g>
<g id="a2_0012"  >
<polygon points="662,90 735,90 740,85 735,80 662,80 662,90 " style="fill:white; stroke-width:1; stroke:black; " description="&lt;b&gt;BMZ46_RS12015&lt;/b&gt;&lt;br&gt;TonB-dependent siderophore receptor&lt;br&gt;Location: 3924 - 1423" locus_tag="BMZ46_RS12015" class="clusterblast-orf" id="dummy-2_h2_4_12"  />
</g>
<g id="a2_0013"  >
<polygon points="743,90 775,90 780,85 775,80 743,80 743,90 " style="fill:white; stroke-width:1; stroke:black; " description="&lt;b&gt;BMZ46_RS12010&lt;/b&gt;&lt;br&gt;PepSY domain-containing protein&lt;br&gt;Location: 1345 - 167" locus_tag="BMZ46_RS12010" class="clusterblast-orf" id="dummy-2_h2_4_13"  />
</g>
</svg>
