<svg xmlns="http://www.w3.org/2000/svg" xmlns:xlink="http://www.w3.org/1999/xlink" version="1.1" x="0" y="0" height="230" width="800" viewBox="0 0 800 230" preserveAspectRatio="none"  >
<g label="Query sequence" class="clusterblast-cluster"  >
<text x="5" y="20" class="clusterblast-acc"  >
Query sequence</text>
<line x1="10" y1="35" x2="778.0" y2="35" style="stroke-width:1; stroke:grey; "  />
<polygon points="0,40 29,40 34,35 29,30 0,30 0,40 " style="fill:#d81515; stroke-width:1; stroke:black; " description="&lt;b&gt;ctg3_1885&lt;/b&gt;&lt;br&gt;ctg3 1885&lt;br&gt;Location: 2244699 - 2245152" locus_tag="ctg3_1885" class="clusterblast-orf" id="dummy-3_q0_0_all"  />
<polygon points="41,40 70,40 75,35 70,30 41,30 41,40 " style="fill:#d81515; stroke-width:1; stroke:black; " description="&lt;b&gt;ctg3_1886&lt;/b&gt;&lt;br&gt;ctg3 1886&lt;br&gt;Location: 2245255 - 2245708" locus_tag="ctg3_1886" class="clusterblast-orf" id="dummy-3_q1_0_all"  />
<polygon points="86,40 115,40 120,35 115,30 86,30 86,40 " style="fill:#77d815; stroke-width:1; stroke:black; " description="&lt;b&gt;ctg3_1887&lt;/b&gt;&lt;br&gt;ctg3 1887&lt;br&gt;Location: 2245857 - 2246316" locus_tag="ctg3_1887" class="clusterblast-orf" id="dummy-3_q2_0_all"  />
<polygon points="120,40 140,40 145,35 140,30 120,30 120,40 " style="fill:#15d8d8; stroke-width:1; stroke:black; " description="&lt;b&gt;ctg3_1888&lt;/b&gt;&lt;br&gt;ctg3 1888&lt;br&gt;Location: 2246312 - 2246654" locus_tag="ctg3_1888" class="clusterblast-orf" id="dummy-3_q3_0_all"  />
<polygon points="143,35 148,30 213,30 213,40 148,40 143,35 " style="fill:#7715d8; stroke-width:1; stroke:black; " description="&lt;b&gt;ctg3_1889&lt;/b&gt;&lt;br&gt;ctg3 1889&lt;br&gt;Location: 2246623 - 2247562" locus_tag="ctg3_1889" class="clusterblast-orf" id="dummy-3_q4_0_all"  />
<polygon points="218,40 279,40 284,35 279,30 218,30 218,40 " style="fill:#d87715; stroke-width:1; stroke:black; " description="&lt;b&gt;ctg3_1890&lt;/b&gt;&lt;br&gt;ctg3 1890&lt;br&gt;Location: 2247630 - 2248518" locus_tag="ctg3_1890" class="clusterblast-orf" id="dummy-3_q5_0_all"  />
<polygon points="293,35 298,30 349,30 349,40 298,40 293,35 " style="fill:#15d815; stroke-width:1; stroke:black; " description="&lt;b&gt;ctg3_1891&lt;/b&gt;&lt;br&gt;ctg3 1891&lt;br&gt;Location: 2248647 - 2249406" locus_tag="ctg3_1891" class="clusterblast-orf" id="dummy-3_q6_0_all"  />
<polygon points="349,35 354,30 411,30 411,40 354,40 349,35 " style="fill:#1577d8; stroke-width:1; stroke:black; " description="&lt;b&gt;ctg3_1892&lt;/b&gt;&lt;br&gt;ctg3 1892&lt;br&gt;Location: 2249398 - 2250238" locus_tag="ctg3_1892" class="clusterblast-orf" id="dummy-3_q7_0_all"  />
<polygon points="416,35 421,30 431,30 431,40 421,40 416,35 " style="fill:#d815d8; stroke-width:1; stroke:black; " description="&lt;b&gt;ctg3_1893&lt;/b&gt;&lt;br&gt;ctg3 1893&lt;br&gt;Location: 2250300 - 2250507" locus_tag="ctg3_1893" class="clusterblast-orf" id="dummy-3_q8_0_all"  />
<polygon points="445,35 450,30 544,30 544,40 450,40 445,35 " style="fill:#d8d815; stroke-width:1; stroke:black; " description="&lt;b&gt;ctg3_1894&lt;/b&gt;&lt;br&gt;ctg3 1894&lt;br&gt;Location: 2250689 - 2252024" locus_tag="ctg3_1894" class="clusterblast-orf" id="dummy-3_q9_0_all"  />
<polygon points="568,35 573,30 637,30 637,40 573,40 568,35 " style="fill:#15d877; stroke-width:1; stroke:black; " description="&lt;b&gt;ctg3_1895&lt;/b&gt;&lt;br&gt;ctg3 1895&lt;br&gt;Location: 2252354 - 2253278" locus_tag="ctg3_1895" class="clusterblast-orf" id="dummy-3_q10_0_all"  />
<polygon points="653,35 658,30 731,30 731,40 658,40 653,35 " style="fill:#1515d8; stroke-width:1; stroke:black; " description="&lt;b&gt;ctg3_1896&lt;/b&gt;&lt;br&gt;ctg3 1896&lt;br&gt;Location: 2253502 - 2254546" locus_tag="ctg3_1896" class="clusterblast-orf" id="dummy-3_q11_0_all"  />
<polygon points="747,40 775,40 780,35 775,30 747,30 747,40 " style="fill:#d81577; stroke-width:1; stroke:black; " description="&lt;b&gt;ctg3_1897&lt;/b&gt;&lt;br&gt;ctg3 1897&lt;br&gt;Location: 2254762 - 2255212" locus_tag="ctg3_1897" class="clusterblast-orf" id="dummy-3_q12_0_all"  />
</g>
<g label="NZ_CM001559" description="NZ_CM001559_c5: Pseudomonas chlororaphis subsp. aureofaciens 30-84 chromosome... (30% of genes show similarity), bacteriocin" class="clusterblast-cluster"  >
<text x="5" y="70" class="clusterblast-acc"  >
<a xlink:href="https://antismash-db.secondarymetabolites.org/go/NZ_CM001559/5" target="_blank">NZ_CM001559_c5</a>: Pseudomonas chlororaphis subsp. aureofaciens 30-84 chromosome... (30% of genes show similarity), bacteriocin</text>
<line x1="10" y1="85" x2="778.0" y2="85" style="stroke-width:1; stroke:grey; "  />
</g>
<g id="a3_000"  >
<polygon points="11,90 61,90 66,85 61,80 11,80 11,90 " style="fill:white; stroke-width:1; stroke:black; " description="&lt;b&gt;PCHL3084_RS13580&lt;/b&gt;&lt;br&gt;DNA-binding response regulator&lt;br&gt;Location: 3029354 - 3028614" locus_tag="PCHL3084_RS13580" class="clusterblast-orf" id="dummy-3_h3_10_0"  />
</g>
<g id="a3_001"  >
<polygon points="65,90 158,90 163,85 158,80 65,80 65,90 " style="fill:white; stroke-width:1; stroke:black; " description="&lt;b&gt;PCHL3084_RS13575&lt;/b&gt;&lt;br&gt;two-component sensor histidine kinase&lt;br&gt;Location: 3028617 - 3027298" locus_tag="PCHL3084_RS13575" class="clusterblast-orf" id="dummy-3_h3_10_1"  />
</g>
<g id="a3_002"  >
<polygon points="172,90 214,90 219,85 214,80 172,80 172,90 " style="fill:white; stroke-width:1; stroke:black; " description="&lt;b&gt;PCHL3084_RS13570&lt;/b&gt;&lt;br&gt;hypothetical protein&lt;br&gt;Location: 3027181 - 3026546" locus_tag="PCHL3084_RS13570" class="clusterblast-orf" id="dummy-3_h3_10_2"  />
</g>
<g id="a3_003"  >
<polygon points="225,90 258,90 263,85 258,80 225,80 225,90 " style="fill:white; stroke-width:1; stroke:black; " description="&lt;b&gt;PCHL3084_RS13565&lt;/b&gt;&lt;br&gt;DoxX family protein&lt;br&gt;Location: 3026464 - 3025958" locus_tag="PCHL3084_RS13565" class="clusterblast-orf" id="dummy-3_h3_10_3"  />
</g>
<g id="a3_004"  >
<polygon points="317,85 322,80 374,80 374,90 322,90 317,85 " style="fill:#15d815; stroke-width:1; stroke:black; " description="&lt;b&gt;PCHL3084_RS13560&lt;/b&gt;&lt;br&gt;DUF2063 domain-containing protein&lt;br&gt;Location: 3025221 - 3024460&lt;br&gt;&lt;br&gt;&lt;b&gt;BlastP hit with ctg3_1891&lt;/b&gt;&lt;br&gt;Percentage identity: 64&lt;br&gt;Percentage coverage: 97&lt;br&gt;BLAST bit score: 324&lt;br&gt;E-value: 1.1e-86" locus_tag="PCHL3084_RS13560" class="clusterblast-orf" id="dummy-3_h3_10_4"  />
</g>
<g id="a3_005"  >
<polygon points="373,85 378,80 439,80 439,90 378,90 373,85 " style="fill:#1577d8; stroke-width:1; stroke:black; " description="&lt;b&gt;PCHL3084_RS13555&lt;/b&gt;&lt;br&gt;DUF692 domain-containing protein&lt;br&gt;Location: 3024467 - 3023583&lt;br&gt;&lt;br&gt;&lt;b&gt;BlastP hit with ctg3_1892&lt;/b&gt;&lt;br&gt;Percentage identity: 80&lt;br&gt;Percentage coverage: 95&lt;br&gt;BLAST bit score: 448&lt;br&gt;E-value: 4.2e-124" locus_tag="PCHL3084_RS13555" class="clusterblast-orf" id="dummy-3_h3_10_5"  />
</g>
<g id="a3_006"  >
<polygon points="444,85 449,80 472,80 472,90 449,90 444,85 " style="fill:#d815d8; stroke-width:1; stroke:black; " description="&lt;b&gt;PCHL3084_RS13550&lt;/b&gt;&lt;br&gt;calcium-binding protein&lt;br&gt;Location: 3023517 - 3023131&lt;br&gt;&lt;br&gt;&lt;b&gt;BlastP hit with ctg3_1893&lt;/b&gt;&lt;br&gt;Percentage identity: 67&lt;br&gt;Percentage coverage: 63&lt;br&gt;BLAST bit score: 54&lt;br&gt;E-value: 7.3e-06" locus_tag="PCHL3084_RS13550" class="clusterblast-orf" id="dummy-3_h3_10_6"  />
</g>
<g id="a3_007"  >
<polygon points="487,85 492,80 556,80 556,90 492,90 487,85 " style="fill:white; stroke-width:1; stroke:black; " description="&lt;b&gt;PCHL3084_RS13545&lt;/b&gt;&lt;br&gt;GDP-mannose pyrophosphatase NudK&lt;br&gt;Location: 3022928 - 3022008" locus_tag="PCHL3084_RS13545" class="clusterblast-orf" id="dummy-3_h3_10_7"  />
</g>
<g id="a3_008"  >
<polygon points="568,85 573,80 657,80 657,90 573,90 568,85 " style="fill:white; stroke-width:1; stroke:black; " description="&lt;b&gt;PCHL3084_RS13540&lt;/b&gt;&lt;br&gt;enoyl-[acyl-carrier-protein] reductase FabV&lt;br&gt;Location: 3021838 - 3020642" locus_tag="PCHL3084_RS13540" class="clusterblast-orf" id="dummy-3_h3_10_8"  />
</g>
<g id="a3_009"  >
<polygon points="673,85 678,80 768,80 768,90 678,90 673,85 " style="fill:white; stroke-width:1; stroke:black; " description="&lt;b&gt;PCHL3084_RS13535&lt;/b&gt;&lt;br&gt;FAD-binding oxidoreductase&lt;br&gt;Location: 3020433 - 3019144" locus_tag="PCHL3084_RS13535" class="clusterblast-orf" id="dummy-3_h3_10_9"  />
</g>
</svg>
