<svg xmlns="http://www.w3.org/2000/svg" xmlns:xlink="http://www.w3.org/1999/xlink" version="1.1" x="0" y="0" height="150" width="800" viewBox="0 0 800 150" preserveAspectRatio="none"  >
<g label="Query sequence" class="clusterblast-cluster"  >
<text x="5" y="20" class="clusterblast-acc"  >
Query sequence</text>
<line x1="10" y1="35" x2="778.0" y2="35" style="stroke-width:1; stroke:grey; "  />
<polygon points="0,40 299,40 304,35 299,30 0,30 0,40 " style="fill:white; stroke-width:1; stroke:black; " description="&lt;b&gt;ctg4_577&lt;/b&gt;&lt;br&gt;ctg4 577&lt;br&gt;Location: 680926 - 689050" locus_tag="ctg4_577" class="clusterblast-orf" id="knownclusterblast-2_q0_0_all"  />
<polygon points="310,40 318,40 323,35 318,30 310,30 310,40 " style="fill:white; stroke-width:1; stroke:black; " description="&lt;b&gt;ctg4_578&lt;/b&gt;&lt;br&gt;ctg4 578&lt;br&gt;Location: 689198 - 689537" locus_tag="ctg4_578" class="clusterblast-orf" id="knownclusterblast-2_q1_0_all"  />
<polygon points="328,35 333,30 401,30 401,40 333,40 328,35 " style="fill:white; stroke-width:1; stroke:black; " description="&lt;b&gt;ctg4_579&lt;/b&gt;&lt;br&gt;ctg4 579&lt;br&gt;Location: 689672 - 691619" locus_tag="ctg4_579" class="clusterblast-orf" id="knownclusterblast-2_q2_0_all"  />
<polygon points="401,35 406,30 427,30 427,40 406,40 401,35 " style="fill:white; stroke-width:1; stroke:black; " description="&lt;b&gt;ctg4_580&lt;/b&gt;&lt;br&gt;ctg4 580&lt;br&gt;Location: 691633 - 692326" locus_tag="ctg4_580" class="clusterblast-orf" id="knownclusterblast-2_q3_0_all"  />
<polygon points="437,40 459,40 464,35 459,30 437,30 437,40 " style="fill:white; stroke-width:1; stroke:black; " description="&lt;b&gt;ctg4_581&lt;/b&gt;&lt;br&gt;ctg4 581&lt;br&gt;Location: 692593 - 693304" locus_tag="ctg4_581" class="clusterblast-orf" id="knownclusterblast-2_q4_0_all"  />
<polygon points="493,40 517,40 522,35 517,30 493,30 493,40 " style="fill:#d81515; stroke-width:1; stroke:black; " description="&lt;b&gt;ctg4_582&lt;/b&gt;&lt;br&gt;ctg4 582&lt;br&gt;Location: 694088 - 694865" locus_tag="ctg4_582" class="clusterblast-orf" id="knownclusterblast-2_q5_0_all"  />
<polygon points="522,40 552,40 557,35 552,30 522,30 522,40 " style="fill:#15d815; stroke-width:1; stroke:black; " description="&lt;b&gt;ctg4_583&lt;/b&gt;&lt;br&gt;ctg4 583&lt;br&gt;Location: 694861 - 695791" locus_tag="ctg4_583" class="clusterblast-orf" id="knownclusterblast-2_q6_0_all"  />
<polygon points="558,40 681,40 686,35 681,30 558,30 558,40 " style="fill:white; stroke-width:1; stroke:black; " description="&lt;b&gt;ctg4_584&lt;/b&gt;&lt;br&gt;ctg4 584&lt;br&gt;Location: 695804 - 699215" locus_tag="ctg4_584" class="clusterblast-orf" id="knownclusterblast-2_q7_0_all"  />
<polygon points="686,40 699,40 704,35 699,30 686,30 686,40 " style="fill:#1515d8; stroke-width:1; stroke:black; " description="&lt;b&gt;ctg4_585&lt;/b&gt;&lt;br&gt;ctg4 585&lt;br&gt;Location: 699237 - 699705" locus_tag="ctg4_585" class="clusterblast-orf" id="knownclusterblast-2_q8_0_all"  />
<polygon points="709,35 714,30 780,30 780,40 714,40 709,35 " style="fill:white; stroke-width:1; stroke:black; " description="&lt;b&gt;ctg4_586&lt;/b&gt;&lt;br&gt;ctg4 586&lt;br&gt;Location: 699851 - 701732" locus_tag="ctg4_586" class="clusterblast-orf" id="knownclusterblast-2_q9_0_all"  />
</g>
<g label="BGC0001599" description="BGC0001599_c1: fragin (37% of genes show similarity), NRP" class="clusterblast-cluster"  >
<text x="5" y="70" class="clusterblast-acc"  >
<a xlink:href="https://mibig.secondarymetabolites.org/go/BGC0001599/1" target="_blank">BGC0001599</a>:                                                                           fragin (37% of genes show similarity), NRP</text>
<line x1="10" y1="85" x2="778.0" y2="85" style="stroke-width:1; stroke:grey; "  />
</g>
<g id="a2_000"  >
<polygon points="273,85 278,80 324,80 324,90 278,90 273,85 " style="fill:white; stroke-width:1; stroke:black; " description="&lt;b&gt;I35_4188&lt;/b&gt;&lt;br&gt;Omega-amino acid--pyruvate aminotransferase&lt;br&gt;Location: 1 - 1347" locus_tag="I35_4188" class="clusterblast-orf" id="knownclusterblast-2_all_2_1_0"  />
</g>
<g id="a2_001"  >
<polygon points="273,90 297,90 302,85 297,80 273,80 273,90 " style="fill:#d81515; stroke-width:1; stroke:black; " description="&lt;b&gt;I35_4191&lt;/b&gt;&lt;br&gt;PROBABLE REMNANT OF A TRANSPOSASE GENE PROTEIN&lt;br&gt;Location: 1 - 783&lt;br&gt;&lt;br&gt;&lt;b&gt;BlastP hit with ctg4_582&lt;/b&gt;&lt;br&gt;Percentage identity: 48&lt;br&gt;Percentage coverage: 98&lt;br&gt;BLAST bit score: 248&lt;br&gt;E-value: 1.4e-65" locus_tag="I35_4191" class="clusterblast-orf" id="knownclusterblast-2_all_2_1_1"  />
</g>
<g id="a2_002"  >
<polygon points="302,90 312,90 317,85 312,80 302,80 302,90 " style="fill:white; stroke-width:1; stroke:black; " description="&lt;b&gt;I35_4192&lt;/b&gt;&lt;br&gt;hypothetical protein&lt;br&gt;Location: 780 - 1169" locus_tag="I35_4192" class="clusterblast-orf" id="knownclusterblast-2_all_2_1_2"  />
</g>
<g id="a2_003"  >
<polygon points="317,90 346,90 351,85 346,80 317,80 317,90 " style="fill:#15d815; stroke-width:1; stroke:black; " description="&lt;b&gt;I35_4193&lt;/b&gt;&lt;br&gt;hypothetical protein&lt;br&gt;Location: 1166 - 2092&lt;br&gt;&lt;br&gt;&lt;b&gt;BlastP hit with ctg4_583&lt;/b&gt;&lt;br&gt;Percentage identity: 53&lt;br&gt;Percentage coverage: 99&lt;br&gt;BLAST bit score: 322&lt;br&gt;E-value: 9.4e-88" locus_tag="I35_4193" class="clusterblast-orf" id="knownclusterblast-2_all_2_1_3"  />
</g>
<g id="a2_004"  >
<polygon points="326,85 331,80 377,80 377,90 331,90 326,85 " style="fill:white; stroke-width:1; stroke:black; " description="&lt;b&gt;I35_4189&lt;/b&gt;&lt;br&gt;Enterobactin synthetase component F&lt;br&gt;Location: 1404 - 2765" locus_tag="I35_4189" class="clusterblast-orf" id="knownclusterblast-2_all_2_1_4"  />
</g>
<g id="a2_005"  >
<polygon points="352,90 481,90 486,85 481,80 352,80 352,90 " style="fill:white; stroke-width:1; stroke:black; " description="&lt;b&gt;I35_4194&lt;/b&gt;&lt;br&gt;Peptide synthetase&lt;br&gt;Location: 2102 - 5668" locus_tag="I35_4194" class="clusterblast-orf" id="knownclusterblast-2_all_2_1_5"  />
</g>
<g id="a2_006"  >
<polygon points="381,85 386,80 391,80 391,90 386,90 381,85 " style="fill:white; stroke-width:1; stroke:black; " description="&lt;b&gt;I35_4190&lt;/b&gt;&lt;br&gt;hypothetical protein&lt;br&gt;Location: 2880 - 3146" locus_tag="I35_4190" class="clusterblast-orf" id="knownclusterblast-2_all_2_1_6"  />
</g>
<g id="a2_007"  >
<polygon points="488,90 501,90 506,85 501,80 488,80 488,90 " style="fill:#1515d8; stroke-width:1; stroke:black; " description="&lt;b&gt;I35_4195&lt;/b&gt;&lt;br&gt;hypothetical protein&lt;br&gt;Location: 5724 - 6212&lt;br&gt;&lt;br&gt;&lt;b&gt;BlastP hit with ctg4_585&lt;/b&gt;&lt;br&gt;Percentage identity: 49&lt;br&gt;Percentage coverage: 97&lt;br&gt;BLAST bit score: 149&lt;br&gt;E-value: 4.2e-36" locus_tag="I35_4195" class="clusterblast-orf" id="knownclusterblast-2_all_2_1_7"  />
</g>
<g label="BGC0001900" description="BGC0001900_c1: fragin (60% of genes show similarity), NRP" class="clusterblast-cluster"  >
<text x="5" y="120" class="clusterblast-acc"  >
<a xlink:href="https://mibig.secondarymetabolites.org/go/BGC0001900/1" target="_blank">BGC0001900</a>:                                                                           fragin (60% of genes show similarity), NRP</text>
<line x1="10" y1="135" x2="778.0" y2="135" style="stroke-width:1; stroke:grey; "  />
</g>
<g id="a2_000"  >
<polygon points="273,140 297,140 302,135 297,130 273,130 273,140 " style="fill:#d81515; stroke-width:1; stroke:black; " description="&lt;b&gt;I35_4191&lt;/b&gt;&lt;br&gt;PROBABLE REMNANT OF A TRANSPOSASE GENE PROTEIN&lt;br&gt;Location: 1 - 783&lt;br&gt;&lt;br&gt;&lt;b&gt;BlastP hit with ctg4_582&lt;/b&gt;&lt;br&gt;Percentage identity: 48&lt;br&gt;Percentage coverage: 98&lt;br&gt;BLAST bit score: 248&lt;br&gt;E-value: 1.4e-65" locus_tag="I35_4191" class="clusterblast-orf" id="knownclusterblast-2_all_2_2_0"  />
</g>
<g id="a2_001"  >
<polygon points="302,140 312,140 317,135 312,130 302,130 302,140 " style="fill:white; stroke-width:1; stroke:black; " description="&lt;b&gt;I35_4192&lt;/b&gt;&lt;br&gt;hypothetical protein&lt;br&gt;Location: 780 - 1169" locus_tag="I35_4192" class="clusterblast-orf" id="knownclusterblast-2_all_2_2_1"  />
</g>
<g id="a2_002"  >
<polygon points="317,140 346,140 351,135 346,130 317,130 317,140 " style="fill:#15d815; stroke-width:1; stroke:black; " description="&lt;b&gt;I35_4193&lt;/b&gt;&lt;br&gt;hypothetical protein&lt;br&gt;Location: 1166 - 2092&lt;br&gt;&lt;br&gt;&lt;b&gt;BlastP hit with ctg4_583&lt;/b&gt;&lt;br&gt;Percentage identity: 53&lt;br&gt;Percentage coverage: 99&lt;br&gt;BLAST bit score: 322&lt;br&gt;E-value: 9.4e-88" locus_tag="I35_4193" class="clusterblast-orf" id="knownclusterblast-2_all_2_2_2"  />
</g>
<g id="a2_003"  >
<polygon points="352,140 481,140 486,135 481,130 352,130 352,140 " style="fill:white; stroke-width:1; stroke:black; " description="&lt;b&gt;I35_4194&lt;/b&gt;&lt;br&gt;Peptide synthetase&lt;br&gt;Location: 2102 - 5668" locus_tag="I35_4194" class="clusterblast-orf" id="knownclusterblast-2_all_2_2_3"  />
</g>
<g id="a2_004"  >
<polygon points="488,140 501,140 506,135 501,130 488,130 488,140 " style="fill:#1515d8; stroke-width:1; stroke:black; " description="&lt;b&gt;I35_4195&lt;/b&gt;&lt;br&gt;hypothetical protein&lt;br&gt;Location: 5724 - 6212&lt;br&gt;&lt;br&gt;&lt;b&gt;BlastP hit with ctg4_585&lt;/b&gt;&lt;br&gt;Percentage identity: 49&lt;br&gt;Percentage coverage: 97&lt;br&gt;BLAST bit score: 149&lt;br&gt;E-value: 4.2e-36" locus_tag="I35_4195" class="clusterblast-orf" id="knownclusterblast-2_all_2_2_4"  />
</g>
</svg>
