<svg xmlns="http://www.w3.org/2000/svg" xmlns:xlink="http://www.w3.org/1999/xlink" version="1.1" x="0" y="0" height="230" width="800" viewBox="0 0 800 230" preserveAspectRatio="none"  >
<g label="Query sequence" class="clusterblast-cluster"  >
<text x="5" y="20" class="clusterblast-acc"  >
Query sequence</text>
<line x1="10" y1="35" x2="778.0" y2="35" style="stroke-width:1; stroke:grey; "  />
<polygon points="0,35 5,30 13,30 13,40 5,40 0,35 " style="fill:white; stroke-width:1; stroke:black; " description="&lt;b&gt;ctg1_947&lt;/b&gt;&lt;br&gt;ctg1 947&lt;br&gt;Location: 1045973 - 1046867" locus_tag="ctg1_947" class="clusterblast-orf" id="dummy-2_q0_0_all"  />
<polygon points="13,40 16,35 13,30 13,40 " style="fill:white; stroke-width:1; stroke:black; " description="&lt;b&gt;ctg1_948&lt;/b&gt;&lt;br&gt;ctg1 948&lt;br&gt;Location: 1046885 - 1047053" locus_tag="ctg1_948" class="clusterblast-orf" id="dummy-2_q1_0_all"  />
<polygon points="21,35 26,30 28,30 28,40 26,40 21,35 " style="fill:white; stroke-width:1; stroke:black; " description="&lt;b&gt;ctg1_949&lt;/b&gt;&lt;br&gt;ctg1 949&lt;br&gt;Location: 1047381 - 1047852" locus_tag="ctg1_949" class="clusterblast-orf" id="dummy-2_q2_0_all"  />
<polygon points="35,40 44,40 49,35 44,30 35,30 35,40 " style="fill:white; stroke-width:1; stroke:black; " description="&lt;b&gt;ctg1_950&lt;/b&gt;&lt;br&gt;ctg1 950&lt;br&gt;Location: 1048295 - 1049231" locus_tag="ctg1_950" class="clusterblast-orf" id="dummy-2_q3_0_all"  />
<polygon points="51,40 59,40 64,35 59,30 51,30 51,40 " style="fill:white; stroke-width:1; stroke:black; " description="&lt;b&gt;ctg1_951&lt;/b&gt;&lt;br&gt;ctg1 951&lt;br&gt;Location: 1049408 - 1050215" locus_tag="ctg1_951" class="clusterblast-orf" id="dummy-2_q4_0_all"  />
<polygon points="65,35 69,30 69,40 65,35 " style="fill:white; stroke-width:1; stroke:black; " description="&lt;b&gt;ctg1_952&lt;/b&gt;&lt;br&gt;ctg1 952&lt;br&gt;Location: 1050289 - 1050574" locus_tag="ctg1_952" class="clusterblast-orf" id="dummy-2_q5_0_all"  />
<polygon points="70,35 75,30 78,30 78,40 75,40 70,35 " style="fill:white; stroke-width:1; stroke:black; " description="&lt;b&gt;ctg1_953&lt;/b&gt;&lt;br&gt;ctg1 953&lt;br&gt;Location: 1050644 - 1051187" locus_tag="ctg1_953" class="clusterblast-orf" id="dummy-2_q6_0_all"  />
<polygon points="79,35 84,30 109,30 109,40 84,40 79,35 " style="fill:white; stroke-width:1; stroke:black; " description="&lt;b&gt;ctg1_954&lt;/b&gt;&lt;br&gt;ctg1 954&lt;br&gt;Location: 1051258 - 1053220" locus_tag="ctg1_954" class="clusterblast-orf" id="dummy-2_q7_0_all"  />
<polygon points="111,35 116,30 123,30 123,40 116,40 111,35 " style="fill:white; stroke-width:1; stroke:black; " description="&lt;b&gt;ctg1_955&lt;/b&gt;&lt;br&gt;ctg1 955&lt;br&gt;Location: 1053329 - 1054127" locus_tag="ctg1_955" class="clusterblast-orf" id="dummy-2_q8_0_all"  />
<polygon points="123,35 128,30 140,30 140,40 128,40 123,35 " style="fill:white; stroke-width:1; stroke:black; " description="&lt;b&gt;ctg1_956&lt;/b&gt;&lt;br&gt;ctg1 956&lt;br&gt;Location: 1054123 - 1055281" locus_tag="ctg1_956" class="clusterblast-orf" id="dummy-2_q9_0_all"  />
<polygon points="140,35 145,30 165,30 165,40 145,40 140,35 " style="fill:white; stroke-width:1; stroke:black; " description="&lt;b&gt;ctg1_957&lt;/b&gt;&lt;br&gt;ctg1 957&lt;br&gt;Location: 1055304 - 1056921" locus_tag="ctg1_957" class="clusterblast-orf" id="dummy-2_q10_0_all"  />
<polygon points="165,35 170,30 178,30 178,40 170,40 165,35 " style="fill:white; stroke-width:1; stroke:black; " description="&lt;b&gt;ctg1_958&lt;/b&gt;&lt;br&gt;ctg1 958&lt;br&gt;Location: 1056924 - 1057809" locus_tag="ctg1_958" class="clusterblast-orf" id="dummy-2_q11_0_all"  />
<polygon points="178,35 183,30 205,30 205,40 183,40 178,35 " style="fill:white; stroke-width:1; stroke:black; " description="&lt;b&gt;ctg1_959&lt;/b&gt;&lt;br&gt;ctg1 959&lt;br&gt;Location: 1057821 - 1059624" locus_tag="ctg1_959" class="clusterblast-orf" id="dummy-2_q12_0_all"  />
<polygon points="208,40 213,40 218,35 213,30 208,30 208,40 " style="fill:white; stroke-width:1; stroke:black; " description="&lt;b&gt;ctg1_960&lt;/b&gt;&lt;br&gt;ctg1 960&lt;br&gt;Location: 1059802 - 1060429" locus_tag="ctg1_960" class="clusterblast-orf" id="dummy-2_q13_0_all"  />
<polygon points="219,40 226,40 231,35 226,30 219,30 219,40 " style="fill:white; stroke-width:1; stroke:black; " description="&lt;b&gt;ctg1_961&lt;/b&gt;&lt;br&gt;ctg1 961&lt;br&gt;Location: 1060521 - 1061316" locus_tag="ctg1_961" class="clusterblast-orf" id="dummy-2_q14_0_all"  />
<polygon points="233,40 241,40 246,35 241,30 233,30 233,40 " style="fill:white; stroke-width:1; stroke:black; " description="&lt;b&gt;ctg1_962&lt;/b&gt;&lt;br&gt;ctg1 962&lt;br&gt;Location: 1061450 - 1062287" locus_tag="ctg1_962" class="clusterblast-orf" id="dummy-2_q15_0_all"  />
<polygon points="246,40 248,35 246,30 246,40 " style="fill:white; stroke-width:1; stroke:black; " description="&lt;b&gt;ctg1_963&lt;/b&gt;&lt;br&gt;ctg1 963&lt;br&gt;Location: 1062293 - 1062425" locus_tag="ctg1_963" class="clusterblast-orf" id="dummy-2_q16_0_all"  />
<polygon points="250,40 257,40 262,35 257,30 250,30 250,40 " style="fill:white; stroke-width:1; stroke:black; " description="&lt;b&gt;ctg1_964&lt;/b&gt;&lt;br&gt;ctg1 964&lt;br&gt;Location: 1062559 - 1063393" locus_tag="ctg1_964" class="clusterblast-orf" id="dummy-2_q17_0_all"  />
<polygon points="265,40 275,40 280,35 275,30 265,30 265,40 " style="fill:#d81515; stroke-width:1; stroke:black; " description="&lt;b&gt;ctg1_965&lt;/b&gt;&lt;br&gt;ctg1 965&lt;br&gt;Location: 1063545 - 1064559" locus_tag="ctg1_965" class="clusterblast-orf" id="dummy-2_q18_0_all"  />
<polygon points="282,35 287,30 290,30 290,40 287,40 282,35 " style="fill:#67d815; stroke-width:1; stroke:black; " description="&lt;b&gt;ctg1_966&lt;/b&gt;&lt;br&gt;ctg1 966&lt;br&gt;Location: 1064693 - 1065242" locus_tag="ctg1_966" class="clusterblast-orf" id="dummy-2_q19_0_all"  />
<polygon points="296,40 487,40 492,35 487,30 296,30 296,40 " style="fill:#15b9d8; stroke-width:1; stroke:black; " description="&lt;b&gt;ctg1_967&lt;/b&gt;&lt;br&gt;ctg1 967&lt;br&gt;Location: 1065614 - 1078598" locus_tag="ctg1_967" class="clusterblast-orf" id="dummy-2_q20_0_all"  />
<polygon points="494,40 501,40 506,35 501,30 494,30 494,40 " style="fill:#a515d8; stroke-width:1; stroke:black; " description="&lt;b&gt;ctg1_968&lt;/b&gt;&lt;br&gt;ctg1 968&lt;br&gt;Location: 1078770 - 1079583" locus_tag="ctg1_968" class="clusterblast-orf" id="dummy-2_q21_0_all"  />
<polygon points="508,35 513,30 519,30 519,40 513,40 508,35 " style="fill:#d85315; stroke-width:1; stroke:black; " description="&lt;b&gt;ctg1_969&lt;/b&gt;&lt;br&gt;ctg1 969&lt;br&gt;Location: 1079675 - 1080446" locus_tag="ctg1_969" class="clusterblast-orf" id="dummy-2_q22_0_all"  />
<polygon points="519,35 524,30 532,30 532,40 524,40 519,35 " style="fill:#2ad815; stroke-width:1; stroke:black; " description="&lt;b&gt;ctg1_970&lt;/b&gt;&lt;br&gt;ctg1 970&lt;br&gt;Location: 1080421 - 1081288" locus_tag="ctg1_970" class="clusterblast-orf" id="dummy-2_q23_0_all"  />
<polygon points="532,35 537,30 558,30 558,40 537,40 532,35 " style="fill:#157cd8; stroke-width:1; stroke:black; " description="&lt;b&gt;ctg1_971&lt;/b&gt;&lt;br&gt;ctg1 971&lt;br&gt;Location: 1081287 - 1083027" locus_tag="ctg1_971" class="clusterblast-orf" id="dummy-2_q24_0_all"  />
<polygon points="561,40 566,40 571,35 566,30 561,30 561,40 " style="fill:#d815ce; stroke-width:1; stroke:black; " description="&lt;b&gt;ctg1_972&lt;/b&gt;&lt;br&gt;ctg1 972&lt;br&gt;Location: 1083180 - 1083861" locus_tag="ctg1_972" class="clusterblast-orf" id="dummy-2_q25_0_all"  />
<polygon points="571,40 586,40 591,35 586,30 571,30 571,40 " style="fill:#d89015; stroke-width:1; stroke:black; " description="&lt;b&gt;ctg1_973&lt;/b&gt;&lt;br&gt;ctg1 973&lt;br&gt;Location: 1083857 - 1085183" locus_tag="ctg1_973" class="clusterblast-orf" id="dummy-2_q26_0_all"  />
<polygon points="594,40 596,40 601,35 596,30 594,30 594,40 " style="fill:white; stroke-width:1; stroke:black; " description="&lt;b&gt;ctg1_974&lt;/b&gt;&lt;br&gt;ctg1 974&lt;br&gt;Location: 1085400 - 1085886" locus_tag="ctg1_974" class="clusterblast-orf" id="dummy-2_q27_0_all"  />
<polygon points="604,40 620,40 625,35 620,30 604,30 604,40 " style="fill:#15d83e; stroke-width:1; stroke:black; " description="&lt;b&gt;ctg1_975&lt;/b&gt;&lt;br&gt;ctg1 975&lt;br&gt;Location: 1086029 - 1087442" locus_tag="ctg1_975" class="clusterblast-orf" id="dummy-2_q28_0_all"  />
<polygon points="626,40 630,35 626,30 626,40 " style="fill:#153ed8; stroke-width:1; stroke:black; " description="&lt;b&gt;ctg1_976&lt;/b&gt;&lt;br&gt;ctg1 976&lt;br&gt;Location: 1087524 - 1087752" locus_tag="ctg1_976" class="clusterblast-orf" id="dummy-2_q29_0_all"  />
<polygon points="632,35 637,30 647,30 647,40 637,40 632,35 " style="fill:#d81590; stroke-width:1; stroke:black; " description="&lt;b&gt;ctg1_977&lt;/b&gt;&lt;br&gt;ctg1 977&lt;br&gt;Location: 1087926 - 1088898" locus_tag="ctg1_977" class="clusterblast-orf" id="dummy-2_q30_0_all"  />
<polygon points="647,35 652,30 660,30 660,40 652,40 647,35 " style="fill:#d8ce15; stroke-width:1; stroke:black; " description="&lt;b&gt;ctg1_978&lt;/b&gt;&lt;br&gt;ctg1 978&lt;br&gt;Location: 1088898 - 1089798" locus_tag="ctg1_978" class="clusterblast-orf" id="dummy-2_q31_0_all"  />
<polygon points="660,35 665,30 673,30 673,40 665,40 660,35 " style="fill:#15d87c; stroke-width:1; stroke:black; " description="&lt;b&gt;ctg1_979&lt;/b&gt;&lt;br&gt;ctg1 979&lt;br&gt;Location: 1089797 - 1090661" locus_tag="ctg1_979" class="clusterblast-orf" id="dummy-2_q32_0_all"  />
<polygon points="673,35 678,30 687,30 687,40 678,40 673,35 " style="fill:#2a15d8; stroke-width:1; stroke:black; " description="&lt;b&gt;ctg1_980&lt;/b&gt;&lt;br&gt;ctg1 980&lt;br&gt;Location: 1090657 - 1091584" locus_tag="ctg1_980" class="clusterblast-orf" id="dummy-2_q33_0_all"  />
<polygon points="688,35 693,30 697,30 697,40 693,40 688,35 " style="fill:#d81553; stroke-width:1; stroke:black; " description="&lt;b&gt;ctg1_981&lt;/b&gt;&lt;br&gt;ctg1 981&lt;br&gt;Location: 1091619 - 1092192" locus_tag="ctg1_981" class="clusterblast-orf" id="dummy-2_q34_0_all"  />
<polygon points="697,35 702,30 702,30 702,40 702,40 697,35 " style="fill:#a5d815; stroke-width:1; stroke:black; " description="&lt;b&gt;ctg1_982&lt;/b&gt;&lt;br&gt;ctg1 982&lt;br&gt;Location: 1092194 - 1092524" locus_tag="ctg1_982" class="clusterblast-orf" id="dummy-2_q35_0_all"  />
<polygon points="701,35 706,30 710,30 710,40 706,40 701,35 " style="fill:#15d8b9; stroke-width:1; stroke:black; " description="&lt;b&gt;ctg1_983&lt;/b&gt;&lt;br&gt;ctg1 983&lt;br&gt;Location: 1092520 - 1093063" locus_tag="ctg1_983" class="clusterblast-orf" id="dummy-2_q36_0_all"  />
<polygon points="710,35 715,30 728,30 728,40 715,40 710,35 " style="fill:#6715d8; stroke-width:1; stroke:black; " description="&lt;b&gt;ctg1_984&lt;/b&gt;&lt;br&gt;ctg1 984&lt;br&gt;Location: 1093059 - 1094262" locus_tag="ctg1_984" class="clusterblast-orf" id="dummy-2_q37_0_all"  />
<polygon points="734,40 751,40 756,35 751,30 734,30 734,40 " style="fill:white; stroke-width:1; stroke:black; " description="&lt;b&gt;ctg1_985&lt;/b&gt;&lt;br&gt;ctg1 985&lt;br&gt;Location: 1094682 - 1096104" locus_tag="ctg1_985" class="clusterblast-orf" id="dummy-2_q38_0_all"  />
<polygon points="755,40 760,40 765,35 760,30 755,30 755,40 " style="fill:white; stroke-width:1; stroke:black; " description="&lt;b&gt;ctg1_986&lt;/b&gt;&lt;br&gt;ctg1 986&lt;br&gt;Location: 1096100 - 1096712" locus_tag="ctg1_986" class="clusterblast-orf" id="dummy-2_q39_0_all"  />
<polygon points="767,35 772,30 780,30 780,40 772,40 767,35 " style="fill:white; stroke-width:1; stroke:black; " description="&lt;b&gt;ctg1_987&lt;/b&gt;&lt;br&gt;ctg1 987&lt;br&gt;Location: 1096837 - 1097704" locus_tag="ctg1_987" class="clusterblast-orf" id="dummy-2_q40_0_all"  />
</g>
<g label="BGC0001189" description="BGC0001189_c1: taiwachelin (16% of genes show similarity), NRP" class="clusterblast-cluster"  >
<text x="5" y="70" class="clusterblast-acc"  >
<a xlink:href="https://mibig.secondarymetabolites.org/go/BGC0001189/1" target="_blank">BGC0001189</a>:                                                                      taiwachelin (16% of genes show similarity), NRP</text>
<line x1="10" y1="85" x2="778.0" y2="85" style="stroke-width:1; stroke:grey; "  />
</g>
<g id="a2_000"  >
<polygon points="73,90 75,90 80,85 75,80 73,80 73,90 " style="fill:white; stroke-width:1; stroke:black; " description="&lt;b&gt;RALTA_B1222&lt;/b&gt;&lt;br&gt;putative cyclase/dehydrase; putatively involved in polyketide (linear poly-beta-ketones) synthesis; antibiotic biosynthesis&lt;br&gt;Location: 1 - 417" locus_tag="RALTA_B1222" class="clusterblast-orf" id="dummy-2_h2_4_0"  />
</g>
<g id="a2_001"  >
<polygon points="83,90 86,85 83,80 83,90 " style="fill:#153ed8; stroke-width:1; stroke:black; " description="&lt;b&gt;RALTA_B1223&lt;/b&gt;&lt;br&gt;conserved hypothetical protein, mbtH-like&lt;br&gt;Location: 634 - 855&lt;br&gt;&lt;br&gt;&lt;b&gt;BlastP hit with ctg1_976&lt;/b&gt;&lt;br&gt;Percentage identity: 72&lt;br&gt;Percentage coverage: 89&lt;br&gt;BLAST bit score: 106&lt;br&gt;E-value: 2e-23" locus_tag="RALTA_B1223" class="clusterblast-orf" id="dummy-2_h2_4_1"  />
</g>
<g id="a2_002"  >
<polygon points="86,90 92,90 97,85 92,80 86,80 86,90 " style="fill:white; stroke-width:1; stroke:black; " description="&lt;b&gt;RALTA_B1224&lt;/b&gt;&lt;br&gt;Linear gramicidin dehydrogenase, type II thioesterase&lt;br&gt;Location: 858 - 1592" locus_tag="RALTA_B1224" class="clusterblast-orf" id="dummy-2_h2_4_2"  />
</g>
<g id="a2_003"  >
<polygon points="98,90 161,90 166,85 161,80 98,80 98,90 " style="fill:white; stroke-width:1; stroke:black; " description="&lt;b&gt;RALTA_B1225&lt;/b&gt;&lt;br&gt;non ribosomal peptide synthase, antibiotic synthesis; contains 1 condensation domain, 1 AMP-acid ligases II domain, PP-binding, Phosphopantetheine attachment site and one taurine catabolism dioxygenase&lt;br&gt;Location: 1649 - 6169" locus_tag="RALTA_B1225" class="clusterblast-orf" id="dummy-2_h2_4_3"  />
</g>
<g id="a2_004"  >
<polygon points="166,90 209,90 214,85 209,80 166,80 166,90 " style="fill:white; stroke-width:1; stroke:black; " description="&lt;b&gt;RALTA_B1226&lt;/b&gt;&lt;br&gt;non ribosomal peptide synthase, antibiotic synthesis; contains 1 condensation domain, 1 AMP-acid ligases II domain&lt;br&gt;Location: 6174 - 9353" locus_tag="RALTA_B1226" class="clusterblast-orf" id="dummy-2_h2_4_4"  />
</g>
<g id="a2_005"  >
<polygon points="215,90 327,90 332,85 327,80 215,80 215,90 " style="fill:white; stroke-width:1; stroke:black; " description="&lt;b&gt;RALTA_B1227&lt;/b&gt;&lt;br&gt;non ribosomal peptide synthase, antibiotic synthesis; contains 3 condensation domains, 2 AMP-acid ligases II domains, 2 PP-binding, Phosphopantetheine attachment site&lt;br&gt;Location: 9378 - 17168" locus_tag="RALTA_B1227" class="clusterblast-orf" id="dummy-2_h2_4_5"  />
</g>
<g id="a2_006"  >
<polygon points="332,90 506,90 511,85 506,80 332,80 332,90 " style="fill:white; stroke-width:1; stroke:black; " description="&lt;b&gt;RALTA_B1228&lt;/b&gt;&lt;br&gt;non ribosomal peptide synthase, antibiotic synthesis; contains 4 condensation domains, 3 AMP-acid ligases II domains, 3 PP-binding, Phosphopantetheine attachment site and a putative thioesterase domain&lt;br&gt;Location: 17169 - 29036" locus_tag="RALTA_B1228" class="clusterblast-orf" id="dummy-2_h2_4_6"  />
</g>
<g id="a2_007"  >
<polygon points="513,90 541,90 546,85 541,80 513,80 513,90 " style="fill:white; stroke-width:1; stroke:black; " description="&lt;b&gt;RALTA_B1229&lt;/b&gt;&lt;br&gt;TonB-dependent siderophore receptor, HYDROXAMATE-TYPE FERRISIDEROPHORE RECEPTOR precursor&lt;br&gt;Location: 29126 - 31342" locus_tag="RALTA_B1229" class="clusterblast-orf" id="dummy-2_h2_4_7"  />
</g>
<g id="a2_008"  >
<polygon points="547,90 560,90 565,85 560,80 547,80 547,90 " style="fill:white; stroke-width:1; stroke:black; " description="&lt;b&gt;RALTA_B1230&lt;/b&gt;&lt;br&gt;conserved hypothetical protein; putative Membrane protein; DUF337,Uncharacterized iron-regulated membrane protein&lt;br&gt;Location: 31421 - 32599" locus_tag="RALTA_B1230" class="clusterblast-orf" id="dummy-2_h2_4_8"  />
</g>
<g id="a2_009"  >
<polygon points="565,90 568,85 565,80 565,90 " style="fill:white; stroke-width:1; stroke:black; " description="&lt;b&gt;RALTA_B1231&lt;/b&gt;&lt;br&gt;hypothetical protein; putative exported protein&lt;br&gt;Location: 32596 - 32790" locus_tag="RALTA_B1231" class="clusterblast-orf" id="dummy-2_h2_4_9"  />
</g>
<g id="a2_0010"  >
<polygon points="567,85 572,80 579,80 579,90 572,90 567,85 " style="fill:white; stroke-width:1; stroke:black; " description="&lt;b&gt;RALTA_B1232&lt;/b&gt;&lt;br&gt;putative reductase; Uncharacterized Fe-S protein&lt;br&gt;Location: 32732 - 33523" locus_tag="RALTA_B1232" class="clusterblast-orf" id="dummy-2_h2_4_10"  />
</g>
<g id="a2_0011"  >
<polygon points="586,85 591,80 597,80 597,90 591,90 586,85 " style="fill:white; stroke-width:1; stroke:black; " description="&lt;b&gt;RALTA_B1233&lt;/b&gt;&lt;br&gt;Transposase fragment, IS1111 family&lt;br&gt;Location: 33971 - 34705" locus_tag="RALTA_B1233" class="clusterblast-orf" id="dummy-2_h2_4_11"  />
</g>
<g id="a2_0012"  >
<polygon points="605,90 624,90 629,85 624,80 605,80 605,90 " style="fill:white; stroke-width:1; stroke:black; " description="&lt;b&gt;RALTA_B1234&lt;/b&gt;&lt;br&gt;ABC transporter ATP-binding protein, putative ABC-type siderophore export system&lt;br&gt;Location: 35229 - 36869" locus_tag="RALTA_B1234" class="clusterblast-orf" id="dummy-2_h2_4_12"  />
</g>
<g id="a2_0013"  >
<polygon points="629,90 640,90 645,85 640,80 629,80 629,90 " style="fill:white; stroke-width:1; stroke:black; " description="&lt;b&gt;RALTA_B1235&lt;/b&gt;&lt;br&gt;putative ESTERASE/LIPASE PROTEIN&lt;br&gt;Location: 36866 - 37921" locus_tag="RALTA_B1235" class="clusterblast-orf" id="dummy-2_h2_4_13"  />
</g>
<g id="a2_0014"  >
<polygon points="646,90 657,90 662,85 657,80 646,80 646,90 " style="fill:#d81515; stroke-width:1; stroke:black; " description="&lt;b&gt;RALTA_B1236&lt;/b&gt;&lt;br&gt;siderophore biosynthesis protein, putative acetyltransferase&lt;br&gt;Location: 37983 - 39065&lt;br&gt;&lt;br&gt;&lt;b&gt;BlastP hit with ctg1_965&lt;/b&gt;&lt;br&gt;Percentage identity: 53&lt;br&gt;Percentage coverage: 65&lt;br&gt;BLAST bit score: 252&lt;br&gt;E-value: 7.6e-67" locus_tag="RALTA_B1236" class="clusterblast-orf" id="dummy-2_h2_4_14"  />
</g>
<g id="a2_0015"  >
<polygon points="662,90 678,90 683,85 678,80 662,80 662,90 " style="fill:white; stroke-width:1; stroke:black; " description="&lt;b&gt;RALTA_B1237&lt;/b&gt;&lt;br&gt;L-ornithine 5-monooxygenase(L-ornithine N5-oxygenase) L-lysine 6-monooxygenase (Lysine N(6)-hydroxylase); Siderophore biosynthesis protein&lt;br&gt;Location: 39062 - 40420" locus_tag="RALTA_B1237" class="clusterblast-orf" id="dummy-2_h2_4_15"  />
</g>
<g id="a2_0016"  >
<polygon points="682,85 687,80 694,80 694,90 687,90 682,85 " style="fill:white; stroke-width:1; stroke:black; " description="&lt;b&gt;RALTA_B1238&lt;/b&gt;&lt;br&gt;4'-phosphopantetheinyl transferase&lt;br&gt;Location: 40384 - 41172" locus_tag="RALTA_B1238" class="clusterblast-orf" id="dummy-2_h2_4_16"  />
</g>
<g id="a2_0017"  >
<polygon points="697,90 701,90 706,85 701,80 697,80 697,90 " style="fill:#67d815; stroke-width:1; stroke:black; " description="&lt;b&gt;RALTA_B1239&lt;/b&gt;&lt;br&gt;RNA polymerase sigma factor&lt;br&gt;Location: 41352 - 41930&lt;br&gt;&lt;br&gt;&lt;b&gt;BlastP hit with ctg1_966&lt;/b&gt;&lt;br&gt;Percentage identity: 58&lt;br&gt;Percentage coverage: 86&lt;br&gt;BLAST bit score: 169&lt;br&gt;E-value: 6e-42" locus_tag="RALTA_B1239" class="clusterblast-orf" id="dummy-2_h2_4_17"  />
</g>
</svg>
