<svg xmlns="http://www.w3.org/2000/svg" xmlns:xlink="http://www.w3.org/1999/xlink" version="1.1" x="0" y="0" height="230" width="800" viewBox="0 0 800 230" preserveAspectRatio="none"  >
<g label="Query sequence" class="clusterblast-cluster"  >
<text x="5" y="20" class="clusterblast-acc"  >
Query sequence</text>
<line x1="10" y1="35" x2="778.0" y2="35" style="stroke-width:1; stroke:grey; "  />
<polygon points="0,35 5,30 6,30 6,40 5,40 0,35 " style="fill:white; stroke-width:1; stroke:black; " description="&lt;b&gt;ctg6_147&lt;/b&gt;&lt;br&gt;ctg6 147&lt;br&gt;Location: 179074 - 179695" locus_tag="ctg6_147" class="clusterblast-orf" id="dummy-1_q0_0_all"  />
<polygon points="10,35 15,30 37,30 37,40 15,40 10,35 " style="fill:#d81515; stroke-width:1; stroke:black; " description="&lt;b&gt;ctg6_148&lt;/b&gt;&lt;br&gt;ctg6 148&lt;br&gt;Location: 180036 - 182742" locus_tag="ctg6_148" class="clusterblast-orf" id="dummy-1_q1_0_all"  />
<polygon points="43,35 48,30 56,30 56,40 48,40 43,35 " style="fill:#60d815; stroke-width:1; stroke:black; " description="&lt;b&gt;ctg6_149&lt;/b&gt;&lt;br&gt;ctg6 149&lt;br&gt;Location: 183246 - 184584" locus_tag="ctg6_149" class="clusterblast-orf" id="dummy-1_q2_0_all"  />
<polygon points="58,35 63,30 63,30 63,40 63,40 58,35 " style="fill:#15abd8; stroke-width:1; stroke:black; " description="&lt;b&gt;ctg6_150&lt;/b&gt;&lt;br&gt;ctg6 150&lt;br&gt;Location: 184716 - 185199" locus_tag="ctg6_150" class="clusterblast-orf" id="dummy-1_q3_0_all"  />
<polygon points="66,40 73,40 78,35 73,30 66,30 66,40 " style="fill:#8d15d8; stroke-width:1; stroke:black; " description="&lt;b&gt;ctg6_151&lt;/b&gt;&lt;br&gt;ctg6 151&lt;br&gt;Location: 185519 - 186692" locus_tag="ctg6_151" class="clusterblast-orf" id="dummy-1_q4_0_all"  />
<polygon points="78,40 94,40 99,35 94,30 78,30 78,40 " style="fill:#d84215; stroke-width:1; stroke:black; " description="&lt;b&gt;ctg6_152&lt;/b&gt;&lt;br&gt;ctg6 152&lt;br&gt;Location: 186692 - 188666" locus_tag="ctg6_152" class="clusterblast-orf" id="dummy-1_q5_0_all"  />
<polygon points="99,40 108,40 113,35 108,30 99,30 99,40 " style="fill:#33d815; stroke-width:1; stroke:black; " description="&lt;b&gt;ctg6_153&lt;/b&gt;&lt;br&gt;ctg6 153&lt;br&gt;Location: 188673 - 190068" locus_tag="ctg6_153" class="clusterblast-orf" id="dummy-1_q6_0_all"  />
<polygon points="117,35 122,30 134,30 134,40 122,40 117,35 " style="fill:#157ed8; stroke-width:1; stroke:black; " description="&lt;b&gt;ctg6_154&lt;/b&gt;&lt;br&gt;ctg6 154&lt;br&gt;Location: 190471 - 192100" locus_tag="ctg6_154" class="clusterblast-orf" id="dummy-1_q7_0_all"  />
<polygon points="136,40 145,40 150,35 145,30 136,30 136,40 " style="fill:#ba15d8; stroke-width:1; stroke:black; " description="&lt;b&gt;ctg6_155&lt;/b&gt;&lt;br&gt;ctg6 155&lt;br&gt;Location: 192332 - 193703" locus_tag="ctg6_155" class="clusterblast-orf" id="dummy-1_q8_0_all"  />
<polygon points="150,40 159,40 164,35 159,30 150,30 150,40 " style="fill:#d86f15; stroke-width:1; stroke:black; " description="&lt;b&gt;ctg6_156&lt;/b&gt;&lt;br&gt;ctg6 156&lt;br&gt;Location: 193699 - 194983" locus_tag="ctg6_156" class="clusterblast-orf" id="dummy-1_q9_0_all"  />
<polygon points="166,40 170,40 175,35 170,30 166,30 166,40 " style="fill:#15d824; stroke-width:1; stroke:black; " description="&lt;b&gt;ctg6_157&lt;/b&gt;&lt;br&gt;ctg6 157&lt;br&gt;Location: 195221 - 196109" locus_tag="ctg6_157" class="clusterblast-orf" id="dummy-1_q10_0_all"  />
<polygon points="177,40 189,40 194,35 189,30 177,30 177,40 " style="fill:#1551d8; stroke-width:1; stroke:black; " description="&lt;b&gt;ctg6_158&lt;/b&gt;&lt;br&gt;ctg6 158&lt;br&gt;Location: 196239 - 197898" locus_tag="ctg6_158" class="clusterblast-orf" id="dummy-1_q11_0_all"  />
<polygon points="194,40 233,40 238,35 233,30 194,30 194,40 " style="fill:#d815c9; stroke-width:1; stroke:black; " description="&lt;b&gt;ctg6_159&lt;/b&gt;&lt;br&gt;ctg6 159&lt;br&gt;Location: 197962 - 202165" locus_tag="ctg6_159" class="clusterblast-orf" id="dummy-1_q12_0_all"  />
<polygon points="243,35 246,30 246,40 243,35 " style="fill:white; stroke-width:1; stroke:black; " description="&lt;b&gt;ctg6_160&lt;/b&gt;&lt;br&gt;ctg6 160&lt;br&gt;Location: 202628 - 202997" locus_tag="ctg6_160" class="clusterblast-orf" id="dummy-1_q13_0_all"  />
<polygon points="254,35 259,30 280,30 280,40 259,40 254,35 " style="fill:white; stroke-width:1; stroke:black; " description="&lt;b&gt;ctg6_161&lt;/b&gt;&lt;br&gt;ctg6 161&lt;br&gt;Location: 203761 - 206242" locus_tag="ctg6_161" class="clusterblast-orf" id="dummy-1_q14_0_all"  />
<polygon points="286,35 291,30 319,30 319,40 291,40 286,35 " style="fill:white; stroke-width:1; stroke:black; " description="&lt;b&gt;ctg6_162&lt;/b&gt;&lt;br&gt;ctg6 162&lt;br&gt;Location: 206833 - 210055" locus_tag="ctg6_162" class="clusterblast-orf" id="dummy-1_q15_0_all"  />
<polygon points="319,35 324,30 459,30 459,40 324,40 319,35 " style="fill:#d89c15; stroke-width:1; stroke:black; " description="&lt;b&gt;ctg6_163&lt;/b&gt;&lt;br&gt;ctg6 163&lt;br&gt;Location: 210051 - 223575" locus_tag="ctg6_163" class="clusterblast-orf" id="dummy-1_q16_0_all"  />
<polygon points="459,35 464,30 586,30 586,40 464,40 459,35 " style="fill:#d89c15; stroke-width:1; stroke:black; " description="&lt;b&gt;ctg6_164&lt;/b&gt;&lt;br&gt;ctg6 164&lt;br&gt;Location: 223592 - 235946" locus_tag="ctg6_164" class="clusterblast-orf" id="dummy-1_q17_0_all"  />
<polygon points="589,35 594,30 596,30 596,40 594,40 589,35 " style="fill:#15d851; stroke-width:1; stroke:black; " description="&lt;b&gt;ctg6_165&lt;/b&gt;&lt;br&gt;ctg6 165&lt;br&gt;Location: 236194 - 236929" locus_tag="ctg6_165" class="clusterblast-orf" id="dummy-1_q18_0_all"  />
<polygon points="598,40 604,40 609,35 604,30 598,30 598,40 " style="fill:white; stroke-width:1; stroke:black; " description="&lt;b&gt;ctg6_166&lt;/b&gt;&lt;br&gt;ctg6 166&lt;br&gt;Location: 237061 - 238195" locus_tag="ctg6_166" class="clusterblast-orf" id="dummy-1_q19_0_all"  />
<polygon points="611,35 616,30 623,30 623,40 616,40 611,35 " style="fill:#1524d8; stroke-width:1; stroke:black; " description="&lt;b&gt;ctg6_167&lt;/b&gt;&lt;br&gt;ctg6 167&lt;br&gt;Location: 238308 - 239481" locus_tag="ctg6_167" class="clusterblast-orf" id="dummy-1_q20_0_all"  />
<polygon points="625,40 628,40 633,35 628,30 625,30 625,40 " style="fill:#d8159c; stroke-width:1; stroke:black; " description="&lt;b&gt;ctg6_168&lt;/b&gt;&lt;br&gt;ctg6 168&lt;br&gt;Location: 239709 - 240510" locus_tag="ctg6_168" class="clusterblast-orf" id="dummy-1_q21_0_all"  />
<polygon points="633,40 647,40 652,35 647,30 633,30 633,40 " style="fill:#d8c915; stroke-width:1; stroke:black; " description="&lt;b&gt;ctg6_169&lt;/b&gt;&lt;br&gt;ctg6 169&lt;br&gt;Location: 240502 - 242329" locus_tag="ctg6_169" class="clusterblast-orf" id="dummy-1_q22_0_all"  />
<polygon points="658,40 662,35 658,30 658,40 " style="fill:white; stroke-width:1; stroke:black; " description="&lt;b&gt;ctg6_170&lt;/b&gt;&lt;br&gt;ctg6 170&lt;br&gt;Location: 242874 - 243264" locus_tag="ctg6_170" class="clusterblast-orf" id="dummy-1_q23_0_all"  />
<polygon points="663,40 671,40 676,35 671,30 663,30 663,40 " style="fill:white; stroke-width:1; stroke:black; " description="&lt;b&gt;ctg6_171&lt;/b&gt;&lt;br&gt;ctg6 171&lt;br&gt;Location: 243399 - 244644" locus_tag="ctg6_171" class="clusterblast-orf" id="dummy-1_q24_0_all"  />
<polygon points="677,40 681,40 686,35 681,30 677,30 677,40 " style="fill:#15d87e; stroke-width:1; stroke:black; " description="&lt;b&gt;ctg6_172&lt;/b&gt;&lt;br&gt;ctg6 172&lt;br&gt;Location: 244758 - 245664" locus_tag="ctg6_172" class="clusterblast-orf" id="dummy-1_q25_0_all"  />
<polygon points="686,35 691,30 696,30 696,40 691,40 686,35 " style="fill:#3315d8; stroke-width:1; stroke:black; " description="&lt;b&gt;ctg6_173&lt;/b&gt;&lt;br&gt;ctg6 173&lt;br&gt;Location: 245617 - 246616" locus_tag="ctg6_173" class="clusterblast-orf" id="dummy-1_q26_0_all"  />
<polygon points="697,40 699,40 704,35 699,30 697,30 697,40 " style="fill:#d8156f; stroke-width:1; stroke:black; " description="&lt;b&gt;ctg6_174&lt;/b&gt;&lt;br&gt;ctg6 174&lt;br&gt;Location: 246708 - 247395" locus_tag="ctg6_174" class="clusterblast-orf" id="dummy-1_q27_0_all"  />
<polygon points="705,35 710,30 712,30 712,40 710,40 705,35 " style="fill:white; stroke-width:1; stroke:black; " description="&lt;b&gt;ctg6_175&lt;/b&gt;&lt;br&gt;ctg6 175&lt;br&gt;Location: 247489 - 248107" locus_tag="ctg6_175" class="clusterblast-orf" id="dummy-1_q28_0_all"  />
<polygon points="715,35 720,30 723,30 723,40 720,40 715,35 " style="fill:#bad815; stroke-width:1; stroke:black; " description="&lt;b&gt;ctg6_176&lt;/b&gt;&lt;br&gt;ctg6 176&lt;br&gt;Location: 248451 - 249252" locus_tag="ctg6_176" class="clusterblast-orf" id="dummy-1_q29_0_all"  />
<polygon points="723,35 728,30 728,30 728,40 728,40 723,35 " style="fill:#15d8ab; stroke-width:1; stroke:black; " description="&lt;b&gt;ctg6_177&lt;/b&gt;&lt;br&gt;ctg6 177&lt;br&gt;Location: 249252 - 249741" locus_tag="ctg6_177" class="clusterblast-orf" id="dummy-1_q30_0_all"  />
<polygon points="731,40 735,40 740,35 735,30 731,30 731,40 " style="fill:#6015d8; stroke-width:1; stroke:black; " description="&lt;b&gt;ctg6_178&lt;/b&gt;&lt;br&gt;ctg6 178&lt;br&gt;Location: 249938 - 250883" locus_tag="ctg6_178" class="clusterblast-orf" id="dummy-1_q31_0_all"  />
<polygon points="740,40 744,35 740,30 740,40 " style="fill:#6015d8; stroke-width:1; stroke:black; " description="&lt;b&gt;ctg6_179&lt;/b&gt;&lt;br&gt;ctg6 179&lt;br&gt;Location: 250875 - 251274" locus_tag="ctg6_179" class="clusterblast-orf" id="dummy-1_q32_0_all"  />
<polygon points="746,40 749,35 746,30 746,40 " style="fill:white; stroke-width:1; stroke:black; " description="&lt;b&gt;ctg6_180&lt;/b&gt;&lt;br&gt;ctg6 180&lt;br&gt;Location: 251446 - 251749" locus_tag="ctg6_180" class="clusterblast-orf" id="dummy-1_q33_0_all"  />
<polygon points="751,40 753,40 758,35 753,30 751,30 751,40 " style="fill:white; stroke-width:1; stroke:black; " description="&lt;b&gt;ctg6_181&lt;/b&gt;&lt;br&gt;ctg6 181&lt;br&gt;Location: 251877 - 252582" locus_tag="ctg6_181" class="clusterblast-orf" id="dummy-1_q34_0_all"  />
<polygon points="759,40 763,35 759,30 759,40 " style="fill:#d81542; stroke-width:1; stroke:black; " description="&lt;b&gt;ctg6_182&lt;/b&gt;&lt;br&gt;ctg6 182&lt;br&gt;Location: 252704 - 253106" locus_tag="ctg6_182" class="clusterblast-orf" id="dummy-1_q35_0_all"  />
<polygon points="764,35 769,30 776,30 776,40 769,40 764,35 " style="fill:#8dd815; stroke-width:1; stroke:black; " description="&lt;b&gt;ctg6_183&lt;/b&gt;&lt;br&gt;ctg6 183&lt;br&gt;Location: 253229 - 254348" locus_tag="ctg6_183" class="clusterblast-orf" id="dummy-1_q36_0_all"  />
<polygon points="776,35 780,30 780,40 776,35 " style="fill:#15d8d8; stroke-width:1; stroke:black; " description="&lt;b&gt;ctg6_184&lt;/b&gt;&lt;br&gt;ctg6 184&lt;br&gt;Location: 254372 - 254696" locus_tag="ctg6_184" class="clusterblast-orf" id="dummy-1_q37_0_all"  />
</g>
<g label="BGC0001189" description="BGC0001189_c1: taiwachelin (11% of genes show similarity), NRP" class="clusterblast-cluster"  >
<text x="5" y="70" class="clusterblast-acc"  >
<a xlink:href="https://mibig.secondarymetabolites.org/go/BGC0001189/1" target="_blank">BGC0001189</a>:                                                                      taiwachelin (11% of genes show similarity), NRP</text>
<line x1="10" y1="85" x2="778.0" y2="85" style="stroke-width:1; stroke:grey; "  />
</g>
<g id="a1_000"  >
<polygon points="173,85 178,80 179,80 179,90 178,90 173,85 " style="fill:white; stroke-width:1; stroke:black; " description="&lt;b&gt;RALTA_B1239&lt;/b&gt;&lt;br&gt;RNA polymerase sigma factor&lt;br&gt;Location: 41930 - 41352" locus_tag="RALTA_B1239" class="clusterblast-orf" id="dummy-1_h1_4_0"  />
</g>
<g id="a1_001"  >
<polygon points="181,90 184,90 189,85 184,80 181,80 181,90 " style="fill:white; stroke-width:1; stroke:black; " description="&lt;b&gt;RALTA_B1238&lt;/b&gt;&lt;br&gt;4'-phosphopantetheinyl transferase&lt;br&gt;Location: 41172 - 40384" locus_tag="RALTA_B1238" class="clusterblast-orf" id="dummy-1_h1_4_1"  />
</g>
<g id="a1_002"  >
<polygon points="189,85 194,80 203,80 203,90 194,90 189,85 " style="fill:#60d815; stroke-width:1; stroke:black; " description="&lt;b&gt;RALTA_B1237&lt;/b&gt;&lt;br&gt;L-ornithine 5-monooxygenase(L-ornithine N5-oxygenase) L-lysine 6-monooxygenase (Lysine N(6)-hydroxylase); Siderophore biosynthesis protein&lt;br&gt;Location: 40420 - 39062&lt;br&gt;&lt;br&gt;&lt;b&gt;BlastP hit with ctg6_149&lt;/b&gt;&lt;br&gt;Percentage identity: 60&lt;br&gt;Percentage coverage: 96&lt;br&gt;BLAST bit score: 536&lt;br&gt;E-value: 3.5e-152" locus_tag="RALTA_B1237" class="clusterblast-orf" id="dummy-1_h1_4_2"  />
</g>
<g id="a1_003"  >
<polygon points="203,85 208,80 214,80 214,90 208,90 203,85 " style="fill:white; stroke-width:1; stroke:black; " description="&lt;b&gt;RALTA_B1236&lt;/b&gt;&lt;br&gt;siderophore biosynthesis protein, putative acetyltransferase&lt;br&gt;Location: 39065 - 37983" locus_tag="RALTA_B1236" class="clusterblast-orf" id="dummy-1_h1_4_3"  />
</g>
<g id="a1_004"  >
<polygon points="215,85 220,80 225,80 225,90 220,90 215,85 " style="fill:white; stroke-width:1; stroke:black; " description="&lt;b&gt;RALTA_B1235&lt;/b&gt;&lt;br&gt;putative ESTERASE/LIPASE PROTEIN&lt;br&gt;Location: 37921 - 36866" locus_tag="RALTA_B1235" class="clusterblast-orf" id="dummy-1_h1_4_4"  />
</g>
<g id="a1_005"  >
<polygon points="225,85 230,80 242,80 242,90 230,90 225,85 " style="fill:white; stroke-width:1; stroke:black; " description="&lt;b&gt;RALTA_B1234&lt;/b&gt;&lt;br&gt;ABC transporter ATP-binding protein, putative ABC-type siderophore export system&lt;br&gt;Location: 36869 - 35229" locus_tag="RALTA_B1234" class="clusterblast-orf" id="dummy-1_h1_4_5"  />
</g>
<g id="a1_006"  >
<polygon points="248,90 250,90 255,85 250,80 248,80 248,90 " style="fill:white; stroke-width:1; stroke:black; " description="&lt;b&gt;RALTA_B1233&lt;/b&gt;&lt;br&gt;Transposase fragment, IS1111 family&lt;br&gt;Location: 34705 - 33971" locus_tag="RALTA_B1233" class="clusterblast-orf" id="dummy-1_h1_4_6"  />
</g>
<g id="a1_007"  >
<polygon points="260,90 263,90 268,85 263,80 260,80 260,90 " style="fill:white; stroke-width:1; stroke:black; " description="&lt;b&gt;RALTA_B1232&lt;/b&gt;&lt;br&gt;putative reductase; Uncharacterized Fe-S protein&lt;br&gt;Location: 33523 - 32732" locus_tag="RALTA_B1232" class="clusterblast-orf" id="dummy-1_h1_4_7"  />
</g>
<g id="a1_008"  >
<polygon points="268,85 270,80 270,90 268,85 " style="fill:white; stroke-width:1; stroke:black; " description="&lt;b&gt;RALTA_B1231&lt;/b&gt;&lt;br&gt;hypothetical protein; putative exported protein&lt;br&gt;Location: 32790 - 32596" locus_tag="RALTA_B1231" class="clusterblast-orf" id="dummy-1_h1_4_8"  />
</g>
<g id="a1_009"  >
<polygon points="270,85 275,80 282,80 282,90 275,90 270,85 " style="fill:white; stroke-width:1; stroke:black; " description="&lt;b&gt;RALTA_B1230&lt;/b&gt;&lt;br&gt;conserved hypothetical protein; putative Membrane protein; DUF337,Uncharacterized iron-regulated membrane protein&lt;br&gt;Location: 32599 - 31421" locus_tag="RALTA_B1230" class="clusterblast-orf" id="dummy-1_h1_4_9"  />
</g>
<g id="a1_0010"  >
<polygon points="282,85 287,80 305,80 305,90 287,90 282,85 " style="fill:white; stroke-width:1; stroke:black; " description="&lt;b&gt;RALTA_B1229&lt;/b&gt;&lt;br&gt;TonB-dependent siderophore receptor, HYDROXAMATE-TYPE FERRISIDEROPHORE RECEPTOR precursor&lt;br&gt;Location: 31342 - 29126" locus_tag="RALTA_B1229" class="clusterblast-orf" id="dummy-1_h1_4_10"  />
</g>
<g id="a1_0011"  >
<polygon points="306,85 311,80 429,80 429,90 311,90 306,85 " style="fill:white; stroke-width:1; stroke:black; " description="&lt;b&gt;RALTA_B1228&lt;/b&gt;&lt;br&gt;non ribosomal peptide synthase, antibiotic synthesis; contains 4 condensation domains, 3 AMP-acid ligases II domains, 3 PP-binding, Phosphopantetheine attachment site and a putative thioesterase domain&lt;br&gt;Location: 29036 - 17169" locus_tag="RALTA_B1228" class="clusterblast-orf" id="dummy-1_h1_4_11"  />
</g>
<g id="a1_0012"  >
<polygon points="429,85 434,80 509,80 509,90 434,90 429,85 " style="fill:#d89c15; stroke-width:1; stroke:black; " description="&lt;b&gt;RALTA_B1227&lt;/b&gt;&lt;br&gt;non ribosomal peptide synthase, antibiotic synthesis; contains 3 condensation domains, 2 AMP-acid ligases II domains, 2 PP-binding, Phosphopantetheine attachment site&lt;br&gt;Location: 17168 - 9378&lt;br&gt;&lt;br&gt;&lt;b&gt;BlastP hit with ctg6_163&lt;/b&gt;&lt;br&gt;Percentage identity: 48&lt;br&gt;Percentage coverage: 58&lt;br&gt;BLAST bit score: 2121&lt;br&gt;E-value: 0.0" locus_tag="RALTA_B1227" class="clusterblast-orf" id="dummy-1_h1_4_12"  />
</g>
<g id="a1_0013"  >
<polygon points="509,85 514,80 542,80 542,90 514,90 509,85 " style="fill:white; stroke-width:1; stroke:black; " description="&lt;b&gt;RALTA_B1226&lt;/b&gt;&lt;br&gt;non ribosomal peptide synthase, antibiotic synthesis; contains 1 condensation domain, 1 AMP-acid ligases II domain&lt;br&gt;Location: 9353 - 6174" locus_tag="RALTA_B1226" class="clusterblast-orf" id="dummy-1_h1_4_13"  />
</g>
<g id="a1_0014"  >
<polygon points="542,85 547,80 589,80 589,90 547,90 542,85 " style="fill:white; stroke-width:1; stroke:black; " description="&lt;b&gt;RALTA_B1225&lt;/b&gt;&lt;br&gt;non ribosomal peptide synthase, antibiotic synthesis; contains 1 condensation domain, 1 AMP-acid ligases II domain, PP-binding, Phosphopantetheine attachment site and one taurine catabolism dioxygenase&lt;br&gt;Location: 6169 - 1649" locus_tag="RALTA_B1225" class="clusterblast-orf" id="dummy-1_h1_4_14"  />
</g>
<g id="a1_0015"  >
<polygon points="589,85 594,80 597,80 597,90 594,90 589,85 " style="fill:white; stroke-width:1; stroke:black; " description="&lt;b&gt;RALTA_B1224&lt;/b&gt;&lt;br&gt;Linear gramicidin dehydrogenase, type II thioesterase&lt;br&gt;Location: 1592 - 858" locus_tag="RALTA_B1224" class="clusterblast-orf" id="dummy-1_h1_4_15"  />
</g>
<g id="a1_0016"  >
<polygon points="597,85 599,80 599,90 597,85 " style="fill:white; stroke-width:1; stroke:black; " description="&lt;b&gt;RALTA_B1223&lt;/b&gt;&lt;br&gt;conserved hypothetical protein, mbtH-like&lt;br&gt;Location: 855 - 634" locus_tag="RALTA_B1223" class="clusterblast-orf" id="dummy-1_h1_4_16"  />
</g>
<g id="a1_0017"  >
<polygon points="601,85 606,80 606,80 606,90 606,90 601,85 " style="fill:white; stroke-width:1; stroke:black; " description="&lt;b&gt;RALTA_B1222&lt;/b&gt;&lt;br&gt;putative cyclase/dehydrase; putatively involved in polyketide (linear poly-beta-ketones) synthesis; antibiotic biosynthesis&lt;br&gt;Location: 417 - 1" locus_tag="RALTA_B1222" class="clusterblast-orf" id="dummy-1_h1_4_17"  />
</g>
</svg>
