<svg xmlns="http://www.w3.org/2000/svg" xmlns:xlink="http://www.w3.org/1999/xlink" version="1.1" x="0" y="0" height="230" width="800" viewBox="0 0 800 230" preserveAspectRatio="none"  >
<g label="Query sequence" class="clusterblast-cluster"  >
<text x="5" y="20" class="clusterblast-acc"  >
Query sequence</text>
<line x1="10" y1="35" x2="778.0" y2="35" style="stroke-width:1; stroke:grey; "  />
<polygon points="0,35 5,30 13,30 13,40 5,40 0,35 " style="fill:white; stroke-width:1; stroke:black; " description="&lt;b&gt;ctg1_947&lt;/b&gt;&lt;br&gt;ctg1 947&lt;br&gt;Location: 1045973 - 1046867" locus_tag="ctg1_947" class="clusterblast-orf" id="dummy-2_q0_0_all"  />
<polygon points="13,40 16,35 13,30 13,40 " style="fill:white; stroke-width:1; stroke:black; " description="&lt;b&gt;ctg1_948&lt;/b&gt;&lt;br&gt;ctg1 948&lt;br&gt;Location: 1046885 - 1047053" locus_tag="ctg1_948" class="clusterblast-orf" id="dummy-2_q1_0_all"  />
<polygon points="21,35 26,30 28,30 28,40 26,40 21,35 " style="fill:white; stroke-width:1; stroke:black; " description="&lt;b&gt;ctg1_949&lt;/b&gt;&lt;br&gt;ctg1 949&lt;br&gt;Location: 1047381 - 1047852" locus_tag="ctg1_949" class="clusterblast-orf" id="dummy-2_q2_0_all"  />
<polygon points="35,40 44,40 49,35 44,30 35,30 35,40 " style="fill:white; stroke-width:1; stroke:black; " description="&lt;b&gt;ctg1_950&lt;/b&gt;&lt;br&gt;ctg1 950&lt;br&gt;Location: 1048295 - 1049231" locus_tag="ctg1_950" class="clusterblast-orf" id="dummy-2_q3_0_all"  />
<polygon points="51,40 59,40 64,35 59,30 51,30 51,40 " style="fill:white; stroke-width:1; stroke:black; " description="&lt;b&gt;ctg1_951&lt;/b&gt;&lt;br&gt;ctg1 951&lt;br&gt;Location: 1049408 - 1050215" locus_tag="ctg1_951" class="clusterblast-orf" id="dummy-2_q4_0_all"  />
<polygon points="65,35 69,30 69,40 65,35 " style="fill:white; stroke-width:1; stroke:black; " description="&lt;b&gt;ctg1_952&lt;/b&gt;&lt;br&gt;ctg1 952&lt;br&gt;Location: 1050289 - 1050574" locus_tag="ctg1_952" class="clusterblast-orf" id="dummy-2_q5_0_all"  />
<polygon points="70,35 75,30 78,30 78,40 75,40 70,35 " style="fill:white; stroke-width:1; stroke:black; " description="&lt;b&gt;ctg1_953&lt;/b&gt;&lt;br&gt;ctg1 953&lt;br&gt;Location: 1050644 - 1051187" locus_tag="ctg1_953" class="clusterblast-orf" id="dummy-2_q6_0_all"  />
<polygon points="79,35 84,30 109,30 109,40 84,40 79,35 " style="fill:white; stroke-width:1; stroke:black; " description="&lt;b&gt;ctg1_954&lt;/b&gt;&lt;br&gt;ctg1 954&lt;br&gt;Location: 1051258 - 1053220" locus_tag="ctg1_954" class="clusterblast-orf" id="dummy-2_q7_0_all"  />
<polygon points="111,35 116,30 123,30 123,40 116,40 111,35 " style="fill:white; stroke-width:1; stroke:black; " description="&lt;b&gt;ctg1_955&lt;/b&gt;&lt;br&gt;ctg1 955&lt;br&gt;Location: 1053329 - 1054127" locus_tag="ctg1_955" class="clusterblast-orf" id="dummy-2_q8_0_all"  />
<polygon points="123,35 128,30 140,30 140,40 128,40 123,35 " style="fill:white; stroke-width:1; stroke:black; " description="&lt;b&gt;ctg1_956&lt;/b&gt;&lt;br&gt;ctg1 956&lt;br&gt;Location: 1054123 - 1055281" locus_tag="ctg1_956" class="clusterblast-orf" id="dummy-2_q9_0_all"  />
<polygon points="140,35 145,30 165,30 165,40 145,40 140,35 " style="fill:white; stroke-width:1; stroke:black; " description="&lt;b&gt;ctg1_957&lt;/b&gt;&lt;br&gt;ctg1 957&lt;br&gt;Location: 1055304 - 1056921" locus_tag="ctg1_957" class="clusterblast-orf" id="dummy-2_q10_0_all"  />
<polygon points="165,35 170,30 178,30 178,40 170,40 165,35 " style="fill:white; stroke-width:1; stroke:black; " description="&lt;b&gt;ctg1_958&lt;/b&gt;&lt;br&gt;ctg1 958&lt;br&gt;Location: 1056924 - 1057809" locus_tag="ctg1_958" class="clusterblast-orf" id="dummy-2_q11_0_all"  />
<polygon points="178,35 183,30 205,30 205,40 183,40 178,35 " style="fill:white; stroke-width:1; stroke:black; " description="&lt;b&gt;ctg1_959&lt;/b&gt;&lt;br&gt;ctg1 959&lt;br&gt;Location: 1057821 - 1059624" locus_tag="ctg1_959" class="clusterblast-orf" id="dummy-2_q12_0_all"  />
<polygon points="208,40 213,40 218,35 213,30 208,30 208,40 " style="fill:white; stroke-width:1; stroke:black; " description="&lt;b&gt;ctg1_960&lt;/b&gt;&lt;br&gt;ctg1 960&lt;br&gt;Location: 1059802 - 1060429" locus_tag="ctg1_960" class="clusterblast-orf" id="dummy-2_q13_0_all"  />
<polygon points="219,40 226,40 231,35 226,30 219,30 219,40 " style="fill:white; stroke-width:1; stroke:black; " description="&lt;b&gt;ctg1_961&lt;/b&gt;&lt;br&gt;ctg1 961&lt;br&gt;Location: 1060521 - 1061316" locus_tag="ctg1_961" class="clusterblast-orf" id="dummy-2_q14_0_all"  />
<polygon points="233,40 241,40 246,35 241,30 233,30 233,40 " style="fill:white; stroke-width:1; stroke:black; " description="&lt;b&gt;ctg1_962&lt;/b&gt;&lt;br&gt;ctg1 962&lt;br&gt;Location: 1061450 - 1062287" locus_tag="ctg1_962" class="clusterblast-orf" id="dummy-2_q15_0_all"  />
<polygon points="246,40 248,35 246,30 246,40 " style="fill:white; stroke-width:1; stroke:black; " description="&lt;b&gt;ctg1_963&lt;/b&gt;&lt;br&gt;ctg1 963&lt;br&gt;Location: 1062293 - 1062425" locus_tag="ctg1_963" class="clusterblast-orf" id="dummy-2_q16_0_all"  />
<polygon points="250,40 257,40 262,35 257,30 250,30 250,40 " style="fill:white; stroke-width:1; stroke:black; " description="&lt;b&gt;ctg1_964&lt;/b&gt;&lt;br&gt;ctg1 964&lt;br&gt;Location: 1062559 - 1063393" locus_tag="ctg1_964" class="clusterblast-orf" id="dummy-2_q17_0_all"  />
<polygon points="265,40 275,40 280,35 275,30 265,30 265,40 " style="fill:#d81515; stroke-width:1; stroke:black; " description="&lt;b&gt;ctg1_965&lt;/b&gt;&lt;br&gt;ctg1 965&lt;br&gt;Location: 1063545 - 1064559" locus_tag="ctg1_965" class="clusterblast-orf" id="dummy-2_q18_0_all"  />
<polygon points="282,35 287,30 290,30 290,40 287,40 282,35 " style="fill:#67d815; stroke-width:1; stroke:black; " description="&lt;b&gt;ctg1_966&lt;/b&gt;&lt;br&gt;ctg1 966&lt;br&gt;Location: 1064693 - 1065242" locus_tag="ctg1_966" class="clusterblast-orf" id="dummy-2_q19_0_all"  />
<polygon points="296,40 487,40 492,35 487,30 296,30 296,40 " style="fill:#15b9d8; stroke-width:1; stroke:black; " description="&lt;b&gt;ctg1_967&lt;/b&gt;&lt;br&gt;ctg1 967&lt;br&gt;Location: 1065614 - 1078598" locus_tag="ctg1_967" class="clusterblast-orf" id="dummy-2_q20_0_all"  />
<polygon points="494,40 501,40 506,35 501,30 494,30 494,40 " style="fill:#a515d8; stroke-width:1; stroke:black; " description="&lt;b&gt;ctg1_968&lt;/b&gt;&lt;br&gt;ctg1 968&lt;br&gt;Location: 1078770 - 1079583" locus_tag="ctg1_968" class="clusterblast-orf" id="dummy-2_q21_0_all"  />
<polygon points="508,35 513,30 519,30 519,40 513,40 508,35 " style="fill:#d85315; stroke-width:1; stroke:black; " description="&lt;b&gt;ctg1_969&lt;/b&gt;&lt;br&gt;ctg1 969&lt;br&gt;Location: 1079675 - 1080446" locus_tag="ctg1_969" class="clusterblast-orf" id="dummy-2_q22_0_all"  />
<polygon points="519,35 524,30 532,30 532,40 524,40 519,35 " style="fill:#2ad815; stroke-width:1; stroke:black; " description="&lt;b&gt;ctg1_970&lt;/b&gt;&lt;br&gt;ctg1 970&lt;br&gt;Location: 1080421 - 1081288" locus_tag="ctg1_970" class="clusterblast-orf" id="dummy-2_q23_0_all"  />
<polygon points="532,35 537,30 558,30 558,40 537,40 532,35 " style="fill:#157cd8; stroke-width:1; stroke:black; " description="&lt;b&gt;ctg1_971&lt;/b&gt;&lt;br&gt;ctg1 971&lt;br&gt;Location: 1081287 - 1083027" locus_tag="ctg1_971" class="clusterblast-orf" id="dummy-2_q24_0_all"  />
<polygon points="561,40 566,40 571,35 566,30 561,30 561,40 " style="fill:#d815ce; stroke-width:1; stroke:black; " description="&lt;b&gt;ctg1_972&lt;/b&gt;&lt;br&gt;ctg1 972&lt;br&gt;Location: 1083180 - 1083861" locus_tag="ctg1_972" class="clusterblast-orf" id="dummy-2_q25_0_all"  />
<polygon points="571,40 586,40 591,35 586,30 571,30 571,40 " style="fill:#d89015; stroke-width:1; stroke:black; " description="&lt;b&gt;ctg1_973&lt;/b&gt;&lt;br&gt;ctg1 973&lt;br&gt;Location: 1083857 - 1085183" locus_tag="ctg1_973" class="clusterblast-orf" id="dummy-2_q26_0_all"  />
<polygon points="594,40 596,40 601,35 596,30 594,30 594,40 " style="fill:white; stroke-width:1; stroke:black; " description="&lt;b&gt;ctg1_974&lt;/b&gt;&lt;br&gt;ctg1 974&lt;br&gt;Location: 1085400 - 1085886" locus_tag="ctg1_974" class="clusterblast-orf" id="dummy-2_q27_0_all"  />
<polygon points="604,40 620,40 625,35 620,30 604,30 604,40 " style="fill:#15d83e; stroke-width:1; stroke:black; " description="&lt;b&gt;ctg1_975&lt;/b&gt;&lt;br&gt;ctg1 975&lt;br&gt;Location: 1086029 - 1087442" locus_tag="ctg1_975" class="clusterblast-orf" id="dummy-2_q28_0_all"  />
<polygon points="626,40 630,35 626,30 626,40 " style="fill:#153ed8; stroke-width:1; stroke:black; " description="&lt;b&gt;ctg1_976&lt;/b&gt;&lt;br&gt;ctg1 976&lt;br&gt;Location: 1087524 - 1087752" locus_tag="ctg1_976" class="clusterblast-orf" id="dummy-2_q29_0_all"  />
<polygon points="632,35 637,30 647,30 647,40 637,40 632,35 " style="fill:#d81590; stroke-width:1; stroke:black; " description="&lt;b&gt;ctg1_977&lt;/b&gt;&lt;br&gt;ctg1 977&lt;br&gt;Location: 1087926 - 1088898" locus_tag="ctg1_977" class="clusterblast-orf" id="dummy-2_q30_0_all"  />
<polygon points="647,35 652,30 660,30 660,40 652,40 647,35 " style="fill:#d8ce15; stroke-width:1; stroke:black; " description="&lt;b&gt;ctg1_978&lt;/b&gt;&lt;br&gt;ctg1 978&lt;br&gt;Location: 1088898 - 1089798" locus_tag="ctg1_978" class="clusterblast-orf" id="dummy-2_q31_0_all"  />
<polygon points="660,35 665,30 673,30 673,40 665,40 660,35 " style="fill:#15d87c; stroke-width:1; stroke:black; " description="&lt;b&gt;ctg1_979&lt;/b&gt;&lt;br&gt;ctg1 979&lt;br&gt;Location: 1089797 - 1090661" locus_tag="ctg1_979" class="clusterblast-orf" id="dummy-2_q32_0_all"  />
<polygon points="673,35 678,30 687,30 687,40 678,40 673,35 " style="fill:#2a15d8; stroke-width:1; stroke:black; " description="&lt;b&gt;ctg1_980&lt;/b&gt;&lt;br&gt;ctg1 980&lt;br&gt;Location: 1090657 - 1091584" locus_tag="ctg1_980" class="clusterblast-orf" id="dummy-2_q33_0_all"  />
<polygon points="688,35 693,30 697,30 697,40 693,40 688,35 " style="fill:#d81553; stroke-width:1; stroke:black; " description="&lt;b&gt;ctg1_981&lt;/b&gt;&lt;br&gt;ctg1 981&lt;br&gt;Location: 1091619 - 1092192" locus_tag="ctg1_981" class="clusterblast-orf" id="dummy-2_q34_0_all"  />
<polygon points="697,35 702,30 702,30 702,40 702,40 697,35 " style="fill:#a5d815; stroke-width:1; stroke:black; " description="&lt;b&gt;ctg1_982&lt;/b&gt;&lt;br&gt;ctg1 982&lt;br&gt;Location: 1092194 - 1092524" locus_tag="ctg1_982" class="clusterblast-orf" id="dummy-2_q35_0_all"  />
<polygon points="701,35 706,30 710,30 710,40 706,40 701,35 " style="fill:#15d8b9; stroke-width:1; stroke:black; " description="&lt;b&gt;ctg1_983&lt;/b&gt;&lt;br&gt;ctg1 983&lt;br&gt;Location: 1092520 - 1093063" locus_tag="ctg1_983" class="clusterblast-orf" id="dummy-2_q36_0_all"  />
<polygon points="710,35 715,30 728,30 728,40 715,40 710,35 " style="fill:#6715d8; stroke-width:1; stroke:black; " description="&lt;b&gt;ctg1_984&lt;/b&gt;&lt;br&gt;ctg1 984&lt;br&gt;Location: 1093059 - 1094262" locus_tag="ctg1_984" class="clusterblast-orf" id="dummy-2_q37_0_all"  />
<polygon points="734,40 751,40 756,35 751,30 734,30 734,40 " style="fill:white; stroke-width:1; stroke:black; " description="&lt;b&gt;ctg1_985&lt;/b&gt;&lt;br&gt;ctg1 985&lt;br&gt;Location: 1094682 - 1096104" locus_tag="ctg1_985" class="clusterblast-orf" id="dummy-2_q38_0_all"  />
<polygon points="755,40 760,40 765,35 760,30 755,30 755,40 " style="fill:white; stroke-width:1; stroke:black; " description="&lt;b&gt;ctg1_986&lt;/b&gt;&lt;br&gt;ctg1 986&lt;br&gt;Location: 1096100 - 1096712" locus_tag="ctg1_986" class="clusterblast-orf" id="dummy-2_q39_0_all"  />
<polygon points="767,35 772,30 780,30 780,40 772,40 767,35 " style="fill:white; stroke-width:1; stroke:black; " description="&lt;b&gt;ctg1_987&lt;/b&gt;&lt;br&gt;ctg1 987&lt;br&gt;Location: 1096837 - 1097704" locus_tag="ctg1_987" class="clusterblast-orf" id="dummy-2_q40_0_all"  />
</g>
<g label="BGC0002001" description="BGC0002001_c1: crochelin A (15% of genes show similarity), NRP + Polyketide" class="clusterblast-cluster"  >
<text x="5" y="70" class="clusterblast-acc"  >
<a xlink:href="https://mibig.secondarymetabolites.org/go/BGC0002001/1" target="_blank">BGC0002001</a>:                                                                      crochelin A (15% of genes show similarity), NRP + Polyketide</text>
<line x1="10" y1="85" x2="778.0" y2="85" style="stroke-width:1; stroke:grey; "  />
</g>
<g id="a2_000"  >
<polygon points="11,90 14,85 11,80 11,90 " style="fill:#153ed8; stroke-width:1; stroke:black; " description="&lt;b&gt;Achr_RS19650&lt;/b&gt;&lt;br&gt;MbtH family protein&lt;br&gt;Location: 50175 - 49972&lt;br&gt;&lt;br&gt;&lt;b&gt;BlastP hit with ctg1_976&lt;/b&gt;&lt;br&gt;Percentage identity: 54&lt;br&gt;Percentage coverage: 87&lt;br&gt;BLAST bit score: 81&lt;br&gt;E-value: 6.8e-16" locus_tag="Achr_RS19650" class="clusterblast-orf" id="dummy-2_h2_2_0"  />
</g>
<g id="a2_001"  >
<polygon points="15,90 42,90 47,85 42,80 15,80 15,90 " style="fill:white; stroke-width:1; stroke:black; " description="&lt;b&gt;Achr_RS24430&lt;/b&gt;&lt;br&gt;non-ribosomal peptide synthetase&lt;br&gt;Location: 49899 - 47794" locus_tag="Achr_RS24430" class="clusterblast-orf" id="dummy-2_h2_2_1"  />
</g>
<g id="a2_002"  >
<polygon points="48,90 51,90 56,85 51,80 48,80 48,90 " style="fill:white; stroke-width:1; stroke:black; " description="&lt;b&gt;Achr_RS19640&lt;/b&gt;&lt;br&gt;hypothetical protein&lt;br&gt;Location: 47743 - 47222" locus_tag="Achr_RS19640" class="clusterblast-orf" id="dummy-2_h2_2_2"  />
</g>
<g id="a2_003"  >
<polygon points="58,90 72,90 77,85 72,80 58,80 58,90 " style="fill:white; stroke-width:1; stroke:black; " description="&lt;b&gt;Achr_RS19635&lt;/b&gt;&lt;br&gt;lysine N(6)-hydroxylase/L-ornithine N(5)-oxygenase family protein&lt;br&gt;Location: 47093 - 45792" locus_tag="Achr_RS19635" class="clusterblast-orf" id="dummy-2_h2_2_3"  />
</g>
<g id="a2_004"  >
<polygon points="81,85 86,80 87,80 87,90 86,90 81,85 " style="fill:white; stroke-width:1; stroke:black; " description="&lt;b&gt;Achr_RS19630&lt;/b&gt;&lt;br&gt;hypothetical protein&lt;br&gt;Location: 45540 - 45166" locus_tag="Achr_RS19630" class="clusterblast-orf" id="dummy-2_h2_2_4"  />
</g>
<g id="a2_005"  >
<polygon points="90,85 95,80 98,80 98,90 95,90 90,85 " style="fill:#67d815; stroke-width:1; stroke:black; " description="&lt;b&gt;Achr_RS19625&lt;/b&gt;&lt;br&gt;RNA polymerase factor sigma-70&lt;br&gt;Location: 44960 - 44415&lt;br&gt;&lt;br&gt;&lt;b&gt;BlastP hit with ctg1_966&lt;/b&gt;&lt;br&gt;Percentage identity: 70&lt;br&gt;Percentage coverage: 88&lt;br&gt;BLAST bit score: 221&lt;br&gt;E-value: 1e-57" locus_tag="Achr_RS19625" class="clusterblast-orf" id="dummy-2_h2_2_5"  />
</g>
<g id="a2_006"  >
<polygon points="102,85 107,80 123,80 123,90 107,90 102,85 " style="fill:white; stroke-width:1; stroke:black; " description="&lt;b&gt;Achr_RS19620&lt;/b&gt;&lt;br&gt;efflux transporter outer membrane subunit&lt;br&gt;Location: 44171 - 42738" locus_tag="Achr_RS19620" class="clusterblast-orf" id="dummy-2_h2_2_6"  />
</g>
<g id="a2_007"  >
<polygon points="125,85 130,80 142,80 142,90 130,90 125,85 " style="fill:white; stroke-width:1; stroke:black; " description="&lt;b&gt;Achr_RS19615&lt;/b&gt;&lt;br&gt;efflux RND transporter periplasmic adaptor subunit&lt;br&gt;Location: 42650 - 41499" locus_tag="Achr_RS19615" class="clusterblast-orf" id="dummy-2_h2_2_7"  />
</g>
<g id="a2_008"  >
<polygon points="144,85 149,80 151,80 151,90 149,90 144,85 " style="fill:white; stroke-width:1; stroke:black; " description="&lt;b&gt;Achr_RS19610&lt;/b&gt;&lt;br&gt;DUF4880 domain-containing protein&lt;br&gt;Location: 41354 - 40938" locus_tag="Achr_RS19610" class="clusterblast-orf" id="dummy-2_h2_2_8"  />
</g>
<g id="a2_009"  >
<polygon points="155,90 158,85 155,80 155,90 " style="fill:#153ed8; stroke-width:1; stroke:black; " description="&lt;b&gt;Achr_RS19605&lt;/b&gt;&lt;br&gt;MbtH family NRPS accessory protein&lt;br&gt;Location: 40650 - 40408&lt;br&gt;&lt;br&gt;&lt;b&gt;BlastP hit with ctg1_976&lt;/b&gt;&lt;br&gt;Percentage identity: 69&lt;br&gt;Percentage coverage: 96&lt;br&gt;BLAST bit score: 100&lt;br&gt;E-value: 1.1e-21" locus_tag="Achr_RS19605" class="clusterblast-orf" id="dummy-2_h2_2_9"  />
</g>
<g id="a2_0010"  >
<polygon points="159,90 165,90 170,85 165,80 159,80 159,90 " style="fill:white; stroke-width:1; stroke:black; " description="&lt;b&gt;Achr_RS19600&lt;/b&gt;&lt;br&gt;thioesterase&lt;br&gt;Location: 40397 - 39660" locus_tag="Achr_RS19600" class="clusterblast-orf" id="dummy-2_h2_2_10"  />
</g>
<g id="a2_0011"  >
<polygon points="171,90 181,90 186,85 181,80 171,80 171,90 " style="fill:white; stroke-width:1; stroke:black; " description="&lt;b&gt;Achr_RS19595&lt;/b&gt;&lt;br&gt;hypothetical protein&lt;br&gt;Location: 39578 - 38601" locus_tag="Achr_RS19595" class="clusterblast-orf" id="dummy-2_h2_2_11"  />
</g>
<g id="a2_0012"  >
<polygon points="186,90 261,90 266,85 261,80 186,80 186,90 " style="fill:white; stroke-width:1; stroke:black; " description="&lt;b&gt;Achr_RS19590&lt;/b&gt;&lt;br&gt;non-ribosomal peptide synthetase&lt;br&gt;Location: 38572 - 33275" locus_tag="Achr_RS19590" class="clusterblast-orf" id="dummy-2_h2_2_12"  />
</g>
<g id="a2_0013"  >
<polygon points="266,90 330,90 335,85 330,80 266,80 266,90 " style="fill:white; stroke-width:1; stroke:black; " description="&lt;b&gt;Achr_RS19585&lt;/b&gt;&lt;br&gt;type I polyketide synthase&lt;br&gt;Location: 33278 - 28716" locus_tag="Achr_RS19585" class="clusterblast-orf" id="dummy-2_h2_2_13"  />
</g>
<g id="a2_0014"  >
<polygon points="341,90 387,90 392,85 387,80 341,80 341,90 " style="fill:white; stroke-width:1; stroke:black; " description="&lt;b&gt;Achr_RS19580&lt;/b&gt;&lt;br&gt;non-ribosomal peptide synthetase&lt;br&gt;Location: 28274 - 24948" locus_tag="Achr_RS19580" class="clusterblast-orf" id="dummy-2_h2_2_14"  />
</g>
<g id="a2_0015"  >
<polygon points="392,90 504,90 509,85 504,80 392,80 392,90 " style="fill:white; stroke-width:1; stroke:black; " description="&lt;b&gt;Achr_RS19575&lt;/b&gt;&lt;br&gt;non-ribosomal peptide synthetase&lt;br&gt;Location: 24944 - 17133" locus_tag="Achr_RS19575" class="clusterblast-orf" id="dummy-2_h2_2_15"  />
</g>
<g id="a2_0016"  >
<polygon points="509,90 566,90 571,85 566,80 509,80 509,90 " style="fill:white; stroke-width:1; stroke:black; " description="&lt;b&gt;Achr_RS19570&lt;/b&gt;&lt;br&gt;amino acid adenylation domain-containing protein&lt;br&gt;Location: 17136 - 13069" locus_tag="Achr_RS19570" class="clusterblast-orf" id="dummy-2_h2_2_16"  />
</g>
<g id="a2_0017"  >
<polygon points="574,85 579,80 608,80 608,90 579,90 574,85 " style="fill:white; stroke-width:1; stroke:black; " description="&lt;b&gt;Achr_RS19560&lt;/b&gt;&lt;br&gt;TonB-dependent siderophore receptor&lt;br&gt;Location: 12854 - 10590" locus_tag="Achr_RS19560" class="clusterblast-orf" id="dummy-2_h2_2_17"  />
</g>
<g id="a2_0018"  >
<polygon points="609,85 614,80 631,80 631,90 614,90 609,85 " style="fill:#15d83e; stroke-width:1; stroke:black; " description="&lt;b&gt;Achr_RS19555&lt;/b&gt;&lt;br&gt;aminotransferase class III-fold pyridoxal phosphate-dependent enzyme&lt;br&gt;Location: 10524 - 9082&lt;br&gt;&lt;br&gt;&lt;b&gt;BlastP hit with ctg1_975&lt;/b&gt;&lt;br&gt;Percentage identity: 68&lt;br&gt;Percentage coverage: 99&lt;br&gt;BLAST bit score: 621&lt;br&gt;E-value: 8.7e-178" locus_tag="Achr_RS19555" class="clusterblast-orf" id="dummy-2_h2_2_18"  />
</g>
<g id="a2_0019"  >
<polygon points="636,90 644,90 649,85 644,80 636,80 636,90 " style="fill:white; stroke-width:1; stroke:black; " description="&lt;b&gt;Achr_RS19550&lt;/b&gt;&lt;br&gt;N(5)-hydroxyornithine transformylase PvdF&lt;br&gt;Location: 8716 - 7892" locus_tag="Achr_RS19550" class="clusterblast-orf" id="dummy-2_h2_2_19"  />
</g>
<g id="a2_0020"  >
<polygon points="649,90 660,90 665,85 660,80 649,80 649,90 " style="fill:white; stroke-width:1; stroke:black; " description="&lt;b&gt;Achr_RS19545&lt;/b&gt;&lt;br&gt;histone deacetylase family protein&lt;br&gt;Location: 7879 - 6836" locus_tag="Achr_RS19545" class="clusterblast-orf" id="dummy-2_h2_2_20"  />
</g>
<g id="a2_0021"  >
<polygon points="667,90 699,90 704,85 699,80 667,80 667,90 " style="fill:white; stroke-width:1; stroke:black; " description="&lt;b&gt;Achr_RS19540&lt;/b&gt;&lt;br&gt;penicillin acylase family protein&lt;br&gt;Location: 6663 - 4234" locus_tag="Achr_RS19540" class="clusterblast-orf" id="dummy-2_h2_2_21"  />
</g>
<g id="a2_0022"  >
<polygon points="706,90 726,90 731,85 726,80 706,80 706,90 " style="fill:white; stroke-width:1; stroke:black; " description="&lt;b&gt;Achr_RS19535&lt;/b&gt;&lt;br&gt;cyclic peptide export ABC transporter&lt;br&gt;Location: 4102 - 2441" locus_tag="Achr_RS19535" class="clusterblast-orf" id="dummy-2_h2_2_22"  />
</g>
<g id="a2_0023"  >
<polygon points="731,90 746,90 751,85 746,80 731,80 731,90 " style="fill:white; stroke-width:1; stroke:black; " description="&lt;b&gt;Achr_RS19530&lt;/b&gt;&lt;br&gt;PepSY domain-containing protein&lt;br&gt;Location: 2444 - 1101" locus_tag="Achr_RS19530" class="clusterblast-orf" id="dummy-2_h2_2_23"  />
</g>
<g id="a2_0024"  >
<polygon points="752,90 756,85 752,80 752,90 " style="fill:white; stroke-width:1; stroke:black; " description="&lt;b&gt;Achr_RS25415&lt;/b&gt;&lt;br&gt;hypothetical protein&lt;br&gt;Location: 1033 - 813" locus_tag="Achr_RS25415" class="clusterblast-orf" id="dummy-2_h2_2_24"  />
</g>
<g id="a2_0025"  >
<polygon points="756,85 761,80 768,80 768,90 761,90 756,85 " style="fill:white; stroke-width:1; stroke:black; " description="&lt;b&gt;Achr_RS19525&lt;/b&gt;&lt;br&gt;ATP-binding cassette domain-containing protein&lt;br&gt;Location: 768 - 1" locus_tag="Achr_RS19525" class="clusterblast-orf" id="dummy-2_h2_2_25"  />
</g>
</svg>
