<svg xmlns="http://www.w3.org/2000/svg" xmlns:xlink="http://www.w3.org/1999/xlink" version="1.1" x="0" y="0" height="230" width="800" viewBox="0 0 800 230" preserveAspectRatio="none"  >
<g label="Query sequence" class="clusterblast-cluster"  >
<text x="5" y="20" class="clusterblast-acc"  >
Query sequence</text>
<line x1="10" y1="35" x2="778.0" y2="35" style="stroke-width:1; stroke:grey; "  />
<polygon points="190,40 193,40 198,35 193,30 190,30 190,40 " style="fill:white; stroke-width:1; stroke:black; " description="&lt;b&gt;ctg3_16&lt;/b&gt;&lt;br&gt;ctg3 16&lt;br&gt;Location: 14210 - 14657" locus_tag="ctg3_16" class="clusterblast-orf" id="dummy-1_q0_0_all"  />
<polygon points="199,35 204,30 219,30 219,40 204,40 199,35 " style="fill:white; stroke-width:1; stroke:black; " description="&lt;b&gt;ctg3_17&lt;/b&gt;&lt;br&gt;ctg3 17&lt;br&gt;Location: 14694 - 15846" locus_tag="ctg3_17" class="clusterblast-orf" id="dummy-1_q1_0_all"  />
<polygon points="227,35 232,30 233,30 233,40 232,40 227,35 " style="fill:white; stroke-width:1; stroke:black; " description="&lt;b&gt;ctg3_18&lt;/b&gt;&lt;br&gt;ctg3 18&lt;br&gt;Location: 16328 - 16670" locus_tag="ctg3_18" class="clusterblast-orf" id="dummy-1_q2_0_all"  />
<polygon points="236,40 242,40 247,35 242,30 236,30 236,40 " style="fill:white; stroke-width:1; stroke:black; " description="&lt;b&gt;ctg3_19&lt;/b&gt;&lt;br&gt;ctg3 19&lt;br&gt;Location: 16800 - 17451" locus_tag="ctg3_19" class="clusterblast-orf" id="dummy-1_q3_0_all"  />
<polygon points="248,35 253,30 282,30 282,40 253,40 248,35 " style="fill:#d81515; stroke-width:1; stroke:black; " description="&lt;b&gt;ctg3_20&lt;/b&gt;&lt;br&gt;ctg3 20&lt;br&gt;Location: 17490 - 19440" locus_tag="ctg3_20" class="clusterblast-orf" id="dummy-1_q4_0_all"  />
<polygon points="282,35 287,30 296,30 296,40 287,40 282,35 " style="fill:white; stroke-width:1; stroke:black; " description="&lt;b&gt;ctg3_21&lt;/b&gt;&lt;br&gt;ctg3 21&lt;br&gt;Location: 19439 - 20252" locus_tag="ctg3_21" class="clusterblast-orf" id="dummy-1_q5_0_all"  />
<polygon points="298,35 303,30 326,30 326,40 303,40 298,35 " style="fill:white; stroke-width:1; stroke:black; " description="&lt;b&gt;ctg3_22&lt;/b&gt;&lt;br&gt;ctg3 22&lt;br&gt;Location: 20357 - 21965" locus_tag="ctg3_22" class="clusterblast-orf" id="dummy-1_q6_0_all"  />
<polygon points="327,35 332,30 347,30 347,40 332,40 327,35 " style="fill:white; stroke-width:1; stroke:black; " description="&lt;b&gt;ctg3_23&lt;/b&gt;&lt;br&gt;ctg3 23&lt;br&gt;Location: 21977 - 23141" locus_tag="ctg3_23" class="clusterblast-orf" id="dummy-1_q7_0_all"  />
<polygon points="353,40 378,40 383,35 378,30 353,30 353,40 " style="fill:#15d8d8; stroke-width:1; stroke:black; " description="&lt;b&gt;ctg3_24&lt;/b&gt;&lt;br&gt;ctg3 24&lt;br&gt;Location: 23480 - 25178" locus_tag="ctg3_24" class="clusterblast-orf" id="dummy-1_q8_0_all"  />
<polygon points="385,35 390,30 398,30 398,40 390,40 385,35 " style="fill:white; stroke-width:1; stroke:black; " description="&lt;b&gt;ctg3_25&lt;/b&gt;&lt;br&gt;ctg3 25&lt;br&gt;Location: 25316 - 26069" locus_tag="ctg3_25" class="clusterblast-orf" id="dummy-1_q9_0_all"  />
<polygon points="401,35 406,30 416,30 416,40 406,40 401,35 " style="fill:white; stroke-width:1; stroke:black; " description="&lt;b&gt;ctg3_26&lt;/b&gt;&lt;br&gt;ctg3 26&lt;br&gt;Location: 26190 - 27093" locus_tag="ctg3_26" class="clusterblast-orf" id="dummy-1_q10_0_all"  />
<polygon points="428,35 433,30 443,30 443,40 433,40 428,35 " style="fill:white; stroke-width:1; stroke:black; " description="&lt;b&gt;ctg3_27&lt;/b&gt;&lt;br&gt;ctg3 27&lt;br&gt;Location: 27727 - 28627" locus_tag="ctg3_27" class="clusterblast-orf" id="dummy-1_q11_0_all"  />
<polygon points="446,35 451,30 453,30 453,40 451,40 446,35 " style="fill:white; stroke-width:1; stroke:black; " description="&lt;b&gt;ctg3_28&lt;/b&gt;&lt;br&gt;ctg3 28&lt;br&gt;Location: 28763 - 29165" locus_tag="ctg3_28" class="clusterblast-orf" id="dummy-1_q12_0_all"  />
<polygon points="457,35 462,30 473,30 473,40 462,40 457,35 " style="fill:white; stroke-width:1; stroke:black; " description="&lt;b&gt;ctg3_29&lt;/b&gt;&lt;br&gt;ctg3 29&lt;br&gt;Location: 29378 - 30308" locus_tag="ctg3_29" class="clusterblast-orf" id="dummy-1_q13_0_all"  />
<polygon points="476,40 492,40 497,35 492,30 476,30 476,40 " style="fill:white; stroke-width:1; stroke:black; " description="&lt;b&gt;ctg3_30&lt;/b&gt;&lt;br&gt;ctg3 30&lt;br&gt;Location: 30462 - 31692" locus_tag="ctg3_30" class="clusterblast-orf" id="dummy-1_q14_0_all"  />
<polygon points="500,35 505,30 523,30 523,40 505,40 500,35 " style="fill:white; stroke-width:1; stroke:black; " description="&lt;b&gt;ctg3_31&lt;/b&gt;&lt;br&gt;ctg3 31&lt;br&gt;Location: 31846 - 33187" locus_tag="ctg3_31" class="clusterblast-orf" id="dummy-1_q15_0_all"  />
<polygon points="527,35 532,30 541,30 541,40 532,40 527,35 " style="fill:white; stroke-width:1; stroke:black; " description="&lt;b&gt;ctg3_32&lt;/b&gt;&lt;br&gt;ctg3 32&lt;br&gt;Location: 33379 - 34192" locus_tag="ctg3_32" class="clusterblast-orf" id="dummy-1_q16_0_all"  />
<polygon points="546,40 553,40 558,35 553,30 546,30 546,40 " style="fill:white; stroke-width:1; stroke:black; " description="&lt;b&gt;ctg3_33&lt;/b&gt;&lt;br&gt;ctg3 33&lt;br&gt;Location: 34490 - 35141" locus_tag="ctg3_33" class="clusterblast-orf" id="dummy-1_q17_0_all"  />
<polygon points="560,40 584,40 589,35 584,30 560,30 560,40 " style="fill:white; stroke-width:1; stroke:black; " description="&lt;b&gt;ctg3_34&lt;/b&gt;&lt;br&gt;ctg3 34&lt;br&gt;Location: 35242 - 36934" locus_tag="ctg3_34" class="clusterblast-orf" id="dummy-1_q18_0_all"  />
</g>
<g label="BGC0001103" description="BGC0001103_c1: mycosubtilin (20% of genes show similarity), NRP + Polyketide" class="clusterblast-cluster"  >
<text x="5" y="70" class="clusterblast-acc"  >
<a xlink:href="https://mibig.secondarymetabolites.org/go/BGC0001103/1" target="_blank">BGC0001103</a>:                                                                     mycosubtilin (20% of genes show similarity), NRP + Polyketide</text>
<line x1="10" y1="85" x2="778.0" y2="85" style="stroke-width:1; stroke:grey; "  />
</g>
<g id="a1_000"  >
<polygon points="0,90 16,90 21,85 16,80 0,80 0,90 " style="fill:white; stroke-width:1; stroke:black; " description="&lt;b&gt;AAF08794.1&lt;/b&gt;&lt;br&gt;FenF&lt;br&gt;Location: 1938 - 3140" locus_tag="AAF08794.1" class="clusterblast-orf" id="dummy-1_h1_3_0"  />
</g>
<g id="a1_001"  >
<polygon points="21,90 225,90 230,85 225,80 21,80 21,90 " style="fill:white; stroke-width:1; stroke:black; " description="&lt;b&gt;AAF08795.1&lt;/b&gt;&lt;br&gt;MycA&lt;br&gt;Location: 3161 - 15076" locus_tag="AAF08795.1" class="clusterblast-orf" id="dummy-1_h1_3_1"  />
</g>
<g id="a1_002"  >
<polygon points="231,90 509,90 514,85 509,80 231,80 231,90 " style="fill:white; stroke-width:1; stroke:black; " description="&lt;b&gt;AAF08796.1&lt;/b&gt;&lt;br&gt;MycB&lt;br&gt;Location: 15133 - 31242" locus_tag="AAF08796.1" class="clusterblast-orf" id="dummy-1_h1_3_2"  />
</g>
<g id="a1_003"  >
<polygon points="516,90 649,90 654,85 649,80 516,80 516,90 " style="fill:white; stroke-width:1; stroke:black; " description="&lt;b&gt;AAF08797.1&lt;/b&gt;&lt;br&gt;MycC&lt;br&gt;Location: 31340 - 39169" locus_tag="AAF08797.1" class="clusterblast-orf" id="dummy-1_h1_3_3"  />
</g>
<g id="a1_004"  >
<polygon points="657,90 658,90 663,85 658,80 657,80 657,90 " style="fill:white; stroke-width:1; stroke:black; " description="&lt;b&gt;AAF08798.1&lt;/b&gt;&lt;br&gt;YngL&lt;br&gt;Location: 39339 - 39731" locus_tag="AAF08798.1" class="clusterblast-orf" id="dummy-1_h1_3_4"  />
</g>
<g id="a1_005"  >
<polygon points="666,90 688,90 693,85 688,80 666,80 666,90 " style="fill:white; stroke-width:1; stroke:black; " description="&lt;b&gt;AAF08799.1&lt;/b&gt;&lt;br&gt;YngK&lt;br&gt;Location: 39886 - 41418" locus_tag="AAF08799.1" class="clusterblast-orf" id="dummy-1_h1_3_5"  />
</g>
<g id="a1_006"  >
<polygon points="702,90 717,90 722,85 717,80 702,80 702,90 " style="fill:white; stroke-width:1; stroke:black; " description="&lt;b&gt;AAF08800.1&lt;/b&gt;&lt;br&gt;YngJ&lt;br&gt;Location: 41925 - 43067" locus_tag="AAF08800.1" class="clusterblast-orf" id="dummy-1_h1_3_6"  />
</g>
<g id="a1_007"  >
<polygon points="723,90 747,90 752,85 747,80 723,80 723,90 " style="fill:#15d8d8; stroke-width:1; stroke:black; " description="&lt;b&gt;AAF08801.1&lt;/b&gt;&lt;br&gt;YngI&lt;br&gt;Location: 43110 - 44759&lt;br&gt;&lt;br&gt;&lt;b&gt;BlastP hit with ctg3_24&lt;/b&gt;&lt;br&gt;Percentage identity: 49&lt;br&gt;Percentage coverage: 95&lt;br&gt;BLAST bit score: 535&lt;br&gt;E-value: 9.9e-152" locus_tag="AAF08801.1" class="clusterblast-orf" id="dummy-1_h1_3_7"  />
</g>
<g id="a1_008"  >
<polygon points="752,90 770,90 775,85 770,80 752,80 752,90 " style="fill:#d81515; stroke-width:1; stroke:black; " description="&lt;b&gt;AAF08802.1&lt;/b&gt;&lt;br&gt;YngH&lt;br&gt;Location: 44769 - 46103&lt;br&gt;&lt;br&gt;&lt;b&gt;BlastP hit with ctg3_20&lt;/b&gt;&lt;br&gt;Percentage identity: 47&lt;br&gt;Percentage coverage: 69&lt;br&gt;BLAST bit score: 400&lt;br&gt;E-value: 5.7e-111" locus_tag="AAF08802.1" class="clusterblast-orf" id="dummy-1_h1_3_8"  />
</g>
<g id="a1_009"  >
<polygon points="776,90 779,85 776,80 776,90 " style="fill:white; stroke-width:1; stroke:black; " description="&lt;b&gt;AAF08803.1&lt;/b&gt;&lt;br&gt;YngXX&lt;br&gt;Location: 46118 - 46339" locus_tag="AAF08803.1" class="clusterblast-orf" id="dummy-1_h1_3_9"  />
</g>
</svg>
