<svg xmlns="http://www.w3.org/2000/svg" xmlns:xlink="http://www.w3.org/1999/xlink" version="1.1" x="0" y="0" height="50" width="800" viewBox="0 0 800 50" preserveAspectRatio="none"  >
<g label="Query sequence" class="clusterblast-cluster"  >
<text x="5" y="20" class="clusterblast-acc"  >
Query sequence</text>
<line x1="10" y1="35" x2="778.0" y2="35" style="stroke-width:1; stroke:grey; "  />
<polygon points="0,40 115,40 120,35 115,30 0,30 0,40 " style="fill:white; stroke-width:1; stroke:black; " description="&lt;b&gt;ctg1_736&lt;/b&gt;&lt;br&gt;ctg1 736&lt;br&gt;Location: 811806 - 813900" locus_tag="ctg1_736" class="clusterblast-orf" id="knownclusterblast-1_q0_0_all"  />
<polygon points="124,35 129,30 133,30 133,40 129,40 124,35 " style="fill:white; stroke-width:1; stroke:black; " description="&lt;b&gt;ctg1_737&lt;/b&gt;&lt;br&gt;ctg1 737&lt;br&gt;Location: 813962 - 814115" locus_tag="ctg1_737" class="clusterblast-orf" id="knownclusterblast-1_q1_0_all"  />
<polygon points="156,40 198,40 203,35 198,30 156,30 156,40 " style="fill:white; stroke-width:1; stroke:black; " description="&lt;b&gt;ctg1_738&lt;/b&gt;&lt;br&gt;ctg1 738&lt;br&gt;Location: 814519 - 815335" locus_tag="ctg1_738" class="clusterblast-orf" id="knownclusterblast-1_q2_0_all"  />
<polygon points="206,40 221,40 226,35 221,30 206,30 206,40 " style="fill:white; stroke-width:1; stroke:black; " description="&lt;b&gt;ctg1_739&lt;/b&gt;&lt;br&gt;ctg1 739&lt;br&gt;Location: 815399 - 815732" locus_tag="ctg1_739" class="clusterblast-orf" id="knownclusterblast-1_q3_0_all"  />
<polygon points="234,40 240,40 245,35 240,30 234,30 234,40 " style="fill:white; stroke-width:1; stroke:black; " description="&lt;b&gt;ctg1_740&lt;/b&gt;&lt;br&gt;ctg1 740&lt;br&gt;Location: 815885 - 816071" locus_tag="ctg1_740" class="clusterblast-orf" id="knownclusterblast-1_q4_0_all"  />
<polygon points="245,35 250,30 258,30 258,40 250,40 245,35 " style="fill:white; stroke-width:1; stroke:black; " description="&lt;b&gt;ctg1_741&lt;/b&gt;&lt;br&gt;ctg1 741&lt;br&gt;Location: 816076 - 816304" locus_tag="ctg1_741" class="clusterblast-orf" id="knownclusterblast-1_q5_0_all"  />
<polygon points="269,35 274,30 338,30 338,40 274,40 269,35 " style="fill:white; stroke-width:1; stroke:black; " description="&lt;b&gt;ctg1_742&lt;/b&gt;&lt;br&gt;ctg1 742&lt;br&gt;Location: 816493 - 817684" locus_tag="ctg1_742" class="clusterblast-orf" id="knownclusterblast-1_q6_0_all"  />
<polygon points="347,35 352,30 448,30 448,40 352,40 347,35 " style="fill:white; stroke-width:1; stroke:black; " description="&lt;b&gt;ctg1_743&lt;/b&gt;&lt;br&gt;ctg1 743&lt;br&gt;Location: 817849 - 819598" locus_tag="ctg1_743" class="clusterblast-orf" id="knownclusterblast-1_q7_0_all"  />
<polygon points="448,35 453,30 550,30 550,40 453,40 448,35 " style="fill:white; stroke-width:1; stroke:black; " description="&lt;b&gt;ctg1_744&lt;/b&gt;&lt;br&gt;ctg1 744&lt;br&gt;Location: 819601 - 821374" locus_tag="ctg1_744" class="clusterblast-orf" id="knownclusterblast-1_q8_0_all"  />
<polygon points="565,35 570,30 679,30 679,40 570,40 565,35 " style="fill:white; stroke-width:1; stroke:black; " description="&lt;b&gt;ctg1_745&lt;/b&gt;&lt;br&gt;ctg1 745&lt;br&gt;Location: 821636 - 823616" locus_tag="ctg1_745" class="clusterblast-orf" id="knownclusterblast-1_q9_0_all"  />
<polygon points="693,40 775,40 780,35 775,30 693,30 693,40 " style="fill:white; stroke-width:1; stroke:black; " description="&lt;b&gt;ctg1_746&lt;/b&gt;&lt;br&gt;ctg1 746&lt;br&gt;Location: 823868 - 825383" locus_tag="ctg1_746" class="clusterblast-orf" id="knownclusterblast-1_q10_0_all"  />
</g>
</svg>
