<svg xmlns="http://www.w3.org/2000/svg" xmlns:xlink="http://www.w3.org/1999/xlink" version="1.1" x="0" y="0" height="230" width="800" viewBox="0 0 800 230" preserveAspectRatio="none"  >
<g label="Query sequence" class="clusterblast-cluster"  >
<text x="5" y="20" class="clusterblast-acc"  >
Query sequence</text>
<line x1="10" y1="35" x2="778.0" y2="35" style="stroke-width:1; stroke:grey; "  />
<polygon points="0,35 5,30 6,30 6,40 5,40 0,35 " style="fill:white; stroke-width:1; stroke:black; " description="&lt;b&gt;ctg6_147&lt;/b&gt;&lt;br&gt;ctg6 147&lt;br&gt;Location: 179074 - 179695" locus_tag="ctg6_147" class="clusterblast-orf" id="dummy-1_q0_0_all"  />
<polygon points="10,35 15,30 37,30 37,40 15,40 10,35 " style="fill:#d81515; stroke-width:1; stroke:black; " description="&lt;b&gt;ctg6_148&lt;/b&gt;&lt;br&gt;ctg6 148&lt;br&gt;Location: 180036 - 182742" locus_tag="ctg6_148" class="clusterblast-orf" id="dummy-1_q1_0_all"  />
<polygon points="43,35 48,30 56,30 56,40 48,40 43,35 " style="fill:#60d815; stroke-width:1; stroke:black; " description="&lt;b&gt;ctg6_149&lt;/b&gt;&lt;br&gt;ctg6 149&lt;br&gt;Location: 183246 - 184584" locus_tag="ctg6_149" class="clusterblast-orf" id="dummy-1_q2_0_all"  />
<polygon points="58,35 63,30 63,30 63,40 63,40 58,35 " style="fill:#15abd8; stroke-width:1; stroke:black; " description="&lt;b&gt;ctg6_150&lt;/b&gt;&lt;br&gt;ctg6 150&lt;br&gt;Location: 184716 - 185199" locus_tag="ctg6_150" class="clusterblast-orf" id="dummy-1_q3_0_all"  />
<polygon points="66,40 73,40 78,35 73,30 66,30 66,40 " style="fill:#8d15d8; stroke-width:1; stroke:black; " description="&lt;b&gt;ctg6_151&lt;/b&gt;&lt;br&gt;ctg6 151&lt;br&gt;Location: 185519 - 186692" locus_tag="ctg6_151" class="clusterblast-orf" id="dummy-1_q4_0_all"  />
<polygon points="78,40 94,40 99,35 94,30 78,30 78,40 " style="fill:#d84215; stroke-width:1; stroke:black; " description="&lt;b&gt;ctg6_152&lt;/b&gt;&lt;br&gt;ctg6 152&lt;br&gt;Location: 186692 - 188666" locus_tag="ctg6_152" class="clusterblast-orf" id="dummy-1_q5_0_all"  />
<polygon points="99,40 108,40 113,35 108,30 99,30 99,40 " style="fill:#33d815; stroke-width:1; stroke:black; " description="&lt;b&gt;ctg6_153&lt;/b&gt;&lt;br&gt;ctg6 153&lt;br&gt;Location: 188673 - 190068" locus_tag="ctg6_153" class="clusterblast-orf" id="dummy-1_q6_0_all"  />
<polygon points="117,35 122,30 134,30 134,40 122,40 117,35 " style="fill:#157ed8; stroke-width:1; stroke:black; " description="&lt;b&gt;ctg6_154&lt;/b&gt;&lt;br&gt;ctg6 154&lt;br&gt;Location: 190471 - 192100" locus_tag="ctg6_154" class="clusterblast-orf" id="dummy-1_q7_0_all"  />
<polygon points="136,40 145,40 150,35 145,30 136,30 136,40 " style="fill:#ba15d8; stroke-width:1; stroke:black; " description="&lt;b&gt;ctg6_155&lt;/b&gt;&lt;br&gt;ctg6 155&lt;br&gt;Location: 192332 - 193703" locus_tag="ctg6_155" class="clusterblast-orf" id="dummy-1_q8_0_all"  />
<polygon points="150,40 159,40 164,35 159,30 150,30 150,40 " style="fill:#d86f15; stroke-width:1; stroke:black; " description="&lt;b&gt;ctg6_156&lt;/b&gt;&lt;br&gt;ctg6 156&lt;br&gt;Location: 193699 - 194983" locus_tag="ctg6_156" class="clusterblast-orf" id="dummy-1_q9_0_all"  />
<polygon points="166,40 170,40 175,35 170,30 166,30 166,40 " style="fill:#15d824; stroke-width:1; stroke:black; " description="&lt;b&gt;ctg6_157&lt;/b&gt;&lt;br&gt;ctg6 157&lt;br&gt;Location: 195221 - 196109" locus_tag="ctg6_157" class="clusterblast-orf" id="dummy-1_q10_0_all"  />
<polygon points="177,40 189,40 194,35 189,30 177,30 177,40 " style="fill:#1551d8; stroke-width:1; stroke:black; " description="&lt;b&gt;ctg6_158&lt;/b&gt;&lt;br&gt;ctg6 158&lt;br&gt;Location: 196239 - 197898" locus_tag="ctg6_158" class="clusterblast-orf" id="dummy-1_q11_0_all"  />
<polygon points="194,40 233,40 238,35 233,30 194,30 194,40 " style="fill:#d815c9; stroke-width:1; stroke:black; " description="&lt;b&gt;ctg6_159&lt;/b&gt;&lt;br&gt;ctg6 159&lt;br&gt;Location: 197962 - 202165" locus_tag="ctg6_159" class="clusterblast-orf" id="dummy-1_q12_0_all"  />
<polygon points="243,35 246,30 246,40 243,35 " style="fill:white; stroke-width:1; stroke:black; " description="&lt;b&gt;ctg6_160&lt;/b&gt;&lt;br&gt;ctg6 160&lt;br&gt;Location: 202628 - 202997" locus_tag="ctg6_160" class="clusterblast-orf" id="dummy-1_q13_0_all"  />
<polygon points="254,35 259,30 280,30 280,40 259,40 254,35 " style="fill:white; stroke-width:1; stroke:black; " description="&lt;b&gt;ctg6_161&lt;/b&gt;&lt;br&gt;ctg6 161&lt;br&gt;Location: 203761 - 206242" locus_tag="ctg6_161" class="clusterblast-orf" id="dummy-1_q14_0_all"  />
<polygon points="286,35 291,30 319,30 319,40 291,40 286,35 " style="fill:white; stroke-width:1; stroke:black; " description="&lt;b&gt;ctg6_162&lt;/b&gt;&lt;br&gt;ctg6 162&lt;br&gt;Location: 206833 - 210055" locus_tag="ctg6_162" class="clusterblast-orf" id="dummy-1_q15_0_all"  />
<polygon points="319,35 324,30 459,30 459,40 324,40 319,35 " style="fill:#d89c15; stroke-width:1; stroke:black; " description="&lt;b&gt;ctg6_163&lt;/b&gt;&lt;br&gt;ctg6 163&lt;br&gt;Location: 210051 - 223575" locus_tag="ctg6_163" class="clusterblast-orf" id="dummy-1_q16_0_all"  />
<polygon points="459,35 464,30 586,30 586,40 464,40 459,35 " style="fill:#d89c15; stroke-width:1; stroke:black; " description="&lt;b&gt;ctg6_164&lt;/b&gt;&lt;br&gt;ctg6 164&lt;br&gt;Location: 223592 - 235946" locus_tag="ctg6_164" class="clusterblast-orf" id="dummy-1_q17_0_all"  />
<polygon points="589,35 594,30 596,30 596,40 594,40 589,35 " style="fill:#15d851; stroke-width:1; stroke:black; " description="&lt;b&gt;ctg6_165&lt;/b&gt;&lt;br&gt;ctg6 165&lt;br&gt;Location: 236194 - 236929" locus_tag="ctg6_165" class="clusterblast-orf" id="dummy-1_q18_0_all"  />
<polygon points="598,40 604,40 609,35 604,30 598,30 598,40 " style="fill:white; stroke-width:1; stroke:black; " description="&lt;b&gt;ctg6_166&lt;/b&gt;&lt;br&gt;ctg6 166&lt;br&gt;Location: 237061 - 238195" locus_tag="ctg6_166" class="clusterblast-orf" id="dummy-1_q19_0_all"  />
<polygon points="611,35 616,30 623,30 623,40 616,40 611,35 " style="fill:#1524d8; stroke-width:1; stroke:black; " description="&lt;b&gt;ctg6_167&lt;/b&gt;&lt;br&gt;ctg6 167&lt;br&gt;Location: 238308 - 239481" locus_tag="ctg6_167" class="clusterblast-orf" id="dummy-1_q20_0_all"  />
<polygon points="625,40 628,40 633,35 628,30 625,30 625,40 " style="fill:#d8159c; stroke-width:1; stroke:black; " description="&lt;b&gt;ctg6_168&lt;/b&gt;&lt;br&gt;ctg6 168&lt;br&gt;Location: 239709 - 240510" locus_tag="ctg6_168" class="clusterblast-orf" id="dummy-1_q21_0_all"  />
<polygon points="633,40 647,40 652,35 647,30 633,30 633,40 " style="fill:#d8c915; stroke-width:1; stroke:black; " description="&lt;b&gt;ctg6_169&lt;/b&gt;&lt;br&gt;ctg6 169&lt;br&gt;Location: 240502 - 242329" locus_tag="ctg6_169" class="clusterblast-orf" id="dummy-1_q22_0_all"  />
<polygon points="658,40 662,35 658,30 658,40 " style="fill:white; stroke-width:1; stroke:black; " description="&lt;b&gt;ctg6_170&lt;/b&gt;&lt;br&gt;ctg6 170&lt;br&gt;Location: 242874 - 243264" locus_tag="ctg6_170" class="clusterblast-orf" id="dummy-1_q23_0_all"  />
<polygon points="663,40 671,40 676,35 671,30 663,30 663,40 " style="fill:white; stroke-width:1; stroke:black; " description="&lt;b&gt;ctg6_171&lt;/b&gt;&lt;br&gt;ctg6 171&lt;br&gt;Location: 243399 - 244644" locus_tag="ctg6_171" class="clusterblast-orf" id="dummy-1_q24_0_all"  />
<polygon points="677,40 681,40 686,35 681,30 677,30 677,40 " style="fill:#15d87e; stroke-width:1; stroke:black; " description="&lt;b&gt;ctg6_172&lt;/b&gt;&lt;br&gt;ctg6 172&lt;br&gt;Location: 244758 - 245664" locus_tag="ctg6_172" class="clusterblast-orf" id="dummy-1_q25_0_all"  />
<polygon points="686,35 691,30 696,30 696,40 691,40 686,35 " style="fill:#3315d8; stroke-width:1; stroke:black; " description="&lt;b&gt;ctg6_173&lt;/b&gt;&lt;br&gt;ctg6 173&lt;br&gt;Location: 245617 - 246616" locus_tag="ctg6_173" class="clusterblast-orf" id="dummy-1_q26_0_all"  />
<polygon points="697,40 699,40 704,35 699,30 697,30 697,40 " style="fill:#d8156f; stroke-width:1; stroke:black; " description="&lt;b&gt;ctg6_174&lt;/b&gt;&lt;br&gt;ctg6 174&lt;br&gt;Location: 246708 - 247395" locus_tag="ctg6_174" class="clusterblast-orf" id="dummy-1_q27_0_all"  />
<polygon points="705,35 710,30 712,30 712,40 710,40 705,35 " style="fill:white; stroke-width:1; stroke:black; " description="&lt;b&gt;ctg6_175&lt;/b&gt;&lt;br&gt;ctg6 175&lt;br&gt;Location: 247489 - 248107" locus_tag="ctg6_175" class="clusterblast-orf" id="dummy-1_q28_0_all"  />
<polygon points="715,35 720,30 723,30 723,40 720,40 715,35 " style="fill:#bad815; stroke-width:1; stroke:black; " description="&lt;b&gt;ctg6_176&lt;/b&gt;&lt;br&gt;ctg6 176&lt;br&gt;Location: 248451 - 249252" locus_tag="ctg6_176" class="clusterblast-orf" id="dummy-1_q29_0_all"  />
<polygon points="723,35 728,30 728,30 728,40 728,40 723,35 " style="fill:#15d8ab; stroke-width:1; stroke:black; " description="&lt;b&gt;ctg6_177&lt;/b&gt;&lt;br&gt;ctg6 177&lt;br&gt;Location: 249252 - 249741" locus_tag="ctg6_177" class="clusterblast-orf" id="dummy-1_q30_0_all"  />
<polygon points="731,40 735,40 740,35 735,30 731,30 731,40 " style="fill:#6015d8; stroke-width:1; stroke:black; " description="&lt;b&gt;ctg6_178&lt;/b&gt;&lt;br&gt;ctg6 178&lt;br&gt;Location: 249938 - 250883" locus_tag="ctg6_178" class="clusterblast-orf" id="dummy-1_q31_0_all"  />
<polygon points="740,40 744,35 740,30 740,40 " style="fill:#6015d8; stroke-width:1; stroke:black; " description="&lt;b&gt;ctg6_179&lt;/b&gt;&lt;br&gt;ctg6 179&lt;br&gt;Location: 250875 - 251274" locus_tag="ctg6_179" class="clusterblast-orf" id="dummy-1_q32_0_all"  />
<polygon points="746,40 749,35 746,30 746,40 " style="fill:white; stroke-width:1; stroke:black; " description="&lt;b&gt;ctg6_180&lt;/b&gt;&lt;br&gt;ctg6 180&lt;br&gt;Location: 251446 - 251749" locus_tag="ctg6_180" class="clusterblast-orf" id="dummy-1_q33_0_all"  />
<polygon points="751,40 753,40 758,35 753,30 751,30 751,40 " style="fill:white; stroke-width:1; stroke:black; " description="&lt;b&gt;ctg6_181&lt;/b&gt;&lt;br&gt;ctg6 181&lt;br&gt;Location: 251877 - 252582" locus_tag="ctg6_181" class="clusterblast-orf" id="dummy-1_q34_0_all"  />
<polygon points="759,40 763,35 759,30 759,40 " style="fill:#d81542; stroke-width:1; stroke:black; " description="&lt;b&gt;ctg6_182&lt;/b&gt;&lt;br&gt;ctg6 182&lt;br&gt;Location: 252704 - 253106" locus_tag="ctg6_182" class="clusterblast-orf" id="dummy-1_q35_0_all"  />
<polygon points="764,35 769,30 776,30 776,40 769,40 764,35 " style="fill:#8dd815; stroke-width:1; stroke:black; " description="&lt;b&gt;ctg6_183&lt;/b&gt;&lt;br&gt;ctg6 183&lt;br&gt;Location: 253229 - 254348" locus_tag="ctg6_183" class="clusterblast-orf" id="dummy-1_q36_0_all"  />
<polygon points="776,35 780,30 780,40 776,35 " style="fill:#15d8d8; stroke-width:1; stroke:black; " description="&lt;b&gt;ctg6_184&lt;/b&gt;&lt;br&gt;ctg6 184&lt;br&gt;Location: 254372 - 254696" locus_tag="ctg6_184" class="clusterblast-orf" id="dummy-1_q37_0_all"  />
</g>
<g label="BGC0002001" description="BGC0002001_c1: crochelin A (23% of genes show similarity), NRP + Polyketide" class="clusterblast-cluster"  >
<text x="5" y="70" class="clusterblast-acc"  >
<a xlink:href="https://mibig.secondarymetabolites.org/go/BGC0002001/1" target="_blank">BGC0002001</a>:                                                                      crochelin A (23% of genes show similarity), NRP + Polyketide</text>
<line x1="10" y1="85" x2="778.0" y2="85" style="stroke-width:1; stroke:grey; "  />
</g>
<g id="a1_000"  >
<polygon points="131,90 134,90 139,85 134,80 131,80 131,90 " style="fill:white; stroke-width:1; stroke:black; " description="&lt;b&gt;Achr_RS19525&lt;/b&gt;&lt;br&gt;ATP-binding cassette domain-containing protein&lt;br&gt;Location: 1 - 768" locus_tag="Achr_RS19525" class="clusterblast-orf" id="dummy-1_h1_2_0"  />
</g>
<g id="a1_001"  >
<polygon points="139,85 141,80 141,90 139,85 " style="fill:white; stroke-width:1; stroke:black; " description="&lt;b&gt;Achr_RS25415&lt;/b&gt;&lt;br&gt;hypothetical protein&lt;br&gt;Location: 813 - 1033" locus_tag="Achr_RS25415" class="clusterblast-orf" id="dummy-1_h1_2_1"  />
</g>
<g id="a1_002"  >
<polygon points="142,85 147,80 156,80 156,90 147,90 142,85 " style="fill:white; stroke-width:1; stroke:black; " description="&lt;b&gt;Achr_RS19530&lt;/b&gt;&lt;br&gt;PepSY domain-containing protein&lt;br&gt;Location: 1101 - 2444" locus_tag="Achr_RS19530" class="clusterblast-orf" id="dummy-1_h1_2_2"  />
</g>
<g id="a1_003"  >
<polygon points="156,85 161,80 173,80 173,90 161,90 156,85 " style="fill:white; stroke-width:1; stroke:black; " description="&lt;b&gt;Achr_RS19535&lt;/b&gt;&lt;br&gt;cyclic peptide export ABC transporter&lt;br&gt;Location: 2441 - 4102" locus_tag="Achr_RS19535" class="clusterblast-orf" id="dummy-1_h1_2_3"  />
</g>
<g id="a1_004"  >
<polygon points="174,85 179,80 199,80 199,90 179,90 174,85 " style="fill:white; stroke-width:1; stroke:black; " description="&lt;b&gt;Achr_RS19540&lt;/b&gt;&lt;br&gt;penicillin acylase family protein&lt;br&gt;Location: 4234 - 6663" locus_tag="Achr_RS19540" class="clusterblast-orf" id="dummy-1_h1_2_4"  />
</g>
<g id="a1_005"  >
<polygon points="201,85 206,80 212,80 212,90 206,90 201,85 " style="fill:white; stroke-width:1; stroke:black; " description="&lt;b&gt;Achr_RS19545&lt;/b&gt;&lt;br&gt;histone deacetylase family protein&lt;br&gt;Location: 6836 - 7879" locus_tag="Achr_RS19545" class="clusterblast-orf" id="dummy-1_h1_2_5"  />
</g>
<g id="a1_006"  >
<polygon points="212,85 217,80 221,80 221,90 217,90 212,85 " style="fill:white; stroke-width:1; stroke:black; " description="&lt;b&gt;Achr_RS19550&lt;/b&gt;&lt;br&gt;N(5)-hydroxyornithine transformylase PvdF&lt;br&gt;Location: 7892 - 8716" locus_tag="Achr_RS19550" class="clusterblast-orf" id="dummy-1_h1_2_6"  />
</g>
<g id="a1_007"  >
<polygon points="224,90 234,90 239,85 234,80 224,80 224,90 " style="fill:white; stroke-width:1; stroke:black; " description="&lt;b&gt;Achr_RS19555&lt;/b&gt;&lt;br&gt;aminotransferase class III-fold pyridoxal phosphate-dependent enzyme&lt;br&gt;Location: 9082 - 10524" locus_tag="Achr_RS19555" class="clusterblast-orf" id="dummy-1_h1_2_7"  />
</g>
<g id="a1_008"  >
<polygon points="240,90 258,90 263,85 258,80 240,80 240,90 " style="fill:white; stroke-width:1; stroke:black; " description="&lt;b&gt;Achr_RS19560&lt;/b&gt;&lt;br&gt;TonB-dependent siderophore receptor&lt;br&gt;Location: 10590 - 12854" locus_tag="Achr_RS19560" class="clusterblast-orf" id="dummy-1_h1_2_8"  />
</g>
<g id="a1_009"  >
<polygon points="266,85 271,80 307,80 307,90 271,90 266,85 " style="fill:white; stroke-width:1; stroke:black; " description="&lt;b&gt;Achr_RS19570&lt;/b&gt;&lt;br&gt;amino acid adenylation domain-containing protein&lt;br&gt;Location: 13069 - 17136" locus_tag="Achr_RS19570" class="clusterblast-orf" id="dummy-1_h1_2_9"  />
</g>
<g id="a1_0010"  >
<polygon points="307,85 312,80 388,80 388,90 312,90 307,85 " style="fill:#d89c15; stroke-width:1; stroke:black; " description="&lt;b&gt;Achr_RS19575&lt;/b&gt;&lt;br&gt;non-ribosomal peptide synthetase&lt;br&gt;Location: 17133 - 24944&lt;br&gt;&lt;br&gt;&lt;b&gt;BlastP hit with ctg6_163&lt;/b&gt;&lt;br&gt;Percentage identity: 47&lt;br&gt;Percentage coverage: 58&lt;br&gt;BLAST bit score: 2132&lt;br&gt;E-value: 0.0" locus_tag="Achr_RS19575" class="clusterblast-orf" id="dummy-1_h1_2_10"  />
</g>
<g id="a1_0011"  >
<polygon points="388,85 393,80 422,80 422,90 393,90 388,85 " style="fill:#d815c9; stroke-width:1; stroke:black; " description="&lt;b&gt;Achr_RS19580&lt;/b&gt;&lt;br&gt;non-ribosomal peptide synthetase&lt;br&gt;Location: 24948 - 28274&lt;br&gt;&lt;br&gt;&lt;b&gt;BlastP hit with ctg6_159&lt;/b&gt;&lt;br&gt;Percentage identity: 46&lt;br&gt;Percentage coverage: 76&lt;br&gt;BLAST bit score: 805&lt;br&gt;E-value: 9.7e-233" locus_tag="Achr_RS19580" class="clusterblast-orf" id="dummy-1_h1_2_11"  />
</g>
<g id="a1_0012"  >
<polygon points="427,85 432,80 474,80 474,90 432,90 427,85 " style="fill:white; stroke-width:1; stroke:black; " description="&lt;b&gt;Achr_RS19585&lt;/b&gt;&lt;br&gt;type I polyketide synthase&lt;br&gt;Location: 28716 - 33278" locus_tag="Achr_RS19585" class="clusterblast-orf" id="dummy-1_h1_2_12"  />
</g>
<g id="a1_0013"  >
<polygon points="474,85 479,80 529,80 529,90 479,90 474,85 " style="fill:white; stroke-width:1; stroke:black; " description="&lt;b&gt;Achr_RS19590&lt;/b&gt;&lt;br&gt;non-ribosomal peptide synthetase&lt;br&gt;Location: 33275 - 38572" locus_tag="Achr_RS19590" class="clusterblast-orf" id="dummy-1_h1_2_13"  />
</g>
<g id="a1_0014"  >
<polygon points="529,85 534,80 539,80 539,90 534,90 529,85 " style="fill:white; stroke-width:1; stroke:black; " description="&lt;b&gt;Achr_RS19595&lt;/b&gt;&lt;br&gt;hypothetical protein&lt;br&gt;Location: 38601 - 39578" locus_tag="Achr_RS19595" class="clusterblast-orf" id="dummy-1_h1_2_14"  />
</g>
<g id="a1_0015"  >
<polygon points="540,85 545,80 547,80 547,90 545,90 540,85 " style="fill:#15d851; stroke-width:1; stroke:black; " description="&lt;b&gt;Achr_RS19600&lt;/b&gt;&lt;br&gt;thioesterase&lt;br&gt;Location: 39660 - 40397&lt;br&gt;&lt;br&gt;&lt;b&gt;BlastP hit with ctg6_165&lt;/b&gt;&lt;br&gt;Percentage identity: 47&lt;br&gt;Percentage coverage: 93&lt;br&gt;BLAST bit score: 182&lt;br&gt;E-value: 9.2e-46" locus_tag="Achr_RS19600" class="clusterblast-orf" id="dummy-1_h1_2_15"  />
</g>
<g id="a1_0016"  >
<polygon points="548,85 550,80 550,90 548,85 " style="fill:white; stroke-width:1; stroke:black; " description="&lt;b&gt;Achr_RS19605&lt;/b&gt;&lt;br&gt;MbtH family NRPS accessory protein&lt;br&gt;Location: 40408 - 40650" locus_tag="Achr_RS19605" class="clusterblast-orf" id="dummy-1_h1_2_16"  />
</g>
<g id="a1_0017"  >
<polygon points="553,90 557,85 553,80 553,90 " style="fill:white; stroke-width:1; stroke:black; " description="&lt;b&gt;Achr_RS19610&lt;/b&gt;&lt;br&gt;DUF4880 domain-containing protein&lt;br&gt;Location: 40938 - 41354" locus_tag="Achr_RS19610" class="clusterblast-orf" id="dummy-1_h1_2_17"  />
</g>
<g id="a1_0018"  >
<polygon points="559,90 566,90 571,85 566,80 559,80 559,90 " style="fill:#8d15d8; stroke-width:1; stroke:black; " description="&lt;b&gt;Achr_RS19615&lt;/b&gt;&lt;br&gt;efflux RND transporter periplasmic adaptor subunit&lt;br&gt;Location: 41499 - 42650&lt;br&gt;&lt;br&gt;&lt;b&gt;BlastP hit with ctg6_151&lt;/b&gt;&lt;br&gt;Percentage identity: 56&lt;br&gt;Percentage coverage: 98&lt;br&gt;BLAST bit score: 302&lt;br&gt;E-value: 7.4e-82" locus_tag="Achr_RS19615" class="clusterblast-orf" id="dummy-1_h1_2_18"  />
</g>
<g id="a1_0019"  >
<polygon points="572,90 581,90 586,85 581,80 572,80 572,90 " style="fill:#33d815; stroke-width:1; stroke:black; " description="&lt;b&gt;Achr_RS19620&lt;/b&gt;&lt;br&gt;efflux transporter outer membrane subunit&lt;br&gt;Location: 42738 - 44171&lt;br&gt;&lt;br&gt;&lt;b&gt;BlastP hit with ctg6_153&lt;/b&gt;&lt;br&gt;Percentage identity: 56&lt;br&gt;Percentage coverage: 100&lt;br&gt;BLAST bit score: 441&lt;br&gt;E-value: 2.1e-123" locus_tag="Achr_RS19620" class="clusterblast-orf" id="dummy-1_h1_2_19"  />
</g>
<g id="a1_0020"  >
<polygon points="589,90 589,90 594,85 589,80 589,80 589,90 " style="fill:white; stroke-width:1; stroke:black; " description="&lt;b&gt;Achr_RS19625&lt;/b&gt;&lt;br&gt;RNA polymerase factor sigma-70&lt;br&gt;Location: 44415 - 44960" locus_tag="Achr_RS19625" class="clusterblast-orf" id="dummy-1_h1_2_20"  />
</g>
<g id="a1_0021"  >
<polygon points="597,90 600,85 597,80 597,90 " style="fill:white; stroke-width:1; stroke:black; " description="&lt;b&gt;Achr_RS19630&lt;/b&gt;&lt;br&gt;hypothetical protein&lt;br&gt;Location: 45166 - 45540" locus_tag="Achr_RS19630" class="clusterblast-orf" id="dummy-1_h1_2_21"  />
</g>
<g id="a1_0022"  >
<polygon points="603,85 608,80 616,80 616,90 608,90 603,85 " style="fill:#60d815; stroke-width:1; stroke:black; " description="&lt;b&gt;Achr_RS19635&lt;/b&gt;&lt;br&gt;lysine N(6)-hydroxylase/L-ornithine N(5)-oxygenase family protein&lt;br&gt;Location: 45792 - 47093&lt;br&gt;&lt;br&gt;&lt;b&gt;BlastP hit with ctg6_149&lt;/b&gt;&lt;br&gt;Percentage identity: 46&lt;br&gt;Percentage coverage: 93&lt;br&gt;BLAST bit score: 382&lt;br&gt;E-value: 1.1e-105" locus_tag="Achr_RS19635" class="clusterblast-orf" id="dummy-1_h1_2_22"  />
</g>
<g id="a1_0023"  >
<polygon points="618,85 623,80 623,80 623,90 623,90 618,85 " style="fill:white; stroke-width:1; stroke:black; " description="&lt;b&gt;Achr_RS19640&lt;/b&gt;&lt;br&gt;hypothetical protein&lt;br&gt;Location: 47222 - 47743" locus_tag="Achr_RS19640" class="clusterblast-orf" id="dummy-1_h1_2_23"  />
</g>
<g id="a1_0024"  >
<polygon points="624,85 629,80 645,80 645,90 629,90 624,85 " style="fill:white; stroke-width:1; stroke:black; " description="&lt;b&gt;Achr_RS24430&lt;/b&gt;&lt;br&gt;non-ribosomal peptide synthetase&lt;br&gt;Location: 47794 - 49899" locus_tag="Achr_RS24430" class="clusterblast-orf" id="dummy-1_h1_2_24"  />
</g>
<g id="a1_0025"  >
<polygon points="646,85 648,80 648,90 646,85 " style="fill:white; stroke-width:1; stroke:black; " description="&lt;b&gt;Achr_RS19650&lt;/b&gt;&lt;br&gt;MbtH family protein&lt;br&gt;Location: 49972 - 50175" locus_tag="Achr_RS19650" class="clusterblast-orf" id="dummy-1_h1_2_25"  />
</g>
</svg>
