<svg xmlns="http://www.w3.org/2000/svg" xmlns:xlink="http://www.w3.org/1999/xlink" version="1.1" x="0" y="0" height="50" width="800" viewBox="0 0 800 50" preserveAspectRatio="none"  >
<g label="Query sequence" class="clusterblast-cluster"  >
<text x="5" y="20" class="clusterblast-acc"  >
Query sequence</text>
<line x1="10" y1="35" x2="778.0" y2="35" style="stroke-width:1; stroke:grey; "  />
<polygon points="0,40 29,40 34,35 29,30 0,30 0,40 " style="fill:white; stroke-width:1; stroke:black; " description="&lt;b&gt;ctg3_1885&lt;/b&gt;&lt;br&gt;ctg3 1885&lt;br&gt;Location: 2244699 - 2245152" locus_tag="ctg3_1885" class="clusterblast-orf" id="knownclusterblast-3_q0_0_all"  />
<polygon points="41,40 70,40 75,35 70,30 41,30 41,40 " style="fill:white; stroke-width:1; stroke:black; " description="&lt;b&gt;ctg3_1886&lt;/b&gt;&lt;br&gt;ctg3 1886&lt;br&gt;Location: 2245255 - 2245708" locus_tag="ctg3_1886" class="clusterblast-orf" id="knownclusterblast-3_q1_0_all"  />
<polygon points="86,40 115,40 120,35 115,30 86,30 86,40 " style="fill:white; stroke-width:1; stroke:black; " description="&lt;b&gt;ctg3_1887&lt;/b&gt;&lt;br&gt;ctg3 1887&lt;br&gt;Location: 2245857 - 2246316" locus_tag="ctg3_1887" class="clusterblast-orf" id="knownclusterblast-3_q2_0_all"  />
<polygon points="120,40 140,40 145,35 140,30 120,30 120,40 " style="fill:white; stroke-width:1; stroke:black; " description="&lt;b&gt;ctg3_1888&lt;/b&gt;&lt;br&gt;ctg3 1888&lt;br&gt;Location: 2246312 - 2246654" locus_tag="ctg3_1888" class="clusterblast-orf" id="knownclusterblast-3_q3_0_all"  />
<polygon points="143,35 148,30 213,30 213,40 148,40 143,35 " style="fill:white; stroke-width:1; stroke:black; " description="&lt;b&gt;ctg3_1889&lt;/b&gt;&lt;br&gt;ctg3 1889&lt;br&gt;Location: 2246623 - 2247562" locus_tag="ctg3_1889" class="clusterblast-orf" id="knownclusterblast-3_q4_0_all"  />
<polygon points="218,40 279,40 284,35 279,30 218,30 218,40 " style="fill:white; stroke-width:1; stroke:black; " description="&lt;b&gt;ctg3_1890&lt;/b&gt;&lt;br&gt;ctg3 1890&lt;br&gt;Location: 2247630 - 2248518" locus_tag="ctg3_1890" class="clusterblast-orf" id="knownclusterblast-3_q5_0_all"  />
<polygon points="293,35 298,30 349,30 349,40 298,40 293,35 " style="fill:white; stroke-width:1; stroke:black; " description="&lt;b&gt;ctg3_1891&lt;/b&gt;&lt;br&gt;ctg3 1891&lt;br&gt;Location: 2248647 - 2249406" locus_tag="ctg3_1891" class="clusterblast-orf" id="knownclusterblast-3_q6_0_all"  />
<polygon points="349,35 354,30 411,30 411,40 354,40 349,35 " style="fill:white; stroke-width:1; stroke:black; " description="&lt;b&gt;ctg3_1892&lt;/b&gt;&lt;br&gt;ctg3 1892&lt;br&gt;Location: 2249398 - 2250238" locus_tag="ctg3_1892" class="clusterblast-orf" id="knownclusterblast-3_q7_0_all"  />
<polygon points="416,35 421,30 431,30 431,40 421,40 416,35 " style="fill:white; stroke-width:1; stroke:black; " description="&lt;b&gt;ctg3_1893&lt;/b&gt;&lt;br&gt;ctg3 1893&lt;br&gt;Location: 2250300 - 2250507" locus_tag="ctg3_1893" class="clusterblast-orf" id="knownclusterblast-3_q8_0_all"  />
<polygon points="445,35 450,30 544,30 544,40 450,40 445,35 " style="fill:white; stroke-width:1; stroke:black; " description="&lt;b&gt;ctg3_1894&lt;/b&gt;&lt;br&gt;ctg3 1894&lt;br&gt;Location: 2250689 - 2252024" locus_tag="ctg3_1894" class="clusterblast-orf" id="knownclusterblast-3_q9_0_all"  />
<polygon points="568,35 573,30 637,30 637,40 573,40 568,35 " style="fill:white; stroke-width:1; stroke:black; " description="&lt;b&gt;ctg3_1895&lt;/b&gt;&lt;br&gt;ctg3 1895&lt;br&gt;Location: 2252354 - 2253278" locus_tag="ctg3_1895" class="clusterblast-orf" id="knownclusterblast-3_q10_0_all"  />
<polygon points="653,35 658,30 731,30 731,40 658,40 653,35 " style="fill:white; stroke-width:1; stroke:black; " description="&lt;b&gt;ctg3_1896&lt;/b&gt;&lt;br&gt;ctg3 1896&lt;br&gt;Location: 2253502 - 2254546" locus_tag="ctg3_1896" class="clusterblast-orf" id="knownclusterblast-3_q11_0_all"  />
<polygon points="747,40 775,40 780,35 775,30 747,30 747,40 " style="fill:white; stroke-width:1; stroke:black; " description="&lt;b&gt;ctg3_1897&lt;/b&gt;&lt;br&gt;ctg3 1897&lt;br&gt;Location: 2254762 - 2255212" locus_tag="ctg3_1897" class="clusterblast-orf" id="knownclusterblast-3_q12_0_all"  />
</g>
</svg>
