<svg xmlns="http://www.w3.org/2000/svg" xmlns:xlink="http://www.w3.org/1999/xlink" version="1.1" x="0" y="0" height="230" width="800" viewBox="0 0 800 230" preserveAspectRatio="none"  >
<g label="Query sequence" class="clusterblast-cluster"  >
<text x="5" y="20" class="clusterblast-acc"  >
Query sequence</text>
<line x1="10" y1="35" x2="778.0" y2="35" style="stroke-width:1; stroke:grey; "  />
<polygon points="0,40 0,40 5,35 0,30 0,30 0,40 " style="fill:white; stroke-width:1; stroke:black; " description="&lt;b&gt;ctg3_645&lt;/b&gt;&lt;br&gt;ctg3 645&lt;br&gt;Location: 683119 - 684538" locus_tag="ctg3_645" class="clusterblast-orf" id="dummy-2_q0_0_all"  />
<polygon points="5,40 8,35 5,30 5,40 " style="fill:white; stroke-width:1; stroke:black; " description="&lt;b&gt;ctg3_646&lt;/b&gt;&lt;br&gt;ctg3 646&lt;br&gt;Location: 684534 - 685431" locus_tag="ctg3_646" class="clusterblast-orf" id="dummy-2_q1_0_all"  />
<polygon points="8,40 12,35 8,30 8,40 " style="fill:white; stroke-width:1; stroke:black; " description="&lt;b&gt;ctg3_647&lt;/b&gt;&lt;br&gt;ctg3 647&lt;br&gt;Location: 685564 - 686662" locus_tag="ctg3_647" class="clusterblast-orf" id="dummy-2_q2_0_all"  />
<polygon points="13,40 16,35 13,30 13,40 " style="fill:white; stroke-width:1; stroke:black; " description="&lt;b&gt;ctg3_648&lt;/b&gt;&lt;br&gt;ctg3 648&lt;br&gt;Location: 686889 - 687681" locus_tag="ctg3_648" class="clusterblast-orf" id="dummy-2_q3_0_all"  />
<polygon points="16,40 20,35 16,30 16,40 " style="fill:white; stroke-width:1; stroke:black; " description="&lt;b&gt;ctg3_649&lt;/b&gt;&lt;br&gt;ctg3 649&lt;br&gt;Location: 687704 - 688865" locus_tag="ctg3_649" class="clusterblast-orf" id="dummy-2_q4_0_all"  />
<polygon points="20,40 23,40 28,35 23,30 20,30 20,40 " style="fill:white; stroke-width:1; stroke:black; " description="&lt;b&gt;ctg3_650&lt;/b&gt;&lt;br&gt;ctg3 650&lt;br&gt;Location: 688883 - 690971" locus_tag="ctg3_650" class="clusterblast-orf" id="dummy-2_q5_0_all"  />
<polygon points="28,40 30,35 28,30 28,40 " style="fill:white; stroke-width:1; stroke:black; " description="&lt;b&gt;ctg3_651&lt;/b&gt;&lt;br&gt;ctg3 651&lt;br&gt;Location: 691009 - 691711" locus_tag="ctg3_651" class="clusterblast-orf" id="dummy-2_q6_0_all"  />
<polygon points="30,40 32,35 30,30 30,40 " style="fill:white; stroke-width:1; stroke:black; " description="&lt;b&gt;ctg3_652&lt;/b&gt;&lt;br&gt;ctg3 652&lt;br&gt;Location: 691732 - 692368" locus_tag="ctg3_652" class="clusterblast-orf" id="dummy-2_q7_0_all"  />
<polygon points="33,40 35,35 33,30 33,40 " style="fill:white; stroke-width:1; stroke:black; " description="&lt;b&gt;ctg3_653&lt;/b&gt;&lt;br&gt;ctg3 653&lt;br&gt;Location: 692472 - 693186" locus_tag="ctg3_653" class="clusterblast-orf" id="dummy-2_q8_0_all"  />
<polygon points="36,40 37,40 42,35 37,30 36,30 36,40 " style="fill:white; stroke-width:1; stroke:black; " description="&lt;b&gt;ctg3_654&lt;/b&gt;&lt;br&gt;ctg3 654&lt;br&gt;Location: 693384 - 695019" locus_tag="ctg3_654" class="clusterblast-orf" id="dummy-2_q9_0_all"  />
<polygon points="43,40 45,40 50,35 45,30 43,30 43,40 " style="fill:white; stroke-width:1; stroke:black; " description="&lt;b&gt;ctg3_655&lt;/b&gt;&lt;br&gt;ctg3 655&lt;br&gt;Location: 695197 - 697201" locus_tag="ctg3_655" class="clusterblast-orf" id="dummy-2_q10_0_all"  />
<polygon points="50,40 53,35 50,30 50,40 " style="fill:white; stroke-width:1; stroke:black; " description="&lt;b&gt;ctg3_656&lt;/b&gt;&lt;br&gt;ctg3 656&lt;br&gt;Location: 697228 - 698011" locus_tag="ctg3_656" class="clusterblast-orf" id="dummy-2_q11_0_all"  />
<polygon points="53,40 56,35 53,30 53,40 " style="fill:white; stroke-width:1; stroke:black; " description="&lt;b&gt;ctg3_657&lt;/b&gt;&lt;br&gt;ctg3 657&lt;br&gt;Location: 698163 - 698868" locus_tag="ctg3_657" class="clusterblast-orf" id="dummy-2_q12_0_all"  />
<polygon points="56,40 58,35 56,30 56,40 " style="fill:white; stroke-width:1; stroke:black; " description="&lt;b&gt;ctg3_658&lt;/b&gt;&lt;br&gt;ctg3 658&lt;br&gt;Location: 698873 - 699572" locus_tag="ctg3_658" class="clusterblast-orf" id="dummy-2_q13_0_all"  />
<polygon points="58,40 62,35 58,30 58,40 " style="fill:white; stroke-width:1; stroke:black; " description="&lt;b&gt;ctg3_659&lt;/b&gt;&lt;br&gt;ctg3 659&lt;br&gt;Location: 699571 - 700579" locus_tag="ctg3_659" class="clusterblast-orf" id="dummy-2_q14_0_all"  />
<polygon points="61,35 64,30 64,40 61,35 " style="fill:white; stroke-width:1; stroke:black; " description="&lt;b&gt;ctg3_660&lt;/b&gt;&lt;br&gt;ctg3 660&lt;br&gt;Location: 700438 - 701074" locus_tag="ctg3_660" class="clusterblast-orf" id="dummy-2_q15_0_all"  />
<polygon points="64,40 68,35 64,30 64,40 " style="fill:white; stroke-width:1; stroke:black; " description="&lt;b&gt;ctg3_661&lt;/b&gt;&lt;br&gt;ctg3 661&lt;br&gt;Location: 701191 - 702208" locus_tag="ctg3_661" class="clusterblast-orf" id="dummy-2_q16_0_all"  />
<polygon points="70,40 99,40 104,35 99,30 70,30 70,40 " style="fill:white; stroke-width:1; stroke:black; " description="&lt;b&gt;ctg3_662&lt;/b&gt;&lt;br&gt;ctg3 662&lt;br&gt;Location: 702809 - 712511" locus_tag="ctg3_662" class="clusterblast-orf" id="dummy-2_q17_0_all"  />
<polygon points="104,40 114,40 119,35 114,30 104,30 104,40 " style="fill:#d81515; stroke-width:1; stroke:black; " description="&lt;b&gt;ctg3_663&lt;/b&gt;&lt;br&gt;ctg3 663&lt;br&gt;Location: 712507 - 716722" locus_tag="ctg3_663" class="clusterblast-orf" id="dummy-2_q18_0_all"  />
<polygon points="119,40 147,40 152,35 147,30 119,30 119,40 " style="fill:white; stroke-width:1; stroke:black; " description="&lt;b&gt;ctg3_664&lt;/b&gt;&lt;br&gt;ctg3 664&lt;br&gt;Location: 716718 - 725811" locus_tag="ctg3_664" class="clusterblast-orf" id="dummy-2_q19_0_all"  />
<polygon points="152,40 152,35 152,30 152,40 " style="fill:white; stroke-width:1; stroke:black; " description="&lt;b&gt;ctg3_665&lt;/b&gt;&lt;br&gt;ctg3 665&lt;br&gt;Location: 725803 - 725989" locus_tag="ctg3_665" class="clusterblast-orf" id="dummy-2_q20_0_all"  />
<polygon points="153,40 156,35 153,30 153,40 " style="fill:white; stroke-width:1; stroke:black; " description="&lt;b&gt;ctg3_666&lt;/b&gt;&lt;br&gt;ctg3 666&lt;br&gt;Location: 726133 - 727003" locus_tag="ctg3_666" class="clusterblast-orf" id="dummy-2_q21_0_all"  />
<polygon points="156,35 161,30 161,30 161,40 161,40 156,35 " style="fill:white; stroke-width:1; stroke:black; " description="&lt;b&gt;ctg3_667&lt;/b&gt;&lt;br&gt;ctg3 667&lt;br&gt;Location: 727121 - 728366" locus_tag="ctg3_667" class="clusterblast-orf" id="dummy-2_q22_0_all"  />
<polygon points="161,35 163,30 163,40 161,35 " style="fill:white; stroke-width:1; stroke:black; " description="&lt;b&gt;ctg3_668&lt;/b&gt;&lt;br&gt;ctg3 668&lt;br&gt;Location: 728365 - 728881" locus_tag="ctg3_668" class="clusterblast-orf" id="dummy-2_q23_0_all"  />
<polygon points="163,35 166,30 166,40 163,35 " style="fill:white; stroke-width:1; stroke:black; " description="&lt;b&gt;ctg3_669&lt;/b&gt;&lt;br&gt;ctg3 669&lt;br&gt;Location: 728973 - 729912" locus_tag="ctg3_669" class="clusterblast-orf" id="dummy-2_q24_0_all"  />
<polygon points="167,40 169,35 167,30 167,40 " style="fill:white; stroke-width:1; stroke:black; " description="&lt;b&gt;ctg3_670&lt;/b&gt;&lt;br&gt;ctg3 670&lt;br&gt;Location: 730094 - 730691" locus_tag="ctg3_670" class="clusterblast-orf" id="dummy-2_q25_0_all"  />
<polygon points="169,40 172,35 169,30 169,40 " style="fill:white; stroke-width:1; stroke:black; " description="&lt;b&gt;ctg3_671&lt;/b&gt;&lt;br&gt;ctg3 671&lt;br&gt;Location: 730717 - 731395" locus_tag="ctg3_671" class="clusterblast-orf" id="dummy-2_q26_0_all"  />
<polygon points="172,40 172,40 177,35 172,30 172,30 172,40 " style="fill:white; stroke-width:1; stroke:black; " description="&lt;b&gt;ctg3_672&lt;/b&gt;&lt;br&gt;ctg3 672&lt;br&gt;Location: 731504 - 732959" locus_tag="ctg3_672" class="clusterblast-orf" id="dummy-2_q27_0_all"  />
<polygon points="178,35 181,30 181,40 178,35 " style="fill:white; stroke-width:1; stroke:black; " description="&lt;b&gt;ctg3_673&lt;/b&gt;&lt;br&gt;ctg3 673&lt;br&gt;Location: 733116 - 733956" locus_tag="ctg3_673" class="clusterblast-orf" id="dummy-2_q28_0_all"  />
<polygon points="181,35 185,30 185,40 181,35 " style="fill:white; stroke-width:1; stroke:black; " description="&lt;b&gt;ctg3_674&lt;/b&gt;&lt;br&gt;ctg3 674&lt;br&gt;Location: 734052 - 735204" locus_tag="ctg3_674" class="clusterblast-orf" id="dummy-2_q29_0_all"  />
<polygon points="185,35 190,30 190,30 190,40 190,40 185,35 " style="fill:white; stroke-width:1; stroke:black; " description="&lt;b&gt;ctg3_675&lt;/b&gt;&lt;br&gt;ctg3 675&lt;br&gt;Location: 735288 - 736560" locus_tag="ctg3_675" class="clusterblast-orf" id="dummy-2_q30_0_all"  />
<polygon points="190,35 193,30 193,40 190,35 " style="fill:white; stroke-width:1; stroke:black; " description="&lt;b&gt;ctg3_676&lt;/b&gt;&lt;br&gt;ctg3 676&lt;br&gt;Location: 736552 - 737500" locus_tag="ctg3_676" class="clusterblast-orf" id="dummy-2_q31_0_all"  />
<polygon points="193,35 197,30 197,40 193,35 " style="fill:white; stroke-width:1; stroke:black; " description="&lt;b&gt;ctg3_677&lt;/b&gt;&lt;br&gt;ctg3 677&lt;br&gt;Location: 737545 - 738472" locus_tag="ctg3_677" class="clusterblast-orf" id="dummy-2_q32_0_all"  />
<polygon points="197,40 200,35 197,30 197,40 " style="fill:white; stroke-width:1; stroke:black; " description="&lt;b&gt;ctg3_678&lt;/b&gt;&lt;br&gt;ctg3 678&lt;br&gt;Location: 738643 - 739417" locus_tag="ctg3_678" class="clusterblast-orf" id="dummy-2_q33_0_all"  />
<polygon points="200,35 203,30 203,40 200,35 " style="fill:white; stroke-width:1; stroke:black; " description="&lt;b&gt;ctg3_679&lt;/b&gt;&lt;br&gt;ctg3 679&lt;br&gt;Location: 739442 - 740150" locus_tag="ctg3_679" class="clusterblast-orf" id="dummy-2_q34_0_all"  />
<polygon points="203,35 205,30 205,40 203,35 " style="fill:white; stroke-width:1; stroke:black; " description="&lt;b&gt;ctg3_680&lt;/b&gt;&lt;br&gt;ctg3 680&lt;br&gt;Location: 740151 - 740697" locus_tag="ctg3_680" class="clusterblast-orf" id="dummy-2_q35_0_all"  />
<polygon points="205,40 208,35 205,30 205,40 " style="fill:white; stroke-width:1; stroke:black; " description="&lt;b&gt;ctg3_681&lt;/b&gt;&lt;br&gt;ctg3 681&lt;br&gt;Location: 740880 - 741528" locus_tag="ctg3_681" class="clusterblast-orf" id="dummy-2_q36_0_all"  />
<polygon points="208,40 212,35 208,30 208,40 " style="fill:white; stroke-width:1; stroke:black; " description="&lt;b&gt;ctg3_682&lt;/b&gt;&lt;br&gt;ctg3 682&lt;br&gt;Location: 741538 - 742768" locus_tag="ctg3_682" class="clusterblast-orf" id="dummy-2_q37_0_all"  />
<polygon points="212,40 215,35 212,30 212,40 " style="fill:white; stroke-width:1; stroke:black; " description="&lt;b&gt;ctg3_683&lt;/b&gt;&lt;br&gt;ctg3 683&lt;br&gt;Location: 742769 - 743627" locus_tag="ctg3_683" class="clusterblast-orf" id="dummy-2_q38_0_all"  />
<polygon points="215,40 218,35 215,30 215,40 " style="fill:white; stroke-width:1; stroke:black; " description="&lt;b&gt;ctg3_684&lt;/b&gt;&lt;br&gt;ctg3 684&lt;br&gt;Location: 743719 - 744373" locus_tag="ctg3_684" class="clusterblast-orf" id="dummy-2_q39_0_all"  />
<polygon points="219,40 219,40 224,35 219,30 219,30 219,40 " style="fill:white; stroke-width:1; stroke:black; " description="&lt;b&gt;ctg3_685&lt;/b&gt;&lt;br&gt;ctg3 685&lt;br&gt;Location: 744818 - 746189" locus_tag="ctg3_685" class="clusterblast-orf" id="dummy-2_q40_0_all"  />
<polygon points="224,35 227,30 227,40 224,35 " style="fill:white; stroke-width:1; stroke:black; " description="&lt;b&gt;ctg3_686&lt;/b&gt;&lt;br&gt;ctg3 686&lt;br&gt;Location: 746211 - 746955" locus_tag="ctg3_686" class="clusterblast-orf" id="dummy-2_q41_0_all"  />
<polygon points="228,40 231,35 228,30 228,40 " style="fill:white; stroke-width:1; stroke:black; " description="&lt;b&gt;ctg3_687&lt;/b&gt;&lt;br&gt;ctg3 687&lt;br&gt;Location: 747265 - 748105" locus_tag="ctg3_687" class="clusterblast-orf" id="dummy-2_q42_0_all"  />
<polygon points="231,40 235,35 231,30 231,40 " style="fill:white; stroke-width:1; stroke:black; " description="&lt;b&gt;ctg3_688&lt;/b&gt;&lt;br&gt;ctg3 688&lt;br&gt;Location: 748101 - 749103" locus_tag="ctg3_688" class="clusterblast-orf" id="dummy-2_q43_0_all"  />
<polygon points="235,40 237,35 235,30 235,40 " style="fill:white; stroke-width:1; stroke:black; " description="&lt;b&gt;ctg3_689&lt;/b&gt;&lt;br&gt;ctg3 689&lt;br&gt;Location: 749116 - 749866" locus_tag="ctg3_689" class="clusterblast-orf" id="dummy-2_q44_0_all"  />
<polygon points="238,40 241,40 246,35 241,30 238,30 238,40 " style="fill:white; stroke-width:1; stroke:black; " description="&lt;b&gt;ctg3_690&lt;/b&gt;&lt;br&gt;ctg3 690&lt;br&gt;Location: 750052 - 752425" locus_tag="ctg3_690" class="clusterblast-orf" id="dummy-2_q45_0_all"  />
<polygon points="246,35 251,30 253,30 253,40 251,40 246,35 " style="fill:white; stroke-width:1; stroke:black; " description="&lt;b&gt;ctg3_691&lt;/b&gt;&lt;br&gt;ctg3 691&lt;br&gt;Location: 752439 - 754272" locus_tag="ctg3_691" class="clusterblast-orf" id="dummy-2_q46_0_all"  />
<polygon points="254,35 258,30 258,40 254,35 " style="fill:white; stroke-width:1; stroke:black; " description="&lt;b&gt;ctg3_692&lt;/b&gt;&lt;br&gt;ctg3 692&lt;br&gt;Location: 754546 - 755707" locus_tag="ctg3_692" class="clusterblast-orf" id="dummy-2_q47_0_all"  />
<polygon points="258,35 263,30 284,30 284,40 263,40 258,35 " style="fill:white; stroke-width:1; stroke:black; " description="&lt;b&gt;ctg3_693&lt;/b&gt;&lt;br&gt;ctg3 693&lt;br&gt;Location: 755768 - 763007" locus_tag="ctg3_693" class="clusterblast-orf" id="dummy-2_q48_0_all"  />
<polygon points="285,35 289,30 289,40 285,35 " style="fill:white; stroke-width:1; stroke:black; " description="&lt;b&gt;ctg3_694&lt;/b&gt;&lt;br&gt;ctg3 694&lt;br&gt;Location: 763141 - 764410" locus_tag="ctg3_694" class="clusterblast-orf" id="dummy-2_q49_0_all"  />
<polygon points="289,35 290,30 290,40 289,35 " style="fill:white; stroke-width:1; stroke:black; " description="&lt;b&gt;ctg3_695&lt;/b&gt;&lt;br&gt;ctg3 695&lt;br&gt;Location: 764447 - 764633" locus_tag="ctg3_695" class="clusterblast-orf" id="dummy-2_q50_0_all"  />
<polygon points="290,35 295,30 295,30 295,40 295,40 290,35 " style="fill:#77d815; stroke-width:1; stroke:black; " description="&lt;b&gt;ctg3_696&lt;/b&gt;&lt;br&gt;ctg3 696&lt;br&gt;Location: 764644 - 766063" locus_tag="ctg3_696" class="clusterblast-orf" id="dummy-2_q51_0_all"  />
<polygon points="295,35 299,30 299,40 295,35 " style="fill:#15d8d8; stroke-width:1; stroke:black; " description="&lt;b&gt;ctg3_697&lt;/b&gt;&lt;br&gt;ctg3 697&lt;br&gt;Location: 766120 - 767050" locus_tag="ctg3_697" class="clusterblast-orf" id="dummy-2_q52_0_all"  />
<polygon points="299,35 299,30 299,40 299,35 " style="fill:white; stroke-width:1; stroke:black; " description="&lt;b&gt;ctg3_698&lt;/b&gt;&lt;br&gt;ctg3 698&lt;br&gt;Location: 767046 - 767169" locus_tag="ctg3_698" class="clusterblast-orf" id="dummy-2_q53_0_all"  />
<polygon points="300,35 305,30 348,30 348,40 305,40 300,35 " style="fill:#d81515; stroke-width:1; stroke:black; " description="&lt;b&gt;ctg3_699&lt;/b&gt;&lt;br&gt;ctg3 699&lt;br&gt;Location: 767365 - 780931" locus_tag="ctg3_699" class="clusterblast-orf" id="dummy-2_q54_0_all"  />
<polygon points="348,35 353,30 401,30 401,40 353,40 348,35 " style="fill:#d81515; stroke-width:1; stroke:black; " description="&lt;b&gt;ctg3_700&lt;/b&gt;&lt;br&gt;ctg3 700&lt;br&gt;Location: 780934 - 795787" locus_tag="ctg3_700" class="clusterblast-orf" id="dummy-2_q55_0_all"  />
<polygon points="402,40 406,35 402,30 402,40 " style="fill:#7715d8; stroke-width:1; stroke:black; " description="&lt;b&gt;ctg3_701&lt;/b&gt;&lt;br&gt;ctg3 701&lt;br&gt;Location: 796179 - 797169" locus_tag="ctg3_701" class="clusterblast-orf" id="dummy-2_q56_0_all"  />
<polygon points="406,40 406,40 411,35 406,30 406,30 406,40 " style="fill:#d85015; stroke-width:1; stroke:black; " description="&lt;b&gt;ctg3_702&lt;/b&gt;&lt;br&gt;ctg3 702&lt;br&gt;Location: 797165 - 798530" locus_tag="ctg3_702" class="clusterblast-orf" id="dummy-2_q57_0_all"  />
<polygon points="412,35 416,30 416,40 412,35 " style="fill:#3cd815; stroke-width:1; stroke:black; " description="&lt;b&gt;ctg3_703&lt;/b&gt;&lt;br&gt;ctg3 703&lt;br&gt;Location: 798918 - 800121" locus_tag="ctg3_703" class="clusterblast-orf" id="dummy-2_q58_0_all"  />
<polygon points="417,35 420,30 420,40 417,35 " style="fill:#159ed8; stroke-width:1; stroke:black; " description="&lt;b&gt;ctg3_704&lt;/b&gt;&lt;br&gt;ctg3 704&lt;br&gt;Location: 800162 - 801107" locus_tag="ctg3_704" class="clusterblast-orf" id="dummy-2_q59_0_all"  />
<polygon points="420,35 425,30 426,30 426,40 425,40 420,35 " style="fill:#b115d8; stroke-width:1; stroke:black; " description="&lt;b&gt;ctg3_705&lt;/b&gt;&lt;br&gt;ctg3 705&lt;br&gt;Location: 801099 - 802959" locus_tag="ctg3_705" class="clusterblast-orf" id="dummy-2_q60_0_all"  />
<polygon points="428,40 432,35 428,30 428,40 " style="fill:#d88a15; stroke-width:1; stroke:black; " description="&lt;b&gt;ctg3_706&lt;/b&gt;&lt;br&gt;ctg3 706&lt;br&gt;Location: 803416 - 804442" locus_tag="ctg3_706" class="clusterblast-orf" id="dummy-2_q61_0_all"  />
<polygon points="432,40 433,40 438,35 433,30 432,30 432,40 " style="fill:#15d829; stroke-width:1; stroke:black; " description="&lt;b&gt;ctg3_707&lt;/b&gt;&lt;br&gt;ctg3 707&lt;br&gt;Location: 804556 - 806287" locus_tag="ctg3_707" class="clusterblast-orf" id="dummy-2_q62_0_all"  />
<polygon points="439,40 537,40 542,35 537,30 439,30 439,40 " style="fill:#d81515; stroke-width:1; stroke:black; " description="&lt;b&gt;ctg3_708&lt;/b&gt;&lt;br&gt;ctg3 708&lt;br&gt;Location: 806511 - 835419" locus_tag="ctg3_708" class="clusterblast-orf" id="dummy-2_q63_0_all"  />
<polygon points="542,40 584,40 589,35 584,30 542,30 542,40 " style="fill:#d81515; stroke-width:1; stroke:black; " description="&lt;b&gt;ctg3_709&lt;/b&gt;&lt;br&gt;ctg3 709&lt;br&gt;Location: 835415 - 848543" locus_tag="ctg3_709" class="clusterblast-orf" id="dummy-2_q64_0_all"  />
<polygon points="590,40 695,40 700,35 695,30 590,30 590,40 " style="fill:#d81515; stroke-width:1; stroke:black; " description="&lt;b&gt;ctg3_710&lt;/b&gt;&lt;br&gt;ctg3 710&lt;br&gt;Location: 848881 - 879715" locus_tag="ctg3_710" class="clusterblast-orf" id="dummy-2_q65_0_all"  />
<polygon points="701,40 705,35 701,30 701,40 " style="fill:#1563d8; stroke-width:1; stroke:black; " description="&lt;b&gt;ctg3_711&lt;/b&gt;&lt;br&gt;ctg3 711&lt;br&gt;Location: 879882 - 881034" locus_tag="ctg3_711" class="clusterblast-orf" id="dummy-2_q66_0_all"  />
<polygon points="705,40 707,40 712,35 707,30 705,30 705,40 " style="fill:#d815c5; stroke-width:1; stroke:black; " description="&lt;b&gt;ctg3_712&lt;/b&gt;&lt;br&gt;ctg3 712&lt;br&gt;Location: 881036 - 882998" locus_tag="ctg3_712" class="clusterblast-orf" id="dummy-2_q67_0_all"  />
<polygon points="713,35 717,30 717,40 713,35 " style="fill:#d8c515; stroke-width:1; stroke:black; " description="&lt;b&gt;ctg3_713&lt;/b&gt;&lt;br&gt;ctg3 713&lt;br&gt;Location: 883276 - 884617" locus_tag="ctg3_713" class="clusterblast-orf" id="dummy-2_q68_0_all"  />
<polygon points="719,40 719,40 724,35 719,30 719,30 719,40 " style="fill:#15d863; stroke-width:1; stroke:black; " description="&lt;b&gt;ctg3_714&lt;/b&gt;&lt;br&gt;ctg3 714&lt;br&gt;Location: 885153 - 886575" locus_tag="ctg3_714" class="clusterblast-orf" id="dummy-2_q69_0_all"  />
<polygon points="724,40 728,35 724,30 724,40 " style="fill:#1529d8; stroke-width:1; stroke:black; " description="&lt;b&gt;ctg3_715&lt;/b&gt;&lt;br&gt;ctg3 715&lt;br&gt;Location: 886571 - 887687" locus_tag="ctg3_715" class="clusterblast-orf" id="dummy-2_q70_0_all"  />
<polygon points="728,40 734,40 739,35 734,30 728,30 728,40 " style="fill:#d8158a; stroke-width:1; stroke:black; " description="&lt;b&gt;ctg3_716&lt;/b&gt;&lt;br&gt;ctg3 716&lt;br&gt;Location: 887683 - 890758" locus_tag="ctg3_716" class="clusterblast-orf" id="dummy-2_q71_0_all"  />
<polygon points="739,35 743,30 743,40 739,35 " style="fill:#b1d815; stroke-width:1; stroke:black; " description="&lt;b&gt;ctg3_717&lt;/b&gt;&lt;br&gt;ctg3 717&lt;br&gt;Location: 890819 - 891668" locus_tag="ctg3_717" class="clusterblast-orf" id="dummy-2_q72_0_all"  />
<polygon points="743,35 745,30 745,40 743,35 " style="fill:#15d89e; stroke-width:1; stroke:black; " description="&lt;b&gt;ctg3_718&lt;/b&gt;&lt;br&gt;ctg3 718&lt;br&gt;Location: 891803 - 892490" locus_tag="ctg3_718" class="clusterblast-orf" id="dummy-2_q73_0_all"  />
<polygon points="747,40 750,35 747,30 747,40 " style="fill:#3c15d8; stroke-width:1; stroke:black; " description="&lt;b&gt;ctg3_719&lt;/b&gt;&lt;br&gt;ctg3 719&lt;br&gt;Location: 893032 - 893632" locus_tag="ctg3_719" class="clusterblast-orf" id="dummy-2_q74_0_all"  />
<polygon points="750,35 753,30 753,40 750,35 " style="fill:#d81550; stroke-width:1; stroke:black; " description="&lt;b&gt;ctg3_720&lt;/b&gt;&lt;br&gt;ctg3 720&lt;br&gt;Location: 893751 - 894477" locus_tag="ctg3_720" class="clusterblast-orf" id="dummy-2_q75_0_all"  />
<polygon points="754,35 755,30 755,40 754,35 " style="fill:white; stroke-width:1; stroke:black; " description="&lt;b&gt;ctg3_721&lt;/b&gt;&lt;br&gt;ctg3 721&lt;br&gt;Location: 894760 - 895201" locus_tag="ctg3_721" class="clusterblast-orf" id="dummy-2_q76_0_all"  />
<polygon points="756,35 758,30 758,40 756,35 " style="fill:white; stroke-width:1; stroke:black; " description="&lt;b&gt;ctg3_722&lt;/b&gt;&lt;br&gt;ctg3 722&lt;br&gt;Location: 895336 - 896110" locus_tag="ctg3_722" class="clusterblast-orf" id="dummy-2_q77_0_all"  />
<polygon points="759,35 764,30 764,30 764,40 764,40 759,35 " style="fill:white; stroke-width:1; stroke:black; " description="&lt;b&gt;ctg3_723&lt;/b&gt;&lt;br&gt;ctg3 723&lt;br&gt;Location: 896261 - 897572" locus_tag="ctg3_723" class="clusterblast-orf" id="dummy-2_q78_0_all"  />
<polygon points="764,40 768,35 764,30 764,40 " style="fill:white; stroke-width:1; stroke:black; " description="&lt;b&gt;ctg3_724&lt;/b&gt;&lt;br&gt;ctg3 724&lt;br&gt;Location: 897816 - 898707" locus_tag="ctg3_724" class="clusterblast-orf" id="dummy-2_q79_0_all"  />
<polygon points="768,35 770,30 770,40 768,35 " style="fill:white; stroke-width:1; stroke:black; " description="&lt;b&gt;ctg3_725&lt;/b&gt;&lt;br&gt;ctg3 725&lt;br&gt;Location: 898711 - 899515" locus_tag="ctg3_725" class="clusterblast-orf" id="dummy-2_q80_0_all"  />
<polygon points="771,35 774,30 774,40 771,35 " style="fill:white; stroke-width:1; stroke:black; " description="&lt;b&gt;ctg3_726&lt;/b&gt;&lt;br&gt;ctg3 726&lt;br&gt;Location: 899606 - 900554" locus_tag="ctg3_726" class="clusterblast-orf" id="dummy-2_q81_0_all"  />
<polygon points="775,40 775,40 780,35 775,30 775,30 775,40 " style="fill:white; stroke-width:1; stroke:black; " description="&lt;b&gt;ctg3_727&lt;/b&gt;&lt;br&gt;ctg3 727&lt;br&gt;Location: 900815 - 902057" locus_tag="ctg3_727" class="clusterblast-orf" id="dummy-2_q82_0_all"  />
</g>
<g label="BGC0000329" description="BGC0000329_c1: corpeptin A / corpeptin B (90% of genes show similarity), NRP" class="clusterblast-cluster"  >
<text x="5" y="70" class="clusterblast-acc"  >
<a xlink:href="https://mibig.secondarymetabolites.org/go/BGC0000329/1" target="_blank">BGC0000329</a>:                                                        corpeptin A / corpeptin B (90% of genes show similarity), NRP</text>
<line x1="10" y1="85" x2="778.0" y2="85" style="stroke-width:1; stroke:grey; "  />
</g>
<g id="a2_000"  >
<polygon points="352,90 370,90 375,85 370,80 352,80 352,90 " style="fill:white; stroke-width:1; stroke:black; " description="&lt;b&gt;AHY86403.1&lt;/b&gt;&lt;br&gt;non ribosomal peptide synthetase&lt;br&gt;Location: 21538 - 15048" locus_tag="AHY86403.1" class="clusterblast-orf" id="dummy-2_h2_3_0"  />
</g>
<g id="a2_001"  >
<polygon points="375,90 375,90 380,85 375,80 375,80 375,90 " style="fill:#1563d8; stroke-width:1; stroke:black; " description="&lt;b&gt;AHY86402.1&lt;/b&gt;&lt;br&gt;membrane fusion protein&lt;br&gt;Location: 14969 - 13818&lt;br&gt;&lt;br&gt;&lt;b&gt;BlastP hit with ctg3_711&lt;/b&gt;&lt;br&gt;Percentage identity: 84&lt;br&gt;Percentage coverage: 100&lt;br&gt;BLAST bit score: 602&lt;br&gt;E-value: 5.8e-172" locus_tag="AHY86402.1" class="clusterblast-orf" id="dummy-2_h2_3_1"  />
</g>
<g id="a2_002"  >
<polygon points="380,90 382,90 387,85 382,80 380,80 380,90 " style="fill:#d815c5; stroke-width:1; stroke:black; " description="&lt;b&gt;AHY86401.1&lt;/b&gt;&lt;br&gt;ABC transporter protein&lt;br&gt;Location: 13815 - 11854&lt;br&gt;&lt;br&gt;&lt;b&gt;BlastP hit with ctg3_712&lt;/b&gt;&lt;br&gt;Percentage identity: 87&lt;br&gt;Percentage coverage: 100&lt;br&gt;BLAST bit score: 1099&lt;br&gt;E-value: 0.0" locus_tag="AHY86401.1" class="clusterblast-orf" id="dummy-2_h2_3_2"  />
</g>
<g id="a2_003"  >
<polygon points="388,85 392,80 392,90 388,85 " style="fill:#d8c515; stroke-width:1; stroke:black; " description="&lt;b&gt;AHY86404.1&lt;/b&gt;&lt;br&gt;putative diaminobutyrate-2-oxoglutarate transaminase protein&lt;br&gt;Location: 11558 - 10218&lt;br&gt;&lt;br&gt;&lt;b&gt;BlastP hit with ctg3_713&lt;/b&gt;&lt;br&gt;Percentage identity: 86&lt;br&gt;Percentage coverage: 97&lt;br&gt;BLAST bit score: 749&lt;br&gt;E-value: 2.6e-216" locus_tag="AHY86404.1" class="clusterblast-orf" id="dummy-2_h2_3_3"  />
</g>
<g id="a2_004"  >
<polygon points="394,90 394,90 399,85 394,80 394,80 394,90 " style="fill:#15d863; stroke-width:1; stroke:black; " description="&lt;b&gt;ACV88183.1&lt;/b&gt;&lt;br&gt;PcoA&lt;br&gt;Location: 9819 - 8392&lt;br&gt;&lt;br&gt;&lt;b&gt;BlastP hit with ctg3_714&lt;/b&gt;&lt;br&gt;Percentage identity: 76&lt;br&gt;Percentage coverage: 100&lt;br&gt;BLAST bit score: 686&lt;br&gt;E-value: 2.2e-197" locus_tag="ACV88183.1" class="clusterblast-orf" id="dummy-2_h2_3_4"  />
</g>
<g id="a2_005"  >
<polygon points="399,90 403,85 399,80 399,90 " style="fill:#1529d8; stroke-width:1; stroke:black; " description="&lt;b&gt;ACV88182.1&lt;/b&gt;&lt;br&gt;PcoB&lt;br&gt;Location: 8449 - 7289&lt;br&gt;&lt;br&gt;&lt;b&gt;BlastP hit with ctg3_715&lt;/b&gt;&lt;br&gt;Percentage identity: 80&lt;br&gt;Percentage coverage: 100&lt;br&gt;BLAST bit score: 502&lt;br&gt;E-value: 6.1e-142" locus_tag="ACV88182.1" class="clusterblast-orf" id="dummy-2_h2_3_5"  />
</g>
<g id="a2_006"  >
<polygon points="403,90 409,90 414,85 409,80 403,80 403,90 " style="fill:#d8158a; stroke-width:1; stroke:black; " description="&lt;b&gt;ACV88181.1&lt;/b&gt;&lt;br&gt;PcoC&lt;br&gt;Location: 7292 - 4209&lt;br&gt;&lt;br&gt;&lt;b&gt;BlastP hit with ctg3_716&lt;/b&gt;&lt;br&gt;Percentage identity: 85&lt;br&gt;Percentage coverage: 100&lt;br&gt;BLAST bit score: 1636&lt;br&gt;E-value: 0.0" locus_tag="ACV88181.1" class="clusterblast-orf" id="dummy-2_h2_3_6"  />
</g>
<g id="a2_007"  >
<polygon points="414,85 417,80 417,90 414,85 " style="fill:#b1d815; stroke-width:1; stroke:black; " description="&lt;b&gt;ACV88180.1&lt;/b&gt;&lt;br&gt;RfiA&lt;br&gt;Location: 4151 - 3285&lt;br&gt;&lt;br&gt;&lt;b&gt;BlastP hit with ctg3_717&lt;/b&gt;&lt;br&gt;Percentage identity: 70&lt;br&gt;Percentage coverage: 102&lt;br&gt;BLAST bit score: 387&lt;br&gt;E-value: 1.7e-107" locus_tag="ACV88180.1" class="clusterblast-orf" id="dummy-2_h2_3_7"  />
</g>
<g id="a2_008"  >
<polygon points="417,85 420,80 420,90 417,85 " style="fill:#15d89e; stroke-width:1; stroke:black; " description="&lt;b&gt;ABP88724.1&lt;/b&gt;&lt;br&gt;acyl-homoserine lactone synthase&lt;br&gt;Location: 3252 - 2479&lt;br&gt;&lt;br&gt;&lt;b&gt;BlastP hit with ctg3_718&lt;/b&gt;&lt;br&gt;Percentage identity: 65&lt;br&gt;Percentage coverage: 92&lt;br&gt;BLAST bit score: 283&lt;br&gt;E-value: 3.6e-76" locus_tag="ABP88724.1" class="clusterblast-orf" id="dummy-2_h2_3_8"  />
</g>
<g id="a2_009"  >
<polygon points="422,90 424,85 422,80 422,90 " style="fill:#3c15d8; stroke-width:1; stroke:black; " description="&lt;b&gt;ABP88723.1&lt;/b&gt;&lt;br&gt;putative membrane protein&lt;br&gt;Location: 1912 - 1301&lt;br&gt;&lt;br&gt;&lt;b&gt;BlastP hit with ctg3_719&lt;/b&gt;&lt;br&gt;Percentage identity: 70&lt;br&gt;Percentage coverage: 100&lt;br&gt;BLAST bit score: 278&lt;br&gt;E-value: 7.7e-75" locus_tag="ABP88723.1" class="clusterblast-orf" id="dummy-2_h2_3_9"  />
</g>
<g id="a2_0010"  >
<polygon points="424,85 427,80 427,90 424,85 " style="fill:#d81550; stroke-width:1; stroke:black; " description="&lt;b&gt;ABP88722.1&lt;/b&gt;&lt;br&gt;transcriptional activator protein&lt;br&gt;Location: 1214 - 486&lt;br&gt;&lt;br&gt;&lt;b&gt;BlastP hit with ctg3_720&lt;/b&gt;&lt;br&gt;Percentage identity: 71&lt;br&gt;Percentage coverage: 98&lt;br&gt;BLAST bit score: 361&lt;br&gt;E-value: 1.4e-99" locus_tag="ABP88722.1" class="clusterblast-orf" id="dummy-2_h2_3_10"  />
</g>
</svg>
