<svg xmlns="http://www.w3.org/2000/svg" xmlns:xlink="http://www.w3.org/1999/xlink" version="1.1" x="0" y="0" height="230" width="800" viewBox="0 0 800 230" preserveAspectRatio="none"  >
<g label="Query sequence" class="clusterblast-cluster"  >
<text x="5" y="20" class="clusterblast-acc"  >
Query sequence</text>
<line x1="10" y1="35" x2="778.0" y2="35" style="stroke-width:1; stroke:grey; "  />
<polygon points="0,35 5,30 6,30 6,40 5,40 0,35 " style="fill:white; stroke-width:1; stroke:black; " description="&lt;b&gt;ctg6_147&lt;/b&gt;&lt;br&gt;ctg6 147&lt;br&gt;Location: 179074 - 179695" locus_tag="ctg6_147" class="clusterblast-orf" id="dummy-1_q0_0_all"  />
<polygon points="10,35 15,30 37,30 37,40 15,40 10,35 " style="fill:#d81515; stroke-width:1; stroke:black; " description="&lt;b&gt;ctg6_148&lt;/b&gt;&lt;br&gt;ctg6 148&lt;br&gt;Location: 180036 - 182742" locus_tag="ctg6_148" class="clusterblast-orf" id="dummy-1_q1_0_all"  />
<polygon points="43,35 48,30 56,30 56,40 48,40 43,35 " style="fill:#60d815; stroke-width:1; stroke:black; " description="&lt;b&gt;ctg6_149&lt;/b&gt;&lt;br&gt;ctg6 149&lt;br&gt;Location: 183246 - 184584" locus_tag="ctg6_149" class="clusterblast-orf" id="dummy-1_q2_0_all"  />
<polygon points="58,35 63,30 63,30 63,40 63,40 58,35 " style="fill:#15abd8; stroke-width:1; stroke:black; " description="&lt;b&gt;ctg6_150&lt;/b&gt;&lt;br&gt;ctg6 150&lt;br&gt;Location: 184716 - 185199" locus_tag="ctg6_150" class="clusterblast-orf" id="dummy-1_q3_0_all"  />
<polygon points="66,40 73,40 78,35 73,30 66,30 66,40 " style="fill:#8d15d8; stroke-width:1; stroke:black; " description="&lt;b&gt;ctg6_151&lt;/b&gt;&lt;br&gt;ctg6 151&lt;br&gt;Location: 185519 - 186692" locus_tag="ctg6_151" class="clusterblast-orf" id="dummy-1_q4_0_all"  />
<polygon points="78,40 94,40 99,35 94,30 78,30 78,40 " style="fill:#d84215; stroke-width:1; stroke:black; " description="&lt;b&gt;ctg6_152&lt;/b&gt;&lt;br&gt;ctg6 152&lt;br&gt;Location: 186692 - 188666" locus_tag="ctg6_152" class="clusterblast-orf" id="dummy-1_q5_0_all"  />
<polygon points="99,40 108,40 113,35 108,30 99,30 99,40 " style="fill:#33d815; stroke-width:1; stroke:black; " description="&lt;b&gt;ctg6_153&lt;/b&gt;&lt;br&gt;ctg6 153&lt;br&gt;Location: 188673 - 190068" locus_tag="ctg6_153" class="clusterblast-orf" id="dummy-1_q6_0_all"  />
<polygon points="117,35 122,30 134,30 134,40 122,40 117,35 " style="fill:#157ed8; stroke-width:1; stroke:black; " description="&lt;b&gt;ctg6_154&lt;/b&gt;&lt;br&gt;ctg6 154&lt;br&gt;Location: 190471 - 192100" locus_tag="ctg6_154" class="clusterblast-orf" id="dummy-1_q7_0_all"  />
<polygon points="136,40 145,40 150,35 145,30 136,30 136,40 " style="fill:#ba15d8; stroke-width:1; stroke:black; " description="&lt;b&gt;ctg6_155&lt;/b&gt;&lt;br&gt;ctg6 155&lt;br&gt;Location: 192332 - 193703" locus_tag="ctg6_155" class="clusterblast-orf" id="dummy-1_q8_0_all"  />
<polygon points="150,40 159,40 164,35 159,30 150,30 150,40 " style="fill:#d86f15; stroke-width:1; stroke:black; " description="&lt;b&gt;ctg6_156&lt;/b&gt;&lt;br&gt;ctg6 156&lt;br&gt;Location: 193699 - 194983" locus_tag="ctg6_156" class="clusterblast-orf" id="dummy-1_q9_0_all"  />
<polygon points="166,40 170,40 175,35 170,30 166,30 166,40 " style="fill:#15d824; stroke-width:1; stroke:black; " description="&lt;b&gt;ctg6_157&lt;/b&gt;&lt;br&gt;ctg6 157&lt;br&gt;Location: 195221 - 196109" locus_tag="ctg6_157" class="clusterblast-orf" id="dummy-1_q10_0_all"  />
<polygon points="177,40 189,40 194,35 189,30 177,30 177,40 " style="fill:#1551d8; stroke-width:1; stroke:black; " description="&lt;b&gt;ctg6_158&lt;/b&gt;&lt;br&gt;ctg6 158&lt;br&gt;Location: 196239 - 197898" locus_tag="ctg6_158" class="clusterblast-orf" id="dummy-1_q11_0_all"  />
<polygon points="194,40 233,40 238,35 233,30 194,30 194,40 " style="fill:#d815c9; stroke-width:1; stroke:black; " description="&lt;b&gt;ctg6_159&lt;/b&gt;&lt;br&gt;ctg6 159&lt;br&gt;Location: 197962 - 202165" locus_tag="ctg6_159" class="clusterblast-orf" id="dummy-1_q12_0_all"  />
<polygon points="243,35 246,30 246,40 243,35 " style="fill:white; stroke-width:1; stroke:black; " description="&lt;b&gt;ctg6_160&lt;/b&gt;&lt;br&gt;ctg6 160&lt;br&gt;Location: 202628 - 202997" locus_tag="ctg6_160" class="clusterblast-orf" id="dummy-1_q13_0_all"  />
<polygon points="254,35 259,30 280,30 280,40 259,40 254,35 " style="fill:white; stroke-width:1; stroke:black; " description="&lt;b&gt;ctg6_161&lt;/b&gt;&lt;br&gt;ctg6 161&lt;br&gt;Location: 203761 - 206242" locus_tag="ctg6_161" class="clusterblast-orf" id="dummy-1_q14_0_all"  />
<polygon points="286,35 291,30 319,30 319,40 291,40 286,35 " style="fill:white; stroke-width:1; stroke:black; " description="&lt;b&gt;ctg6_162&lt;/b&gt;&lt;br&gt;ctg6 162&lt;br&gt;Location: 206833 - 210055" locus_tag="ctg6_162" class="clusterblast-orf" id="dummy-1_q15_0_all"  />
<polygon points="319,35 324,30 459,30 459,40 324,40 319,35 " style="fill:#d89c15; stroke-width:1; stroke:black; " description="&lt;b&gt;ctg6_163&lt;/b&gt;&lt;br&gt;ctg6 163&lt;br&gt;Location: 210051 - 223575" locus_tag="ctg6_163" class="clusterblast-orf" id="dummy-1_q16_0_all"  />
<polygon points="459,35 464,30 586,30 586,40 464,40 459,35 " style="fill:#d89c15; stroke-width:1; stroke:black; " description="&lt;b&gt;ctg6_164&lt;/b&gt;&lt;br&gt;ctg6 164&lt;br&gt;Location: 223592 - 235946" locus_tag="ctg6_164" class="clusterblast-orf" id="dummy-1_q17_0_all"  />
<polygon points="589,35 594,30 596,30 596,40 594,40 589,35 " style="fill:#15d851; stroke-width:1; stroke:black; " description="&lt;b&gt;ctg6_165&lt;/b&gt;&lt;br&gt;ctg6 165&lt;br&gt;Location: 236194 - 236929" locus_tag="ctg6_165" class="clusterblast-orf" id="dummy-1_q18_0_all"  />
<polygon points="598,40 604,40 609,35 604,30 598,30 598,40 " style="fill:white; stroke-width:1; stroke:black; " description="&lt;b&gt;ctg6_166&lt;/b&gt;&lt;br&gt;ctg6 166&lt;br&gt;Location: 237061 - 238195" locus_tag="ctg6_166" class="clusterblast-orf" id="dummy-1_q19_0_all"  />
<polygon points="611,35 616,30 623,30 623,40 616,40 611,35 " style="fill:#1524d8; stroke-width:1; stroke:black; " description="&lt;b&gt;ctg6_167&lt;/b&gt;&lt;br&gt;ctg6 167&lt;br&gt;Location: 238308 - 239481" locus_tag="ctg6_167" class="clusterblast-orf" id="dummy-1_q20_0_all"  />
<polygon points="625,40 628,40 633,35 628,30 625,30 625,40 " style="fill:#d8159c; stroke-width:1; stroke:black; " description="&lt;b&gt;ctg6_168&lt;/b&gt;&lt;br&gt;ctg6 168&lt;br&gt;Location: 239709 - 240510" locus_tag="ctg6_168" class="clusterblast-orf" id="dummy-1_q21_0_all"  />
<polygon points="633,40 647,40 652,35 647,30 633,30 633,40 " style="fill:#d8c915; stroke-width:1; stroke:black; " description="&lt;b&gt;ctg6_169&lt;/b&gt;&lt;br&gt;ctg6 169&lt;br&gt;Location: 240502 - 242329" locus_tag="ctg6_169" class="clusterblast-orf" id="dummy-1_q22_0_all"  />
<polygon points="658,40 662,35 658,30 658,40 " style="fill:white; stroke-width:1; stroke:black; " description="&lt;b&gt;ctg6_170&lt;/b&gt;&lt;br&gt;ctg6 170&lt;br&gt;Location: 242874 - 243264" locus_tag="ctg6_170" class="clusterblast-orf" id="dummy-1_q23_0_all"  />
<polygon points="663,40 671,40 676,35 671,30 663,30 663,40 " style="fill:white; stroke-width:1; stroke:black; " description="&lt;b&gt;ctg6_171&lt;/b&gt;&lt;br&gt;ctg6 171&lt;br&gt;Location: 243399 - 244644" locus_tag="ctg6_171" class="clusterblast-orf" id="dummy-1_q24_0_all"  />
<polygon points="677,40 681,40 686,35 681,30 677,30 677,40 " style="fill:#15d87e; stroke-width:1; stroke:black; " description="&lt;b&gt;ctg6_172&lt;/b&gt;&lt;br&gt;ctg6 172&lt;br&gt;Location: 244758 - 245664" locus_tag="ctg6_172" class="clusterblast-orf" id="dummy-1_q25_0_all"  />
<polygon points="686,35 691,30 696,30 696,40 691,40 686,35 " style="fill:#3315d8; stroke-width:1; stroke:black; " description="&lt;b&gt;ctg6_173&lt;/b&gt;&lt;br&gt;ctg6 173&lt;br&gt;Location: 245617 - 246616" locus_tag="ctg6_173" class="clusterblast-orf" id="dummy-1_q26_0_all"  />
<polygon points="697,40 699,40 704,35 699,30 697,30 697,40 " style="fill:#d8156f; stroke-width:1; stroke:black; " description="&lt;b&gt;ctg6_174&lt;/b&gt;&lt;br&gt;ctg6 174&lt;br&gt;Location: 246708 - 247395" locus_tag="ctg6_174" class="clusterblast-orf" id="dummy-1_q27_0_all"  />
<polygon points="705,35 710,30 712,30 712,40 710,40 705,35 " style="fill:white; stroke-width:1; stroke:black; " description="&lt;b&gt;ctg6_175&lt;/b&gt;&lt;br&gt;ctg6 175&lt;br&gt;Location: 247489 - 248107" locus_tag="ctg6_175" class="clusterblast-orf" id="dummy-1_q28_0_all"  />
<polygon points="715,35 720,30 723,30 723,40 720,40 715,35 " style="fill:#bad815; stroke-width:1; stroke:black; " description="&lt;b&gt;ctg6_176&lt;/b&gt;&lt;br&gt;ctg6 176&lt;br&gt;Location: 248451 - 249252" locus_tag="ctg6_176" class="clusterblast-orf" id="dummy-1_q29_0_all"  />
<polygon points="723,35 728,30 728,30 728,40 728,40 723,35 " style="fill:#15d8ab; stroke-width:1; stroke:black; " description="&lt;b&gt;ctg6_177&lt;/b&gt;&lt;br&gt;ctg6 177&lt;br&gt;Location: 249252 - 249741" locus_tag="ctg6_177" class="clusterblast-orf" id="dummy-1_q30_0_all"  />
<polygon points="731,40 735,40 740,35 735,30 731,30 731,40 " style="fill:#6015d8; stroke-width:1; stroke:black; " description="&lt;b&gt;ctg6_178&lt;/b&gt;&lt;br&gt;ctg6 178&lt;br&gt;Location: 249938 - 250883" locus_tag="ctg6_178" class="clusterblast-orf" id="dummy-1_q31_0_all"  />
<polygon points="740,40 744,35 740,30 740,40 " style="fill:#6015d8; stroke-width:1; stroke:black; " description="&lt;b&gt;ctg6_179&lt;/b&gt;&lt;br&gt;ctg6 179&lt;br&gt;Location: 250875 - 251274" locus_tag="ctg6_179" class="clusterblast-orf" id="dummy-1_q32_0_all"  />
<polygon points="746,40 749,35 746,30 746,40 " style="fill:white; stroke-width:1; stroke:black; " description="&lt;b&gt;ctg6_180&lt;/b&gt;&lt;br&gt;ctg6 180&lt;br&gt;Location: 251446 - 251749" locus_tag="ctg6_180" class="clusterblast-orf" id="dummy-1_q33_0_all"  />
<polygon points="751,40 753,40 758,35 753,30 751,30 751,40 " style="fill:white; stroke-width:1; stroke:black; " description="&lt;b&gt;ctg6_181&lt;/b&gt;&lt;br&gt;ctg6 181&lt;br&gt;Location: 251877 - 252582" locus_tag="ctg6_181" class="clusterblast-orf" id="dummy-1_q34_0_all"  />
<polygon points="759,40 763,35 759,30 759,40 " style="fill:#d81542; stroke-width:1; stroke:black; " description="&lt;b&gt;ctg6_182&lt;/b&gt;&lt;br&gt;ctg6 182&lt;br&gt;Location: 252704 - 253106" locus_tag="ctg6_182" class="clusterblast-orf" id="dummy-1_q35_0_all"  />
<polygon points="764,35 769,30 776,30 776,40 769,40 764,35 " style="fill:#8dd815; stroke-width:1; stroke:black; " description="&lt;b&gt;ctg6_183&lt;/b&gt;&lt;br&gt;ctg6 183&lt;br&gt;Location: 253229 - 254348" locus_tag="ctg6_183" class="clusterblast-orf" id="dummy-1_q36_0_all"  />
<polygon points="776,35 780,30 780,40 776,35 " style="fill:#15d8d8; stroke-width:1; stroke:black; " description="&lt;b&gt;ctg6_184&lt;/b&gt;&lt;br&gt;ctg6 184&lt;br&gt;Location: 254372 - 254696" locus_tag="ctg6_184" class="clusterblast-orf" id="dummy-1_q37_0_all"  />
</g>
<g label="BGC0001312" description="BGC0001312_c1: viscosin (31% of genes show similarity), NRP" class="clusterblast-cluster"  >
<text x="5" y="70" class="clusterblast-acc"  >
<a xlink:href="https://mibig.secondarymetabolites.org/go/BGC0001312/1" target="_blank">BGC0001312</a>:                                                                         viscosin (31% of genes show similarity), NRP</text>
<line x1="10" y1="85" x2="778.0" y2="85" style="stroke-width:1; stroke:grey; "  />
</g>
<g id="a1_000"  >
<polygon points="165,85 170,80 179,80 179,90 170,90 165,85 " style="fill:white; stroke-width:1; stroke:black; " description="&lt;b&gt;PFLU_2565&lt;/b&gt;&lt;br&gt;putative oxidoreductase&lt;br&gt;Location: 43437 - 42142" locus_tag="PFLU_2565" class="clusterblast-orf" id="dummy-1_h1_3_0"  />
</g>
<g id="a1_001"  >
<polygon points="179,85 184,80 190,80 190,90 184,90 179,85 " style="fill:white; stroke-width:1; stroke:black; " description="&lt;b&gt;PFLU_2564&lt;/b&gt;&lt;br&gt;putrescine ABC transporter, substrate-binding protein&lt;br&gt;Location: 42145 - 41057" locus_tag="PFLU_2564" class="clusterblast-orf" id="dummy-1_h1_3_1"  />
</g>
<g id="a1_002"  >
<polygon points="192,90 196,90 201,85 196,80 192,80 192,90 " style="fill:white; stroke-width:1; stroke:black; " description="&lt;b&gt;PFLU_2563&lt;/b&gt;&lt;br&gt;putative AraC-type regulatory protein&lt;br&gt;Location: 40892 - 39960" locus_tag="PFLU_2563" class="clusterblast-orf" id="dummy-1_h1_3_2"  />
</g>
<g id="a1_003"  >
<polygon points="202,90 220,90 225,85 220,80 202,80 202,90 " style="fill:white; stroke-width:1; stroke:black; " description="&lt;b&gt;PFLU_2562&lt;/b&gt;&lt;br&gt;putative ferric siderophore receptor&lt;br&gt;Location: 39872 - 37710" locus_tag="PFLU_2562" class="clusterblast-orf" id="dummy-1_h1_3_3"  />
</g>
<g id="a1_004"  >
<polygon points="225,85 229,80 229,90 225,85 " style="fill:white; stroke-width:1; stroke:black; " description="&lt;b&gt;PFLU_2561&lt;/b&gt;&lt;br&gt;conserved hypothetical protein&lt;br&gt;Location: 37706 - 37269" locus_tag="PFLU_2561" class="clusterblast-orf" id="dummy-1_h1_3_4"  />
</g>
<g id="a1_005"  >
<polygon points="234,85 238,80 238,90 234,85 " style="fill:white; stroke-width:1; stroke:black; " description="&lt;b&gt;PFLU_2559&lt;/b&gt;&lt;br&gt;AsnC family regulatory protein&lt;br&gt;Location: 36834 - 36364" locus_tag="PFLU_2559" class="clusterblast-orf" id="dummy-1_h1_3_5"  />
</g>
<g id="a1_006"  >
<polygon points="240,90 247,90 252,85 247,80 240,80 240,90 " style="fill:white; stroke-width:1; stroke:black; " description="&lt;b&gt;PFLU_2558&lt;/b&gt;&lt;br&gt;methionine gamma-lyase&lt;br&gt;Location: 36240 - 35005" locus_tag="PFLU_2558" class="clusterblast-orf" id="dummy-1_h1_3_6"  />
</g>
<g id="a1_007"  >
<polygon points="254,90 256,90 261,85 256,80 254,80 254,90 " style="fill:white; stroke-width:1; stroke:black; " description="&lt;b&gt;PFLU_2557&lt;/b&gt;&lt;br&gt;putative LuxR-family regulatory protein&lt;br&gt;Location: 34852 - 34178" locus_tag="PFLU_2557" class="clusterblast-orf" id="dummy-1_h1_3_7"  />
</g>
<g id="a1_008"  >
<polygon points="262,85 267,80 282,80 282,90 267,90 262,85 " style="fill:#d84215; stroke-width:1; stroke:black; " description="&lt;b&gt;PFLU_2556&lt;/b&gt;&lt;br&gt;macrolide-specific ABC-type efflux carrier&lt;br&gt;Location: 34107 - 32149&lt;br&gt;&lt;br&gt;&lt;b&gt;BlastP hit with ctg6_152&lt;/b&gt;&lt;br&gt;Percentage identity: 48&lt;br&gt;Percentage coverage: 101&lt;br&gt;BLAST bit score: 522&lt;br&gt;E-value: 1e-147" locus_tag="PFLU_2556" class="clusterblast-orf" id="dummy-1_h1_3_8"  />
</g>
<g id="a1_009"  >
<polygon points="282,85 287,80 294,80 294,90 287,90 282,85 " style="fill:white; stroke-width:1; stroke:black; " description="&lt;b&gt;PFLU_2555&lt;/b&gt;&lt;br&gt;putative drug-efflux protein&lt;br&gt;Location: 32145 - 30994" locus_tag="PFLU_2555" class="clusterblast-orf" id="dummy-1_h1_3_9"  />
</g>
<g id="a1_0010"  >
<polygon points="305,85 310,80 422,80 422,90 310,90 305,85 " style="fill:white; stroke-width:1; stroke:black; " description="&lt;b&gt;PFLU_2553&lt;/b&gt;&lt;br&gt;putative non-ribosomal peptide synthetase&lt;br&gt;Location: 29936 - 18615" locus_tag="PFLU_2553" class="clusterblast-orf" id="dummy-1_h1_3_10"  />
</g>
<g id="a1_0011"  >
<polygon points="421,85 426,80 554,80 554,90 426,90 421,85 " style="fill:white; stroke-width:1; stroke:black; " description="&lt;b&gt;PFLU_2552&lt;/b&gt;&lt;br&gt;putative non-ribosomal peptide synthetase&lt;br&gt;Location: 18618 - 5734" locus_tag="PFLU_2552" class="clusterblast-orf" id="dummy-1_h1_3_11"  />
</g>
<g id="a1_0012"  >
<polygon points="559,85 564,80 576,80 576,90 564,90 559,85 " style="fill:#157ed8; stroke-width:1; stroke:black; " description="&lt;b&gt;PFLU_2551&lt;/b&gt;&lt;br&gt;conserved hypothetical protein&lt;br&gt;Location: 5303 - 3678&lt;br&gt;&lt;br&gt;&lt;b&gt;BlastP hit with ctg6_154&lt;/b&gt;&lt;br&gt;Percentage identity: 80&lt;br&gt;Percentage coverage: 99&lt;br&gt;BLAST bit score: 936&lt;br&gt;E-value: 2.4e-272" locus_tag="PFLU_2551" class="clusterblast-orf" id="dummy-1_h1_3_12"  />
</g>
<g id="a1_0013"  >
<polygon points="577,90 586,90 591,85 586,80 577,80 577,90 " style="fill:#ba15d8; stroke-width:1; stroke:black; " description="&lt;b&gt;PFLU_2550&lt;/b&gt;&lt;br&gt;putative dipeptidase&lt;br&gt;Location: 3535 - 2186&lt;br&gt;&lt;br&gt;&lt;b&gt;BlastP hit with ctg6_155&lt;/b&gt;&lt;br&gt;Percentage identity: 84&lt;br&gt;Percentage coverage: 98&lt;br&gt;BLAST bit score: 790&lt;br&gt;E-value: 1.1e-228" locus_tag="PFLU_2550" class="clusterblast-orf" id="dummy-1_h1_3_13"  />
</g>
<g id="a1_0014"  >
<polygon points="591,90 599,90 604,85 599,80 591,80 591,90 " style="fill:#d86f15; stroke-width:1; stroke:black; " description="&lt;b&gt;PFLU_2549&lt;/b&gt;&lt;br&gt;putative aminotransferase&lt;br&gt;Location: 2167 - 896&lt;br&gt;&lt;br&gt;&lt;b&gt;BlastP hit with ctg6_156&lt;/b&gt;&lt;br&gt;Percentage identity: 68&lt;br&gt;Percentage coverage: 100&lt;br&gt;BLAST bit score: 603&lt;br&gt;E-value: 2.9e-172" locus_tag="PFLU_2549" class="clusterblast-orf" id="dummy-1_h1_3_14"  />
</g>
<g id="a1_0015"  >
<polygon points="605,90 609,90 614,85 609,80 605,80 605,90 " style="fill:#15d824; stroke-width:1; stroke:black; " description="&lt;b&gt;PFLU_2548&lt;/b&gt;&lt;br&gt;conserved hypothetical protein&lt;br&gt;Location: 861 - 1&lt;br&gt;&lt;br&gt;&lt;b&gt;BlastP hit with ctg6_157&lt;/b&gt;&lt;br&gt;Percentage identity: 73&lt;br&gt;Percentage coverage: 97&lt;br&gt;BLAST bit score: 450&lt;br&gt;E-value: 1.7e-126" locus_tag="PFLU_2548" class="clusterblast-orf" id="dummy-1_h1_3_15"  />
</g>
</svg>
