<svg xmlns="http://www.w3.org/2000/svg" xmlns:xlink="http://www.w3.org/1999/xlink" version="1.1" x="0" y="0" height="230" width="800" viewBox="0 0 800 230" preserveAspectRatio="none"  >
<g label="Query sequence" class="clusterblast-cluster"  >
<text x="5" y="20" class="clusterblast-acc"  >
Query sequence</text>
<line x1="10" y1="35" x2="778.0" y2="35" style="stroke-width:1; stroke:grey; "  />
<polygon points="40,35 45,30 45,30 45,40 45,40 40,35 " style="fill:white; stroke-width:1; stroke:black; " description="&lt;b&gt;ctg6_147&lt;/b&gt;&lt;br&gt;ctg6 147&lt;br&gt;Location: 179074 - 179695" locus_tag="ctg6_147" class="clusterblast-orf" id="dummy-1_q0_0_all"  />
<polygon points="48,35 53,30 74,30 74,40 53,40 48,35 " style="fill:#d81515; stroke-width:1; stroke:black; " description="&lt;b&gt;ctg6_148&lt;/b&gt;&lt;br&gt;ctg6 148&lt;br&gt;Location: 180036 - 182742" locus_tag="ctg6_148" class="clusterblast-orf" id="dummy-1_q1_0_all"  />
<polygon points="78,35 83,30 91,30 91,40 83,40 78,35 " style="fill:#60d815; stroke-width:1; stroke:black; " description="&lt;b&gt;ctg6_149&lt;/b&gt;&lt;br&gt;ctg6 149&lt;br&gt;Location: 183246 - 184584" locus_tag="ctg6_149" class="clusterblast-orf" id="dummy-1_q2_0_all"  />
<polygon points="92,35 96,30 96,40 92,35 " style="fill:#15abd8; stroke-width:1; stroke:black; " description="&lt;b&gt;ctg6_150&lt;/b&gt;&lt;br&gt;ctg6 150&lt;br&gt;Location: 184716 - 185199" locus_tag="ctg6_150" class="clusterblast-orf" id="dummy-1_q3_0_all"  />
<polygon points="99,40 105,40 110,35 105,30 99,30 99,40 " style="fill:#8d15d8; stroke-width:1; stroke:black; " description="&lt;b&gt;ctg6_151&lt;/b&gt;&lt;br&gt;ctg6 151&lt;br&gt;Location: 185519 - 186692" locus_tag="ctg6_151" class="clusterblast-orf" id="dummy-1_q4_0_all"  />
<polygon points="110,40 123,40 128,35 123,30 110,30 110,40 " style="fill:#d84215; stroke-width:1; stroke:black; " description="&lt;b&gt;ctg6_152&lt;/b&gt;&lt;br&gt;ctg6 152&lt;br&gt;Location: 186692 - 188666" locus_tag="ctg6_152" class="clusterblast-orf" id="dummy-1_q5_0_all"  />
<polygon points="128,40 136,40 141,35 136,30 128,30 128,40 " style="fill:#33d815; stroke-width:1; stroke:black; " description="&lt;b&gt;ctg6_153&lt;/b&gt;&lt;br&gt;ctg6 153&lt;br&gt;Location: 188673 - 190068" locus_tag="ctg6_153" class="clusterblast-orf" id="dummy-1_q6_0_all"  />
<polygon points="145,35 150,30 160,30 160,40 150,40 145,35 " style="fill:#157ed8; stroke-width:1; stroke:black; " description="&lt;b&gt;ctg6_154&lt;/b&gt;&lt;br&gt;ctg6 154&lt;br&gt;Location: 190471 - 192100" locus_tag="ctg6_154" class="clusterblast-orf" id="dummy-1_q7_0_all"  />
<polygon points="162,40 170,40 175,35 170,30 162,30 162,40 " style="fill:#ba15d8; stroke-width:1; stroke:black; " description="&lt;b&gt;ctg6_155&lt;/b&gt;&lt;br&gt;ctg6 155&lt;br&gt;Location: 192332 - 193703" locus_tag="ctg6_155" class="clusterblast-orf" id="dummy-1_q8_0_all"  />
<polygon points="175,40 182,40 187,35 182,30 175,30 175,40 " style="fill:#d86f15; stroke-width:1; stroke:black; " description="&lt;b&gt;ctg6_156&lt;/b&gt;&lt;br&gt;ctg6 156&lt;br&gt;Location: 193699 - 194983" locus_tag="ctg6_156" class="clusterblast-orf" id="dummy-1_q9_0_all"  />
<polygon points="189,40 192,40 197,35 192,30 189,30 189,40 " style="fill:#15d824; stroke-width:1; stroke:black; " description="&lt;b&gt;ctg6_157&lt;/b&gt;&lt;br&gt;ctg6 157&lt;br&gt;Location: 195221 - 196109" locus_tag="ctg6_157" class="clusterblast-orf" id="dummy-1_q10_0_all"  />
<polygon points="198,40 209,40 214,35 209,30 198,30 198,40 " style="fill:#1551d8; stroke-width:1; stroke:black; " description="&lt;b&gt;ctg6_158&lt;/b&gt;&lt;br&gt;ctg6 158&lt;br&gt;Location: 196239 - 197898" locus_tag="ctg6_158" class="clusterblast-orf" id="dummy-1_q11_0_all"  />
<polygon points="214,40 248,40 253,35 248,30 214,30 214,40 " style="fill:#d815c9; stroke-width:1; stroke:black; " description="&lt;b&gt;ctg6_159&lt;/b&gt;&lt;br&gt;ctg6 159&lt;br&gt;Location: 197962 - 202165" locus_tag="ctg6_159" class="clusterblast-orf" id="dummy-1_q12_0_all"  />
<polygon points="258,35 261,30 261,40 258,35 " style="fill:white; stroke-width:1; stroke:black; " description="&lt;b&gt;ctg6_160&lt;/b&gt;&lt;br&gt;ctg6 160&lt;br&gt;Location: 202628 - 202997" locus_tag="ctg6_160" class="clusterblast-orf" id="dummy-1_q13_0_all"  />
<polygon points="268,35 273,30 291,30 291,40 273,40 268,35 " style="fill:white; stroke-width:1; stroke:black; " description="&lt;b&gt;ctg6_161&lt;/b&gt;&lt;br&gt;ctg6 161&lt;br&gt;Location: 203761 - 206242" locus_tag="ctg6_161" class="clusterblast-orf" id="dummy-1_q14_0_all"  />
<polygon points="297,35 302,30 326,30 326,40 302,40 297,35 " style="fill:white; stroke-width:1; stroke:black; " description="&lt;b&gt;ctg6_162&lt;/b&gt;&lt;br&gt;ctg6 162&lt;br&gt;Location: 206833 - 210055" locus_tag="ctg6_162" class="clusterblast-orf" id="dummy-1_q15_0_all"  />
<polygon points="326,35 331,30 452,30 452,40 331,40 326,35 " style="fill:#d89c15; stroke-width:1; stroke:black; " description="&lt;b&gt;ctg6_163&lt;/b&gt;&lt;br&gt;ctg6 163&lt;br&gt;Location: 210051 - 223575" locus_tag="ctg6_163" class="clusterblast-orf" id="dummy-1_q16_0_all"  />
<polygon points="452,35 457,30 566,30 566,40 457,40 452,35 " style="fill:#d89c15; stroke-width:1; stroke:black; " description="&lt;b&gt;ctg6_164&lt;/b&gt;&lt;br&gt;ctg6 164&lt;br&gt;Location: 223592 - 235946" locus_tag="ctg6_164" class="clusterblast-orf" id="dummy-1_q17_0_all"  />
<polygon points="568,35 573,30 575,30 575,40 573,40 568,35 " style="fill:#15d851; stroke-width:1; stroke:black; " description="&lt;b&gt;ctg6_165&lt;/b&gt;&lt;br&gt;ctg6 165&lt;br&gt;Location: 236194 - 236929" locus_tag="ctg6_165" class="clusterblast-orf" id="dummy-1_q18_0_all"  />
<polygon points="576,40 582,40 587,35 582,30 576,30 576,40 " style="fill:white; stroke-width:1; stroke:black; " description="&lt;b&gt;ctg6_166&lt;/b&gt;&lt;br&gt;ctg6 166&lt;br&gt;Location: 237061 - 238195" locus_tag="ctg6_166" class="clusterblast-orf" id="dummy-1_q19_0_all"  />
<polygon points="588,35 593,30 599,30 599,40 593,40 588,35 " style="fill:#1524d8; stroke-width:1; stroke:black; " description="&lt;b&gt;ctg6_167&lt;/b&gt;&lt;br&gt;ctg6 167&lt;br&gt;Location: 238308 - 239481" locus_tag="ctg6_167" class="clusterblast-orf" id="dummy-1_q20_0_all"  />
<polygon points="601,40 603,40 608,35 603,30 601,30 601,40 " style="fill:#d8159c; stroke-width:1; stroke:black; " description="&lt;b&gt;ctg6_168&lt;/b&gt;&lt;br&gt;ctg6 168&lt;br&gt;Location: 239709 - 240510" locus_tag="ctg6_168" class="clusterblast-orf" id="dummy-1_q21_0_all"  />
<polygon points="608,40 620,40 625,35 620,30 608,30 608,40 " style="fill:#d8c915; stroke-width:1; stroke:black; " description="&lt;b&gt;ctg6_169&lt;/b&gt;&lt;br&gt;ctg6 169&lt;br&gt;Location: 240502 - 242329" locus_tag="ctg6_169" class="clusterblast-orf" id="dummy-1_q22_0_all"  />
<polygon points="630,40 634,35 630,30 630,40 " style="fill:white; stroke-width:1; stroke:black; " description="&lt;b&gt;ctg6_170&lt;/b&gt;&lt;br&gt;ctg6 170&lt;br&gt;Location: 242874 - 243264" locus_tag="ctg6_170" class="clusterblast-orf" id="dummy-1_q23_0_all"  />
<polygon points="635,40 642,40 647,35 642,30 635,30 635,40 " style="fill:white; stroke-width:1; stroke:black; " description="&lt;b&gt;ctg6_171&lt;/b&gt;&lt;br&gt;ctg6 171&lt;br&gt;Location: 243399 - 244644" locus_tag="ctg6_171" class="clusterblast-orf" id="dummy-1_q24_0_all"  />
<polygon points="648,40 651,40 656,35 651,30 648,30 648,40 " style="fill:#15d87e; stroke-width:1; stroke:black; " description="&lt;b&gt;ctg6_172&lt;/b&gt;&lt;br&gt;ctg6 172&lt;br&gt;Location: 244758 - 245664" locus_tag="ctg6_172" class="clusterblast-orf" id="dummy-1_q25_0_all"  />
<polygon points="656,35 661,30 665,30 665,40 661,40 656,35 " style="fill:#3315d8; stroke-width:1; stroke:black; " description="&lt;b&gt;ctg6_173&lt;/b&gt;&lt;br&gt;ctg6 173&lt;br&gt;Location: 245617 - 246616" locus_tag="ctg6_173" class="clusterblast-orf" id="dummy-1_q26_0_all"  />
<polygon points="666,40 667,40 672,35 667,30 666,30 666,40 " style="fill:#d8156f; stroke-width:1; stroke:black; " description="&lt;b&gt;ctg6_174&lt;/b&gt;&lt;br&gt;ctg6 174&lt;br&gt;Location: 246708 - 247395" locus_tag="ctg6_174" class="clusterblast-orf" id="dummy-1_q27_0_all"  />
<polygon points="673,35 678,30 679,30 679,40 678,40 673,35 " style="fill:white; stroke-width:1; stroke:black; " description="&lt;b&gt;ctg6_175&lt;/b&gt;&lt;br&gt;ctg6 175&lt;br&gt;Location: 247489 - 248107" locus_tag="ctg6_175" class="clusterblast-orf" id="dummy-1_q28_0_all"  />
<polygon points="682,35 687,30 689,30 689,40 687,40 682,35 " style="fill:#bad815; stroke-width:1; stroke:black; " description="&lt;b&gt;ctg6_176&lt;/b&gt;&lt;br&gt;ctg6 176&lt;br&gt;Location: 248451 - 249252" locus_tag="ctg6_176" class="clusterblast-orf" id="dummy-1_q29_0_all"  />
<polygon points="689,35 694,30 694,30 694,40 694,40 689,35 " style="fill:#15d8ab; stroke-width:1; stroke:black; " description="&lt;b&gt;ctg6_177&lt;/b&gt;&lt;br&gt;ctg6 177&lt;br&gt;Location: 249252 - 249741" locus_tag="ctg6_177" class="clusterblast-orf" id="dummy-1_q30_0_all"  />
<polygon points="696,40 699,40 704,35 699,30 696,30 696,40 " style="fill:#6015d8; stroke-width:1; stroke:black; " description="&lt;b&gt;ctg6_178&lt;/b&gt;&lt;br&gt;ctg6 178&lt;br&gt;Location: 249938 - 250883" locus_tag="ctg6_178" class="clusterblast-orf" id="dummy-1_q31_0_all"  />
<polygon points="704,40 708,35 704,30 704,40 " style="fill:#6015d8; stroke-width:1; stroke:black; " description="&lt;b&gt;ctg6_179&lt;/b&gt;&lt;br&gt;ctg6 179&lt;br&gt;Location: 250875 - 251274" locus_tag="ctg6_179" class="clusterblast-orf" id="dummy-1_q32_0_all"  />
<polygon points="710,40 712,35 710,30 710,40 " style="fill:white; stroke-width:1; stroke:black; " description="&lt;b&gt;ctg6_180&lt;/b&gt;&lt;br&gt;ctg6 180&lt;br&gt;Location: 251446 - 251749" locus_tag="ctg6_180" class="clusterblast-orf" id="dummy-1_q33_0_all"  />
<polygon points="714,40 715,40 720,35 715,30 714,30 714,40 " style="fill:white; stroke-width:1; stroke:black; " description="&lt;b&gt;ctg6_181&lt;/b&gt;&lt;br&gt;ctg6 181&lt;br&gt;Location: 251877 - 252582" locus_tag="ctg6_181" class="clusterblast-orf" id="dummy-1_q34_0_all"  />
<polygon points="721,40 725,35 721,30 721,40 " style="fill:#d81542; stroke-width:1; stroke:black; " description="&lt;b&gt;ctg6_182&lt;/b&gt;&lt;br&gt;ctg6 182&lt;br&gt;Location: 252704 - 253106" locus_tag="ctg6_182" class="clusterblast-orf" id="dummy-1_q35_0_all"  />
<polygon points="726,35 731,30 736,30 736,40 731,40 726,35 " style="fill:#8dd815; stroke-width:1; stroke:black; " description="&lt;b&gt;ctg6_183&lt;/b&gt;&lt;br&gt;ctg6 183&lt;br&gt;Location: 253229 - 254348" locus_tag="ctg6_183" class="clusterblast-orf" id="dummy-1_q36_0_all"  />
<polygon points="737,35 740,30 740,40 737,35 " style="fill:#15d8d8; stroke-width:1; stroke:black; " description="&lt;b&gt;ctg6_184&lt;/b&gt;&lt;br&gt;ctg6 184&lt;br&gt;Location: 254372 - 254696" locus_tag="ctg6_184" class="clusterblast-orf" id="dummy-1_q37_0_all"  />
</g>
<g label="BGC0001389" description="BGC0001389_c1: cichopeptin (15% of genes show similarity), NRP" class="clusterblast-cluster"  >
<text x="5" y="70" class="clusterblast-acc"  >
<a xlink:href="https://mibig.secondarymetabolites.org/go/BGC0001389/1" target="_blank">BGC0001389</a>:                                                                      cichopeptin (15% of genes show similarity), NRP</text>
<line x1="10" y1="85" x2="778.0" y2="85" style="stroke-width:1; stroke:grey; "  />
</g>
<g id="a1_000"  >
<polygon points="0,90 8,90 13,85 8,80 0,80 0,90 " style="fill:white; stroke-width:1; stroke:black; " description="&lt;b&gt;AHZ34244.1&lt;/b&gt;&lt;br&gt;PseA&lt;br&gt;Location: 1 - 1434" locus_tag="AHZ34244.1" class="clusterblast-orf" id="dummy-1_h1_5_0"  />
</g>
<g id="a1_001"  >
<polygon points="13,90 18,90 23,85 18,80 13,80 13,90 " style="fill:white; stroke-width:1; stroke:black; " description="&lt;b&gt;AHZ34245.1&lt;/b&gt;&lt;br&gt;PseB&lt;br&gt;Location: 1503 - 2543" locus_tag="AHZ34245.1" class="clusterblast-orf" id="dummy-1_h1_5_1"  />
</g>
<g id="a1_002"  >
<polygon points="23,90 46,90 51,85 46,80 23,80 23,90 " style="fill:white; stroke-width:1; stroke:black; " description="&lt;b&gt;AHZ34246.1&lt;/b&gt;&lt;br&gt;PseC&lt;br&gt;Location: 2540 - 5587" locus_tag="AHZ34246.1" class="clusterblast-orf" id="dummy-1_h1_5_2"  />
</g>
<g id="a1_003"  >
<polygon points="52,90 52,90 57,85 52,80 52,80 52,90 " style="fill:white; stroke-width:1; stroke:black; " description="&lt;b&gt;AHZ34247.1&lt;/b&gt;&lt;br&gt;CmaU&lt;br&gt;Location: 5641 - 6246" locus_tag="AHZ34247.1" class="clusterblast-orf" id="dummy-1_h1_5_3"  />
</g>
<g id="a1_004"  >
<polygon points="64,90 195,90 200,85 195,80 64,80 64,90 " style="fill:white; stroke-width:1; stroke:black; " description="&lt;b&gt;AHZ34238.1&lt;/b&gt;&lt;br&gt;CipA&lt;br&gt;Location: 6986 - 21700" locus_tag="AHZ34238.1" class="clusterblast-orf" id="dummy-1_h1_5_4"  />
</g>
<g id="a1_005"  >
<polygon points="202,90 285,90 290,85 285,80 202,80 202,90 " style="fill:white; stroke-width:1; stroke:black; " description="&lt;b&gt;AHZ34239.1&lt;/b&gt;&lt;br&gt;CipB&lt;br&gt;Location: 21826 - 31338" locus_tag="AHZ34239.1" class="clusterblast-orf" id="dummy-1_h1_5_5"  />
</g>
<g id="a1_006"  >
<polygon points="290,90 328,90 333,85 328,80 290,80 290,90 " style="fill:white; stroke-width:1; stroke:black; " description="&lt;b&gt;AHZ34240.1&lt;/b&gt;&lt;br&gt;CipC&lt;br&gt;Location: 31355 - 35977" locus_tag="AHZ34240.1" class="clusterblast-orf" id="dummy-1_h1_5_6"  />
</g>
<g id="a1_007"  >
<polygon points="334,90 448,90 453,85 448,80 334,80 334,90 " style="fill:white; stroke-width:1; stroke:black; " description="&lt;b&gt;AHZ34241.1&lt;/b&gt;&lt;br&gt;CipD&lt;br&gt;Location: 36115 - 49032" locus_tag="AHZ34241.1" class="clusterblast-orf" id="dummy-1_h1_5_7"  />
</g>
<g id="a1_008"  >
<polygon points="455,90 536,90 541,85 536,80 455,80 455,90 " style="fill:white; stroke-width:1; stroke:black; " description="&lt;b&gt;AHZ34242.1&lt;/b&gt;&lt;br&gt;CipE&lt;br&gt;Location: 49256 - 58486" locus_tag="AHZ34242.1" class="clusterblast-orf" id="dummy-1_h1_5_8"  />
</g>
<g id="a1_009"  >
<polygon points="543,90 735,90 740,85 735,80 543,80 543,90 " style="fill:white; stroke-width:1; stroke:black; " description="&lt;b&gt;AHZ34243.1&lt;/b&gt;&lt;br&gt;CipF&lt;br&gt;Location: 58668 - 80042" locus_tag="AHZ34243.1" class="clusterblast-orf" id="dummy-1_h1_5_9"  />
</g>
<g id="a1_0010"  >
<polygon points="741,90 747,90 752,85 747,80 741,80 741,90 " style="fill:#8d15d8; stroke-width:1; stroke:black; " description="&lt;b&gt;AHZ34248.1&lt;/b&gt;&lt;br&gt;MacA&lt;br&gt;Location: 80124 - 81299&lt;br&gt;&lt;br&gt;&lt;b&gt;BlastP hit with ctg6_151&lt;/b&gt;&lt;br&gt;Percentage identity: 47&lt;br&gt;Percentage coverage: 90&lt;br&gt;BLAST bit score: 196&lt;br&gt;E-value: 9.8e-50" locus_tag="AHZ34248.1" class="clusterblast-orf" id="dummy-1_h1_5_10"  />
</g>
<g id="a1_0011"  >
<polygon points="752,90 765,90 770,85 765,80 752,80 752,90 " style="fill:#d84215; stroke-width:1; stroke:black; " description="&lt;b&gt;AHZ34249.1&lt;/b&gt;&lt;br&gt;MacB&lt;br&gt;Location: 81296 - 83260&lt;br&gt;&lt;br&gt;&lt;b&gt;BlastP hit with ctg6_152&lt;/b&gt;&lt;br&gt;Percentage identity: 46&lt;br&gt;Percentage coverage: 100&lt;br&gt;BLAST bit score: 480&lt;br&gt;E-value: 3.4e-135" locus_tag="AHZ34249.1" class="clusterblast-orf" id="dummy-1_h1_5_11"  />
</g>
<g id="a1_0012"  >
<polygon points="772,85 777,80 780,80 780,90 777,90 772,85 " style="fill:white; stroke-width:1; stroke:black; " description="&lt;b&gt;AHZ34250.1&lt;/b&gt;&lt;br&gt;LuxR&lt;br&gt;Location: 83419 - 84261" locus_tag="AHZ34250.1" class="clusterblast-orf" id="dummy-1_h1_5_12"  />
</g>
</svg>
